<?xml version="1.0" standalone="no"?>
<!DOCTYPE svg PUBLIC "-//W3C//DTD SVG 1.1//EN" "http://www.w3.org/Graphics/SVG/1.1/DTD/svg11.dtd" >
<svg xmlns="http://www.w3.org/2000/svg" xmlns:xlink="http://www.w3.org/1999/xlink" version="1.1">
<metadata>
Created by FontForge 20161003 at Mon Aug  7 16:39:43 2017
 By www-data
Copyright (c) 2009 by Andrij Shevchenko / AndrijType. All rights reserved.
</metadata>
<defs>
<font id="OksanaSansBold" horiz-adv-x="625" >
  <font-face 
    font-family="OksanaSansBold"
    font-weight="700"
    font-stretch="normal"
    units-per-em="1000"
    panose-1="2 1 8 4 4 2 0 2 0 4"
    ascent="750"
    descent="-250"
    x-height="500"
    cap-height="650"
    bbox="-37 -269 1913 994"
    underline-thickness="50"
    underline-position="-150"
    unicode-range="U+0020-FB06"
  />
<missing-glyph horiz-adv-x="817" 
d="M652 116l-90 -73l-162 193l-173 -161l-90 72l190 176l-167 200l90 72l162 -193l181 168l90 -72l-198 -184zM735 301q0 -32 -22 -52.5t-54 -20.5t-54.5 20.5t-22.5 52.5t22.5 52t54.5 20t54 -20t22 -52zM504 590q0 -32 -22.5 -52t-54.5 -20t-54 20t-22 52t22.5 52.5
t53.5 20.5q32 0 54.5 -20.5t22.5 -52.5zM468 47q0 -32 -22 -51.5t-54 -19.5t-54 20t-22 51q0 32 22.5 53t53.5 21q32 0 54 -21t22 -53zM227 342q-1 -33 -22.5 -53.5t-53.5 -20.5t-54 20.5t-22 53.5q0 32 22.5 51.5t54.5 19.5q31 0 53 -20t22 -51z" />
    <glyph glyph-name="fi" unicode="fi" horiz-adv-x="758" 
d="M681 500v-500h-155v379h-276v-379h-154v379h-61v121h61v46q0 213 197 213q42 0 78.5 -6.5t52.5 -12.5l15 -7v-123q-49 15 -110 15q-43 0 -61 -17t-18 -62v-46h431zM686 673q0 -34 -23 -58.5t-61 -24.5q-37 0 -59.5 24.5t-22.5 58.5t22.5 59t59.5 25t60.5 -25t23.5 -59z
" />
    <glyph glyph-name="fl" unicode="fl" horiz-adv-x="765" 
d="M696 750v-750h-154v620q-1 0 -11 1t-27 2t-38.5 2.5t-50 2.5t-57.5 1q-64 0 -86 -17.5t-22 -65.5v-46h163v-121h-163v-379h-154v379h-61v121h61v46q0 109 55.5 161.5t187.5 52.5q37 0 91 -2.5t89 -5.5l35 -2h142z" />
    <glyph glyph-name="afii10104_afii10104" unicode="&#x457;&#x457;" horiz-adv-x="620" 
d="M657 673q0 -33 -24 -58t-59 -25t-59 25t-24 58t24 58.5t59 25.5t59 -25.5t24 -58.5zM480 673q0 -33 -24 -58t-59 -25t-58.5 25t-23.5 58t23.5 58.5t58.5 25.5t59 -25.5t24 -58.5zM307 673q0 -33 -24 -58t-59 -25q-34 0 -58 25t-24 58t24 58.5t58 25.5q35 0 59 -25.5
t24 -58.5zM130 673q0 -33 -24 -58t-59 -25t-58.5 25t-23.5 58t23.5 58.5t58.5 25.5t59 -25.5t24 -58.5zM231 500v-500h-154v500h154zM543 500v-500h-154v500h154z" />
    <glyph glyph-name="afii10103_afii10104" unicode="&#x456;&#x457;" horiz-adv-x="620" 
d="M657 673q0 -33 -24 -58t-59 -25t-59 25t-24 58t24 58.5t59 25.5t59 -25.5t24 -58.5zM449 673q0 -33 -23.5 -58t-58.5 -25t-58.5 25t-23.5 58t23.5 58.5t58.5 25.5t58.5 -25.5t23.5 -58.5zM231 500v-500h-154v500h154zM236 673q0 -34 -23 -58.5t-61 -24.5
q-37 0 -59.5 24.5t-22.5 58.5t22.5 59t59.5 25t60.5 -25t23.5 -59zM543 500v-500h-154v500h154z" />
    <glyph glyph-name=".notdef" horiz-adv-x="817" 
d="M652 116l-90 -73l-162 193l-173 -161l-90 72l190 176l-167 200l90 72l162 -193l181 168l90 -72l-198 -184zM735 301q0 -32 -22 -52.5t-54 -20.5t-54.5 20.5t-22.5 52.5t22.5 52t54.5 20t54 -20t22 -52zM504 590q0 -32 -22.5 -52t-54.5 -20t-54 20t-22 52t22.5 52.5
t53.5 20.5q32 0 54.5 -20.5t22.5 -52.5zM468 47q0 -32 -22 -51.5t-54 -19.5t-54 20t-22 51q0 32 22.5 53t53.5 21q32 0 54 -21t22 -53zM227 342q-1 -33 -22.5 -53.5t-53.5 -20.5t-54 20.5t-22 53.5q0 32 22.5 51.5t54.5 19.5q31 0 53 -20t22 -51z" />
    <glyph glyph-name=".null" horiz-adv-x="0" 
 />
    <glyph glyph-name="nonmarkingreturn" horiz-adv-x="333" 
 />
    <glyph glyph-name="space" unicode=" " horiz-adv-x="313" 
 />
    <glyph glyph-name="exclam" unicode="!" horiz-adv-x="393" 
d="M281 750l-18 -458h-129l-14 458h161zM282 74q0 -37 -23.5 -62t-58.5 -25q-37 0 -60.5 24.5t-23.5 62.5t23.5 63t60.5 25q35 0 58.5 -25t23.5 -63z" />
    <glyph glyph-name="quotedbl" unicode="&#x22;" horiz-adv-x="467" 
d="M177 746l-15 -252h-115l-14 252h144zM406 746l-15 -252h-115l-14 252h144z" />
    <glyph glyph-name="numbersign" unicode="#" horiz-adv-x="626" 
d="M510 563l-26 -99h89v-100h-114l-21 -79h135v-100h-161l-34 -135l-91 26l28 109h-80l-32 -124l-91 26l25 98h-85v100h111l20 79h-131v100h157l35 135l91 -25l-29 -110h80l32 124zM281 364l-21 -79h80l20 79h-79z" />
    <glyph glyph-name="dollar" unicode="$" horiz-adv-x="508" 
d="M22 114l46 102q11 -7 30.5 -17t70.5 -26.5t92 -16.5q32 0 49.5 14t17.5 31q0 14 -20.5 26.5t-51.5 22.5t-66.5 25t-66.5 32.5t-51.5 47.5t-20.5 67q0 59 43.5 100.5t114.5 56.5l-5 121h143l-6 -116q32 -3 60.5 -8.5t40.5 -9.5l13 -4v-113q-94 30 -167 30
q-37 0 -60.5 -11.5t-23.5 -31.5q0 -17 28.5 -31.5t69 -28t81.5 -31.5t69.5 -51t28.5 -77q0 -56 -36 -99t-104 -60l6 -108h-143l4 101q-57 5 -103.5 21t-64.5 29z" />
    <glyph glyph-name="percent" unicode="%" horiz-adv-x="1157" 
d="M865 650l-425 -650h-149l426 650h148zM468 463q0 -91 -60 -149t-155 -58q-97 0 -154.5 58t-57.5 149q0 89 59.5 147t152.5 58q91 0 153 -58t62 -147zM342 463q0 38 -25.5 61.5t-63.5 23.5q-37 0 -61 -23.5t-24 -61.5t24 -62.5t61 -24.5q39 0 64 24.5t25 62.5zM1116 187
q0 -91 -60 -149t-155 -58q-97 0 -154.5 58t-57.5 149q0 89 59.5 147t152.5 58q91 0 153 -58t62 -147zM990 187q0 38 -25.5 61.5t-63.5 23.5q-37 0 -61 -23.5t-24 -61.5t24 -62.5t61 -24.5q39 0 64 24.5t25 62.5z" />
    <glyph glyph-name="ampersand" unicode="&#x26;" horiz-adv-x="822" 
d="M788 409v-100h-201v-128q0 -66 63 -66q29 0 64 9.5t55 18.5l20 9v-110q-7 -7 -21.5 -17t-62.5 -27t-102 -17q-109 0 -150 86h-1q-2 -3 -5.5 -9t-18.5 -21t-34.5 -26t-55 -20.5t-78.5 -9.5q-96 0 -162 56.5t-66 146.5q0 73 40 120.5t110 70.5q-75 51 -75 124q0 81 54 125
t150 44q42 0 78 -6.5t51 -13.5l15 -6v-97q-38 16 -95 16q-107 0 -107 -78q0 -21 7.5 -37t19 -23t19 -10t13.5 -4h121v76l154 52v-128h201zM433 157v152h-109q-131 -3 -131 -99q0 -48 33.5 -77t91.5 -29q25 0 45.5 5.5t33 13t21 15.5t12.5 14z" />
    <glyph glyph-name="quotesingle" unicode="'" horiz-adv-x="238" 
d="M177 746l-15 -252h-115l-14 252h144z" />
    <glyph glyph-name="parenleft" unicode="(" horiz-adv-x="425" 
d="M264 744l119 -48q-5 -6 -14 -18t-31 -53.5t-39 -87t-31 -117.5t-14 -148t13.5 -147t32 -118t37.5 -83.5t33 -53.5l13 -17l-119 -49q-7 6 -18 17t-39 52.5t-50 90.5t-39.5 132t-17.5 176t17 175.5t41 134.5t48 90.5t41 55.5z" />
    <glyph glyph-name="parenright" unicode=")" horiz-adv-x="425" 
d="M161 -196l-118 49q5 6 14 18t31 53.5t39 87t31 117.5t14 148t-13.5 147t-32.5 118t-37.5 83.5t-32.5 53.5l-13 17l118 48q7 -6 18 -17t39.5 -52t50 -90.5t39.5 -132t18 -175.5t-17 -175.5t-41 -134.5t-48.5 -91t-41.5 -56z" />
    <glyph glyph-name="asterisk" unicode="*" horiz-adv-x="485" 
d="M53 636l147 -81l-29 167h143l-32 -166l150 80l44 -136l-166 -21l121 -118l-116 -84l-71 152l-75 -152l-116 84l122 115l-166 24z" />
    <glyph glyph-name="plus" unicode="+" horiz-adv-x="547" 
d="M338 503v-169h176v-119h-176v-170h-127v170h-178v119h178v169h127z" />
    <glyph glyph-name="comma" unicode="," horiz-adv-x="312" 
d="M102 70l-22 69q26 25 67 25q32 0 56.5 -17.5t24.5 -48.5q0 -112 -108 -252l-85 32q67 119 67 192z" />
    <glyph glyph-name="hyphen" unicode="-" horiz-adv-x="396" 
d="M363 334v-119h-330v119h330z" />
    <glyph glyph-name="period" unicode="." horiz-adv-x="349" 
d="M257 74q0 -37 -23.5 -62t-58.5 -25q-37 0 -60.5 24.5t-23.5 62.5t23.5 63t60.5 25q35 0 58.5 -25t23.5 -63z" />
    <glyph glyph-name="slash" unicode="/" horiz-adv-x="549" 
d="M438 750h148q-243 -505 -455 -1000h-149q94 220 208 470t181 390z" />
    <glyph glyph-name="zero" unicode="0" horiz-adv-x="697" 
d="M347 668q141 0 225.5 -95.5t84.5 -249.5t-84 -248t-226 -94t-224 93.5t-82 248.5t82.5 250t223.5 95zM347 532q-73 0 -111 -57t-38 -152q0 -97 37 -151.5t112 -54.5t113.5 55t38.5 151t-38.5 152.5t-113.5 56.5z" />
    <glyph glyph-name="one" unicode="1" horiz-adv-x="486" 
d="M239 650h161v-650h-161v492q-109 -93 -169 -138l-71 96q52 45 112 95t94 77z" />
    <glyph glyph-name="two" unicode="2" horiz-adv-x="588" 
d="M547 128v-128h-516v128q14 8 36.5 21t80 52.5t102 77t80.5 85t36 84.5q0 48 -31 69.5t-102 21.5q-39 0 -83 -5t-69 -10l-25 -5v116q88 33 208 33q131 0 201 -55.5t70 -135.5q0 -51 -27 -104.5t-73.5 -101t-94 -85.5t-102.5 -73q11 1 78.5 6t119.5 7t111 2z" />
    <glyph glyph-name="three" unicode="3" horiz-adv-x="596" 
d="M25 68l50 96q9 -6 25.5 -16t61 -26t83.5 -16q75 0 110 26t35 68q0 41 -39 65t-121 24l-55 83q78 76 154 165q-117 -12 -248 -12v125h428v-87q-70 -85 -160 -171q92 -16 149.5 -67t57.5 -125q0 -96 -79.5 -157.5t-207.5 -61.5q-46 0 -88 9t-69 21.5t-48 25.5t-30 22z" />
    <glyph glyph-name="four" unicode="4" 
d="M393 650h115v-390h104v-117h-104v-143h-154v143h-340v117q72 91 166.5 188.5t153.5 149.5zM354 260v223l1 5q-8 -6 -30.5 -28.5t-76 -80.5t-108.5 -126q40 0 115.5 3.5t98.5 3.5z" />
    <glyph glyph-name="five" unicode="5" horiz-adv-x="591" 
d="M506 650v-125q-144 0 -245 8q-2 -17 -8 -118q20 2 30 2q128 0 198 -59t70 -149q0 -102 -78.5 -165t-208.5 -63q-46 0 -88 9t-69 21.5t-48 25.5t-30 22l-9 9l51 96q9 -6 25 -16t61 -26t84 -16q145 0 145 106q0 93 -146 93q-62 0 -116 -12h-3l-5 -1q4 103 9.5 192.5
t8.5 127.5l3 38h369z" />
    <glyph glyph-name="six" unicode="6" 
d="M431 668l37 -113q-191 -32 -247 -175q74 33 146 33q101 0 163 -54.5t62 -131.5q0 -109 -79.5 -177.5t-206.5 -68.5q-120 0 -192.5 73.5t-72.5 183.5q0 95 34.5 174t92 130t124.5 82.5t139 43.5zM329 301q-63 0 -130 -29q-1 -11 -1 -34q0 -53 30.5 -92.5t90.5 -39.5
q55 0 85 30t30 78q0 40 -28.5 63.5t-76.5 23.5z" />
    <glyph glyph-name="seven" unicode="7" horiz-adv-x="544" 
d="M530 650v-87q-146 -266 -263 -563h-178q90 229 255 532q-166 -14 -330 -14v132h516z" />
    <glyph glyph-name="eight" unicode="8" horiz-adv-x="648" 
d="M41 183q0 99 134 151q-106 59 -106 155q0 77 75 128t181 51t180 -49.5t74 -130.5q0 -88 -99 -141q128 -56 128 -165q0 -83 -76.5 -142t-206.5 -59q-132 0 -208 57.5t-76 144.5zM451 194q0 37 -37 61.5t-74 30.5l-38 6q-4 0 -10 1q-96 -37 -96 -96q0 -45 33.5 -73.5
t95.5 -28.5q58 0 92 28t34 71zM353 382q4 -1 9 -1q68 40 68 93q0 36 -29.5 60t-75.5 24q-47 0 -76.5 -22t-29.5 -55q0 -37 33.5 -61.5t67.5 -31.5zM328 338l-2 -3v-1z" />
    <glyph glyph-name="nine" unicode="9" 
d="M194 -19l-37 112q190 32 246 175q-72 -32 -145 -32q-101 0 -163 54.5t-62 131.5q0 108 79.5 177t206.5 69q120 0 192.5 -73.5t72.5 -183.5q0 -77 -23 -144t-61 -114.5t-89 -84t-105.5 -57.5t-111.5 -30zM296 348q62 0 129 27q1 12 1 36q0 53 -30 92.5t-90 39.5
q-55 0 -85 -30.5t-30 -77.5q0 -40 28.5 -63.5t76.5 -23.5z" />
    <glyph glyph-name="colon" unicode=":" horiz-adv-x="350" 
d="M257 390q0 -37 -23.5 -62t-58.5 -25q-37 0 -60.5 24.5t-23.5 62.5t23.5 63t60.5 25q35 0 58.5 -25t23.5 -63zM257 108q0 -37 -23.5 -62t-58.5 -25q-37 0 -60.5 24.5t-23.5 62.5t23.5 63t60.5 25q35 0 58.5 -25t23.5 -63z" />
    <glyph glyph-name="semicolon" unicode=";" horiz-adv-x="349" 
d="M123 70l-22 69q26 25 67 25q32 0 56.5 -17.5t24.5 -48.5q0 -112 -108 -252l-85 32q67 119 67 192zM257 390q0 -37 -23.5 -62t-58.5 -25q-37 0 -60.5 24.5t-23.5 62.5t23.5 63t60.5 25q35 0 58.5 -25t23.5 -63z" />
    <glyph glyph-name="less" unicode="&#x3c;" horiz-adv-x="456" 
d="M422 160l-71 -73l-295 228l295 229l71 -74l-214 -155z" />
    <glyph glyph-name="equal" unicode="=" horiz-adv-x="631" 
d="M598 446v-119h-565v119h565zM598 221v-119h-565v119h565z" />
    <glyph glyph-name="greater" unicode="&#x3e;" horiz-adv-x="456" 
d="M34 470l71 74l295 -229l-295 -228l-71 73l214 155z" />
    <glyph glyph-name="question" unicode="?" horiz-adv-x="478" 
d="M3 608v115q6 4 19 10t59 16t100 10q130 0 200.5 -54.5t70.5 -128.5q0 -48 -18.5 -84t-46 -54t-60 -35t-60 -29.5t-46 -35t-18.5 -52.5q0 -16 4 -31l-113 -15q-13 40 -13 73q0 42 21 73.5t50.5 50.5t59 35.5t50.5 37.5t21 47q0 77 -134 77q-32 0 -68.5 -6.5t-56.5 -13.5z
M237 74q0 -37 -23.5 -62t-58.5 -25q-37 0 -60.5 24.5t-23.5 62.5t23.5 63t60.5 25q35 0 58.5 -25t23.5 -63z" />
    <glyph glyph-name="at" unicode="@" horiz-adv-x="1056" 
d="M746 -19q-58 0 -86 23t-35 67l-5 -10t-15.5 -21.5t-27.5 -27.5t-39.5 -21.5t-52.5 -9.5q-76 0 -125.5 57t-49.5 146q0 96 63.5 160.5t181.5 64.5q44 0 88 -8.5t66 -16.5l22 -9v-273q0 -36 30 -36q41 0 70.5 50t29.5 149q0 117 -81 183t-216 66q-71 0 -132.5 -19
t-111.5 -57t-79 -103.5t-29 -150.5q0 -78 26.5 -139t72.5 -98.5t104.5 -57t126.5 -19.5v-102q-211 0 -331.5 108.5t-120.5 307.5q0 198 130.5 315t343.5 117q190 0 300.5 -94t110.5 -257q0 -77 -21.5 -135t-56.5 -89t-73 -45.5t-78 -14.5zM526 81q51 0 97 63v160
q-55 11 -77 11q-56 0 -88 -37.5t-32 -93.5q0 -49 26 -76t74 -27z" />
    <glyph glyph-name="A" unicode="A" horiz-adv-x="754" 
d="M283 650l2 -3l1 3h192l257 -650h-164l-50 126h-292l-47 -126h-163zM482 230l-106 299l-108 -299h214z" />
    <glyph glyph-name="B" unicode="B" horiz-adv-x="671" 
d="M92 0v650q145 18 239 18q245 0 245 -175q0 -79 -64 -145q118 -46 118 -150q0 -94 -72.5 -155.5t-219.5 -61.5q-55 0 -116.5 4.5t-95.5 9.5zM327 280q-49 0 -91 -5v-170q63 -5 101 -5q139 0 139 98q0 82 -149 82zM327 377q40 0 73 -4q44 48 44 99q0 80 -113 80
q-34 0 -95 -7v-171q45 3 91 3z" />
    <glyph glyph-name="C" unicode="C" horiz-adv-x="705" 
d="M635 634v-232h-122v129q-50 9 -90 9q-105 0 -159.5 -59.5t-54.5 -158.5q0 -94 56 -151t150 -57q54 0 110 23.5t85 46.5l28 24l54 -85q-4 -6 -11.5 -15.5t-35.5 -34t-59.5 -43t-83.5 -34t-109 -15.5q-161 0 -256.5 94.5t-95.5 246.5q0 151 101 248.5t263 97.5
q66 0 123.5 -8.5t81.5 -17.5z" />
    <glyph glyph-name="D" unicode="D" horiz-adv-x="789" 
d="M92 0v650q113 18 259 18q179 0 288.5 -93.5t109.5 -251.5q0 -156 -107.5 -249t-289.5 -93q-64 0 -129 4.5t-98 9.5zM353 113q102 0 164.5 58.5t62.5 151.5q0 95 -61 154t-168 59q-39 0 -97 -5v-414q39 -4 99 -4z" />
    <glyph glyph-name="E" unicode="E" 
d="M588 125v-125h-496v650h478v-125h-316v-128h254v-121h-254v-151h334z" />
    <glyph glyph-name="F" unicode="F" horiz-adv-x="590" 
d="M533 361v-121h-279v-240h-162v650h484v-125h-322v-164h279z" />
    <glyph glyph-name="G" unicode="G" horiz-adv-x="753" 
d="M429 109q61 0 125 22v258h137v-332q-4 -3 -12 -8t-34.5 -18.5t-56 -23.5t-75.5 -18t-94 -8q-180 0 -279 92t-99 250q0 153 104.5 249t272.5 96q64 0 124.5 -8.5t88.5 -17.5l28 -8v-122q-114 31 -212 31q-120 0 -181 -60t-61 -160q0 -101 63 -157.5t161 -56.5z" />
    <glyph glyph-name="H" unicode="H" horiz-adv-x="798" 
d="M705 650v-650h-160v256h-291v-256h-162v650h162v-274h291v274h160z" />
    <glyph glyph-name="I" unicode="I" horiz-adv-x="347" 
d="M254 650v-650h-162v650h162z" />
    <glyph glyph-name="J" unicode="J" horiz-adv-x="366" 
d="M273 650v-508q0 -158 -78.5 -247t-197.5 -109l-22 133q68 15 102 72.5t34 147.5v511h162z" />
    <glyph glyph-name="K" unicode="K" horiz-adv-x="742" 
d="M92 0v650h162v-286l61 52l211 234h189l-293 -301l317 -349h-188l-232 256l-65 -50v-206h-162z" />
    <glyph glyph-name="L" unicode="L" horiz-adv-x="582" 
d="M571 120v-120h-479v650h162v-530h317z" />
    <glyph glyph-name="M" unicode="M" horiz-adv-x="987" 
d="M858 650l103 -650h-155l-62 419l-180 -419h-141l-184 419l-58 -419h-154l112 650h155l201 -479l206 479h157z" />
    <glyph glyph-name="N" unicode="N" horiz-adv-x="820" 
d="M727 650v-650h-132l-366 420q3 -23 3 -57v-363h-140v650l130 1l369 -428q-4 18 -4 51v376h140z" />
    <glyph glyph-name="O" unicode="O" horiz-adv-x="808" 
d="M768 324q0 -152 -102.5 -247.5t-262.5 -95.5t-261 95t-101 248t101 248.5t261 95.5t262.5 -95.5t102.5 -248.5zM603 324q0 93 -56.5 152.5t-143.5 59.5q-86 0 -142 -59.5t-56 -152.5t55 -152t143 -59t144 59.5t56 151.5z" />
    <glyph glyph-name="P" unicode="P" horiz-adv-x="643" 
d="M92 0v650q126 18 232 18q131 0 208 -65.5t77 -177.5q0 -52 -17 -94t-44.5 -68.5t-64 -44.5t-72.5 -25.5t-73 -7.5q-51 0 -95 11v-196h-151zM319 541q-18 0 -76 -4v-227q19 -3 49 -3q67 0 113 27.5t46 90.5q0 54 -35.5 85t-96.5 31z" />
    <glyph glyph-name="Q" unicode="Q" horiz-adv-x="808" 
d="M409 -19q-169 0 -268.5 94t-99.5 248q0 155 97.5 250t256.5 95q158 0 259 -89.5t101 -214.5q0 -119 -64 -214.5t-132 -95.5v-3q131 0 194 -146l-124 -71q-23 65 -92.5 106t-127.5 41zM205 323q0 -96 60.5 -153t181.5 -57q51 0 94.5 73t43.5 163q0 80 -52 133.5t-138 53.5
t-138 -59.5t-52 -153.5z" />
    <glyph glyph-name="R" unicode="R" horiz-adv-x="687" 
d="M92 0v650q106 18 231 18q137 0 211.5 -60t74.5 -155q0 -127 -129 -197l204 -256h-201l-151 206q-43 -9 -89 -11v-195h-151zM323 540q-22 0 -80 -4v-227q33 1 64 7t65 19t54.5 39t20.5 63q0 49 -31.5 76t-92.5 27z" />
    <glyph glyph-name="S" unicode="S" horiz-adv-x="622" 
d="M541 644v-186h-112v84q-49 9 -79 9q-63 0 -96 -21t-33 -58q0 -30 37 -52t90 -38t106.5 -36.5t90.5 -59.5t37 -94q0 -93 -74 -152t-206 -59q-48 0 -93 8.5t-75 20.5t-53 24t-33 20l-11 9l57 119q12 -8 32 -20t76.5 -32.5t105.5 -20.5q46 0 81 20t35 49q0 22 -26.5 39
t-67 28.5t-87 29t-87 38.5t-67 59.5t-26.5 89.5q0 83 78.5 144.5t212.5 61.5q44 0 90.5 -6t71.5 -12z" />
    <glyph glyph-name="T" unicode="T" horiz-adv-x="609" 
d="M603 650v-121h-217v-529h-162v529h-218v121h597z" />
    <glyph glyph-name="U" unicode="U" horiz-adv-x="789" 
d="M697 650v-650h-161v125h-4q-2 -6 -7 -15.5t-24.5 -34.5t-43.5 -44t-66 -34.5t-91 -15.5q-110 0 -163 59t-53 167v443h161v-379q0 -141 127 -141q32 0 61.5 15t51 38.5t32.5 38.5t19 29v399h161z" />
    <glyph glyph-name="V" unicode="V" horiz-adv-x="730" 
d="M7 650h165l193 -507l193 507h165l-277 -649l1 -1h-163z" />
    <glyph glyph-name="W" unicode="W" horiz-adv-x="1124" 
d="M958 650h158q-21 -65 -70 -202.5t-102 -282.5t-60 -165h-158l-164 476l-166 -476h-158l-231 650h159l38 -113q37 -113 76.5 -232.5t42.5 -127.5l168 473h143l40 -112q40 -113 82 -231t45 -126z" />
    <glyph glyph-name="X" unicode="X" horiz-adv-x="744" 
d="M6 0l275 325l-270 325h185l176 -224l177 224h184l-271 -325l277 -325h-193l-174 221l-174 -221h-192z" />
    <glyph glyph-name="Y" unicode="Y" horiz-adv-x="708" 
d="M172 650q23 -43 50.5 -93.5t51.5 -94.5t44 -80.5t33.5 -61t14.5 -25.5l178 355h164l-354 -650h-165l94 176l-276 474h165z" />
    <glyph glyph-name="Z" unicode="Z" horiz-adv-x="678" 
d="M630 650v-80l-358 -450h358v-120h-583v80l359 450h-359v120h583z" />
    <glyph glyph-name="bracketleft" unicode="[" horiz-adv-x="460" 
d="M455 21v-112h-355v803h355v-112h-219v-579h219z" />
    <glyph glyph-name="backslash" unicode="\" horiz-adv-x="549" 
d="M-37 750h149q94 -220 208 -470t180 -390l67 -140h-148q-244 505 -456 1000z" />
    <glyph glyph-name="bracketright" unicode="]" horiz-adv-x="460" 
d="M360 712v-803h-355v112h218v579h-218v112h355z" />
    <glyph glyph-name="asciicircum" unicode="^" horiz-adv-x="429" 
d="M214 700l181 -173l-62 -62l-119 120l-119 -120l-62 62z" />
    <glyph glyph-name="underscore" unicode="_" horiz-adv-x="822" 
d="M789 -66v-119h-755v119h755z" />
    <glyph glyph-name="grave" unicode="`" horiz-adv-x="284" 
d="M-13 712l78 72l147 -167l-60 -55z" />
    <glyph glyph-name="a" unicode="a" horiz-adv-x="604" 
d="M383 0v55h-2q-2 -3 -5 -8t-16.5 -18t-30 -22.5t-46 -17.5t-63.5 -8q-81 0 -134.5 44.5t-53.5 117.5q0 78 58.5 123.5t178.5 45.5q56 0 114 -7v17q0 46 -27 64t-93 18q-37 0 -74 -4.5t-55 -9.5l-19 -4l-16 99q85 34 189 34q142 0 195.5 -53t53.5 -163v-303h-154zM276 87
q32 0 58.5 13.5t37.5 27.5l11 14v78q-48 5 -86 5q-115 0 -115 -69q0 -31 26 -50t68 -19z" />
    <glyph glyph-name="b" unicode="b" horiz-adv-x="655" 
d="M67 10v740h154v-303h2q6 9 23.5 24t57 31.5t83.5 16.5q101 0 168.5 -72.5t67.5 -184.5q0 -123 -84 -202t-218 -79q-68 0 -131.5 7.5t-93.5 14.5zM329 393q-30 0 -57 -10.5t-39 -20.5l-12 -11v-252q37 -9 76 -9q82 0 125.5 43t43.5 114q0 66 -38 106t-99 40z" />
    <glyph glyph-name="c" unicode="c" horiz-adv-x="534" 
d="M488 158l40 -87q-3 -4 -8 -10t-24 -21.5t-42 -27.5t-62 -21.5t-82 -9.5q-124 0 -201 69t-77 185q0 131 82.5 207.5t208.5 76.5q36 0 75 -5.5t60 -11.5l22 -6v-120q-73 22 -143 22q-68 0 -111.5 -42t-43.5 -108q0 -67 42.5 -106.5t103.5 -39.5q42 0 82 14t59 28z" />
    <glyph glyph-name="d" unicode="d" horiz-adv-x="655" 
d="M588 750v-750h-154v44h-2q-6 -9 -21.5 -21.5t-55 -27t-87.5 -14.5q-112 0 -174 68t-62 182q0 124 89 206t236 82q37 0 77 -5v236h154zM322 106q72 0 112 40v255q-36 9 -62 9q-90 0 -136 -44t-46 -116q0 -66 36 -105t96 -39z" />
    <glyph glyph-name="e" unicode="e" horiz-adv-x="570" 
d="M491 143l34 -98q-9 -7 -25.5 -17.5t-75.5 -28.5t-125 -18q-112 0 -189.5 67t-77.5 183q0 129 74 208.5t182 79.5q106 0 173.5 -58t67.5 -163q0 -23 -4.5 -45.5t-8.5 -33.5l-4 -11h-333v-4q0 -50 42.5 -79t106.5 -29q44 0 85 12t59 24zM290 409q-45 0 -77.5 -33t-36.5 -85
q128 0 221 5v17q0 49 -29 72.5t-78 23.5z" />
    <glyph glyph-name="f" unicode="f" horiz-adv-x="440" 
d="M413 500v-121h-163v-379h-154v379h-61v121h61v46q0 213 197 213q42 0 78.5 -6.5t52.5 -12.5l15 -7v-123q-49 15 -110 15q-43 0 -61 -17t-18 -62v-46h163z" />
    <glyph glyph-name="g" unicode="g" horiz-adv-x="529" 
d="M450 496q33 -71 33 -151q0 -87 -51.5 -144t-150.5 -57q-24 0 -35 1q-11 -40 -11 -55q21 2 42 2q116 0 189 -44.5t73 -133.5q0 -79 -67 -131t-185 -52q-123 0 -186.5 49.5t-63.5 132.5q0 108 79 159q7 36 25 104q-85 48 -85 149q0 85 58 139.5t172 54.5q32 0 73 -5.5
t66 -11.5zM260 -15q-30 0 -77 -7q-20 -24 -20 -59q0 -34 31.5 -54.5t86.5 -20.5q53 0 82 21t29 53q0 31 -35 49t-97 18zM353 330q0 31 -16 73q-40 5 -57 5q-47 0 -70.5 -22t-23.5 -60q0 -32 23 -54t60 -22q38 0 61 22.5t23 57.5z" />
    <glyph glyph-name="h" unicode="h" horiz-adv-x="649" 
d="M67 0v750h154v-324h2q2 4 6 10t19.5 22t33.5 28.5t49 22.5t65 10q89 0 137 -54.5t48 -156.5v-308h-154v304q0 40 -22 62t-64 22q-22 0 -42.5 -8.5t-34 -21t-23.5 -25t-15 -21.5l-5 -8v-304h-154z" />
    <glyph glyph-name="i" unicode="i" horiz-adv-x="309" 
d="M231 500v-500h-154v500h154zM238 673q0 -34 -23 -58.5t-61 -24.5q-37 0 -59.5 24.5t-22.5 58.5t22.5 59t59.5 25t60.5 -25t23.5 -59z" />
    <glyph glyph-name="j" unicode="j" horiz-adv-x="324" 
d="M92 0v500h154v-500q0 -64 -24 -115.5t-63 -82.5t-82 -48.5t-88 -22.5l-22 133q50 12 87.5 45.5t37.5 90.5zM251 673q0 -34 -23 -58.5t-61 -24.5q-37 0 -59.5 24.5t-22.5 58.5t22.5 59t59.5 25t60.5 -25t23.5 -59z" />
    <glyph glyph-name="k" unicode="k" horiz-adv-x="600" 
d="M70 0v750h154v-438l33 26l136 162h177l-204 -214l228 -286h-185l-148 197l-37 -28v-169h-154z" />
    <glyph glyph-name="l" unicode="l" horiz-adv-x="290" 
d="M221 750v-750h-154v750h154z" />
    <glyph glyph-name="m" unicode="m" horiz-adv-x="923" 
d="M77 0v500h154v-83h1q1 4 4.5 11t16 24.5t28.5 31t44 24.5t61 11q118 0 146 -100q50 100 158 100q86 0 126 -49t40 -152v-318h-154v318q0 33 -18 53.5t-56 20.5q-54 0 -85 -53q0 -3 0.5 -10t0.5 -11v-318h-154v318q0 33 -18 53.5t-55 20.5q-56 0 -86 -55v-337h-154z" />
    <glyph glyph-name="n" unicode="n" horiz-adv-x="658" 
d="M77 0v500h154v-74h2q2 4 6 10t19.5 22t33.5 28.5t49 22.5t65 10q89 0 136.5 -54.5t47.5 -156.5v-308h-154v304q0 40 -22 62t-63 22q-22 0 -42.5 -8.5t-34 -21t-23.5 -25t-15 -21.5l-5 -8v-304h-154z" />
    <glyph glyph-name="o" unicode="o" horiz-adv-x="657" 
d="M625 250q0 -122 -83.5 -195.5t-213.5 -73.5t-213 73.5t-83 195.5q0 121 83 195t213 74t213.5 -74t83.5 -195zM328 398q-61 0 -99.5 -40t-38.5 -107q0 -68 38.5 -108.5t99.5 -40.5t100 40t39 108q0 67 -39 107.5t-100 40.5z" />
    <glyph glyph-name="p" unicode="p" horiz-adv-x="655" 
d="M67 -250v750h154v-53h2q6 10 21.5 24t53.5 31t81 17q108 0 176 -72t68 -185q0 -122 -84.5 -201.5t-217.5 -79.5q-57 0 -100 6v-237h-154zM329 393q-30 0 -57 -10.5t-39 -20.5l-12 -11v-251q40 -10 76 -10q82 0 125.5 43t43.5 114q0 66 -38 106t-99 40z" />
    <glyph glyph-name="q" unicode="q" horiz-adv-x="655" 
d="M588 474v-724h-154v294h-2q-6 -9 -22.5 -21.5t-57 -27t-88.5 -14.5q-111 0 -171.5 67.5t-60.5 182.5q0 124 89 206t236 82q64 0 121.5 -11.5t83.5 -22.5zM318 106q32 0 61 10.5t39 17.5t16 13v254q-36 9 -62 9q-90 0 -136 -44t-46 -116q0 -67 34 -105.5t94 -38.5z" />
    <glyph glyph-name="r" unicode="r" horiz-adv-x="438" 
d="M420 500v-134q-54 1 -82 -2q-47 -3 -70.5 -46.5t-36.5 -114.5v-203h-154v500h136v-126h2q45 145 136 145q22 0 39 -5t24 -10z" />
    <glyph glyph-name="s" unicode="s" horiz-adv-x="508" 
d="M22 46l46 102q11 -7 30.5 -17t70.5 -26.5t92 -16.5q32 0 49.5 14t17.5 31q0 14 -20.5 26.5t-51.5 22.5t-66.5 25t-66.5 32.5t-51.5 47.5t-20.5 67q0 74 66 119.5t165 45.5q48 0 91 -6.5t63 -12.5l19 -6v-113q-94 30 -167 30q-37 0 -60.5 -11.5t-23.5 -31.5
q0 -17 28.5 -31.5t69 -28t81.5 -31.5t69.5 -51t28.5 -77q0 -71 -56.5 -119.5t-160.5 -48.5q-75 0 -135.5 16.5t-83.5 32.5z" />
    <glyph glyph-name="t" unicode="t" horiz-adv-x="480" 
d="M452 500v-121h-202v-192q0 -72 63 -72q29 0 64 9.5t55 18.5l20 9v-110q-7 -7 -21.5 -17t-63 -27t-103.5 -17q-81 0 -124.5 52.5t-43.5 149.5v196h-61v121h61v122l154 53v-175h202z" />
    <glyph glyph-name="u" unicode="u" horiz-adv-x="658" 
d="M581 500v-500h-154v74h-1q-2 -4 -6 -10t-19.5 -22t-33.5 -28.5t-49 -22.5t-66 -10q-88 0 -136 54.5t-48 156.5v308h154v-304q0 -40 22.5 -62.5t63.5 -22.5q35 0 64.5 21t41.5 42l13 21v305h154z" />
    <glyph glyph-name="v" unicode="v" horiz-adv-x="609" 
d="M219 0l-210 500h163l134 -362q20 35 64.5 153.5t66.5 208.5h162q-29 -97 -99.5 -251t-125.5 -249h-155z" />
    <glyph glyph-name="w" unicode="w" horiz-adv-x="902" 
d="M730 500h163q-30 -107 -91 -250.5t-117 -249.5h-155v2l-1 -2q-68 254 -83 319q-29 -111 -100 -319h-155l-182 500h163l108 -325q12 32 46.5 149t47.5 176h155q9 -38 98 -323q76 185 103 323z" />
    <glyph glyph-name="x" unicode="x" horiz-adv-x="617" 
d="M599 500l-199 -248l209 -252h-180q-110 158 -121 177l-120 -177h-180l208 252l-198 248h179q104 -156 111 -169l112 169h179z" />
    <glyph glyph-name="y" unicode="y" horiz-adv-x="620" 
d="M444 500h166l-227 -493l-119 -257h-158l116 255l-213 495h174l127 -350z" />
    <glyph glyph-name="z" unicode="z" horiz-adv-x="524" 
d="M493 500v-72l-256 -316q6 1 19 1h235l-1 -113h-462v80l250 313q-107 -10 -230 -10v117h445z" />
    <glyph glyph-name="braceleft" unicode="{" horiz-adv-x="486" 
d="M80 228v127q36 0 71 18.5t35 54.5v116q0 108 57.5 156t208.5 48v-112q-71 0 -102 -22.5t-31 -69.5v-124q0 -78 -80 -128q80 -50 80 -128v-125q0 -47 31 -69.5t102 -22.5v-112q-151 0 -208.5 48t-57.5 157v116q0 36 -35 54t-71 18z" />
    <glyph glyph-name="bar" unicode="|" horiz-adv-x="418" 
d="M289 750v-1000h-158v1000h158z" />
    <glyph glyph-name="braceright" unicode="}" horiz-adv-x="486" 
d="M166 164q0 78 80 128q-80 50 -80 128v124q0 47 -31 69.5t-102 22.5v112q151 0 208.5 -48t57.5 -156v-116q0 -36 35.5 -54.5t70.5 -18.5v-127q-35 0 -70.5 -18.5t-35.5 -53.5v-116q0 -109 -57.5 -157t-208.5 -48v112q71 0 102 22.5t31 69.5v125z" />
    <glyph glyph-name="asciitilde" unicode="~" horiz-adv-x="726" 
d="M514 344q40 0 77 16t55 32l17 16l29 -106q-3 -4 -8 -11.5t-23.5 -26.5t-38.5 -33.5t-52 -26.5t-65 -12q-39 0 -71.5 13.5t-54 33t-42 39t-47 33t-56.5 13.5q-40 0 -83 -18.5t-66 -37.5l-23 -18l-29 118q4 5 11.5 12.5t31 26.5t47 34t56 27t62.5 12q43 0 78 -14t57 -34
t42 -40t44 -34t52 -14z" />
    <glyph glyph-name="nbspace" unicode="&#xa0;" horiz-adv-x="455" 
 />
    <glyph glyph-name="exclamdown" unicode="&#xa1;" horiz-adv-x="387" 
d="M119 -244l18 457h130l14 -457h-162zM273 430q0 -37 -23.5 -62t-58.5 -25q-37 0 -60.5 24.5t-23.5 62.5t23.5 63t60.5 25q35 0 58.5 -25t23.5 -63z" />
    <glyph glyph-name="cent" unicode="&#xa2;" horiz-adv-x="534" 
d="M488 227l40 -87q-2 -3 -5.5 -7t-17.5 -16.5t-30 -22.5t-42.5 -21t-56.5 -17l5 -106h-143l4 106q-97 17 -153.5 83t-56.5 165q0 109 58 181t153 94l-5 121h143l-6 -115q26 -3 52 -8t39 -9l14 -3v-120q-73 22 -143 22q-68 0 -111.5 -42t-43.5 -108q0 -67 42.5 -106.5
t103.5 -39.5q42 0 82 14t59 28z" />
    <glyph glyph-name="sterling" unicode="&#xa3;" horiz-adv-x="643" 
d="M529 390v-100h-207v-170h300v-120h-577v120h108v170h-108v100h108v65q0 94 59.5 153.5t168.5 59.5q38 0 75 -8t55 -16l18 -9v-116q-47 20 -104 20q-56 0 -79.5 -21.5t-23.5 -69.5v-58h207z" />
    <glyph glyph-name="currency" unicode="&#xa4;" horiz-adv-x="660" 
d="M533 315q0 -66 -42 -118l121 -111l-73 -69l-102 134q-49 -27 -106 -27t-105 27l-106 -133l-72 69l123 110q-42 50 -42 118q0 64 40 115l-121 113l72 69l103 -136q50 29 108 29q54 0 103 -26l105 133l73 -69l-123 -109q44 -50 44 -119zM458 315q0 57 -35 90t-92 33
t-91.5 -32t-34.5 -90t34.5 -91.5t91.5 -33.5t92 33.5t35 90.5z" />
    <glyph glyph-name="yen" unicode="&#xa5;" horiz-adv-x="627" 
d="M537 220v-100h-154v-120h-161v120h-167v100h167v57h-167v100h118l-145 273h181l109 -258q73 125 131 258h155q-71 -135 -172 -273h105v-100h-154v-57h154z" />
    <glyph glyph-name="brokenbar" unicode="&#xa6;" horiz-adv-x="418" 
d="M289 150v-400h-161v400h161zM289 750v-400h-161v400h161z" />
    <glyph glyph-name="section" unicode="&#xa7;" horiz-adv-x="601" 
d="M537 645v-109q-90 17 -169 17q-69 0 -96.5 -12.5t-27.5 -37.5q0 -23 22 -33.5t106 -17.5q85 -6 134.5 -34.5t49.5 -98.5q0 -66 -60 -118q57 -34 57 -103q0 -82 -64.5 -128t-192.5 -46q-46 0 -88.5 7.5t-70.5 19t-49.5 22.5t-31.5 19l-10 7l49 94q9 -6 24.5 -15t63 -24
t93.5 -15q51 0 81.5 16.5t30.5 38.5q0 24 -19 34t-93 14q-96 7 -147.5 38.5t-51.5 103.5q0 58 57 117q-55 31 -55 105q0 75 67 118.5t184 43.5q57 0 109 -6t75 -12zM297 367q-41 3 -65 7q-22 -42 -22 -75q0 -31 29.5 -45t113.5 -19q26 -2 38 -4q28 38 28 73q0 33 -25 45.5
t-97 17.5z" />
    <glyph glyph-name="dieresis" unicode="&#xa8;" horiz-adv-x="505" 
d="M382 673q0 -33 -24 -58t-59 -25q-34 0 -58 25t-24 58t24 58.5t58 25.5q35 0 59 -25.5t24 -58.5zM166 673q0 -33 -23.5 -58t-58.5 -25t-59 25t-24 58t24 58.5t59 25.5t58.5 -25.5t23.5 -58.5z" />
    <glyph glyph-name="copyright" unicode="&#xa9;" horiz-adv-x="892" 
d="M820 323q0 -155 -104 -255.5t-272 -100.5q-167 0 -270 100.5t-103 255.5q0 154 103.5 254.5t269.5 100.5t271 -100.5t105 -254.5zM713 322q0 120 -75.5 196t-194.5 76q-118 0 -191 -76t-73 -196t73 -195.5t191 -75.5q119 0 194.5 76t75.5 195zM570 479v-80q-51 8 -92 8
q-53 0 -81.5 -24t-28.5 -69q0 -85 100 -85q28 0 54.5 12t39.5 24l12 12l32 -51l-5 -10t-17 -21.5t-31 -27.5t-47.5 -22t-66.5 -10q-78 0 -127.5 48.5t-49.5 130.5t57.5 132.5t142.5 50.5q35 0 62 -4.5t36 -8.5z" />
    <glyph glyph-name="ordfeminine" unicode="&#xaa;" horiz-adv-x="539" 
d="M417 295h-123v41q-48 -54 -124 -54q-56 0 -92.5 31t-36.5 86q0 60 53 90.5t126 30.5q31 0 74 -5v14q0 48 -68 48q-29 0 -59 -2.5t-45 -4.5l-16 -3v73q58 18 134 18q95 0 136 -35t41 -104v-224zM221 353q35 0 73 38v66q-27 3 -49 3q-40 0 -59 -16t-19 -40
q0 -22 14.5 -36.5t39.5 -14.5z" />
    <glyph glyph-name="guillemotleft" unicode="&#xab;" horiz-adv-x="644" 
d="M354 364l-122 -115l121 -117l-65 -74l-193 192l193 187zM577 364l-122 -115l121 -117l-65 -74l-193 192l193 187z" />
    <glyph glyph-name="logicalnot" unicode="&#xac;" horiz-adv-x="595" 
d="M537 374v-281h-127v162h-353v119h480z" />
    <glyph glyph-name="uni00AD" unicode="&#xad;" horiz-adv-x="425" 
d="M377 334v-119h-330v119h330z" />
    <glyph glyph-name="registered" unicode="&#xae;" horiz-adv-x="810" 
d="M749 428q0 -145 -96 -238t-249 -93t-247.5 92.5t-94.5 238.5q0 145 97 238t245 93t246.5 -93.5t98.5 -237.5zM649 428q0 116 -67 183.5t-179 67.5q-111 0 -176 -68.5t-65 -182.5q0 -117 64 -182t177 -65t179.5 65.5t66.5 181.5zM284 272v311q29 7 120 7q73 0 112.5 -28.5
t39.5 -77.5q0 -56 -66 -93l65 -119h-91l-46 92q-23 -6 -52 -11v-81h-82zM406 526q-5 0 -18.5 -0.5t-21.5 -0.5v-114q21 3 41.5 9t40.5 21t20 34q0 51 -62 51z" />
    <glyph glyph-name="macron" unicode="&#xaf;" horiz-adv-x="515" 
d="M380 693v-81h-261v81h261z" />
    <glyph glyph-name="degree" unicode="&#xb0;" horiz-adv-x="508" 
d="M468 564q0 -91 -60 -149t-155 -58q-97 0 -154.5 58t-57.5 149q0 89 59.5 147t152.5 58q91 0 153 -58t62 -147zM342 564q0 38 -25.5 61.5t-63.5 23.5q-37 0 -61 -23.5t-24 -61.5t24 -62.5t61 -24.5q39 0 64 24.5t25 62.5z" />
    <glyph glyph-name="plusminus" unicode="&#xb1;" horiz-adv-x="631" 
d="M382 614v-169h176v-119h-176v-170h-127v170h-178v119h178v169h127zM598 80v-119h-565v119h565z" />
    <glyph glyph-name="twosuperior" unicode="&#xb2;" horiz-adv-x="426" 
d="M394 308v-94h-361v94q9 5 24.5 14.5t55.5 36.5t70 52.5t55 57t25 55.5q0 33 -21 48t-68 15q-27 0 -58 -3.5t-48 -7.5l-18 -3v86q61 22 145 22q93 0 141.5 -41t48.5 -107q0 -101 -182 -225h191z" />
    <glyph glyph-name="threesuperior" unicode="&#xb3;" horiz-adv-x="402" 
d="M16 261l35 72q58 -41 123 -41q46 0 70 17t24 45q0 27 -28 42.5t-81 15.5l-36 62q40 40 98 106q-24 -2 -37 -2h-129v91h300v-61q-49 -60 -109 -119q62 -12 101.5 -47.5t39.5 -87.5q0 -68 -52 -111t-142 -43q-51 0 -95 15t-63 31z" />
    <glyph glyph-name="acute" unicode="&#xb4;" horiz-adv-x="284" 
d="M176 784l79 -72l-165 -150l-60 55z" />
    <glyph glyph-name="mu" unicode="&#xb5;" horiz-adv-x="658" 
d="M581 500v-500h-154v74h-1q-2 -4 -6 -10t-19.5 -22t-33.5 -28.5t-49 -22.5t-66 -10q-11 0 -31 2v-233h-154v533h1v217h154v-304q0 -40 22.5 -62.5t63.5 -22.5q35 0 64.5 21t41.5 42l13 21v305h154z" />
    <glyph glyph-name="paragraph" unicode="&#xb6;" horiz-adv-x="783" 
d="M740 650v-132h-191v-768h-158v375q-42 -13 -88 -13q-116 0 -189 72t-73 194q0 124 100.5 198t268.5 74h330z" />
    <glyph glyph-name="periodcentered" unicode="&#xb7;" horiz-adv-x="349" 
d="M257 374q0 -37 -23.5 -62t-58.5 -25q-37 0 -60.5 24.5t-23.5 62.5t23.5 63t60.5 25q35 0 58.5 -25t23.5 -63z" />
    <glyph glyph-name="cedilla" unicode="&#xb8;" horiz-adv-x="295" 
d="M125 -1h96q-7 -16 -7 -27q0 -14 14 -26.5t31.5 -21.5t31.5 -28.5t14 -45.5q0 -47 -37 -74t-97 -27q-45 0 -80 18t-48 36l-13 18l54 51q30 -43 66 -43q44 0 44 36q0 13 -20 25t-40 29t-20 42q0 11 3 20.5t5 13.5z" />
    <glyph glyph-name="onesuperior" unicode="&#xb9;" horiz-adv-x="331" 
d="M159 669h117v-455h-117v337q-62 -54 -114 -93l-49 71z" />
    <glyph glyph-name="ordmasculine" unicode="&#xba;" horiz-adv-x="505" 
d="M464 470q0 -86 -59 -137t-153 -51q-93 0 -152 51t-59 137t59 137t152 51q94 0 153 -51t59 -137zM347 470q0 42 -25 66.5t-70 24.5q-44 0 -69 -24t-25 -66q0 -43 25 -68t69 -25q45 0 70 24.5t25 67.5z" />
    <glyph glyph-name="guillemotright" unicode="&#xbb;" horiz-adv-x="644" 
d="M67 362l65 75l193 -192l-193 -187l-66 73l121 114zM290 362l65 75l193 -192l-193 -187l-66 73l121 114z" />
    <glyph glyph-name="onequarter" unicode="&#xbc;" horiz-adv-x="878" 
d="M159 669h117v-455h-117v337q-62 -54 -114 -93l-49 71zM702 594l-345 -639l-97 38l345 638zM724 249h81v-273h73v-86h-73v-96h-112v96h-234v86q50 64 116.5 132t107.5 104zM693 -24v151q-29 -22 -134 -151h134z" />
    <glyph glyph-name="onehalf" unicode="&#xbd;" horiz-adv-x="952" 
d="M159 669h117v-455h-117v337q-62 -54 -114 -93l-49 71zM702 594l-345 -639l-97 38l345 638zM920 -112v-94h-361v94q9 5 24.5 14.5t55.5 36.5t70 52.5t55 57t25 55.5q0 33 -21 48t-68 15q-27 0 -58 -3.5t-48 -7.5l-18 -3v86q61 22 145 22q93 0 141.5 -41t48.5 -107
q0 -101 -182 -225h191z" />
    <glyph glyph-name="threequarters" unicode="&#xbe;" horiz-adv-x="930" 
d="M16 261l35 72q58 -41 123 -41q46 0 70 17t24 45q0 27 -28 42.5t-81 15.5l-36 62q40 40 98 106q-24 -2 -37 -2h-129v91h300v-61q-49 -60 -109 -119q62 -12 101.5 -47.5t39.5 -87.5q0 -68 -52 -111t-142 -43q-51 0 -95 15t-63 31zM754 594l-345 -639l-97 38l345 638z
M776 249h81v-273h73v-86h-73v-96h-112v96h-234v86q50 64 116.5 132t107.5 104zM745 -24v151q-29 -22 -134 -151h134z" />
    <glyph glyph-name="questiondown" unicode="&#xbf;" horiz-adv-x="446" 
d="M439 -118v-116q-6 -4 -19 -10t-59 -15.5t-100 -9.5q-130 0 -200 54.5t-70 128.5q0 57 25.5 96t62 58.5t73 35.5t62 40t25.5 59q0 16 -4 31l113 15q13 -40 13 -73q0 -42 -20.5 -73.5t-50.5 -50.5t-59.5 -35.5t-50 -37t-20.5 -46.5q0 -77 133 -77q32 0 68.5 6.5t56.5 13.5z
M370 430q0 -37 -23.5 -62t-58.5 -25q-37 0 -60.5 24.5t-23.5 62.5t23.5 63t60.5 25q35 0 58.5 -25t23.5 -63z" />
    <glyph glyph-name="Agrave" unicode="&#xc0;" horiz-adv-x="754" 
d="M283 650l2 -3l1 3h192l257 -650h-164l-50 126h-292l-47 -126h-163zM482 230l-106 299l-108 -299h214zM241 847l78 72l147 -167l-60 -55z" />
    <glyph glyph-name="Aacute" unicode="&#xc1;" horiz-adv-x="754" 
d="M283 650l2 -3l1 3h192l257 -650h-164l-50 126h-292l-47 -126h-163zM482 230l-106 299l-108 -299h214zM429 919l79 -72l-165 -150l-60 55z" />
    <glyph glyph-name="Acircumflex" unicode="&#xc2;" horiz-adv-x="754" 
d="M283 650l2 -3l1 3h192l257 -650h-164l-50 126h-292l-47 -126h-163zM482 230l-106 299l-108 -299h214zM377 929l181 -112l-51 -92l-130 85l-130 -85l-51 92z" />
    <glyph glyph-name="Atilde" unicode="&#xc3;" horiz-adv-x="754" 
d="M283 650l2 -3l1 3h192l257 -650h-164l-50 126h-292l-47 -126h-163zM482 230l-106 299l-108 -299h214zM547 887l32 -59q-1 -3 -3.5 -9t-12.5 -20.5t-22 -26t-32.5 -20.5t-44.5 -9q-40 0 -83 22.5t-76 22.5q-24 0 -48 -11t-35 -22l-12 -11l-32 68q2 4 6 10t17 22t27 28.5
t35 22.5t42 10q47 0 90 -24t71 -24q24 0 44.5 7.5t28.5 15.5z" />
    <glyph glyph-name="Adieresis" unicode="&#xc4;" horiz-adv-x="754" 
d="M283 650l2 -3l1 3h192l257 -650h-164l-50 126h-292l-47 -126h-163zM482 230l-106 299l-108 -299h214zM564 808q0 -33 -24 -58t-59 -25q-34 0 -58 25t-24 58t24 58.5t58 25.5q35 0 59 -25.5t24 -58.5zM348 808q0 -33 -23.5 -58t-58.5 -25t-59 25t-24 58t24 58.5t59 25.5
t58.5 -25.5t23.5 -58.5z" />
    <glyph glyph-name="Aring" unicode="&#xc5;" horiz-adv-x="754" 
d="M283 650l2 -3l1 3h192l257 -650h-164l-50 126h-292l-47 -126h-163zM482 230l-106 299l-108 -299h214zM502 835q0 -53 -35 -87t-90 -34q-58 0 -92 34t-34 87q0 52 35.5 86t90.5 34q53 0 89 -34.5t36 -85.5zM430 835q0 23 -15.5 38t-37.5 15q-23 0 -38.5 -15t-15.5 -38
t15 -38t39 -15t38.5 15t14.5 38z" />
    <glyph glyph-name="AE" unicode="&#xc6;" horiz-adv-x="1013" 
d="M976 125v-125h-488v126h-250l-77 -126h-173l425 650h545v-125h-316v-128h254v-121h-254v-151h334zM482 525l-181 -295h187v295h-6z" />
    <glyph glyph-name="Ccedilla" unicode="&#xc7;" horiz-adv-x="705" 
d="M635 634v-232h-122v129q-50 9 -90 9q-105 0 -159.5 -59.5t-54.5 -158.5q0 -94 56 -151t150 -57q54 0 110 23.5t85 46.5l28 24l54 -85q-3 -5 -10 -13t-30.5 -30t-50.5 -39.5t-71 -34.5t-92 -22q-1 -4 -1 -12q0 -14 14 -26.5t31.5 -21.5t31.5 -28.5t14 -45.5q0 -47 -37 -74
t-97 -27q-45 0 -80 18t-48 36l-13 18l54 51q30 -43 66 -43q44 0 44 36q0 13 -20 25t-40 29t-20 42q0 14 3 23q-139 16 -219 107t-80 231q0 151 101 248.5t263 97.5q66 0 123.5 -8.5t81.5 -17.5z" />
    <glyph glyph-name="Egrave" unicode="&#xc8;" 
d="M588 125v-125h-496v650h478v-125h-316v-128h254v-121h-254v-151h334zM168 847l78 72l147 -167l-60 -55z" />
    <glyph glyph-name="Eacute" unicode="&#xc9;" 
d="M588 125v-125h-496v650h478v-125h-316v-128h254v-121h-254v-151h334zM357 919l79 -72l-165 -150l-60 55z" />
    <glyph glyph-name="Ecircumflex" unicode="&#xca;" 
d="M588 125v-125h-496v650h478v-125h-316v-128h254v-121h-254v-151h334zM305 929l181 -112l-51 -92l-130 85l-130 -85l-51 92z" />
    <glyph glyph-name="Edieresis" unicode="&#xcb;" 
d="M588 125v-125h-496v650h478v-125h-316v-128h254v-121h-254v-151h334zM492 808q0 -33 -24 -58t-59 -25q-34 0 -58 25t-24 58t24 58.5t58 25.5q35 0 59 -25.5t24 -58.5zM276 808q0 -33 -23.5 -58t-58.5 -25t-59 25t-24 58t24 58.5t59 25.5t58.5 -25.5t23.5 -58.5z" />
    <glyph glyph-name="Igrave" unicode="&#xcc;" horiz-adv-x="347" 
d="M254 650v-650h-162v650h162zM37 847l78 72l147 -167l-60 -55z" />
    <glyph glyph-name="Iacute" unicode="&#xcd;" horiz-adv-x="347" 
d="M254 650v-650h-162v650h162zM226 919l79 -72l-165 -150l-60 55z" />
    <glyph glyph-name="Icircumflex" unicode="&#xce;" horiz-adv-x="347" 
d="M254 650v-650h-162v650h162zM173 929l181 -112l-51 -92l-130 85l-130 -85l-51 92z" />
    <glyph glyph-name="Idieresis" unicode="&#xcf;" horiz-adv-x="347" 
d="M254 650v-650h-162v650h162zM360 808q0 -33 -24 -58t-59 -25q-34 0 -58 25t-24 58t24 58.5t58 25.5q35 0 59 -25.5t24 -58.5zM144 808q0 -33 -23.5 -58t-58.5 -25t-59 25t-24 58t24 58.5t59 25.5t58.5 -25.5t23.5 -58.5z" />
    <glyph glyph-name="Eth" unicode="&#xd0;" horiz-adv-x="789" 
d="M92 0v272h-71v100h71v278q113 18 259 18q179 0 288.5 -93.5t109.5 -251.5q0 -156 -107.5 -249t-289.5 -93q-64 0 -129 4.5t-98 9.5zM353 113q102 0 164.5 58.5t62.5 151.5q0 95 -61 154t-168 59q-39 0 -97 -5v-159h182v-100h-182v-155q39 -4 99 -4z" />
    <glyph glyph-name="Ntilde" unicode="&#xd1;" horiz-adv-x="820" 
d="M727 650v-650h-132l-366 420q3 -23 3 -57v-363h-140v650l130 1l369 -428q-4 18 -4 51v376h140zM579 887l32 -59q-1 -3 -3.5 -9t-12.5 -20.5t-22 -26t-32.5 -20.5t-44.5 -9q-40 0 -83 22.5t-76 22.5q-24 0 -48 -11t-35 -22l-12 -11l-32 68q2 4 6 10t17 22t27 28.5t35 22.5
t42 10q47 0 90 -24t71 -24q24 0 44.5 7.5t28.5 15.5z" />
    <glyph glyph-name="Ograve" unicode="&#xd2;" horiz-adv-x="808" 
d="M768 324q0 -152 -102.5 -247.5t-262.5 -95.5t-261 95t-101 248t101 248.5t261 95.5t262.5 -95.5t102.5 -248.5zM603 324q0 93 -56.5 152.5t-143.5 59.5q-86 0 -142 -59.5t-56 -152.5t55 -152t143 -59t144 59.5t56 151.5zM266 847l78 72l147 -167l-60 -55z" />
    <glyph glyph-name="Oacute" unicode="&#xd3;" horiz-adv-x="808" 
d="M768 324q0 -152 -102.5 -247.5t-262.5 -95.5t-261 95t-101 248t101 248.5t261 95.5t262.5 -95.5t102.5 -248.5zM603 324q0 93 -56.5 152.5t-143.5 59.5q-86 0 -142 -59.5t-56 -152.5t55 -152t143 -59t144 59.5t56 151.5zM455 919l79 -72l-165 -150l-60 55z" />
    <glyph glyph-name="Ocircumflex" unicode="&#xd4;" horiz-adv-x="808" 
d="M768 324q0 -152 -102.5 -247.5t-262.5 -95.5t-261 95t-101 248t101 248.5t261 95.5t262.5 -95.5t102.5 -248.5zM603 324q0 93 -56.5 152.5t-143.5 59.5q-86 0 -142 -59.5t-56 -152.5t55 -152t143 -59t144 59.5t56 151.5zM402 929l181 -112l-51 -92l-130 85l-130 -85
l-51 92z" />
    <glyph glyph-name="Otilde" unicode="&#xd5;" horiz-adv-x="808" 
d="M768 324q0 -152 -102.5 -247.5t-262.5 -95.5t-261 95t-101 248t101 248.5t261 95.5t262.5 -95.5t102.5 -248.5zM603 324q0 93 -56.5 152.5t-143.5 59.5q-86 0 -142 -59.5t-56 -152.5t55 -152t143 -59t144 59.5t56 151.5zM574 887l32 -59q-1 -3 -3.5 -9t-12.5 -20.5
t-22 -26t-32.5 -20.5t-44.5 -9q-40 0 -83 22.5t-76 22.5q-24 0 -48 -11t-36 -22l-11 -11l-32 68q2 4 6 10t17 22t27 28.5t35 22.5t42 10q47 0 90 -24t71 -24q24 0 44.5 7.5t28.5 15.5z" />
    <glyph glyph-name="Odieresis" unicode="&#xd6;" horiz-adv-x="808" 
d="M768 324q0 -152 -102.5 -247.5t-262.5 -95.5t-261 95t-101 248t101 248.5t261 95.5t262.5 -95.5t102.5 -248.5zM603 324q0 93 -56.5 152.5t-143.5 59.5q-86 0 -142 -59.5t-56 -152.5t55 -152t143 -59t144 59.5t56 151.5zM589 808q0 -33 -24 -58t-59 -25q-34 0 -58 25
t-24 58t24 58.5t58 25.5q35 0 59 -25.5t24 -58.5zM373 808q0 -33 -23.5 -58t-58.5 -25t-59 25t-24 58t24 58.5t59 25.5t58.5 -25.5t23.5 -58.5z" />
    <glyph glyph-name="multiply" unicode="&#xd7;" horiz-adv-x="498" 
d="M465 431l-121 -112l121 -112l-91 -94l-125 117l-125 -117l-91 94l120 112l-120 112l90 94l126 -117l126 117z" />
    <glyph glyph-name="Oslash" unicode="&#xd8;" horiz-adv-x="808" 
d="M768 324q0 -152 -102.5 -247.5t-262.5 -95.5q-57 0 -110 14l-45 -102l-70 11l50 113q-87 41 -137 121.5t-50 185.5q0 153 101 248.5t261 95.5q69 0 129 -20l41 78l70 -11q-18 -33 -49 -92q82 -43 128 -121t46 -178zM288 148q105 227 181 377q-31 11 -66 11
q-86 0 -142 -59.5t-56 -152.5q0 -119 83 -176zM603 324q0 108 -74 168q-94 -188 -179 -373q26 -6 53 -6q88 0 144 59.5t56 151.5z" />
    <glyph glyph-name="Ugrave" unicode="&#xd9;" horiz-adv-x="789" 
d="M697 650v-650h-161v125h-4q-2 -6 -7 -15.5t-24.5 -34.5t-43.5 -44t-66 -34.5t-91 -15.5q-110 0 -163 59t-53 167v443h161v-379q0 -141 127 -141q32 0 61.5 15t51 38.5t32.5 38.5t19 29v399h161zM247 847l78 72l147 -167l-60 -55z" />
    <glyph glyph-name="Uacute" unicode="&#xda;" horiz-adv-x="789" 
d="M697 650v-650h-161v125h-4q-2 -6 -7 -15.5t-24.5 -34.5t-43.5 -44t-66 -34.5t-91 -15.5q-110 0 -163 59t-53 167v443h161v-379q0 -141 127 -141q32 0 61.5 15t51 38.5t32.5 38.5t19 29v399h161zM436 919l79 -72l-165 -150l-60 55z" />
    <glyph glyph-name="Ucircumflex" unicode="&#xdb;" horiz-adv-x="789" 
d="M697 650v-650h-161v125h-4q-2 -6 -7 -15.5t-24.5 -34.5t-43.5 -44t-66 -34.5t-91 -15.5q-110 0 -163 59t-53 167v443h161v-379q0 -141 127 -141q32 0 61.5 15t51 38.5t32.5 38.5t19 29v399h161zM384 929l181 -112l-51 -92l-130 85l-130 -85l-51 92z" />
    <glyph glyph-name="Udieresis" unicode="&#xdc;" horiz-adv-x="789" 
d="M697 650v-650h-161v125h-4q-2 -6 -7 -15.5t-24.5 -34.5t-43.5 -44t-66 -34.5t-91 -15.5q-110 0 -163 59t-53 167v443h161v-379q0 -141 127 -141q32 0 61.5 15t51 38.5t32.5 38.5t19 29v399h161zM571 808q0 -33 -24 -58t-59 -25q-34 0 -58 25t-24 58t24 58.5t58 25.5
q35 0 59 -25.5t24 -58.5zM355 808q0 -33 -23.5 -58t-58.5 -25t-59 25t-24 58t24 58.5t59 25.5t58.5 -25.5t23.5 -58.5z" />
    <glyph glyph-name="Yacute" unicode="&#xdd;" horiz-adv-x="708" 
d="M172 650q23 -43 50.5 -93.5t51.5 -94.5t44 -80.5t33.5 -61t14.5 -25.5l178 355h164l-354 -650h-165l94 176l-276 474h165zM425 919l79 -72l-165 -150l-60 55z" />
    <glyph glyph-name="Thorn" unicode="&#xde;" horiz-adv-x="643" 
d="M243 650v-87q41 3 81 3q131 0 208 -65.5t77 -177.5q0 -52 -17 -94t-44.5 -68.5t-64 -44.5t-72.5 -25.5t-73 -7.5q-55 0 -95 10v-93h-151v650h151zM319 439q-18 0 -76 -4v-227q19 -3 49 -3q67 0 113 27.5t46 89.5q0 55 -35.5 86t-96.5 31z" />
    <glyph glyph-name="germandbls" unicode="&#xdf;" horiz-adv-x="699" 
d="M221 501v-501h-154v494q0 130 79.5 198t200.5 68q104 0 161 -49t57 -132q0 -96 -109 -173q97 -27 154 -82.5t57 -131.5q0 -87 -64 -149t-168 -62q-51 0 -93 16t-59 32l-17 16l48 97q36 -37 96 -37q49 0 74 25t25 66q0 48 -54 80.5t-167 32.5v119h1q7 1 23 7.5t41 19
t43 37t18 53.5q0 35 -22 58t-62 23q-48 0 -78.5 -32.5t-30.5 -92.5z" />
    <glyph glyph-name="agrave" unicode="&#xe0;" horiz-adv-x="604" 
d="M383 0v55h-2q-2 -3 -5 -8t-16.5 -18t-30 -22.5t-46 -17.5t-63.5 -8q-81 0 -134.5 44.5t-53.5 117.5q0 78 58.5 123.5t178.5 45.5q56 0 114 -7v17q0 46 -27 64t-93 18q-37 0 -74 -4.5t-55 -9.5l-19 -4l-16 99q85 34 189 34q142 0 195.5 -53t53.5 -163v-303h-154zM276 87
q32 0 58.5 13.5t37.5 27.5l11 14v78q-48 5 -86 5q-115 0 -115 -69q0 -31 26 -50t68 -19zM176 712l78 72l147 -167l-60 -55z" />
    <glyph glyph-name="aacute" unicode="&#xe1;" horiz-adv-x="604" 
d="M383 0v55h-2q-2 -3 -5 -8t-16.5 -18t-30 -22.5t-46 -17.5t-63.5 -8q-81 0 -134.5 44.5t-53.5 117.5q0 78 58.5 123.5t178.5 45.5q56 0 114 -7v17q0 46 -27 64t-93 18q-37 0 -74 -4.5t-55 -9.5l-19 -4l-16 99q85 34 189 34q142 0 195.5 -53t53.5 -163v-303h-154zM276 87
q32 0 58.5 13.5t37.5 27.5l11 14v78q-48 5 -86 5q-115 0 -115 -69q0 -31 26 -50t68 -19zM365 784l79 -72l-165 -150l-60 55z" />
    <glyph glyph-name="acircumflex" unicode="&#xe2;" horiz-adv-x="604" 
d="M383 0v55h-2q-2 -3 -5 -8t-16.5 -18t-30 -22.5t-46 -17.5t-63.5 -8q-81 0 -134.5 44.5t-53.5 117.5q0 78 58.5 123.5t178.5 45.5q56 0 114 -7v17q0 46 -27 64t-93 18q-37 0 -74 -4.5t-55 -9.5l-19 -4l-16 99q85 34 189 34q142 0 195.5 -53t53.5 -163v-303h-154zM276 87
q32 0 58.5 13.5t37.5 27.5l11 14v78q-48 5 -86 5q-115 0 -115 -69q0 -31 26 -50t68 -19zM312 794l181 -112l-51 -92l-130 85l-130 -85l-51 92z" />
    <glyph glyph-name="atilde" unicode="&#xe3;" horiz-adv-x="604" 
d="M383 0v55h-2q-2 -3 -5 -8t-16.5 -18t-30 -22.5t-46 -17.5t-63.5 -8q-81 0 -134.5 44.5t-53.5 117.5q0 78 58.5 123.5t178.5 45.5q56 0 114 -7v17q0 46 -27 64t-93 18q-37 0 -74 -4.5t-55 -9.5l-19 -4l-16 99q85 34 189 34q142 0 195.5 -53t53.5 -163v-303h-154zM276 87
q32 0 58.5 13.5t37.5 27.5l11 14v78q-48 5 -86 5q-115 0 -115 -69q0 -31 26 -50t68 -19zM484 752l32 -59q-1 -3 -3.5 -9t-12.5 -20.5t-22 -26t-32.5 -20.5t-44.5 -9q-40 0 -83 22.5t-76 22.5q-24 0 -48 -11t-36 -22l-11 -11l-32 68q2 4 6 10t17 22t27 28.5t35 22.5t42 10
q47 0 90 -24t71 -24q24 0 44.5 7.5t28.5 14.5z" />
    <glyph glyph-name="adieresis" unicode="&#xe4;" horiz-adv-x="604" 
d="M383 0v55h-2q-2 -3 -5 -8t-16.5 -18t-30 -22.5t-46 -17.5t-63.5 -8q-81 0 -134.5 44.5t-53.5 117.5q0 78 58.5 123.5t178.5 45.5q56 0 114 -7v17q0 46 -27 64t-93 18q-37 0 -74 -4.5t-55 -9.5l-19 -4l-16 99q85 34 189 34q142 0 195.5 -53t53.5 -163v-303h-154zM276 87
q32 0 58.5 13.5t37.5 27.5l11 14v78q-48 5 -86 5q-115 0 -115 -69q0 -31 26 -50t68 -19zM500 673q0 -33 -24 -58t-59 -25q-34 0 -58 25t-24 58t24 58.5t58 25.5q35 0 59 -25.5t24 -58.5zM284 673q0 -33 -23.5 -58t-58.5 -25t-59 25t-24 58t24 58.5t59 25.5t58.5 -25.5
t23.5 -58.5z" />
    <glyph glyph-name="aring" unicode="&#xe5;" horiz-adv-x="604" 
d="M383 0v55h-2q-2 -3 -5 -8t-16.5 -18t-30 -22.5t-46 -17.5t-63.5 -8q-81 0 -134.5 44.5t-53.5 117.5q0 78 58.5 123.5t178.5 45.5q56 0 114 -7v17q0 46 -27 64t-93 18q-37 0 -74 -4.5t-55 -9.5l-19 -4l-16 99q85 34 189 34q142 0 195.5 -53t53.5 -163v-303h-154zM276 87
q32 0 58.5 13.5t37.5 27.5l11 14v78q-48 5 -86 5q-115 0 -115 -69q0 -31 26 -50t68 -19zM438 700q0 -53 -35 -87t-90 -34q-58 0 -92 34t-34 87q0 52 35.5 86t90.5 34q53 0 89 -34.5t36 -85.5zM366 700q0 23 -15.5 38t-37.5 15q-23 0 -38.5 -15t-15.5 -38t15 -38t39 -15
t38.5 15t14.5 38z" />
    <glyph glyph-name="ae" unicode="&#xe6;" horiz-adv-x="916" 
d="M837 143l34 -98q-9 -7 -25.5 -17.5t-75.5 -28.5t-125 -18q-68 0 -126 25.5t-94 74.5q-64 -100 -198 -100q-93 0 -144 43t-51 119q0 78 60 125.5t181 47.5q55 0 113 -7l6 25q-7 73 -117 73q-35 0 -75 -5.5t-62 -11.5l-23 -5l-15 99q117 35 214 35q124 0 168 -52
q64 52 152 52q106 0 173.5 -58t67.5 -163q0 -23 -4.5 -45.5t-8.5 -33.5l-4 -11h-333v-4q0 -50 42.5 -79t106.5 -29q44 0 85 12t59 24zM268 95q70 0 119 65q-9 33 -9 71v2q-51 7 -85 7q-111 0 -111 -76q0 -32 21.5 -50.5t64.5 -18.5zM636 409q-45 0 -77.5 -33t-36.5 -85
q128 0 221 5v17q0 49 -29 72.5t-78 23.5z" />
    <glyph glyph-name="ccedilla" unicode="&#xe7;" horiz-adv-x="534" 
d="M488 158l40 -87q-2 -3 -6 -7.5t-18.5 -17t-31.5 -23.5t-45.5 -21.5t-60.5 -15.5q-2 -5 -2 -14q0 -14 14 -26.5t31.5 -21.5t31.5 -28.5t14 -45.5q0 -47 -37 -74t-97 -27q-45 0 -80 18t-48 36l-13 18l54 51q30 -43 66 -43q44 0 44 36q0 13 -20 25t-40 29t-20 42q0 14 3 23
q-107 12 -171 79t-64 172q0 131 82.5 207.5t208.5 76.5q36 0 75 -5.5t60 -11.5l22 -6v-120q-73 22 -143 22q-68 0 -111.5 -42t-43.5 -108q0 -67 42.5 -106.5t103.5 -39.5q42 0 82 14t59 28z" />
    <glyph glyph-name="egrave" unicode="&#xe8;" horiz-adv-x="570" 
d="M491 143l34 -98q-9 -7 -25.5 -17.5t-75.5 -28.5t-125 -18q-112 0 -189.5 67t-77.5 183q0 129 74 208.5t182 79.5q106 0 173.5 -58t67.5 -163q0 -23 -4.5 -45.5t-8.5 -33.5l-4 -11h-333v-4q0 -50 42.5 -79t106.5 -29q44 0 85 12t59 24zM290 409q-45 0 -77.5 -33t-36.5 -85
q128 0 221 5v17q0 49 -29 72.5t-78 23.5zM172 712l78 72l147 -167l-60 -55z" />
    <glyph glyph-name="eacute" unicode="&#xe9;" horiz-adv-x="570" 
d="M491 143l34 -98q-9 -7 -25.5 -17.5t-75.5 -28.5t-125 -18q-112 0 -189.5 67t-77.5 183q0 129 74 208.5t182 79.5q106 0 173.5 -58t67.5 -163q0 -23 -4.5 -45.5t-8.5 -33.5l-4 -11h-333v-4q0 -50 42.5 -79t106.5 -29q44 0 85 12t59 24zM290 409q-45 0 -77.5 -33t-36.5 -85
q128 0 221 5v17q0 49 -29 72.5t-78 23.5zM361 784l79 -72l-165 -150l-60 55z" />
    <glyph glyph-name="ecircumflex" unicode="&#xea;" horiz-adv-x="570" 
d="M491 143l34 -98q-9 -7 -25.5 -17.5t-75.5 -28.5t-125 -18q-112 0 -189.5 67t-77.5 183q0 129 74 208.5t182 79.5q106 0 173.5 -58t67.5 -163q0 -23 -4.5 -45.5t-8.5 -33.5l-4 -11h-333v-4q0 -50 42.5 -79t106.5 -29q44 0 85 12t59 24zM290 409q-45 0 -77.5 -33t-36.5 -85
q128 0 221 5v17q0 49 -29 72.5t-78 23.5zM308 794l181 -112l-51 -92l-130 85l-130 -85l-51 92z" />
    <glyph glyph-name="edieresis" unicode="&#xeb;" horiz-adv-x="570" 
d="M491 143l34 -98q-9 -7 -25.5 -17.5t-75.5 -28.5t-125 -18q-112 0 -189.5 67t-77.5 183q0 129 74 208.5t182 79.5q106 0 173.5 -58t67.5 -163q0 -23 -4.5 -45.5t-8.5 -33.5l-4 -11h-333v-4q0 -50 42.5 -79t106.5 -29q44 0 85 12t59 24zM290 409q-45 0 -77.5 -33t-36.5 -85
q128 0 221 5v17q0 49 -29 72.5t-78 23.5zM496 673q0 -33 -24 -58t-59 -25q-34 0 -58 25t-24 58t24 58.5t58 25.5q35 0 59 -25.5t24 -58.5zM280 673q0 -33 -23.5 -58t-58.5 -25t-59 25t-24 58t24 58.5t59 25.5t58.5 -25.5t23.5 -58.5z" />
    <glyph glyph-name="igrave" unicode="&#xec;" horiz-adv-x="309" 
d="M231 500v-500h-154v500h154zM21 712l78 72l147 -167l-60 -55z" />
    <glyph glyph-name="iacute" unicode="&#xed;" horiz-adv-x="309" 
d="M231 500v-500h-154v500h154zM209 784l79 -72l-165 -150l-60 55z" />
    <glyph glyph-name="icircumflex" unicode="&#xee;" horiz-adv-x="309" 
d="M231 500v-500h-154v500h154zM157 794l181 -112l-51 -92l-130 85l-130 -85l-51 92z" />
    <glyph glyph-name="idieresis" unicode="&#xef;" horiz-adv-x="309" 
d="M231 500v-500h-154v500h154zM344 673q0 -33 -24 -58t-59 -25q-34 0 -58 25t-24 58t24 58.5t58 25.5q35 0 59 -25.5t24 -58.5zM128 673q0 -33 -23.5 -58t-58.5 -25t-59 25t-24 58t24 58.5t59 25.5t58.5 -25.5t23.5 -58.5z" />
    <glyph glyph-name="eth" unicode="&#xf0;" horiz-adv-x="620" 
d="M500 745l41 -64l-99 -60q137 -126 137 -342q0 -64 -15 -116t-47 -94t-88.5 -65t-133.5 -23q-113 0 -183.5 62.5t-70.5 162.5q0 109 64.5 166t166.5 57q46 0 80 -11.5t45 -23.5l11 -12h4q-21 103 -87 167l-134 -81l-41 64l111 68q-32 21 -84 44l47 101q91 -34 154 -74z
M301 105q64 0 92 42.5t28 131.5v6q-48 28 -108 28q-57 0 -86 -28.5t-29 -78.5q0 -45 29 -73t74 -28z" />
    <glyph glyph-name="ntilde" unicode="&#xf1;" horiz-adv-x="658" 
d="M77 0v500h154v-74h2q2 4 6 10t19.5 22t33.5 28.5t49 22.5t65 10q89 0 136.5 -54.5t47.5 -156.5v-308h-154v304q0 40 -22 62t-63 22q-22 0 -42.5 -8.5t-34 -21t-23.5 -25t-15 -21.5l-5 -8v-304h-154zM493 752l32 -59q-1 -3 -3.5 -9t-12.5 -20.5t-22 -26t-32.5 -20.5
t-44.5 -9q-40 0 -83 22.5t-76 22.5q-24 0 -48 -11t-35 -22l-12 -11l-32 68q2 4 6 10t17 22t27 28.5t35 22.5t42 10q47 0 90 -24t71 -24q24 0 44.5 7.5t28.5 14.5z" />
    <glyph glyph-name="ograve" unicode="&#xf2;" horiz-adv-x="657" 
d="M625 250q0 -122 -83.5 -195.5t-213.5 -73.5t-213 73.5t-83 195.5q0 121 83 195t213 74t213.5 -74t83.5 -195zM328 398q-61 0 -99.5 -40t-38.5 -107q0 -68 38.5 -108.5t99.5 -40.5t100 40t39 108q0 67 -39 107.5t-100 40.5zM192 712l78 72l147 -167l-60 -55z" />
    <glyph glyph-name="oacute" unicode="&#xf3;" horiz-adv-x="657" 
d="M625 250q0 -122 -83.5 -195.5t-213.5 -73.5t-213 73.5t-83 195.5q0 121 83 195t213 74t213.5 -74t83.5 -195zM328 398q-61 0 -99.5 -40t-38.5 -107q0 -68 38.5 -108.5t99.5 -40.5t100 40t39 108q0 67 -39 107.5t-100 40.5zM380 784l79 -72l-165 -150l-60 55z" />
    <glyph glyph-name="ocircumflex" unicode="&#xf4;" horiz-adv-x="657" 
d="M625 250q0 -122 -83.5 -195.5t-213.5 -73.5t-213 73.5t-83 195.5q0 121 83 195t213 74t213.5 -74t83.5 -195zM328 398q-61 0 -99.5 -40t-38.5 -107q0 -68 38.5 -108.5t99.5 -40.5t100 40t39 108q0 67 -39 107.5t-100 40.5zM328 794l181 -112l-51 -92l-130 85l-130 -85
l-51 92z" />
    <glyph glyph-name="otilde" unicode="&#xf5;" horiz-adv-x="657" 
d="M625 250q0 -122 -83.5 -195.5t-213.5 -73.5t-213 73.5t-83 195.5q0 121 83 195t213 74t213.5 -74t83.5 -195zM328 398q-61 0 -99.5 -40t-38.5 -107q0 -68 38.5 -108.5t99.5 -40.5t100 40t39 108q0 67 -39 107.5t-100 40.5zM499 752l32 -59q-1 -3 -3.5 -9t-12.5 -20.5
t-22 -26t-32.5 -20.5t-44.5 -9q-40 0 -83 22.5t-76 22.5q-24 0 -48 -11t-35 -22l-12 -11l-32 68q2 4 6 10t17 22t27 28.5t35 22.5t42 10q47 0 90 -24t71 -24q24 0 44.5 7.5t28.5 14.5z" />
    <glyph glyph-name="odieresis" unicode="&#xf6;" horiz-adv-x="657" 
d="M625 250q0 -122 -83.5 -195.5t-213.5 -73.5t-213 73.5t-83 195.5q0 121 83 195t213 74t213.5 -74t83.5 -195zM328 398q-61 0 -99.5 -40t-38.5 -107q0 -68 38.5 -108.5t99.5 -40.5t100 40t39 108q0 67 -39 107.5t-100 40.5zM515 673q0 -33 -24 -58t-59 -25q-34 0 -58 25
t-24 58t24 58.5t58 25.5q35 0 59 -25.5t24 -58.5zM299 673q0 -33 -23.5 -58t-58.5 -25t-59 25t-24 58t24 58.5t59 25.5t58.5 -25.5t23.5 -58.5z" />
    <glyph glyph-name="divide" unicode="&#xf7;" horiz-adv-x="631" 
d="M398 513q0 -37 -23.5 -62t-58.5 -25q-37 0 -60.5 24.5t-23.5 62.5t23.5 63t60.5 25q35 0 58.5 -25t23.5 -63zM399 119q0 -37 -23.5 -62t-58.5 -25q-37 0 -60.5 24.5t-23.5 62.5t23.5 63t60.5 25q35 0 58.5 -25t23.5 -63zM598 334v-119h-565v119h565z" />
    <glyph glyph-name="oslash" unicode="&#xf8;" horiz-adv-x="657" 
d="M625 250q0 -122 -83.5 -195.5t-213.5 -73.5q-43 0 -82 9l-80 -173l-70 11q7 15 85 183q-70 32 -109.5 94t-39.5 145q0 121 83 195t213 74q46 0 92 -11l71 142l70 -11q-29 -57 -77 -155q66 -34 103.5 -94.5t37.5 -139.5zM328 398q-61 0 -99.5 -40t-38.5 -107
q0 -78 49 -119q99 210 125 262q-15 4 -36 4zM424 361l-124 -257q9 -2 28 -2q61 0 100 40t39 108q0 70 -43 111z" />
    <glyph glyph-name="ugrave" unicode="&#xf9;" horiz-adv-x="658" 
d="M581 500v-500h-154v74h-1q-2 -4 -6 -10t-19.5 -22t-33.5 -28.5t-49 -22.5t-66 -10q-88 0 -136 54.5t-48 156.5v308h154v-304q0 -40 22.5 -62.5t63.5 -22.5q35 0 64.5 21t41.5 42l13 21v305h154zM192 712l78 72l147 -167l-60 -55z" />
    <glyph glyph-name="uacute" unicode="&#xfa;" horiz-adv-x="658" 
d="M581 500v-500h-154v74h-1q-2 -4 -6 -10t-19.5 -22t-33.5 -28.5t-49 -22.5t-66 -10q-88 0 -136 54.5t-48 156.5v308h154v-304q0 -40 22.5 -62.5t63.5 -22.5q35 0 64.5 21t41.5 42l13 21v305h154zM380 784l79 -72l-165 -150l-60 55z" />
    <glyph glyph-name="ucircumflex" unicode="&#xfb;" horiz-adv-x="658" 
d="M581 500v-500h-154v74h-1q-2 -4 -6 -10t-19.5 -22t-33.5 -28.5t-49 -22.5t-66 -10q-88 0 -136 54.5t-48 156.5v308h154v-304q0 -40 22.5 -62.5t63.5 -22.5q35 0 64.5 21t41.5 42l13 21v305h154zM327 794l181 -112l-51 -92l-130 85l-130 -85l-51 92z" />
    <glyph glyph-name="udieresis" unicode="&#xfc;" horiz-adv-x="658" 
d="M581 500v-500h-154v74h-1q-2 -4 -6 -10t-19.5 -22t-33.5 -28.5t-49 -22.5t-66 -10q-88 0 -136 54.5t-48 156.5v308h154v-304q0 -40 22.5 -62.5t63.5 -22.5q35 0 64.5 21t41.5 42l13 21v305h154zM515 673q0 -33 -24 -58t-59 -25q-34 0 -58 25t-24 58t24 58.5t58 25.5
q35 0 59 -25.5t24 -58.5zM299 673q0 -33 -23.5 -58t-58.5 -25t-59 25t-24 58t24 58.5t59 25.5t58.5 -25.5t23.5 -58.5z" />
    <glyph glyph-name="yacute" unicode="&#xfd;" horiz-adv-x="620" 
d="M444 500h166l-227 -493l-119 -257h-158l116 255l-213 495h174l127 -350zM370 784l79 -72l-165 -150l-60 55z" />
    <glyph glyph-name="thorn" unicode="&#xfe;" horiz-adv-x="655" 
d="M67 -250v1000h154v-303h2q6 9 23.5 24t57 31.5t83.5 16.5q101 0 168.5 -72.5t67.5 -184.5q0 -123 -84 -202t-218 -79q-40 0 -100 4v-235h-154zM329 393q-30 0 -57 -10.5t-39 -20.5l-12 -11v-252q37 -9 76 -9q82 0 125.5 43t43.5 114q0 66 -38 106t-99 40z" />
    <glyph glyph-name="ydieresis" unicode="&#xff;" horiz-adv-x="620" 
d="M444 500h166l-227 -493l-119 -257h-158l116 255l-213 495h174l127 -350zM505 673q0 -33 -24 -58t-59 -25q-34 0 -58 25t-24 58t24 58.5t58 25.5q35 0 59 -25.5t24 -58.5zM289 673q0 -33 -23.5 -58t-58.5 -25t-59 25t-24 58t24 58.5t59 25.5t58.5 -25.5t23.5 -58.5z" />
    <glyph glyph-name="Amacron" unicode="&#x100;" horiz-adv-x="754" 
d="M283 650l2 -3l1 3h192l257 -650h-164l-50 126h-292l-47 -126h-163zM482 230l-106 299l-108 -299h214zM506 828v-81h-261v81h261z" />
    <glyph glyph-name="amacron" unicode="&#x101;" horiz-adv-x="604" 
d="M383 0v55h-2q-2 -3 -5 -8t-16.5 -18t-30 -22.5t-46 -17.5t-63.5 -8q-81 0 -134.5 44.5t-53.5 117.5q0 78 58.5 123.5t178.5 45.5q56 0 114 -7v17q0 46 -27 64t-93 18q-37 0 -74 -4.5t-55 -9.5l-19 -4l-16 99q85 34 189 34q142 0 195.5 -53t53.5 -163v-303h-154zM276 87
q32 0 58.5 13.5t37.5 27.5l11 14v78q-48 5 -86 5q-115 0 -115 -69q0 -31 26 -50t68 -19zM441 693v-81h-261v81h261z" />
    <glyph glyph-name="Abreve" unicode="&#x102;" horiz-adv-x="754" 
d="M283 650l2 -3l1 3h192l257 -650h-164l-50 126h-292l-47 -126h-163zM482 230l-106 299l-108 -299h214zM376 814q38 0 72 16.5t49 33.5l15 16l58 -85q-3 -4 -8 -10t-23 -21.5t-38.5 -27.5t-54 -21.5t-70.5 -9.5q-36 0 -69.5 9.5t-55 22.5t-37.5 26t-24 23l-7 9l58 85
q6 -7 16.5 -18t46 -29.5t72.5 -18.5z" />
    <glyph glyph-name="abreve" unicode="&#x103;" horiz-adv-x="604" 
d="M383 0v55h-2q-2 -3 -5 -8t-16.5 -18t-30 -22.5t-46 -17.5t-63.5 -8q-81 0 -134.5 44.5t-53.5 117.5q0 78 58.5 123.5t178.5 45.5q56 0 114 -7v17q0 46 -27 64t-93 18q-37 0 -74 -4.5t-55 -9.5l-19 -4l-16 99q85 34 189 34q142 0 195.5 -53t53.5 -163v-303h-154zM276 87
q32 0 58.5 13.5t37.5 27.5l11 14v78q-48 5 -86 5q-115 0 -115 -69q0 -31 26 -50t68 -19zM312 679q38 0 72 16.5t49 32.5l15 17l58 -85q-3 -4 -8 -10t-23 -21.5t-38.5 -27.5t-54 -21.5t-70.5 -9.5q-36 0 -69.5 9.5t-55 22.5t-37.5 26t-24 22l-7 10l58 85q6 -7 16.5 -18
t46 -29.5t72.5 -18.5z" />
    <glyph glyph-name="Aogonek" unicode="&#x104;" horiz-adv-x="754" 
d="M283 650l2 -3l1 3h192l257 -650h-29q-4 -1 -13 -4t-25 -12t-29.5 -21t-24 -32.5t-10.5 -44.5q0 -33 25 -45t75 -12v-79q-211 0 -211 133q0 66 80 117h-2l-50 126h-292l-47 -126h-163zM482 230l-106 299l-108 -299h214z" />
    <glyph glyph-name="aogonek" unicode="&#x105;" horiz-adv-x="604" 
d="M383 0v55h-2q-2 -3 -5 -8t-16.5 -18t-30 -22.5t-46 -17.5t-63.5 -8q-81 0 -134.5 44.5t-53.5 117.5q0 78 58.5 123.5t178.5 45.5q56 0 114 -7v17q0 46 -27 64t-93 18q-37 0 -74 -4.5t-55 -9.5l-19 -4l-16 99q85 34 189 34q142 0 195.5 -53t53.5 -163v-303h-20
q-4 -1 -13 -4t-25 -12t-29.5 -21t-24 -32.5t-10.5 -44.5q0 -33 25 -45t75 -12v-79q-211 0 -211 133q0 66 80 117h-1zM276 87q32 0 58.5 13.5t37.5 27.5l11 14v78q-48 5 -86 5q-115 0 -115 -69q0 -31 26 -50t68 -19z" />
    <glyph glyph-name="Cacute" unicode="&#x106;" horiz-adv-x="705" 
d="M635 634v-232h-122v129q-50 9 -90 9q-105 0 -159.5 -59.5t-54.5 -158.5q0 -94 56 -151t150 -57q54 0 110 23.5t85 46.5l28 24l54 -85q-4 -6 -11.5 -15.5t-35.5 -34t-59.5 -43t-83.5 -34t-109 -15.5q-161 0 -256.5 94.5t-95.5 246.5q0 151 101 248.5t263 97.5
q66 0 123.5 -8.5t81.5 -17.5zM454 919l79 -72l-165 -150l-60 55z" />
    <glyph glyph-name="cacute" unicode="&#x107;" horiz-adv-x="534" 
d="M488 158l40 -87q-3 -4 -8 -10t-24 -21.5t-42 -27.5t-62 -21.5t-82 -9.5q-124 0 -201 69t-77 185q0 131 82.5 207.5t208.5 76.5q36 0 75 -5.5t60 -11.5l22 -6v-120q-73 22 -143 22q-68 0 -111.5 -42t-43.5 -108q0 -67 42.5 -106.5t103.5 -39.5q42 0 82 14t59 28zM374 784
l79 -72l-165 -150l-60 55z" />
    <glyph glyph-name="Ccaron" unicode="&#x10c;" horiz-adv-x="705" 
d="M635 634v-232h-122v129q-50 9 -90 9q-105 0 -159.5 -59.5t-54.5 -158.5q0 -94 56 -151t150 -57q54 0 110 23.5t85 46.5l28 24l54 -85q-4 -6 -11.5 -15.5t-35.5 -34t-59.5 -43t-83.5 -34t-109 -15.5q-161 0 -256.5 94.5t-95.5 246.5q0 151 101 248.5t263 97.5
q66 0 123.5 -8.5t81.5 -17.5zM402 712l-181 112l51 92l130 -85l130 85l51 -92z" />
    <glyph glyph-name="ccaron" unicode="&#x10d;" horiz-adv-x="534" 
d="M488 158l40 -87q-3 -4 -8 -10t-24 -21.5t-42 -27.5t-62 -21.5t-82 -9.5q-124 0 -201 69t-77 185q0 131 82.5 207.5t208.5 76.5q36 0 75 -5.5t60 -11.5l22 -6v-120q-73 22 -143 22q-68 0 -111.5 -42t-43.5 -108q0 -67 42.5 -106.5t103.5 -39.5q42 0 82 14t59 28zM322 577
l-181 112l51 92l130 -85l130 85l51 -92z" />
    <glyph glyph-name="Dcaron" unicode="&#x10e;" horiz-adv-x="789" 
d="M92 0v650q113 18 259 18q179 0 288.5 -93.5t109.5 -251.5q0 -156 -107.5 -249t-289.5 -93q-64 0 -129 4.5t-98 9.5zM353 113q102 0 164.5 58.5t62.5 151.5q0 95 -61 154t-168 59q-39 0 -97 -5v-414q39 -4 99 -4zM348 712l-181 112l51 92l130 -85l130 85l51 -92z" />
    <glyph glyph-name="dcaron" unicode="&#x10f;" horiz-adv-x="703" 
d="M588 750v-750h-154v44h-2q-6 -9 -21.5 -21.5t-55 -27t-87.5 -14.5q-112 0 -174 68t-62 182q0 124 89 206t236 82q37 0 77 -5v236h154zM322 106q72 0 112 40v255q-36 9 -62 9q-90 0 -136 -44t-46 -116q0 -66 36 -105t96 -39zM825 735l-111 -187l-89 38l109 195z" />
    <glyph glyph-name="Dcroat" unicode="&#x110;" horiz-adv-x="789" 
d="M92 0v272h-71v100h71v278q113 18 259 18q179 0 288.5 -93.5t109.5 -251.5q0 -156 -107.5 -249t-289.5 -93q-64 0 -129 4.5t-98 9.5zM353 113q102 0 164.5 58.5t62.5 151.5q0 95 -61 154t-168 59q-39 0 -97 -5v-159h182v-100h-182v-155q39 -4 99 -4z" />
    <glyph glyph-name="dcroat" unicode="&#x111;" horiz-adv-x="684" 
d="M588 750v-57h128v-106h-128v-587h-154v44h-2q-6 -9 -21.5 -21.5t-55 -27t-87.5 -14.5q-112 0 -174 68t-62 182q0 124 89 206t236 82q37 0 77 -5v73h-193v106h193v57h154zM322 106q72 0 112 40v255q-36 9 -62 9q-90 0 -136 -44t-46 -116q0 -66 36 -105t96 -39z" />
    <glyph glyph-name="Emacron" unicode="&#x112;" 
d="M588 125v-125h-496v650h478v-125h-316v-128h254v-121h-254v-151h334zM434 828v-81h-261v81h261z" />
    <glyph glyph-name="emacron" unicode="&#x113;" horiz-adv-x="570" 
d="M491 143l34 -98q-9 -7 -25.5 -17.5t-75.5 -28.5t-125 -18q-112 0 -189.5 67t-77.5 183q0 129 74 208.5t182 79.5q106 0 173.5 -58t67.5 -163q0 -23 -4.5 -45.5t-8.5 -33.5l-4 -11h-333v-4q0 -50 42.5 -79t106.5 -29q44 0 85 12t59 24zM290 409q-45 0 -77.5 -33t-36.5 -85
q128 0 221 5v17q0 49 -29 72.5t-78 23.5zM438 693v-81h-261v81h261z" />
    <glyph glyph-name="Edotaccent" unicode="&#x116;" 
d="M588 125v-125h-496v650h478v-125h-316v-128h254v-121h-254v-151h334zM384 808q0 -34 -23 -58.5t-61 -24.5q-37 0 -59.5 24.5t-22.5 58.5t22.5 59t59.5 25t60.5 -25t23.5 -59z" />
    <glyph glyph-name="edotaccent" unicode="&#x117;" horiz-adv-x="570" 
d="M491 143l34 -98q-9 -7 -25.5 -17.5t-75.5 -28.5t-125 -18q-112 0 -189.5 67t-77.5 183q0 129 74 208.5t182 79.5q106 0 173.5 -58t67.5 -163q0 -23 -4.5 -45.5t-8.5 -33.5l-4 -11h-333v-4q0 -50 42.5 -79t106.5 -29q44 0 85 12t59 24zM290 409q-45 0 -77.5 -33t-36.5 -85
q128 0 221 5v17q0 49 -29 72.5t-78 23.5zM388 673q0 -34 -23 -58.5t-61 -24.5q-37 0 -59.5 24.5t-22.5 58.5t22.5 59t59.5 25t60.5 -25t23.5 -59z" />
    <glyph glyph-name="Eogonek" unicode="&#x118;" 
d="M588 125v-125h-176q-4 -1 -13 -4t-25 -12t-29.5 -21t-24 -32.5t-10.5 -44.5q0 -33 25 -45t75 -12v-79q-211 0 -211 133q0 66 80 117h-187v650h478v-125h-316v-128h254v-121h-254v-151h334z" />
    <glyph glyph-name="eogonek" unicode="&#x119;" horiz-adv-x="570" 
d="M491 143l34 -98q-48 -39 -137 -56q-75 -34 -75 -103q0 -33 25 -45t75 -12v-79q-211 0 -211 133q0 56 56 101q-97 12 -161.5 77t-64.5 170q0 129 74 208.5t182 79.5q106 0 173.5 -58t67.5 -163q0 -23 -4.5 -45.5t-8.5 -33.5l-4 -11h-333v-4q0 -50 42.5 -79t106.5 -29
q44 0 85 12t59 24zM290 409q-45 0 -77.5 -33t-36.5 -85q128 0 221 5v17q0 49 -29 72.5t-78 23.5z" />
    <glyph glyph-name="Ecaron" unicode="&#x11a;" 
d="M588 125v-125h-496v650h478v-125h-316v-128h254v-121h-254v-151h334zM305 712l-181 112l51 92l130 -85l130 85l51 -92z" />
    <glyph glyph-name="ecaron" unicode="&#x11b;" horiz-adv-x="570" 
d="M491 143l34 -98q-9 -7 -25.5 -17.5t-75.5 -28.5t-125 -18q-112 0 -189.5 67t-77.5 183q0 129 74 208.5t182 79.5q106 0 173.5 -58t67.5 -163q0 -23 -4.5 -45.5t-8.5 -33.5l-4 -11h-333v-4q0 -50 42.5 -79t106.5 -29q44 0 85 12t59 24zM290 409q-45 0 -77.5 -33t-36.5 -85
q128 0 221 5v17q0 49 -29 72.5t-78 23.5zM308 577l-181 112l51 92l130 -85l130 85l51 -92z" />
    <glyph glyph-name="Gbreve" unicode="&#x11e;" horiz-adv-x="753" 
d="M429 109q61 0 125 22v258h137v-332q-4 -3 -12 -8t-34.5 -18.5t-56 -23.5t-75.5 -18t-94 -8q-180 0 -279 92t-99 250q0 153 104.5 249t272.5 96q64 0 124.5 -8.5t88.5 -17.5l28 -8v-122q-114 31 -212 31q-120 0 -181 -60t-61 -160q0 -101 63 -157.5t161 -56.5zM423 814
q38 0 72 16.5t49 33.5l15 16l58 -85q-3 -4 -8 -10t-23 -21.5t-38.5 -27.5t-54 -21.5t-70.5 -9.5q-36 0 -69.5 9.5t-55 22.5t-37.5 26t-23 23l-8 9l58 85q6 -7 16.5 -18t46 -29.5t72.5 -18.5z" />
    <glyph glyph-name="gbreve" unicode="&#x11f;" horiz-adv-x="529" 
d="M450 496q33 -71 33 -151q0 -87 -51.5 -144t-150.5 -57q-24 0 -35 1q-11 -40 -11 -55q21 2 42 2q116 0 189 -44.5t73 -133.5q0 -79 -67 -131t-185 -52q-123 0 -186.5 49.5t-63.5 132.5q0 108 79 159q7 36 25 104q-85 48 -85 149q0 85 58 139.5t172 54.5q32 0 73 -5.5
t66 -11.5zM260 -15q-30 0 -77 -7q-20 -24 -20 -59q0 -34 31.5 -54.5t86.5 -20.5q53 0 82 21t29 53q0 31 -35 49t-97 18zM353 330q0 31 -16 73q-40 5 -57 5q-47 0 -70.5 -22t-23.5 -60q0 -32 23 -54t60 -22q38 0 61 22.5t23 57.5zM257 678q38 0 72 16.5t49 33.5l15 16l58 -85
q-3 -4 -8 -10t-23 -21.5t-38.5 -27.5t-54 -21.5t-70.5 -9.5q-36 0 -69.5 9.5t-55 22.5t-37.5 26t-23 23l-8 9l58 85q6 -7 16.5 -18t46 -29.5t72.5 -18.5z" />
    <glyph glyph-name="Gcommaaccent" unicode="&#x122;" horiz-adv-x="753" 
d="M429 109q61 0 125 22v258h137v-332q-4 -3 -12 -8t-34.5 -18.5t-56 -23.5t-75.5 -18t-94 -8q-180 0 -279 92t-99 250q0 153 104.5 249t272.5 96q64 0 124.5 -8.5t88.5 -17.5l28 -8v-122q-114 31 -212 31q-120 0 -181 -60t-61 -160q0 -101 63 -157.5t161 -56.5zM352 -50
l94 -11q0 -40 -19 -97.5t-46 -98.5l-81 14q52 106 52 193z" />
    <glyph glyph-name="gcommaaccent" unicode="&#x123;" horiz-adv-x="529" 
d="M283 788l81 -14q-52 -107 -52 -194l-94 12q0 40 19.5 97.5t45.5 98.5zM450 496q33 -71 33 -151q0 -87 -51.5 -144t-150.5 -57q-24 0 -35 1q-11 -40 -11 -55q21 2 42 2q116 0 189 -44.5t73 -133.5q0 -79 -67 -131t-185 -52q-123 0 -186.5 49.5t-63.5 132.5q0 108 79 159
q7 36 25 104q-85 48 -85 149q0 85 58 139.5t172 54.5q32 0 73 -5.5t66 -11.5zM260 -15q-30 0 -77 -7q-20 -24 -20 -59q0 -34 31.5 -54.5t86.5 -20.5q53 0 82 21t29 53q0 31 -35 49t-97 18zM353 330q0 31 -16 73q-40 5 -57 5q-47 0 -70.5 -22t-23.5 -60q0 -32 23 -54t60 -22
q38 0 61 22.5t23 57.5z" />
    <glyph glyph-name="uni012A" unicode="&#x12a;" horiz-adv-x="347" 
d="M254 650v-650h-162v650h162zM300 828v-81h-261v81h261z" />
    <glyph glyph-name="imacron" unicode="&#x12b;" horiz-adv-x="309" 
d="M231 500v-500h-154v500h154zM283 693v-81h-261v81h261z" />
    <glyph glyph-name="Iogonek" unicode="&#x12e;" horiz-adv-x="347" 
d="M254 650v-650h-26q-4 -1 -11 -3.5t-25 -11.5t-31.5 -21t-24.5 -33t-11 -45q0 -33 25 -45t75 -12v-79q-211 0 -211 133q0 66 80 117h-2v650h162z" />
    <glyph glyph-name="iogonek" unicode="&#x12f;" horiz-adv-x="309" 
d="M231 500v-500h-17q-4 -1 -11 -3.5t-25 -11.5t-31.5 -21t-24.5 -33t-11 -45q0 -33 25 -45t75 -12v-79q-211 0 -211 133q0 66 80 117h-3v500h154zM236 673q0 -34 -23 -58.5t-61 -24.5q-37 0 -59.5 24.5t-22.5 58.5t22.5 59t59.5 25t60.5 -25t23.5 -59z" />
    <glyph glyph-name="Idotaccent" unicode="&#x130;" horiz-adv-x="347" 
d="M254 650v-650h-162v650h162zM252 808q0 -34 -23 -58.5t-61 -24.5q-37 0 -59.5 24.5t-22.5 58.5t22.5 59t59.5 25t60.5 -25t23.5 -59z" />
    <glyph glyph-name="dotlessi" unicode="&#x131;" horiz-adv-x="309" 
d="M231 500v-500h-154v500h154z" />
    <glyph glyph-name="Kcommaaccent" unicode="&#x136;" horiz-adv-x="742" 
d="M92 0v650h162v-286l61 52l211 234h189l-293 -301l317 -349h-188l-232 256l-65 -50v-206h-162zM317 -50l94 -11q0 -40 -19 -97.5t-46 -98.5l-81 14q52 106 52 193z" />
    <glyph glyph-name="kcommaaccent" unicode="&#x137;" horiz-adv-x="595" 
d="M70 0v750h154v-438l33 26l136 162h177l-204 -214l228 -286h-185l-148 197l-37 -28v-169h-154zM273 -50l94 -11q0 -40 -19 -97.5t-46 -98.5l-81 14q52 106 52 193z" />
    <glyph glyph-name="Lacute" unicode="&#x139;" horiz-adv-x="582" 
d="M571 120v-120h-479v650h162v-530h317zM220 919l79 -72l-165 -150l-60 55z" />
    <glyph glyph-name="lacute" unicode="&#x13a;" horiz-adv-x="290" 
d="M221 750v-750h-154v750h154zM217 994l79 -72l-165 -150l-60 55z" />
    <glyph glyph-name="Lcommaaccent" unicode="&#x13b;" horiz-adv-x="582" 
d="M571 120v-120h-479v650h162v-530h317zM263 -50l94 -11q0 -40 -19 -97.5t-46 -98.5l-81 14q52 106 52 193z" />
    <glyph glyph-name="lcommaaccent" unicode="&#x13c;" horiz-adv-x="290" 
d="M221 750v-750h-154v750h154zM96 -50l94 -11q0 -40 -19 -97.5t-46 -98.5l-81 14q52 106 52 193z" />
    <glyph glyph-name="Lcaron" unicode="&#x13d;" horiz-adv-x="582" 
d="M571 120v-120h-479v650h162v-530h317zM488 735l-111 -187l-89 38l109 195z" />
    <glyph glyph-name="lcaron" unicode="&#x13e;" horiz-adv-x="337" 
d="M221 750v-750h-154v750h154zM459 735l-111 -187l-89 38l109 195z" />
    <glyph glyph-name="Lslash" unicode="&#x141;" horiz-adv-x="582" 
d="M571 120v-120h-479v191l-40 -24l-41 64l81 49v370h162v-271l145 89l40 -64l-185 -114v-170h317z" />
    <glyph glyph-name="lslash" unicode="&#x142;" horiz-adv-x="371" 
d="M260 750v-290l115 73l41 -64l-156 -99v-370h-154v272l-39 -25l-41 64l80 51v388h154z" />
    <glyph glyph-name="Nacute" unicode="&#x143;" horiz-adv-x="820" 
d="M727 650v-650h-132l-366 420q3 -23 3 -57v-363h-140v650l130 1l369 -428q-4 18 -4 51v376h140zM461 919l79 -72l-165 -150l-60 55z" />
    <glyph glyph-name="nacute" unicode="&#x144;" horiz-adv-x="658" 
d="M77 0v500h154v-74h2q2 4 6 10t19.5 22t33.5 28.5t49 22.5t65 10q89 0 136.5 -54.5t47.5 -156.5v-308h-154v304q0 40 -22 62t-63 22q-22 0 -42.5 -8.5t-34 -21t-23.5 -25t-15 -21.5l-5 -8v-304h-154zM374 784l79 -72l-165 -150l-60 55z" />
    <glyph glyph-name="Ncommaaccent" unicode="&#x145;" horiz-adv-x="820" 
d="M727 650v-650h-132l-366 420q3 -23 3 -57v-363h-140v650l130 1l369 -428q-4 18 -4 51v376h140zM361 -50l94 -11q0 -40 -19 -97.5t-46 -98.5l-81 14q52 106 52 193z" />
    <glyph glyph-name="ncommaaccent" unicode="&#x146;" horiz-adv-x="658" 
d="M77 0v500h154v-74h2q2 4 6 10t19.5 22t33.5 28.5t49 22.5t65 10q89 0 136.5 -54.5t47.5 -156.5v-308h-154v304q0 40 -22 62t-63 22q-22 0 -42.5 -8.5t-34 -21t-23.5 -25t-15 -21.5l-5 -8v-304h-154zM299 -50l94 -11q0 -40 -19 -97.5t-46 -98.5l-81 14q52 106 52 193z" />
    <glyph glyph-name="Ncaron" unicode="&#x147;" horiz-adv-x="820" 
d="M727 650v-650h-132l-366 420q3 -23 3 -57v-363h-140v650l130 1l369 -428q-4 18 -4 51v376h140zM408 712l-181 112l51 92l130 -85l130 85l51 -92z" />
    <glyph glyph-name="ncaron" unicode="&#x148;" horiz-adv-x="658" 
d="M77 0v500h154v-74h2q2 4 6 10t19.5 22t33.5 28.5t49 22.5t65 10q89 0 136.5 -54.5t47.5 -156.5v-308h-154v304q0 40 -22 62t-63 22q-22 0 -42.5 -8.5t-34 -21t-23.5 -25t-15 -21.5l-5 -8v-304h-154zM321 577l-181 112l51 92l130 -85l130 85l51 -92z" />
    <glyph glyph-name="Omacron" unicode="&#x14c;" horiz-adv-x="808" 
d="M768 324q0 -152 -102.5 -247.5t-262.5 -95.5t-261 95t-101 248t101 248.5t261 95.5t262.5 -95.5t102.5 -248.5zM603 324q0 93 -56.5 152.5t-143.5 59.5q-86 0 -142 -59.5t-56 -152.5t55 -152t143 -59t144 59.5t56 151.5zM531 828v-81h-261v81h261z" />
    <glyph glyph-name="omacron" unicode="&#x14d;" horiz-adv-x="657" 
d="M625 250q0 -122 -83.5 -195.5t-213.5 -73.5t-213 73.5t-83 195.5q0 121 83 195t213 74t213.5 -74t83.5 -195zM328 398q-61 0 -99.5 -40t-38.5 -107q0 -68 38.5 -108.5t99.5 -40.5t100 40t39 108q0 67 -39 107.5t-100 40.5zM457 693v-81h-261v81h261z" />
    <glyph glyph-name="Ohungarumlaut" unicode="&#x150;" horiz-adv-x="808" 
d="M768 324q0 -152 -102.5 -247.5t-262.5 -95.5t-261 95t-101 248t101 248.5t261 95.5t262.5 -95.5t102.5 -248.5zM603 324q0 93 -56.5 152.5t-143.5 59.5q-86 0 -142 -59.5t-56 -152.5t55 -152t143 -59t144 59.5t56 151.5zM424 878l-69 -163l-113 11l88 187zM613 878
l-69 -163l-113 11l88 187z" />
    <glyph glyph-name="ohungarumlaut" unicode="&#x151;" horiz-adv-x="657" 
d="M625 250q0 -122 -83.5 -195.5t-213.5 -73.5t-213 73.5t-83 195.5q0 121 83 195t213 74t213.5 -74t83.5 -195zM328 398q-61 0 -99.5 -40t-38.5 -107q0 -68 38.5 -108.5t99.5 -40.5t100 40t39 108q0 67 -39 107.5t-100 40.5zM350 743l-69 -163l-113 11l88 187zM539 743
l-69 -163l-113 11l88 187z" />
    <glyph glyph-name="OE" unicode="&#x152;" horiz-adv-x="1076" 
d="M1039 125v-125h-496v2q-61 -21 -124 -21q-180 0 -279 92t-99 250q0 155 95.5 250t261.5 95q80 0 145 -26v8h478v-125h-316v-128h254v-121h-254v-151h334zM429 109q59 0 114 31v377q-61 26 -116 26q-222 0 -222 -220q0 -101 63 -157.5t161 -56.5z" />
    <glyph glyph-name="oe" unicode="&#x153;" horiz-adv-x="976" 
d="M898 143l34 -98q-9 -7 -25.5 -17.5t-75.5 -28.5t-125 -18q-128 0 -203 80q-61 -80 -186 -80t-205 73.5t-80 195.5q0 121 80 195t205 74q129 0 190 -86q73 86 188 86q106 0 173.5 -58t67.5 -163q0 -23 -4 -45.5t-8 -33.5l-5 -11h-333v-4q0 -50 42.5 -79t106.5 -29
q44 0 85 12t60 24zM317 398q-55 0 -91 -40t-36 -107q0 -68 36 -108.5t91 -40.5q51 0 84 34t38 94v1q0 17 1 26q-2 65 -35.5 103t-87.5 38zM697 409q-45 0 -77.5 -33t-36.5 -85q128 0 221 5v17q0 49 -29 72.5t-78 23.5z" />
    <glyph glyph-name="Racute" unicode="&#x154;" horiz-adv-x="687" 
d="M92 0v650q106 18 231 18q137 0 211.5 -60t74.5 -155q0 -127 -129 -197l204 -256h-201l-151 206q-43 -9 -89 -11v-195h-151zM323 540q-22 0 -80 -4v-227q33 1 64 7t65 19t54.5 39t20.5 63q0 49 -31.5 76t-92.5 27zM373 919l79 -72l-165 -150l-60 55z" />
    <glyph glyph-name="racute" unicode="&#x155;" horiz-adv-x="438" 
d="M420 500v-134q-54 1 -82 -2q-47 -3 -70.5 -46.5t-36.5 -114.5v-203h-154v500h136v-126h2q45 145 136 145q22 0 39 -5t24 -10zM291 784l79 -72l-165 -150l-60 55z" />
    <glyph glyph-name="Rcommaaccent" unicode="&#x156;" horiz-adv-x="687" 
d="M92 0v650q106 18 231 18q137 0 211.5 -60t74.5 -155q0 -127 -129 -197l204 -256h-201l-151 206q-43 -9 -89 -11v-195h-151zM323 540q-22 0 -80 -4v-227q33 1 64 7t65 19t54.5 39t20.5 63q0 49 -31.5 76t-92.5 27zM303 -50l94 -11q0 -40 -19 -97.5t-46 -98.5l-81 14
q52 106 52 193z" />
    <glyph glyph-name="rcommaaccent" unicode="&#x157;" horiz-adv-x="438" 
d="M420 500v-134q-54 1 -82 -2q-47 -3 -70.5 -46.5t-36.5 -114.5v-203h-154v500h136v-126h2q45 145 136 145q22 0 39 -5t24 -10zM111 -50l94 -11q0 -40 -19 -97.5t-46 -98.5l-81 14q52 106 52 193z" />
    <glyph glyph-name="Rcaron" unicode="&#x158;" horiz-adv-x="687" 
d="M92 0v650q106 18 231 18q137 0 211.5 -60t74.5 -155q0 -127 -129 -197l204 -256h-201l-151 206q-43 -9 -89 -11v-195h-151zM323 540q-22 0 -80 -4v-227q33 1 64 7t65 19t54.5 39t20.5 63q0 49 -31.5 76t-92.5 27zM320 712l-181 112l51 92l130 -85l130 85l51 -92z" />
    <glyph glyph-name="rcaron" unicode="&#x159;" horiz-adv-x="438" 
d="M420 500v-134q-54 1 -82 -2q-47 -3 -70.5 -46.5t-36.5 -114.5v-203h-154v500h136v-126h2q45 145 136 145q22 0 39 -5t24 -10zM238 577l-181 112l51 92l130 -85l130 85l51 -92z" />
    <glyph glyph-name="Sacute" unicode="&#x15a;" horiz-adv-x="622" 
d="M541 644v-186h-112v84q-49 9 -79 9q-63 0 -96 -21t-33 -58q0 -30 37 -52t90 -38t106.5 -36.5t90.5 -59.5t37 -94q0 -93 -74 -152t-206 -59q-48 0 -93 8.5t-75 20.5t-53 24t-33 20l-11 9l57 119q12 -8 32 -20t76.5 -32.5t105.5 -20.5q46 0 81 20t35 49q0 22 -26.5 39
t-67 28.5t-87 29t-87 38.5t-67 59.5t-26.5 89.5q0 83 78.5 144.5t212.5 61.5q44 0 90.5 -6t71.5 -12zM384 919l79 -72l-165 -150l-60 55z" />
    <glyph glyph-name="sacute" unicode="&#x15b;" horiz-adv-x="508" 
d="M22 46l46 102q11 -7 30.5 -17t70.5 -26.5t92 -16.5q32 0 49.5 14t17.5 31q0 14 -20.5 26.5t-51.5 22.5t-66.5 25t-66.5 32.5t-51.5 47.5t-20.5 67q0 74 66 119.5t165 45.5q48 0 91 -6.5t63 -12.5l19 -6v-113q-94 30 -167 30q-37 0 -60.5 -11.5t-23.5 -31.5
q0 -17 28.5 -31.5t69 -28t81.5 -31.5t69.5 -51t28.5 -77q0 -71 -56.5 -119.5t-160.5 -48.5q-75 0 -135.5 16.5t-83.5 32.5zM322 784l79 -72l-165 -150l-60 55z" />
    <glyph glyph-name="Scedilla" unicode="&#x15e;" horiz-adv-x="622" 
d="M541 644v-186h-112v84q-49 9 -79 9q-63 0 -96 -21t-33 -58q0 -30 37 -52t90 -38t106.5 -36.5t90.5 -59.5t37 -94q0 -83 -61 -140.5t-171 -68.5q-1 -4 -1 -11q0 -14 14 -26.5t31.5 -21.5t31.5 -28.5t14 -45.5q0 -47 -37 -74t-97 -27q-45 0 -80 18t-48 36l-13 18l54 51
q30 -43 66 -43q44 0 44 36q0 13 -20 25t-40 29t-20 42q0 14 3 23q-62 6 -116 25.5t-76 36.5l-23 17l57 119q12 -8 32 -20t76.5 -32.5t105.5 -20.5q46 0 81 20t35 49q0 22 -26.5 39t-67 28.5t-87 29t-87 38.5t-67 59.5t-26.5 89.5q0 83 78.5 144.5t212.5 61.5q44 0 90.5 -6
t71.5 -12z" />
    <glyph glyph-name="scedilla" unicode="&#x15f;" horiz-adv-x="508" 
d="M22 46l46 102q11 -7 30.5 -17t70.5 -26.5t92 -16.5q32 0 49.5 14t17.5 31q0 14 -20.5 26.5t-51.5 22.5t-66.5 25t-66.5 32.5t-51.5 47.5t-20.5 67q0 74 66 119.5t165 45.5q48 0 91 -6.5t63 -12.5l19 -6v-113q-94 30 -167 30q-37 0 -60.5 -11.5t-23.5 -31.5
q0 -17 28.5 -31.5t69 -28t81.5 -31.5t69.5 -51t28.5 -77q0 -68 -50.5 -115t-144.5 -52q-1 -4 -1 -10q0 -14 14 -26.5t31.5 -21.5t31.5 -28.5t14 -45.5q0 -47 -37 -74t-97 -27q-45 0 -80 18t-48 36l-13 18l54 51q30 -43 66 -43q44 0 44 36q0 13 -20 25t-40 29t-20 42
q0 13 4 25q-52 7 -93.5 22t-57.5 26z" />
    <glyph glyph-name="Scaron" unicode="&#x160;" horiz-adv-x="622" 
d="M541 644v-186h-112v84q-49 9 -79 9q-63 0 -96 -21t-33 -58q0 -30 37 -52t90 -38t106.5 -36.5t90.5 -59.5t37 -94q0 -93 -74 -152t-206 -59q-48 0 -93 8.5t-75 20.5t-53 24t-33 20l-11 9l57 119q12 -8 32 -20t76.5 -32.5t105.5 -20.5q46 0 81 20t35 49q0 22 -26.5 39
t-67 28.5t-87 29t-87 38.5t-67 59.5t-26.5 89.5q0 83 78.5 144.5t212.5 61.5q44 0 90.5 -6t71.5 -12zM331 712l-181 112l51 92l130 -85l130 85l51 -92z" />
    <glyph glyph-name="scaron" unicode="&#x161;" horiz-adv-x="508" 
d="M22 46l46 102q11 -7 30.5 -17t70.5 -26.5t92 -16.5q32 0 49.5 14t17.5 31q0 14 -20.5 26.5t-51.5 22.5t-66.5 25t-66.5 32.5t-51.5 47.5t-20.5 67q0 74 66 119.5t165 45.5q48 0 91 -6.5t63 -12.5l19 -6v-113q-94 30 -167 30q-37 0 -60.5 -11.5t-23.5 -31.5
q0 -17 28.5 -31.5t69 -28t81.5 -31.5t69.5 -51t28.5 -77q0 -71 -56.5 -119.5t-160.5 -48.5q-75 0 -135.5 16.5t-83.5 32.5zM268 577l-181 112l51 92l130 -85l130 85l51 -92z" />
    <glyph glyph-name="Tcommaaccent" unicode="&#x162;" horiz-adv-x="609" 
d="M603 650v-121h-217v-529h-162v529h-218v121h597zM260 -50l94 -11q0 -40 -19 -97.5t-46 -98.5l-81 14q52 106 52 193z" />
    <glyph glyph-name="tcommaaccent" unicode="&#x163;" horiz-adv-x="493" 
d="M460 500v-121h-202v-192q0 -72 63 -72q29 0 64 9.5t55 18.5l20 9v-110q-7 -7 -21.5 -17t-63 -27t-103.5 -17q-81 0 -124.5 52.5t-43.5 149.5v196h-61v121h61v122l154 53v-175h202zM189 -50l94 -11q0 -40 -19 -97.5t-46 -98.5l-81 14q52 106 52 193z" />
    <glyph glyph-name="Tcaron" unicode="&#x164;" horiz-adv-x="609" 
d="M603 650v-121h-217v-529h-162v529h-218v121h597zM299 712l-181 112l51 92l130 -85l130 85l51 -92z" />
    <glyph glyph-name="tcaron" unicode="&#x165;" horiz-adv-x="499" 
d="M460 500v-121h-202v-192q0 -72 63 -72q29 0 64 9.5t55 18.5l20 9v-110q-7 -7 -21.5 -17t-63 -27t-103.5 -17q-81 0 -124.5 52.5t-43.5 149.5v196h-61v121h61v122l154 53v-175h202zM517 735l-111 -187l-89 38l109 195z" />
    <glyph glyph-name="Umacron" unicode="&#x16a;" horiz-adv-x="789" 
d="M697 650v-650h-161v125h-4q-2 -6 -7 -15.5t-24.5 -34.5t-43.5 -44t-66 -34.5t-91 -15.5q-110 0 -163 59t-53 167v443h161v-379q0 -141 127 -141q32 0 61.5 15t51 38.5t32.5 38.5t19 29v399h161zM513 828v-81h-261v81h261z" />
    <glyph glyph-name="umacron" unicode="&#x16b;" horiz-adv-x="658" 
d="M581 500v-500h-154v74h-1q-2 -4 -6 -10t-19.5 -22t-33.5 -28.5t-49 -22.5t-66 -10q-88 0 -136 54.5t-48 156.5v308h154v-304q0 -40 22.5 -62.5t63.5 -22.5q35 0 64.5 21t41.5 42l13 21v305h154zM457 693v-81h-261v81h261z" />
    <glyph glyph-name="Uring" unicode="&#x16e;" horiz-adv-x="789" 
d="M697 650v-650h-161v125h-4q-2 -6 -7 -15.5t-24.5 -34.5t-43.5 -44t-66 -34.5t-91 -15.5q-110 0 -163 59t-53 167v443h161v-379q0 -141 127 -141q32 0 61.5 15t51 38.5t32.5 38.5t19 29v399h161zM509 835q0 -53 -35 -87t-90 -34q-58 0 -92 34t-34 87q0 52 35.5 86t90.5 34
q53 0 89 -34.5t36 -85.5zM437 835q0 23 -15.5 38t-37.5 15q-23 0 -38.5 -15t-15.5 -38t15 -38t39 -15t38.5 15t14.5 38z" />
    <glyph glyph-name="uring" unicode="&#x16f;" horiz-adv-x="658" 
d="M581 500v-500h-154v74h-1q-2 -4 -6 -10t-19.5 -22t-33.5 -28.5t-49 -22.5t-66 -10q-88 0 -136 54.5t-48 156.5v308h154v-304q0 -40 22.5 -62.5t63.5 -22.5q35 0 64.5 21t41.5 42l13 21v305h154zM453 700q0 -53 -35 -87t-90 -34q-58 0 -92 34t-34 87q0 52 35.5 86t90.5 34
q53 0 89 -34.5t36 -85.5zM381 700q0 23 -15.5 38t-37.5 15q-23 0 -38.5 -15t-15.5 -38t15 -38t39 -15t38.5 15t14.5 38z" />
    <glyph glyph-name="Uhungarumlaut" unicode="&#x170;" horiz-adv-x="789" 
d="M697 650v-650h-161v125h-4q-2 -6 -7 -15.5t-24.5 -34.5t-43.5 -44t-66 -34.5t-91 -15.5q-110 0 -163 59t-53 167v443h161v-379q0 -141 127 -141q32 0 61.5 15t51 38.5t32.5 38.5t19 29v399h161zM406 878l-69 -163l-113 11l88 187zM595 878l-69 -163l-113 11l88 187z" />
    <glyph glyph-name="uhungarumlaut" unicode="&#x171;" horiz-adv-x="658" 
d="M581 500v-500h-154v74h-1q-2 -4 -6 -10t-19.5 -22t-33.5 -28.5t-49 -22.5t-66 -10q-88 0 -136 54.5t-48 156.5v308h154v-304q0 -40 22.5 -62.5t63.5 -22.5q35 0 64.5 21t41.5 42l13 21v305h154zM350 743l-69 -163l-113 11l88 187zM539 743l-69 -163l-113 11l88 187z" />
    <glyph glyph-name="Uogonek" unicode="&#x172;" horiz-adv-x="789" 
d="M697 650v-650h-29q-4 -1 -13 -4t-25 -12t-29.5 -21t-24 -32.5t-10.5 -44.5q0 -33 25 -45t75 -12v-79q-211 0 -211 133q0 67 81 117v125h-4q-2 -6 -7 -15.5t-24.5 -34.5t-43.5 -44t-66 -34.5t-91 -15.5q-110 0 -163 59t-53 167v443h161v-379q0 -141 127 -141q32 0 61.5 15
t51 38.5t32.5 38.5t19 29v399h161z" />
    <glyph glyph-name="uogonek" unicode="&#x173;" horiz-adv-x="658" 
d="M581 500v-500h-18q-4 -1 -11 -3.5t-25 -11.5t-31.5 -21t-24.5 -33t-11 -45q0 -33 25 -45t75 -12v-79q-211 0 -211 133q0 66 80 117h-2v74h-1q-2 -4 -6 -10t-19.5 -22t-33.5 -28.5t-49 -22.5t-66 -10q-88 0 -136 54.5t-48 156.5v308h154v-304q0 -40 22.5 -62.5t63.5 -22.5
q35 0 64.5 21t41.5 42l13 21v305h154z" />
    <glyph glyph-name="Ydieresis" unicode="&#x178;" horiz-adv-x="708" 
d="M172 650q23 -43 50.5 -93.5t51.5 -94.5t44 -80.5t33.5 -61t14.5 -25.5l178 355h164l-354 -650h-165l94 176l-276 474h165zM559 808q0 -33 -24 -58t-59 -25q-34 0 -58 25t-24 58t24 58.5t58 25.5q35 0 59 -25.5t24 -58.5zM343 808q0 -33 -23.5 -58t-58.5 -25t-59 25
t-24 58t24 58.5t59 25.5t58.5 -25.5t23.5 -58.5z" />
    <glyph glyph-name="Zacute" unicode="&#x179;" horiz-adv-x="678" 
d="M630 650v-80l-358 -450h358v-120h-583v80l359 450h-359v120h583zM399 919l79 -72l-165 -150l-60 55z" />
    <glyph glyph-name="zacute" unicode="&#x17a;" horiz-adv-x="524" 
d="M493 500v-72l-256 -316q6 1 19 1h235l-1 -113h-462v80l250 313q-107 -10 -230 -10v117h445zM333 784l79 -72l-165 -150l-60 55z" />
    <glyph glyph-name="Zdotaccent" unicode="&#x17b;" horiz-adv-x="678" 
d="M630 650v-80l-358 -450h358v-120h-583v80l359 450h-359v120h583zM425 808q0 -34 -23 -58.5t-61 -24.5q-37 0 -59.5 24.5t-22.5 58.5t22.5 59t59.5 25t60.5 -25t23.5 -59z" />
    <glyph glyph-name="zdotaccent" unicode="&#x17c;" horiz-adv-x="524" 
d="M493 500v-72l-256 -316q6 1 19 1h235l-1 -113h-462v80l250 313q-107 -10 -230 -10v117h445zM360 673q0 -34 -23 -58.5t-61 -24.5q-37 0 -59.5 24.5t-22.5 58.5t22.5 59t59.5 25t60.5 -25t23.5 -59z" />
    <glyph glyph-name="Zcaron" unicode="&#x17d;" horiz-adv-x="678" 
d="M630 650v-80l-358 -450h358v-120h-583v80l359 450h-359v120h583zM346 712l-181 112l51 92l130 -85l130 85l51 -92z" />
    <glyph glyph-name="zcaron" unicode="&#x17e;" horiz-adv-x="524" 
d="M493 500v-72l-256 -316q6 1 19 1h235l-1 -113h-462v80l250 313q-107 -10 -230 -10v117h445zM280 577l-181 112l51 92l130 -85l130 85l51 -92z" />
    <glyph glyph-name="longs" unicode="&#x17f;" horiz-adv-x="290" 
d="M410 719v-119q-43 21 -108 21q-45 0 -63 -20t-18 -67v-534h-154v534q0 127 43.5 180t146.5 53q39 0 77 -12t57 -24z" />
    <glyph glyph-name="florin" unicode="&#x192;" horiz-adv-x="455" 
d="M425 447v-121h-163v-326q0 -64 -24 -115.5t-63 -82.5t-82.5 -48.5t-88.5 -22.5l-22 133q51 12 88.5 45t37.5 91v326h-61v121h61v99q0 222 196 222q42 0 78.5 -8.5t51.5 -17.5l16 -9v-123q-49 23 -111 23q-42 0 -59.5 -19.5t-17.5 -67.5v-99h163z" />
    <glyph glyph-name="dotlessj" unicode="&#x237;" horiz-adv-x="324" 
d="M92 0v500h154v-500q0 -64 -24 -115.5t-63 -82.5t-82 -48.5t-88 -22.5l-22 133q50 12 87.5 45.5t37.5 90.5z" />
    <glyph glyph-name="circumflex" unicode="&#x2c6;" horiz-adv-x="429" 
d="M214 794l181 -112l-51 -92l-130 85l-130 -85l-51 92z" />
    <glyph glyph-name="caron" unicode="&#x2c7;" horiz-adv-x="429" 
d="M214 577l-181 112l51 92l130 -85l130 85l51 -92z" />
    <glyph glyph-name="breve" unicode="&#x2d8;" horiz-adv-x="459" 
d="M229 679q38 0 72 16.5t49 32.5l15 17l58 -85q-3 -4 -8 -10t-23 -21.5t-38.5 -27.5t-54 -21.5t-70.5 -9.5q-36 0 -69.5 9.5t-55 22.5t-37.5 26t-23 22l-8 10l58 85q6 -7 16.5 -18t46 -29.5t72.5 -18.5z" />
    <glyph glyph-name="dotaccent" unicode="&#x2d9;" horiz-adv-x="488" 
d="M351 673q0 -34 -23 -58.5t-61 -24.5q-37 0 -59.5 24.5t-22.5 58.5t22.5 59t59.5 25t60.5 -25t23.5 -59z" />
    <glyph glyph-name="ring" unicode="&#x2da;" horiz-adv-x="508" 
d="M305 699q0 -53 -35 -87t-90 -34q-58 0 -92 34t-34 87q0 52 35.5 86t90.5 34q53 0 89 -34.5t36 -85.5zM233 699q0 23 -15.5 38t-37.5 15q-23 0 -38.5 -15t-15.5 -38t15 -38t39 -15t38.5 15t14.5 38z" />
    <glyph glyph-name="ogonek" unicode="&#x2db;" horiz-adv-x="294" 
d="M209 44l38 -44q-4 -1 -11 -3.5t-25 -11.5t-31.5 -21t-24.5 -33t-11 -45q0 -33 25 -45t75 -12v-79q-211 0 -211 133q0 31 18 59t44 46t52 31t44 19z" />
    <glyph glyph-name="tilde" unicode="&#x2dc;" horiz-adv-x="515" 
d="M426 752l32 -59q-1 -3 -3.5 -9t-12.5 -20.5t-22 -26t-32.5 -20.5t-44.5 -9q-40 0 -83 22.5t-76 22.5q-24 0 -48 -11t-36 -22l-11 -11l-32 68q2 4 6 10t17 22t27 28.5t35 22.5t42 10q47 0 90 -24t71 -24q24 0 44.5 7.5t28.5 14.5z" />
    <glyph glyph-name="hungarumlaut" unicode="&#x2dd;" horiz-adv-x="505" 
d="M217 743l-69 -163l-113 11l88 187zM406 743l-69 -163l-113 11l88 187z" />
    <glyph glyph-name="uni0400" unicode="&#x400;" 
d="M588 125v-125h-496v650h478v-125h-316v-128h254v-121h-254v-151h334zM141 862l78 72l147 -167l-60 -55z" />
    <glyph glyph-name="afii10023" unicode="&#x401;" 
d="M588 125v-125h-496v650h478v-125h-316v-128h254v-121h-254v-151h334zM502 823q0 -33 -24 -58t-59 -25q-34 0 -58 25t-24 58t24 58.5t58 25.5q35 0 59 -25.5t24 -58.5zM286 823q0 -33 -23.5 -58t-58.5 -25t-59 25t-24 58t24 58.5t59 25.5t58.5 -25.5t23.5 -58.5z" />
    <glyph glyph-name="afii10051" unicode="&#x402;" horiz-adv-x="856" 
d="M621 139v50q0 48 -24 70.5t-81 22.5q-75 0 -130 -55v-227h-162v529h-218v121h597v-121h-217v-190h1q2 3 6.5 8.5t20.5 18.5t34.5 23t51 18.5t68.5 8.5q119 0 166.5 -49.5t47.5 -139.5v-85q0 -158 -78.5 -247t-197.5 -109l-21 133q68 15 102 73t34 147z" />
    <glyph glyph-name="afii10052" unicode="&#x403;" horiz-adv-x="529" 
d="M535 527h-280v-527h-162v650h442v-123zM348 919l79 -72l-165 -150l-60 55z" />
    <glyph glyph-name="afii10053" unicode="&#x404;" horiz-adv-x="713" 
d="M550 387v-120h-351q13 -75 67 -118t149 -43q54 0 112 17t89 33l30 17l46 -89q-4 -4 -12.5 -11t-37 -25t-60.5 -31.5t-83.5 -24.5t-105.5 -11q-161 0 -256.5 94.5t-95.5 246.5q0 151 101 248.5t263 97.5q57 0 111.5 -8.5t81.5 -17.5l26 -8v-121q-87 30 -192 30
q-95 0 -153.5 -42t-76.5 -114h348z" />
    <glyph glyph-name="afii10054" unicode="&#x405;" horiz-adv-x="622" 
d="M541 644v-186h-112v84q-49 9 -79 9q-63 0 -96 -21t-33 -58q0 -30 37 -52t90 -38t106.5 -36.5t90.5 -59.5t37 -94q0 -93 -74 -152t-206 -59q-48 0 -93 8.5t-75 20.5t-53 24t-33 20l-11 9l57 119q12 -8 32 -20t76.5 -32.5t105.5 -20.5q46 0 81 20t35 49q0 22 -26.5 39
t-67 28.5t-87 29t-87 38.5t-67 59.5t-26.5 89.5q0 83 78.5 144.5t212.5 61.5q44 0 90.5 -6t71.5 -12z" />
    <glyph glyph-name="afii10055" unicode="&#x406;" horiz-adv-x="347" 
d="M254 650v-650h-162v650h162z" />
    <glyph glyph-name="afii10056" unicode="&#x407;" horiz-adv-x="347" 
d="M254 650v-650h-162v650h162zM363 808q0 -33 -24 -58t-59 -25q-34 0 -58 25t-24 58t24 58.5t58 25.5q35 0 59 -25.5t24 -58.5zM147 808q0 -33 -23.5 -58t-58.5 -25t-59 25t-24 58t24 58.5t59 25.5t58.5 -25.5t23.5 -58.5z" />
    <glyph glyph-name="afii10057" unicode="&#x408;" horiz-adv-x="366" 
d="M273 650v-508q0 -158 -78.5 -247t-197.5 -109l-22 133q68 15 102 72.5t34 147.5v511h162z" />
    <glyph glyph-name="afii10058" unicode="&#x409;" horiz-adv-x="1112" 
d="M214 650h470v-302q11 10 29 22t61 27t89 15q99 0 166.5 -48t67.5 -141q0 -104 -78 -173t-216 -69q-82 0 -140 20t-87.5 55.5t-41.5 74t-12 84.5v309h-177q-9 -126 -24.5 -212.5t-45.5 -160.5t-80 -116t-122 -54l-40 147q96 23 132 134t49 388zM814 301q-72 0 -130 -37
v-25q0 -134 126 -134q61 0 97 31.5t36 76.5q0 43 -35.5 65.5t-93.5 22.5z" />
    <glyph glyph-name="afii10059" unicode="&#x40a;" horiz-adv-x="1155" 
d="M705 650v-304q8 8 24.5 20t62 29t94.5 17q98 0 165.5 -48t67.5 -141q0 -104 -78 -173t-216 -69q-280 0 -280 234v41h-291v-256h-162v650h162v-274h291v274h160zM836 301q-74 0 -131 -38v-24q0 -134 127 -134q61 0 97 31.5t36 76.5q0 43 -35.5 65.5t-93.5 22.5z" />
    <glyph glyph-name="afii10060" unicode="&#x40b;" horiz-adv-x="856" 
d="M603 650v-121h-217v-190h1q2 3 6.5 8.5t20.5 18.5t34.5 23t51 18.5t68.5 8.5q119 0 166.5 -49.5t47.5 -139.5v-227h-161v189q0 48 -24 70.5t-81 22.5q-75 0 -130 -55v-227h-162v529h-218v121h597z" />
    <glyph glyph-name="afii10061" unicode="&#x40c;" horiz-adv-x="742" 
d="M92 0v650h162v-286l61 52l211 234h189l-293 -301l317 -349h-188l-232 256l-65 -50v-206h-162zM394 934l79 -72l-165 -150l-60 55z" />
    <glyph glyph-name="uni040D" unicode="&#x40d;" horiz-adv-x="791" 
d="M699 650v-650h-145v348l3 65l-363 -413h-102v650h145v-361l-4 -59l367 421zM273 847l78 72l147 -167l-60 -55z" />
    <glyph glyph-name="afii10062" unicode="&#x40e;" horiz-adv-x="708" 
d="M172 650q23 -43 50.5 -93.5t51.5 -94.5t44 -80.5t33.5 -61t14.5 -25.5l178 355h164l-354 -650h-165l94 176l-276 474h165zM371 814q38 0 72 16.5t49 33.5l15 16l58 -85q-3 -4 -8 -10t-23 -21.5t-38.5 -27.5t-54 -21.5t-70.5 -9.5q-36 0 -69.5 9.5t-55 22.5t-37.5 26
t-23 23l-8 9l58 85q6 -7 16.5 -18t46 -29.5t72.5 -18.5z" />
    <glyph glyph-name="afii10145" unicode="&#x40f;" horiz-adv-x="779" 
d="M254 650v-528h272v528h160v-650h-228v-207h-136v207h-230v650h162z" />
    <glyph glyph-name="afii10017" unicode="&#x410;" horiz-adv-x="754" 
d="M283 650l2 -3l1 3h192l257 -650h-164l-50 126h-292l-47 -126h-163zM482 230l-106 299l-108 -299h214z" />
    <glyph glyph-name="afii10018" unicode="&#x411;" horiz-adv-x="681" 
d="M539 650v-123h-285v-121q38 4 81 4q306 0 306 -196q0 -101 -71 -167t-230 -66q-63 0 -125 4.5t-93 9.5l-30 5v650h447zM335 304q-51 0 -81 -6v-194q45 -6 86 -6q80 0 113.5 28.5t33.5 80.5q0 97 -152 97z" />
    <glyph glyph-name="afii10019" unicode="&#x412;" horiz-adv-x="671" 
d="M92 0v650q145 18 239 18q245 0 245 -175q0 -79 -64 -145q118 -46 118 -150q0 -94 -72.5 -155.5t-219.5 -61.5q-55 0 -116.5 4.5t-95.5 9.5zM327 280q-49 0 -91 -5v-170q63 -5 101 -5q139 0 139 98q0 82 -149 82zM327 377q40 0 73 -4q44 48 44 99q0 80 -113 80
q-34 0 -95 -7v-171q45 3 91 3z" />
    <glyph glyph-name="afii10020" unicode="&#x413;" horiz-adv-x="528" 
d="M534 527h-280v-527h-162v650h442v-123z" />
    <glyph glyph-name="afii10021" unicode="&#x414;" horiz-adv-x="821" 
d="M196 650h492v-528h108v-329h-137v207h-474v-188h-136v310h74q33 76 47.5 185.5t25.5 342.5zM530 524h-199q-19 -281 -64 -402h263v402z" />
    <glyph glyph-name="afii10022" unicode="&#x415;" 
d="M588 125v-125h-496v650h478v-125h-316v-128h254v-121h-254v-151h334z" />
    <glyph glyph-name="afii10024" unicode="&#x416;" horiz-adv-x="1077" 
d="M603 239v-239h-151v307l-45 -31l-213 -276h-188l290 323l-278 327h188l196 -247l50 29v218h151v-277l41 34l217 243h189l-286 -286l307 -364h-189l-222 278z" />
    <glyph glyph-name="afii10025" unicode="&#x417;" horiz-adv-x="621" 
d="M94 531l-8 111q90 26 196 26q125 0 192.5 -47.5t67.5 -119.5q0 -93 -100 -153q139 -28 139 -152q0 -104 -86 -159.5t-212 -55.5q-53 0 -100 8.5t-75.5 21t-49.5 25t-30 20.5l-8 9l51 97q10 -7 27.5 -17t69 -26.5t100.5 -16.5q69 0 106.5 25.5t37.5 68.5q0 76 -110 76
l-124 -5v108q72 6 142 6q7 3 18 9.5t29 30t18 51.5q0 33 -35.5 54.5t-105.5 21.5q-29 0 -66.5 -4t-60.5 -8z" />
    <glyph glyph-name="afii10026" unicode="&#x418;" horiz-adv-x="791" 
d="M699 650v-650h-145v348l3 65l-363 -413h-102v650h145v-361l-4 -59l367 421z" />
    <glyph glyph-name="afii10027" unicode="&#x419;" horiz-adv-x="791" 
d="M699 650v-650h-145v348l3 65l-363 -413h-102v650h145v-361l-4 -59l367 421zM408 814q38 0 72 16.5t49 33.5l15 16l58 -85q-3 -4 -8 -10t-23 -21.5t-38.5 -27.5t-54 -21.5t-70.5 -9.5q-36 0 -69.5 9.5t-55 22.5t-37.5 26t-24 23l-7 9l58 85q6 -7 16.5 -18t46 -29.5
t72.5 -18.5z" />
    <glyph glyph-name="afii10028" unicode="&#x41a;" horiz-adv-x="742" 
d="M92 0v650h162v-286l61 52l211 234h189l-293 -301l317 -349h-188l-232 256l-65 -50v-206h-162z" />
    <glyph glyph-name="afii10029" unicode="&#x41b;" horiz-adv-x="777" 
d="M214 650h470v-650h-162v524h-177q-9 -126 -24.5 -212.5t-45.5 -160.5t-80 -116t-122 -54l-40 147q96 23 132 134t49 388z" />
    <glyph glyph-name="afii10030" unicode="&#x41c;" horiz-adv-x="987" 
d="M858 650l103 -650h-155l-62 419l-180 -419h-141l-184 419l-58 -419h-154l112 650h155l201 -479l206 479h157z" />
    <glyph glyph-name="afii10031" unicode="&#x41d;" horiz-adv-x="798" 
d="M705 650v-650h-160v256h-291v-256h-162v650h162v-274h291v274h160z" />
    <glyph glyph-name="afii10032" unicode="&#x41e;" horiz-adv-x="808" 
d="M768 324q0 -152 -102.5 -247.5t-262.5 -95.5t-261 95t-101 248t101 248.5t261 95.5t262.5 -95.5t102.5 -248.5zM603 324q0 93 -56.5 152.5t-143.5 59.5q-86 0 -142 -59.5t-56 -152.5t55 -152t143 -59t144 59.5t56 151.5z" />
    <glyph glyph-name="afii10033" unicode="&#x41f;" horiz-adv-x="779" 
d="M686 650v-650h-160v527h-272v-527h-162v650h594z" />
    <glyph glyph-name="afii10034" unicode="&#x420;" horiz-adv-x="643" 
d="M92 0v650q126 18 232 18q131 0 208 -65.5t77 -177.5q0 -52 -17 -94t-44.5 -68.5t-64 -44.5t-72.5 -25.5t-73 -7.5q-51 0 -95 11v-196h-151zM319 541q-18 0 -76 -4v-227q19 -3 49 -3q67 0 113 27.5t46 90.5q0 54 -35.5 85t-96.5 31z" />
    <glyph glyph-name="afii10035" unicode="&#x421;" horiz-adv-x="705" 
d="M635 634v-232h-122v129q-50 9 -90 9q-105 0 -159.5 -59.5t-54.5 -158.5q0 -94 56 -151t150 -57q54 0 110 23.5t85 46.5l28 24l54 -85q-4 -6 -11.5 -15.5t-35.5 -34t-59.5 -43t-83.5 -34t-109 -15.5q-161 0 -256.5 94.5t-95.5 246.5q0 151 101 248.5t263 97.5
q66 0 123.5 -8.5t81.5 -17.5z" />
    <glyph glyph-name="afii10036" unicode="&#x422;" horiz-adv-x="609" 
d="M603 650v-121h-217v-529h-162v529h-218v121h597z" />
    <glyph glyph-name="afii10037" unicode="&#x423;" horiz-adv-x="708" 
d="M172 650q23 -43 50.5 -93.5t51.5 -94.5t44 -80.5t33.5 -61t14.5 -25.5l178 355h164l-354 -650h-165l94 176l-276 474h165z" />
    <glyph glyph-name="afii10038" unicode="&#x424;" horiz-adv-x="885" 
d="M512 710v-84q153 -3 242.5 -84t89.5 -215q0 -138 -88.5 -219t-243.5 -84v-89h-143v89q-151 4 -239.5 85t-88.5 215q0 137 87 217.5t241 84.5v84h143zM694 327q0 86 -46 134.5t-136 51.5v-375q92 3 137 52.5t45 136.5zM191 324q0 -86 44.5 -134t133.5 -52v375
q-90 -4 -134 -53t-44 -136z" />
    <glyph glyph-name="afii10039" unicode="&#x425;" horiz-adv-x="744" 
d="M6 0l275 325l-270 325h185l176 -224l177 224h184l-271 -325l277 -325h-193l-174 221l-174 -221h-192z" />
    <glyph glyph-name="afii10040" unicode="&#x426;" horiz-adv-x="820" 
d="M254 650v-528h272v528h160v-528h109v-329h-136v207h-567v650h162z" />
    <glyph glyph-name="afii10041" unicode="&#x427;" horiz-adv-x="722" 
d="M629 650v-650h-161v267h-2q-2 -3 -6.5 -8.5t-20.5 -19t-35 -23.5t-51.5 -18.5t-68.5 -8.5q-110 0 -161.5 51.5t-51.5 138.5v271h162v-234q0 -49 26 -70.5t82 -21.5q71 0 127 47v279h161z" />
    <glyph glyph-name="afii10042" unicode="&#x428;" horiz-adv-x="1063" 
d="M612 650v-528h198v528h161v-650h-879v650h162v-528h197v528h161z" />
    <glyph glyph-name="afii10043" unicode="&#x429;" horiz-adv-x="1105" 
d="M971 650v-528h109v-329h-136v207h-852v650h162v-528h197v528h161v-528h198v528h161z" />
    <glyph glyph-name="afii10044" unicode="&#x42a;" horiz-adv-x="779" 
d="M566 650v-80q-6 -3 -15.5 -9t-37.5 -26t-52.5 -41.5t-54 -55t-48.5 -67.5q67 41 147 41q99 0 166.5 -48t67.5 -141q0 -104 -78 -173t-216 -69q-82 0 -140.5 20t-88.5 55.5t-43 74t-13 84.5q0 160 185 319q-28 -4 -47 -4h-294v120h562zM323 262v5q-2 -18 -2 -28
q0 -63 32 -98.5t98 -35.5q61 0 97.5 31.5t36.5 76.5q0 43 -35.5 65.5t-93.5 22.5q-36 0 -69 -9.5t-49 -19.5z" />
    <glyph glyph-name="afii10045" unicode="&#x42b;" horiz-adv-x="1003" 
d="M92 0v650h162v-233q38 8 81 8q306 0 306 -204q0 -102 -71.5 -171t-229.5 -69q-63 0 -125 4.5t-93 9.5zM335 319q-45 0 -81 -12v-203q45 -6 86 -6q147 0 147 116q0 105 -152 105zM910 650v-650h-162v650h162z" />
    <glyph glyph-name="afii10046" unicode="&#x42c;" horiz-adv-x="681" 
d="M92 0v650h162v-233q38 8 81 8q306 0 306 -204q0 -102 -71.5 -171t-229.5 -69q-63 0 -125 4.5t-93 9.5zM335 319q-45 0 -81 -12v-203q45 -6 86 -6q147 0 147 116q0 105 -152 105z" />
    <glyph glyph-name="afii10047" unicode="&#x42d;" horiz-adv-x="687" 
d="M73 527v119q97 22 213 22q162 0 261 -95t99 -247q0 -149 -104.5 -247t-268.5 -98q-53 0 -99 9t-74.5 21.5t-49 25t-28.5 21.5l-9 9l52 102q11 -7 30 -17.5t71.5 -28t97.5 -17.5q172 0 206 158h-349v123h354q-11 76 -68.5 116t-150.5 40q-37 0 -83 -4t-73 -8z" />
    <glyph glyph-name="afii10048" unicode="&#x42e;" horiz-adv-x="1126" 
d="M1086 324q0 -153 -101 -248t-260 -95q-141 0 -234 75t-113 202h-124v-258h-162v650h162v-271h122q17 131 111 210t238 79q160 0 260.5 -95.5t100.5 -248.5zM921 324q0 94 -54 153t-145 59q-86 0 -142.5 -59.5t-56.5 -152.5q0 -92 56.5 -151.5t142.5 -59.5t142.5 59.5
t56.5 151.5z" />
    <glyph glyph-name="afii10049" unicode="&#x42f;" horiz-adv-x="700" 
d="M596 650v-650h-151v239q-3 0 -17.5 -1t-39.5 -2t-50 -1l-134 -235h-159l152 252q-62 22 -100.5 68.5t-38.5 113.5q0 105 75 169t225 64q49 0 108.5 -4.5t94.5 -8.5zM324 346q37 0 121 6v191q-70 6 -99 6q-68 0 -101 -31t-33 -78q0 -43 31 -68.5t81 -25.5z" />
    <glyph glyph-name="afii10065" unicode="&#x430;" horiz-adv-x="604" 
d="M383 0v55h-2q-2 -3 -5 -8t-16.5 -18t-30 -22.5t-46 -17.5t-63.5 -8q-81 0 -134.5 44.5t-53.5 117.5q0 78 58.5 123.5t178.5 45.5q56 0 114 -7v17q0 46 -27 64t-93 18q-37 0 -74 -4.5t-55 -9.5l-19 -4l-16 99q85 34 189 34q142 0 195.5 -53t53.5 -163v-303h-154zM276 87
q32 0 58.5 13.5t37.5 27.5l11 14v78q-48 5 -86 5q-115 0 -115 -69q0 -31 26 -50t68 -19z" />
    <glyph glyph-name="afii10066" unicode="&#x431;" horiz-adv-x="610" 
d="M348 540q-72 -13 -106 -47.5t-46 -117.5h3q5 6 15 14.5t48.5 23t86.5 14.5q105 0 167 -53.5t62 -151.5q0 -105 -78 -173t-205 -68q-121 0 -192 71.5t-71 202.5q0 194 69.5 294t206.5 119q70 10 121 32.5t67 39.5l16 17l56 -88q-2 -4 -6 -11t-21.5 -25.5t-40 -34
t-63.5 -32.5t-89 -26zM314 321q-71 0 -124 -41v-30q0 -70 30.5 -107.5t83.5 -37.5t84.5 31.5t31.5 81.5t-27.5 76.5t-78.5 26.5z" />
    <glyph glyph-name="afii10067" unicode="&#x432;" horiz-adv-x="604" 
d="M309 -19q-62 0 -120 4.5t-85 9.5l-27 5v500q133 19 222 19q230 0 230 -134q0 -69 -105 -114v-4q16 0 38 -6.5t46.5 -19.5t41.5 -38t17 -57q0 -72 -71.5 -118.5t-186.5 -46.5zM311 213q-6 0 -87 -3v-118q43 -5 77 -5q58 0 85 19.5t27 49.5q0 57 -102 57zM224 293
q39 3 89 3q3 0 8 1t17.5 5.5t22 11t17.5 19t8 27.5q0 53 -87 53q-31 0 -75 -6v-114z" />
    <glyph glyph-name="afii10068" unicode="&#x433;" horiz-adv-x="436" 
d="M433 379l-202 2v-381h-154v500h356v-121z" />
    <glyph glyph-name="afii10069" unicode="&#x434;" horiz-adv-x="706" 
d="M686 117l-1 -294h-129v177h-394v-177h-128v294h69q38 154 41 383h446v-383h96zM277 390q-5 -160 -32 -273h201v273h-169z" />
    <glyph glyph-name="afii10070" unicode="&#x435;" horiz-adv-x="570" 
d="M491 143l34 -98q-9 -7 -25.5 -17.5t-75.5 -28.5t-125 -18q-112 0 -189.5 67t-77.5 183q0 129 74 208.5t182 79.5q106 0 173.5 -58t67.5 -163q0 -23 -4.5 -45.5t-8.5 -33.5l-4 -11h-333v-4q0 -50 42.5 -79t106.5 -29q44 0 85 12t59 24zM290 409q-45 0 -77.5 -33t-36.5 -85
q128 0 221 5v17q0 49 -29 72.5t-78 23.5z" />
    <glyph glyph-name="afii10072" unicode="&#x436;" horiz-adv-x="843" 
d="M346 338v162h150v-212l23 20l139 192h176l-211 -230l211 -270h-176l-134 194l-28 -18v-176h-150v218l-24 -21l-138 -197h-175l210 236l-207 264h175l127 -186z" />
    <glyph glyph-name="afii10073" unicode="&#x437;" horiz-adv-x="515" 
d="M66 393l-15 93q76 33 172 33q112 0 172 -35t60 -100q0 -72 -96 -115v-4q32 0 75 -32t43 -81q0 -84 -69.5 -127.5t-180.5 -43.5q-44 0 -83 6.5t-62.5 15.5t-41 17.5t-24.5 15.5l-7 6l36 88q7 -5 20.5 -12t57.5 -19t91 -12q53 0 81 19t28 46q0 54 -100 54l-93 -2v97
q56 4 124 4q8 3 17 7t23.5 18.5t14.5 31.5q0 50 -118 50q-29 0 -60.5 -5t-48.5 -9z" />
    <glyph glyph-name="afii10074" unicode="&#x438;" horiz-adv-x="681" 
d="M509 500h94v-500h-151v258l2 23l-274 -281h-103v500h151v-271v-13l-1 -9z" />
    <glyph glyph-name="afii10075" unicode="&#x439;" horiz-adv-x="681" 
d="M509 500h94v-500h-151v258l2 23l-274 -281h-103v500h151v-271v-13l-1 -9zM353 679q38 0 72 16.5t49 32.5l15 17l58 -85q-3 -4 -8 -10t-23 -21.5t-38.5 -27.5t-54 -21.5t-70.5 -9.5q-36 0 -69.5 9.5t-55 22.5t-37.5 26t-23 22l-8 10l58 85q6 -7 16.5 -18t46 -29.5
t72.5 -18.5z" />
    <glyph glyph-name="afii10076" unicode="&#x43a;" horiz-adv-x="610" 
d="M80 0v500h154v-188l32 26l137 162h177l-204 -214l228 -286h-185l-149 197l-36 -28v-169h-154z" />
    <glyph glyph-name="afii10077" unicode="&#x43b;" horiz-adv-x="646" 
d="M568 500v-500h-154v379h-122q-5 -79 -18.5 -141.5t-40.5 -119.5t-75 -92.5t-114 -44.5l-22 126q76 14 107 115.5t32 277.5h407z" />
    <glyph glyph-name="afii10078" unicode="&#x43c;" horiz-adv-x="829" 
d="M696 500l84 -500h-140l-37 308h-1l-125 -308h-124v2l-1 -2l-123 306l-40 -306h-140l85 500h124l159 -367l152 367h127z" />
    <glyph glyph-name="afii10079" unicode="&#x43d;" horiz-adv-x="668" 
d="M77 0v500h154v-176h205v176h154v-500h-154v210h-205v-210h-154z" />
    <glyph glyph-name="afii10080" unicode="&#x43e;" horiz-adv-x="657" 
d="M625 250q0 -122 -83.5 -195.5t-213.5 -73.5t-213 73.5t-83 195.5q0 121 83 195t213 74t213.5 -74t83.5 -195zM328 398q-61 0 -99.5 -40t-38.5 -107q0 -68 38.5 -108.5t99.5 -40.5t100 40t39 108q0 67 -39 107.5t-100 40.5z" />
    <glyph glyph-name="afii10081" unicode="&#x43f;" horiz-adv-x="659" 
d="M581 500v-500h-154v379h-196v-379h-154v500h504z" />
    <glyph glyph-name="afii10082" unicode="&#x440;" horiz-adv-x="655" 
d="M67 -250v750h154v-53h2q6 10 21.5 24t53.5 31t81 17q108 0 176 -72t68 -185q0 -122 -84.5 -201.5t-217.5 -79.5q-57 0 -100 6v-237h-154zM329 393q-30 0 -57 -10.5t-39 -20.5l-12 -11v-251q40 -10 76 -10q82 0 125.5 43t43.5 114q0 66 -38 106t-99 40z" />
    <glyph glyph-name="afii10083" unicode="&#x441;" horiz-adv-x="534" 
d="M488 158l40 -87q-3 -4 -8 -10t-24 -21.5t-42 -27.5t-62 -21.5t-82 -9.5q-124 0 -201 69t-77 185q0 131 82.5 207.5t208.5 76.5q36 0 75 -5.5t60 -11.5l22 -6v-120q-73 22 -143 22q-68 0 -111.5 -42t-43.5 -108q0 -67 42.5 -106.5t103.5 -39.5q42 0 82 14t59 28z" />
    <glyph glyph-name="afii10084" unicode="&#x442;" horiz-adv-x="499" 
d="M497 500v-121h-170v-379h-154v379h-172v121h496z" />
    <glyph glyph-name="afii10085" unicode="&#x443;" horiz-adv-x="620" 
d="M444 500h166l-227 -493l-119 -257h-158l116 255l-213 495h174l127 -350z" />
    <glyph glyph-name="afii10086" unicode="&#x444;" horiz-adv-x="832" 
d="M489 750v-253h5q19 22 81 22q88 0 156.5 -72t68.5 -178q0 -131 -80 -209.5t-209 -78.5h-22v-231h-146v253h-4q-18 -22 -82 -22q-89 0 -157 72t-68 178q0 132 80.5 210t207.5 78q15 0 23 -1v232h146zM305 91q23 0 38 9v309q-4 0 -11.5 0.5t-11.5 0.5q-60 0 -97 -42.5
t-37 -116.5q0 -67 35.5 -113.5t83.5 -46.5zM525 408q-21 0 -36 -10v-307q9 -1 22 -1q60 0 97 42.5t37 116.5q0 68 -34.5 113.5t-85.5 45.5z" />
    <glyph glyph-name="afii10087" unicode="&#x445;" horiz-adv-x="617" 
d="M599 500l-199 -248l209 -252h-180q-110 158 -121 177l-120 -177h-180l208 252l-198 248h179q104 -156 111 -169l112 169h179z" />
    <glyph glyph-name="afii10088" unicode="&#x446;" horiz-adv-x="697" 
d="M231 500v-379h196v379h154v-379h96v-328h-137v207h-463v500h154z" />
    <glyph glyph-name="afii10089" unicode="&#x447;" horiz-adv-x="585" 
d="M354 282v218h154v-500h-154v201h-2q-3 -5 -11 -11.5t-41.5 -18t-79.5 -11.5q-82 0 -128 39.5t-46 119.5v181h158v-175q0 -65 69 -65q22 0 42 5.5t29 10.5z" />
    <glyph glyph-name="afii10090" unicode="&#x448;" horiz-adv-x="906" 
d="M829 500v-500h-752v500h147v-379h155v379h147v-379h155v379h148z" />
    <glyph glyph-name="afii10091" unicode="&#x449;" horiz-adv-x="945" 
d="M925 121v-328h-137v207h-711v500h147v-379h155v379h147v-379h155v379h148v-379h96z" />
    <glyph glyph-name="afii10092" unicode="&#x44a;" horiz-adv-x="651" 
d="M403 500v-87q-9 -6 -22.5 -16t-45 -44.5t-49.5 -71.5h5q4 4 13 10t43.5 16t75.5 10q197 0 197 -145q0 -78 -76 -134.5t-190 -56.5q-115 0 -181 51.5t-66 132.5q0 129 111 226q-94 -8 -122 -8h-86v117h393zM264 184q0 -47 27.5 -74t73.5 -27q44 0 70.5 21.5t26.5 57.5
q0 34 -21.5 50.5t-69.5 16.5q-28 0 -54.5 -5.5t-38.5 -11.5l-12 -5l-1 4q-1 -9 -1 -27z" />
    <glyph glyph-name="afii10093" unicode="&#x44b;" horiz-adv-x="882" 
d="M804 500v-500h-154v500h154zM231 500v-161h2q30 29 121 29q88 0 149.5 -48.5t61.5 -127.5q0 -92 -77.5 -151.5t-214.5 -59.5q-47 0 -96 4.5t-75 9.5l-25 5v500h154zM312 262q-43 0 -81 -19v-153q30 -3 55 -3q60 0 90.5 28.5t30.5 69.5q0 36 -26 56.5t-69 20.5z" />
    <glyph glyph-name="afii10094" unicode="&#x44c;" horiz-adv-x="597" 
d="M231 500v-161h2q30 29 121 29q88 0 149.5 -48.5t61.5 -127.5q0 -92 -77.5 -151.5t-214.5 -59.5q-47 0 -96 4.5t-75 9.5l-25 5v500h154zM312 262q-43 0 -81 -19v-153q30 -3 55 -3q60 0 90.5 28.5t30.5 69.5q0 36 -26 56.5t-69 20.5z" />
    <glyph glyph-name="afii10095" unicode="&#x44d;" horiz-adv-x="540" 
d="M80 385l-18 106q70 28 170 28q114 0 195.5 -70.5t81.5 -181.5q0 -132 -81.5 -209t-190.5 -77q-48 0 -89 7.5t-64.5 17.5t-40 20.5t-23.5 17.5l-6 8l39 88q8 -5 22 -12t57 -19t87 -12q120 0 145 113h-249v88h255q-13 106 -166 106q-27 0 -58 -5t-48 -9z" />
    <glyph glyph-name="afii10096" unicode="&#x44e;" horiz-adv-x="896" 
d="M577 519q125 0 206.5 -74t81.5 -195q0 -122 -81.5 -195.5t-206.5 -73.5q-100 0 -174.5 60t-89.5 161h-82v-202h-154v500h154v-179l87 3q22 90 93 142.5t166 52.5zM580 398q-60 0 -96 -39.5t-36 -107.5q0 -69 36 -109t96 -40q61 0 98 40t37 108t-37 108t-98 40z" />
    <glyph glyph-name="afii10097" unicode="&#x44f;" horiz-adv-x="605" 
d="M528 496v-496h-154v183q-42 -3 -76 -3h-8l-88 -180h-161l127 199q-120 43 -120 146q0 80 69 127t188 47q56 0 111.5 -5.5t83.5 -11.5zM308 261q31 0 66 4v149q-48 4 -69 4q-53 0 -81 -22t-28 -58t29 -56.5t83 -20.5z" />
    <glyph glyph-name="uni0450" unicode="&#x450;" horiz-adv-x="570" 
d="M491 143l34 -98q-9 -7 -25.5 -17.5t-75.5 -28.5t-125 -18q-112 0 -189.5 67t-77.5 183q0 129 74 208.5t182 79.5q106 0 173.5 -58t67.5 -163q0 -23 -4.5 -45.5t-8.5 -33.5l-4 -11h-333v-4q0 -50 42.5 -79t106.5 -29q44 0 85 12t59 24zM290 409q-45 0 -77.5 -33t-36.5 -85
q128 0 221 5v17q0 49 -29 72.5t-78 23.5zM182 712l78 72l147 -167l-60 -55z" />
    <glyph glyph-name="afii10071" unicode="&#x451;" horiz-adv-x="570" 
d="M491 143l34 -98q-9 -7 -25.5 -17.5t-75.5 -28.5t-125 -18q-112 0 -189.5 67t-77.5 183q0 129 74 208.5t182 79.5q106 0 173.5 -58t67.5 -163q0 -23 -4.5 -45.5t-8.5 -33.5l-4 -11h-333v-4q0 -50 42.5 -79t106.5 -29q44 0 85 12t59 24zM290 409q-45 0 -77.5 -33t-36.5 -85
q128 0 221 5v17q0 49 -29 72.5t-78 23.5zM496 673q0 -33 -24 -58t-59 -25q-34 0 -58 25t-24 58t24 58.5t58 25.5q35 0 59 -25.5t24 -58.5zM280 673q0 -33 -23.5 -58t-58.5 -25t-59 25t-24 58t24 58.5t59 25.5t58.5 -25.5t23.5 -58.5z" />
    <glyph glyph-name="afii10099" unicode="&#x452;" horiz-adv-x="665" 
d="M431 663v-106h-202v-197h2q2 4 6 10t18.5 22.5t31.5 29t44.5 22.5t58.5 10q98 0 148 -58t50 -188q0 -112 -14 -196t-36.5 -135t-58 -83.5t-71 -45.5t-82.5 -17l-22 133q33 6 54 19.5t40 48.5t27.5 104t8.5 176q0 61 -22 86t-64 25q-35 0 -64.5 -21t-41.5 -42l-13 -21
v-239h-154v557h-61v106h61v75l154 12v-87h202z" />
    <glyph glyph-name="afii10100" unicode="&#x453;" horiz-adv-x="436" 
d="M433 379l-202 2v-381h-154v500h356v-121zM293 784l79 -72l-165 -150l-60 55z" />
    <glyph glyph-name="afii10101" unicode="&#x454;" horiz-adv-x="542" 
d="M491 147l34 -98q-3 -3 -8.5 -7.5t-26 -16t-44 -20.5t-61.5 -16.5t-80 -7.5q-117 0 -195 69.5t-78 181.5q0 133 81 210t198 77q45 0 86.5 -5.5t60.5 -11.5l19 -5v-113q-73 20 -146 20t-110 -25t-47 -84h245v-88h-246q19 -111 154 -111q42 0 83 13t61 25z" />
    <glyph glyph-name="afii10102" unicode="&#x455;" horiz-adv-x="508" 
d="M22 46l46 102q11 -7 30.5 -17t70.5 -26.5t92 -16.5q32 0 49.5 14t17.5 31q0 14 -20.5 26.5t-51.5 22.5t-66.5 25t-66.5 32.5t-51.5 47.5t-20.5 67q0 74 66 119.5t165 45.5q48 0 91 -6.5t63 -12.5l19 -6v-113q-94 30 -167 30q-37 0 -60.5 -11.5t-23.5 -31.5
q0 -17 28.5 -31.5t69 -28t81.5 -31.5t69.5 -51t28.5 -77q0 -71 -56.5 -119.5t-160.5 -48.5q-75 0 -135.5 16.5t-83.5 32.5z" />
    <glyph glyph-name="afii10103" unicode="&#x456;" horiz-adv-x="309" 
d="M231 500v-500h-154v500h154zM236 673q0 -34 -23 -58.5t-61 -24.5q-37 0 -59.5 24.5t-22.5 58.5t22.5 59t59.5 25t60.5 -25t23.5 -59z" />
    <glyph glyph-name="afii10104" unicode="&#x457;" horiz-adv-x="309" 
d="M231 500v-500h-154v500h154zM344 673q0 -33 -24 -58t-59 -25q-34 0 -58 25t-24 58t24 58.5t58 25.5q35 0 59 -25.5t24 -58.5zM128 673q0 -33 -23.5 -58t-58.5 -25t-59 25t-24 58t24 58.5t59 25.5t58.5 -25.5t23.5 -58.5z" />
    <glyph glyph-name="afii10105" unicode="&#x458;" horiz-adv-x="324" 
d="M92 0v500h154v-500q0 -64 -24 -115.5t-63 -82.5t-82 -48.5t-88 -22.5l-22 133q50 12 87.5 45.5t37.5 90.5zM251 673q0 -34 -23 -58.5t-61 -24.5q-37 0 -59.5 24.5t-22.5 58.5t22.5 59t59.5 25t60.5 -25t23.5 -59z" />
    <glyph glyph-name="afii10106" unicode="&#x459;" horiz-adv-x="955" 
d="M44 -19l-22 126q76 14 107 115.5t32 277.5h407v-189h7q5 4 15.5 10t49.5 16t87 10q92 0 144.5 -44.5t52.5 -122.5q0 -79 -76.5 -139t-189.5 -60q-116 0 -180 45t-64 106v247h-122q-5 -79 -18.5 -141.5t-40.5 -119.5t-75 -92.5t-114 -44.5zM675 244q-47 0 -107 -22v-74
q2 -29 29.5 -47t71.5 -18q43 0 70 24.5t27 61.5q0 75 -91 75z" />
    <glyph glyph-name="afii10107" unicode="&#x45a;" horiz-adv-x="978" 
d="M77 0v500h154v-176h205v176h154v-189h7q5 4 15.5 10t50 16t87.5 10q91 0 143.5 -44.5t52.5 -122.5q0 -79 -76.5 -139t-188.5 -60q-117 0 -181 45t-64 106v78h-205v-210h-154zM697 244q-53 0 -107 -23v-70h1q0 -30 28 -49t72 -19t71 24.5t27 61.5q0 75 -92 75z" />
    <glyph glyph-name="afii10108" unicode="&#x45b;" horiz-adv-x="656" 
d="M229 750v-87h202v-106h-202v-197h1l5 10t16.5 22.5t30.5 29t47.5 22.5t66.5 10q87 0 139.5 -53.5t52.5 -154.5v-246h-154v238q0 41 -23 63t-63 22q-35 0 -64.5 -21t-41.5 -42l-13 -21v-239h-154v557h-61v106h61v75z" />
    <glyph glyph-name="afii10109" unicode="&#x45c;" horiz-adv-x="610" 
d="M80 0v500h154v-188l32 26l137 162h177l-204 -214l228 -286h-185l-149 197l-36 -28v-169h-154zM378 784l79 -72l-165 -150l-60 55z" />
    <glyph glyph-name="uni045D" unicode="&#x45d;" horiz-adv-x="681" 
d="M509 500h94v-500h-151v258l2 23l-274 -281h-103v500h151v-271v-13l-1 -9zM214 712l78 72l147 -167l-60 -55z" />
    <glyph glyph-name="afii10110" unicode="&#x45e;" horiz-adv-x="620" 
d="M444 500h166l-227 -493l-119 -257h-158l116 255l-213 495h174l127 -350zM314 679q38 0 72 16.5t49 32.5l15 17l58 -85q-3 -4 -8 -10t-23 -21.5t-38.5 -27.5t-54 -21.5t-70.5 -9.5q-36 0 -69.5 9.5t-55 22.5t-37.5 26t-24 22l-7 10l58 85q6 -7 16.5 -18t46 -29.5
t72.5 -18.5z" />
    <glyph glyph-name="afii10193" unicode="&#x45f;" horiz-adv-x="689" 
d="M612 500v-500h-200v-177h-134v177h-201v500h154v-366h227v366h154z" />
    <glyph glyph-name="afii10146" unicode="&#x462;" horiz-adv-x="728" 
d="M603 650v-121h-302v-121q56 9 117 9q139 0 204.5 -46t65.5 -150q0 -101 -75 -170.5t-234 -69.5q-63 0 -123 4.5t-88 9.5l-29 5v529h-133v121h133v60h162v-60h302zM386 311q-46 0 -85 -11v-197q45 -5 78 -5q80 0 117.5 33.5t37.5 86.5q0 49 -36 71t-112 22z" />
    <glyph glyph-name="afii10194" unicode="&#x463;" horiz-adv-x="633" 
d="M470 545v-102h-202v-105h1q1 1 11 6t19 9t24 9t34.5 7.5t42.5 2.5q89 0 145 -48t56 -128q0 -91 -73 -153t-193 -62q-57 0 -112.5 4.5t-82.5 9.5l-26 5v443h-61v102h61v63l154 8v-71h202zM346 266q-49 0 -78 -23v-152q29 -4 60 -4q56 0 86 30.5t30 71.5q0 36 -27 56.5
t-71 20.5z" />
    <glyph glyph-name="afii10050" unicode="&#x490;" horiz-adv-x="532" 
d="M418 797h124v-271h-288v-526h-162v650h326v147z" />
    <glyph glyph-name="afii10098" unicode="&#x491;" horiz-adv-x="429" 
d="M298 644h128v-265h-195v-379h-154v500h221v144z" />
    <glyph glyph-name="endash" unicode="&#x2013;" horiz-adv-x="631" 
d="M598 334v-119h-565v119h565z" />
    <glyph glyph-name="emdash" unicode="&#x2014;" horiz-adv-x="821" 
d="M788 334v-119h-755v119h755z" />
    <glyph glyph-name="quoteleft" unicode="&#x2018;" horiz-adv-x="312" 
d="M210 535l21 -69q-25 -24 -66 -24q-32 0 -56.5 17t-24.5 48q0 113 107 252l85 -32q-66 -120 -66 -192z" />
    <glyph glyph-name="quoteright" unicode="&#x2019;" horiz-adv-x="312" 
d="M102 666l-22 68q26 25 67 25q32 0 56.5 -17.5t24.5 -47.5q0 -114 -108 -252l-85 32q67 119 67 192z" />
    <glyph glyph-name="quotesinglbase" unicode="&#x201a;" horiz-adv-x="312" 
d="M102 70l-22 69q26 25 67 25q32 0 56.5 -17.5t24.5 -48.5q0 -112 -108 -252l-85 32q67 119 67 192z" />
    <glyph glyph-name="quotedblleft" unicode="&#x201c;" horiz-adv-x="537" 
d="M210 535l21 -69q-25 -24 -66 -24q-32 0 -56.5 17t-24.5 48q0 113 107 252l85 -32q-66 -120 -66 -192zM434 535l21 -69q-25 -24 -66 -24q-32 0 -56.5 17t-24.5 48q0 113 107 252l85 -32q-66 -120 -66 -192z" />
    <glyph glyph-name="quotedblright" unicode="&#x201d;" horiz-adv-x="537" 
d="M102 666l-22 68q26 25 67 25q32 0 56.5 -17.5t24.5 -47.5q0 -114 -108 -252l-85 32q67 119 67 192zM326 666l-22 68q26 25 67 25q32 0 56.5 -17.5t24.5 -47.5q0 -114 -108 -252l-85 32q67 119 67 192z" />
    <glyph glyph-name="quotedblbase" unicode="&#x201e;" horiz-adv-x="537" 
d="M102 70l-22 69q26 25 67 25q32 0 56.5 -17.5t24.5 -48.5q0 -112 -108 -252l-85 32q67 119 67 192zM326 70l-22 69q26 25 67 25q32 0 56.5 -17.5t24.5 -48.5q0 -112 -108 -252l-85 32q67 119 67 192z" />
    <glyph glyph-name="dagger" unicode="&#x2020;" horiz-adv-x="595" 
d="M537 461v-119h-161l-17 -592h-121l-16 592h-165v119h178v189h127v-189h175z" />
    <glyph glyph-name="daggerdbl" unicode="&#x2021;" horiz-adv-x="595" 
d="M537 38v-119h-178v-169h-127v169h-175v119h176l20 162l-17 162h-179v119h178v169h127v-169h175v-119h-175l-22 -162l19 -162h178z" />
    <glyph glyph-name="bullet" unicode="&#x2022;" horiz-adv-x="448" 
d="M358 382q0 -61 -38 -101t-96 -40q-59 0 -97.5 40t-38.5 101q0 62 38.5 102.5t97.5 40.5q58 0 96 -40.5t38 -102.5z" />
    <glyph glyph-name="ellipsis" unicode="&#x2026;" horiz-adv-x="1053" 
d="M257 74q0 -37 -23.5 -62t-58.5 -25q-37 0 -60.5 24.5t-23.5 62.5t23.5 63t60.5 25q35 0 58.5 -25t23.5 -63zM609 74q0 -37 -23.5 -62t-58.5 -25q-37 0 -60.5 24.5t-23.5 62.5t23.5 63t60.5 25q35 0 58.5 -25t23.5 -63zM961 74q0 -37 -23.5 -62t-58.5 -25
q-37 0 -60.5 24.5t-23.5 62.5t23.5 63t60.5 25q35 0 58.5 -25t23.5 -63z" />
    <glyph glyph-name="perthousand" unicode="&#x2030;" horiz-adv-x="1650" 
d="M865 650l-425 -650h-149l426 650h148zM468 463q0 -91 -60 -149t-155 -58q-97 0 -154.5 58t-57.5 149q0 89 59.5 147t152.5 58q91 0 153 -58t62 -147zM342 463q0 38 -25.5 61.5t-63.5 23.5q-37 0 -61 -23.5t-24 -61.5t24 -62.5t61 -24.5q39 0 64 24.5t25 62.5zM1116 187
q0 -91 -60 -149t-155 -58q-97 0 -154.5 58t-57.5 149q0 89 59.5 147t152.5 58q91 0 153 -58t62 -147zM990 187q0 38 -25.5 61.5t-63.5 23.5q-37 0 -61 -23.5t-24 -61.5t24 -62.5t61 -24.5q39 0 64 24.5t25 62.5zM1609 187q0 -91 -60 -149t-155 -58q-97 0 -154.5 58
t-57.5 149q0 89 59.5 147t152.5 58q91 0 153 -58t62 -147zM1483 187q0 38 -25.5 61.5t-63.5 23.5q-37 0 -61 -23.5t-24 -61.5t24 -62.5t61 -24.5q39 0 64 24.5t25 62.5z" />
    <glyph glyph-name="guilsinglleft" unicode="&#x2039;" horiz-adv-x="421" 
d="M354 364l-122 -115l121 -117l-65 -74l-193 192l193 187z" />
    <glyph glyph-name="guilsinglright" unicode="&#x203a;" horiz-adv-x="421" 
d="M67 362l65 75l193 -192l-193 -187l-66 73l121 114z" />
    <glyph glyph-name="fraction" unicode="&#x2044;" horiz-adv-x="541" 
d="M512 594l-345 -639l-97 38l345 638z" />
    <glyph glyph-name="zerosuperior" unicode="&#x2070;" horiz-adv-x="479" 
d="M238 681q100 0 159 -66.5t59 -174.5t-59 -174t-159 -66q-99 0 -156.5 65.5t-57.5 174.5t57.5 175t156.5 66zM238 582q-46 0 -73 -39t-27 -103q0 -65 26 -102.5t74 -37.5q49 0 76.5 37.5t27.5 102.5t-28 103.5t-76 38.5z" />
    <glyph glyph-name="foursuperior" unicode="&#x2074;" horiz-adv-x="418" 
d="M264 669h81v-273h73v-86h-73v-96h-112v96h-234v86q50 64 116.5 132t107.5 104zM233 396v151q-29 -22 -134 -151h134z" />
    <glyph glyph-name="fivesuperior" unicode="&#x2075;" horiz-adv-x="392" 
d="M345 669v-91h-97q-23 0 -79 2l-6 -76q20 2 32 2q85 0 133 -42t48 -105q0 -71 -54.5 -115t-144.5 -44q-32 0 -62 6.5t-49 15t-34 17.5t-22 15l-6 7l36 72q58 -41 122 -41q95 0 95 67q0 66 -98 66q-40 0 -85 -9h-2l15 253h258z" />
    <glyph glyph-name="sixsuperior" unicode="&#x2076;" horiz-adv-x="436" 
d="M296 690l29 -83q-135 -40 -171 -128q48 24 97 24q71 0 115 -39t44 -92q0 -76 -58 -124t-149 -48q-84 0 -131.5 51t-47.5 130q0 67 23.5 121t64.5 90t86 59.5t98 38.5zM224 428q-41 0 -85 -21q-1 -9 -1 -26q0 -37 19.5 -63t58.5 -26q37 0 58 19.5t21 51.5q0 28 -20 46.5
t-51 18.5z" />
    <glyph glyph-name="sevensuperior" unicode="&#x2077;" horiz-adv-x="367" 
d="M364 669v-61q-97 -185 -179 -394h-133q60 153 167 359h-216v96h361z" />
    <glyph glyph-name="eightsuperior" unicode="&#x2078;" horiz-adv-x="445" 
d="M24 341q0 73 99 106q-74 39 -74 111q0 51 50.5 87t122.5 36q73 0 122.5 -35.5t49.5 -89.5q0 -65 -72 -93q99 -43 99 -123q0 -59 -52 -99.5t-143 -40.5q-92 0 -147 40t-55 101zM307 350q0 24 -25.5 41.5t-51.5 22.5l-25 5q-4 0 -11 2q-58 -22 -58 -66q0 -32 24.5 -51
t65.5 -19q81 0 81 65zM240 487q3 -1 6 -1q42 19 42 59q0 25 -18 40t-48 15t-47 -13.5t-17 -36.5q0 -24 20.5 -40t41.5 -20z" />
    <glyph glyph-name="ninesuperior" unicode="&#x2079;" horiz-adv-x="436" 
d="M126 192l-29 83q137 21 182 126q-48 -22 -94 -22q-71 0 -114.5 38.5t-43.5 92.5q0 76 57.5 123.5t148.5 47.5q84 0 132 -50.5t48 -129.5q0 -67 -26.5 -123.5t-69 -94t-92 -61t-99.5 -30.5zM212 454q41 0 85 21q0 4 0.5 12.5t0.5 13.5q0 37 -19 63t-59 26q-37 0 -58 -19.5
t-21 -51.5q0 -28 20 -46.5t51 -18.5z" />
    <glyph glyph-name="zerosub" unicode="&#x2080;" horiz-adv-x="479" 
d="M238 261q100 0 159 -66.5t59 -174.5t-59 -174t-159 -66q-99 0 -156.5 65.5t-57.5 174.5t57.5 175t156.5 66zM238 162q-46 0 -73 -39t-27 -103q0 -65 26 -102.5t74 -37.5q49 0 76.5 37.5t27.5 102.5t-28 103.5t-76 38.5z" />
    <glyph glyph-name="onesub" unicode="&#x2081;" horiz-adv-x="331" 
d="M159 249h117v-455h-117v337q-62 -54 -114 -93l-49 71z" />
    <glyph glyph-name="twosub" unicode="&#x2082;" horiz-adv-x="426" 
d="M394 -112v-94h-361v94q9 5 24.5 14.5t55.5 36.5t70 52.5t55 57t25 55.5q0 33 -21 48t-68 15q-27 0 -58 -3.5t-48 -7.5l-18 -3v86q61 22 145 22q93 0 141.5 -41t48.5 -107q0 -101 -182 -225h191z" />
    <glyph glyph-name="threesub" unicode="&#x2083;" horiz-adv-x="402" 
d="M16 -159l35 72q58 -41 123 -41q46 0 70 17t24 45q0 27 -28 42.5t-81 15.5l-36 62q40 40 98 106q-24 -2 -37 -2h-129v91h300v-61q-49 -60 -109 -119q62 -12 101.5 -47.5t39.5 -87.5q0 -68 -52 -111t-142 -43q-51 0 -95 15t-63 31z" />
    <glyph glyph-name="foursub" unicode="&#x2084;" horiz-adv-x="418" 
d="M264 249h81v-273h73v-86h-73v-96h-112v96h-234v86q50 64 116.5 132t107.5 104zM233 -24v151q-29 -22 -134 -151h134z" />
    <glyph glyph-name="fivesub" unicode="&#x2085;" horiz-adv-x="392" 
d="M345 249v-91h-97q-23 0 -79 2l-6 -76q20 2 32 2q85 0 133 -42t48 -105q0 -71 -54.5 -115t-144.5 -44q-32 0 -62 6.5t-49 15t-34 17.5t-22 15l-6 7l36 72q58 -41 122 -41q95 0 95 67q0 66 -98 66q-45 0 -85 -8l-2 -1l15 253h258z" />
    <glyph glyph-name="sixsub" unicode="&#x2086;" horiz-adv-x="436" 
d="M296 270l29 -83q-135 -40 -171 -128q48 24 97 24q71 0 115 -39t44 -92q0 -76 -58 -124t-149 -48q-84 0 -131.5 51t-47.5 130q0 67 23.5 121t64.5 90t86 59.5t98 38.5zM224 8q-41 0 -85 -21q-1 -8 -1 -26q0 -37 19.5 -63t58.5 -26q37 0 58 19.5t21 51.5q0 28 -20 46.5
t-51 18.5z" />
    <glyph glyph-name="sevensub" unicode="&#x2087;" horiz-adv-x="367" 
d="M364 249v-61q-97 -185 -179 -394h-133q58 149 167 359h-216v96h361z" />
    <glyph glyph-name="eightsub" unicode="&#x2088;" horiz-adv-x="445" 
d="M24 -79q0 73 99 106q-74 39 -74 111q0 51 50.5 87t122.5 36q73 0 122.5 -35.5t49.5 -89.5q0 -65 -72 -93q99 -43 99 -123q0 -59 -52 -99.5t-143 -40.5q-92 0 -147 40t-55 101zM307 -70q0 24 -25.5 41.5t-51.5 22.5l-25 5q-4 1 -11 2q-58 -22 -58 -66q0 -32 24.5 -51
t65.5 -19q81 0 81 65zM240 67q3 -1 6 -1q42 19 42 59q0 25 -18 40t-48 15t-47 -13.5t-17 -36.5q0 -24 20.5 -40t41.5 -20z" />
    <glyph glyph-name="ninesub" unicode="&#x2089;" horiz-adv-x="436" 
d="M126 -228l-29 83q137 21 182 126q-48 -22 -94 -22q-71 0 -114.5 38.5t-43.5 92.5q0 76 57.5 123.5t148.5 47.5q84 0 132 -50.5t48 -129.5q0 -67 -26.5 -123.5t-69 -94t-92 -61t-99.5 -30.5zM212 34q41 0 85 21q0 4 0.5 12.5t0.5 13.5q0 37 -19 63t-59 26q-37 0 -58 -19.5
t-21 -51.5q0 -28 20 -46.5t51 -18.5z" />
    <glyph glyph-name="Euro" unicode="&#x20ac;" horiz-adv-x="670" 
d="M555 293v-81h-276q39 -114 167 -114q50 0 97 14t69 28l23 14l32 -77q-3 -4 -10 -10.5t-30 -23t-49.5 -29t-68.5 -23t-87 -10.5q-117 0 -196 62t-106 169h-75v81h63q-1 9 -1 29q0 28 2 42h-64v81h80q33 102 118 162.5t212 60.5q44 0 88 -6t65 -12l22 -5v-111
q-66 17 -165 17q-137 0 -181 -106h271v-81h-289q-2 -28 -2 -42q0 -20 1 -29h290z" />
    <glyph glyph-name="uni20B4" unicode="&#x20b4;" horiz-adv-x="573" 
d="M105 528v105q103 37 200 37q81 0 131 -41t50 -110q0 -34 -20 -74h75v-81h-131q-10 -11 -21.5 -23t-25.5 -26t-21 -22h199v-81h-272q-22 -31 -22 -55q0 -55 76 -55q38 0 78.5 11t62.5 21l21 11l34 -85q-3 -3 -9.5 -8.5t-28 -19t-45 -24t-59.5 -19t-73 -8.5
q-197 0 -197 145q0 39 29 86h-104v81h167q11 12 33.5 35.5t33.5 35.5h-234v81h298q16 29 16 52q0 51 -91 51q-28 0 -65.5 -5t-61.5 -10z" />
    <glyph glyph-name="afii61352" unicode="&#x2116;" horiz-adv-x="1268" 
d="M692 650v-650h-132l-330 402l2 -30v-372h-140v650h130l333 -407l-2 67v340h139zM1227 392q0 -86 -59 -137t-153 -51q-93 0 -152 51t-59 137t59 137t152 51q94 0 153 -51t59 -137zM1110 392q0 42 -25 66.5t-70 24.5q-44 0 -69 -24t-25 -66q0 -43 25 -68t69 -25
q45 0 70 24.5t25 67.5zM1179 101v-119h-330v119h330z" />
    <glyph glyph-name="trademark" unicode="&#x2122;" horiz-adv-x="969" 
d="M881 750l42 -350h-91l-26 204l-89 -204h-80l-79 223l-28 -223h-94q42 217 65 350h102l79 -244l106 244h93zM437 750v-87h-147v-263h-96v263h-135v87h378z" />
    <glyph glyph-name="onethird" unicode="&#x2153;" horiz-adv-x="929" 
d="M159 669h117v-455h-117v337q-62 -54 -114 -93l-49 71zM702 594l-345 -639l-97 38l345 638zM542 -159l35 72q58 -41 123 -41q46 0 70 17t24 45q0 27 -28 42.5t-81 15.5l-36 62q40 40 98 106q-24 -2 -37 -2h-129v91h300v-61q-49 -60 -109 -119q62 -12 101.5 -47.5
t39.5 -87.5q0 -68 -52 -111t-142 -43q-51 0 -95 15t-63 31z" />
    <glyph glyph-name="twothirds" unicode="&#x2154;" horiz-adv-x="1005" 
d="M394 308v-94h-361v94q9 5 24.5 14.5t55.5 36.5t70 52.5t55 57t25 55.5q0 33 -21 48t-68 15q-27 0 -58 -3.5t-48 -7.5l-18 -3v86q61 22 145 22q93 0 141.5 -41t48.5 -107q0 -101 -182 -225h191zM778 594l-345 -639l-97 38l345 638zM618 -159l35 72q58 -41 123 -41
q46 0 70 17t24 45q0 27 -28 42.5t-81 15.5l-36 62q40 40 98 106q-24 -2 -37 -2h-129v91h300v-61q-49 -60 -109 -119q62 -12 101.5 -47.5t39.5 -87.5q0 -68 -52 -111t-142 -43q-51 0 -95 15t-63 31z" />
    <glyph glyph-name="oneeighth" unicode="&#x215b;" horiz-adv-x="971" 
d="M159 669h117v-455h-117v337q-62 -54 -114 -93l-49 71zM702 594l-345 -639l-97 38l345 638zM550 -79q0 73 99 106q-74 39 -74 111q0 51 50.5 87t122.5 36q73 0 122.5 -35.5t49.5 -89.5q0 -65 -72 -93q99 -43 99 -123q0 -59 -52 -99.5t-143 -40.5q-92 0 -147 40t-55 101z
M833 -70q0 24 -25.5 41.5t-51.5 22.5l-25 5q-4 1 -11 2q-58 -22 -58 -66q0 -32 24.5 -51t65.5 -19q81 0 81 65zM766 67q3 -1 6 -1q42 19 42 59q0 25 -18 40t-48 15t-47 -13.5t-17 -36.5q0 -24 20.5 -40t41.5 -20z" />
    <glyph glyph-name="threeeighths" unicode="&#x215c;" horiz-adv-x="1047" 
d="M16 261l35 72q58 -41 123 -41q46 0 70 17t24 45q0 27 -28 42.5t-81 15.5l-36 62q40 40 98 106q-24 -2 -37 -2h-129v91h300v-61q-49 -60 -109 -119q62 -12 101.5 -47.5t39.5 -87.5q0 -68 -52 -111t-142 -43q-51 0 -95 15t-63 31zM778 594l-345 -639l-97 38l345 638z
M626 -79q0 73 99 106q-74 39 -74 111q0 51 50.5 87t122.5 36q73 0 122.5 -35.5t49.5 -89.5q0 -65 -72 -93q99 -43 99 -123q0 -59 -52 -99.5t-143 -40.5q-92 0 -147 40t-55 101zM909 -70q0 24 -25.5 41.5t-51.5 22.5l-25 5q-4 1 -11 2q-58 -22 -58 -66q0 -32 24.5 -51
t65.5 -19q81 0 81 65zM842 67q3 -1 6 -1q42 19 42 59q0 25 -18 40t-48 15t-47 -13.5t-17 -36.5q0 -24 20.5 -40t41.5 -20z" />
    <glyph glyph-name="fiveeighths" unicode="&#x215d;" horiz-adv-x="1034" 
d="M345 669v-91h-97q-23 0 -79 2l-6 -76q20 2 32 2q85 0 133 -42t48 -105q0 -71 -54.5 -115t-144.5 -44q-32 0 -62 6.5t-49 15t-34 17.5t-22 15l-6 7l36 72q58 -41 122 -41q95 0 95 67q0 66 -98 66q-40 0 -85 -9h-2l15 253h258zM765 594l-345 -639l-97 38l345 638zM613 -79
q0 73 99 106q-74 39 -74 111q0 51 50.5 87t122.5 36q73 0 122.5 -35.5t49.5 -89.5q0 -65 -72 -93q99 -43 99 -123q0 -59 -52 -99.5t-143 -40.5q-92 0 -147 40t-55 101zM896 -70q0 24 -25.5 41.5t-50.5 22.5l-26 5q-4 1 -11 2q-58 -22 -58 -66q0 -32 24.5 -51t65.5 -19
q81 0 81 65zM829 67q3 -1 6 -1q42 19 42 59q0 25 -17.5 40t-48.5 15q-30 0 -47 -13.5t-17 -36.5q0 -24 20.5 -40t40.5 -20z" />
    <glyph glyph-name="seveneighths" unicode="&#x215e;" horiz-adv-x="952" 
d="M364 669v-61q-97 -185 -179 -394h-133q60 153 167 359h-216v96h361zM682 594l-345 -639l-97 38l345 638zM531 -79q0 73 99 106q-74 39 -74 111q0 51 50.5 87t122.5 36q73 0 122.5 -35.5t49.5 -89.5q0 -65 -72 -93q99 -43 99 -123q0 -59 -52 -99.5t-143 -40.5
q-92 0 -147 40t-55 101zM814 -70q0 24 -25.5 41.5t-50.5 22.5l-26 5q-4 1 -11 2q-58 -22 -58 -66q0 -32 24.5 -51t65.5 -19q81 0 81 65zM747 67q3 -1 6 -1q42 19 42 59q0 25 -17.5 40t-48.5 15q-30 0 -47 -13.5t-17 -36.5q0 -24 20.5 -40t40.5 -20z" />
    <glyph glyph-name="arrowleft" unicode="&#x2190;" horiz-adv-x="728" 
d="M396 533l26 -96l-151 -114l423 12v-119l-425 12l153 -116l-26 -96l-340 259z" />
    <glyph glyph-name="arrowup" unicode="&#x2191;" horiz-adv-x="645" 
d="M322 668l250 -302l-70 -75l-121 151l9 -442h-135l8 442l-120 -151l-70 75z" />
    <glyph glyph-name="arrowright" unicode="&#x2192;" horiz-adv-x="728" 
d="M33 215v119l425 -12l-153 115l26 96l341 -258l-341 -259l-26 96l152 115z" />
    <glyph glyph-name="arrowdown" unicode="&#x2193;" horiz-adv-x="645" 
d="M323 -19l-250 303l70 75l120 -152l-8 443h135l-9 -443l121 152l70 -75z" />
    <glyph glyph-name="st" unicode="&#xfb06;" horiz-adv-x="950" 
d="M22 46l46 102q11 -7 30.5 -17t70.5 -26.5t92 -16.5q32 0 49.5 14t17.5 31q0 14 -20.5 26.5t-51.5 22.5t-66.5 25t-66.5 32.5t-51.5 47.5t-20.5 67q0 74 66 119.5t165 45.5h21q-31 41 -31 95q0 58 48.5 95t142.5 37h256v-246h203v-121h-203v-192q0 -72 64 -72
q29 0 63.5 9.5t55.5 18.5l20 9v-110q-7 -7 -21.5 -17t-63.5 -27t-103 -17q-82 0 -125.5 52.5t-43.5 149.5v474h-98q-96 0 -96 -72q0 -29 21 -51.5t42 -29.5l21 -8l-1 -2h1v-113q-94 30 -167 30q-37 0 -60.5 -11.5t-23.5 -31.5q0 -17 28.5 -31.5t69 -28t81.5 -31.5t69.5 -51
t28.5 -77q0 -71 -56.5 -119.5t-160.5 -48.5q-75 0 -135.5 16.5t-83.5 32.5z" />
    <glyph glyph-name="onefifth" horiz-adv-x="917" 
d="M159 669h117v-455h-117v337q-62 -54 -114 -93l-49 71zM702 594l-345 -639l-97 38l345 638zM871 249v-91h-97q-23 0 -79 2l-6 -76q20 2 32 2q85 0 133 -42t48 -105q0 -71 -54.5 -115t-144.5 -44q-32 0 -62 6.5t-49 15t-34 17.5t-22 15l-6 7l36 72q58 -41 122 -41
q95 0 95 67q0 66 -98 66q-45 0 -85 -8l-2 -1l15 253h258z" />
    <glyph glyph-name="twofifths" horiz-adv-x="994" 
d="M394 308v-94h-361v94q9 5 24.5 14.5t55.5 36.5t70 52.5t55 57t25 55.5q0 33 -21 48t-68 15q-27 0 -58 -3.5t-48 -7.5l-18 -3v86q61 22 145 22q93 0 141.5 -41t48.5 -107q0 -101 -182 -225h191zM778 594l-345 -639l-97 38l345 638zM947 249v-91h-97q-23 0 -79 2l-6 -76
q20 2 32 2q85 0 133 -42t48 -105q0 -71 -54.5 -115t-144.5 -44q-32 0 -62 6.5t-49 15t-34 17.5t-22 15l-6 7l36 72q58 -41 122 -41q95 0 95 67q0 66 -98 66q-45 0 -85 -8l-2 -1l15 253h258z" />
    <glyph glyph-name="threefifths" horiz-adv-x="994" 
d="M16 261l35 72q58 -41 123 -41q46 0 70 17t24 45q0 27 -28 42.5t-81 15.5l-36 62q40 40 98 106q-24 -2 -37 -2h-129v91h300v-61q-49 -60 -109 -119q62 -12 101.5 -47.5t39.5 -87.5q0 -68 -52 -111t-142 -43q-51 0 -95 15t-63 31zM778 594l-345 -639l-97 38l345 638z
M947 249v-91h-97q-23 0 -79 2l-6 -76q20 2 32 2q85 0 133 -42t48 -105q0 -71 -54.5 -115t-144.5 -44q-32 0 -62 6.5t-49 15t-34 17.5t-22 15l-6 7l36 72q58 -41 122 -41q95 0 95 67q0 66 -98 66q-45 0 -85 -8l-2 -1l15 253h258z" />
    <glyph glyph-name="fourfifths" horiz-adv-x="994" 
d="M264 669h81v-273h73v-86h-73v-96h-112v96h-234v86q50 64 116.5 132t107.5 104zM233 396v151q-29 -22 -134 -151h134zM778 594l-345 -639l-97 38l345 638zM947 249v-91h-97q-23 0 -79 2l-6 -76q20 2 32 2q85 0 133 -42t48 -105q0 -71 -54.5 -115t-144.5 -44q-32 0 -62 6.5
t-49 15t-34 17.5t-22 15l-6 7l36 72q58 -41 122 -41q95 0 95 67q0 66 -98 66q-45 0 -85 -8l-2 -1l15 253h258z" />
    <glyph glyph-name="ct" horiz-adv-x="974" 
d="M488 158l40 -87q-3 -4 -8 -10t-24 -21.5t-42 -27.5t-62 -21.5t-82 -9.5q-124 0 -201 69t-77 185q0 131 82.5 207.5t208.5 76.5h4q-31 41 -31 95q0 58 48.5 95t143.5 37h256v-246h203v-121h-203v-192q0 -72 63 -72q29 0 64 9.5t55 18.5l20 9l1 -110q-7 -7 -21.5 -17
t-63.5 -27t-103 -17q-82 0 -125.5 52.5t-43.5 149.5v474h-98q-96 0 -96 -72q0 -58 76 -87l8 -2v-120q-73 22 -143 22q-68 0 -111.5 -42t-43.5 -108q0 -67 42.5 -106.5t103.5 -39.5q42 0 82 14t59 28z" />
    <glyph glyph-name="halfcaron" horiz-adv-x="429" 
d="M370 735l-111 -187l-89 38l109 195z" />
    <glyph glyph-name="commaaccent" horiz-adv-x="284" 
d="M65 -50l94 -11q0 -40 -19 -97.5t-46 -98.5l-81 14q52 106 52 193z" />
    <glyph glyph-name="a.alt" horiz-adv-x="655" 
d="M588 474v-474h-154v44h-3q-6 -9 -22 -21.5t-56.5 -27t-88.5 -14.5q-111 0 -171.5 67.5t-60.5 182.5q0 124 89 206t236 82q64 0 121.5 -11.5t83.5 -22.5zM318 106q32 0 61 10.5t39 17.5t16 13v254q-36 9 -62 9q-90 0 -136 -44t-46 -116q0 -67 34 -105.5t94 -38.5z" />
    <glyph glyph-name="aring.alt" horiz-adv-x="661" 
d="M588 474v-474h-154v44h-3q-6 -9 -22 -21.5t-56.5 -27t-88.5 -14.5q-111 0 -171.5 67.5t-60.5 182.5q0 124 89 206t236 82q64 0 121.5 -11.5t83.5 -22.5zM318 106q32 0 61 10.5t39 17.5t16 13v254q-36 9 -62 9q-90 0 -136 -44t-46 -116q0 -67 34 -105.5t94 -38.5zM472 700
q0 -53 -35 -87t-90 -34q-58 0 -92 34t-34 87q0 52 35.5 86t90.5 34q53 0 89 -34.5t36 -85.5zM400 700q0 23 -15.5 38t-37.5 15q-23 0 -38.5 -15t-15.5 -38t15 -38t39 -15t38.5 15t14.5 38z" />
    <glyph glyph-name="agrave.alt" horiz-adv-x="661" 
d="M588 474v-474h-154v44h-3q-6 -9 -22 -21.5t-56.5 -27t-88.5 -14.5q-111 0 -171.5 67.5t-60.5 182.5q0 124 89 206t236 82q64 0 121.5 -11.5t83.5 -22.5zM318 106q32 0 61 10.5t39 17.5t16 13v254q-36 9 -62 9q-90 0 -136 -44t-46 -116q0 -67 34 -105.5t94 -38.5zM211 712
l78 72l147 -167l-60 -55z" />
    <glyph glyph-name="adieresis.alt" horiz-adv-x="661" 
d="M588 474v-474h-154v44h-3q-6 -9 -22 -21.5t-56.5 -27t-88.5 -14.5q-111 0 -171.5 67.5t-60.5 182.5q0 124 89 206t236 82q64 0 121.5 -11.5t83.5 -22.5zM318 106q32 0 61 10.5t39 17.5t16 13v254q-36 9 -62 9q-90 0 -136 -44t-46 -116q0 -67 34 -105.5t94 -38.5zM535 673
q0 -33 -24 -58t-59 -25q-34 0 -58 25t-24 58t24 58.5t58 25.5q35 0 59 -25.5t24 -58.5zM319 673q0 -33 -23.5 -58t-58.5 -25t-59 25t-24 58t24 58.5t59 25.5t58.5 -25.5t23.5 -58.5z" />
    <glyph glyph-name="aogonek.alt" horiz-adv-x="661" 
d="M588 474v-474h-5q-4 -1 -13 -4t-25 -12t-29.5 -21t-24 -32.5t-10.5 -44.5q0 -33 25 -45t75 -12v-79q-211 0 -211 133q0 66 80 117h-16v44h-3q-6 -9 -22 -21.5t-56.5 -27t-88.5 -14.5q-111 0 -171.5 67.5t-60.5 182.5q0 124 89 206t236 82q64 0 121.5 -11.5t83.5 -22.5z
M318 106q32 0 61 10.5t39 17.5t16 13v254q-36 9 -62 9q-90 0 -136 -44t-46 -116q0 -67 34 -105.5t94 -38.5z" />
    <glyph glyph-name="abreve.alt" horiz-adv-x="661" 
d="M588 474v-474h-154v44h-3q-6 -9 -22 -21.5t-56.5 -27t-88.5 -14.5q-111 0 -171.5 67.5t-60.5 182.5q0 124 89 206t236 82q64 0 121.5 -11.5t83.5 -22.5zM318 106q32 0 61 10.5t39 17.5t16 13v254q-36 9 -62 9q-90 0 -136 -44t-46 -116q0 -67 34 -105.5t94 -38.5zM347 679
q38 0 72 16.5t49 32.5l15 17l58 -85q-3 -4 -8 -10t-23 -21.5t-38.5 -27.5t-54 -21.5t-70.5 -9.5q-36 0 -69.5 9.5t-55 22.5t-37.5 26t-23 22l-8 10l58 85q6 -7 16.5 -18t46 -29.5t72.5 -18.5z" />
    <glyph glyph-name="aacute.alt" horiz-adv-x="661" 
d="M588 474v-474h-154v44h-3q-6 -9 -22 -21.5t-56.5 -27t-88.5 -14.5q-111 0 -171.5 67.5t-60.5 182.5q0 124 89 206t236 82q64 0 121.5 -11.5t83.5 -22.5zM318 106q32 0 61 10.5t39 17.5t16 13v254q-36 9 -62 9q-90 0 -136 -44t-46 -116q0 -67 34 -105.5t94 -38.5zM400 784
l79 -72l-165 -150l-60 55z" />
    <glyph glyph-name="amacron.alt" horiz-adv-x="661" 
d="M588 474v-474h-154v44h-3q-6 -9 -22 -21.5t-56.5 -27t-88.5 -14.5q-111 0 -171.5 67.5t-60.5 182.5q0 124 89 206t236 82q64 0 121.5 -11.5t83.5 -22.5zM318 106q32 0 61 10.5t39 17.5t16 13v254q-36 9 -62 9q-90 0 -136 -44t-46 -116q0 -67 34 -105.5t94 -38.5zM472 693
v-81h-261v81h261z" />
    <glyph glyph-name="acircumflex.alt" horiz-adv-x="661" 
d="M588 474v-474h-154v44h-3q-6 -9 -22 -21.5t-56.5 -27t-88.5 -14.5q-111 0 -171.5 67.5t-60.5 182.5q0 124 89 206t236 82q64 0 121.5 -11.5t83.5 -22.5zM318 106q32 0 61 10.5t39 17.5t16 13v254q-36 9 -62 9q-90 0 -136 -44t-46 -116q0 -67 34 -105.5t94 -38.5zM347 794
l181 -112l-51 -92l-130 85l-130 -85l-51 92z" />
    <glyph glyph-name="atilde.alt" horiz-adv-x="661" 
d="M588 474v-474h-154v44h-3q-6 -9 -22 -21.5t-56.5 -27t-88.5 -14.5q-111 0 -171.5 67.5t-60.5 182.5q0 124 89 206t236 82q64 0 121.5 -11.5t83.5 -22.5zM318 106q32 0 61 10.5t39 17.5t16 13v254q-36 9 -62 9q-90 0 -136 -44t-46 -116q0 -67 34 -105.5t94 -38.5zM518 752
l32 -59q-1 -3 -3.5 -9t-12.5 -20.5t-22 -26t-32.5 -20.5t-44.5 -9q-40 0 -83 22.5t-76 22.5q-24 0 -48 -11t-36 -22l-11 -11l-32 68q2 4 6 10t17 22t27 28.5t35 22.5t42 10q47 0 90 -24t71 -24q24 0 44.5 7.5t28.5 14.5z" />
    <glyph glyph-name="g.alt" horiz-adv-x="655" 
d="M588 474v-428q0 -161 -89.5 -238t-230.5 -77q-46 0 -85.5 7t-63.5 17.5t-41.5 20.5t-24.5 17l-7 7l52 110q8 -6 22.5 -15t60 -24t91.5 -15q79 0 119.5 44.5t42.5 112.5v31h-3q-5 -8 -21.5 -21t-57 -27.5t-88.5 -14.5q-111 0 -171.5 67.5t-60.5 182.5q0 124 89 206t236 82
q64 0 121.5 -11.5t83.5 -22.5zM318 106q32 0 61 10.5t39 17.5t16 13v254q-36 9 -62 9q-90 0 -136 -44t-46 -116q0 -67 34 -105.5t94 -38.5z" />
    <glyph glyph-name="gcommaaccent.alt" horiz-adv-x="661" 
d="M385 788l81 -14q-52 -107 -52 -194l-94 12q0 40 19.5 97.5t45.5 98.5zM588 474v-428q0 -161 -89.5 -238t-230.5 -77q-46 0 -85.5 7t-63.5 17.5t-41.5 20.5t-24.5 17l-7 7l52 110q8 -6 22.5 -15t60 -24t91.5 -15q79 0 119.5 44.5t42.5 112.5v31h-3q-5 -8 -21.5 -21
t-57 -27.5t-88.5 -14.5q-111 0 -171.5 67.5t-60.5 182.5q0 124 89 206t236 82q64 0 121.5 -11.5t83.5 -22.5zM318 106q32 0 61 10.5t39 17.5t16 13v254q-36 9 -62 9q-90 0 -136 -44t-46 -116q0 -67 34 -105.5t94 -38.5z" />
    <glyph glyph-name="gbreve.alt" horiz-adv-x="661" 
d="M588 474v-428q0 -161 -89.5 -238t-230.5 -77q-46 0 -85.5 7t-63.5 17.5t-41.5 20.5t-24.5 17l-7 7l52 110q8 -6 22.5 -15t60 -24t91.5 -15q79 0 119.5 44.5t42.5 112.5v31h-3q-5 -8 -21.5 -21t-57 -27.5t-88.5 -14.5q-111 0 -171.5 67.5t-60.5 182.5q0 124 89 206t236 82
q64 0 121.5 -11.5t83.5 -22.5zM318 106q32 0 61 10.5t39 17.5t16 13v254q-36 9 -62 9q-90 0 -136 -44t-46 -116q0 -67 34 -105.5t94 -38.5zM347 679q38 0 72 16.5t49 32.5l15 17l58 -85q-3 -4 -8 -10t-23 -21.5t-38.5 -27.5t-54 -21.5t-70.5 -9.5q-36 0 -69.5 9.5t-55 22.5
t-37.5 26t-23 22l-8 10l58 85q6 -7 16.5 -18t46 -29.5t72.5 -18.5z" />
    <glyph glyph-name="afii10065.alt" horiz-adv-x="661" 
d="M588 474v-474h-154v44h-3q-6 -9 -22 -21.5t-56.5 -27t-88.5 -14.5q-111 0 -171.5 67.5t-60.5 182.5q0 124 89 206t236 82q64 0 121.5 -11.5t83.5 -22.5zM318 106q32 0 61 10.5t39 17.5t16 13v254q-36 9 -62 9q-90 0 -136 -44t-46 -116q0 -67 34 -105.5t94 -38.5z" />
    <glyph glyph-name="afii10069.alt" horiz-adv-x="661" 
d="M588 474v-428q0 -161 -89.5 -238t-230.5 -77q-46 0 -85.5 7t-63.5 17.5t-41.5 20.5t-24.5 17l-7 7l52 110q8 -6 22.5 -15t60 -24t91.5 -15q79 0 119.5 44.5t42.5 112.5v31h-3q-5 -8 -21.5 -21t-57 -27.5t-88.5 -14.5q-111 0 -171.5 67.5t-60.5 182.5q0 124 89 206t236 82
q64 0 121.5 -11.5t83.5 -22.5zM318 106q32 0 61 10.5t39 17.5t16 13v254q-36 9 -62 9q-90 0 -136 -44t-46 -116q0 -67 34 -105.5t94 -38.5z" />
    <glyph glyph-name="zero.onum" horiz-adv-x="697" 
d="M347 519q140 0 225 -76.5t85 -194.5q0 -117 -84.5 -192t-225.5 -75t-223.5 74.5t-82.5 192.5t83 194.5t223 76.5zM347 390q-71 0 -110 -41t-39 -101q0 -59 37.5 -99t111.5 -40q73 0 112.5 40t39.5 99q0 60 -39.5 101t-112.5 41z" />
    <glyph glyph-name="one.onum" horiz-adv-x="486" 
d="M239 500h161v-500h-161v342q-109 -93 -169 -138l-71 96q52 45 112 95t94 77z" />
    <glyph glyph-name="two.onum" horiz-adv-x="527" 
d="M486 128v-128h-455v121q11 5 29.5 14.5t66 36t83.5 50.5t65.5 53t29.5 50q0 64 -106 64q-24 0 -54.5 -3t-48.5 -6l-19 -3v123q70 19 171 19q104 0 165 -46t61 -116q0 -129 -289 -248q26 2 92.5 10.5t97.5 8.5h111z" />
    <glyph glyph-name="three.onum" horiz-adv-x="583" 
d="M42 -107l21 96q68 -33 162 -33q76 0 114.5 26t38.5 68q0 41 -39.5 65t-121.5 24l-54 83q78 76 154 165q-117 -12 -248 -12v125h428v-87q-71 -85 -161 -171q91 -16 149 -67t58 -125q0 -95 -82.5 -157t-211.5 -62q-45 0 -82.5 6.5t-59.5 15.5t-37.5 18t-21.5 15z" />
    <glyph glyph-name="four.onum" 
d="M393 500h115v-390h104v-110h-104v-150h-154v150h-340v110q72 91 166.5 188.5t153.5 149.5zM354 110v223l1 5q-7 -6 -30 -29t-76 -81t-109 -126q39 1 113 4.5t101 3.5z" />
    <glyph glyph-name="five.onum" horiz-adv-x="583" 
d="M232 155q-44 0 -114 -11l-4 -1l-5 -1q4 103 9 192.5t8 127.5l3 38h369v-125q-143 0 -245 8q-2 -17 -8 -118q20 2 31 2q127 0 197 -59t70 -149q0 -101 -83 -164.5t-213 -63.5q-70 0 -117.5 9.5t-59.5 18.5l-13 9l21 104q65 -16 145 -16q76 0 115.5 29t39.5 77
q0 93 -146 93z" />
    <glyph glyph-name="six.onum" 
d="M391 668l37 -113q-96 -16 -147 -60t-70 -120q78 38 156 38q101 0 163 -54.5t62 -131.5q0 -109 -79.5 -177.5t-206.5 -68.5q-120 0 -192.5 73.5t-72.5 183.5q0 96 28.5 174t78 129.5t111 83t132.5 43.5zM329 301q-63 0 -130 -29q-1 -11 -1 -34q0 -53 30.5 -92.5
t90.5 -39.5q55 0 85 30t30 78q0 40 -28.5 63.5t-76.5 23.5z" />
    <glyph glyph-name="seven.onum" horiz-adv-x="544" 
d="M530 500v-87q-7 -11 -20 -30.5t-48.5 -81.5t-67 -124.5t-68 -153t-59.5 -173.5h-178q63 227 247 532q-145 -14 -322 -14v132h516z" />
    <glyph glyph-name="eight.onum" horiz-adv-x="648" 
d="M41 183q0 99 134 151q-106 59 -106 155q0 77 75 128t181 51t180 -49.5t74 -130.5q0 -88 -99 -141q128 -56 128 -165q0 -83 -76.5 -142t-206.5 -59q-132 0 -208 57.5t-76 144.5zM451 194q0 37 -37 61.5t-74 30.5l-38 6q-4 0 -10 1q-96 -37 -96 -96q0 -45 33.5 -73.5
t95.5 -28.5q58 0 92 28t34 71zM353 382q4 -1 9 -1q68 40 68 93q0 36 -29.5 60t-75.5 24q-47 0 -76.5 -22t-29.5 -55q0 -37 33.5 -61.5t67.5 -31.5zM328 338l-2 -3v-1z" />
    <glyph glyph-name="nine.onum" 
d="M154 -169l-37 113q202 35 274 170q-67 -28 -133 -28q-101 0 -163 55t-62 132q0 108 79.5 177t206.5 69q120 0 192.5 -74t72.5 -184q0 -76 -27 -143t-71 -114.5t-101.5 -84t-115 -58t-115.5 -30.5zM296 198q61 0 128 27q2 24 2 36q0 54 -30 93t-90 39q-55 0 -85 -30
t-30 -78q0 -40 29 -63.5t76 -23.5z" />
    <glyph glyph-name="y.alt" horiz-adv-x="655" 
d="M427 20v54h-2q-2 -4 -6 -10t-19 -22t-33.5 -28.5t-49 -22.5t-65.5 -10q-88 0 -136 54.5t-48 156.5v308h154v-304q0 -40 22.5 -62.5t63.5 -22.5q35 0 64.5 21t41.5 42l13 21v305h154v-454q0 -161 -89 -238t-231 -77q-46 0 -85.5 7t-63.5 17.5t-41.5 20.5t-24.5 17l-7 7
l52 110q8 -6 22.5 -15t60 -24t91.5 -15q81 0 121.5 46.5t40.5 117.5z" />
    <glyph glyph-name="yacute.alt" horiz-adv-x="655" 
d="M427 20v54h-2q-2 -4 -6 -10t-19 -22t-33.5 -28.5t-49 -22.5t-65.5 -10q-88 0 -136 54.5t-48 156.5v308h154v-304q0 -40 22.5 -62.5t63.5 -22.5q35 0 64.5 21t41.5 42l13 21v305h154v-454q0 -161 -89 -238t-231 -77q-46 0 -85.5 7t-63.5 17.5t-41.5 20.5t-24.5 17l-7 7
l52 110q8 -6 22.5 -15t60 -24t91.5 -15q81 0 121.5 46.5t40.5 117.5zM380 784l79 -72l-165 -150l-60 55z" />
    <glyph glyph-name="ydieresis.alt" horiz-adv-x="655" 
d="M427 20v54h-2q-2 -4 -6 -10t-19 -22t-33.5 -28.5t-49 -22.5t-65.5 -10q-88 0 -136 54.5t-48 156.5v308h154v-304q0 -40 22.5 -62.5t63.5 -22.5q35 0 64.5 21t41.5 42l13 21v305h154v-454q0 -161 -89 -238t-231 -77q-46 0 -85.5 7t-63.5 17.5t-41.5 20.5t-24.5 17l-7 7
l52 110q8 -6 22.5 -15t60 -24t91.5 -15q81 0 121.5 46.5t40.5 117.5zM515 673q0 -33 -24 -58t-59 -25q-34 0 -58 25t-24 58t24 58.5t58 25.5q35 0 59 -25.5t24 -58.5zM299 673q0 -33 -23.5 -58t-58.5 -25t-59 25t-24 58t24 58.5t59 25.5t58.5 -25.5t23.5 -58.5z" />
    <glyph glyph-name="afii10085.alt" horiz-adv-x="655" 
d="M427 20v54h-2q-2 -4 -6 -10t-19 -22t-33.5 -28.5t-49 -22.5t-65.5 -10q-88 0 -136 54.5t-48 156.5v308h154v-304q0 -40 22.5 -62.5t63.5 -22.5q35 0 64.5 21t41.5 42l13 21v305h154v-454q0 -161 -89 -238t-231 -77q-46 0 -85.5 7t-63.5 17.5t-41.5 20.5t-24.5 17l-7 7
l52 110q8 -6 22.5 -15t60 -24t91.5 -15q81 0 121.5 46.5t40.5 117.5z" />
    <glyph glyph-name="afii10110.alt" horiz-adv-x="655" 
d="M427 20v54h-2q-2 -4 -6 -10t-19 -22t-33.5 -28.5t-49 -22.5t-65.5 -10q-88 0 -136 54.5t-48 156.5v308h154v-304q0 -40 22.5 -62.5t63.5 -22.5q35 0 64.5 21t41.5 42l13 21v305h154v-454q0 -161 -89 -238t-231 -77q-46 0 -85.5 7t-63.5 17.5t-41.5 20.5t-24.5 17l-7 7
l52 110q8 -6 22.5 -15t60 -24t91.5 -15q81 0 121.5 46.5t40.5 117.5zM327 679q38 0 72 16.5t49 32.5l15 17l58 -85q-3 -4 -8 -10t-23 -21.5t-38.5 -27.5t-54 -21.5t-70.5 -9.5q-36 0 -69.5 9.5t-55 22.5t-37.5 26t-23 22l-8 10l58 85q6 -7 16.5 -18t46 -29.5t72.5 -18.5z
" />
    <glyph glyph-name="afii10066.alt" horiz-adv-x="593" 
d="M191 418l1 1q-109 71 -109 177q0 73 53.5 122.5t124.5 49.5q47 0 95.5 -19t72.5 -19q20 0 34 8.5t19 17.5l4 9l90 -34q-1 -5 -2.5 -13.5t-10 -30t-19.5 -38t-32.5 -30t-47.5 -13.5q-40 0 -89 18t-72 18q-28 0 -45 -12.5t-17 -36.5q0 -22 24 -44.5t60.5 -42t78.5 -46.5
t78.5 -56.5t60.5 -74t24 -96.5q0 -116 -76 -184t-201 -68t-193.5 58t-68.5 169q0 89 52 146t111 64zM413 223q0 27 -10 48.5t-32.5 40t-41.5 30.5t-53 30q-37 -15 -70 -55t-33 -95q0 -61 31 -92.5t86 -31.5q54 0 88.5 36t34.5 89z" />
    <glyph glyph-name="AndrijType" horiz-adv-x="2014" 
d="M101 265l-6 57q20 1 40.5 17.5t43 52.5t38.5 65t39 84t32 77t29 75q-52 -2 -90 -27t-38 -66q0 -25 14 -50l-53 -22q-16 31 -16 62q0 64 59 110.5t137 46.5t109.5 -25.5t41.5 -63.5l45 -174q9 -30 19 -30l28 5l1 -42q-52 -14 -82 -14q-17 0 -25.5 11t-16.5 41l-5 18h-151
q-95 -207 -193 -208zM1400 74l-3 58q41 0 62.5 15t21.5 40q0 18 -13.5 28t-32.5 10q-34 0 -53 -32.5t-19 -78.5q0 -55 30.5 -88t80.5 -33q36 0 77 19l24 -41q-55 -40 -120 -40q-71 0 -120 47.5t-49 130.5q0 71 44 117t113 46q37 0 70 -20t33 -56t-25 -54t-59 -18v-1
q56 -7 113 -7q131 0 202.5 44t71.5 131l64 -20q0 -106 -86.5 -162t-234.5 -56q-88 0 -192 21zM1058 -125l-77 -3q0 52 1.5 158t1.5 159q0 13 -2 13l-27 5l2 42q73 4 88 4q16 -1 16 -28v-31h1q1 3 2 7t7.5 15t15 19.5t25 15.5t37.5 7q50 0 78.5 -35.5t28.5 -91.5
q0 -62 -43 -102.5t-125 -40.5q-12 0 -30 2v-115zM1192 403q-29 0 -40.5 13.5t-12.5 45.5h-2q0 -3 -1.5 -7t-7.5 -15t-14.5 -19.5t-25 -15.5t-36.5 -7q-51 0 -80 33.5t-29 89.5q0 62 44 104.5t125 42.5q19 0 45 -4q19 73 59 120l61 -40q-23 -28 -36.5 -58t-19 -69t-6.5 -63.5
t-1 -76.5q0 -27 12 -27l20 4v-36q-27 -15 -54 -15zM282 165l-59 3q0 65 53.5 113t160.5 48q26 0 66 -5q37 -4 73 -4q122 0 141 60l55 -8q-10 -45 -53.5 -78.5t-136.5 -33.5q-23 0 -36 1v-179q0 -30 5 -30l27 2v-51q-64 -10 -91 -10q-22 0 -22 89v186q-183 3 -183 -103z
M584 -126l10 61q21 -4 44 -4q83 0 130 69q-53 160 -85 160q-10 0 -31 -5t-37 -9l-16 -5l-9 44q53 40 132 40q52 0 91 -167q27 57 56 203l74 -12q-47 -172 -103 -262q-74 -118 -200 -118q-31 0 -56 5zM700 410l-75 -4q0 32 1 96.5t1 95.5q0 13 -4 15q-2 1 -24.5 5.5
t-32.5 9.5l10 48q12 -5 50 -8t47 -5q19 -3 24.5 -16t5.5 -40v-16h1q1 3 2.5 8t8.5 18.5t16.5 23.5t26.5 18t37 8q82 0 82 -99q0 -11 -1 -41.5t-1 -49.5q0 -27 12 -27l19 4v-36q-26 -15 -54 -15q-30 0 -41 14.5t-11 50.5l1 97q0 37 -35 37q-16 0 -31.5 -11t-22 -20t-10.5 -16
q-2 -98 -2 -145zM1587 259l7 57q21 -9 41 -9q41 0 68 33.5t27 100.5q0 33 0.5 79t0.5 78q0 14 -2 15l-27 4l2 42q54 4 76 4q18 0 23 -13.5t5 -42.5q0 -33 -2 -78t-2 -78q0 -102 -41 -153.5t-107 -51.5q-30 0 -69 13zM1386 410l-77 -4q0 32 1 96.5t1 95.5q0 12 -2 14l-28 5
l2 42q64 4 78 4q16 -10 16 -50v-47q3 34 22.5 68t52.5 34q8 0 16 -2t12 -4l3 -2v-70q-31 3 -46 3q-17 0 -30.5 -24.5t-19.5 -50.5q0 -18 -0.5 -55t-0.5 -53zM1620 607q0 -21 -1.5 -64t-1.5 -66q0 -27 12 -27l19 4v-36q-26 -15 -53 -15q-31 0 -42 14.5t-11 50.5
q0 22 1.5 65.5t1.5 64.5q0 14 -4 15l-28 4l2 42q55 4 77 4q18 0 23 -13.5t5 -42.5zM1083 462q32 0 56 36q0 53 7 111q-22 8 -44 8q-39 0 -59.5 -24t-20.5 -59q0 -34 16 -53t45 -19zM1061 159l-2 -114q20 -7 41 -7q39 0 58 22.5t19 58.5q0 34 -15.5 54.5t-43.5 20.5
q-16 0 -29.5 -8t-19 -15t-8.5 -12zM408 633q-4 14 -6.5 21t-9 16t-16.5 14q-32 -96 -60 -162h118zM1731 746q0 17 12.5 29.5t28.5 12.5q17 0 30 -12.5t13 -29.5q0 -18 -12.5 -30t-30.5 -12q-16 0 -28.5 12t-12.5 30zM1543 746q0 17 12.5 29.5t29.5 12.5t29 -12.5t12 -29.5
q0 -18 -12 -30t-29 -12t-29.5 12t-12.5 30z" />
    <glyph glyph-name="afii10083_afii10077" horiz-adv-x="1083" 
d="M1005 500v-500h-155v379h-121q-4 -70 -15 -124.5t-36 -108t-63.5 -88t-100 -56t-142.5 -21.5q-174 0 -257 66.5t-83 187.5q0 131 82.5 207.5t208.5 76.5q36 0 75 -5.5t60 -11.5l22 -6v-120q-73 22 -143 22q-68 0 -111.5 -42t-43.5 -108q0 -146 190 -146q58 0 99.5 21.5
t65.5 54.5t38 88t18 107.5t5 126.5h407z" />
    <glyph glyph-name="afii10070_afii10077" horiz-adv-x="1158" 
d="M1080 500v-500h-155v379h-121q-14 -218 -107.5 -308t-315.5 -90q-174 0 -261.5 67t-87.5 187q0 128 74 206t182 78q106 0 173.5 -58t67.5 -163q0 -23 -4.5 -45.5t-8.5 -33.5l-4 -11h-333q2 -59 58 -85.5t144 -26.5t143 19t89 68.5t46.5 123t13.5 193.5h407zM290 409
q-45 0 -77.5 -33t-36.5 -85q128 0 221 5v17q0 49 -29 72.5t-78 23.5z" />
    <glyph glyph-name="afii10101_afii10077" horiz-adv-x="1083" 
d="M480 384q-73 20 -143 20q-74 0 -114 -25.5t-50 -83.5h246v-88h-246q10 -61 56.5 -86t142.5 -25q50 0 87.5 14t61.5 43t39.5 62t23.5 83.5t10.5 95t3.5 106.5h407v-500h-155v379h-121q-4 -72 -14 -126.5t-35 -108t-63.5 -87.5t-101 -55t-145.5 -21q-172 0 -255 66.5
t-83 187.5q0 131 82.5 207.5t208.5 76.5q36 0 75 -5.5t60 -11.5l22 -6v-112z" />
    <glyph glyph-name="afii10083_afii10106" horiz-adv-x="1392" 
d="M480 376q-73 22 -143 22q-68 0 -111.5 -42t-43.5 -108q0 -146 190 -146q58 0 99.5 21.5t65.5 54.5t38 88t18 107.5t5 126.5h407v-189h7q5 4 15.5 10t49.5 16t87 10q92 0 144.5 -44.5t52.5 -122.5q0 -79 -76.5 -139t-189.5 -60q-117 0 -181 45t-64 106v247h-121
q-4 -70 -15 -124.5t-36 -108t-63.5 -88t-100 -56t-142.5 -21.5q-174 0 -257 66.5t-83 187.5q0 131 82.5 207.5t208.5 76.5q36 0 75 -5.5t60 -11.5l22 -6v-120zM1111 244q-48 0 -106 -22v-71q0 -30 28 -49t72 -19t71 24.5t27 61.5q0 75 -92 75z" />
    <glyph glyph-name="afii10070_afii10106" horiz-adv-x="1467" 
d="M1080 500v-189h7q5 4 15.5 10t49.5 16t87 10q92 0 144.5 -44.5t52.5 -122.5q0 -79 -76.5 -139t-189.5 -60q-117 0 -181 45t-64 106v247h-121q-14 -218 -107.5 -308t-315.5 -90q-174 0 -261.5 67t-87.5 187q0 128 74 206t182 78q106 0 173.5 -58t67.5 -163
q0 -23 -4.5 -45.5t-8.5 -33.5l-4 -11h-333q2 -59 58 -85.5t144 -26.5t143 19t89 68.5t46.5 123t13.5 193.5h407zM1186 244q-48 0 -106 -22v-74q2 -29 29 -47t71 -18t71 24.5t27 61.5q0 75 -92 75zM290 409q-45 0 -77.5 -33t-36.5 -85q128 0 221 5v17q0 49 -29 72.5t-78 23.5
z" />
    <glyph glyph-name="afii10101_afii10106" horiz-adv-x="1392" 
d="M480 384q-73 20 -143 20q-74 0 -114 -25.5t-50 -83.5h246v-88h-246q10 -61 56.5 -86t142.5 -25q50 0 87.5 14t61.5 43t39.5 62t23.5 83.5t10.5 95t3.5 106.5h407v-189h7q5 4 15.5 10t49.5 16t87 10q92 0 144.5 -44.5t52.5 -122.5q0 -79 -76.5 -139t-189.5 -60
q-117 0 -181 45t-64 106v247h-121q-4 -72 -14 -126.5t-35 -108t-63.5 -87.5t-101 -55t-145.5 -21q-172 0 -255 66.5t-83 187.5q0 131 82.5 207.5t208.5 76.5q36 0 75 -5.5t60 -11.5l22 -6v-112zM1111 244q-48 0 -106 -22v-71q0 -30 28 -49t72 -19t71 24.5t27 61.5
q0 75 -92 75z" />
    </font>
</defs>
</svg>
