<?xml version="1.0" standalone="no"?>
<!DOCTYPE svg PUBLIC "-//W3C//DTD SVG 1.1//EN" "http://www.w3.org/Graphics/SVG/1.1/DTD/svg11.dtd" >
<svg xmlns="http://www.w3.org/2000/svg" xmlns:xlink="http://www.w3.org/1999/xlink" version="1.1">
<metadata>
Created by FontForge 20161003 at Mon Aug  7 14:09:57 2017
 By www-data
Copyright \(c\) 2016 by Mateusz Machalski. All rights reserved.
</metadata>
<defs>
<font id="AlergiaWideLight" horiz-adv-x="725" >
  <font-face 
    font-family="AlergiaWideLight"
    font-weight="265"
    font-stretch="normal"
    units-per-em="1000"
    panose-1="2 0 3 3 0 0 0 0 0 0"
    ascent="800"
    descent="-200"
    x-height="495"
    cap-height="700"
    bbox="-68 -250 1357 1117"
    underline-thickness="50"
    underline-position="-200"
    unicode-range="U+0020-25CA"
  />
<missing-glyph horiz-adv-x="485" 
d="M90 740h308v-970h-308v970zM323 643v32h-160v-32h63v-36h-64v-32h161v32h-64v36h64zM259 482v68h-97v-101h161v33h-64zM194 517h32v-35h-32v35zM323 391v32h-161v-32h64v-36h-64v-32h97v68h64zM323 268v97h-32v-64h-129v-33h161zM323 137v109h-97v-54h33v22h32v-45h-97
v77h-32v-109h161zM323 -31v109h-161v-109h161zM194 46h97v-45h-97v45zM323 -85v32h-161v-32h68l-68 -46v-32h161v32h-99l68 46h31z" />
    <glyph glyph-name=".notdef" horiz-adv-x="485" 
d="M90 740h308v-970h-308v970zM323 643v32h-160v-32h63v-36h-64v-32h161v32h-64v36h64zM259 482v68h-97v-101h161v33h-64zM194 517h32v-35h-32v35zM323 391v32h-161v-32h64v-36h-64v-32h97v68h64zM323 268v97h-32v-64h-129v-33h161zM323 137v109h-97v-54h33v22h32v-45h-97
v77h-32v-109h161zM323 -31v109h-161v-109h161zM194 46h97v-45h-97v45zM323 -85v32h-161v-32h68l-68 -46v-32h161v32h-99l68 46h31z" />
    <glyph glyph-name=".null" horiz-adv-x="0" 
 />
    <glyph glyph-name="nonmarkingreturn" horiz-adv-x="333" 
 />
    <glyph glyph-name="space" unicode=" " horiz-adv-x="258" 
 />
    <glyph glyph-name="exclam" unicode="!" horiz-adv-x="207" 
d="M74 172l-9 528h79l-8 -528h-62zM140 5q-23 -23 -55.5 -10.5t-32.5 46.5q-2 32 32 47.5t56 -10.5q15 -16 15 -37t-15 -36z" />
    <glyph glyph-name="numbersign" unicode="#" horiz-adv-x="812" 
d="M732 454l-6 -65h-133l-19 -178h132l-6 -65h-132l-15 -146h-74l15 146h-209l-15 -146h-74l15 146h-131l6 65h131l19 178h-130l6 65h130l15 146h74l-15 -146h209l15 146h74l-15 -146h133zM291 211h209l19 178h-209z" />
    <glyph glyph-name="dollar" unicode="$" horiz-adv-x="669" 
d="M383 642l-23 -257q9 -2 21 -5t19 -5t12 -3l49 -14q44 -14 87 -43q55 -40 61 -127q0 -93 -74 -146q-74 -52 -196 -52h-14l-12 -140h-44l13 143q-97 12 -154.5 62.5t-66.5 136.5h77q16 -114 149 -133l23 260q-84 23 -128 43q-34 16 -53 35q-47 47 -47 116q0 92 74 145
q73 52 184 52h4l11 120h44l-11 -123q89 -11 145 -61t67 -128h-78q-24 108 -139 124zM164 520q0 -49 37 -77t116 -48l22 250q-77 -1 -126 -35t-49 -90zM331 56h5q85 0 136 32.5t51 90.5q0 51 -39.5 79t-130.5 51z" />
    <glyph glyph-name="percent" unicode="%" horiz-adv-x="1044" 
d="M248 -10l503 750l44 -30l-503 -750zM382 665q49 -49 49 -133t-49 -133t-121 -49t-121 49q-50 50 -50 133t50 133q50 48 121 48t121 -48zM194 625q-26 -35 -26 -93t26 -92q25 -34 67 -34t67 34q25 32 25 92q0 59 -25 93q-26 33 -67 33t-67 -33zM662 307q49 49 121 49
t121 -49q50 -50 50 -133q0 -82 -50 -132q-49 -49 -121 -49t-121 49q-50 50 -50 132q0 83 50 133zM716 82q26 -33 67 -33t67 33q24 32 26 92q-1 59 -26 92.5t-67 33.5t-67 -33.5t-26 -92.5q2 -60 26 -92z" />
    <glyph glyph-name="ampersand" unicode="&#x26;" horiz-adv-x="733" 
d="M579 123l124 -123h-91l-78 76q-100 -86 -242 -86q-113 0 -180.5 49t-67.5 132q0 69 43 118t132 90q-37 35 -57 57q-23 25 -38 56q-18 33 -18 65q0 73 61 113t142 40q82 0 143 -40t61 -113q0 -55 -43 -100t-135 -91l196 -195q53 74 62 183h73q-12 -136 -87 -231zM180 557
q0 -33 25.5 -66t82.5 -82q80 36 115.5 70t35.5 78q0 43 -36 67.5t-94 24.5t-93.5 -24.5t-35.5 -67.5zM296 56q114 0 190 66l-216 209l-2 2q-75 -40 -110 -77.5t-35 -84.5q0 -53 46.5 -84t126.5 -31z" />
    <glyph glyph-name="parenleft" unicode="(" horiz-adv-x="355" 
d="M259 700h66q-160 -205 -160 -450q0 -255 160 -460h-66q-169 208 -169 460q0 129 41 235.5t128 214.5z" />
    <glyph glyph-name="parenright" unicode=")" horiz-adv-x="355" 
d="M30 700h66q87 -108 128 -214.5t41 -235.5q0 -252 -169 -460h-66q160 205 160 460q0 245 -160 450z" />
    <glyph glyph-name="asterisk" unicode="*" horiz-adv-x="404" 
d="M350 653l18 -54l-119 -39l74 -101l-47 -34l-74 101l-74 -101l-47 34l74 101l-119 39l18 54l119 -39v126h58v-126z" />
    <glyph glyph-name="plus" unicode="+" horiz-adv-x="690" 
d="M370 364h240v-61h-240v-229h-61v229h-229v61h229v240h61v-240z" />
    <glyph glyph-name="comma" unicode="," horiz-adv-x="199" 
d="M88 -129h-56l34 219h80z" />
    <glyph glyph-name="hyphen" unicode="-" horiz-adv-x="504" 
d="M424 300v-61h-344v61h344z" />
    <glyph glyph-name="period" unicode="." horiz-adv-x="207" 
d="M140 5q-23 -23 -55.5 -10.5t-32.5 46.5q-2 32 32 47.5t56 -10.5q15 -16 15 -37t-15 -36z" />
    <glyph glyph-name="slash" unicode="/" horiz-adv-x="369" 
d="M-10 -20l314 760h75l-315 -760h-74z" />
    <glyph glyph-name="zero" unicode="0" horiz-adv-x="672" 
d="M135 613q73 97 201 97q129 0 202 -97q74 -98 74 -263t-74 -263q-73 -97 -202 -97q-128 0 -201 97q-74 98 -74 263t74 263zM197 135q49 -79 139 -79q89 0 140 79q50 79 50 215t-50 216q-51 78 -140 78t-139 -78q-51 -80 -51 -216q0 -137 51 -215z" />
    <glyph glyph-name="one" unicode="1" horiz-adv-x="518" 
d="M341 0h-78v552q-82 -64 -201 -67v65q84 9 142.5 46.5t78.5 103.5h58v-700z" />
    <glyph glyph-name="two" unicode="2" horiz-adv-x="674" 
d="M593 0h-537q0 56 25 103t65 80t88 62.5t96.5 57t88.5 55.5t65 65.5t25 80.5q0 62 -46 101.5t-130 39.5q-86 0 -137 -42t-53 -114h-77q0 105 75 163q73 58 192 58q116 0 187 -56q70 -57 70 -149q1 -40 -17 -77t-42 -63.5t-66 -55.5t-71.5 -45.5t-76.5 -39.5
q-152 -80 -161 -158h437v-66z" />
    <glyph glyph-name="three" unicode="3" horiz-adv-x="690" 
d="M460 359q160 -43 160 -176q0 -92 -77 -142q-78 -51 -201 -51q-126 0 -206 63t-80 178h83q1 -82 55.5 -129t147.5 -47q87 0 140 35t53 93q0 66 -60 104.5t-170 38.5v51v13q213 0 213 127q0 58 -46.5 93t-129.5 35q-87 0 -137 -42t-52 -114h-78q0 105 75 163q73 58 192 58
t188.5 -49.5t69.5 -136.5q0 -121 -140 -165z" />
    <glyph glyph-name="four" unicode="4" horiz-adv-x="729" 
d="M531 238h127v-65h-127v-173h-78v173h-387v50l403 476h62v-461zM453 588l-298 -350h298v350z" />
    <glyph glyph-name="five" unicode="5" horiz-adv-x="665" 
d="M343 439q102 0 178 -59q74 -59 74 -167q0 -69 -40 -122.5t-102 -77.5q-60 -23 -124 -23q-109 0 -188 58q-80 57 -80 161h81q2 -73 56 -113q55 -41 131 -41q73 0 127 42q53 42 53 116q0 76 -52 119q-53 42 -128 42q-119 0 -186 -57l-60 18l46 365h428v-66h-359l-35 -234
q72 39 180 39z" />
    <glyph glyph-name="six" unicode="6" horiz-adv-x="687" 
d="M357 438q120 0 191 -62q69 -63 69 -156q0 -94 -72 -162q-73 -68 -196 -68q-134 0 -206 86t-72 251q0 182 77 282.5t215 100.5q104 0 170 -54q66 -55 70 -142h-77q-6 57 -50.5 94t-115.5 37q-95 0 -151.5 -79t-55.5 -221q68 93 204 93zM349 55q86 0 134 49q48 48 48 116
q0 67 -48.5 110.5t-133.5 43.5q-83 0 -134 -42.5t-50 -108.5q0 -68 49 -117q48 -51 135 -51z" />
    <glyph glyph-name="seven" unicode="7" horiz-adv-x="630" 
d="M61 634v66h513v-34q-129 -210 -205 -359q-82 -159 -122 -307h-82q89 291 312 634h-416z" />
    <glyph glyph-name="eight" unicode="8" horiz-adv-x="673" 
d="M85 530q0 76 70 128t181 52v-65q-74 0 -121.5 -35.5t-47.5 -90.5q0 -54 48 -89t121 -35v-59q-80 0 -132 -40q-53 -41 -53 -100q0 -61 53 -100q52 -40 132 -40v-66q-121 0 -195 55q-76 54 -76 141q0 64 42 110t115 70q-137 47 -137 164zM451 366q73 -24 115 -70t42 -110
q0 -87 -75 -141q-76 -55 -196 -55v66q81 0 133 40q52 39 52 100q0 60 -52 100t-133 40v59q73 0 121 35t48 89q0 55 -47.5 90.5t-121.5 35.5v65q111 0 181 -52t70 -128q0 -117 -137 -164z" />
    <glyph glyph-name="nine" unicode="9" horiz-adv-x="687" 
d="M339 710q134 0 206 -86t72 -251q0 -383 -280 -383q-106 0 -177 55t-76 141h77q6 -55 54 -92q48 -39 122 -39q203 0 197 302q-33 -45 -86 -70t-118 -25q-121 0 -190 63q-69 61 -69 155q0 96 72 163q70 67 196 67zM339 326q83 0 133.5 42.5t50.5 108.5q0 67 -49 117
q-50 51 -135 51q-86 0 -134 -48q-49 -49 -49 -117q0 -67 49 -110.5t134 -43.5z" />
    <glyph glyph-name="colon" unicode=":" horiz-adv-x="207" 
d="M140 408q-23 -23 -55.5 -10.5t-32.5 46.5q-2 32 32 47.5t56 -10.5q15 -16 15 -37t-15 -36zM140 5q-23 -23 -55.5 -10.5t-32.5 46.5q-2 32 32 47.5t56 -10.5q15 -16 15 -37t-15 -36z" />
    <glyph glyph-name="semicolon" unicode=";" horiz-adv-x="206" 
d="M138 408q-23 -23 -55.5 -10.5t-32.5 46.5q-2 32 32 47.5t56 -10.5q15 -16 15 -37t-15 -36zM88 -129h-56l34 219h80z" />
    <glyph glyph-name="less" unicode="&#x3c;" horiz-adv-x="693" 
d="M80 364l533 201v-70l-448 -161l448 -162v-70l-533 201v61z" />
    <glyph glyph-name="equal" unicode="=" horiz-adv-x="690" 
d="M610 392h-530v61h530v-61zM610 209h-530v61h530v-61z" />
    <glyph glyph-name="greater" unicode="&#x3e;" horiz-adv-x="693" 
d="M80 495v70l533 -201v-61l-533 -201v70l448 162z" />
    <glyph glyph-name="question" unicode="?" horiz-adv-x="604" 
d="M303 710q105 0 173 -51q67 -52 67 -141q0 -21 -3.5 -39t-12.5 -34.5t-15.5 -27t-22.5 -25t-23 -20.5t-27 -20.5t-25 -18.5q-75 -59 -85 -161h-62q1 42 12 76t34 62t37.5 41.5t43.5 37.5q67 58 67 130q0 58 -42 92t-116 34q-75 0 -118 -33.5t-47 -93.5h-77q3 89 70 141
q67 51 172 51zM264 77q15 16 36 16t36 -15q15 -16 15 -37t-15 -36q-23 -23 -55.5 -10.5t-32.5 46.5q0 20 16 36z" />
    <glyph glyph-name="at" unicode="@" horiz-adv-x="975" 
d="M627 -46l-5 -55q-80 -16 -162 -16q-212 0 -311 109q-93 102 -93 250q0 127 68 225t179.5 149t245.5 50q172 0 272 -83q99 -84 99 -238q3 -114 -56 -199.5t-156 -85.5q-58 0 -85 25t-30 75q-24 -43 -67.5 -71.5t-90.5 -28.5q-78 0 -122.5 43t-44.5 128q0 120 74 197
q74 75 191 75q73 0 142 -22l-25 -286q-7 -85 60 -85q50 0 85 39q36 39 49 88q14 51 14 102q0 134 -80.5 204t-233.5 70q-181 0 -303 -100q-123 -101 -123 -267q0 -63 18 -116.5t57 -98t108.5 -70t164.5 -25.5q74 0 161 18zM447 113q57 0 102 48q45 46 51 128l12 148
q-45 13 -88 13q-90 -1 -142.5 -66t-49.5 -145q0 -126 115 -126z" />
    <glyph glyph-name="A" unicode="A" 
d="M709 0h-87l-90 212h-343l-91 -212h-82l302 700h88zM361 613l-144 -336h287z" />
    <glyph glyph-name="B" unicode="B" horiz-adv-x="729" 
d="M515 367q163 -37 163 -178q0 -89 -72 -139q-74 -50 -184 -50h-322h-10v700h78h224q117 0 183 -45.5t66 -135.5q0 -50 -33.5 -90t-92.5 -62zM377 634h-209v-238h221q83 0 127 30.5t44 85.5q0 122 -183 122zM168 66h238q184 0 184 127q0 71 -50 104t-150 33h-222v-264z" />
    <glyph glyph-name="C" unicode="C" horiz-adv-x="781" 
d="M422 56q78 0 138.5 38t86.5 112h78q-29 -105 -110 -160.5t-193 -55.5q-160 0 -260 105q-101 104 -101 255q0 150 101 256q101 104 260 104q112 0 193 -55.5t110 -160.5h-78q-26 74 -86.5 112t-138.5 38q-122 0 -199 -84q-77 -86 -77 -210t77 -209q76 -85 199 -85z" />
    <glyph glyph-name="D" unicode="D" horiz-adv-x="778" 
d="M173 700h175q163 0 269 -95q105 -95 105 -255t-105 -255q-106 -95 -269 -95h-243h-10v700h78zM173 65h168q131 0 214 77q82 76 82 208q0 133 -82 209t-214 76h-168v-570z" />
    <glyph glyph-name="E" unicode="E" horiz-adv-x="671" 
d="M173 334v-268h438v-66h-506h-10v700h78h428v-66h-428v-235h398v-65h-398z" />
    <glyph glyph-name="F" unicode="F" horiz-adv-x="622" 
d="M577 700v-66h-409v-255h399v-66h-399v-313h-78v700h78h409z" />
    <glyph glyph-name="G" unicode="G" horiz-adv-x="820" 
d="M483 297v57h241v-354h-65l-3 102q-35 -55 -99 -83.5t-144 -28.5q-158 0 -253 104q-94 103 -94 256h-1q0 150 101 256q101 104 261 104q112 0 193 -55.5t110 -160.5h-78q-26 74 -86.5 112t-138.5 38q-123 0 -199 -84q-77 -86 -77 -210q0 -126 73 -209q73 -85 199 -85
q97 0 164 54q67 52 67 159v28h-171z" />
    <glyph glyph-name="H" unicode="H" horiz-adv-x="815" 
d="M646 399v301h78v-700h-78v334h-478v-334h-78v700h78v-301h478z" />
    <glyph glyph-name="I" unicode="I" horiz-adv-x="268" 
d="M95 0v700h78v-700h-78z" />
    <glyph glyph-name="J" unicode="J" horiz-adv-x="466" 
d="M297 157v543h79v-554q0 -69 -50 -112.5t-128 -43.5t-125 44t-47 118h75q0 -45 26 -70.5t71 -25.5q46 0 72.5 26.5t26.5 74.5z" />
    <glyph glyph-name="K" unicode="K" horiz-adv-x="731" 
d="M383 386l347 -386h-99l-306 331l-157 -150v-181h-78v700h78v-416l445 416h98z" />
    <glyph glyph-name="L" unicode="L" horiz-adv-x="621" 
d="M168 700v-634h432v-66h-500h-10v700h78z" />
    <glyph glyph-name="M" unicode="M" horiz-adv-x="932" 
d="M466 185l319 515h62v-700h-79v525l-287 -457h-31l-287 457v-525h-78v700h62z" />
    <glyph glyph-name="N" unicode="N" horiz-adv-x="828" 
d="M660 141v559h78v-700h-60l-510 560v-560h-78v700h60z" />
    <glyph glyph-name="O" unicode="O" horiz-adv-x="835" 
d="M157 606q101 104 260 104q160 0 261 -104q101 -106 101 -256q0 -151 -101 -255q-100 -105 -261 -105q-159 0 -260 105q-101 104 -101 255q0 150 101 256zM417 56q124 0 200 85q77 85 77 209t-77 210q-77 84 -200 84t-199 -84q-77 -86 -77 -210t77 -209q76 -85 199 -85z
" />
    <glyph glyph-name="P" unicode="P" horiz-adv-x="675" 
d="M173 700h199q124 0 195.5 -53t71.5 -156t-71.5 -155.5t-195.5 -52.5h-199v-283h-78v700h78zM173 348h182q102 0 152.5 34.5t50.5 108.5q0 76 -50.5 109.5t-152.5 33.5h-182v-286z" />
    <glyph glyph-name="Q" unicode="Q" horiz-adv-x="835" 
d="M503 -1q34 -106 211 -106v-68q-109 0 -185 43.5t-97 121.5h-15q-159 0 -260 105q-101 104 -101 255q0 150 101 256q101 104 260 104q160 0 261 -104q101 -106 101 -256q0 -128 -75 -226t-201 -125zM218 560q-77 -86 -77 -210t77 -209q76 -85 199 -85q124 0 200 85
q77 85 77 209t-77 210q-77 84 -200 84t-199 -84z" />
    <glyph glyph-name="R" unicode="R" horiz-adv-x="693" 
d="M517 244l165 -244h-90l-150 221q-32 48 -69 65q-35 16 -111 16h-89v-302h-78v700h78h187q126 0 195.5 -49.5t69.5 -148.5q0 -151 -180 -184q39 -23 72 -74zM173 634v-266h169l2 -21l-2 21q104 0 153 31t49 102t-49 102t-153 31h-169z" />
    <glyph glyph-name="S" unicode="S" horiz-adv-x="669" 
d="M164 520q0 -38 24.5 -64.5t64 -40.5t86.5 -25t94.5 -24.5t87 -33t64 -56t24.5 -88.5q0 -93 -74 -146q-74 -52 -196 -52q-120 0 -194 51.5t-84 150.5h77q9 -69 61.5 -102.5t136.5 -33.5q85 0 136 32.5t51 90.5q0 26 -13 47.5t-32 34.5t-52 25.5t-58.5 19.5t-66.5 17
t-63 16q-69 19 -112.5 63.5t-43.5 110.5q0 92 74 145q73 52 184 52q108 0 177.5 -51.5t82.5 -140.5h-78q-13 60 -59.5 93.5t-120.5 33.5q-78 0 -128 -34.5t-50 -90.5z" />
    <glyph glyph-name="T" unicode="T" horiz-adv-x="670" 
d="M374 700h280v-66h-280v-634h-78v634h-280v66h358z" />
    <glyph glyph-name="U" unicode="U" horiz-adv-x="785" 
d="M616 307v393h79v-403q0 -179 -133 -262q-70 -45 -170 -45q-146 0 -224 89t-78 218v403h78v-393q0 -50 12.5 -94t38.5 -79.5t70 -56.5t103 -21q114 0 169 72q55 71 55 179z" />
    <glyph glyph-name="V" unicode="V" horiz-adv-x="683" 
d="M347 92l238 608h82l-278 -700h-88l-285 700h86z" />
    <glyph glyph-name="W" unicode="W" horiz-adv-x="977" 
d="M703 93l176 607h83l-213 -700h-87l-173 536l-173 -536h-87l-213 700h86l172 -607l178 555h73z" />
    <glyph glyph-name="X" unicode="X" horiz-adv-x="701" 
d="M397 360l288 -360h-97l-243 304l-232 -304h-97l285 359l-273 341h97l228 -286l218 286h95z" />
    <glyph glyph-name="Y" unicode="Y" horiz-adv-x="693" 
d="M591 700h87l-290 -406v-294h-78v294l-294 406h90l246 -341z" />
    <glyph glyph-name="Z" unicode="Z" horiz-adv-x="653" 
d="M617 653l-475 -587h485v-66h-601v47l475 587h-455v66h571v-47z" />
    <glyph glyph-name="bracketleft" unicode="[" horiz-adv-x="327" 
d="M297 700v-57h-132v-795h132v-58h-207v910h207z" />
    <glyph glyph-name="backslash" unicode="\" horiz-adv-x="400" 
d="M5 740h75l314 -760h-74z" />
    <glyph glyph-name="bracketright" unicode="]" horiz-adv-x="327" 
d="M162 643h-132v57h207v-910h-207v58h132v795z" />
    <glyph glyph-name="underscore" unicode="_" horiz-adv-x="487" 
d="M487 -89h-487v43h487v-43z" />
    <glyph glyph-name="a" unicode="a" horiz-adv-x="565" 
d="M518 50q5 0 23 2v-58q-20 -4 -38 -4q-46 0 -75.5 25.5t-35.5 63.5q-62 -89 -185 -89q-76 0 -121.5 35.5t-45.5 97.5q0 81 73 126.5t217 45.5q7 0 53 -2v14q0 73 -30 104.5t-101 31.5q-86 0 -166 -39v70q92 31 175 31q96 0 145 -44.5t49 -143.5v-195q0 -72 63 -72zM222 48
q62 0 111 37q50 38 50 98v59q-13 1 -54 1q-213 0 -213 -112q0 -39 29 -61t77 -22z" />
    <glyph glyph-name="b" unicode="b" horiz-adv-x="637" 
d="M338 505q106 0 177 -68t71 -189q0 -122 -71 -190t-177 -68q-61 0 -111 27t-77 71v-88h-75v740h75v-333q27 44 77 71t111 27zM328 51q74 0 126 52q51 52 51 145q0 92 -51 144q-52 52 -126 52q-72 0 -124 -51q-54 -51 -54 -145q0 -95 54 -146q52 -51 124 -51z" />
    <glyph glyph-name="c" unicode="c" horiz-adv-x="578" 
d="M309 51q58 0 99 28.5t58 81.5h71q-19 -81 -79.5 -126t-148.5 -45q-110 0 -187 71q-76 70 -76 187t76 187t187 70q88 0 148.5 -45t79.5 -126h-71q-17 53 -58 81.5t-99 28.5q-79 0 -130 -52q-52 -52 -52 -144q0 -90 50.5 -143.5t131.5 -53.5z" />
    <glyph glyph-name="d" unicode="d" horiz-adv-x="637" 
d="M487 407v333h75v-740h-75v88q-27 -44 -77 -71t-111 -27q-106 0 -177 68t-71 190q0 121 71 189t177 68q61 0 111 -27t77 -71zM309 51q71 0 125 51q53 51 53 146q0 94 -53 145q-54 51 -125 51q-74 0 -125 -52q-52 -52 -52 -144q0 -93 52 -145q51 -52 125 -52z" />
    <glyph glyph-name="e" unicode="e" horiz-adv-x="598" 
d="M313 52v-1q125 0 158 103h71q-19 -78 -79.5 -121t-149.5 -43q-109 0 -186 71q-76 70 -76 187q0 119 76 188q77 69 184 69q111 0 173.5 -61.5t62.5 -187.5h-415v-8h1q0 -90 51 -143t129 -53zM311 448q-66 0 -111.5 -36.5t-60.5 -102.5h324q-3 67 -42.5 103t-109.5 36z" />
    <glyph glyph-name="f" unicode="f" horiz-adv-x="424" 
d="M322 689q-122 0 -122 -148v-46h202v-61h-202v-434h-75v434h-98v61h98v55q0 98 50.5 149t135.5 51q62 0 101 -19v-61q-39 19 -90 19z" />
    <glyph glyph-name="g" unicode="g" horiz-adv-x="602" 
d="M181 77l218 -16q168 -12 168 -126q0 -79 -81 -122q-80 -43 -213 -43q-120 0 -178.5 37.5t-58.5 105.5q0 69 57 125q-34 31 -34 80q0 56 52 99q-53 47 -53 116v1q2 78 63 124q62 47 154 47q97 0 159 -50q50 50 126 50v-68q-50 0 -87 -28q19 -34 19 -75v-1q-2 -78 -62 -124
q-62 -47 -155 -47q-69 0 -124 27q-31 -24 -31 -55q0 -24 15.5 -39.5t45.5 -17.5zM381 417q-40 31 -106 31t-106 -31t-40 -83q0 -53 40 -84t106 -31t106 31t40 84q0 52 -40 83zM278 -176q97 0 157 27.5t60 74.5q0 34 -27 50t-90 21l-239 18q-36 -41 -36 -91q0 -100 175 -100z
" />
    <glyph glyph-name="h" unicode="h" horiz-adv-x="640" 
d="M358 505q97 0 149.5 -52.5t52.5 -156.5v-296h-75v280q0 159 -142 159q-74 2 -130.5 -49t-57.5 -148v-242h-75v740h75v-342q75 107 203 107z" />
    <glyph glyph-name="i" unicode="i" horiz-adv-x="235" 
d="M154 628q-23 -23 -55.5 -10.5t-32.5 46.5q-2 32 32 47.5t56 -10.5q15 -16 15 -37t-15 -36zM155 0h-75v495h75v-495z" />
    <glyph glyph-name="j" unicode="j" horiz-adv-x="235" 
d="M154 628q-23 -23 -55.5 -10.5t-32.5 46.5q-2 32 32 47.5t56 -10.5q15 -16 15 -37t-15 -36zM80 -39v534h75v-548q0 -79 -54 -128t-148 -49v61q127 0 127 130z" />
    <glyph glyph-name="k" unicode="k" horiz-adv-x="596" 
d="M325 287l250 -287h-89l-212 240l-119 -111v-129h-75v740h75v-528l303 283h91z" />
    <glyph glyph-name="l" unicode="l" horiz-adv-x="235" 
d="M155 0h-75v740h75v-740z" />
    <glyph glyph-name="m" unicode="m" horiz-adv-x="1005" 
d="M733 505q91 0 141.5 -53t50.5 -156v-296h-75v279q0 79 -36 119.5t-101 40.5q-69 0 -121 -49t-52 -148v-242h-75v279q0 80 -35.5 120t-100.5 40q-70 0 -122 -49t-52 -148v-242h-75v495h75v-97q75 107 193 107q142 0 180 -122q74 122 205 122z" />
    <glyph glyph-name="n" unicode="n" horiz-adv-x="640" 
d="M358 505q97 0 149.5 -52.5t52.5 -156.5v-296h-75v280q0 159 -142 159q-74 2 -130.5 -49t-57.5 -148v-242h-75v495h75v-97q75 107 203 107z" />
    <glyph glyph-name="o" unicode="o" horiz-adv-x="625" 
d="M313 505q110 0 186 -70t76 -187t-76 -187q-77 -71 -186 -71t-186 71q-76 70 -76 187t76 187t186 70zM184 104q51 -53 129 -53t129 53q51 52 51 144t-51 144t-129 52t-129 -53q-52 -52 -52 -143q0 -92 52 -144z" />
    <glyph glyph-name="p" unicode="p" horiz-adv-x="642" 
d="M343 506q105 0 178 -68q71 -68 71 -190t-71 -190q-73 -68 -178 -68q-61 0 -110.5 26t-77.5 71v-307h-75v715h75v-86q28 45 77.5 71t110.5 26zM333 52q74 0 126 52q51 52 51 144t-51 144q-52 52 -126 52q-71 0 -124 -51q-54 -51 -54 -145t54 -145q53 -51 124 -51z" />
    <glyph glyph-name="q" unicode="q" horiz-adv-x="642" 
d="M487 409v86h75v-715h-75v307q-28 -45 -77.5 -71t-110.5 -26q-106 0 -177 68q-72 68 -72 190t72 190q71 68 177 68q61 0 110.5 -26t77.5 -71zM309 52q71 0 125 51q53 51 53 145t-53 145q-54 51 -125 51q-74 0 -125 -52q-52 -52 -52 -144t52 -144q51 -52 125 -52z" />
    <glyph glyph-name="r" unicode="r" horiz-adv-x="375" 
d="M155 495v-110q67 120 196 120v-70q-67 0 -125 -36q-32 -20 -51.5 -61t-19.5 -94v-244h-75v495h75z" />
    <glyph glyph-name="s" unicode="s" horiz-adv-x="521" 
d="M142 370q0 -20 12 -34.5t37 -24.5t47 -16t59.5 -14.5t56.5 -13.5q52 -14 84 -46t32 -80q0 -74 -61.5 -112.5t-166.5 -38.5q-98 0 -181 34v70q85 -42 181 -42q67 0 108.5 21.5t41.5 59.5q0 19 -12.5 32.5t-37 23t-47.5 16t-59 14.5t-57 14q-52 15 -84 47.5t-32 80.5
q0 69 57.5 106.5t159.5 37.5q88 0 171 -31v-66q-95 39 -173 39q-64 0 -100 -20.5t-36 -56.5z" />
    <glyph glyph-name="t" unicode="t" horiz-adv-x="452" 
d="M401 493v-61h-201v-262q0 -118 107 -118q52 0 94 19v-63q-44 -18 -103 -18q-79 0 -126 42.5t-47 122.5v277h-98v61h98v115l75 32v-147h201z" />
    <glyph glyph-name="u" unicode="u" horiz-adv-x="630" 
d="M475 253v242h75v-495h-75v97q-75 -107 -196 -107q-93 0 -146 53.5t-53 155.5v296h75v-280q0 -159 142 -159q67 0 123 50q55 49 55 147z" />
    <glyph glyph-name="v" unicode="v" horiz-adv-x="551" 
d="M281 94l179 401h82l-230 -495h-65l-238 495h87z" />
    <glyph glyph-name="w" unicode="w" horiz-adv-x="852" 
d="M608 97l151 398h79l-196 -495h-61l-155 379l-156 -379h-64l-192 495h83l147 -398l145 365h71h2z" />
    <glyph glyph-name="x" unicode="x" horiz-adv-x="579" 
d="M463 495h89l-215 -247l215 -248h-93l-176 204l-168 -204h-89l216 251l-211 244h92l173 -200z" />
    <glyph glyph-name="y" unicode="y" horiz-adv-x="551" 
d="M283 94l177 401h82l-229 -495q-51 -109 -107 -165q-65 -65 -175 -65v69q73 0 119.5 40.5t91.5 133.5l-233 482h87z" />
    <glyph glyph-name="z" unicode="z" horiz-adv-x="569" 
d="M41 0v44l349 390h-329v61h443v-44l-350 -390h364v-61h-477z" />
    <glyph glyph-name="braceleft" unicode="{" horiz-adv-x="282" 
d="M252 711v-44q-51 -4 -73 -27t-22 -72q0 -22 12 -85q11 -68 11 -94q0 -111 -93 -139q93 -30 93 -140q0 -27 -11 -93q-12 -63 -12 -85q0 -49 22 -72.5t73 -26.5v-44q-167 0 -167 135q0 27 10 91q10 63 10 95q0 114 -88 118v43q88 4 88 118q0 33 -10 97q-10 63 -10 90
q0 135 167 135z" />
    <glyph glyph-name="bar" unicode="|" horiz-adv-x="239" 
d="M90 -150v980h59v-980h-59z" />
    <glyph glyph-name="braceright" unicode="}" horiz-adv-x="282" 
d="M177 389q0 -114 88 -118v-43q-88 -4 -88 -118q0 -32 10 -95q10 -64 10 -91q0 -135 -167 -135v44q51 3 73 26.5t22 72.5q0 19 -11 85q-12 63 -12 93q0 110 93 140q-93 28 -93 139q0 29 12 94q11 66 11 85q0 49 -22 72t-73 27v44q167 0 167 -135q0 -27 -10 -90
q-10 -64 -10 -97z" />
    <glyph glyph-name="asciitilde" unicode="~" horiz-adv-x="691" 
d="M570 401l41 -18q-15 -51 -54.5 -80.5t-85.5 -29.5q-62 0 -134 34q-73 33 -117 33q-32 0 -59.5 -19.5t-39.5 -47.5l-41 18q15 50 54.5 80t85.5 30q62 0 135 -33q72 -34 116 -34q32 0 59.5 19.5t39.5 47.5z" />
    <glyph glyph-name="exclamdown" unicode="&#xa1;" horiz-adv-x="207" 
d="M68 490q15 15 36 15t36 -15t15 -36t-15 -36q-22 -26 -56 -11t-32 47q0 21 16 36zM144 -205h-79l9 528h62z" />
    <glyph glyph-name="cent" unicode="&#xa2;" horiz-adv-x="578" 
d="M295 51h13q61 0 103 28.5t53 80.5h73q-12 -79 -75 -124.5t-154 -45.5q-14 0 -18 1l-11 -129h-37l12 133q-90 16 -149 84t-59 169q0 114 73 184q71 68 179 73l12 139h37l-12 -140q81 -7 135.5 -51.5t66.5 -117.5h-73q-10 47 -45.5 75t-88.5 33zM125 248q0 -77 36 -126.5
t98 -64.5l34 386q-76 -5 -122 -57t-46 -138z" />
    <glyph glyph-name="sterling" unicode="&#xa3;" horiz-adv-x="687" 
d="M170 65q51 18 145 10q52 -4 163 -16q68 -9 149 17v-73q-60 -18 -136 -15q-77 3 -135 15t-127 15q-69 2 -114 -18l-18 34q68 98 73 162q3 33 1 59q-4 29 -13 67h-98v60h85q-11 69 -11 129q0 93 71 146t175 53q103 0 169.5 -53t77.5 -146h-78q-23 134 -169 134
q-74 0 -119.5 -36t-45.5 -97q0 -57 15 -130h233v-60h-221q6 -42 6.5 -79.5t-18.5 -83.5t-60 -94z" />
    <glyph glyph-name="currency" unicode="&#xa4;" horiz-adv-x="784" 
d="M734 494l-103 -84q74 -74 74 -170t-74 -170l103 -84l-52 -52l-86 106q-89 -65 -204 -65t-204 65l-86 -106l-52 52l103 84q-74 74 -74 170t74 170l-103 84l52 52l86 -106q89 65 204 65t204 -65l86 106zM223 94q71 -53 169 -53t169 53q70 52 70 146t-70 146q-71 53 -169 53
t-169 -53q-70 -52 -70 -146t70 -146z" />
    <glyph glyph-name="yen" unicode="&#xa5;" horiz-adv-x="693" 
d="M591 700h87l-250 -350h191v-60h-231v-76h231v-60h-231v-154h-78v154h-221v60h221v76h-221v60h180l-253 350h90l246 -341z" />
    <glyph glyph-name="brokenbar" unicode="&#xa6;" horiz-adv-x="239" 
d="M90 515v315h59v-315h-59zM90 -150v315h59v-315h-59z" />
    <glyph glyph-name="section" unicode="&#xa7;" horiz-adv-x="620" 
d="M511 59q48 -43 48 -107q0 -90 -66 -140.5t-180 -50.5q-228 0 -252 192h77q12 -65 52.5 -96t122.5 -31q81 0 123 33t42 93q0 42 -38.5 71.5t-92.5 46t-112.5 41.5t-98 57t-49.5 93.5t34 150.5q-49 42 -49 107q0 89 65.5 140t177.5 51q220 0 243 -192h-78q-12 65 -50 96
t-115 31q-79 0 -120.5 -33t-41.5 -93q0 -26 13.5 -46.5t42.5 -36.5t54 -26.5t69 -25.5t68 -25q90 -32 131 -98q44 -70 -20 -202zM173 378q-46 -134 64 -193q48 -26 109 -46q71 -24 113 -46q19 50 13 88.5t-24.5 62.5t-52.5 43q-33 18 -111 46t-111 45z" />
    <glyph glyph-name="copyright" unicode="&#xa9;" horiz-adv-x="831" 
d="M162 605q105 105 254 105q148 0 255 -105q105 -107 105 -255q0 -149 -105 -254q-106 -106 -255 -106t-254 106q-106 105 -106 254t106 255zM189 122q95 -95 227 -95t227 95q94 94 94 228q0 135 -94 229t-227 94t-227 -94t-94 -229q0 -134 94 -228zM419 515
q-57 0 -93.5 -45.5t-36.5 -119.5t36.5 -119t93.5 -45q84 0 106 77h47q-11 -56 -51.5 -86t-101.5 -30q-81 0 -130.5 55.5t-49.5 147.5t50 148t130 56q61 0 101.5 -30t51.5 -86h-47q-22 77 -106 77z" />
    <glyph glyph-name="guillemotleft" unicode="&#xab;" horiz-adv-x="603" 
d="M100 239v61l200 142v-86l-123 -86l123 -81v-87zM303 300l200 142v-86l-123 -86l123 -81v-87l-200 137v61z" />
    <glyph glyph-name="logicalnot" unicode="&#xac;" horiz-adv-x="690" 
d="M80 453h530v-244h-66v183h-464v61z" />
    <glyph glyph-name="registered" unicode="&#xae;" horiz-adv-x="831" 
d="M671 96q-106 -106 -255 -106t-254 106q-106 105 -106 254t106 255q105 105 254 105q148 0 255 -105q105 -107 105 -255q0 -149 -105 -254zM416 27q132 0 227 95q94 94 94 228q0 135 -94 229t-227 94q-134 0 -228 -94t-94 -229q0 -134 94 -228q95 -95 228 -95zM332 153
h-47v395h138q62 0 100.5 -29t38.5 -83q0 -84 -97 -103q40 -27 82 -96q7 -11 49 -84h-54q-61 106 -91 138q-31 33 -78 33h-41v-171zM332 509v-146h81q100 0 100 73t-100 73h-81z" />
    <glyph glyph-name="degree" unicode="&#xb0;" horiz-adv-x="341" 
d="M256 505q-35 -35 -85 -35t-85 35t-35 85t35 85t85 35t85 -35t35 -85t-35 -85zM171 526q26 0 44.5 18.5t18.5 45.5q0 26 -18.5 45t-44.5 19q-27 0 -45.5 -19t-18.5 -45q0 -27 18.5 -45.5t45.5 -18.5z" />
    <glyph glyph-name="plusminus" unicode="&#xb1;" horiz-adv-x="690" 
d="M370 646v-240h240v-61h-240v-229h-61v229h-229v61h229v240h61zM610 0h-530v61h530v-61z" />
    <glyph glyph-name="paragraph" unicode="&#xb6;" horiz-adv-x="745" 
d="M368 712h287v-862h-79v797h-208v-797h-78v447q-98 0 -168 61q-71 62 -71 147q0 84 71 146q70 61 168 61h78z" />
    <glyph glyph-name="middot" unicode="&#xb7;" horiz-adv-x="207" 
d="M140 232q-23 -23 -55.5 -10.5t-32.5 46.5q-2 32 32 47.5t56 -10.5q15 -16 15 -37t-15 -36z" />
    <glyph glyph-name="guillemotright" unicode="&#xbb;" horiz-adv-x="603" 
d="M223 270l-123 86v86l200 -142v-61l-200 -137v87zM303 356v86l200 -142v-61l-200 -137v87l123 81z" />
    <glyph glyph-name="onequarter" unicode="&#xbc;" horiz-adv-x="1069" 
d="M254 -13l503 751l38 -25l-504 -751zM254 701v-435h-49v343q-50 -41 -124 -42v41q112 11 137 93h36zM910 148h79v-41h-79v-107h-49v107h-240v31l250 296h39v-286zM861 365l-185 -217h185v217z" />
    <glyph glyph-name="onehalf" unicode="&#xbd;" horiz-adv-x="1070" 
d="M254 -13l503 751l38 -25l-504 -751zM254 266h-49v343q-50 -41 -124 -42v41q112 11 137 93h36v-435zM990 0h-333q0 20 6.5 39.5t13.5 33.5t27 31.5t28.5 25.5t36.5 24.5t34 20t36 19.5q99 54 99 119q0 39 -28.5 63.5t-80.5 24.5q-53 0 -85 -27t-33 -70h-48q0 63 46 100
t120 37q72 0 115.5 -35t43.5 -92q0 -25 -11 -48t-25.5 -39t-41 -34.5t-43.5 -27.5t-48 -25q-95 -51 -100 -99h271v-41z" />
    <glyph glyph-name="threequarters" unicode="&#xbe;" horiz-adv-x="1147" 
d="M339 -13l503 751l38 -25l-504 -751zM430 373q0 -56 -48 -88t-125 -32q-80 0 -128.5 39.5t-48.5 109.5h51q1 -51 35 -80t91 -29q54 0 87 22t33 58q0 40 -37.5 64t-105.5 24v32v8q133 0 133 79q0 36 -29 58t-81 22q-54 0 -85 -26t-32 -71h-48q0 63 45.5 100t119.5 37
t117.5 -31t43.5 -85q0 -77 -88 -102q100 -27 100 -109zM989 148h79v-41h-79v-107h-49v107h-240v31l250 296h39v-286zM940 365l-185 -217h185v217z" />
    <glyph glyph-name="questiondown" unicode="&#xbf;" horiz-adv-x="514" 
d="M296 418q-16 -16 -37 -16t-36 16q-15 15 -15 36t15 36q23 23 55.5 10.5t32.5 -46.5q0 -20 -15 -36zM421 -23h77q-3 -89 -70 -141q-67 -51 -172 -51q-106 0 -173 51q-67 52 -67 141q0 21 3.5 39t12.5 34.5t15.5 27t22.5 25t23 20.5t27.5 21t25.5 19q74 58 84 160h62
q-1 -42 -12 -76t-34 -62t-37.5 -41.5t-43.5 -37.5q-67 -58 -67 -130q0 -58 42 -92t116 -34q75 0 118 33.5t47 93.5z" />
    <glyph glyph-name="Agrave" unicode="&#xc0;" 
d="M307 900l129 -131h-64l-161 131h96zM709 0h-87l-90 212h-343l-91 -212h-82l302 700h88zM361 613l-144 -336h287z" />
    <glyph glyph-name="Aacute" unicode="&#xc1;" 
d="M470 900h96l-161 -131h-64zM709 0h-87l-90 212h-343l-91 -212h-82l302 700h88zM361 613l-144 -336h287z" />
    <glyph glyph-name="Acircumflex" unicode="&#xc2;" 
d="M443 769l-76 96l-76 -96h-87l135 131h56l134 -131h-86zM709 0h-87l-90 212h-343l-91 -212h-82l302 700h88zM361 613l-144 -336h287z" />
    <glyph glyph-name="Atilde" unicode="&#xc3;" 
d="M294 838q-52 0 -65 -70h-48q7 64 36.5 96t76.5 32q35 0 60.5 -17.5t45.5 -35t41 -17.5q26 0 41.5 17t23.5 53h48q-7 -63 -37 -95.5t-76 -32.5q-35 0 -60.5 17.5t-45.5 35t-41 17.5zM709 0h-87l-90 212h-343l-91 -212h-82l302 700h88zM361 613l-144 -336h287z" />
    <glyph glyph-name="Adieresis" unicode="&#xc4;" 
d="M298 793q-23 -23 -53.5 -10.5t-30.5 44.5q0 19 15 34t34 15q32 0 45 -30t-10 -53zM506 793q-23 -23 -53.5 -10.5t-30.5 44.5q0 19 15 34t34 15q32 0 45 -30t-10 -53zM709 0h-87l-90 212h-343l-91 -212h-82l302 700h88zM361 613l-144 -336h287z" />
    <glyph glyph-name="Aring" unicode="&#xc5;" 
d="M709 0h-87l-90 212h-343l-91 -212h-82l292 677q-56 32 -56 95q0 45 32 76.5t77 31.5t77 -31.5t32 -76.5q0 -62 -54 -94zM403 815q-17 18 -42 18t-42 -18t-17 -43t17 -43t42 -18t42 18t17 43t-17 43zM361 613l-144 -336h287z" />
    <glyph glyph-name="AE" unicode="&#xc6;" horiz-adv-x="1051" 
d="M552 334v-268h438v-66h-506h-10v212h-283l-93 -212h-82l307 700h161h68h428v-66h-428v-235h398v-65h-398zM376 634l-157 -357h255v357h-98z" />
    <glyph glyph-name="Ccedilla" unicode="&#xc7;" horiz-adv-x="781" 
d="M422 56q78 0 138.5 38t86.5 112h78q-29 -105 -110 -160.5t-193 -55.5h-2l-16 -52q61 10 99.5 -10.5t38.5 -64.5q0 -43 -34.5 -68t-87.5 -25q-44 0 -81 18v43q35 -19 73 -19q72 0 72 48q0 36 -46 42q-46 7 -96 -11l32 102q-142 17 -227 118q-86 101 -86 239q0 150 101 256
q101 104 260 104q112 0 193 -55.5t110 -160.5h-78q-26 74 -86.5 112t-138.5 38q-122 0 -199 -84q-77 -86 -77 -210t77 -209q76 -85 199 -85z" />
    <glyph glyph-name="Egrave" unicode="&#xc8;" horiz-adv-x="671" 
d="M296 900l129 -131h-64l-161 131h96zM173 334v-268h438v-66h-506h-10v700h78h428v-66h-428v-235h398v-65h-398z" />
    <glyph glyph-name="Eacute" unicode="&#xc9;" horiz-adv-x="671" 
d="M459 900h96l-161 -131h-64zM173 334v-268h438v-66h-506h-10v700h78h428v-66h-428v-235h398v-65h-398z" />
    <glyph glyph-name="Ecircumflex" unicode="&#xca;" horiz-adv-x="671" 
d="M432 769l-76 96l-76 -96h-87l135 131h56l134 -131h-86zM173 334v-268h438v-66h-506h-10v700h78h428v-66h-428v-235h398v-65h-398z" />
    <glyph glyph-name="Edieresis" unicode="&#xcb;" horiz-adv-x="671" 
d="M287 793q-23 -23 -53.5 -10.5t-30.5 44.5t30.5 44.5t53.5 -9.5q14 -15 14 -35t-14 -34zM495 793q-23 -23 -53.5 -10.5t-30.5 44.5t30.5 44.5t53.5 -9.5q14 -15 14 -35t-14 -34zM173 334v-268h438v-66h-506h-10v700h78h428v-66h-428v-235h398v-65h-398z" />
    <glyph glyph-name="Igrave" unicode="&#xcc;" horiz-adv-x="268" 
d="M75 900l129 -131h-64l-161 131h96zM95 0v700h78v-700h-78z" />
    <glyph glyph-name="Iacute" unicode="&#xcd;" horiz-adv-x="268" 
d="M173 769h-64l129 131h96zM95 0v700h78v-700h-78z" />
    <glyph glyph-name="Icircumflex" unicode="&#xce;" horiz-adv-x="268" 
d="M107 900h56l134 -131h-86l-76 96l-76 -96h-87zM173 0h-78v700h78v-700z" />
    <glyph glyph-name="Idieresis" unicode="&#xcf;" horiz-adv-x="268" 
d="M66 793q-23 -23 -53.5 -10.5t-30.5 44.5q0 19 15 34t34 15q32 0 45 -30t-10 -53zM274 793q-23 -23 -53.5 -10.5t-30.5 44.5q0 19 15 34t34 15q32 0 45 -30t-10 -53zM95 0v700h78v-700h-78z" />
    <glyph glyph-name="Eth" unicode="&#xd0;" horiz-adv-x="778" 
d="M173 700h175q163 0 269 -95q105 -95 105 -255t-105 -255q-106 -95 -269 -95h-243h-10v324h-101v56h101v320h78zM173 65h168q131 0 214 77q82 76 82 208q0 133 -82 209t-214 76h-168v-255h156v-56h-156v-259z" />
    <glyph glyph-name="Ntilde" unicode="&#xd1;" horiz-adv-x="828" 
d="M338 838q-52 0 -65 -70h-48q7 64 36.5 96t76.5 32q35 0 60.5 -17.5t45.5 -35t41 -17.5q26 0 41.5 17t23.5 53h48q-7 -63 -37 -95.5t-76 -32.5q-35 0 -60.5 17.5t-45.5 35t-41 17.5zM660 141v559h78v-700h-60l-510 560v-560h-78v700h60z" />
    <glyph glyph-name="Ograve" unicode="&#xd2;" horiz-adv-x="835" 
d="M357 900l129 -131h-64l-161 131h96zM157 606q101 104 260 104q160 0 261 -104q101 -106 101 -256q0 -151 -101 -255q-100 -105 -261 -105q-159 0 -260 105q-101 104 -101 255q0 150 101 256zM417 56q124 0 200 85q77 85 77 209t-77 210q-77 84 -200 84t-199 -84
q-77 -86 -77 -210t77 -209q76 -85 199 -85z" />
    <glyph glyph-name="Oacute" unicode="&#xd3;" horiz-adv-x="835" 
d="M455 769h-64l129 131h96zM157 606q101 104 260 104q160 0 261 -104q101 -106 101 -256q0 -151 -101 -255q-100 -105 -261 -105q-159 0 -260 105q-101 104 -101 255q0 150 101 256zM417 56q124 0 200 85q77 85 77 209t-77 210q-77 84 -200 84t-199 -84q-77 -86 -77 -210
t77 -209q76 -85 199 -85z" />
    <glyph glyph-name="Ocircumflex" unicode="&#xd4;" horiz-adv-x="835" 
d="M493 769l-76 96l-76 -96h-87l135 131h56l134 -131h-86zM157 606q101 104 260 104q160 0 261 -104q101 -106 101 -256q0 -151 -101 -255q-100 -105 -261 -105q-159 0 -260 105q-101 104 -101 255q0 150 101 256zM417 56q124 0 200 85q77 85 77 209t-77 210q-77 84 -200 84
t-199 -84q-77 -86 -77 -210t77 -209q76 -85 199 -85z" />
    <glyph glyph-name="Otilde" unicode="&#xd5;" horiz-adv-x="835" 
d="M344 838q-52 0 -65 -70h-48q7 64 36.5 96t76.5 32q35 0 60.5 -17.5t45.5 -35t41 -17.5q26 0 41.5 17t23.5 53h48q-7 -63 -37 -95.5t-76 -32.5q-35 0 -60.5 17.5t-45.5 35t-41 17.5zM157 606q101 104 260 104q160 0 261 -104q101 -106 101 -256q0 -151 -101 -255
q-100 -105 -261 -105q-159 0 -260 105q-101 104 -101 255q0 150 101 256zM417 56q124 0 200 85q77 85 77 209t-77 210q-77 84 -200 84t-199 -84q-77 -86 -77 -210t77 -209q76 -85 199 -85z" />
    <glyph glyph-name="Odieresis" unicode="&#xd6;" horiz-adv-x="835" 
d="M348 793q-23 -23 -53.5 -10.5t-30.5 44.5q0 19 15 34t34 15q32 0 45 -30t-10 -53zM556 793q-23 -23 -53.5 -10.5t-30.5 44.5q0 19 15 34t34 15q32 0 45 -30t-10 -53zM157 606q101 104 260 104q160 0 261 -104q101 -106 101 -256q0 -151 -101 -255q-100 -105 -261 -105
q-159 0 -260 105q-101 104 -101 255q0 150 101 256zM417 56q124 0 200 85q77 85 77 209t-77 210q-77 84 -200 84t-199 -84q-77 -86 -77 -210t77 -209q76 -85 199 -85z" />
    <glyph glyph-name="multiply" unicode="&#xd7;" horiz-adv-x="579" 
d="M456 542l43 -43l-167 -166l165 -166l-43 -43l-165 166l-166 -165l-43 43l166 165l-166 167l43 43l166 -167z" />
    <glyph glyph-name="Oslash" unicode="&#xd8;" horiz-adv-x="835" 
d="M684 690l-39 -54q64 -49 99.5 -124t35.5 -162q0 -152 -100 -255q-100 -105 -262 -105q-113 0 -200 54l-37 -51l-39 27l38 52q-59 50 -91.5 122.5t-32.5 155.5q0 152 100 256q101 104 262 104q105 0 187 -47l39 53zM137 350q0 -133 86 -217l341 472q-64 39 -146 39
q-127 0 -203 -85q-78 -85 -78 -209zM418 56q125 0 203 86q77 86 77 208q0 140 -96 227l-342 -474q68 -47 158 -47z" />
    <glyph glyph-name="Ugrave" unicode="&#xd9;" horiz-adv-x="785" 
d="M332 900l129 -131h-64l-161 131h96zM616 307v393h79v-403q0 -179 -133 -262q-70 -45 -170 -45q-146 0 -224 89t-78 218v403h78v-393q0 -50 12.5 -94t38.5 -79.5t70 -56.5t103 -21q114 0 169 72q55 71 55 179z" />
    <glyph glyph-name="Uacute" unicode="&#xda;" horiz-adv-x="785" 
d="M495 900h96l-161 -131h-64zM616 307v393h79v-403q0 -179 -133 -262q-70 -45 -170 -45q-146 0 -224 89t-78 218v403h78v-393q0 -50 12.5 -94t38.5 -79.5t70 -56.5t103 -21q114 0 169 72q55 71 55 179z" />
    <glyph glyph-name="Ucircumflex" unicode="&#xdb;" horiz-adv-x="785" 
d="M468 769l-76 96l-76 -96h-87l135 131h56l134 -131h-86zM616 307v393h79v-403q0 -179 -133 -262q-70 -45 -170 -45q-146 0 -224 89t-78 218v403h78v-393q0 -50 12.5 -94t38.5 -79.5t70 -56.5t103 -21q114 0 169 72q55 71 55 179z" />
    <glyph glyph-name="Udieresis" unicode="&#xdc;" horiz-adv-x="785" 
d="M323 793q-23 -23 -53.5 -10.5t-30.5 44.5t30.5 44.5t53.5 -9.5q14 -15 14 -35t-14 -34zM531 793q-23 -23 -53.5 -10.5t-30.5 44.5t30.5 44.5t53.5 -9.5q14 -15 14 -35t-14 -34zM616 307v393h79v-403q0 -179 -133 -262q-70 -45 -170 -45q-146 0 -224 89t-78 218v403h78
v-393q0 -50 12.5 -94t38.5 -79.5t70 -56.5t103 -21q114 0 169 72q55 71 55 179z" />
    <glyph glyph-name="Yacute" unicode="&#xdd;" horiz-adv-x="693" 
d="M450 900h96l-161 -131h-64zM591 700h87l-290 -406v-294h-78v294l-294 406h90l246 -341z" />
    <glyph glyph-name="Thorn" unicode="&#xde;" horiz-adv-x="697" 
d="M168 585h196q120 0 200 -56q78 -57 78 -169q0 -114 -78 -169q-80 -57 -200 -57h-196v-134h-78v200v385v115h78v-115zM168 200h178q214 0 214 160t-214 160h-178v-320z" />
    <glyph glyph-name="germandbls" unicode="&#xdf;" horiz-adv-x="693" 
d="M455 384q0 -28 19.5 -48.5t47 -35t55 -32t47 -49.5t19.5 -76q0 -75 -55.5 -114t-148.5 -39q-77 0 -122 19v64q40 -22 121 -22q57 0 93.5 22.5t36.5 63.5q0 18 -6.5 33t-22 28.5t-26 21t-35 21.5t-31.5 19q-67 42 -67 118q0 60 43 101q44 42 44 91q0 60 -34 89.5t-94 29.5
q-64 0 -101.5 -33t-37.5 -103v-553h-75v434h-98v61h98v68q0 94 62 141q61 46 152 46t147 -44.5t56 -126.5q0 -67 -43 -110q-44 -44 -44 -85z" />
    <glyph glyph-name="agrave" unicode="&#xe0;" horiz-adv-x="565" 
d="M223 735l107 -161h-56l-140 161h89zM518 50q5 0 23 2v-58q-20 -4 -38 -4q-46 0 -75.5 25.5t-35.5 63.5q-62 -89 -185 -89q-76 0 -121.5 35.5t-45.5 97.5q0 81 73 126.5t217 45.5q7 0 53 -2v14q0 73 -30 104.5t-101 31.5q-86 0 -166 -39v70q92 31 175 31q96 0 145 -44.5
t49 -143.5v-195q0 -72 63 -72zM222 48q62 0 111 37q50 38 50 98v59q-13 1 -54 1q-213 0 -213 -112q0 -39 29 -61t77 -22z" />
    <glyph glyph-name="aacute" unicode="&#xe1;" horiz-adv-x="565" 
d="M362 735h89l-140 -161h-56zM518 50q5 0 23 2v-58q-20 -4 -38 -4q-46 0 -75.5 25.5t-35.5 63.5q-62 -89 -185 -89q-76 0 -121.5 35.5t-45.5 97.5q0 81 73 126.5t217 45.5q7 0 53 -2v14q0 73 -30 104.5t-101 31.5q-86 0 -166 -39v70q92 31 175 31q96 0 145 -44.5t49 -143.5
v-195q0 -72 63 -72zM222 48q62 0 111 37q50 38 50 98v59q-13 1 -54 1q-213 0 -213 -112q0 -39 29 -61t77 -22z" />
    <glyph glyph-name="acircumflex" unicode="&#xe2;" horiz-adv-x="565" 
d="M364 574l-83 120l-83 -120h-80l134 161h57l134 -161h-79zM518 50q5 0 23 2v-58q-20 -4 -38 -4q-46 0 -75.5 25.5t-35.5 63.5q-62 -89 -185 -89q-76 0 -121.5 35.5t-45.5 97.5q0 81 73 126.5t217 45.5q7 0 53 -2v14q0 73 -30 104.5t-101 31.5q-86 0 -166 -39v70
q92 31 175 31q96 0 145 -44.5t49 -143.5v-195q0 -72 63 -72zM222 48q62 0 111 37q50 38 50 98v59q-13 1 -54 1q-213 0 -213 -112q0 -39 29 -61t77 -22z" />
    <glyph glyph-name="atilde" unicode="&#xe3;" horiz-adv-x="565" 
d="M208 663q-52 0 -65 -70h-48q7 64 36.5 96t76.5 32q35 0 60.5 -17.5t45.5 -35t41 -17.5q26 0 41.5 17t23.5 53h48q-7 -63 -37 -95.5t-76 -32.5q-35 0 -60.5 17.5t-45.5 35t-41 17.5zM518 50q5 0 23 2v-58q-20 -4 -38 -4q-46 0 -75.5 25.5t-35.5 63.5q-62 -89 -185 -89
q-76 0 -121.5 35.5t-45.5 97.5q0 81 73 126.5t217 45.5q7 0 53 -2v14q0 73 -30 104.5t-101 31.5q-86 0 -166 -39v70q92 31 175 31q96 0 145 -44.5t49 -143.5v-195q0 -72 63 -72zM222 48q62 0 111 37q50 38 50 98v59q-13 1 -54 1q-213 0 -213 -112q0 -39 29 -61t77 -22z" />
    <glyph glyph-name="adieresis" unicode="&#xe4;" horiz-adv-x="565" 
d="M212 632q-23 -23 -53.5 -10.5t-30.5 44.5q0 20 15 34.5t34 14.5q32 0 45 -30.5t-10 -52.5zM420 632q-23 -23 -53.5 -10.5t-30.5 44.5q0 20 15 34.5t34 14.5q32 0 45 -30.5t-10 -52.5zM518 50q5 0 23 2v-58q-20 -4 -38 -4q-46 0 -75.5 25.5t-35.5 63.5q-62 -89 -185 -89
q-76 0 -121.5 35.5t-45.5 97.5q0 81 73 126.5t217 45.5q7 0 53 -2v14q0 73 -30 104.5t-101 31.5q-86 0 -166 -39v70q92 31 175 31q96 0 145 -44.5t49 -143.5v-195q0 -72 63 -72zM222 48q62 0 111 37q50 38 50 98v59q-13 1 -54 1q-213 0 -213 -112q0 -39 29 -61t77 -22z" />
    <glyph glyph-name="aring" unicode="&#xe5;" horiz-adv-x="565" 
d="M358 587q-32 -32 -77 -32t-77 32t-32 77.5t32 76.5t77 31t77 -31t32 -76.5t-32 -77.5zM323 707q-17 18 -42 18t-42 -18t-17 -43t17 -43t42 -18t42 18t17 43t-17 43zM518 50q5 0 23 2v-58q-20 -4 -38 -4q-46 0 -75.5 25.5t-35.5 63.5q-62 -89 -185 -89q-76 0 -121.5 35.5
t-45.5 97.5q0 81 73 126.5t217 45.5q7 0 53 -2v14q0 73 -30 104.5t-101 31.5q-86 0 -166 -39v70q92 31 175 31q96 0 145 -44.5t49 -143.5v-195q0 -72 63 -72zM222 48q62 0 111 37q50 38 50 98v59q-13 1 -54 1q-213 0 -213 -112q0 -39 29 -61t77 -22z" />
    <glyph glyph-name="ae" unicode="&#xe6;" horiz-adv-x="931" 
d="M646 52v-1q125 0 158 103h71q-19 -78 -79.5 -121t-149.5 -43q-74 0 -135 33.5t-94 92.5q-27 -58 -80 -92t-126 -34q-78 0 -124.5 35.5t-46.5 97.5q0 87 86.5 134.5t256.5 40.5v9q0 71 -31.5 103.5t-101.5 32.5q-65 0 -164 -39v70q92 31 173 31q139 0 179 -93
q75 93 206 93q111 0 173.5 -61.5t62.5 -187.5h-415v-8h1q0 -90 51 -143t129 -53zM644 448q-66 0 -111.5 -36.5t-60.5 -102.5h324q-3 67 -42.5 103t-109.5 36zM223 48q64 0 112 39t48 100v59q-151 6 -212 -31q-54 -34 -54 -84q0 -39 29 -61t77 -22z" />
    <glyph glyph-name="ccedilla" unicode="&#xe7;" horiz-adv-x="578" 
d="M309 51q58 0 99 28.5t58 81.5h71q-18 -78 -74.5 -122.5t-139.5 -48.5l-16 -52q61 10 99.5 -10.5t38.5 -64.5q0 -43 -34.5 -68t-87.5 -25q-43 0 -81 18v43q35 -19 73 -19q72 0 72 48q0 36 -46 42q-46 7 -96 -11l32 101q-101 11 -165 79q-66 69 -66 177q0 117 76 187
t187 70q88 0 148.5 -45t79.5 -126h-71q-17 53 -58 81.5t-99 28.5q-79 0 -130 -52q-52 -52 -52 -144q0 -90 50.5 -143.5t131.5 -53.5z" />
    <glyph glyph-name="egrave" unicode="&#xe8;" horiz-adv-x="598" 
d="M241 735l107 -161h-56l-140 161h89zM313 52v-1q125 0 158 103h71q-19 -78 -79.5 -121t-149.5 -43q-109 0 -186 71q-76 70 -76 187q0 119 76 188q77 69 184 69q111 0 173.5 -61.5t62.5 -187.5h-415v-8h1q0 -90 51 -143t129 -53zM311 448q-66 0 -111.5 -36.5t-60.5 -102.5
h324q-3 67 -42.5 103t-109.5 36z" />
    <glyph glyph-name="eacute" unicode="&#xe9;" horiz-adv-x="598" 
d="M380 735h89l-140 -161h-56zM313 52v-1q125 0 158 103h71q-19 -78 -79.5 -121t-149.5 -43q-109 0 -186 71q-76 70 -76 187q0 119 76 188q77 69 184 69q111 0 173.5 -61.5t62.5 -187.5h-415v-8h1q0 -90 51 -143t129 -53zM311 448q-66 0 -111.5 -36.5t-60.5 -102.5h324
q-3 67 -42.5 103t-109.5 36z" />
    <glyph glyph-name="ecircumflex" unicode="&#xea;" horiz-adv-x="598" 
d="M382 574l-83 120l-83 -120h-80l134 161h57l134 -161h-79zM313 52v-1q125 0 158 103h71q-19 -78 -79.5 -121t-149.5 -43q-109 0 -186 71q-76 70 -76 187q0 119 76 188q77 69 184 69q111 0 173.5 -61.5t62.5 -187.5h-415v-8h1q0 -90 51 -143t129 -53zM311 448
q-66 0 -111.5 -36.5t-60.5 -102.5h324q-3 67 -42.5 103t-109.5 36z" />
    <glyph glyph-name="edieresis" unicode="&#xeb;" horiz-adv-x="598" 
d="M230 632q-23 -23 -53.5 -10.5t-30.5 44.5q0 20 15 34.5t34 14.5q32 0 45 -30.5t-10 -52.5zM438 632q-23 -23 -53.5 -10.5t-30.5 44.5q0 20 15 34.5t34 14.5q32 0 45 -30.5t-10 -52.5zM313 52v-1q125 0 158 103h71q-19 -78 -79.5 -121t-149.5 -43q-109 0 -186 71
q-76 70 -76 187q0 119 76 188q77 69 184 69q111 0 173.5 -61.5t62.5 -187.5h-415v-8h1q0 -90 51 -143t129 -53zM311 448q-66 0 -111.5 -36.5t-60.5 -102.5h324q-3 67 -42.5 103t-109.5 36z" />
    <glyph glyph-name="igrave" unicode="&#xec;" horiz-adv-x="235" 
d="M60 735l107 -161h-56l-140 161h89zM155 0h-75v495h75v-495z" />
    <glyph glyph-name="iacute" unicode="&#xed;" horiz-adv-x="235" 
d="M148 574h-56l107 161h89zM155 0h-75v495h75v-495z" />
    <glyph glyph-name="icircumflex" unicode="&#xee;" horiz-adv-x="235" 
d="M89 735h57l134 -161h-79l-83 120l-83 -120h-80zM155 0h-75v495h75v-495z" />
    <glyph glyph-name="idieresis" unicode="&#xef;" horiz-adv-x="235" 
d="M49 632q-15 -15 -35 -15t-35 15q-14 14 -14 34t14 35q15 14 35 14t35 -14q14 -15 14 -35t-14 -34zM257 632q-15 -15 -35 -15t-34 15q-15 14 -15 34t15 35q14 14 34 14t35 -14q14 -15 14 -35t-14 -34zM155 0h-75v495h75v-495z" />
    <glyph glyph-name="eth" unicode="&#xf0;" horiz-adv-x="613" 
d="M472 739l-97 -68q109 -91 148 -196t39 -225q0 -118 -70 -188t-179 -70t-186 71q-76 70 -76 187h-1q0 122 72 190q71 68 177 68q100 0 164 -67q-34 108 -140 194l-107 -75l-25 38l94 66q-42 29 -90 55l46 42q42 -21 97 -60l109 76zM313 54q78 0 125.5 52t48.5 144
q0 94 -53 145q-54 51 -125 51q-74 0 -125 -52q-52 -52 -52 -144h1q0 -91 51 -143q51 -53 129 -53z" />
    <glyph glyph-name="ntilde" unicode="&#xf1;" horiz-adv-x="640" 
d="M247 663q-52 0 -65 -70h-48q7 64 36.5 96t76.5 32q35 0 60.5 -17.5t45.5 -35t41 -17.5q26 0 41.5 17t23.5 53h48q-7 -63 -37 -95.5t-76 -32.5q-35 0 -60.5 17.5t-45.5 35t-41 17.5zM358 505q97 0 149.5 -52.5t52.5 -156.5v-296h-75v280q0 159 -142 159q-74 2 -130.5 -49
t-57.5 -148v-242h-75v495h75v-97q75 107 203 107z" />
    <glyph glyph-name="ograve" unicode="&#xf2;" horiz-adv-x="625" 
d="M255 735l107 -161h-56l-140 161h89zM313 505q110 0 186 -70t76 -187t-76 -187q-77 -71 -186 -71t-186 71q-76 70 -76 187t76 187t186 70zM184 104q51 -53 129 -53t129 53q51 52 51 144t-51 144t-129 52t-129 -53q-52 -52 -52 -143q0 -92 52 -144z" />
    <glyph glyph-name="oacute" unicode="&#xf3;" horiz-adv-x="625" 
d="M343 574h-56l107 161h89zM313 505q110 0 186 -70t76 -187t-76 -187q-77 -71 -186 -71t-186 71q-76 70 -76 187t76 187t186 70zM184 104q51 -53 129 -53t129 53q51 52 51 144t-51 144t-129 52t-129 -53q-52 -52 -52 -143q0 -92 52 -144z" />
    <glyph glyph-name="ocircumflex" unicode="&#xf4;" horiz-adv-x="625" 
d="M396 574l-83 120l-83 -120h-80l134 161h57l134 -161h-79zM313 505q110 0 186 -70t76 -187t-76 -187q-77 -71 -186 -71t-186 71q-76 70 -76 187t76 187t186 70zM184 104q51 -53 129 -53t129 53q51 52 51 144t-51 144t-129 52t-129 -53q-52 -52 -52 -143q0 -92 52 -144z
" />
    <glyph glyph-name="otilde" unicode="&#xf5;" horiz-adv-x="625" 
d="M240 663q-52 0 -65 -70h-48q7 64 36.5 96t76.5 32q35 0 60.5 -17.5t45.5 -35t41 -17.5q26 0 41.5 17t23.5 53h48q-7 -63 -37 -95.5t-76 -32.5q-35 0 -60.5 17.5t-45.5 35t-41 17.5zM313 505q110 0 186 -70t76 -187t-76 -187q-77 -71 -186 -71t-186 71q-76 70 -76 187
t76 187t186 70zM184 104q51 -53 129 -53t129 53q51 52 51 144t-51 144t-129 52t-129 -53q-52 -52 -52 -143q0 -92 52 -144z" />
    <glyph glyph-name="odieresis" unicode="&#xf6;" horiz-adv-x="625" 
d="M244 632q-23 -23 -53.5 -10.5t-30.5 44.5q0 20 15 34.5t34 14.5q32 0 45 -30.5t-10 -52.5zM452 632q-23 -23 -53.5 -10.5t-30.5 44.5q0 20 15 34.5t34 14.5q32 0 45 -30.5t-10 -52.5zM313 505q110 0 186 -70t76 -187t-76 -187q-77 -71 -186 -71t-186 71q-76 70 -76 187
t76 187t186 70zM184 104q51 -53 129 -53t129 53q51 52 51 144t-51 144t-129 52t-129 -53q-52 -52 -52 -143q0 -92 52 -144z" />
    <glyph glyph-name="divide" unicode="&#xf7;" horiz-adv-x="690" 
d="M375 500q-23 -23 -55.5 -10.5t-32.5 46.5q-2 32 32 47.5t56 -10.5q15 -16 15 -37t-15 -36zM610 303h-530v61h530v-61zM375 91q-23 -23 -55.5 -10.5t-32.5 46.5q-2 32 32 47.5t56 -10.5q15 -16 15 -37t-15 -36z" />
    <glyph glyph-name="oslash" unicode="&#xf8;" horiz-adv-x="625" 
d="M517 495l-34 -46q92 -72 92 -201q0 -117 -76 -187q-77 -71 -186 -71q-77 0 -139 36l-38 -53l-37 26l38 52q-86 74 -86 197q0 117 76 187t186 70q73 0 132 -31l35 48zM128 248q0 -88 49 -141l230 314q-44 23 -94 23q-80 0 -132 -52q-53 -53 -53 -144zM313 51q80 0 132 52
t52 145q0 92 -54 146l-230 -316q43 -27 100 -27z" />
    <glyph glyph-name="ugrave" unicode="&#xf9;" horiz-adv-x="630" 
d="M257 735l107 -161h-56l-140 161h89zM475 253v242h75v-495h-75v97q-75 -107 -196 -107q-93 0 -146 53.5t-53 155.5v296h75v-280q0 -159 142 -159q67 0 123 50q55 49 55 147z" />
    <glyph glyph-name="uacute" unicode="&#xfa;" horiz-adv-x="630" 
d="M396 735h89l-140 -161h-56zM475 253v242h75v-495h-75v97q-75 -107 -196 -107q-93 0 -146 53.5t-53 155.5v296h75v-280q0 -159 142 -159q67 0 123 50q55 49 55 147z" />
    <glyph glyph-name="ucircumflex" unicode="&#xfb;" horiz-adv-x="630" 
d="M398 574l-83 120l-83 -120h-80l134 161h57l134 -161h-79zM475 253v242h75v-495h-75v97q-75 -107 -196 -107q-93 0 -146 53.5t-53 155.5v296h75v-280q0 -159 142 -159q67 0 123 50q55 49 55 147z" />
    <glyph glyph-name="udieresis" unicode="&#xfc;" horiz-adv-x="630" 
d="M246 632q-23 -23 -53.5 -10.5t-30.5 44.5q0 20 15 34.5t34 14.5q32 0 45 -30.5t-10 -52.5zM454 632q-23 -23 -53.5 -10.5t-30.5 44.5q0 20 15 34.5t34 14.5q32 0 45 -30.5t-10 -52.5zM475 253v242h75v-495h-75v97q-75 -107 -196 -107q-93 0 -146 53.5t-53 155.5v296h75
v-280q0 -159 142 -159q67 0 123 50q55 49 55 147z" />
    <glyph glyph-name="yacute" unicode="&#xfd;" horiz-adv-x="551" 
d="M304 574h-56l107 161h89zM283 94l177 401h82l-229 -495q-51 -109 -107 -165q-65 -65 -175 -65v69q73 0 119.5 40.5t91.5 133.5l-233 482h87z" />
    <glyph glyph-name="thorn" unicode="&#xfe;" horiz-adv-x="642" 
d="M343 506q105 0 178 -68q71 -68 71 -190t-71 -190q-73 -68 -178 -68q-61 0 -110.5 26t-77.5 71v-307h-75v960h75v-331q28 45 77.5 71t110.5 26zM333 52q74 0 126 52q51 52 51 144t-51 144q-52 52 -126 52q-71 0 -124 -51q-54 -51 -54 -145t54 -145q53 -51 124 -51z" />
    <glyph glyph-name="ydieresis" unicode="&#xff;" horiz-adv-x="551" 
d="M205 632q-15 -15 -35 -15t-34 15q-15 14 -15 34t15 35q14 14 34 14t35 -14q14 -15 14 -35t-14 -34zM413 632q-15 -15 -35 -15t-34 15q-15 14 -15 34t15 35q14 14 34 14t35 -14q14 -15 14 -35t-14 -34zM283 94l177 401h82l-229 -495q-51 -109 -107 -165q-65 -65 -175 -65
v69q73 0 119.5 40.5t91.5 133.5l-233 482h87z" />
    <glyph glyph-name="Amacron" unicode="&#x100;" 
d="M207 849h320v-57h-320v57zM709 0h-87l-90 212h-343l-91 -212h-82l302 700h88zM361 613l-144 -336h287z" />
    <glyph glyph-name="amacron" unicode="&#x101;" horiz-adv-x="565" 
d="M121 686h320v-57h-320v57zM518 50q5 0 23 2v-58q-20 -4 -38 -4q-46 0 -75.5 25.5t-35.5 63.5q-62 -89 -185 -89q-76 0 -121.5 35.5t-45.5 97.5q0 81 73 126.5t217 45.5q7 0 53 -2v14q0 73 -30 104.5t-101 31.5q-86 0 -166 -39v70q92 31 175 31q96 0 145 -44.5t49 -143.5
v-195q0 -72 63 -72zM222 48q62 0 111 37q50 38 50 98v59q-13 1 -54 1q-213 0 -213 -112q0 -39 29 -61t77 -22z" />
    <glyph glyph-name="Abreve" unicode="&#x102;" 
d="M479 800q-41 -38 -112 -38t-112 38t-48 104h49q22 -85 111 -85t111 85h49q-7 -66 -48 -104zM709 0h-87l-90 212h-343l-91 -212h-82l302 700h88zM361 613l-144 -336h287z" />
    <glyph glyph-name="abreve" unicode="&#x103;" horiz-adv-x="565" 
d="M392 732h49q-15 -155 -160 -155t-160 155h49q11 -52 37 -75t74 -23t74 23t37 75zM518 50q5 0 23 2v-58q-20 -4 -38 -4q-46 0 -75.5 25.5t-35.5 63.5q-62 -89 -185 -89q-76 0 -121.5 35.5t-45.5 97.5q0 81 73 126.5t217 45.5q7 0 53 -2v14q0 73 -30 104.5t-101 31.5
q-86 0 -166 -39v70q92 31 175 31q96 0 145 -44.5t49 -143.5v-195q0 -72 63 -72zM222 48q62 0 111 37q50 38 50 98v59q-13 1 -54 1q-213 0 -213 -112q0 -39 29 -61t77 -22z" />
    <glyph glyph-name="Aogonek" unicode="&#x104;" 
d="M709 0h-26q-104 -54 -104 -122q0 -54 50 -54q25 0 54 12v-49q-36 -17 -72 -17q-47 0 -74 25.5t-27 67.5q0 79 111 140l-89 209h-343l-91 -212h-82l302 700h88zM361 613l-144 -336h287z" />
    <glyph glyph-name="aogonek" unicode="&#x105;" horiz-adv-x="565" 
d="M439 -121q0 -54 50 -54q25 0 54 12v-49q-36 -17 -72 -17q-47 0 -74 25.5t-27 67.5q0 72 95 131q-30 9 -49.5 32t-23.5 52q-62 -89 -185 -89q-76 0 -121.5 35.5t-45.5 97.5q0 81 73 126.5t217 45.5q7 0 53 -2v14q0 73 -30 104.5t-101 31.5q-86 0 -166 -39v70q92 31 175 31
q96 0 145 -44.5t49 -143.5v-195q0 -72 63 -72q5 0 23 2v-51h2q-1 0 -1 -0.5t-1 -0.5v-6q-14 -2 -15 -2q-87 -52 -87 -113zM222 48q62 0 111 37q50 38 50 98v59q-13 1 -54 1q-213 0 -213 -112q0 -39 29 -61t77 -22z" />
    <glyph glyph-name="Cacute" unicode="&#x106;" horiz-adv-x="781" 
d="M447 769h-64l129 131h96zM422 56q78 0 138.5 38t86.5 112h78q-29 -105 -110 -160.5t-193 -55.5q-160 0 -260 105q-101 104 -101 255q0 150 101 256q101 104 260 104q112 0 193 -55.5t110 -160.5h-78q-26 74 -86.5 112t-138.5 38q-122 0 -199 -84q-77 -86 -77 -210
t77 -209q76 -85 199 -85z" />
    <glyph glyph-name="cacute" unicode="&#x107;" horiz-adv-x="578" 
d="M338 574h-56l107 161h89zM309 51q58 0 99 28.5t58 81.5h71q-19 -81 -79.5 -126t-148.5 -45q-110 0 -187 71q-76 70 -76 187t76 187t187 70q88 0 148.5 -45t79.5 -126h-71q-17 53 -58 81.5t-99 28.5q-79 0 -130 -52q-52 -52 -52 -144q0 -90 50.5 -143.5t131.5 -53.5z" />
    <glyph glyph-name="Cdotaccent" unicode="&#x10a;" horiz-adv-x="781" 
d="M446 789q-23 -23 -55.5 -10.5t-32.5 46.5q-2 32 32 47.5t56 -10.5q15 -16 15 -37t-15 -36zM422 56q78 0 138.5 38t86.5 112h78q-29 -105 -110 -160.5t-193 -55.5q-160 0 -260 105q-101 104 -101 255q0 150 101 256q101 104 260 104q112 0 193 -55.5t110 -160.5h-78
q-26 74 -86.5 112t-138.5 38q-122 0 -199 -84q-77 -86 -77 -210t77 -209q76 -85 199 -85z" />
    <glyph glyph-name="cdotaccent" unicode="&#x10b;" horiz-adv-x="578" 
d="M344 628q-23 -23 -55.5 -10.5t-32.5 46.5q-2 32 32 47.5t56 -10.5q15 -16 15 -37t-15 -36zM309 51q58 0 99 28.5t58 81.5h71q-19 -81 -79.5 -126t-148.5 -45q-110 0 -187 71q-76 70 -76 187t76 187t187 70q88 0 148.5 -45t79.5 -126h-71q-17 53 -58 81.5t-99 28.5
q-79 0 -130 -52q-52 -52 -52 -144q0 -90 50.5 -143.5t131.5 -53.5z" />
    <glyph glyph-name="Ccaron" unicode="&#x10c;" horiz-adv-x="781" 
d="M571 900l-134 -131h-56l-135 131h87l76 -96l76 96h86zM422 56q78 0 138.5 38t86.5 112h78q-29 -105 -110 -160.5t-193 -55.5q-160 0 -260 105q-101 104 -101 255q0 150 101 256q101 104 260 104q112 0 193 -55.5t110 -160.5h-78q-26 74 -86.5 112t-138.5 38
q-122 0 -199 -84q-77 -86 -77 -210t77 -209q76 -85 199 -85z" />
    <glyph glyph-name="ccaron" unicode="&#x10d;" horiz-adv-x="578" 
d="M470 735l-134 -161h-56l-135 161h80l83 -120l83 120h79zM309 51q58 0 99 28.5t58 81.5h71q-19 -81 -79.5 -126t-148.5 -45q-110 0 -187 71q-76 70 -76 187t76 187t187 70q88 0 148.5 -45t79.5 -126h-71q-17 53 -58 81.5t-99 28.5q-79 0 -130 -52q-52 -52 -52 -144
q0 -90 50.5 -143.5t131.5 -53.5z" />
    <glyph glyph-name="Dcaron" unicode="&#x10e;" horiz-adv-x="778" 
d="M557 900l-134 -131h-56l-135 131h87l76 -96l76 96h86zM173 700h175q163 0 269 -95q105 -95 105 -255t-105 -255q-106 -95 -269 -95h-243h-10v700h78zM173 65h168q131 0 214 77q82 76 82 208q0 133 -82 209t-214 76h-168v-570z" />
    <glyph glyph-name="dcaron" unicode="&#x10f;" horiz-adv-x="721" 
d="M487 407v333h75v-740h-75v88q-27 -44 -77 -71t-111 -27q-106 0 -177 68t-71 190q0 121 71 189t177 68q61 0 111 -27t77 -71zM694 564h-47v176h73zM309 51q71 0 125 51q53 51 53 146q0 94 -53 145q-54 51 -125 51q-74 0 -125 -52q-52 -52 -52 -144q0 -93 52 -145
q51 -52 125 -52z" />
    <glyph glyph-name="Dcroat" unicode="&#x110;" horiz-adv-x="778" 
d="M173 700h175q163 0 269 -95q105 -95 105 -255t-105 -255q-106 -95 -269 -95h-243h-10v324h-101v56h101v320h78zM173 65h168q131 0 214 77q82 76 82 208q0 133 -82 209t-214 76h-168v-255h156v-56h-156v-259z" />
    <glyph glyph-name="dslash" unicode="&#x111;" horiz-adv-x="637" 
d="M562 636h117v-56h-117v-580h-75v88q-27 -44 -77 -71t-111 -27q-106 0 -177 68t-71 190q0 121 71 189t177 68q61 0 111 -27t77 -71v173h-143v56h143v104h75v-104zM309 51q71 0 125 51q53 51 53 146q0 94 -53 145q-54 51 -125 51q-74 0 -125 -52q-52 -52 -52 -144
q0 -93 52 -145q51 -52 125 -52z" />
    <glyph glyph-name="Emacron" unicode="&#x112;" horiz-adv-x="671" 
d="M196 849h320v-57h-320v57zM173 334v-268h438v-66h-506h-10v700h78h428v-66h-428v-235h398v-65h-398z" />
    <glyph glyph-name="emacron" unicode="&#x113;" horiz-adv-x="598" 
d="M139 686h320v-57h-320v57zM313 52v-1q125 0 158 103h71q-19 -78 -79.5 -121t-149.5 -43q-109 0 -186 71q-76 70 -76 187q0 119 76 188q77 69 184 69q111 0 173.5 -61.5t62.5 -187.5h-415v-8h1q0 -90 51 -143t129 -53zM311 448q-66 0 -111.5 -36.5t-60.5 -102.5h324
q-3 67 -42.5 103t-109.5 36z" />
    <glyph glyph-name="Edotaccent" unicode="&#x116;" horiz-adv-x="671" 
d="M393 789q-23 -23 -55.5 -10.5t-32.5 46.5q-2 32 32 47.5t56 -10.5q15 -16 15 -37t-15 -36zM173 334v-268h438v-66h-506h-10v700h78h428v-66h-428v-235h398v-65h-398z" />
    <glyph glyph-name="edotaccent" unicode="&#x117;" horiz-adv-x="598" 
d="M335 628q-23 -23 -55.5 -10.5t-32.5 46.5q-2 32 32 47.5t56 -10.5q15 -16 15 -37t-15 -36zM313 52v-1q125 0 158 103h71q-19 -78 -79.5 -121t-149.5 -43q-109 0 -186 71q-76 70 -76 187q0 119 76 188q77 69 184 69q111 0 173.5 -61.5t62.5 -187.5h-415v-8h1
q0 -90 51 -143t129 -53zM311 448q-66 0 -111.5 -36.5t-60.5 -102.5h324q-3 67 -42.5 103t-109.5 36z" />
    <glyph glyph-name="Eogonek" unicode="&#x118;" horiz-adv-x="671" 
d="M611 66v-66q-104 -54 -104 -122q0 -54 50 -54q25 0 54 12v-49q-36 -17 -72 -17q-47 0 -74 25.5t-27 67.5q0 75 105 137h-438h-10v700h78h428v-66h-428v-235h398v-65h-398v-268h438z" />
    <glyph glyph-name="eogonek" unicode="&#x119;" horiz-adv-x="598" 
d="M313 52v-1q125 0 158 103h71q-30 -123 -151 -154q-41 -26 -64 -58.5t-23 -63.5q0 -25 13.5 -39.5t37.5 -14.5q25 0 54 12v-49q-36 -17 -71 -17q-47 0 -75 25.5t-28 67.5q0 69 76 127q-109 1 -184 72q-76 70 -76 186q0 119 76 188q77 69 184 69q111 0 173.5 -61.5
t62.5 -187.5h-415v-8h1q0 -90 51 -143t129 -53zM311 448q-66 0 -111.5 -36.5t-60.5 -102.5h324q-3 67 -42.5 103t-109.5 36z" />
    <glyph glyph-name="Ecaron" unicode="&#x11a;" horiz-adv-x="671" 
d="M518 900l-134 -131h-56l-135 131h87l76 -96l76 96h86zM173 334v-268h438v-66h-506h-10v700h78h428v-66h-428v-235h398v-65h-398z" />
    <glyph glyph-name="ecaron" unicode="&#x11b;" horiz-adv-x="598" 
d="M461 735l-134 -161h-56l-135 161h80l83 -120l83 120h79zM313 52v-1q125 0 158 103h71q-19 -78 -79.5 -121t-149.5 -43q-109 0 -186 71q-76 70 -76 187q0 119 76 188q77 69 184 69q111 0 173.5 -61.5t62.5 -187.5h-415v-8h1q0 -90 51 -143t129 -53zM311 448
q-66 0 -111.5 -36.5t-60.5 -102.5h324q-3 67 -42.5 103t-109.5 36z" />
    <glyph glyph-name="Gbreve" unicode="&#x11e;" horiz-adv-x="820" 
d="M537 800q-41 -38 -112 -38t-112 38t-48 104h49q22 -85 111 -85t111 85h49q-7 -66 -48 -104zM483 297v57h241v-354h-65l-3 102q-35 -55 -99 -83.5t-144 -28.5q-158 0 -253 104q-94 103 -94 256h-1q0 150 101 256q101 104 261 104q112 0 193 -55.5t110 -160.5h-78
q-26 74 -86.5 112t-138.5 38q-123 0 -199 -84q-77 -86 -77 -210q0 -126 73 -209q73 -85 199 -85q97 0 164 54q67 52 67 159v28h-171z" />
    <glyph glyph-name="gbreve" unicode="&#x11f;" horiz-adv-x="602" 
d="M391 732h49q-17 -155 -160 -155t-160 155h49q11 -52 37 -75t74 -23t74 23t37 75zM181 77l218 -16q168 -12 168 -126q0 -79 -81 -122q-80 -43 -213 -43q-120 0 -178.5 37.5t-58.5 105.5q0 69 57 125q-34 31 -34 80q0 56 52 99q-53 47 -53 116v1q2 78 63 124q62 47 154 47
q97 0 159 -50q50 50 126 50v-68q-50 0 -87 -28q19 -34 19 -75v-1q-2 -78 -62 -124q-62 -47 -155 -47q-69 0 -124 27q-31 -24 -31 -55q0 -24 15.5 -39.5t45.5 -17.5zM381 417q-40 31 -106 31t-106 -31t-40 -83q0 -53 40 -84t106 -31t106 31t40 84q0 52 -40 83zM278 -176
q97 0 157 27.5t60 74.5q0 34 -27 50t-90 21l-239 18q-36 -41 -36 -91q0 -100 175 -100z" />
    <glyph glyph-name="Gdotaccent" unicode="&#x120;" horiz-adv-x="820" 
d="M462 789q-23 -23 -55.5 -10.5t-32.5 46.5q-2 32 32 47.5t56 -10.5q15 -16 15 -37t-15 -36zM483 297v57h241v-354h-65l-3 102q-35 -55 -99 -83.5t-144 -28.5q-158 0 -253 104q-94 103 -94 256h-1q0 150 101 256q101 104 261 104q112 0 193 -55.5t110 -160.5h-78
q-26 74 -86.5 112t-138.5 38q-123 0 -199 -84q-77 -86 -77 -210q0 -126 73 -209q73 -85 199 -85q97 0 164 54q67 52 67 159v28h-171z" />
    <glyph glyph-name="gdotaccent" unicode="&#x121;" horiz-adv-x="602" 
d="M316 628q-23 -23 -55.5 -10.5t-32.5 46.5q-2 32 32 47.5t56 -10.5q15 -16 15 -37t-15 -36zM181 77l218 -16q168 -12 168 -126q0 -79 -81 -122q-80 -43 -213 -43q-120 0 -178.5 37.5t-58.5 105.5q0 69 57 125q-34 31 -34 80q0 56 52 99q-53 47 -53 116v1q2 78 63 124
q62 47 154 47q97 0 159 -50q50 50 126 50v-68q-50 0 -87 -28q19 -34 19 -75v-1q-2 -78 -62 -124q-62 -47 -155 -47q-69 0 -124 27q-31 -24 -31 -55q0 -24 15.5 -39.5t45.5 -17.5zM381 417q-40 31 -106 31t-106 -31t-40 -83q0 -53 40 -84t106 -31t106 31t40 84q0 52 -40 83z
M278 -176q97 0 157 27.5t60 74.5q0 34 -27 50t-90 21l-239 18q-36 -41 -36 -91q0 -100 175 -100z" />
    <glyph glyph-name="Gcommaaccent" unicode="&#x122;" horiz-adv-x="820" 
d="M483 297v57h241v-354h-65l-3 102q-35 -55 -99 -83.5t-144 -28.5q-158 0 -253 104q-94 103 -94 256h-1q0 150 101 256q101 104 261 104q112 0 193 -55.5t110 -160.5h-78q-26 74 -86.5 112t-138.5 38q-123 0 -199 -84q-77 -86 -77 -210q0 -126 73 -209q73 -85 199 -85
q97 0 164 54q67 52 67 159v28h-171zM412 -250h-48l29 154h68z" />
    <glyph glyph-name="gcommaaccent" unicode="&#x123;" horiz-adv-x="602" 
d="M369 735h56l-106 -161h-89zM181 77l218 -16q168 -12 168 -126q0 -79 -81 -122q-80 -43 -213 -43q-120 0 -178.5 37.5t-58.5 105.5q0 69 57 125q-34 31 -34 80q0 56 52 99q-53 47 -53 116v1q2 78 63 124q62 47 154 47q97 0 159 -50q50 50 126 50v-68q-50 0 -87 -28
q19 -34 19 -75v-1q-2 -78 -62 -124q-62 -47 -155 -47q-69 0 -124 27q-31 -24 -31 -55q0 -24 15.5 -39.5t45.5 -17.5zM381 417q-40 31 -106 31t-106 -31t-40 -83q0 -53 40 -84t106 -31t106 31t40 84q0 52 -40 83zM278 -176q97 0 157 27.5t60 74.5q0 34 -27 50t-90 21l-239 18
q-36 -41 -36 -91q0 -100 175 -100z" />
    <glyph glyph-name="Hbar" unicode="&#x126;" horiz-adv-x="805" 
d="M724 577h76v-50h-76v-527h-78v334h-478v-334h-78v527h-85v50h85v123h78v-123h478v123h78v-123zM168 399h478v128h-478v-128z" />
    <glyph glyph-name="hbar" unicode="&#x127;" horiz-adv-x="640" 
d="M358 505q97 0 149.5 -52.5t52.5 -156.5v-296h-75v280q0 159 -142 159q-74 2 -130.5 -49t-57.5 -148v-242h-75v580h-111v56h111v104h75v-104h149v-56h-149v-182q75 107 203 107z" />
    <glyph glyph-name="Itilde" unicode="&#x128;" horiz-adv-x="268" 
d="M274 896h48q-7 -63 -37 -95.5t-76 -32.5q-35 0 -60.5 17.5t-45.5 35t-41 17.5q-52 0 -65 -70h-48q7 64 36.5 96t76.5 32q35 0 60.5 -17.5t45.5 -35t41 -17.5q26 0 41.5 17t23.5 53zM173 0h-78v700h78v-700z" />
    <glyph glyph-name="itilde" unicode="&#x129;" horiz-adv-x="235" 
d="M257 721h48q-7 -63 -37 -95.5t-76 -32.5q-35 0 -60.5 17.5t-45.5 35t-41 17.5q-52 0 -65 -70h-48q7 64 36.5 96t76.5 32q35 0 60.5 -17.5t45.5 -35t41 -17.5q26 0 41.5 17t23.5 53zM155 0h-75v495h75v-495z" />
    <glyph glyph-name="Imacron" unicode="&#x12a;" horiz-adv-x="268" 
d="M295 792h-320v57h320v-57zM95 0v700h78v-700h-78z" />
    <glyph glyph-name="imacron" unicode="&#x12b;" horiz-adv-x="235" 
d="M278 629h-320v57h320v-57zM155 0h-75v495h75v-495z" />
    <glyph glyph-name="Iogonek" unicode="&#x12e;" horiz-adv-x="268" 
d="M95 6v694h78v-700h-22q-104 -54 -104 -122q0 -54 50 -54q25 0 54 12v-49q-36 -17 -72 -17q-47 0 -74 25.5t-27 67.5q0 81 117 143z" />
    <glyph glyph-name="iogonek" unicode="&#x12f;" horiz-adv-x="235" 
d="M154 628q-23 -23 -55.5 -10.5t-32.5 46.5q-2 32 32 47.5t56 -10.5q15 -16 15 -37t-15 -36zM80 4v491h75v-495h-14q-104 -54 -104 -122q0 -54 50 -54q25 0 54 12v-49q-36 -17 -72 -17q-47 0 -74 25.5t-27 67.5q0 80 112 141z" />
    <glyph glyph-name="Idot" unicode="&#x130;" horiz-adv-x="268" 
d="M172 789q-23 -23 -55.5 -10.5t-32.5 46.5q-2 32 32 47.5t56 -10.5q15 -16 15 -37t-15 -36zM95 0v700h78v-700h-78z" />
    <glyph glyph-name="dotlessi" unicode="&#x131;" horiz-adv-x="235" 
d="M155 0h-75v495h75v-495z" />
    <glyph glyph-name="Kcommaaccent" unicode="&#x136;" horiz-adv-x="731" 
d="M711 700l-328 -314l347 -386h-99l-306 331l-157 -150v-181h-78v700h78v-416l445 416h98zM341 -250h-48l29 154h68z" />
    <glyph glyph-name="kcommaaccent" unicode="&#x137;" horiz-adv-x="596" 
d="M549 495l-224 -208l250 -287h-89l-212 240l-119 -111v-129h-75v740h75v-528l303 283h91zM286 -250h-48l29 154h68z" />
    <glyph glyph-name="Lacute" unicode="&#x139;" horiz-adv-x="621" 
d="M217 940h89l-140 -161h-56zM168 700v-634h432v-66h-500h-10v700h78z" />
    <glyph glyph-name="lacute" unicode="&#x13a;" horiz-adv-x="234" 
d="M146 770h-64l129 131h96zM155 0h-75v740h75v-740z" />
    <glyph glyph-name="Lcommaaccent" unicode="&#x13b;" horiz-adv-x="621" 
d="M168 700v-634h432v-66h-500h-10v700h78zM328 -250h-48l29 154h68z" />
    <glyph glyph-name="lcommaaccent" unicode="&#x13c;" horiz-adv-x="235" 
d="M155 0h-75v740h75v-740zM105 -250h-48l29 154h68z" />
    <glyph glyph-name="Lcaron" unicode="&#x13d;" horiz-adv-x="621" 
d="M449 740h73l-26 -176h-47v176zM168 700v-634h432v-66h-500h-10v700h78z" />
    <glyph glyph-name="lcaron" unicode="&#x13e;" horiz-adv-x="313" 
d="M155 0h-75v740h75v-740zM287 564h-48v176h73z" />
    <glyph glyph-name="Lslash" unicode="&#x141;" horiz-adv-x="651" 
d="M198 286v-220h432v-66h-500h-10v244l-108 -57v69l108 57v387h78v-345l292 155v-69z" />
    <glyph glyph-name="lslash" unicode="&#x142;" horiz-adv-x="361" 
d="M226 435l115 62v-73l-115 -62v-362h-75v321l-121 -65v73l121 65v346h75v-305z" />
    <glyph glyph-name="Nacute" unicode="&#x143;" horiz-adv-x="828" 
d="M514 900h96l-161 -131h-64zM660 141v559h78v-700h-60l-510 560v-560h-78v700h60z" />
    <glyph glyph-name="nacute" unicode="&#x144;" horiz-adv-x="640" 
d="M350 574h-56l107 161h89zM358 505q97 0 149.5 -52.5t52.5 -156.5v-296h-75v280q0 159 -142 159q-74 2 -130.5 -49t-57.5 -148v-242h-75v495h75v-97q75 107 203 107z" />
    <glyph glyph-name="Ncommaaccent" unicode="&#x145;" horiz-adv-x="828" 
d="M660 141v559h78v-700h-60l-510 560v-560h-78v700h60zM399 -250h-48l29 154h68z" />
    <glyph glyph-name="ncommaaccent" unicode="&#x146;" horiz-adv-x="640" 
d="M358 505q97 0 149.5 -52.5t52.5 -156.5v-296h-75v280q0 159 -142 159q-74 2 -130.5 -49t-57.5 -148v-242h-75v495h75v-97q75 107 203 107zM318 -250h-48l29 154h68z" />
    <glyph glyph-name="Ncaron" unicode="&#x147;" horiz-adv-x="828" 
d="M573 900l-134 -131h-56l-135 131h87l76 -96l76 96h86zM660 141v559h78v-700h-60l-510 560v-560h-78v700h60z" />
    <glyph glyph-name="ncaron" unicode="&#x148;" horiz-adv-x="640" 
d="M482 735l-134 -161h-56l-135 161h80l83 -120l83 120h79zM358 505q97 0 149.5 -52.5t52.5 -156.5v-296h-75v280q0 159 -142 159q-74 2 -130.5 -49t-57.5 -148v-242h-75v495h75v-97q75 107 203 107z" />
    <glyph glyph-name="Eng" unicode="&#x14a;" horiz-adv-x="828" 
d="M660 141v559h78v-700v-61q0 -79 -56.5 -124t-157.5 -45v66q136 0 136 114v70l-492 540v-560h-78v700h60z" />
    <glyph glyph-name="eng" unicode="&#x14b;" horiz-adv-x="640" 
d="M358 505q97 0 149.5 -52.5t52.5 -156.5v-349q0 -79 -54 -128t-148 -49v61q127 0 127 130v319q0 159 -142 159q-74 2 -130.5 -49t-57.5 -148v-242h-75v495h75v-97q75 107 203 107z" />
    <glyph glyph-name="Omacron" unicode="&#x14c;" horiz-adv-x="835" 
d="M577 792h-320v57h320v-57zM157 606q101 104 260 104q160 0 261 -104q101 -106 101 -256q0 -151 -101 -255q-100 -105 -261 -105q-159 0 -260 105q-101 104 -101 255q0 150 101 256zM417 56q124 0 200 85q77 85 77 209t-77 210q-77 84 -200 84t-199 -84q-77 -86 -77 -210
t77 -209q76 -85 199 -85z" />
    <glyph glyph-name="omacron" unicode="&#x14d;" horiz-adv-x="625" 
d="M473 629h-320v57h320v-57zM313 505q110 0 186 -70t76 -187t-76 -187q-77 -71 -186 -71t-186 71q-76 70 -76 187t76 187t186 70zM184 104q51 -53 129 -53t129 53q51 52 51 144t-51 144t-129 52t-129 -53q-52 -52 -52 -143q0 -92 52 -144z" />
    <glyph glyph-name="Ohungarumlaut" unicode="&#x150;" horiz-adv-x="835" 
d="M354 769h-64l129 131h96zM525 769h-64l129 131h96zM157 606q101 104 260 104q160 0 261 -104q101 -106 101 -256q0 -151 -101 -255q-100 -105 -261 -105q-159 0 -260 105q-101 104 -101 255q0 150 101 256zM417 56q124 0 200 85q77 85 77 209t-77 210q-77 84 -200 84
t-199 -84q-77 -86 -77 -210t77 -209q76 -85 199 -85z" />
    <glyph glyph-name="ohungarumlaut" unicode="&#x151;" horiz-adv-x="625" 
d="M256 574h-56l107 161h89zM422 574h-56l107 161h89zM313 505q110 0 186 -70t76 -187t-76 -187q-77 -71 -186 -71t-186 71q-76 70 -76 187t76 187t186 70zM184 104q51 -53 129 -53t129 53q51 52 51 144t-51 144t-129 52t-129 -53q-52 -52 -52 -143q0 -92 52 -144z" />
    <glyph glyph-name="OE" unicode="&#x152;" horiz-adv-x="1237" 
d="M739 334v-268h438v-66h-506h-10v120q-75 -130 -244 -130q-161 0 -261 105q-101 104 -101 255q0 150 101 256q101 104 261 104q169 0 244 -130v120h78h428v-66h-428v-235h398v-65h-398zM417 56q115 0 179.5 78t64.5 216t-64.5 216t-179.5 78q-123 0 -199 -84
q-77 -86 -77 -210t77 -209q76 -85 199 -85z" />
    <glyph glyph-name="oe" unicode="&#x153;" horiz-adv-x="1045" 
d="M760 52v-1q125 0 158 103h71q-19 -78 -79.5 -121t-149.5 -43q-70 0 -129.5 30.5t-94.5 86.5q-35 -56 -94 -86.5t-129 -30.5q-109 0 -186 71q-76 70 -76 187t76 187t186 70q71 0 129.5 -30t93.5 -86q35 56 93.5 86t128.5 30q111 0 173.5 -61.5t62.5 -187.5h-415v-8h1
q0 -90 51 -143t129 -53zM758 448q-66 0 -111.5 -36.5t-60.5 -102.5h324q-3 67 -42.5 103t-109.5 36zM184 104q51 -53 129 -53t129 53q51 52 51 144t-51 144t-129 52t-129 -53q-52 -52 -52 -143q0 -92 52 -144z" />
    <glyph glyph-name="Racute" unicode="&#x154;" horiz-adv-x="693" 
d="M427 900h96l-161 -131h-64zM517 244l165 -244h-90l-150 221q-32 48 -69 65q-35 16 -111 16h-89v-302h-78v700h78h187q126 0 195.5 -49.5t69.5 -148.5q0 -151 -180 -184q39 -23 72 -74zM173 634v-266h169l2 -21l-2 21q104 0 153 31t49 102t-49 102t-153 31h-169z" />
    <glyph glyph-name="racute" unicode="&#x155;" horiz-adv-x="375" 
d="M259 735h89l-140 -161h-56zM155 495v-110q67 120 196 120v-70q-67 0 -125 -36q-32 -20 -51.5 -61t-19.5 -94v-244h-75v495h75z" />
    <glyph glyph-name="Rcommaaccent" unicode="&#x156;" horiz-adv-x="693" 
d="M517 244l165 -244h-90l-150 221q-32 48 -69 65q-35 16 -111 16h-89v-302h-78v700h78h187q126 0 195.5 -49.5t69.5 -148.5q0 -151 -180 -184q39 -23 72 -74zM173 634v-266h169l2 -21l-2 21q104 0 153 31t49 102t-49 102t-153 31h-169zM355 -250h-48l29 154h68z" />
    <glyph glyph-name="rcommaaccent" unicode="&#x157;" horiz-adv-x="375" 
d="M155 495v-110q67 120 196 120v-70q-67 0 -125 -36q-32 -20 -51.5 -61t-19.5 -94v-244h-75v495h75zM95 -250h-48l29 154h68z" />
    <glyph glyph-name="Rcaron" unicode="&#x158;" horiz-adv-x="693" 
d="M486 900l-134 -131h-56l-135 131h87l76 -96l76 96h86zM517 244l165 -244h-90l-150 221q-32 48 -69 65q-35 16 -111 16h-89v-302h-78v700h78h187q126 0 195.5 -49.5t69.5 -148.5q0 -151 -180 -184q39 -23 72 -74zM173 634v-266h169l2 -21l-2 21q104 0 153 31t49 102
t-49 102t-153 31h-169z" />
    <glyph glyph-name="rcaron" unicode="&#x159;" horiz-adv-x="375" 
d="M340 735l-134 -161h-56l-135 161h80l83 -120l83 120h79zM155 495v-110q67 120 196 120v-70q-67 0 -125 -36q-32 -20 -51.5 -61t-19.5 -94v-244h-75v495h75z" />
    <glyph glyph-name="Sacute" unicode="&#x15a;" horiz-adv-x="669" 
d="M373 769h-64l129 131h96zM164 520q0 -38 24.5 -64.5t64 -40.5t86.5 -25t94.5 -24.5t87 -33t64 -56t24.5 -88.5q0 -93 -74 -146q-74 -52 -196 -52q-120 0 -194 51.5t-84 150.5h77q9 -69 61.5 -102.5t136.5 -33.5q85 0 136 32.5t51 90.5q0 26 -13 47.5t-32 34.5t-52 25.5
t-58.5 19.5t-66.5 17t-63 16q-69 19 -112.5 63.5t-43.5 110.5q0 92 74 145q73 52 184 52q108 0 177.5 -51.5t82.5 -140.5h-78q-13 60 -59.5 93.5t-120.5 33.5q-78 0 -128 -34.5t-50 -90.5z" />
    <glyph glyph-name="sacute" unicode="&#x15b;" horiz-adv-x="521" 
d="M298 574h-56l107 161h89zM142 370q0 -20 12 -34.5t37 -24.5t47 -16t59.5 -14.5t56.5 -13.5q52 -14 84 -46t32 -80q0 -74 -61.5 -112.5t-166.5 -38.5q-98 0 -181 34v70q85 -42 181 -42q67 0 108.5 21.5t41.5 59.5q0 19 -12.5 32.5t-37 23t-47.5 16t-59 14.5t-57 14
q-52 15 -84 47.5t-32 80.5q0 69 57.5 106.5t159.5 37.5q88 0 171 -31v-66q-95 39 -173 39q-64 0 -100 -20.5t-36 -56.5z" />
    <glyph glyph-name="Scedilla" unicode="&#x15e;" horiz-adv-x="669" 
d="M609 188q0 -88 -66.5 -140t-179.5 -57l-16 -53q61 10 99.5 -10.5t38.5 -64.5q0 -43 -34.5 -68t-87.5 -25q-43 0 -81 18v43q35 -19 73 -19q72 0 72 48q0 36 -46 42q-46 7 -96 -11l31 99q-111 6 -178.5 57t-76.5 145h77q9 -69 61.5 -102.5t136.5 -33.5q85 0 136 32.5
t51 90.5q0 26 -13 47.5t-32 34.5t-52 25.5t-58.5 19.5t-66.5 17t-63 16q-69 19 -112.5 63.5t-43.5 110.5q0 92 74 145q73 52 184 52q108 0 177.5 -51.5t82.5 -140.5h-78q-13 60 -59.5 93.5t-120.5 33.5q-78 0 -128 -34.5t-50 -90.5q0 -38 24.5 -64.5t64 -40.5t86.5 -25
t94.5 -24.5t87 -33t64 -56t24.5 -88.5z" />
    <glyph glyph-name="scedilla" unicode="&#x15f;" horiz-adv-x="521" 
d="M470 141q0 -65 -50 -103.5t-137 -45.5l-16 -54q61 10 99.5 -10.5t38.5 -64.5q0 -43 -34.5 -68t-87.5 -25q-43 0 -81 18v43q35 -19 73 -19q72 0 72 48q0 36 -46 42q-46 7 -96 -11l31 99q-94 2 -175 34v70q85 -42 181 -42q67 0 108.5 21.5t41.5 59.5q0 19 -12.5 32.5
t-37 23t-47.5 16t-59 14.5t-57 14q-52 15 -84 47.5t-32 80.5q0 69 57.5 106.5t159.5 37.5q88 0 171 -31v-66q-95 39 -173 39q-64 0 -100 -20.5t-36 -56.5q0 -20 12 -34.5t37 -24.5t47 -16t59.5 -14.5t56.5 -13.5q52 -14 84 -46t32 -80z" />
    <glyph glyph-name="Scaron" unicode="&#x160;" horiz-adv-x="669" 
d="M497 900l-134 -131h-56l-135 131h87l76 -96l76 96h86zM164 520q0 -38 24.5 -64.5t64 -40.5t86.5 -25t94.5 -24.5t87 -33t64 -56t24.5 -88.5q0 -93 -74 -146q-74 -52 -196 -52q-120 0 -194 51.5t-84 150.5h77q9 -69 61.5 -102.5t136.5 -33.5q85 0 136 32.5t51 90.5
q0 26 -13 47.5t-32 34.5t-52 25.5t-58.5 19.5t-66.5 17t-63 16q-69 19 -112.5 63.5t-43.5 110.5q0 92 74 145q73 52 184 52q108 0 177.5 -51.5t82.5 -140.5h-78q-13 60 -59.5 93.5t-120.5 33.5q-78 0 -128 -34.5t-50 -90.5z" />
    <glyph glyph-name="scaron" unicode="&#x161;" horiz-adv-x="521" 
d="M430 735l-134 -161h-56l-135 161h80l83 -120l83 120h79zM142 370q0 -20 12 -34.5t37 -24.5t47 -16t59.5 -14.5t56.5 -13.5q52 -14 84 -46t32 -80q0 -74 -61.5 -112.5t-166.5 -38.5q-98 0 -181 34v70q85 -42 181 -42q67 0 108.5 21.5t41.5 59.5q0 19 -12.5 32.5t-37 23
t-47.5 16t-59 14.5t-57 14q-52 15 -84 47.5t-32 80.5q0 69 57.5 106.5t159.5 37.5q88 0 171 -31v-66q-95 39 -173 39q-64 0 -100 -20.5t-36 -56.5z" />
    <glyph glyph-name="uni0162" unicode="&#x162;" horiz-adv-x="670" 
d="M374 634v-634h-20l-19 -62q61 10 99.5 -10.5t38.5 -64.5q0 -43 -34.5 -68t-87.5 -25q-43 0 -81 18v43q35 -19 73 -19q72 0 72 48q0 36 -46 42q-46 7 -96 -11l34 109h-11v634h-280v66h358h280v-66h-280z" />
    <glyph glyph-name="uni0163" unicode="&#x163;" horiz-adv-x="452" 
d="M290 -10l-16 -52q61 10 99.5 -10.5t38.5 -64.5q0 -43 -34.5 -68t-87.5 -25q-44 0 -81 18v43q35 -19 73 -19q72 0 72 48q0 36 -46 42q-46 7 -96 -11l33 105q-56 13 -88 53.5t-32 105.5v277h-98v61h98v115l75 32v-147h201v-61h-201v-262q0 -118 107 -118q52 0 94 19v-63
q-44 -18 -103 -18h-8z" />
    <glyph glyph-name="Tcaron" unicode="&#x164;" horiz-adv-x="670" 
d="M497 900l-134 -131h-56l-135 131h87l76 -96l76 96h86zM374 700h280v-66h-280v-634h-78v634h-280v66h358z" />
    <glyph glyph-name="tcaron" unicode="&#x165;" horiz-adv-x="445" 
d="M355 566v174h73l-26 -174h-47zM125 608l75 32v-147h201v-61h-201v-262q0 -118 107 -118q52 0 94 19v-63q-44 -18 -103 -18q-79 0 -126 42.5t-47 122.5v277h-98v61h98v115z" />
    <glyph glyph-name="Tbar" unicode="&#x166;" horiz-adv-x="670" 
d="M654 700v-66h-280v-254h129v-56h-129v-324h-78v324h-128v56h128v254h-280v66h358h280z" />
    <glyph glyph-name="tbar" unicode="&#x167;" horiz-adv-x="452" 
d="M401 493v-61h-201v-116h166v-56h-166v-90q0 -118 107 -118q52 0 94 19v-63q-44 -18 -103 -18q-79 0 -126 42.5t-47 122.5v105h-94v56h94v116h-98v61h98v115l75 32v-147h201z" />
    <glyph glyph-name="Utilde" unicode="&#x168;" horiz-adv-x="785" 
d="M319 838q-52 0 -65 -70h-48q7 64 36.5 96t76.5 32q35 0 60.5 -17.5t45.5 -35t41 -17.5q26 0 41.5 17t23.5 53h48q-7 -63 -37 -95.5t-76 -32.5q-35 0 -60.5 17.5t-45.5 35t-41 17.5zM616 307v393h79v-403q0 -179 -133 -262q-70 -45 -170 -45q-146 0 -224 89t-78 218v403
h78v-393q0 -50 12.5 -94t38.5 -79.5t70 -56.5t103 -21q114 0 169 72q55 71 55 179z" />
    <glyph glyph-name="utilde" unicode="&#x169;" horiz-adv-x="630" 
d="M242 663q-52 0 -65 -70h-48q7 64 36.5 96t76.5 32q35 0 60.5 -17.5t45.5 -35t41 -17.5q26 0 41.5 17t23.5 53h48q-7 -63 -37 -95.5t-76 -32.5q-35 0 -60.5 17.5t-45.5 35t-41 17.5zM475 253v242h75v-495h-75v97q-75 -107 -196 -107q-93 0 -146 53.5t-53 155.5v296h75
v-280q0 -159 142 -159q67 0 123 50q55 49 55 147z" />
    <glyph glyph-name="Umacron" unicode="&#x16a;" horiz-adv-x="785" 
d="M232 849h320v-57h-320v57zM616 307v393h79v-403q0 -179 -133 -262q-70 -45 -170 -45q-146 0 -224 89t-78 218v403h78v-393q0 -50 12.5 -94t38.5 -79.5t70 -56.5t103 -21q114 0 169 72q55 71 55 179z" />
    <glyph glyph-name="umacron" unicode="&#x16b;" horiz-adv-x="630" 
d="M155 686h320v-57h-320v57zM475 253v242h75v-495h-75v97q-75 -107 -196 -107q-93 0 -146 53.5t-53 155.5v296h75v-280q0 -159 142 -159q67 0 123 50q55 49 55 147z" />
    <glyph glyph-name="Uring" unicode="&#x16e;" horiz-adv-x="785" 
d="M457 759q-32 -32 -77 -32t-77 32t-32 77.5t32 76.5t77 31t77 -31t32 -76.5t-32 -77.5zM422 879q-17 18 -42 18t-42 -18t-17 -43t17 -43t42 -18t42 18t17 43t-17 43zM616 307v393h79v-403q0 -179 -133 -262q-70 -45 -170 -45q-146 0 -224 89t-78 218v403h78v-393
q0 -50 12.5 -94t38.5 -79.5t70 -56.5t103 -21q114 0 169 72q55 71 55 179z" />
    <glyph glyph-name="uring" unicode="&#x16f;" horiz-adv-x="630" 
d="M392 587q-32 -32 -77 -32t-77 32t-32 77.5t32 76.5t77 31t77 -31t32 -76.5t-32 -77.5zM357 707q-17 18 -42 18t-42 -18t-17 -43t17 -43t42 -18t42 18t17 43t-17 43zM475 253v242h75v-495h-75v97q-75 -107 -196 -107q-93 0 -146 53.5t-53 155.5v296h75v-280
q0 -159 142 -159q67 0 123 50q55 49 55 147z" />
    <glyph glyph-name="Uhungarumlaut" unicode="&#x170;" horiz-adv-x="785" 
d="M394 900h96l-161 -131h-64zM661 900l-161 -131h-64l129 131h96zM616 307v393h79v-403q0 -179 -133 -262q-70 -45 -170 -45q-146 0 -224 89t-78 218v403h78v-393q0 -50 12.5 -94t38.5 -79.5t70 -56.5t103 -21q114 0 169 72q55 71 55 179z" />
    <glyph glyph-name="uhungarumlaut" unicode="&#x171;" horiz-adv-x="630" 
d="M309 735h89l-140 -161h-56zM564 735l-140 -161h-56l107 161h89zM475 253v242h75v-495h-75v97q-75 -107 -196 -107q-93 0 -146 53.5t-53 155.5v296h75v-280q0 -159 142 -159q67 0 123 50q55 49 55 147z" />
    <glyph glyph-name="Uogonek" unicode="&#x172;" horiz-adv-x="785" 
d="M616 307v393h79v-403q0 -109 -57 -192q-59 -83 -167 -107q-100 -55 -100 -120q0 -54 50 -54q25 0 54 12v-49q-36 -17 -72 -17q-47 0 -74 25.5t-27 67.5q0 68 89 127q-145 0 -223 89t-78 218v403h78v-393q0 -50 12.5 -94t38.5 -79.5t70 -56.5t103 -21q114 0 169 72
q55 71 55 179z" />
    <glyph glyph-name="uogonek" unicode="&#x173;" horiz-adv-x="630" 
d="M475 253v242h75v-495h-14q-104 -54 -104 -122q0 -54 50 -54q26 0 54 12v-49q-36 -17 -72 -17q-47 0 -74 25.5t-27 67.5q0 80 112 141v93q-75 -107 -196 -107q-93 0 -146 53.5t-53 155.5v296h75v-280q0 -159 142 -159q67 0 123 50q55 49 55 147z" />
    <glyph glyph-name="Wcircumflex" unicode="&#x174;" horiz-adv-x="977" 
d="M562 769l-76 96l-76 -96h-87l135 131h56l134 -131h-86zM703 93l176 607h83l-213 -700h-87l-173 536l-173 -536h-87l-213 700h86l172 -607l178 555h73z" />
    <glyph glyph-name="wcircumflex" unicode="&#x175;" horiz-adv-x="852" 
d="M509 574l-83 120l-83 -120h-80l134 161h57l134 -161h-79zM608 97l151 398h79l-196 -495h-61l-155 379l-156 -379h-64l-192 495h83l147 -398l145 365h71h2z" />
    <glyph glyph-name="Ycircumflex" unicode="&#x176;" horiz-adv-x="693" 
d="M423 769l-76 96l-76 -96h-87l135 131h56l134 -131h-86zM591 700h87l-290 -406v-294h-78v294l-294 406h90l246 -341z" />
    <glyph glyph-name="ycircumflex" unicode="&#x177;" horiz-adv-x="551" 
d="M357 574l-83 120l-83 -120h-80l134 161h57l134 -161h-79zM283 94l177 401h82l-229 -495q-51 -109 -107 -165q-65 -65 -175 -65v69q73 0 119.5 40.5t91.5 133.5l-233 482h87z" />
    <glyph glyph-name="Ydieresis" unicode="&#x178;" horiz-adv-x="693" 
d="M278 793q-23 -23 -53.5 -10.5t-30.5 44.5q0 19 15 34t34 15q32 0 45 -30t-10 -53zM486 793q-23 -23 -53.5 -10.5t-30.5 44.5q0 19 15 34t34 15q32 0 45 -30t-10 -53zM591 700h87l-290 -406v-294h-78v294l-294 406h90l246 -341z" />
    <glyph glyph-name="Zacute" unicode="&#x179;" horiz-adv-x="653" 
d="M437 900h96l-161 -131h-64zM617 653l-475 -587h485v-66h-601v47l475 587h-455v66h571v-47z" />
    <glyph glyph-name="zacute" unicode="&#x17a;" horiz-adv-x="569" 
d="M311 574h-56l107 161h89zM41 0v44l349 390h-329v61h443v-44l-350 -390h364v-61h-477z" />
    <glyph glyph-name="Zdotaccent" unicode="&#x17b;" horiz-adv-x="653" 
d="M371 789q-23 -23 -55.5 -10.5t-32.5 46.5q-2 32 32 47.5t56 -10.5q15 -16 15 -37t-15 -36zM617 653l-475 -587h485v-66h-601v47l475 587h-455v66h571v-47z" />
    <glyph glyph-name="zdotaccent" unicode="&#x17c;" horiz-adv-x="569" 
d="M317 628q-23 -23 -55.5 -10.5t-32.5 46.5q-2 32 32 47.5t56 -10.5q15 -16 15 -37t-15 -36zM41 0v44l349 390h-329v61h443v-44l-350 -390h364v-61h-477z" />
    <glyph glyph-name="Zcaron" unicode="&#x17d;" horiz-adv-x="653" 
d="M496 900l-134 -131h-56l-135 131h87l76 -96l76 96h86zM617 653l-475 -587h485v-66h-601v47l475 587h-455v66h571v-47z" />
    <glyph glyph-name="zcaron" unicode="&#x17e;" horiz-adv-x="569" 
d="M443 735l-134 -161h-56l-135 161h80l83 -120l83 120h79zM504 451l-350 -390h364v-61h-477v44l349 390h-329v61h443v-44z" />
    <glyph glyph-name="Ohorn" unicode="&#x1a0;" horiz-adv-x="835" 
d="M840 665q0 -49 -28 -86t-76 -53q43 -80 43 -176q0 -151 -101 -255q-100 -105 -261 -105q-159 0 -260 105q-101 104 -101 255q0 150 101 256q101 104 260 104q90 0 164.5 -35.5t123.5 -100.5q63 16 63 91q0 17 -3 34h73q2 -30 2 -34zM417 56q124 0 200 85q77 85 77 209
t-77 210q-77 84 -200 84t-199 -84q-77 -86 -77 -210t77 -209q76 -85 199 -85z" />
    <glyph glyph-name="ohorn" unicode="&#x1a1;" horiz-adv-x="713" 
d="M683 460q0 -52 -31 -90.5t-85 -52.5q8 -37 8 -69q0 -117 -76 -187q-77 -71 -186 -71t-186 71q-76 70 -76 187t76 187t186 70q76 0 139 -36.5t96 -99.5q63 17 63 91q0 18 -3 34h73q2 -30 2 -34zM184 104q51 -53 129 -53t129 53q51 52 51 144t-51 144t-129 52t-129 -53
q-52 -52 -52 -143q0 -92 52 -144z" />
    <glyph glyph-name="Uhorn" unicode="&#x1af;" horiz-adv-x="876" 
d="M797 700h73q2 -30 2 -34q0 -67 -49 -109t-128 -42v-218q0 -179 -133 -262q-70 -45 -170 -45q-146 0 -224 89t-78 218v403h78v-393q0 -50 12.5 -94t38.5 -79.5t70 -56.5t103 -21q114 0 169 72q55 71 55 179v393h79v-130q105 0 105 96q0 18 -3 34z" />
    <glyph glyph-name="uhorn" unicode="&#x1b0;" horiz-adv-x="751" 
d="M652 494h73q2 -30 2 -34q0 -67 -49 -109t-128 -42v-309h-75v97q-75 -107 -196 -107q-93 0 -146 53.5t-53 155.5v296h75v-280q0 -159 142 -159q67 0 123 50q55 49 55 147v242h75v-131q105 0 105 96q0 18 -3 34z" />
    <glyph glyph-name="uni01CD" unicode="&#x1cd;" 
d="M529 900l-134 -131h-56l-135 131h87l76 -96l76 96h86zM709 0h-87l-90 212h-343l-91 -212h-82l302 700h88zM361 613l-144 -336h287z" />
    <glyph glyph-name="uni01CE" unicode="&#x1ce;" horiz-adv-x="565" 
d="M443 735l-134 -161h-56l-135 161h80l83 -120l83 120h79zM518 50q5 0 23 2v-58q-20 -4 -38 -4q-46 0 -75.5 25.5t-35.5 63.5q-62 -89 -185 -89q-76 0 -121.5 35.5t-45.5 97.5q0 81 73 126.5t217 45.5q7 0 53 -2v14q0 73 -30 104.5t-101 31.5q-86 0 -166 -39v70
q92 31 175 31q96 0 145 -44.5t49 -143.5v-195q0 -72 63 -72zM222 48q62 0 111 37q50 38 50 98v59q-13 1 -54 1q-213 0 -213 -112q0 -39 29 -61t77 -22z" />
    <glyph glyph-name="uni01CF" unicode="&#x1cf;" horiz-adv-x="268" 
d="M297 900l-134 -131h-56l-135 131h87l76 -96l76 96h86zM173 0h-78v700h78v-700z" />
    <glyph glyph-name="uni01D0" unicode="&#x1d0;" horiz-adv-x="235" 
d="M280 735l-134 -161h-56l-135 161h80l83 -120l83 120h79zM155 0h-75v495h75v-495z" />
    <glyph glyph-name="uni01D1" unicode="&#x1d1;" horiz-adv-x="835" 
d="M579 900l-134 -131h-56l-135 131h87l76 -96l76 96h86zM157 606q101 104 260 104q160 0 261 -104q101 -106 101 -256q0 -151 -101 -255q-100 -105 -261 -105q-159 0 -260 105q-101 104 -101 255q0 150 101 256zM417 56q124 0 200 85q77 85 77 209t-77 210q-77 84 -200 84
t-199 -84q-77 -86 -77 -210t77 -209q76 -85 199 -85z" />
    <glyph glyph-name="uni01D2" unicode="&#x1d2;" horiz-adv-x="625" 
d="M475 735l-134 -161h-56l-135 161h80l83 -120l83 120h79zM313 505q110 0 186 -70t76 -187t-76 -187q-77 -71 -186 -71t-186 71q-76 70 -76 187t76 187t186 70zM184 104q51 -53 129 -53t129 53q51 52 51 144t-51 144t-129 52t-129 -53q-52 -52 -52 -143q0 -92 52 -144z" />
    <glyph glyph-name="uni01D3" unicode="&#x1d3;" horiz-adv-x="785" 
d="M554 900l-134 -131h-56l-135 131h87l76 -96l76 96h86zM616 307v393h79v-403q0 -179 -133 -262q-70 -45 -170 -45q-146 0 -224 89t-78 218v403h78v-393q0 -50 12.5 -94t38.5 -79.5t70 -56.5t103 -21q114 0 169 72q55 71 55 179z" />
    <glyph glyph-name="uni01D4" unicode="&#x1d4;" horiz-adv-x="630" 
d="M477 735l-134 -161h-56l-135 161h80l83 -120l83 120h79zM475 253v242h75v-495h-75v97q-75 -107 -196 -107q-93 0 -146 53.5t-53 155.5v296h75v-280q0 -159 142 -159q67 0 123 50q55 49 55 147z" />
    <glyph glyph-name="uni01D5" unicode="&#x1d5;" horiz-adv-x="785" 
d="M232 991h320v-57h-320v57zM239 827q0 19 14.5 34t34.5 15t34.5 -14.5t14.5 -34.5t-14.5 -34.5t-34.5 -14.5t-34.5 14.5t-14.5 34.5zM447 827q0 19 14.5 34t34.5 15t34.5 -14.5t14.5 -34.5t-14.5 -34.5t-34.5 -14.5t-34.5 14.5t-14.5 34.5zM616 307v393h79v-403
q0 -179 -133 -262q-70 -45 -170 -45q-146 0 -224 89t-78 218v403h78v-393q0 -50 12.5 -94t38.5 -79.5t70 -56.5t103 -21q114 0 169 72q55 71 55 179z" />
    <glyph glyph-name="uni01D6" unicode="&#x1d6;" horiz-adv-x="630" 
d="M155 852h320v-57h-320v57zM177 632q-23 22 -10.5 52.5t44.5 30.5t45 -30.5t-10 -52.5q-15 -15 -35 -15t-34 15zM385 632q-23 22 -10.5 52.5t44.5 30.5t45 -30.5t-10 -52.5q-15 -15 -35 -15t-34 15zM475 253v242h75v-495h-75v97q-75 -107 -196 -107q-93 0 -146 53.5
t-53 155.5v296h75v-280q0 -159 142 -159q67 0 123 50q55 49 55 147z" />
    <glyph glyph-name="uni01D7" unicode="&#x1d7;" horiz-adv-x="785" 
d="M495 1042h96l-161 -131h-64zM323 793q-23 -23 -53.5 -10.5t-30.5 44.5t30.5 44.5t53.5 -9.5q14 -15 14 -35t-14 -34zM447 827q0 19 14.5 34t34.5 15t34.5 -14.5t14.5 -34.5t-14.5 -34.5t-34.5 -14.5t-34.5 14.5t-14.5 34.5zM616 307v393h79v-403q0 -179 -133 -262
q-70 -45 -170 -45q-146 0 -224 89t-78 218v403h78v-393q0 -50 12.5 -94t38.5 -79.5t70 -56.5t103 -21q114 0 169 72q55 71 55 179z" />
    <glyph glyph-name="uni01D8" unicode="&#x1d8;" horiz-adv-x="630" 
d="M396 901h89l-140 -161h-56zM246 632q-23 -23 -53.5 -10.5t-30.5 44.5q0 20 15 34.5t34 14.5q32 0 45 -30.5t-10 -52.5zM385 632q-23 22 -10.5 52.5t44.5 30.5t45 -30.5t-10 -52.5q-15 -15 -35 -15t-34 15zM475 253v242h75v-495h-75v97q-75 -107 -196 -107
q-93 0 -146 53.5t-53 155.5v296h75v-280q0 -159 142 -159q67 0 123 50q55 49 55 147z" />
    <glyph glyph-name="uni01D9" unicode="&#x1d9;" horiz-adv-x="785" 
d="M554 1042l-134 -131h-56l-135 131h87l76 -96l76 96h86zM239 827q0 19 14.5 34t34.5 15t34.5 -14.5t14.5 -34.5t-14.5 -34.5t-34.5 -14.5t-34.5 14.5t-14.5 34.5zM447 827q0 19 14.5 34t34.5 15t34.5 -14.5t14.5 -34.5t-14.5 -34.5t-34.5 -14.5t-34.5 14.5t-14.5 34.5z
M616 307v393h79v-403q0 -179 -133 -262q-70 -45 -170 -45q-146 0 -224 89t-78 218v403h78v-393q0 -50 12.5 -94t38.5 -79.5t70 -56.5t103 -21q114 0 169 72q55 71 55 179z" />
    <glyph glyph-name="uni01DA" unicode="&#x1da;" horiz-adv-x="630" 
d="M477 901l-134 -161h-56l-135 161h80l83 -120l83 120h79zM177 632q-23 22 -10.5 52.5t44.5 30.5t45 -30.5t-10 -52.5q-15 -15 -35 -15t-34 15zM385 632q-23 22 -10.5 52.5t44.5 30.5t45 -30.5t-10 -52.5q-15 -15 -35 -15t-34 15zM475 253v242h75v-495h-75v97
q-75 -107 -196 -107q-93 0 -146 53.5t-53 155.5v296h75v-280q0 -159 142 -159q67 0 123 50q55 49 55 147z" />
    <glyph glyph-name="uni01DB" unicode="&#x1db;" horiz-adv-x="785" 
d="M332 1042l129 -131h-64l-161 131h96zM239 827q0 19 14.5 34t34.5 15t34.5 -14.5t14.5 -34.5t-14.5 -34.5t-34.5 -14.5t-34.5 14.5t-14.5 34.5zM531 793q-23 -23 -53.5 -10.5t-30.5 44.5t30.5 44.5t53.5 -9.5q14 -15 14 -35t-14 -34zM616 307v393h79v-403
q0 -179 -133 -262q-70 -45 -170 -45q-146 0 -224 89t-78 218v403h78v-393q0 -50 12.5 -94t38.5 -79.5t70 -56.5t103 -21q114 0 169 72q55 71 55 179z" />
    <glyph glyph-name="uni01DC" unicode="&#x1dc;" horiz-adv-x="630" 
d="M257 901l107 -161h-56l-140 161h89zM246 632q-23 -23 -53.5 -10.5t-30.5 44.5q0 20 15 34.5t34 14.5q32 0 45 -30.5t-10 -52.5zM454 632q-23 -23 -53.5 -10.5t-30.5 44.5q0 20 15 34.5t34 14.5q32 0 45 -30.5t-10 -52.5zM475 253v242h75v-495h-75v97q-75 -107 -196 -107
q-93 0 -146 53.5t-53 155.5v296h75v-280q0 -159 142 -159q67 0 123 50q55 49 55 147z" />
    <glyph glyph-name="AEacute" unicode="&#x1fc;" horiz-adv-x="1051" 
d="M667 940h89l-140 -161h-56zM552 334v-268h438v-66h-506h-10v212h-283l-93 -212h-82l307 700h161h68h428v-66h-428v-235h398v-65h-398zM376 634l-157 -357h255v357h-98z" />
    <glyph glyph-name="aeacute" unicode="&#x1fd;" horiz-adv-x="931" 
d="M541 735h89l-140 -161h-56zM646 52v-1q125 0 158 103h71q-19 -78 -79.5 -121t-149.5 -43q-74 0 -135 33.5t-94 92.5q-27 -58 -80 -92t-126 -34q-78 0 -124.5 35.5t-46.5 97.5q0 87 86.5 134.5t256.5 40.5v9q0 71 -31.5 103.5t-101.5 32.5q-65 0 -164 -39v70q92 31 173 31
q139 0 179 -93q75 93 206 93q111 0 173.5 -61.5t62.5 -187.5h-415v-8h1q0 -90 51 -143t129 -53zM644 448q-66 0 -111.5 -36.5t-60.5 -102.5h324q-3 67 -42.5 103t-109.5 36zM223 48q64 0 112 39t48 100v59q-151 6 -212 -31q-54 -34 -54 -84q0 -39 29 -61t77 -22z" />
    <glyph glyph-name="Scommaaccent" unicode="&#x218;" horiz-adv-x="669" 
d="M164 520q0 -38 24.5 -64.5t64 -40.5t86.5 -25t94.5 -24.5t87 -33t64 -56t24.5 -88.5q0 -93 -74 -146q-74 -52 -196 -52q-120 0 -194 51.5t-84 150.5h77q9 -69 61.5 -102.5t136.5 -33.5q85 0 136 32.5t51 90.5q0 26 -13 47.5t-32 34.5t-52 25.5t-58.5 19.5t-66.5 17
t-63 16q-69 19 -112.5 63.5t-43.5 110.5q0 92 74 145q73 52 184 52q108 0 177.5 -51.5t82.5 -140.5h-78q-13 60 -59.5 93.5t-120.5 33.5q-78 0 -128 -34.5t-50 -90.5zM334 -250h-48l29 154h68z" />
    <glyph glyph-name="scommaaccent" unicode="&#x219;" horiz-adv-x="521" 
d="M142 370q0 -20 12 -34.5t37 -24.5t47 -16t59.5 -14.5t56.5 -13.5q52 -14 84 -46t32 -80q0 -74 -61.5 -112.5t-166.5 -38.5q-98 0 -181 34v70q85 -42 181 -42q67 0 108.5 21.5t41.5 59.5q0 19 -12.5 32.5t-37 23t-47.5 16t-59 14.5t-57 14q-52 15 -84 47.5t-32 80.5
q0 69 57.5 106.5t159.5 37.5q88 0 171 -31v-66q-95 39 -173 39q-64 0 -100 -20.5t-36 -56.5zM254 -250h-48l29 154h68z" />
    <glyph glyph-name="uni021A" unicode="&#x21a;" horiz-adv-x="670" 
d="M374 700h280v-66h-280v-634h-78v634h-280v66h358zM322 -250h-48l29 154h68z" />
    <glyph glyph-name="uni021B" unicode="&#x21b;" horiz-adv-x="452" 
d="M401 493v-61h-201v-262q0 -118 107 -118q52 0 94 19v-63q-44 -18 -103 -18q-79 0 -126 42.5t-47 122.5v277h-98v61h98v115l75 32v-147h201zM261 -250h-48l29 154h68z" />
    <glyph glyph-name="Alphatonos" unicode="&#x386;" 
d="M709 0h-87l-90 212h-343l-91 -212h-82l302 700h88zM125 700h85l-82 -161h-53zM361 613l-144 -336h287z" />
    <glyph glyph-name="Epsilontonos" unicode="&#x388;" horiz-adv-x="775" 
d="M68 539h-53l50 161h85zM276 334v-268h438v-66h-506h-10v700h78h428v-66h-428v-235h398v-65h-398z" />
    <glyph glyph-name="Etatonos" unicode="&#x389;" horiz-adv-x="928" 
d="M68 539h-53l50 161h85zM759 399v301h78v-700h-78v334h-478v-334h-78v700h78v-301h478z" />
    <glyph glyph-name="Iotatonos" unicode="&#x38a;" horiz-adv-x="357" 
d="M53 539h-53l50 161h85zM183 0v700h78v-700h-78z" />
    <glyph glyph-name="Omicrontonos" unicode="&#x38c;" horiz-adv-x="882" 
d="M204 606q101 104 260 104q160 0 261 -104q101 -106 101 -256q0 -151 -101 -255q-101 -105 -261 -105t-260 105q-101 104 -101 255q0 150 101 256zM53 539h-53l50 161h85zM464 56q124 0 200 85q77 85 77 209t-77 210q-77 84 -200 84q-122 0 -199 -84q-77 -86 -77 -210
t77 -209q76 -85 199 -85z" />
    <glyph glyph-name="Upsilontonos" unicode="&#x38e;" horiz-adv-x="806" 
d="M14 539h-53l50 161h85zM704 700h87l-290 -406v-294h-78v294l-294 406h90l246 -341z" />
    <glyph glyph-name="Omegatonos" unicode="&#x38f;" horiz-adv-x="927" 
d="M664 61l207 5v-66h-306v58q92 36 146.5 119t54.5 191q0 130 -78 204q-78 72 -201 72t-201 -72q-79 -73 -79 -204q0 -108 56 -191q56 -84 146 -119v-58h-306v66l207 -5q-87 45 -137.5 126.5t-50.5 184.5q0 153 104 246q104 92 261 92t261 -92q104 -93 104 -246
q0 -103 -50.5 -184.5t-137.5 -126.5zM-1 539l50 161h85l-82 -161h-53z" />
    <glyph glyph-name="iotadieresistonos" unicode="&#x390;" horiz-adv-x="278" 
d="M131 764h77l-75 -162h-52zM11 715q20 0 34.5 -14.5t14.5 -34.5t-14.5 -34.5t-34.5 -14.5t-34.5 14.5t-14.5 34.5t15 34.5t34 14.5zM218 701q14 14 34 14t35 -14q14 -15 14 -35t-14 -34q-15 -15 -35 -15t-34 15q-15 14 -15 34t15 35zM155 495v-361q0 -84 74 -84q1 0 25 2
v-58q-17 -4 -42 -4q-65 0 -98.5 38t-33.5 106v361h75z" />
    <glyph glyph-name="Alpha" unicode="&#x391;" 
d="M709 0h-87l-90 212h-343l-91 -212h-82l302 700h88zM361 613l-144 -336h287z" />
    <glyph glyph-name="Beta" unicode="&#x392;" horiz-adv-x="729" 
d="M515 367q163 -37 163 -178q0 -89 -72 -139q-74 -50 -184 -50h-322h-10v700h78h224q117 0 183 -45.5t66 -135.5q0 -50 -33.5 -90t-92.5 -62zM377 634h-209v-238h221q83 0 127 30.5t44 85.5q0 122 -183 122zM168 66h238q184 0 184 127q0 71 -50 104t-150 33h-222v-264z" />
    <glyph glyph-name="Gamma" unicode="&#x393;" horiz-adv-x="600" 
d="M168 700h417v-66h-417v-634h-78v700h78z" />
    <glyph glyph-name="uni0394" unicode="&#x394;" 
d="M317 700h88l304 -700h-87h-537h-69zM359 613l-233 -547h468z" />
    <glyph glyph-name="Epsilon" unicode="&#x395;" horiz-adv-x="671" 
d="M173 334v-268h438v-66h-506h-10v700h78h428v-66h-428v-235h398v-65h-398z" />
    <glyph glyph-name="Zeta" unicode="&#x396;" horiz-adv-x="653" 
d="M617 653l-475 -587h485v-66h-601v47l475 587h-455v66h571v-47z" />
    <glyph glyph-name="Eta" unicode="&#x397;" horiz-adv-x="815" 
d="M646 399v301h78v-700h-78v334h-478v-334h-78v700h78v-301h478z" />
    <glyph glyph-name="Theta" unicode="&#x398;" horiz-adv-x="835" 
d="M413 710q161 0 262 -104q100 -104 100 -256t-100 -255q-101 -105 -262 -105t-262 105q-100 103 -100 255t100 256q101 104 262 104zM413 56q125 0 203 86q77 86 77 208q0 123 -77 209q-78 85 -203 85q-127 0 -203 -85q-78 -85 -78 -209q0 -122 78 -208q77 -86 203 -86z
M556 326h-274v57h274v-57z" />
    <glyph glyph-name="Iota" unicode="&#x399;" horiz-adv-x="268" 
d="M95 0v700h78v-700h-78z" />
    <glyph glyph-name="Kappa" unicode="&#x39a;" horiz-adv-x="723" 
d="M168 0h-78v700h78v-700zM702 700l-364 -334l383 -366h-101l-382 362l370 338h94z" />
    <glyph glyph-name="Lambda" unicode="&#x39b;" 
d="M317 700h88l304 -700h-87l-263 613l-261 -613h-82z" />
    <glyph glyph-name="Mu" unicode="&#x39c;" horiz-adv-x="932" 
d="M466 185l319 515h62v-700h-79v525l-287 -457h-31l-287 457v-525h-78v700h62z" />
    <glyph glyph-name="Nu" unicode="&#x39d;" horiz-adv-x="828" 
d="M660 141v559h78v-700h-60l-510 560v-560h-78v700h60z" />
    <glyph glyph-name="Xi" unicode="&#x39e;" horiz-adv-x="703" 
d="M643 634h-583v66h583v-66zM534 334h-365v65h365v-65zM643 0h-583v66h583v-66z" />
    <glyph glyph-name="Omicron" unicode="&#x39f;" horiz-adv-x="835" 
d="M157 606q101 104 260 104q160 0 261 -104q101 -106 101 -256q0 -151 -101 -255q-100 -105 -261 -105q-159 0 -260 105q-101 104 -101 255q0 150 101 256zM417 56q124 0 200 85q77 85 77 209t-77 210q-77 84 -200 84t-199 -84q-77 -86 -77 -210t77 -209q76 -85 199 -85z
" />
    <glyph glyph-name="Pi" unicode="&#x3a0;" horiz-adv-x="795" 
d="M168 0h-78v700h615v-700h-79v634h-458v-634z" />
    <glyph glyph-name="Rho" unicode="&#x3a1;" horiz-adv-x="675" 
d="M173 700h199q124 0 195.5 -53t71.5 -156t-71.5 -155.5t-195.5 -52.5h-199v-283h-78v700h78zM173 348h182q102 0 152.5 34.5t50.5 108.5q0 76 -50.5 109.5t-152.5 33.5h-182v-286z" />
    <glyph glyph-name="Sigma" unicode="&#x3a3;" horiz-adv-x="635" 
d="M386 360l-239 -294h462v-66h-583v34l261 326l-261 306v34h573v-66h-448z" />
    <glyph glyph-name="Tau" unicode="&#x3a4;" horiz-adv-x="670" 
d="M374 700h280v-66h-280v-634h-78v634h-280v66h358z" />
    <glyph glyph-name="Upsilon" unicode="&#x3a5;" horiz-adv-x="693" 
d="M591 700h87l-290 -406v-294h-78v294l-294 406h90l246 -341z" />
    <glyph glyph-name="Phi" unicode="&#x3a6;" horiz-adv-x="837" 
d="M451 750v-96q149 -4 240 -81q91 -76 91 -203t-91 -203q-91 -77 -240 -81v-106h-71v106q-145 5 -234 82q-90 76 -90 202q0 125 90 203q90 77 234 81v96h71zM380 147v446q-111 -4 -174.5 -63t-63.5 -160t63.5 -160t174.5 -63zM451 593v-446q114 4 179 63t65 160t-65 160
t-179 63z" />
    <glyph glyph-name="Chi" unicode="&#x3a7;" horiz-adv-x="701" 
d="M397 360l288 -360h-97l-243 304l-232 -304h-97l285 359l-273 341h97l228 -286l218 286h95z" />
    <glyph glyph-name="Psi" unicode="&#x3a8;" horiz-adv-x="813" 
d="M698 481v219h79v-224q0 -125 -92 -193q-91 -67 -243 -72v-211h-71v211q-151 5 -243 72q-92 68 -92 193v224h78v-219q0 -100 67.5 -152t189.5 -56v427h71v-427q122 4 189 56t67 152z" />
    <glyph glyph-name="uni03A9" unicode="&#x3a9;" horiz-adv-x="880" 
d="M617 61l207 5v-66h-306v58q92 36 146.5 119t54.5 191q0 130 -78 204q-78 72 -201 72t-201 -72q-79 -73 -79 -204q0 -108 56 -191q56 -84 146 -119v-58h-306v66l207 -5q-87 45 -137.5 126.5t-50.5 184.5q0 153 104 246q104 92 261 92t261 -92q104 -93 104 -246
q0 -103 -50.5 -184.5t-137.5 -126.5z" />
    <glyph glyph-name="Iotadieresis" unicode="&#x3aa;" horiz-adv-x="268" 
d="M66 793q-23 -23 -53.5 -10.5t-30.5 44.5q0 19 15 34t34 15q32 0 45 -30t-10 -53zM274 793q-23 -23 -53.5 -10.5t-30.5 44.5q0 19 15 34t34 15q32 0 45 -30t-10 -53zM95 0v700h78v-700h-78z" />
    <glyph glyph-name="Upsilondieresis" unicode="&#x3ab;" horiz-adv-x="693" 
d="M278 793q-23 -23 -53.5 -10.5t-30.5 44.5q0 19 15 34t34 15q32 0 45 -30t-10 -53zM486 793q-23 -23 -53.5 -10.5t-30.5 44.5q0 19 15 34t34 15q32 0 45 -30t-10 -53zM591 700h87l-290 -406v-294h-78v294l-294 406h90l246 -341z" />
    <glyph glyph-name="alphatonos" unicode="&#x3ac;" horiz-adv-x="672" 
d="M348 735h85l-82 -161h-52zM626 50q4 0 22 2v-58q-20 -4 -37 -4q-51 0 -85.5 28t-37.5 71q-29 -45 -78 -72t-111 -27q-106 0 -177 68q-72 68 -72 190t72 190q71 68 177 68q61 0 110.5 -26t77.5 -71v86h72v-373q0 -72 67 -72zM309 52q71 0 125 51q53 51 53 145t-53 145
q-54 51 -125 51q-74 0 -125 -52q-52 -52 -52 -144t52 -144q51 -52 125 -52z" />
    <glyph glyph-name="epsilontonos" unicode="&#x3ad;" horiz-adv-x="532" 
d="M311 735h85l-82 -161h-52zM287 51q111 0 195 42v-69q-78 -34 -196 -34q-110 0 -173 36t-63 104q0 90 108 122q-98 35 -98 115q0 138 225 138q100 0 187 -31v-69q-96 39 -187 39q-70 0 -108 -21.5t-38 -62.5t41 -61q42 -20 151 -20v-50v-4q-109 0 -156 -21.5t-47 -67.5
q0 -85 159 -85z" />
    <glyph glyph-name="etatonos" unicode="&#x3ae;" horiz-adv-x="640" 
d="M344 735h85l-82 -161h-52zM560 296v-296q0 -145 20 -220h-75q-20 75 -20 220v280q0 159 -142 159q-74 2 -130.5 -49t-57.5 -148v-242h-75v495h75v-97q75 107 203 107q97 0 149.5 -52.5t52.5 -156.5z" />
    <glyph glyph-name="iotatonos" unicode="&#x3af;" horiz-adv-x="278" 
d="M142 735h85l-82 -161h-52zM229 50q1 0 25 2v-58q-17 -4 -42 -4q-65 0 -98.5 38t-33.5 106v361h75v-361q0 -84 74 -84z" />
    <glyph glyph-name="upsilondieresistonos" unicode="&#x3b0;" horiz-adv-x="617" 
d="M295 764h77l-75 -162h-52zM210 632q-23 -23 -53.5 -10.5t-30.5 44.5q0 20 15 34.5t34 14.5q32 0 45 -30.5t-10 -52.5zM451 632q-15 -15 -35 -15t-34 15q-15 14 -15 34t15 35q14 14 34 14t35 -14q14 -15 14 -35t-14 -34zM419 495h82q55 -120 55 -272q0 -233 -240 -233
q-110 0 -173 53t-63 155v77q0 145 -20 220h75q20 -75 20 -220v-61q0 -158 161 -158q83 0 124 43t41 137q0 121 -62 259z" />
    <glyph glyph-name="alpha" unicode="&#x3b1;" horiz-adv-x="672" 
d="M626 50q4 0 22 2v-58q-20 -4 -37 -4q-51 0 -85.5 28t-37.5 71q-29 -45 -78 -72t-111 -27q-106 0 -177 68q-72 68 -72 190t72 190q71 68 177 68q61 0 110.5 -26t77.5 -71v86h72v-373q0 -72 67 -72zM309 52q71 0 125 51q53 51 53 145t-53 145q-54 51 -125 51
q-74 0 -125 -52q-52 -52 -52 -144t52 -144q51 -52 125 -52z" />
    <glyph glyph-name="beta" unicode="&#x3b2;" horiz-adv-x="657" 
d="M445 396q161 -48 161 -188q0 -103 -73 -160q-73 -58 -182 -58q-130 0 -196 97v-87q0 -145 20 -220h-75q-20 75 -20 220v544q0 95 68 151q67 55 172 55q104 0 175 -51q70 -51 70 -136q0 -119 -120 -167zM342 51q83 0 133 40t50 113q0 158 -234 158v53v8q199 0 199 140
q0 56 -47.5 91t-122.5 35q-76 0 -120.5 -41t-44.5 -113v-287q0 -95 50.5 -146t136.5 -51z" />
    <glyph glyph-name="gamma" unicode="&#x3b3;" horiz-adv-x="540" 
d="M456 495h75q0 -223 -214 -495q2 -125 -18 -220h-75q19 84 17 215q-3 244 -232 500h87q79 -88 136 -196q56 -111 68 -221q72 92 114 204q42 111 42 213z" />
    <glyph glyph-name="delta" unicode="&#x3b4;" horiz-adv-x="625" 
d="M219 618q0 -19 9 -35t29 -30t38 -23.5t50.5 -25.5t51.5 -26q38 -21 60 -35.5t48.5 -41t43.5 -58.5q26 -52 26 -116q0 -107 -75 -171q-76 -66 -187 -66q-112 0 -187 66q-75 64 -75 171q0 166 193 239q-53 28 -78 60.5t-25 80.5q0 66 51.5 104.5t133.5 38.5q70 0 161 -32
v-66q-93 40 -160 40q-50 0 -79 -20.5t-29 -53.5zM183 99q51 -48 130 -48t130 48q50 47 50 129q-5 100 -76 150q-40 27 -100 54q-185 -56 -185 -204q0 -82 51 -129z" />
    <glyph glyph-name="epsilon" unicode="&#x3b5;" horiz-adv-x="532" 
d="M287 51q111 0 195 42v-69q-78 -34 -196 -34q-110 0 -173 36t-63 104q0 90 108 122q-98 35 -98 115q0 138 225 138q100 0 187 -31v-69q-96 39 -187 39q-70 0 -108 -21.5t-38 -62.5t41 -61q42 -20 151 -20v-50v-4q-109 0 -156 -21.5t-47 -67.5q0 -85 159 -85z" />
    <glyph glyph-name="zeta" unicode="&#x3b6;" horiz-adv-x="513" 
d="M499 700v-43q-189 -121 -278 -219.5t-89 -200.5q0 -49 20 -81.5t52.5 -47t72 -24t78.5 -17.5t71.5 -21.5t52.5 -43t20 -75.5q0 -70 -49 -122h-68q49 59 49 113q0 20 -8.5 35.5t-18.5 24.5t-33 17.5t-37.5 11.5t-46.5 9.5t-46 9.5q-42 10 -64.5 17.5t-51.5 25.5t-46 45
q-28 41 -28 107q0 126 106 238q96 100 239 187l-335 -8v62h438z" />
    <glyph glyph-name="eta" unicode="&#x3b7;" horiz-adv-x="640" 
d="M560 296v-296q0 -145 20 -220h-75q-20 75 -20 220v280q0 159 -142 159q-74 2 -130.5 -49t-57.5 -148v-242h-75v495h75v-97q75 107 203 107q97 0 149.5 -52.5t52.5 -156.5z" />
    <glyph glyph-name="theta" unicode="&#x3b8;" horiz-adv-x="635" 
d="M318 750q112 0 187 -95t75 -285t-75 -285t-187 -95q-113 0 -187 95q-75 95 -75 285q0 192 75 286q73 94 187 94zM446 618q-53 71 -128 71t-128 -71q-53 -73 -59 -214h373q-6 143 -58 214zM187 126q53 -75 131 -75t131 75q51 74 56 226h-375q4 -151 57 -226z" />
    <glyph glyph-name="iota" unicode="&#x3b9;" horiz-adv-x="278" 
d="M229 50q1 0 25 2v-58q-17 -4 -42 -4q-65 0 -98.5 38t-33.5 106v361h75v-361q0 -84 74 -84z" />
    <glyph glyph-name="kappa" unicode="&#x3ba;" horiz-adv-x="588" 
d="M155 0h-75v495h75v-495zM545 495l-235 -229l258 -266h-96l-253 262l233 233h93z" />
    <glyph glyph-name="lambda" unicode="&#x3bb;" horiz-adv-x="598" 
d="M566 50q6 0 16 2v-58q-12 -4 -31 -4q-55 0 -89.5 37.5t-66.5 118.5l-109 257l-188 -403h-82l234 482q-43 89 -89 132q-45 42 -123 42v69q108 0 169 -57q62 -57 116 -173l154 -349q22 -49 36 -68q20 -28 53 -28z" />
    <glyph glyph-name="uni03BC" unicode="&#x3bc;" horiz-adv-x="630" 
d="M475 250v245h75v-495h-75v97q-75 -107 -190 -107q-79 0 -130 42v-32q0 -145 20 -220h-75q-20 75 -20 220v495h75v-278q0 -78 40 -119.5t103 -41.5q67 0 122 51q55 49 55 143z" />
    <glyph glyph-name="nu" unicode="&#x3bd;" horiz-adv-x="551" 
d="M457 495h75q0 -223 -213 -495h-66l-244 495h87l197 -413q75 98 119 205q45 109 45 208z" />
    <glyph glyph-name="xi" unicode="&#x3be;" horiz-adv-x="513" 
d="M61 638v62h438v-46q-185 -8 -258 -52q-65 -41 -65 -94q0 -119 283 -104v-58v-2q-170 -1 -248.5 -37t-78.5 -107q0 -26 11 -45.5t26 -31.5t43.5 -21.5t48.5 -14t56.5 -11t52.5 -9.5q58 -12 93.5 -46.5t35.5 -93.5q0 -70 -49 -122h-68q49 59 49 113q0 17 -5 30t-17 22.5
t-22.5 16t-31.5 12t-34 8.5t-40.5 8t-39.5 7q-46 10 -65.5 15t-49.5 20.5t-47 38.5q-28 35 -28 94q0 136 180 184q-131 35 -131 126q0 100 165 143z" />
    <glyph glyph-name="omicron" unicode="&#x3bf;" horiz-adv-x="625" 
d="M313 505q110 0 186 -70t76 -187t-76 -187q-77 -71 -186 -71t-186 71q-76 70 -76 187t76 187t186 70zM184 104q51 -53 129 -53t129 53q51 52 51 144t-51 144t-129 52t-129 -53q-52 -52 -52 -143q0 -92 52 -144z" />
    <glyph glyph-name="pi" unicode="&#x3c0;" horiz-adv-x="668" 
d="M593 50q1 0 25 2v-58q-17 -4 -42 -4q-65 0 -98.5 38t-33.5 106v300h-238q-7 -230 -76 -434h-75q74 221 83 434h-97v61h166h312h89v-61h-89v-300q0 -84 74 -84z" />
    <glyph glyph-name="rho" unicode="&#x3c1;" horiz-adv-x="642" 
d="M591 248h1q0 -122 -71 -190q-73 -68 -178 -68q-61 0 -110.5 26t-77.5 71v-307h-75v468q0 122 74 190q73 67 186 67q111 0 181 -67t70 -190zM333 52q74 0 126 52q51 52 51 144q0 93 -47.5 144.5t-124.5 51.5q-81 0 -132 -51.5t-51 -144.5q0 -94 54 -145q53 -51 124 -51z
" />
    <glyph glyph-name="uni03C2" unicode="&#x3c2;" horiz-adv-x="578" 
d="M127 268q0 -52 22.5 -88t59 -54t80 -30t87 -22.5t80 -25.5t59 -45.5t22.5 -75.5q0 -70 -49 -122h-68q49 59 49 113q0 33 -23.5 54.5t-60.5 32t-82 20t-90.5 24.5t-82.5 38.5t-60.5 69t-23.5 110.5q0 113 75 176q74 62 187 62v1q90 0 150.5 -45.5t79.5 -126.5h-72
q-35 110 -158 110q-83 0 -132 -45.5t-49 -130.5z" />
    <glyph glyph-name="sigma" unicode="&#x3c3;" horiz-adv-x="643" 
d="M313 495h305v-61h-151q108 -58 108 -201q0 -107 -77 -175t-185 -68q-109 0 -186 71q-76 70 -76 187q0 118 75 183q73 64 187 64zM493 248q0 91 -48.5 138.5t-131.5 47.5q-84 0 -132.5 -47.5t-48.5 -138.5h1q0 -90 51 -143t129 -53v-1q80 0 130 53t50 144z" />
    <glyph glyph-name="tau" unicode="&#x3c4;" horiz-adv-x="503" 
d="M478 495v-61h-203v-300q0 -84 74 -84q1 0 25 2v-58q-17 -4 -42 -4q-65 0 -98.5 38t-33.5 106v300h-176v61h251h203z" />
    <glyph glyph-name="upsilon" unicode="&#x3c5;" horiz-adv-x="617" 
d="M419 495h82q55 -120 55 -272q0 -233 -240 -233q-110 0 -173 53t-63 155v77q0 145 -20 220h75q20 -75 20 -220v-61q0 -158 161 -158q83 0 124 43t41 137q0 121 -62 259z" />
    <glyph glyph-name="phi" unicode="&#x3c6;" horiz-adv-x="807" 
d="M545 505q99 0 156 -67q56 -68 56 -170q0 -132 -92 -203q-93 -70 -233 -75v-210h-68v210q-136 4 -224 73q-89 69 -89 195q0 110 82 179q83 68 185 68v-57q-74 -3 -132 -53q-58 -49 -58 -137q0 -101 62.5 -154t173.5 -56v259q0 95 49 146.5t132 51.5zM432 307v-259
q115 3 181 58t66 162q0 84 -36 132t-104 48q-50 0 -78.5 -35.5t-28.5 -105.5z" />
    <glyph glyph-name="chi" unicode="&#x3c7;" horiz-adv-x="626" 
d="M580 -168q10 0 20 3v-58q-18 -7 -41 -7q-67 0 -106 65l-148 243l-174 -298h-80l213 365l-152 249q-17 29 -31 40.5t-33 11.5q-10 0 -22 -3v58q21 4 41 4q67 0 104 -63l152 -249l174 302h80l-214 -369l149 -244q32 -50 68 -50z" />
    <glyph glyph-name="psi" unicode="&#x3c8;" horiz-adv-x="798" 
d="M611 495h81q56 -138 56 -247q0 -125 -84.5 -189.5t-239.5 -68.5v-210h-68v210q-134 4 -219 66q-86 62 -86 179v260h77v-260q0 -179 228 -187v652h68v-652q124 3 185 50t61 150q0 115 -59 247z" />
    <glyph glyph-name="omega" unicode="&#x3c9;" horiz-adv-x="862" 
d="M677 495h81q53 -133 53 -272q0 -116 -55.5 -174.5t-151.5 -58.5q-58 0 -104 27t-70 77q-24 -50 -70 -77t-102 -27q-96 0 -151.5 58.5t-55.5 174.5q0 139 53 272h81q-59 -135 -59 -259q0 -180 146 -180q126 0 126 159q0 81 -9 151h65h19q-9 -70 -9 -151q0 -159 127 -159
q145 0 145 180q0 124 -59 259z" />
    <glyph glyph-name="iotadieresis" unicode="&#x3ca;" horiz-adv-x="278" 
d="M-21 701q15 14 35 14t35 -14q14 -15 14 -35t-14 -34q-15 -15 -35 -15t-35 15q-14 14 -14 34t14 35zM188 701q14 14 34 14t35 -14q14 -15 14 -35t-14 -34q-15 -15 -35 -15t-34 15q-15 14 -15 34t15 35zM155 495v-361q0 -84 74 -84q1 0 25 2v-58q-17 -4 -42 -4
q-65 0 -98.5 38t-33.5 106v361h75z" />
    <glyph glyph-name="upsilondieresis" unicode="&#x3cb;" horiz-adv-x="617" 
d="M213 632q-15 -15 -35 -15t-34 15q-15 14 -15 34t15 35q14 14 34 14t35 -14q14 -15 14 -35t-14 -34zM421 632q-15 -15 -35 -15t-34 15q-15 14 -15 34t15 35q14 14 34 14t35 -14q14 -15 14 -35t-14 -34zM419 495h82q55 -120 55 -272q0 -233 -240 -233q-110 0 -173 53
t-63 155v77q0 145 -20 220h75q20 -75 20 -220v-61q0 -158 161 -158q83 0 124 43t41 137q0 121 -62 259z" />
    <glyph glyph-name="omicrontonos" unicode="&#x3cc;" horiz-adv-x="625" 
d="M340 574h-52l49 161h85zM313 505q110 0 186 -70t76 -187t-76 -187q-77 -71 -186 -71t-186 71q-76 70 -76 187t76 187t186 70zM184 104q51 -53 129 -53t129 53q51 52 51 144t-51 144t-129 52t-129 -53q-52 -52 -52 -143q0 -92 52 -144z" />
    <glyph glyph-name="upsilontonos" unicode="&#x3cd;" horiz-adv-x="617" 
d="M306 735h85l-82 -161h-52zM419 495h82q55 -120 55 -272q0 -233 -240 -233q-110 0 -173 53t-63 155v77q0 145 -20 220h75q20 -75 20 -220v-61q0 -158 161 -158q83 0 124 43t41 137q0 121 -62 259z" />
    <glyph glyph-name="omegatonos" unicode="&#x3ce;" horiz-adv-x="862" 
d="M455 735h85l-82 -161h-52zM677 495h81q53 -133 53 -272q0 -116 -55.5 -174.5t-151.5 -58.5q-58 0 -104 27t-70 77q-24 -50 -70 -77t-102 -27q-96 0 -151.5 58.5t-55.5 174.5q0 139 53 272h81q-59 -135 -59 -259q0 -180 146 -180q126 0 126 159q0 81 -9 151h65h19
q-9 -70 -9 -151q0 -159 127 -159q145 0 145 180q0 124 -59 259z" />
    <glyph glyph-name="uni0401" unicode="&#x401;" horiz-adv-x="671" 
d="M287 793q-23 -23 -53.5 -10.5t-30.5 44.5t30.5 44.5t53.5 -9.5q14 -15 14 -35t-14 -34zM495 793q-23 -23 -53.5 -10.5t-30.5 44.5t30.5 44.5t53.5 -9.5q14 -15 14 -35t-14 -34zM173 334v-268h438v-66h-506h-10v700h78h428v-66h-428v-235h398v-65h-398z" />
    <glyph glyph-name="uni0402" unicode="&#x402;" horiz-adv-x="859" 
d="M374 406h193q109 0 183 -57q73 -58 73 -146q0 -89 -72 -146t-177 -57h-85v66h70q83 0 129.5 36.5t46.5 100.5t-48.5 100.5t-135.5 36.5h-177v-340h-78v406v228h-280v66h358h280v-66h-280v-228z" />
    <glyph glyph-name="uni0403" unicode="&#x403;" horiz-adv-x="600" 
d="M424 900h96l-161 -131h-64zM168 700h417v-66h-417v-634h-78v700h78z" />
    <glyph glyph-name="uni0404" unicode="&#x404;" horiz-adv-x="781" 
d="M422 56q78 0 138.5 38t86.5 112h78q-29 -105 -110 -160.5t-193 -55.5q-160 0 -260 105q-101 104 -101 255q0 150 101 256q101 104 260 104q112 0 193 -55.5t110 -160.5h-78q-26 74 -86.5 112t-138.5 38q-112 0 -185 -70q-75 -72 -88 -179h402v-65h-404q6 -119 82 -196
q75 -78 193 -78z" />
    <glyph glyph-name="uni0405" unicode="&#x405;" horiz-adv-x="669" 
d="M164 520q0 -38 24.5 -64.5t64 -40.5t86.5 -25t94.5 -24.5t87 -33t64 -56t24.5 -88.5q0 -93 -74 -146q-74 -52 -196 -52q-120 0 -194 51.5t-84 150.5h77q9 -69 61.5 -102.5t136.5 -33.5q85 0 136 32.5t51 90.5q0 26 -13 47.5t-32 34.5t-52 25.5t-58.5 19.5t-66.5 17
t-63 16q-69 19 -112.5 63.5t-43.5 110.5q0 92 74 145q73 52 184 52q108 0 177.5 -51.5t82.5 -140.5h-78q-13 60 -59.5 93.5t-120.5 33.5q-78 0 -128 -34.5t-50 -90.5z" />
    <glyph glyph-name="uni0406" unicode="&#x406;" horiz-adv-x="268" 
d="M95 0v700h78v-700h-78z" />
    <glyph glyph-name="uni0407" unicode="&#x407;" horiz-adv-x="268" 
d="M66 793q-23 -23 -53.5 -10.5t-30.5 44.5q0 19 15 34t34 15q32 0 45 -30t-10 -53zM274 793q-23 -23 -53.5 -10.5t-30.5 44.5q0 19 15 34t34 15q32 0 45 -30t-10 -53zM95 0v700h78v-700h-78z" />
    <glyph glyph-name="uni0408" unicode="&#x408;" horiz-adv-x="466" 
d="M297 157v543h79v-554q0 -69 -50 -112.5t-128 -43.5t-125 44t-47 118h75q0 -45 26 -70.5t71 -25.5q46 0 72.5 26.5t26.5 74.5z" />
    <glyph glyph-name="uni0409" unicode="&#x409;" horiz-adv-x="1099" 
d="M628 406h199q109 0 182 -57q73 -58 73 -146q0 -89 -73 -146t-182 -57h-266h-11v634h-259q-4 -335 -56 -490q-52 -154 -172 -154q-28 0 -47 10v62q15 -5 24 -5q94 0 133.5 152.5t40.5 490.5h405h9v-294zM628 66h183q88 0 136 36t48 101q0 64 -48.5 100.5t-135.5 36.5h-183
v-274z" />
    <glyph glyph-name="uni040A" unicode="&#x40a;" horiz-adv-x="1053" 
d="M583 406h199q108 0 182 -57q73 -58 73 -146q0 -89 -73 -146q-74 -57 -182 -57h-266h-11v340h-337v-340h-78v405v295h78v-295h337v295h78v-294zM583 66h183q88 0 136 36t48 101q0 64 -48.5 100.5t-135.5 36.5h-183v-274z" />
    <glyph glyph-name="uni040B" unicode="&#x40b;" horiz-adv-x="909" 
d="M587 423q262 0 262 -214v-209h-85v211q0 74 -49.5 110t-138.5 36q-116 0 -202 -51v-306h-78v634h-280v66h358h280v-66h-280v-256q94 45 213 45z" />
    <glyph glyph-name="uni040C" unicode="&#x40c;" horiz-adv-x="709" 
d="M447 900h96l-161 -131h-64zM683 57q10 0 25 5v-62q-19 -10 -47 -10q-52 0 -82.5 33t-52.5 103l-33 107q-15 52 -44 76t-91 24h-190v-333h-78v700h78v-301h190q63 0 92 22t41 68l24 92q18 67 48 98t83 31q29 0 45 -10v-62q-22 5 -25 5q-31 0 -48.5 -17.5t-26.5 -55.5
l-22 -86q-15 -56 -35 -82.5t-58 -35.5q38 -9 60 -39.5t38 -87.5l29 -102q23 -80 80 -80z" />
    <glyph glyph-name="uni040E" unicode="&#x40e;" horiz-adv-x="692" 
d="M465 800q-41 -38 -112 -38t-112 38t-48 104h49q22 -85 111 -85t111 85h49q-7 -66 -48 -104zM359 286l230 414h87l-287 -505q-59 -104 -131 -153t-174 -49v69q75 0 130.5 35.5t102.5 113.5l-301 489h90z" />
    <glyph glyph-name="uni040F" unicode="&#x40f;" horiz-adv-x="785" 
d="M616 66v634h78v-700h-78h-187l-6 -161h-60l-6 161h-257h-10v700h78v-634h263h185z" />
    <glyph glyph-name="uni0410" unicode="&#x410;" 
d="M709 0h-87l-90 212h-343l-91 -212h-82l302 700h88zM361 613l-144 -336h287z" />
    <glyph glyph-name="uni0411" unicode="&#x411;" 
d="M168 406h250q110 0 183 -57q73 -58 73 -146q0 -89 -73 -146t-183 -57h-319h-9v700h78h457v-66h-457v-228zM168 66h234q88 0 136 36t48 101q0 64 -48.5 100.5t-135.5 36.5h-234v-274z" />
    <glyph glyph-name="uni0412" unicode="&#x412;" horiz-adv-x="729" 
d="M515 367q163 -37 163 -178q0 -89 -72 -139q-74 -50 -184 -50h-322h-10v700h78h224q117 0 183 -45.5t66 -135.5q0 -50 -33.5 -90t-92.5 -62zM377 634h-209v-238h221q83 0 127 30.5t44 85.5q0 122 -183 122zM168 66h238q184 0 184 127q0 71 -50 104t-150 33h-222v-264z" />
    <glyph glyph-name="uni0413" unicode="&#x413;" horiz-adv-x="600" 
d="M168 700h417v-66h-417v-634h-78v700h78z" />
    <glyph glyph-name="uni0414" unicode="&#x414;" horiz-adv-x="784" 
d="M675 66h93v-227h-59l-12 161h-100h-510l-12 -161h-59v227h84q53 41 75.5 194.5t23.5 439.5h476h1v-66h-1v-568zM191 66h406v568h-321q-8 -459 -85 -568z" />
    <glyph glyph-name="uni0415" unicode="&#x415;" horiz-adv-x="671" 
d="M173 334v-268h438v-66h-506h-10v700h78h428v-66h-428v-235h398v-65h-398z" />
    <glyph glyph-name="uni0416" unicode="&#x416;" horiz-adv-x="959" 
d="M933 57q9 0 24 5v-62q-17 -10 -46 -10q-52 0 -83.5 33.5t-51.5 102.5l-32 107q-14 52 -43 76t-91 24h-94v-333h-72v333h-94q-63 0 -92.5 -24.5t-42.5 -75.5l-32 -107q-20 -69 -51.5 -102.5t-83.5 -33.5q-29 0 -46 10v62q15 -5 24 -5q60 0 80 80l28 102q15 56 37.5 87
t60.5 40q-40 9 -60 36.5t-33 81.5l-19 80q-15 79 -77 79q-3 0 -25 -5v62q16 10 45 10q103 0 133 -135l20 -86q10 -46 39.5 -68t94.5 -22h94v301h72v-301h94q64 0 93 22t39 68l21 86q30 135 133 135q28 0 44 -10v-62q-22 5 -24 5q-62 0 -77 -79l-19 -80q-13 -54 -33 -81.5
t-60 -36.5q38 -9 60.5 -40t37.5 -87l28 -102q8 -37 29 -58.5t51 -21.5z" />
    <glyph glyph-name="uni0417" unicode="&#x417;" horiz-adv-x="678" 
d="M443 362q179 -44 179 -179q0 -91 -78 -142q-80 -51 -201 -51q-126 0 -200.5 56t-86.5 160h81q9 -72 61.5 -111.5t144.5 -39.5q88 0 141 35t53 93q0 68 -69 107t-195 39v51v13q248 0 248 125q0 58 -47 92.5t-131 34.5q-83 0 -132 -39t-58 -108h-78q13 102 83 157t185 55
q120 0 189.5 -48.5t69.5 -136.5q0 -57 -40.5 -99t-118.5 -64z" />
    <glyph glyph-name="uni0418" unicode="&#x418;" horiz-adv-x="828" 
d="M168 127l510 573h60v-700h-78v573l-510 -573h-60v700h78v-573z" />
    <glyph glyph-name="uni0419" unicode="&#x419;" horiz-adv-x="828" 
d="M524 800q-41 -38 -112 -38t-112 38t-48 104h49q22 -85 111 -85t111 85h49q-7 -66 -48 -104zM168 127l510 573h60v-700h-78v573l-510 -573h-60v700h78v-573z" />
    <glyph glyph-name="uni041A" unicode="&#x41a;" horiz-adv-x="709" 
d="M683 57q10 0 25 5v-62q-19 -10 -47 -10q-52 0 -82.5 33t-52.5 103l-33 107q-15 52 -44 76t-91 24h-190v-333h-78v700h78v-301h190q63 0 92 22t41 68l24 92q18 67 48 98t83 31q29 0 45 -10v-62q-22 5 -25 5q-31 0 -48.5 -17.5t-26.5 -55.5l-22 -86q-15 -56 -35 -82.5
t-58 -35.5q38 -9 60 -39.5t38 -87.5l29 -102q23 -80 80 -80z" />
    <glyph glyph-name="uni041B" unicode="&#x41b;" horiz-adv-x="752" 
d="M214 700h448v-700h-78v634h-293q-4 -331 -58 -489q-53 -155 -170 -155q-28 0 -47 10v62q15 -5 24 -5q95 0 134 151q38 150 40 492z" />
    <glyph glyph-name="uni041C" unicode="&#x41c;" horiz-adv-x="932" 
d="M466 185l319 515h62v-700h-79v525l-287 -457h-31l-287 457v-525h-78v700h62z" />
    <glyph glyph-name="uni041D" unicode="&#x41d;" horiz-adv-x="815" 
d="M646 399v301h78v-700h-78v334h-478v-334h-78v700h78v-301h478z" />
    <glyph glyph-name="uni041E" unicode="&#x41e;" horiz-adv-x="835" 
d="M157 606q101 104 260 104q160 0 261 -104q101 -106 101 -256q0 -151 -101 -255q-100 -105 -261 -105q-159 0 -260 105q-101 104 -101 255q0 150 101 256zM417 56q124 0 200 85q77 85 77 209t-77 210q-77 84 -200 84t-199 -84q-77 -86 -77 -210t77 -209q76 -85 199 -85z
" />
    <glyph glyph-name="uni041F" unicode="&#x41f;" horiz-adv-x="795" 
d="M168 0h-78v700h615v-700h-79v634h-458v-634z" />
    <glyph glyph-name="uni0420" unicode="&#x420;" horiz-adv-x="675" 
d="M173 700h199q124 0 195.5 -53t71.5 -156t-71.5 -155.5t-195.5 -52.5h-199v-283h-78v700h78zM173 348h182q102 0 152.5 34.5t50.5 108.5q0 76 -50.5 109.5t-152.5 33.5h-182v-286z" />
    <glyph glyph-name="uni0421" unicode="&#x421;" horiz-adv-x="781" 
d="M422 56q78 0 138.5 38t86.5 112h78q-29 -105 -110 -160.5t-193 -55.5q-160 0 -260 105q-101 104 -101 255q0 150 101 256q101 104 260 104q112 0 193 -55.5t110 -160.5h-78q-26 74 -86.5 112t-138.5 38q-122 0 -199 -84q-77 -86 -77 -210t77 -209q76 -85 199 -85z" />
    <glyph glyph-name="uni0422" unicode="&#x422;" horiz-adv-x="670" 
d="M374 700h280v-66h-280v-634h-78v634h-280v66h358z" />
    <glyph glyph-name="uni0423" unicode="&#x423;" horiz-adv-x="692" 
d="M359 286l230 414h87l-287 -505q-59 -104 -131 -153t-174 -49v69q75 0 130.5 35.5t102.5 113.5l-301 489h90z" />
    <glyph glyph-name="uni0424" unicode="&#x424;" horiz-adv-x="819" 
d="M444 720v-95q139 -4 229 -75t90 -200q0 -130 -90 -200q-90 -71 -229 -75v-95h-72v95q-138 5 -226 75q-90 70 -90 200t90 200q88 70 226 75v95h72zM372 136v428q-108 -4 -170.5 -58.5t-62.5 -155.5t62.5 -155.5t170.5 -58.5zM444 564v-428q110 4 173 58t63 156t-63 156
t-173 58z" />
    <glyph glyph-name="uni0425" unicode="&#x425;" horiz-adv-x="701" 
d="M397 360l288 -360h-97l-243 304l-232 -304h-97l285 359l-273 341h97l228 -286l218 286h95z" />
    <glyph glyph-name="uni0426" unicode="&#x426;" horiz-adv-x="798" 
d="M684 66h98v-227h-59l-12 161h-105h-506h-10v700h78v-634h438v634h78v-634z" />
    <glyph glyph-name="uni0427" unicode="&#x427;" horiz-adv-x="697" 
d="M529 388v312h78v-700h-78v316q-99 -44 -227 -44q-142 0 -214 52.5t-72 168.5v207h85v-206q0 -157 212 -157q131 0 216 51z" />
    <glyph glyph-name="uni0428" unicode="&#x428;" horiz-adv-x="1029" 
d="M860 66v634h78v-700h-78h-385h-375h-10v700h78v-634h307v634h78v-634h307z" />
    <glyph glyph-name="uni0429" unicode="&#x429;" horiz-adv-x="1055" 
d="M938 66h98v-227h-59l-12 161h-105h-385h-383h-2v700h78v-634h307v634h78v-634h307v634h78v-634z" />
    <glyph glyph-name="uni042A" unicode="&#x42a;" horiz-adv-x="828" 
d="M306 406h250q110 0 183 -57q73 -58 73 -146q0 -89 -73 -146t-183 -57h-319h-9v634h-212v66h280h10v-294zM306 66h234q88 0 136 36t48 101q0 64 -48.5 100.5t-135.5 36.5h-234v-274z" />
    <glyph glyph-name="uni042B" unicode="&#x42b;" horiz-adv-x="926" 
d="M168 406h199q109 0 182 -57q73 -58 73 -146q0 -89 -73 -146t-182 -57h-266h-11v700h78v-294zM753 0v700h78v-700h-78zM168 66h183q88 0 136 36t48 101q0 64 -48.5 100.5t-135.5 36.5h-183v-274z" />
    <glyph glyph-name="uni042C" unicode="&#x42c;" horiz-adv-x="680" 
d="M158 406h250q110 0 183 -57q73 -58 73 -146q0 -89 -73 -146t-183 -57h-319h-9v700h78v-294zM158 66h234q88 0 136 36t48 101q0 64 -48.5 100.5t-135.5 36.5h-234v-274z" />
    <glyph glyph-name="uni042D" unicode="&#x42d;" horiz-adv-x="781" 
d="M377 710q161 0 252 -103t91 -257t-91 -257t-252 -103q-118 0 -203.5 55.5t-117.5 160.5h78q29 -75 92.5 -112.5t150.5 -37.5q118 0 185 78q67 76 73 196h-405v65h403q-14 110 -79 180q-68 69 -177 69q-87 0 -150.5 -37.5t-92.5 -112.5h-78q32 105 117.5 160.5t203.5 55.5
z" />
    <glyph glyph-name="uni042E" unicode="&#x42e;" horiz-adv-x="1086" 
d="M698 710q147 0 240 -104q93 -105 93 -256q0 -152 -93 -255q-93 -105 -240 -105q-141 0 -232 97q-92 97 -99 240h-199v-327h-78v700h78v-308h200q14 136 104 227t226 91zM522 143q70 -87 176 -87t177 87q70 85 70 207t-70 208q-71 86 -177 86q-105 0 -176 -86
q-71 -88 -71 -208q0 -121 71 -207z" />
    <glyph glyph-name="uni042F" unicode="&#x42f;" horiz-adv-x="711" 
d="M356 700h265v-700h-78v302h-165q-66 0 -111 -28t-54 -72l-17 -76q-28 -136 -134 -136q-29 0 -46 10v62q15 -5 24 -5q30 0 51 22t28 58l17 71q18 87 95 119q-141 42 -141 174q0 99 70 149t196 50zM374 368h169v266h-169q-105 0 -153.5 -31t-48.5 -102t48.5 -102t153.5 -31
z" />
    <glyph glyph-name="uni0430" unicode="&#x430;" horiz-adv-x="565" 
d="M518 50q5 0 23 2v-58q-20 -4 -38 -4q-46 0 -75.5 25.5t-35.5 63.5q-62 -89 -185 -89q-76 0 -121.5 35.5t-45.5 97.5q0 81 73 126.5t217 45.5q7 0 53 -2v14q0 73 -30 104.5t-101 31.5q-86 0 -166 -39v70q92 31 175 31q96 0 145 -44.5t49 -143.5v-195q0 -72 63 -72zM222 48
q62 0 111 37q50 38 50 98v59q-13 1 -54 1q-213 0 -213 -112q0 -39 29 -61t77 -22z" />
    <glyph glyph-name="uni0431" unicode="&#x431;" horiz-adv-x="604" 
d="M314 465q105 0 178 -65q71 -65 71 -172q0 -102 -77 -170q-79 -68 -185 -68q-109 0 -179 64q-71 65 -71 171q0 262 79 360q42 52 102.5 77t157.5 32q39 2 52 10.5t18 35.5h58q0 -60 -28.5 -83t-92.5 -26q-93 -6 -151 -32q-38 -18 -63 -47q-58 -71 -68 -205q61 118 199 118
zM176 98q49 -47 125 -47q77 0 129 49t52 128q0 80 -49 127.5t-126 47.5q-75 0 -128 -45q-53 -47 -53 -133q2 -81 50 -127z" />
    <glyph glyph-name="uni0432" unicode="&#x432;" horiz-adv-x="609" 
d="M462 253q96 -31 96 -114q0 -67 -56 -103t-160 -36h-262v224v214v57h248q210 0 210 -136q0 -73 -76 -106zM320 438h-166v-161h166q72 0 106 19.5t34 61.5t-34 61t-106 19zM154 57h180q147 0 147 86q0 42 -36 61.5t-111 19.5h-180v-167z" />
    <glyph glyph-name="uni0433" unicode="&#x433;" horiz-adv-x="518" 
d="M155 495h338v-61h-338v-434h-75v495h75z" />
    <glyph glyph-name="uni0434" unicode="&#x434;" horiz-adv-x="682" 
d="M552 61h105v-222h-52l-12 161h-115h-390l-12 -161h-52v222h69h9q32 40 45 141.5t14 292.5h386h5v-434zM177 61h301v373h-247q-4 -289 -54 -373z" />
    <glyph glyph-name="uni0435" unicode="&#x435;" horiz-adv-x="598" 
d="M313 52v-1q125 0 158 103h71q-19 -78 -79.5 -121t-149.5 -43q-109 0 -186 71q-76 70 -76 187q0 119 76 188q77 69 184 69q111 0 173.5 -61.5t62.5 -187.5h-415v-8h1q0 -90 51 -143t129 -53zM311 448q-66 0 -111.5 -36.5t-60.5 -102.5h324q-3 67 -42.5 103t-109.5 36z" />
    <glyph glyph-name="uni0436" unicode="&#x436;" horiz-adv-x="899" 
d="M830 50q13 0 28 5v-55q-24 -10 -58 -10q-46 0 -70 26t-39 84l-13 55q-19 79 -104 79h-91v-234h-67v234h-91q-85 0 -104 -79l-13 -55q-13 -57 -38 -83.5t-70 -26.5q-35 0 -59 10v55q15 -5 28 -5q27 0 40.5 13.5t21.5 47.5l12 49q23 93 85 106q-35 8 -53 26t-27 55l-10 45
q-7 30 -21 41.5t-42 11.5q-16 0 -29 -5v55q21 10 50 10q100 0 117 -99l8 -44q7 -37 30 -51.5t74 -14.5h91v199h67v-199h91q51 0 74 14.5t30 51.5l8 44q10 52 37.5 75.5t79.5 23.5q29 0 50 -10v-55q-13 5 -29 5q-28 0 -42 -11.5t-21 -41.5l-10 -45q-9 -37 -27 -55t-53 -26
q64 -13 85 -106l12 -49q8 -34 21.5 -47.5t40.5 -13.5z" />
    <glyph glyph-name="uni0437" unicode="&#x437;" horiz-adv-x="532" 
d="M374 252q108 -32 108 -122q0 -68 -63 -104t-173 -36q-118 0 -196 34v69q84 -42 195 -42q159 0 159 85q0 46 -47 67.5t-156 21.5v46v8q110 0 152 20q40 19 40 61q0 41 -38 62.5t-108 21.5q-91 0 -187 -39v69q87 31 187 31q225 0 225 -138q0 -80 -98 -115z" />
    <glyph glyph-name="uni0438" unicode="&#x438;" horiz-adv-x="640" 
d="M155 108l347 387h58v-495h-75v387l-347 -387h-58v495h75v-387z" />
    <glyph glyph-name="uni0439" unicode="&#x439;" horiz-adv-x="640" 
d="M436 732h49q-15 -155 -160 -155t-160 155h49q11 -52 37 -75t74 -23t74 23t37 75zM155 108l347 387h58v-495h-75v387l-347 -387h-58v495h75v-387z" />
    <glyph glyph-name="uni043A" unicode="&#x43a;" horiz-adv-x="638" 
d="M569 50q12 0 29 5v-55q-26 -10 -59 -10q-46 0 -70 26t-39 84l-13 55q-11 44 -38 61q-29 18 -103 18h-121v-234h-75v495h75v-199h121q76 0 106 14q27 13 35 52l9 44q17 99 117 99q27 0 50 -10v-55q-15 5 -30 5q-28 0 -42 -11.5t-21 -41.5l-10 -45q-9 -37 -27 -55t-53 -26
q63 -13 86 -106l11 -49q8 -34 21.5 -47.5t40.5 -13.5z" />
    <glyph glyph-name="uni043B" unicode="&#x43b;" horiz-adv-x="646" 
d="M168 495h398v-495h-75v434h-252q-1 -106 -10 -193q-7 -76 -27 -136q-35 -115 -139 -115q-28 0 -47 10v55q15 -5 24 -5q80 0 104 98q23 98 24 347z" />
    <glyph glyph-name="uni043C" unicode="&#x43c;" horiz-adv-x="769" 
d="M384 151l247 344h58v-495h-75v360l-215 -301h-30l-215 301v-360h-74v495h58z" />
    <glyph glyph-name="uni043D" unicode="&#x43d;" horiz-adv-x="640" 
d="M485 296v199h75v-495h-75v234h-330v-234h-75v495h75v-199h330z" />
    <glyph glyph-name="uni043E" unicode="&#x43e;" horiz-adv-x="625" 
d="M313 505q110 0 186 -70t76 -187t-76 -187q-77 -71 -186 -71t-186 71q-76 70 -76 187t76 187t186 70zM184 104q51 -53 129 -53t129 53q51 52 51 144t-51 144t-129 52t-129 -53q-52 -52 -52 -143q0 -92 52 -144z" />
    <glyph glyph-name="uni043F" unicode="&#x43f;" horiz-adv-x="640" 
d="M155 495h405v-495h-75v434h-330v-434h-75v495h75z" />
    <glyph glyph-name="uni0440" unicode="&#x440;" horiz-adv-x="642" 
d="M343 506q105 0 178 -68q71 -68 71 -190t-71 -190q-73 -68 -178 -68q-61 0 -110.5 26t-77.5 71v-307h-75v715h75v-86q28 45 77.5 71t110.5 26zM333 52q74 0 126 52q51 52 51 144t-51 144q-52 52 -126 52q-71 0 -124 -51q-54 -51 -54 -145t54 -145q53 -51 124 -51z" />
    <glyph glyph-name="uni0441" unicode="&#x441;" horiz-adv-x="578" 
d="M309 51q58 0 99 28.5t58 81.5h71q-19 -81 -79.5 -126t-148.5 -45q-110 0 -187 71q-76 70 -76 187t76 187t187 70q88 0 148.5 -45t79.5 -126h-71q-17 53 -58 81.5t-99 28.5q-79 0 -130 -52q-52 -52 -52 -144q0 -90 50.5 -143.5t131.5 -53.5z" />
    <glyph glyph-name="uni0442" unicode="&#x442;" horiz-adv-x="562" 
d="M319 495h209v-61h-209v-434h-75v434h-210v61h285z" />
    <glyph glyph-name="uni0443" unicode="&#x443;" horiz-adv-x="551" 
d="M283 94l177 401h82l-229 -495q-51 -109 -107 -165q-65 -65 -175 -65v69q73 0 119.5 40.5t91.5 133.5l-233 482h87z" />
    <glyph glyph-name="uni0444" unicode="&#x444;" horiz-adv-x="784" 
d="M426 740v-235q138 -5 223 -70q84 -67 84 -187t-84 -187q-84 -66 -223 -71v-210h-68v210q-139 5 -222 71q-85 67 -85 187t85 187q83 65 222 70v235h68zM358 48v400q-230 -8 -230 -200q0 -97 59.5 -147t170.5 -53zM426 448v-400q111 3 170.5 53t59.5 147q0 95 -59.5 145.5
t-170.5 54.5z" />
    <glyph glyph-name="uni0445" unicode="&#x445;" horiz-adv-x="579" 
d="M463 495h89l-215 -247l215 -248h-93l-176 204l-168 -204h-89l216 251l-211 244h92l173 -200z" />
    <glyph glyph-name="uni0446" unicode="&#x446;" horiz-adv-x="648" 
d="M550 61h83v-222h-52l-12 161h-94h-385h-10v495h75v-434h320v434h75v-434z" />
    <glyph glyph-name="uni0447" unicode="&#x447;" horiz-adv-x="600" 
d="M445 294v201h75v-495h-75v229q-79 -47 -188 -47q-99 0 -152.5 46t-53.5 138v129h75v-106q0 -78 35.5 -109.5t116.5 -31.5q94 0 167 46z" />
    <glyph glyph-name="uni0448" unicode="&#x448;" horiz-adv-x="950" 
d="M795 61v434h75v-495h-75h-358h-347h-10v495h75v-434h282v434h75v-434h283z" />
    <glyph glyph-name="uni0449" unicode="&#x449;" horiz-adv-x="968" 
d="M870 61h83v-222h-52l-12 161h-29h-348h-357h-75v495h75v-434h282v434h75v-434h283v434h75v-434z" />
    <glyph glyph-name="uni044A" unicode="&#x44a;" horiz-adv-x="719" 
d="M275 296h187q105 0 161 -37.5t56 -108.5q0 -150 -217 -150h-261v235v199h-167v61h241v-199zM275 60h179q76 0 111.5 21t35.5 69q0 45 -35.5 65t-111.5 20h-179v-175z" />
    <glyph glyph-name="uni044B" unicode="&#x44b;" horiz-adv-x="800" 
d="M151 296h155q105 0 160.5 -37.5t55.5 -108.5q0 -74 -55.5 -112t-160.5 -38h-229v235v260h74v-199zM645 0v495h75v-495h-75zM151 60h147q76 0 111.5 21t35.5 69q0 45 -35.5 65t-111.5 20h-147v-175z" />
    <glyph glyph-name="uni044C" unicode="&#x44c;" horiz-adv-x="598" 
d="M154 296h187q105 0 161 -37.5t56 -108.5q0 -150 -217 -150h-261v235v260h74v-199zM154 60h179q76 0 111.5 21t35.5 69q0 45 -35.5 65t-111.5 20h-179v-175z" />
    <glyph glyph-name="uni044D" unicode="&#x44d;" horiz-adv-x="568" 
d="M275 505q109 0 181 -69q72 -70 72 -188t-72 -188q-71 -70 -181 -70q-88 0 -153.5 45.5t-85.5 124.5h71q18 -52 63 -80.5t105 -28.5q75 0 122 46.5t52 131.5h-267v53h266q-9 77 -55 119.5t-118 42.5q-60 0 -105 -28.5t-63 -80.5h-71q20 79 85.5 124.5t153.5 45.5z" />
    <glyph glyph-name="uni044E" unicode="&#x44e;" horiz-adv-x="822" 
d="M523 505q107 0 178 -70q71 -71 71 -187t-71 -187q-73 -71 -178 -71q-103 0 -173 66q-72 67 -76 178h-119v-234h-75v495h75v-206h122q12 99 81 158q68 58 165 58zM402 103q46 -52 121 -52t121 52q46 50 46 145t-46 145q-46 51 -121 51t-121 -51q-46 -50 -46 -145t46 -145z
" />
    <glyph glyph-name="uni044F" unicode="&#x44f;" horiz-adv-x="646" 
d="M317 495h249v-495h-74v206h-136q-76 0 -100 -11q-23 -11 -35 -53l-13 -42q-21 -63 -43 -86.5t-66 -23.5q-33 0 -59 10v55q17 -5 29 -5q26 0 39 13.5t23 47.5l12 36q21 65 54 81q-97 31 -97 124q0 143 217 143zM325 267h167v168h-167q-78 0 -112.5 -19t-34.5 -64
q0 -47 34 -66t113 -19z" />
    <glyph glyph-name="uni0451" unicode="&#x451;" horiz-adv-x="598" 
d="M230 632q-23 -23 -53.5 -10.5t-30.5 44.5q0 20 15 34.5t34 14.5q32 0 45 -30.5t-10 -52.5zM438 632q-23 -23 -53.5 -10.5t-30.5 44.5q0 20 15 34.5t34 14.5q32 0 45 -30.5t-10 -52.5zM313 52v-1q125 0 158 103h71q-19 -78 -79.5 -121t-149.5 -43q-109 0 -186 71
q-76 70 -76 187q0 119 76 188q77 69 184 69q111 0 173.5 -61.5t62.5 -187.5h-415v-8h1q0 -90 51 -143t129 -53zM311 448q-66 0 -111.5 -36.5t-60.5 -102.5h324q-3 67 -42.5 103t-109.5 36z" />
    <glyph glyph-name="uni0452" unicode="&#x452;" horiz-adv-x="640" 
d="M358 505q97 0 149.5 -52.5t52.5 -156.5v-349q0 -79 -54 -128t-148 -49v61q127 0 127 130v319q0 159 -142 159q-74 2 -130.5 -49t-57.5 -148v-242h-75v580h-111v56h111v104h75v-104h149v-56h-149v-182q75 107 203 107z" />
    <glyph glyph-name="uni0453" unicode="&#x453;" horiz-adv-x="518" 
d="M334 735h89l-140 -161h-56zM155 495h338v-61h-338v-434h-75v495h75z" />
    <glyph glyph-name="uni0454" unicode="&#x454;" horiz-adv-x="578" 
d="M308 51q127 0 158 109h71q-18 -81 -78 -125.5t-151 -44.5q-109 0 -186 71q-76 70 -76 187t76 187t186 70q91 0 151 -44.5t78 -125.5h-71q-31 109 -158 109q-73 0 -123 -43t-60 -119h266v-53h-267q5 -83 56 -130.5t128 -47.5z" />
    <glyph glyph-name="uni0455" unicode="&#x455;" horiz-adv-x="521" 
d="M142 370q0 -20 12 -34.5t37 -24.5t47 -16t59.5 -14.5t56.5 -13.5q52 -14 84 -46t32 -80q0 -74 -61.5 -112.5t-166.5 -38.5q-98 0 -181 34v70q85 -42 181 -42q67 0 108.5 21.5t41.5 59.5q0 19 -12.5 32.5t-37 23t-47.5 16t-59 14.5t-57 14q-52 15 -84 47.5t-32 80.5
q0 69 57.5 106.5t159.5 37.5q88 0 171 -31v-66q-95 39 -173 39q-64 0 -100 -20.5t-36 -56.5z" />
    <glyph glyph-name="uni0456" unicode="&#x456;" horiz-adv-x="235" 
d="M154 628q-23 -23 -55.5 -10.5t-32.5 46.5q-2 32 32 47.5t56 -10.5q15 -16 15 -37t-15 -36zM155 0h-75v495h75v-495z" />
    <glyph glyph-name="uni0457" unicode="&#x457;" horiz-adv-x="235" 
d="M49 632q-15 -15 -35 -15t-35 15q-14 14 -14 34t14 35q15 14 35 14t35 -14q14 -15 14 -35t-14 -34zM257 632q-15 -15 -35 -15t-34 15q-15 14 -15 34t15 35q14 14 34 14t35 -14q14 -15 14 -35t-14 -34zM155 0h-75v495h75v-495z" />
    <glyph glyph-name="uni0458" unicode="&#x458;" horiz-adv-x="235" 
d="M154 628q-23 -23 -55.5 -10.5t-32.5 46.5q-2 32 32 47.5t56 -10.5q15 -16 15 -37t-15 -36zM80 -39v534h75v-548q0 -79 -54 -128t-148 -49v61q127 0 127 130z" />
    <glyph glyph-name="uni0459" unicode="&#x459;" horiz-adv-x="956" 
d="M545 296h155q105 0 160.5 -37.5t55.5 -108.5q0 -74 -55.5 -112t-160.5 -38h-229v235v199h-232q-1 -106 -10 -193q-7 -76 -27 -136q-35 -115 -139 -115q-28 0 -47 10v55q15 -5 24 -5q77 0 102 100q24 96 26 345h367h10v-199zM545 60h147q76 0 111.5 21t35.5 69
q0 45 -35.5 65t-111.5 20h-147v-175z" />
    <glyph glyph-name="uni045A" unicode="&#x45a;" horiz-adv-x="938" 
d="M527 296h155q105 0 160.5 -37.5t55.5 -108.5q0 -74 -55.5 -112t-160.5 -38h-229v234h-298v-234h-75v296v199h75v-199h298v199h74v-199zM527 60h147q76 0 111.5 21t35.5 69q0 45 -35.5 65t-111.5 20h-146v-1h-1v-174z" />
    <glyph glyph-name="uni045B" unicode="&#x45b;" horiz-adv-x="640" 
d="M358 505q97 0 149.5 -52.5t52.5 -156.5v-296h-75v280q0 159 -142 159q-74 2 -130.5 -49t-57.5 -148v-242h-75v580h-111v56h111v104h75v-104h149v-56h-149v-182q75 107 203 107z" />
    <glyph glyph-name="uni045C" unicode="&#x45c;" horiz-adv-x="638" 
d="M382 735h89l-140 -161h-56zM569 50q12 0 29 5v-55q-26 -10 -59 -10q-46 0 -70 26t-39 84l-13 55q-11 44 -38 61q-29 18 -103 18h-121v-234h-75v495h75v-199h121q76 0 106 14q27 13 35 52l9 44q17 99 117 99q27 0 50 -10v-55q-15 5 -30 5q-28 0 -42 -11.5t-21 -41.5
l-10 -45q-9 -37 -27 -55t-53 -26q63 -13 86 -106l11 -49q8 -34 21.5 -47.5t40.5 -13.5z" />
    <glyph glyph-name="uni045E" unicode="&#x45e;" horiz-adv-x="551" 
d="M386 595q-41 -38 -112 -38t-112 38t-48 104h49q22 -85 111 -85t111 85h49q-7 -66 -48 -104zM283 94l177 401h82l-229 -495q-51 -109 -107 -165q-65 -65 -175 -65v69q73 0 119.5 40.5t91.5 133.5l-233 482h87z" />
    <glyph glyph-name="uni045F" unicode="&#x45f;" horiz-adv-x="630" 
d="M475 61v434h75v-495h-75h-127l-6 -161h-53l-6 161h-192h-11v495h75v-434h195h125z" />
    <glyph glyph-name="uni0462" unicode="&#x462;" horiz-adv-x="800" 
d="M278 406h250q110 0 183 -57q73 -58 73 -146q0 -89 -73 -146t-183 -57h-319h-9v517h-184v56h184v127h78v-127h260v-56h-260v-111zM278 66h234q88 0 136 36t48 101q0 64 -48.5 100.5t-135.5 36.5h-234v-274z" />
    <glyph glyph-name="uni0463" unicode="&#x463;" horiz-adv-x="591" 
d="M148 296h187q105 0 161 -37.5t56 -108.5q0 -150 -217 -150h-261v235v345h-105v56h105v104h74v-104h156v-56h-156v-284zM148 60h179q76 0 111.5 21t35.5 69q0 45 -35.5 65t-111.5 20h-179v-175z" />
    <glyph glyph-name="uni0472" unicode="&#x472;" horiz-adv-x="835" 
d="M418 710q161 0 262 -104q100 -104 100 -256t-100 -255q-100 -105 -262 -105t-262 105q-100 103 -100 255t100 256q101 104 262 104zM608 572q-76 72 -190 72q-113 0 -190 -72q-76 -73 -89 -182h557q-13 109 -88 182zM418 56q124 0 200 82q75 80 80 200h-561
q4 -118 82 -200q76 -82 199 -82z" />
    <glyph glyph-name="uni0473" unicode="&#x473;" horiz-adv-x="625" 
d="M127 435q76 70 186 70t186 -70t76 -187t-76 -187q-77 -71 -186 -71t-186 71q-76 70 -76 187t76 187zM313 444q-73 0 -123 -43t-60 -119h365q-10 76 -59.5 119t-122.5 43zM186 98q53 -47 127 -47t127 47q52 47 56 131h-367q4 -84 57 -131z" />
    <glyph glyph-name="uni0474" unicode="&#x474;" horiz-adv-x="737" 
d="M674 710q31 0 47 -10v-62q-17 5 -25 5q-31 0 -47.5 -16t-33.5 -57l-226 -570h-90l-283 700h86l243 -610l194 491q28 74 56 102q25 27 79 27z" />
    <glyph glyph-name="uni0475" unicode="&#x475;" horiz-adv-x="594" 
d="M535 505q31 0 50 -10v-55q-15 5 -28 5q-21 0 -32.5 -10.5t-26.5 -42.5l-185 -392h-64l-240 495h87l187 -405l137 316q22 55 46.5 77t68.5 22z" />
    <glyph glyph-name="uni0490" unicode="&#x490;" horiz-adv-x="602" 
d="M510 700v140h76v-206h-76h-342v-634h-78v700h78h342z" />
    <glyph glyph-name="uni0491" unicode="&#x491;" horiz-adv-x="519" 
d="M426 495v123h69v-184h-340v-434h-75v495h346z" />
    <glyph glyph-name="uni0492" unicode="&#x492;" horiz-adv-x="707" 
d="M691 700v-66h-417v-254h258v-66h-258v-314h-78v314h-180v66h180v320h78h417z" />
    <glyph glyph-name="uni0493" unicode="&#x493;" horiz-adv-x="592" 
d="M567 495v-61h-338v-179h172v-53h-172v-202h-75v202h-130v53h130v240h75h338z" />
    <glyph glyph-name="uni0494" unicode="&#x494;" horiz-adv-x="729" 
d="M385 423q117 0 201 -65q93 -72 93 -227q0 -78 -25.5 -136t-69.5 -91t-97 -49t-115 -16q-71 0 -116 18v66q45 -19 115 -19q95 0 159 57q63 57 63 168q0 113 -64 171q-65 57 -156 57q-119 0 -205 -69v-288h-78v700h78h417v-66h-417v-275q91 64 217 64z" />
    <glyph glyph-name="uni0495" unicode="&#x495;" horiz-adv-x="640" 
d="M351 287q90 0 159 -51q79 -59 79 -208q0 -258 -263 -258q-57 0 -99 19v61q45 -19 98 -19q23 0 45.5 4t49 17t46 34t32.5 57.5t13 84.5t-13 85t-32.5 58t-46 34t-49.5 17t-47 4q-100 0 -168 -47v-179h-75v495h75h338v-61h-338v-194q86 47 196 47z" />
    <glyph glyph-name="uni0496" unicode="&#x496;" horiz-adv-x="959" 
d="M950 60l7 2v-236h-53l-12 165q-43 6 -70.5 39t-45.5 96l-32 107q-14 52 -43 76t-91 24h-94v-333h-72v333h-94q-63 0 -92.5 -24.5t-42.5 -75.5l-32 -107q-20 -69 -51.5 -102.5t-83.5 -33.5q-29 0 -46 10v62q15 -5 24 -5q60 0 80 80l28 102q15 56 37.5 87t60.5 40
q-40 9 -60 36.5t-33 81.5l-19 80q-15 79 -77 79q-3 0 -25 -5v62q16 10 45 10q103 0 133 -135l20 -86q10 -46 39.5 -68t94.5 -22h94v301h72v-301h94q64 0 93 22t39 68l21 86q30 135 133 135q28 0 44 -10v-62q-22 5 -24 5q-62 0 -77 -79l-19 -80q-13 -54 -33 -81.5t-60 -36.5
q38 -9 60.5 -40t37.5 -87l28 -102q8 -37 29 -58.5t51 -21.5q8 0 17 3z" />
    <glyph glyph-name="uni0497" unicode="&#x497;" horiz-adv-x="899" 
d="M849 52l9 3v-216h-53l-13 151q-42 2 -65 28t-36 82l-13 55q-19 79 -104 79h-91v-234h-67v234h-91q-85 0 -104 -79l-13 -55q-13 -57 -38 -83.5t-70 -26.5q-35 0 -59 10v55q15 -5 28 -5q27 0 40.5 13.5t21.5 47.5l12 49q23 93 85 106q-35 8 -53 26t-27 55l-10 45
q-7 30 -21 41.5t-42 11.5q-16 0 -29 -5v55q21 10 50 10q100 0 117 -99l8 -44q7 -37 30 -51.5t74 -14.5h91v199h67v-199h91q51 0 74 14.5t30 51.5l8 44q10 52 37.5 75.5t79.5 23.5q29 0 50 -10v-55q-13 5 -29 5q-28 0 -42 -11.5t-21 -41.5l-10 -45q-9 -37 -27 -55t-53 -26
q64 -13 85 -106l12 -49q8 -34 21.5 -47.5t40.5 -13.5q5 0 19 2z" />
    <glyph glyph-name="uni0498" unicode="&#x498;" horiz-adv-x="678" 
d="M622 183q0 -86 -71 -136q-71 -52 -183 -56l-16 -53q61 10 99.5 -10.5t38.5 -64.5q0 -43 -34.5 -68t-87.5 -25q-44 0 -81 18v43q35 -19 73 -19q72 0 72 48q0 36 -46 42q-46 7 -96 -11l31 99q-115 5 -184.5 61t-80.5 155h81q9 -72 61.5 -111.5t144.5 -39.5q88 0 141 35
t53 93q0 68 -69 107t-195 39v51v13q248 0 248 125q0 58 -47 92.5t-131 34.5q-83 0 -132 -39t-58 -108h-78q13 102 83 157t185 55q120 0 189.5 -48.5t69.5 -136.5q0 -57 -40.5 -99t-118.5 -64q179 -44 179 -179z" />
    <glyph glyph-name="uni0499" unicode="&#x499;" horiz-adv-x="532" 
d="M482 130q0 -67 -58.5 -102.5t-162.5 -37.5l-16 -52q61 10 99.5 -10.5t38.5 -64.5q0 -43 -34.5 -68t-87.5 -25q-43 0 -81 18v43q35 -19 73 -19q72 0 72 48q0 36 -46 42q-46 7 -96 -11l32 100q-101 6 -165 33v69q84 -42 195 -42q159 0 159 85q0 46 -47 67.5t-156 21.5v46v8
q110 0 152 20q40 19 40 61q0 41 -38 62.5t-108 21.5q-91 0 -187 -39v69q87 31 187 31q225 0 225 -138q0 -80 -98 -115q108 -32 108 -122z" />
    <glyph glyph-name="uni049A" unicode="&#x49a;" horiz-adv-x="709" 
d="M701 60l7 2v-236h-53l-13 165q-43 6 -69.5 38.5t-46.5 96.5l-33 107q-15 52 -44 76t-91 24h-190v-333h-78v700h78v-301h190q63 0 92 22t41 68l24 92q18 67 48 98t83 31q29 0 45 -10v-62q-22 5 -25 5q-31 0 -48.5 -17.5t-26.5 -55.5l-22 -86q-15 -56 -35 -82.5t-58 -35.5
q38 -9 60 -39.5t38 -87.5l29 -102q23 -80 80 -80q9 0 18 3z" />
    <glyph glyph-name="uni049B" unicode="&#x49b;" horiz-adv-x="638" 
d="M594 54l4 1v-216h-54l-13 151q-42 2 -65 28t-36 82l-13 55q-11 44 -38 61q-29 18 -103 18h-121v-234h-75v495h75v-199h121q76 0 106 14q27 13 35 52l9 44q17 99 117 99q27 0 50 -10v-55q-15 5 -30 5q-28 0 -42 -11.5t-21 -41.5l-10 -45q-9 -37 -27 -55t-53 -26
q63 -13 86 -106l11 -49q8 -34 21.5 -47.5t40.5 -13.5q17 0 25 4z" />
    <glyph glyph-name="uni049C" unicode="&#x49c;" horiz-adv-x="724" 
d="M698 57q10 0 25 5v-62q-19 -10 -47 -10q-52 0 -82.5 33t-52.5 103l-33 107q-12 43 -34 69q-27 31 -101 31h-18v-135h-55v135h-132v-333h-78v399v301h78v-301h132v141h55v-141h18q78 0 103 28q18 19 30 62l24 92q18 67 48 98t83 31q29 0 45 -10v-62q-22 5 -25 5
q-31 0 -48.5 -17.5t-25.5 -55.5l-23 -86q-15 -56 -35 -82.5t-58 -35.5q38 -9 60 -39.5t38 -87.5l29 -102q23 -80 80 -80z" />
    <glyph glyph-name="uni049D" unicode="&#x49d;" horiz-adv-x="642" 
d="M573 50q12 0 29 5v-55q-26 -10 -59 -10q-46 0 -70 26t-39 84l-13 55q-10 41 -34 58t-80 20v-123h-48v124h-104v-234h-75v495h75v-199h104v122h48v-122q60 2 84 16t30 50l9 44q17 99 117 99q27 0 50 -10v-55q-15 5 -30 5q-28 0 -42 -11.5t-21 -41.5l-10 -45
q-9 -37 -27 -55t-53 -26q64 -13 85 -106l12 -49q8 -34 21.5 -47.5t40.5 -13.5z" />
    <glyph glyph-name="uni049E" unicode="&#x49e;" horiz-adv-x="709" 
d="M683 57q10 0 25 5v-62q-19 -10 -47 -10q-52 0 -82.5 33t-52.5 103l-33 107q-15 52 -44 76t-91 24h-190v-333h-78v506h-132v56h132v138h78v-138h125v-56h-125v-107h190q63 0 92 22t41 68l24 92q18 67 48 98t83 31q29 0 45 -10v-62q-22 5 -25 5q-31 0 -48.5 -17.5
t-26.5 -55.5l-22 -86q-15 -56 -35 -82.5t-58 -35.5q38 -9 60 -39.5t38 -87.5l29 -102q23 -80 80 -80z" />
    <glyph glyph-name="uni049F" unicode="&#x49f;" horiz-adv-x="625" 
d="M555 50q12 0 29 5v-55q-26 -10 -59 -10q-46 0 -70 26t-39 84l-12 55q-12 44 -41.5 61.5t-100.5 17.5h-113v-234h-75v580h-105v56h105v104h75v-104h155v-56h-155v-284h113q76 0 106 14q27 13 35 52l9 44q17 99 117 99q29 0 50 -10v-55q-15 5 -29 5q-29 0 -42.5 -11.5
t-20.5 -41.5l-10 -45q-10 -36 -28 -54.5t-52 -26.5q62 -13 85 -106l11 -49q8 -34 21.5 -47.5t40.5 -13.5z" />
    <glyph glyph-name="uni04A0" unicode="&#x4a0;" horiz-adv-x="819" 
d="M793 57q10 0 25 5v-62q-19 -10 -47 -10q-52 0 -82.5 33t-52.5 103l-33 107q-15 52 -44 76t-91 24h-190v-333h-78v634h-184v66h262h1v-66h-1v-235h190q63 0 92 22t41 68l24 92q18 67 48 98t83 31q29 0 45 -10v-62q-22 5 -25 5q-31 0 -48.5 -17.5t-26.5 -55.5l-22 -86
q-15 -56 -35 -82.5t-58 -35.5q38 -9 60 -39.5t38 -87.5l29 -102q23 -80 80 -80z" />
    <glyph glyph-name="uni04A1" unicode="&#x4a1;" horiz-adv-x="749" 
d="M679 50q12 0 29 5v-55q-26 -10 -59 -10q-46 0 -70 26t-39 84l-13 55q-11 44 -38 61q-28 18 -103 18h-121v-234h-75v434h-156v61h231v-199h121q76 0 106 14q27 13 35 52l9 44q17 99 117 99q27 0 50 -10v-55q-15 5 -30 5q-28 0 -42 -11.5t-21 -41.5l-10 -45q-9 -37 -27 -55
t-53 -26q63 -13 86 -106l11 -49q8 -34 21.5 -47.5t40.5 -13.5z" />
    <glyph glyph-name="uni04A2" unicode="&#x4a2;" horiz-adv-x="834" 
d="M724 66h94v-227h-59l-12 161h-101v334h-478v-334h-78v700h78v-301h478v301h78v-634z" />
    <glyph glyph-name="uni04A3" unicode="&#x4a3;" horiz-adv-x="663" 
d="M560 61h89v-222h-52l-12 161h-100v234h-330v-234h-75v495h75v-199h330v199h75v-434z" />
    <glyph glyph-name="uni04A4" unicode="&#x4a4;" horiz-adv-x="915" 
d="M724 700h185v-66h-185v-634h-78v334h-478v-334h-78v700h78v-301h478v301h78z" />
    <glyph glyph-name="uni04A5" unicode="&#x4a5;" horiz-adv-x="750" 
d="M560 495h166v-61h-166v-434h-75v234h-330v-234h-75v495h75v-199h330v199h75z" />
    <glyph glyph-name="uni04A6" unicode="&#x4a6;" horiz-adv-x="1251" 
d="M922 423q117 0 201 -65q93 -72 93 -227q0 -78 -25.5 -136t-69.5 -91t-97 -49t-115 -16q-71 0 -116 18v66q45 -19 115 -19q94 0 159 57q63 57 63 168q0 113 -64 171q-64 57 -156 57q-120 0 -205 -69v-288h-79v634h-458v-634h-78v700h615v-341q91 64 217 64z" />
    <glyph glyph-name="uni04A7" unicode="&#x4a7;" horiz-adv-x="1045" 
d="M756 287q90 0 159 -51q79 -59 79 -208q0 -258 -263 -258q-57 0 -99 19v61q45 -19 98 -19q23 0 45.5 4t49 17t46 34t32.5 57.5t13 84.5t-13 85t-32.5 58t-46 34t-49.5 17t-47 4q-100 0 -168 -47v-179h-75v434h-330v-434h-75v495h75h395h10v-255q86 47 196 47z" />
    <glyph glyph-name="uni04A8" unicode="&#x4a8;" horiz-adv-x="860" 
d="M836 55v-65q-122 0 -215 57q-89 -57 -198 -57q-157 0 -259 99q-103 99 -103 261q0 165 110 263q109 97 281 97q110 0 212 -44v-76q-102 54 -211 54q-138 0 -222 -78q-85 -78 -85 -216q0 -136 81 -215q80 -80 204 -80q75 0 138 31q-50 44 -78 100.5t-28 110.5
q0 84 43 133.5t113 49.5q69 0 112.5 -49.5t43.5 -133.5q0 -52 -27 -108t-74 -101q69 -33 162 -33zM531 294q0 -105 90 -174q41 33 63.5 79.5t22.5 94.5q0 61 -24 94.5t-64 33.5q-41 0 -64.5 -33t-23.5 -95z" />
    <glyph glyph-name="uni04A9" unicode="&#x4a9;" horiz-adv-x="668" 
d="M644 47v-57q-85 0 -152 43q-76 -43 -178 -43q-114 0 -190 69q-78 69 -78 189q0 122 74 190q73 67 189 67q85 0 172 -31v-66q-95 39 -170 39q-86 0 -135 -51t-49 -148q0 -94 53 -146t141 -52q66 0 121 23q-68 74 -68 153q0 55 31 91.5t88 36.5t88.5 -36.5t31.5 -91.5
q0 -88 -73 -157q45 -22 104 -22zM438 222q0 -69 53 -119q58 49 58 119q0 79 -56 79q-55 0 -55 -79z" />
    <glyph glyph-name="uni04AA" unicode="&#x4aa;" horiz-adv-x="781" 
d="M422 56q78 0 138.5 38t86.5 112h78q-29 -105 -110 -160.5t-193 -55.5h-2l-16 -52q61 10 99.5 -10.5t38.5 -64.5q0 -43 -34.5 -68t-87.5 -25q-44 0 -81 18v43q35 -19 73 -19q72 0 72 48q0 36 -46 42q-46 7 -96 -11l32 102q-142 17 -227 118q-86 101 -86 239q0 150 101 256
q101 104 260 104q112 0 193 -55.5t110 -160.5h-78q-26 74 -86.5 112t-138.5 38q-122 0 -199 -84q-77 -86 -77 -210t77 -209q76 -85 199 -85z" />
    <glyph glyph-name="uni04AB" unicode="&#x4ab;" horiz-adv-x="578" 
d="M309 51q58 0 99 28.5t58 81.5h71q-18 -78 -74.5 -122.5t-139.5 -48.5l-16 -52q61 10 99.5 -10.5t38.5 -64.5q0 -43 -34.5 -68t-87.5 -25q-43 0 -81 18v43q35 -19 73 -19q72 0 72 48q0 36 -46 42q-46 7 -96 -11l32 101q-101 11 -165 79q-66 69 -66 177q0 117 76 187
t187 70q88 0 148.5 -45t79.5 -126h-71q-17 53 -58 81.5t-99 28.5q-79 0 -130 -52q-52 -52 -52 -144q0 -90 50.5 -143.5t131.5 -53.5z" />
    <glyph glyph-name="uni04AC" unicode="&#x4ac;" horiz-adv-x="670" 
d="M654 700v-66h-280v-568h93v-227h-59l-12 161h-100v634h-280v66h358h280z" />
    <glyph glyph-name="uni04AD" unicode="&#x4ad;" horiz-adv-x="542" 
d="M518 495v-61h-209v-373h73h1v-61h-1v-161h-52l-12 161h-84v434h-210v61h285h209z" />
    <glyph glyph-name="uni04AE" unicode="&#x4ae;" horiz-adv-x="693" 
d="M591 700h87l-290 -406v-294h-78v294l-294 406h90l246 -341z" />
    <glyph glyph-name="uni04AF" unicode="&#x4af;" horiz-adv-x="551" 
d="M460 495h82l-224 -482v-243h-75v238l-234 487h87l185 -401z" />
    <glyph glyph-name="uni04B0" unicode="&#x4b0;" horiz-adv-x="693" 
d="M678 700l-290 -406v-52h161v-61h-161v-181h-78v181h-157v61h157v52l-294 406h90l246 -341l239 341h87z" />
    <glyph glyph-name="uni04B1" unicode="&#x4b1;" horiz-adv-x="551" 
d="M542 495l-224 -482v-23h159v-53h-159v-167h-75v167h-163v53h163v18l-234 487h87l185 -401l179 401h82z" />
    <glyph glyph-name="uni04B2" unicode="&#x4b2;" horiz-adv-x="755" 
d="M632 66h99v-227h-59l-12 161h-72l-243 304l-232 -304h-97l285 359l-273 341h97l228 -286l218 286h95l-269 -340z" />
    <glyph glyph-name="uni04B3" unicode="&#x4b3;" horiz-adv-x="615" 
d="M499 61h92v-222h-52l-12 161h-68l-176 204l-168 -204h-89l216 251l-211 244h92l173 -200l167 200h89l-215 -247z" />
    <glyph glyph-name="uni04B4" unicode="&#x4b4;" horiz-adv-x="950" 
d="M836 66h98v-227h-59l-12 161h-105h-506h-10v634h-226v66h304h226v-66h-226v-568h438v634h78v-634z" />
    <glyph glyph-name="uni04B5" unicode="&#x4b5;" horiz-adv-x="758" 
d="M660 61h83v-222h-52l-12 161h-94h-385h-10v434h-166v61h241h165v-61h-165v-373h320v434h75v-434z" />
    <glyph glyph-name="uni04B6" unicode="&#x4b6;" horiz-adv-x="716" 
d="M607 66h93v-227h-59l-12 161h-100v316q-99 -44 -227 -44q-142 0 -214 52.5t-72 168.5v207h85v-206q0 -157 212 -157q131 0 216 51v312h78v-634z" />
    <glyph glyph-name="uni04B7" unicode="&#x4b7;" horiz-adv-x="624" 
d="M609 61h1v-61h-1v-161h-52l-12 161h-100v229q-79 -47 -188 -47q-99 0 -152.5 46t-53.5 138v129h75v-106q0 -78 35.5 -109.5t116.5 -31.5q94 0 167 46v201h75v-434h89z" />
    <glyph glyph-name="uni04B8" unicode="&#x4b8;" horiz-adv-x="697" 
d="M529 388v312h78v-700h-78v316q-80 -35 -183 -43v-137h-56v136q-136 2 -205 54.5t-69 166.5v207h85v-206q0 -148 189 -156v140h56v-140q109 6 183 50z" />
    <glyph glyph-name="uni04B9" unicode="&#x4b9;" horiz-adv-x="609" 
d="M454 294v201h75v-495h-75v229q-57 -35 -139 -44v-119h-48v116h-2q-214 0 -214 184v129h75v-106q0 -74 32.5 -106t108.5 -35v125h48v-124q79 4 139 45z" />
    <glyph glyph-name="uni04BA" unicode="&#x4ba;" horiz-adv-x="728" 
d="M401 423q125 0 196 -48t71 -165v-210h-85v212q0 146 -193 146q-123 0 -222 -51v-307h-78v700h78v-321q114 44 233 44z" />
    <glyph glyph-name="uni04BB" unicode="&#x4bb;" horiz-adv-x="640" 
d="M358 505q97 0 149.5 -52.5t52.5 -156.5v-296h-75v280q0 159 -142 159q-74 2 -130.5 -49t-57.5 -148v-242h-75v740h75v-342q75 107 203 107z" />
    <glyph glyph-name="uni04BC" unicode="&#x4bc;" horiz-adv-x="935" 
d="M532 56q195 0 253 157h77q-79 -223 -330 -223q-159 0 -259 98q-99 97 -99 262v6q-68 6 -109 49t-41 110q0 19 3 35h72q-2 -30 -2 -35q0 -88 82 -95q21 134 116 212t237 78q157 0 253 -97q95 -98 95 -258h-78h-549v-5q0 -135 77 -215q76 -79 202 -79zM532 645
q-109 0 -181.5 -60t-91.5 -166h538q-16 106 -87 166t-178 60z" />
    <glyph glyph-name="uni04BD" unicode="&#x4bd;" horiz-adv-x="715" 
d="M430 52v-1q125 0 158 103h71q-19 -78 -79.5 -121t-149.5 -43q-109 0 -186 71q-76 70 -76 187v7q-72 4 -116.5 47t-44.5 112q0 18 3 34h71q-2 -30 -2 -34q0 -103 95 -106q20 93 91 145q70 52 163 52q111 0 173.5 -61.5t62.5 -187.5h-415v-8h1q0 -90 51 -143t129 -53z
M428 448q-66 0 -111.5 -36.5t-60.5 -102.5h324q-3 67 -42.5 103t-109.5 36z" />
    <glyph glyph-name="uni04BE" unicode="&#x4be;" horiz-adv-x="935" 
d="M532 56q195 0 253 157h77q-74 -209 -300 -222v-152h-59v152q-148 9 -238 106q-91 97 -91 253v6q-68 6 -109 49t-41 110q0 19 3 35h72q-2 -30 -2 -35q0 -88 82 -95q21 134 116 212t237 78q157 0 253 -97q95 -98 95 -258h-78h-549v-5q0 -135 77 -215q76 -79 202 -79z
M532 645q-109 0 -181.5 -60t-91.5 -166h538q-16 106 -87 166t-178 60z" />
    <glyph glyph-name="uni04BF" unicode="&#x4bf;" horiz-adv-x="715" 
d="M430 52v-1q125 0 158 103h71q-29 -117 -142 -152q-90 -51 -90 -114q0 -54 50 -54q25 0 54 12v-49q-36 -17 -72 -17q-47 0 -74 25.5t-27 67.5q0 64 74 117h-2q-109 0 -186 71q-76 70 -76 187v7q-72 4 -116.5 47t-44.5 112q0 18 3 34h71q-2 -30 -2 -34q0 -103 95 -106
q20 93 91 145q70 52 163 52q111 0 173.5 -61.5t62.5 -187.5h-415v-8h1q0 -90 51 -143t129 -53zM428 448q-66 0 -111.5 -36.5t-60.5 -102.5h324q-3 67 -42.5 103t-109.5 36z" />
    <glyph glyph-name="uni04C0" unicode="&#x4c0;" horiz-adv-x="268" 
d="M95 0v700h78v-700h-78z" />
    <glyph glyph-name="uni04C1" unicode="&#x4c1;" horiz-adv-x="959" 
d="M591 800q-41 -38 -112 -38t-112 38t-48 104h49q22 -85 111 -85t111 85h49q-7 -66 -48 -104zM933 57q9 0 24 5v-62q-17 -10 -46 -10q-52 0 -83.5 33.5t-51.5 102.5l-32 107q-14 52 -43 76t-91 24h-94v-333h-72v333h-94q-63 0 -92.5 -24.5t-42.5 -75.5l-32 -107
q-20 -69 -51.5 -102.5t-83.5 -33.5q-29 0 -46 10v62q15 -5 24 -5q60 0 80 80l28 102q15 56 37.5 87t60.5 40q-40 9 -60 36.5t-33 81.5l-19 80q-15 79 -77 79q-3 0 -25 -5v62q16 10 45 10q103 0 133 -135l20 -86q10 -46 39.5 -68t94.5 -22h94v301h72v-301h94q64 0 93 22
t39 68l21 86q30 135 133 135q28 0 44 -10v-62q-22 5 -24 5q-62 0 -77 -79l-19 -80q-13 -54 -33 -81.5t-60 -36.5q38 -9 60.5 -40t37.5 -87l28 -102q8 -37 29 -58.5t51 -21.5z" />
    <glyph glyph-name="uni04C2" unicode="&#x4c2;" horiz-adv-x="899" 
d="M561 732h49q-17 -155 -160 -155t-160 155h49q11 -52 37 -75t74 -23t74 23t37 75zM830 50q13 0 28 5v-55q-24 -10 -58 -10q-46 0 -70 26t-39 84l-13 55q-19 79 -104 79h-91v-234h-67v234h-91q-85 0 -104 -79l-13 -55q-13 -57 -38 -83.5t-70 -26.5q-35 0 -59 10v55
q15 -5 28 -5q27 0 40.5 13.5t21.5 47.5l12 49q23 93 85 106q-35 8 -53 26t-27 55l-10 45q-7 30 -21 41.5t-42 11.5q-16 0 -29 -5v55q21 10 50 10q100 0 117 -99l8 -44q7 -37 30 -51.5t74 -14.5h91v199h67v-199h91q51 0 74 14.5t30 51.5l8 44q10 52 37.5 75.5t79.5 23.5
q29 0 50 -10v-55q-13 5 -29 5q-28 0 -42 -11.5t-21 -41.5l-10 -45q-9 -37 -27 -55t-53 -26q64 -13 85 -106l12 -49q8 -34 21.5 -47.5t40.5 -13.5z" />
    <glyph glyph-name="uni04C3" unicode="&#x4c3;" horiz-adv-x="760" 
d="M507 373q202 -57 202 -265q0 -75 -24.5 -129t-68.5 -83.5t-96 -43t-115 -13.5q-71 0 -116 18v66q45 -19 115 -19q96 0 158 50q61 49 61 157q0 109 -72 166q-74 56 -182 56h-201v-333h-78v399v301h78v-301h201q64 0 93 22t41 68l24 92q16 66 47 97.5t84 31.5q28 0 44 -10
v-62q-22 5 -24 5q-31 0 -48.5 -17.5t-26.5 -55.5l-22 -86q-15 -51 -30 -75.5t-44 -35.5z" />
    <glyph glyph-name="uni04C4" unicode="&#x4c4;" horiz-adv-x="680" 
d="M413 269q187 -49 187 -252q0 -247 -264 -247q-55 0 -99 19v61q45 -19 98 -19q26 0 49 4t49 16.5t44.5 32t31 54t12.5 79.5q0 132 -78 178q-66 39 -175 39h-113v-234h-75v495h75v-199h113q76 0 106 14q28 13 36 52l8 44q17 99 117 99q29 0 50 -10v-55q-13 5 -29 5
q-28 0 -42 -11.5t-21 -41.5l-10 -45q-15 -63 -70 -78z" />
    <glyph glyph-name="uni04C5" unicode="&#x4c5;" horiz-adv-x="771" 
d="M662 66h94l-40 -227h-59l16 161h-89v634h-293q-4 -331 -58 -489q-53 -155 -170 -155q-28 0 -47 10v62q15 -5 24 -5q95 0 134 151q38 150 40 492h447h1v-634z" />
    <glyph glyph-name="uni04C6" unicode="&#x4c6;" horiz-adv-x="669" 
d="M566 61h89l-39 -222h-52l16 161h-89v434h-252q-1 -106 -10 -193q-7 -76 -27 -136q-35 -115 -139 -115q-28 0 -47 10v55q15 -5 24 -5q80 0 104 98q23 98 24 347h398v-434z" />
    <glyph glyph-name="uni04C7" unicode="&#x4c7;" horiz-adv-x="815" 
d="M724 700v-629h1v-132q0 -79 -56.5 -124t-157.5 -45v66q136 0 136 114v50h-1v334h-478v-334h-78v700h78v-301h478v301h78z" />
    <glyph glyph-name="uni04C8" unicode="&#x4c8;" horiz-adv-x="640" 
d="M485 296v199h75v-548q0 -79 -54 -128t-148 -49v61q127 0 127 130v273h-330v-234h-75v495h75v-199h330z" />
    <glyph glyph-name="uni04C9" unicode="&#x4c9;" horiz-adv-x="834" 
d="M724 66h94l-40 -227h-59l16 161h-89v334h-478v-334h-78v700h78v-301h478v301h78v-634z" />
    <glyph glyph-name="uni04CA" unicode="&#x4ca;" horiz-adv-x="673" 
d="M560 61h89l-39 -222h-52l16 161h-89v234h-330v-234h-75v495h75v-199h330v199h75v-434z" />
    <glyph glyph-name="uni04CB" unicode="&#x4cb;" horiz-adv-x="697" 
d="M529 388v312h78v-700h-94v-161h-59l-17 226l-1 1h77h16v250q-99 -44 -227 -44q-142 0 -214 52.5t-72 168.5v207h85v-206q0 -157 212 -157q131 0 216 51z" />
    <glyph glyph-name="uni04CC" unicode="&#x4cc;" horiz-adv-x="600" 
d="M445 294v201h75v-495h-99l-12 -161h-52v161h-1v61h70h19v168q-79 -47 -188 -47q-99 0 -152.5 46t-53.5 138v129h75v-106q0 -78 35.5 -109.5t116.5 -31.5q94 0 167 46z" />
    <glyph glyph-name="uni04CD" unicode="&#x4cd;" horiz-adv-x="955" 
d="M847 66h93l-40 -227h-59l16 161h-89v525l-287 -457h-31l-287 457v-525h-78v700h62l319 -515l319 515h62v-634z" />
    <glyph glyph-name="uni04CE" unicode="&#x4ce;" horiz-adv-x="793" 
d="M689 61h90l-39 -222h-52l16 161h-90v360l-215 -301h-30l-215 301v-360h-74v495h58l246 -344l247 344h58v-434z" />
    <glyph glyph-name="uni04CF" unicode="&#x4cf;" horiz-adv-x="235" 
d="M155 0h-75v495h75v-495z" />
    <glyph glyph-name="uni04D0" unicode="&#x4d0;" 
d="M479 800q-41 -38 -112 -38t-112 38t-48 104h49q22 -85 111 -85t111 85h49q-7 -66 -48 -104zM709 0h-87l-90 212h-343l-91 -212h-82l302 700h88zM361 613l-144 -336h287z" />
    <glyph glyph-name="uni04D1" unicode="&#x4d1;" horiz-adv-x="565" 
d="M392 732h49q-15 -155 -160 -155t-160 155h49q11 -52 37 -75t74 -23t74 23t37 75zM518 50q5 0 23 2v-58q-20 -4 -38 -4q-46 0 -75.5 25.5t-35.5 63.5q-62 -89 -185 -89q-76 0 -121.5 35.5t-45.5 97.5q0 81 73 126.5t217 45.5q7 0 53 -2v14q0 73 -30 104.5t-101 31.5
q-86 0 -166 -39v70q92 31 175 31q96 0 145 -44.5t49 -143.5v-195q0 -72 63 -72zM222 48q62 0 111 37q50 38 50 98v59q-13 1 -54 1q-213 0 -213 -112q0 -39 29 -61t77 -22z" />
    <glyph glyph-name="uni04D2" unicode="&#x4d2;" 
d="M298 793q-23 -23 -53.5 -10.5t-30.5 44.5q0 19 15 34t34 15q32 0 45 -30t-10 -53zM506 793q-23 -23 -53.5 -10.5t-30.5 44.5q0 19 15 34t34 15q32 0 45 -30t-10 -53zM709 0h-87l-90 212h-343l-91 -212h-82l302 700h88zM361 613l-144 -336h287z" />
    <glyph glyph-name="uni04D3" unicode="&#x4d3;" horiz-adv-x="565" 
d="M212 632q-23 -23 -53.5 -10.5t-30.5 44.5q0 20 15 34.5t34 14.5q32 0 45 -30.5t-10 -52.5zM420 632q-23 -23 -53.5 -10.5t-30.5 44.5q0 20 15 34.5t34 14.5q32 0 45 -30.5t-10 -52.5zM518 50q5 0 23 2v-58q-20 -4 -38 -4q-46 0 -75.5 25.5t-35.5 63.5q-62 -89 -185 -89
q-76 0 -121.5 35.5t-45.5 97.5q0 81 73 126.5t217 45.5q7 0 53 -2v14q0 73 -30 104.5t-101 31.5q-86 0 -166 -39v70q92 31 175 31q96 0 145 -44.5t49 -143.5v-195q0 -72 63 -72zM222 48q62 0 111 37q50 38 50 98v59q-13 1 -54 1q-213 0 -213 -112q0 -39 29 -61t77 -22z" />
    <glyph glyph-name="uni04D4" unicode="&#x4d4;" horiz-adv-x="1051" 
d="M552 334v-268h438v-66h-506h-10v212h-283l-93 -212h-82l307 700h161h68h428v-66h-428v-235h398v-65h-398zM376 634l-157 -357h255v357h-98z" />
    <glyph glyph-name="uni04D5" unicode="&#x4d5;" horiz-adv-x="931" 
d="M646 52v-1q125 0 158 103h71q-19 -78 -79.5 -121t-149.5 -43q-74 0 -135 33.5t-94 92.5q-27 -58 -80 -92t-126 -34q-78 0 -124.5 35.5t-46.5 97.5q0 87 86.5 134.5t256.5 40.5v9q0 71 -31.5 103.5t-101.5 32.5q-65 0 -164 -39v70q92 31 173 31q139 0 179 -93
q75 93 206 93q111 0 173.5 -61.5t62.5 -187.5h-415v-8h1q0 -90 51 -143t129 -53zM644 448q-66 0 -111.5 -36.5t-60.5 -102.5h324q-3 67 -42.5 103t-109.5 36zM223 48q64 0 112 39t48 100v59q-151 6 -212 -31q-54 -34 -54 -84q0 -39 29 -61t77 -22z" />
    <glyph glyph-name="uni04D6" unicode="&#x4d6;" horiz-adv-x="671" 
d="M468 800q-41 -38 -112 -38t-112 38t-48 104h49q22 -85 111 -85t111 85h49q-7 -66 -48 -104zM173 334v-268h438v-66h-506h-10v700h78h428v-66h-428v-235h398v-65h-398z" />
    <glyph glyph-name="uni04D7" unicode="&#x4d7;" horiz-adv-x="598" 
d="M410 732h49q-15 -155 -160 -155t-160 155h49q11 -52 37 -75t74 -23t74 23t37 75zM313 52v-1q125 0 158 103h71q-19 -78 -79.5 -121t-149.5 -43q-109 0 -186 71q-76 70 -76 187q0 119 76 188q77 69 184 69q111 0 173.5 -61.5t62.5 -187.5h-415v-8h1q0 -90 51 -143t129 -53
zM311 448q-66 0 -111.5 -36.5t-60.5 -102.5h324q-3 67 -42.5 103t-109.5 36z" />
    <glyph glyph-name="uni04D8" unicode="&#x4d8;" horiz-adv-x="817" 
d="M403 710q159 0 259 -98q99 -98 99 -262t-99 -262q-100 -98 -258 -98q-159 0 -253 97q-95 98 -95 258h78h549v5q0 136 -76 215t-204 79q-90 0 -157.5 -41.5t-96.5 -115.5h-76q30 106 118.5 164.5t211.5 58.5zM226 115q70 -60 178 -60t181 60q72 59 92 166h-538
q16 -106 87 -166z" />
    <glyph glyph-name="uni04D9" unicode="&#x4d9;" horiz-adv-x="598" 
d="M300 505q109 0 181 -69q71 -71 71 -188q0 -120 -74 -189q-75 -69 -182 -69q-112 0 -176 62t-64 187h415v9q0 91 -46.5 143.5t-124.5 52.5q-63 0 -107 -28.5t-61 -81.5h-71q19 81 82 126t157 45zM296 47q66 0 110 36t59 104h-325q3 -67 44 -103.5t112 -36.5z" />
    <glyph glyph-name="uni04DA" unicode="&#x4da;" horiz-adv-x="817" 
d="M339 793q-23 -23 -53.5 -10.5t-30.5 44.5t30.5 44.5t53.5 -9.5q14 -15 14 -35t-14 -34zM547 793q-23 -23 -53.5 -10.5t-30.5 44.5t30.5 44.5t53.5 -9.5q14 -15 14 -35t-14 -34zM403 710q159 0 259 -98q99 -98 99 -262t-99 -262q-100 -98 -258 -98q-159 0 -253 97
q-95 98 -95 258h78h549v5q0 136 -76 215t-204 79q-90 0 -157.5 -41.5t-96.5 -115.5h-76q30 106 118.5 164.5t211.5 58.5zM226 115q70 -60 178 -60t181 60q72 59 92 166h-538q16 -106 87 -166z" />
    <glyph glyph-name="uni04DB" unicode="&#x4db;" horiz-adv-x="598" 
d="M235 632q-15 -15 -35 -15t-34 15q-15 14 -15 34t15 35q14 14 34 14t35 -14q14 -15 14 -35t-14 -34zM443 632q-15 -15 -35 -15t-34 15q-15 14 -15 34t15 35q14 14 34 14t35 -14q14 -15 14 -35t-14 -34zM300 505q109 0 181 -69q71 -71 71 -188q0 -120 -74 -189
q-75 -69 -182 -69q-112 0 -176 62t-64 187h415v9q0 91 -46.5 143.5t-124.5 52.5q-63 0 -107 -28.5t-61 -81.5h-71q19 81 82 126t157 45zM296 47q66 0 110 36t59 104h-325q3 -67 44 -103.5t112 -36.5z" />
    <glyph glyph-name="uni04DC" unicode="&#x4dc;" horiz-adv-x="959" 
d="M410 793q-23 -23 -53.5 -10.5t-30.5 44.5q0 19 15 34t34 15q32 0 45 -30t-10 -53zM618 793q-23 -23 -53.5 -10.5t-30.5 44.5q0 19 15 34t34 15q32 0 45 -30t-10 -53zM933 57q9 0 24 5v-62q-17 -10 -46 -10q-52 0 -83.5 33.5t-51.5 102.5l-32 107q-14 52 -43 76t-91 24
h-94v-333h-72v333h-94q-63 0 -92.5 -24.5t-42.5 -75.5l-32 -107q-20 -69 -51.5 -102.5t-83.5 -33.5q-29 0 -46 10v62q15 -5 24 -5q60 0 80 80l28 102q15 56 37.5 87t60.5 40q-40 9 -60 36.5t-33 81.5l-19 80q-15 79 -77 79q-3 0 -25 -5v62q16 10 45 10q103 0 133 -135
l20 -86q10 -46 39.5 -68t94.5 -22h94v301h72v-301h94q64 0 93 22t39 68l21 86q30 135 133 135q28 0 44 -10v-62q-22 5 -24 5q-62 0 -77 -79l-19 -80q-13 -54 -33 -81.5t-60 -36.5q38 -9 60.5 -40t37.5 -87l28 -102q8 -37 29 -58.5t51 -21.5z" />
    <glyph glyph-name="uni04DD" unicode="&#x4dd;" horiz-adv-x="899" 
d="M381 632q-15 -15 -35 -15t-34 15q-15 14 -15 34t15 35q14 14 34 14t35 -14q14 -15 14 -35t-14 -34zM589 632q-15 -15 -35 -15t-34 15q-15 14 -15 34t15 35q14 14 34 14t35 -14q14 -15 14 -35t-14 -34zM830 50q13 0 28 5v-55q-24 -10 -58 -10q-46 0 -70 26t-39 84l-13 55
q-19 79 -104 79h-91v-234h-67v234h-91q-85 0 -104 -79l-13 -55q-13 -57 -38 -83.5t-70 -26.5q-35 0 -59 10v55q15 -5 28 -5q27 0 40.5 13.5t21.5 47.5l12 49q23 93 85 106q-35 8 -53 26t-27 55l-10 45q-7 30 -21 41.5t-42 11.5q-16 0 -29 -5v55q21 10 50 10q100 0 117 -99
l8 -44q7 -37 30 -51.5t74 -14.5h91v199h67v-199h91q51 0 74 14.5t30 51.5l8 44q10 52 37.5 75.5t79.5 23.5q29 0 50 -10v-55q-13 5 -29 5q-28 0 -42 -11.5t-21 -41.5l-10 -45q-9 -37 -27 -55t-53 -26q64 -13 85 -106l12 -49q8 -34 21.5 -47.5t40.5 -13.5z" />
    <glyph glyph-name="uni04DE" unicode="&#x4de;" horiz-adv-x="678" 
d="M289 793q-23 -23 -53.5 -10.5t-30.5 44.5t30.5 44.5t53.5 -9.5q14 -15 14 -35t-14 -34zM497 793q-23 -23 -53.5 -10.5t-30.5 44.5t30.5 44.5t53.5 -9.5q14 -15 14 -35t-14 -34zM443 362q179 -44 179 -179q0 -91 -78 -142q-80 -51 -201 -51q-126 0 -200.5 56t-86.5 160h81
q9 -72 61.5 -111.5t144.5 -39.5q88 0 141 35t53 93q0 68 -69 107t-195 39v51v13q248 0 248 125q0 58 -47 92.5t-131 34.5q-83 0 -132 -39t-58 -108h-78q13 102 83 157t185 55q120 0 189.5 -48.5t69.5 -136.5q0 -57 -40.5 -99t-118.5 -64z" />
    <glyph glyph-name="uni04DF" unicode="&#x4df;" horiz-adv-x="532" 
d="M176 632q-23 -23 -53.5 -10.5t-30.5 44.5q0 20 15 34.5t34 14.5q32 0 45 -30.5t-10 -52.5zM384 632q-23 -23 -53.5 -10.5t-30.5 44.5q0 20 15 34.5t34 14.5q32 0 45 -30.5t-10 -52.5zM374 252q108 -32 108 -122q0 -68 -63 -104t-173 -36q-118 0 -196 34v69
q84 -42 195 -42q159 0 159 85q0 46 -47 67.5t-156 21.5v46v8q110 0 152 20q40 19 40 61q0 41 -38 62.5t-108 21.5q-91 0 -187 -39v69q87 31 187 31q225 0 225 -138q0 -80 -98 -115z" />
    <glyph glyph-name="uni04E0" unicode="&#x4e0;" horiz-adv-x="671" 
d="M587 653l-205 -225q112 -17 175 -76.5t63 -149.5q0 -100 -78 -155q-80 -57 -200 -57q-128 0 -207 63q-79 61 -79 178h81q1 -83 56 -129.5t149 -46.5q88 0 140.5 40.5t52.5 107.5q0 76 -61.5 124t-167.5 48h-40v34l206 225h-391v66h506v-47z" />
    <glyph glyph-name="uni04E1" unicode="&#x4e1;" horiz-adv-x="542" 
d="M473 451l-238 -221q127 -15 197 -76.5t70 -155.5q0 -105 -82 -166q-83 -62 -207 -62q-106 0 -189 34v69q96 -41 183 -41q93 0 155 44q61 43 61 122q0 84 -69 132.5t-194 48.5h-48v29l246 226h-329v61h444v-44z" />
    <glyph glyph-name="uni04E2" unicode="&#x4e2;" horiz-adv-x="828" 
d="M252 849h320v-57h-320v57zM168 127l510 573h60v-700h-78v573l-510 -573h-60v700h78v-573z" />
    <glyph glyph-name="uni04E3" unicode="&#x4e3;" horiz-adv-x="640" 
d="M165 686h320v-57h-320v57zM155 108l347 387h58v-495h-75v387l-347 -387h-58v495h75v-387z" />
    <glyph glyph-name="uni04E4" unicode="&#x4e4;" horiz-adv-x="828" 
d="M343 793q-23 -23 -53.5 -10.5t-30.5 44.5t30.5 44.5t53.5 -9.5q14 -15 14 -35t-14 -34zM551 793q-23 -23 -53.5 -10.5t-30.5 44.5t30.5 44.5t53.5 -9.5q14 -15 14 -35t-14 -34zM168 127l510 573h60v-700h-78v573l-510 -573h-60v700h78v-573z" />
    <glyph glyph-name="uni04E5" unicode="&#x4e5;" horiz-adv-x="640" 
d="M256 632q-23 -23 -53.5 -10.5t-30.5 44.5q0 20 15 34.5t34 14.5q32 0 45 -30.5t-10 -52.5zM464 632q-23 -23 -53.5 -10.5t-30.5 44.5q0 20 15 34.5t34 14.5q32 0 45 -30.5t-10 -52.5zM155 108l347 387h58v-495h-75v387l-347 -387h-58v495h75v-387z" />
    <glyph glyph-name="uni04E6" unicode="&#x4e6;" horiz-adv-x="835" 
d="M348 793q-23 -23 -53.5 -10.5t-30.5 44.5q0 19 15 34t34 15q32 0 45 -30t-10 -53zM556 793q-23 -23 -53.5 -10.5t-30.5 44.5q0 19 15 34t34 15q32 0 45 -30t-10 -53zM157 606q101 104 260 104q160 0 261 -104q101 -106 101 -256q0 -151 -101 -255q-100 -105 -261 -105
q-159 0 -260 105q-101 104 -101 255q0 150 101 256zM417 56q124 0 200 85q77 85 77 209t-77 210q-77 84 -200 84t-199 -84q-77 -86 -77 -210t77 -209q76 -85 199 -85z" />
    <glyph glyph-name="uni04E7" unicode="&#x4e7;" horiz-adv-x="625" 
d="M244 632q-23 -23 -53.5 -10.5t-30.5 44.5q0 20 15 34.5t34 14.5q32 0 45 -30.5t-10 -52.5zM452 632q-23 -23 -53.5 -10.5t-30.5 44.5q0 20 15 34.5t34 14.5q32 0 45 -30.5t-10 -52.5zM313 505q110 0 186 -70t76 -187t-76 -187q-77 -71 -186 -71t-186 71q-76 70 -76 187
t76 187t186 70zM184 104q51 -53 129 -53t129 53q51 52 51 144t-51 144t-129 52t-129 -53q-52 -52 -52 -143q0 -92 52 -144z" />
    <glyph glyph-name="uni04E8" unicode="&#x4e8;" horiz-adv-x="835" 
d="M418 710q161 0 262 -104q100 -104 100 -256t-100 -255q-100 -105 -262 -105t-262 105q-100 103 -100 255t100 256q101 104 262 104zM608 572q-76 72 -190 72q-113 0 -190 -72q-76 -73 -89 -182h557q-13 109 -88 182zM418 56q124 0 200 82q75 80 80 200h-561
q4 -118 82 -200q76 -82 199 -82z" />
    <glyph glyph-name="uni04E9" unicode="&#x4e9;" horiz-adv-x="625" 
d="M127 435q76 70 186 70t186 -70t76 -187t-76 -187q-77 -71 -186 -71t-186 71q-76 70 -76 187t76 187zM313 444q-73 0 -123 -43t-60 -119h365q-10 76 -59.5 119t-122.5 43zM186 98q53 -47 127 -47t127 47q52 47 56 131h-367q4 -84 57 -131z" />
    <glyph glyph-name="uni04EA" unicode="&#x4ea;" horiz-adv-x="835" 
d="M348 793q-23 -23 -53.5 -10.5t-30.5 44.5q0 19 15 34t34 15q32 0 45 -30t-10 -53zM556 793q-23 -23 -53.5 -10.5t-30.5 44.5q0 19 15 34t34 15q32 0 45 -30t-10 -53zM418 710q161 0 262 -104q100 -104 100 -256t-100 -255q-100 -105 -262 -105t-262 105
q-100 103 -100 255t100 256q101 104 262 104zM608 572q-76 72 -190 72q-113 0 -190 -72q-76 -73 -89 -182h557q-13 109 -88 182zM418 56q124 0 200 82q75 80 80 200h-561q4 -118 82 -200q76 -82 199 -82z" />
    <glyph glyph-name="uni04EB" unicode="&#x4eb;" horiz-adv-x="625" 
d="M244 632q-23 -23 -53.5 -10.5t-30.5 44.5q0 20 15 34.5t34 14.5q32 0 45 -30.5t-10 -52.5zM452 632q-23 -23 -53.5 -10.5t-30.5 44.5q0 20 15 34.5t34 14.5q32 0 45 -30.5t-10 -52.5zM127 435q76 70 186 70t186 -70t76 -187t-76 -187q-77 -71 -186 -71t-186 71
q-76 70 -76 187t76 187zM313 444q-73 0 -123 -43t-60 -119h365q-10 76 -59.5 119t-122.5 43zM186 98q53 -47 127 -47t127 47q52 47 56 131h-367q4 -84 57 -131z" />
    <glyph glyph-name="uni04EC" unicode="&#x4ec;" horiz-adv-x="781" 
d="M302 793q-23 -23 -53.5 -10.5t-30.5 44.5q0 19 15 34t34 15q32 0 45 -30t-10 -53zM510 793q-23 -23 -53.5 -10.5t-30.5 44.5q0 19 15 34t34 15q32 0 45 -30t-10 -53zM377 710q161 0 252 -103t91 -257t-91 -257t-252 -103q-118 0 -203.5 55.5t-117.5 160.5h78
q29 -75 92.5 -112.5t150.5 -37.5q118 0 185 78q67 76 73 196h-405v65h403q-14 110 -79 180q-68 69 -177 69q-87 0 -150.5 -37.5t-92.5 -112.5h-78q32 105 117.5 160.5t203.5 55.5z" />
    <glyph glyph-name="uni04ED" unicode="&#x4ed;" horiz-adv-x="568" 
d="M197 632q-15 -15 -35 -15t-34 15q-15 14 -15 34t15 35q14 14 34 14t35 -14q14 -15 14 -35t-14 -34zM405 632q-15 -15 -35 -15t-34 15q-15 14 -15 34t15 35q14 14 34 14t35 -14q14 -15 14 -35t-14 -34zM275 505q109 0 181 -69q72 -70 72 -188t-72 -188q-71 -70 -181 -70
q-88 0 -153.5 45.5t-85.5 124.5h71q18 -52 63 -80.5t105 -28.5q75 0 122 46.5t52 131.5h-267v53h266q-9 77 -55 119.5t-118 42.5q-60 0 -105 -28.5t-63 -80.5h-71q20 79 85.5 124.5t153.5 45.5z" />
    <glyph glyph-name="uni04EE" unicode="&#x4ee;" horiz-adv-x="692" 
d="M193 849h320v-57h-320v57zM359 286l230 414h87l-287 -505q-59 -104 -131 -153t-174 -49v69q75 0 130.5 35.5t102.5 113.5l-301 489h90z" />
    <glyph glyph-name="uni04EF" unicode="&#x4ef;" horiz-adv-x="551" 
d="M434 629h-320v57h320v-57zM283 94l177 401h82l-229 -495q-51 -109 -107 -165q-65 -65 -175 -65v69q73 0 119.5 40.5t91.5 133.5l-233 482h87z" />
    <glyph glyph-name="uni04F0" unicode="&#x4f0;" horiz-adv-x="692" 
d="M284 793q-23 -23 -53.5 -10.5t-30.5 44.5q0 19 15 34t34 15q32 0 45 -30t-10 -53zM492 793q-23 -23 -53.5 -10.5t-30.5 44.5q0 19 15 34t34 15q32 0 45 -30t-10 -53zM359 286l230 414h87l-287 -505q-59 -104 -131 -153t-174 -49v69q75 0 130.5 35.5t102.5 113.5l-301 489
h90z" />
    <glyph glyph-name="uni04F1" unicode="&#x4f1;" horiz-adv-x="551" 
d="M205 632q-15 -15 -35 -15t-34 15q-15 14 -15 34t15 35q14 14 34 14t35 -14q14 -15 14 -35t-14 -34zM413 632q-15 -15 -35 -15t-34 15q-15 14 -15 34t15 35q14 14 34 14t35 -14q14 -15 14 -35t-14 -34zM283 94l177 401h82l-229 -495q-51 -109 -107 -165q-65 -65 -175 -65
v69q73 0 119.5 40.5t91.5 133.5l-233 482h87z" />
    <glyph glyph-name="uni04F2" unicode="&#x4f2;" horiz-adv-x="692" 
d="M355 900h96l-161 -131h-64zM622 900l-161 -131h-64l129 131h96zM359 286l230 414h87l-287 -505q-59 -104 -131 -153t-174 -49v69q75 0 130.5 35.5t102.5 113.5l-301 489h90z" />
    <glyph glyph-name="uni04F3" unicode="&#x4f3;" horiz-adv-x="551" 
d="M217 574h-56l107 161h89zM383 574h-56l107 161h89zM283 94l177 401h82l-229 -495q-51 -109 -107 -165q-65 -65 -175 -65v69q73 0 119.5 40.5t91.5 133.5l-233 482h87z" />
    <glyph glyph-name="uni04F4" unicode="&#x4f4;" horiz-adv-x="697" 
d="M246 793q-23 -23 -53.5 -10.5t-30.5 44.5q0 19 15 34t34 15q32 0 45 -30t-10 -53zM454 793q-23 -23 -53.5 -10.5t-30.5 44.5q0 19 15 34t34 15q32 0 45 -30t-10 -53zM529 388v312h78v-700h-78v316q-99 -44 -227 -44q-142 0 -214 52.5t-72 168.5v207h85v-206
q0 -157 212 -157q131 0 216 51z" />
    <glyph glyph-name="uni04F5" unicode="&#x4f5;" horiz-adv-x="600" 
d="M218 632q-23 -23 -53.5 -10.5t-30.5 44.5q0 20 15 34.5t34 14.5q32 0 45 -30.5t-10 -52.5zM426 632q-23 -23 -53.5 -10.5t-30.5 44.5q0 20 15 34.5t34 14.5q32 0 45 -30.5t-10 -52.5zM445 294v201h75v-495h-75v229q-79 -47 -188 -47q-99 0 -152.5 46t-53.5 138v129h75
v-106q0 -78 35.5 -109.5t116.5 -31.5q94 0 167 46z" />
    <glyph glyph-name="uni04F6" unicode="&#x4f6;" horiz-adv-x="600" 
d="M585 700v-66h-417v-568h93v-227h-59l-12 161h-100v700h78h417z" />
    <glyph glyph-name="uni04F7" unicode="&#x4f7;" horiz-adv-x="518" 
d="M493 495v-61h-338v-373h89v-222h-52l-12 161h-100v495h75h338z" />
    <glyph glyph-name="uni04F8" unicode="&#x4f8;" horiz-adv-x="926" 
d="M383 793q-23 -23 -53.5 -10.5t-30.5 44.5t30.5 44.5t53.5 -9.5q14 -15 14 -35t-14 -34zM591 793q-23 -23 -53.5 -10.5t-30.5 44.5t30.5 44.5t53.5 -9.5q14 -15 14 -35t-14 -34zM168 406h199q109 0 182 -57q73 -58 73 -146q0 -89 -73 -146t-182 -57h-266h-11v700h78v-294z
M753 0v700h78v-700h-78zM168 66h183q88 0 136 36t48 101q0 64 -48.5 100.5t-135.5 36.5h-183v-274z" />
    <glyph glyph-name="uni04F9" unicode="&#x4f9;" horiz-adv-x="800" 
d="M309 632q-15 -15 -35 -15t-34 15q-15 14 -15 34t15 35q14 14 34 14t35 -14q14 -15 14 -35t-14 -34zM448 701q14 14 34 14t35 -14q14 -15 14 -35t-14 -34q-15 -15 -35 -15t-34 15q-15 14 -15 34t15 35zM151 296h155q105 0 160.5 -37.5t55.5 -108.5q0 -74 -55.5 -112
t-160.5 -38h-229v235v260h74v-199zM645 0v495h75v-495h-75zM151 60h147q76 0 111.5 21t35.5 69q0 45 -35.5 65t-111.5 20h-147v-175z" />
    <glyph glyph-name="uni04FC" unicode="&#x4fc;" horiz-adv-x="748" 
d="M632 66h99q9 -114 -33.5 -175.5t-122.5 -61.5q-19 0 -35 3v63q16 -3 35 -3q83 0 94 108h-81l-243 304l-232 -304h-97l285 359l-273 341h97l228 -286l218 286h95l-269 -340z" />
    <glyph glyph-name="uni04FD" unicode="&#x4fd;" horiz-adv-x="620" 
d="M499 61h92q14 -113 -35 -172.5t-146 -59.5v60q116 0 121 111h-72l-176 204l-168 -204h-89l216 251l-211 244h92l173 -200l167 200h89l-215 -247z" />
    <glyph glyph-name="uni0510" unicode="&#x510;" horiz-adv-x="678" 
d="M541 206h81q-12 -104 -86.5 -160t-200.5 -56q-122 0 -200 51q-79 51 -79 142q0 135 179 179q-78 22 -118.5 64t-40.5 99q0 88 69.5 136.5t189.5 48.5q115 0 185 -55t83 -157h-78q-9 69 -58 108t-132 39q-84 0 -131 -34.5t-47 -92.5q0 -125 248 -125v-52v-12
q-126 0 -195 -39t-69 -107q0 -58 53 -93t141 -35q92 0 144.5 39.5t61.5 111.5z" />
    <glyph glyph-name="uni0511" unicode="&#x511;" horiz-adv-x="532" 
d="M287 51q111 0 195 42v-69q-78 -34 -196 -34q-110 0 -173 36t-63 104q0 90 108 122q-98 35 -98 115q0 138 225 138q100 0 187 -31v-69q-96 39 -187 39q-70 0 -108 -21.5t-38 -62.5t41 -61q42 -20 151 -20v-50v-4q-109 0 -156 -21.5t-47 -67.5q0 -85 159 -85z" />
    <glyph glyph-name="uni0512" unicode="&#x512;" horiz-adv-x="752" 
d="M214 700h448v-700v-61q0 -79 -56.5 -124t-157.5 -45v66q136 0 136 114v121v563h-293q-4 -331 -58 -489q-53 -155 -170 -155q-28 0 -47 10v62q15 -5 24 -5q95 0 134 151q38 150 40 492z" />
    <glyph glyph-name="uni0513" unicode="&#x513;" horiz-adv-x="646" 
d="M168 495h398v-495v-53q0 -79 -54 -128t-148 -49v61q127 0 127 130v473h-252q-1 -106 -10 -193q-7 -76 -27 -136q-35 -115 -139 -115q-28 0 -47 10v55q15 -5 24 -5q80 0 104 98q23 98 24 347z" />
    <glyph glyph-name="uni051C" unicode="&#x51c;" horiz-adv-x="977" 
d="M703 93l176 607h83l-213 -700h-87l-173 536l-173 -536h-87l-213 700h86l172 -607l178 555h73z" />
    <glyph glyph-name="uni051D" unicode="&#x51d;" horiz-adv-x="852" 
d="M608 97l151 398h79l-196 -495h-61l-155 379l-156 -379h-64l-192 495h83l147 -398l145 365h71h2z" />
    <glyph glyph-name="uni0524" unicode="&#x524;" horiz-adv-x="813" 
d="M797 66h1v-66h-1v-161h-59l-12 161h-100v634h-458v-634h-78v700h615v-634h92z" />
    <glyph glyph-name="uni0525" unicode="&#x525;" horiz-adv-x="663" 
d="M560 61h89v-222h-52l-12 161h-100v434h-330v-434h-75v495h75h395h10v-434z" />
    <glyph glyph-name="uni0526" unicode="&#x526;" horiz-adv-x="770" 
d="M668 66h86v-227h-59l-12 161h-100v212q0 146 -193 146q-123 0 -222 -51v-307h-78v700h78v-321q114 44 233 44q125 0 196 -48t71 -165v-144z" />
    <glyph glyph-name="uni0527" unicode="&#x527;" horiz-adv-x="663" 
d="M560 61h89v-222h-52l-12 161h-100v280q0 159 -142 159q-74 2 -130.5 -49t-57.5 -148v-242h-75v740h75v-342q75 107 203 107q97 0 149.5 -52.5t52.5 -156.5v-235z" />
    <glyph glyph-name="Wgrave" unicode="&#x1e80;" horiz-adv-x="977" 
d="M426 900l129 -131h-64l-161 131h96zM703 93l176 607h83l-213 -700h-87l-173 536l-173 -536h-87l-213 700h86l172 -607l178 555h73z" />
    <glyph glyph-name="wgrave" unicode="&#x1e81;" horiz-adv-x="852" 
d="M368 735l107 -161h-56l-140 161h89zM608 97l151 398h79l-196 -495h-61l-155 379l-156 -379h-64l-192 495h83l147 -398l145 365h71h2z" />
    <glyph glyph-name="Wacute" unicode="&#x1e82;" horiz-adv-x="977" 
d="M589 900h96l-161 -131h-64zM703 93l176 607h83l-213 -700h-87l-173 536l-173 -536h-87l-213 700h86l172 -607l178 555h73z" />
    <glyph glyph-name="wacute" unicode="&#x1e83;" horiz-adv-x="852" 
d="M507 735h89l-140 -161h-56zM608 97l151 398h79l-196 -495h-61l-155 379l-156 -379h-64l-192 495h83l147 -398l145 365h71h2z" />
    <glyph glyph-name="Wdieresis" unicode="&#x1e84;" horiz-adv-x="977" 
d="M417 793q-23 -23 -53.5 -10.5t-30.5 44.5t30.5 44.5t53.5 -9.5q14 -15 14 -35t-14 -34zM625 793q-23 -23 -53.5 -10.5t-30.5 44.5t30.5 44.5t53.5 -9.5q14 -15 14 -35t-14 -34zM703 93l176 607h83l-213 -700h-87l-173 536l-173 -536h-87l-213 700h86l172 -607l178 555h73
z" />
    <glyph glyph-name="wdieresis" unicode="&#x1e85;" horiz-adv-x="852" 
d="M357 632q-15 -15 -35 -15t-34 15q-15 14 -15 34t15 35q14 14 34 14t35 -14q14 -15 14 -35t-14 -34zM565 632q-15 -15 -35 -15t-34 15q-15 14 -15 34t15 35q14 14 34 14t35 -14q14 -15 14 -35t-14 -34zM608 97l151 398h79l-196 -495h-61l-155 379l-156 -379h-64l-192 495
h83l147 -398l145 365h71h2z" />
    <glyph glyph-name="uni1EA0" unicode="&#x1ea0;" 
d="M406 700l303 -700h-87l-90 212h-343l-91 -212h-82l302 700h88zM361 613l-144 -336h287zM330 -124q15 16 36 16t36 -16q15 -15 15 -36t-15 -36q-23 -23 -55.5 -10.5t-32.5 46.5q0 20 16 36z" />
    <glyph glyph-name="uni1EA1" unicode="&#x1ea1;" horiz-adv-x="565" 
d="M518 50q5 0 23 2v-58q-20 -4 -38 -4q-46 0 -75.5 25.5t-35.5 63.5q-62 -89 -185 -89q-76 0 -121.5 35.5t-45.5 97.5q0 81 73 126.5t217 45.5q7 0 53 -2v14q0 73 -30 104.5t-101 31.5q-86 0 -166 -39v70q92 31 175 31q96 0 145 -44.5t49 -143.5v-195q0 -72 63 -72zM222 48
q62 0 111 37q50 38 50 98v59q-13 1 -54 1q-213 0 -213 -112q0 -39 29 -61t77 -22zM246 -124q15 16 36 16t36 -16q15 -15 15 -36t-15 -36q-23 -23 -55.5 -10.5t-32.5 46.5q0 20 16 36z" />
    <glyph glyph-name="uni1EA2" unicode="&#x1ea2;" 
d="M364 911q-48 0 -56 -47h-48q4 41 32.5 64.5t71.5 23.5q44 0 74 -24t30 -64q0 -23 -13 -41t-28 -26.5t-28 -21t-13 -26.5h-44q0 20 11.5 36t26 25t26 23t11.5 31q0 21 -14.5 34t-38.5 13zM709 0h-87l-90 212h-343l-91 -212h-82l302 700h88zM361 613l-144 -336h287z" />
    <glyph glyph-name="uni1EA3" unicode="&#x1ea3;" horiz-adv-x="565" 
d="M278 706q-48 0 -56 -47h-48q4 41 32.5 64.5t71.5 23.5q44 0 74 -24t30 -64q0 -23 -13 -41t-28 -26.5t-28 -21t-13 -26.5h-44q0 20 11.5 36t26 25t26 23t11.5 31q0 21 -14.5 34t-38.5 13zM518 50q5 0 23 2v-58q-20 -4 -38 -4q-46 0 -75.5 25.5t-35.5 63.5
q-62 -89 -185 -89q-76 0 -121.5 35.5t-45.5 97.5q0 81 73 126.5t217 45.5q7 0 53 -2v14q0 73 -30 104.5t-101 31.5q-86 0 -166 -39v70q92 31 175 31q96 0 145 -44.5t49 -143.5v-195q0 -72 63 -72zM222 48q62 0 111 37q50 38 50 98v59q-13 1 -54 1q-213 0 -213 -112
q0 -39 29 -61t77 -22z" />
    <glyph glyph-name="uni1EA4" unicode="&#x1ea4;" 
d="M613 1002h96l-161 -131h-64zM443 769l-76 96l-76 -96h-87l135 131h56l134 -131h-86zM318 700h88l303 -700h-87l-90 212h-343l-91 -212h-82zM361 613l-144 -336h287z" />
    <glyph glyph-name="uni1EA5" unicode="&#x1ea5;" horiz-adv-x="565" 
d="M514 851h89l-140 -161h-56zM364 574l-83 120l-83 -120h-80l134 161h57l134 -161h-79zM455 317v-195q0 -72 63 -72q5 0 23 2v-58q-20 -4 -38 -4q-46 0 -75.5 25.5t-35.5 63.5q-62 -89 -185 -89q-76 0 -121.5 35.5t-45.5 97.5q0 81 73 126.5t217 45.5q7 0 53 -2v14
q0 73 -30 104.5t-101 31.5q-86 0 -166 -39v70q92 31 175 31q96 0 145 -44.5t49 -143.5zM222 48q62 0 111 37q50 38 50 98v59q-13 1 -54 1q-213 0 -213 -112q0 -39 29 -61t77 -22z" />
    <glyph glyph-name="uni1EA6" unicode="&#x1ea6;" 
d="M450 1002l129 -131h-64l-161 131h96zM443 769l-76 96l-76 -96h-87l135 131h56l134 -131h-86zM709 0h-87l-90 212h-343l-91 -212h-82l302 700h88zM361 613l-144 -336h287z" />
    <glyph glyph-name="uni1EA7" unicode="&#x1ea7;" horiz-adv-x="565" 
d="M375 851l107 -161h-56l-140 161h89zM364 574l-83 120l-83 -120h-80l134 161h57l134 -161h-79zM518 50q5 0 23 2v-58q-20 -4 -38 -4q-46 0 -75.5 25.5t-35.5 63.5q-62 -89 -185 -89q-76 0 -121.5 35.5t-45.5 97.5q0 81 73 126.5t217 45.5q7 0 53 -2v14q0 73 -30 104.5
t-101 31.5q-86 0 -166 -39v70q92 31 175 31q96 0 145 -44.5t49 -143.5v-195q0 -72 63 -72zM222 48q62 0 111 37q50 38 50 98v59q-13 1 -54 1q-213 0 -213 -112q0 -39 29 -61t77 -22z" />
    <glyph glyph-name="uni1EA8" unicode="&#x1ea8;" 
d="M507 1013q-48 0 -56 -47h-48q4 41 32.5 64.5t71.5 23.5q44 0 74 -24t30 -64q0 -23 -13 -41t-28 -26.5t-28 -21t-13 -26.5h-44q0 20 11.5 36t26 25t26 23t11.5 31q0 21 -14.5 34t-38.5 13zM443 769l-76 96l-76 -96h-87l135 131h56l134 -131h-86zM709 0h-87l-90 212h-343
l-91 -212h-82l302 700h88zM361 613l-144 -336h287z" />
    <glyph glyph-name="uni1EA9" unicode="&#x1ea9;" horiz-adv-x="565" 
d="M430 822q-48 0 -56 -47h-48q4 41 32.5 64.5t71.5 23.5q44 0 74 -24t30 -64q0 -23 -13 -41t-28 -26.5t-28 -21t-13 -26.5h-44q0 20 11.5 36t26 25t26 23t11.5 31q0 21 -14.5 34t-38.5 13zM364 574l-83 120l-83 -120h-80l134 161h57l134 -161h-79zM518 50q5 0 23 2v-58
q-20 -4 -38 -4q-46 0 -75.5 25.5t-35.5 63.5q-62 -89 -185 -89q-76 0 -121.5 35.5t-45.5 97.5q0 81 73 126.5t217 45.5q7 0 53 -2v14q0 73 -30 104.5t-101 31.5q-86 0 -166 -39v70q92 31 175 31q96 0 145 -44.5t49 -143.5v-195q0 -72 63 -72zM222 48q62 0 111 37
q50 38 50 98v59q-13 1 -54 1q-213 0 -213 -112q0 -39 29 -61t77 -22z" />
    <glyph glyph-name="uni1EAA" unicode="&#x1eaa;" 
d="M794 996h48q-7 -63 -37 -95.5t-76 -32.5q-35 0 -60.5 17.5t-45.5 35t-41 17.5q-52 0 -65 -70h-48q7 64 36.5 96t76.5 32q35 0 60.5 -17.5t45.5 -35t41 -17.5q26 0 41.5 17t23.5 53zM443 769l-76 96l-76 -96h-87l135 131h56l134 -131h-86zM318 700h88l303 -700h-87
l-90 212h-343l-91 -212h-82zM361 613l-144 -336h287z" />
    <glyph glyph-name="uni1EAB" unicode="&#x1eab;" horiz-adv-x="565" 
d="M702 821h48q-7 -63 -37 -95.5t-76 -32.5q-35 0 -60.5 17.5t-45.5 35t-41 17.5q-52 0 -65 -70h-48q7 64 36.5 96t76.5 32q35 0 60.5 -17.5t45.5 -35t41 -17.5q26 0 41.5 17t23.5 53zM364 574l-83 120l-83 -120h-80l134 161h57l134 -161h-79zM455 317v-195q0 -72 63 -72
q5 0 23 2v-58q-20 -4 -38 -4q-46 0 -75.5 25.5t-35.5 63.5q-62 -89 -185 -89q-76 0 -121.5 35.5t-45.5 97.5q0 81 73 126.5t217 45.5q7 0 53 -2v14q0 73 -30 104.5t-101 31.5q-86 0 -166 -39v70q92 31 175 31q96 0 145 -44.5t49 -143.5zM222 48q62 0 111 37q50 38 50 98v59
q-13 1 -54 1q-213 0 -213 -112q0 -39 29 -61t77 -22z" />
    <glyph glyph-name="uni1EAC" unicode="&#x1eac;" 
d="M443 769l-76 96l-76 -96h-87l135 131h56l134 -131h-86zM406 700l303 -700h-87l-90 212h-343l-91 -212h-82l302 700h88zM361 613l-144 -336h287zM330 -124q15 16 36 16t36 -16q15 -15 15 -36t-15 -36q-23 -23 -55.5 -10.5t-32.5 46.5q0 20 16 36z" />
    <glyph glyph-name="uni1EAD" unicode="&#x1ead;" horiz-adv-x="565" 
d="M364 574l-83 120l-83 -120h-80l134 161h57l134 -161h-79zM518 50q5 0 23 2v-58q-20 -4 -38 -4q-46 0 -75.5 25.5t-35.5 63.5q-62 -89 -185 -89q-76 0 -121.5 35.5t-45.5 97.5q0 81 73 126.5t217 45.5q7 0 53 -2v14q0 73 -30 104.5t-101 31.5q-86 0 -166 -39v70
q92 31 175 31q96 0 145 -44.5t49 -143.5v-195q0 -72 63 -72zM222 48q62 0 111 37q50 38 50 98v59q-13 1 -54 1q-213 0 -213 -112q0 -39 29 -61t77 -22zM246 -124q15 16 36 16t36 -16q15 -15 15 -36t-15 -36q-23 -23 -55.5 -10.5t-32.5 46.5q0 20 16 36z" />
    <glyph glyph-name="uni1EAE" unicode="&#x1eae;" 
d="M470 1065h96l-161 -131h-64zM479 800q-41 -38 -112 -38t-112 38t-48 104h49q22 -85 111 -85t111 85h49q-7 -66 -48 -104zM709 0h-87l-90 212h-343l-91 -212h-82l302 700h88zM361 613l-144 -336h287z" />
    <glyph glyph-name="uni1EAF" unicode="&#x1eaf;" horiz-adv-x="565" 
d="M362 933h89l-140 -161h-56zM392 732h49q-15 -155 -160 -155t-160 155h49q11 -52 37 -75t74 -23t74 23t37 75zM518 50q5 0 23 2v-58q-20 -4 -38 -4q-46 0 -75.5 25.5t-35.5 63.5q-62 -89 -185 -89q-76 0 -121.5 35.5t-45.5 97.5q0 81 73 126.5t217 45.5q7 0 53 -2v14
q0 73 -30 104.5t-101 31.5q-86 0 -166 -39v70q92 31 175 31q96 0 145 -44.5t49 -143.5v-195q0 -72 63 -72zM222 48q62 0 111 37q50 38 50 98v59q-13 1 -54 1q-213 0 -213 -112q0 -39 29 -61t77 -22z" />
    <glyph glyph-name="uni1EB0" unicode="&#x1eb0;" 
d="M307 1065l129 -131h-64l-161 131h96zM479 800q-41 -38 -112 -38t-112 38t-48 104h49q22 -85 111 -85t111 85h49q-7 -66 -48 -104zM709 0h-87l-90 212h-343l-91 -212h-82l302 700h88zM361 613l-144 -336h287z" />
    <glyph glyph-name="uni1EB1" unicode="&#x1eb1;" horiz-adv-x="565" 
d="M223 933l107 -161h-56l-140 161h89zM392 732h49q-15 -155 -160 -155t-160 155h49q11 -52 37 -75t74 -23t74 23t37 75zM518 50q5 0 23 2v-58q-20 -4 -38 -4q-46 0 -75.5 25.5t-35.5 63.5q-62 -89 -185 -89q-76 0 -121.5 35.5t-45.5 97.5q0 81 73 126.5t217 45.5q7 0 53 -2
v14q0 73 -30 104.5t-101 31.5q-86 0 -166 -39v70q92 31 175 31q96 0 145 -44.5t49 -143.5v-195q0 -72 63 -72zM222 48q62 0 111 37q50 38 50 98v59q-13 1 -54 1q-213 0 -213 -112q0 -39 29 -61t77 -22z" />
    <glyph glyph-name="uni1EB2" unicode="&#x1eb2;" 
d="M364 1076q-48 0 -56 -47h-48q4 41 32.5 64.5t71.5 23.5q44 0 74 -24t30 -64q0 -23 -13 -41t-28 -26.5t-28 -21t-13 -26.5h-44q0 20 11.5 36t26 25t26 23t11.5 31q0 21 -14.5 34t-38.5 13zM479 800q-41 -38 -112 -38t-112 38t-48 104h49q22 -85 111 -85t111 85h49
q-7 -66 -48 -104zM709 0h-87l-90 212h-343l-91 -212h-82l302 700h88zM361 613l-144 -336h287z" />
    <glyph glyph-name="uni1EB3" unicode="&#x1eb3;" horiz-adv-x="565" 
d="M278 904q-48 0 -56 -47h-48q4 41 32.5 64.5t71.5 23.5q44 0 74 -24t30 -64q0 -23 -13 -41t-28 -26.5t-28 -21t-13 -26.5h-44q0 20 11.5 36t26 25t26 23t11.5 31q0 21 -14.5 34t-38.5 13zM392 732h49q-15 -155 -160 -155t-160 155h49q11 -52 37 -75t74 -23t74 23t37 75z
M518 50q5 0 23 2v-58q-20 -4 -38 -4q-46 0 -75.5 25.5t-35.5 63.5q-62 -89 -185 -89q-76 0 -121.5 35.5t-45.5 97.5q0 81 73 126.5t217 45.5q7 0 53 -2v14q0 73 -30 104.5t-101 31.5q-86 0 -166 -39v70q92 31 175 31q96 0 145 -44.5t49 -143.5v-195q0 -72 63 -72zM222 48
q62 0 111 37q50 38 50 98v59q-13 1 -54 1q-213 0 -213 -112q0 -39 29 -61t77 -22z" />
    <glyph glyph-name="uni1EB4" unicode="&#x1eb4;" 
d="M294 1003q-52 0 -65 -70h-48q7 64 36.5 96t76.5 32q35 0 60.5 -17.5t45.5 -35t41 -17.5q26 0 41.5 17t23.5 53h48q-7 -63 -37 -95.5t-76 -32.5q-35 0 -60.5 17.5t-45.5 35t-41 17.5zM207 904h49q22 -85 111 -85t111 85h49q-18 -142 -160 -142t-160 142zM709 0h-87
l-90 212h-343l-91 -212h-82l302 700h88zM361 613l-144 -336h287z" />
    <glyph glyph-name="uni1EB5" unicode="&#x1eb5;" horiz-adv-x="565" 
d="M208 861q-52 0 -65 -70h-48q7 64 36.5 96t76.5 32q35 0 60.5 -17.5t45.5 -35t41 -17.5q26 0 41.5 17t23.5 53h48q-7 -63 -37 -95.5t-76 -32.5q-35 0 -60.5 17.5t-45.5 35t-41 17.5zM207 658q25 -24 74 -24t75 24q25 22 36 74h49q-15 -155 -160 -155t-160 155h49
q10 -51 37 -74zM518 50q5 0 23 2v-58q-20 -4 -38 -4q-46 0 -75.5 25.5t-35.5 63.5q-62 -89 -185 -89q-76 0 -121.5 35.5t-45.5 97.5q0 81 73 126.5t217 45.5q7 0 53 -2v14q0 73 -30 104.5t-101 31.5q-86 0 -166 -39v70q92 31 175 31q96 0 145 -44.5t49 -143.5v-195
q0 -72 63 -72zM222 48q62 0 111 37q50 38 50 98v59q-13 1 -54 1q-213 0 -213 -112q0 -39 29 -61t77 -22z" />
    <glyph glyph-name="uni1EB6" unicode="&#x1eb6;" 
d="M479 800q-41 -38 -112 -38t-112 38t-48 104h49q22 -85 111 -85t111 85h49q-7 -66 -48 -104zM406 700l303 -700h-87l-90 212h-343l-91 -212h-82l302 700h88zM361 613l-144 -336h287zM330 -124q15 16 36 16t36 -16q15 -15 15 -36t-15 -36q-23 -23 -55.5 -10.5t-32.5 46.5
q0 20 16 36z" />
    <glyph glyph-name="uni1EB7" unicode="&#x1eb7;" horiz-adv-x="565" 
d="M392 732h49q-15 -155 -160 -155t-160 155h49q11 -52 37 -75t74 -23t74 23t37 75zM518 50q5 0 23 2v-58q-20 -4 -38 -4q-46 0 -75.5 25.5t-35.5 63.5q-62 -89 -185 -89q-76 0 -121.5 35.5t-45.5 97.5q0 81 73 126.5t217 45.5q7 0 53 -2v14q0 73 -30 104.5t-101 31.5
q-86 0 -166 -39v70q92 31 175 31q96 0 145 -44.5t49 -143.5v-195q0 -72 63 -72zM222 48q62 0 111 37q50 38 50 98v59q-13 1 -54 1q-213 0 -213 -112q0 -39 29 -61t77 -22zM246 -124q15 16 36 16t36 -16q15 -15 15 -36t-15 -36q-23 -23 -55.5 -10.5t-32.5 46.5q0 20 16 36z
" />
    <glyph glyph-name="uni1EB8" unicode="&#x1eb8;" horiz-adv-x="671" 
d="M173 334v-268h438v-66h-506h-10v700h78h428v-66h-428v-235h398v-65h-398zM321 -124q15 16 36 16t36 -16q15 -15 15 -36t-15 -36q-23 -23 -55.5 -10.5t-32.5 46.5q0 20 16 36z" />
    <glyph glyph-name="uni1EB9" unicode="&#x1eb9;" horiz-adv-x="598" 
d="M313 52v-1q125 0 158 103h71q-19 -78 -79.5 -121t-149.5 -43q-109 0 -186 71q-76 70 -76 187q0 119 76 188q77 69 184 69q111 0 173.5 -61.5t62.5 -187.5h-415v-8h1q0 -90 51 -143t129 -53zM311 448q-66 0 -111.5 -36.5t-60.5 -102.5h324q-3 67 -42.5 103t-109.5 36z
M264 -124q15 16 36 16t36 -16q15 -15 15 -36t-15 -36q-23 -23 -55.5 -10.5t-32.5 46.5q0 20 16 36z" />
    <glyph glyph-name="uni1EBA" unicode="&#x1eba;" horiz-adv-x="671" 
d="M353 911q-48 0 -56 -47h-48q4 41 32.5 64.5t71.5 23.5q44 0 74 -24t30 -64q0 -23 -13 -41t-28 -26.5t-28 -21t-13 -26.5h-44q0 20 11.5 36t26 25t26 23t11.5 31q0 21 -14.5 34t-38.5 13zM173 334v-268h438v-66h-506h-10v700h78h428v-66h-428v-235h398v-65h-398z" />
    <glyph glyph-name="uni1EBB" unicode="&#x1ebb;" horiz-adv-x="598" 
d="M296 706q-48 0 -56 -47h-48q4 41 32.5 64.5t71.5 23.5q44 0 74 -24t30 -64q0 -23 -13 -41t-28 -26.5t-28 -21t-13 -26.5h-44q0 20 11.5 36t26 25t26 23t11.5 31q0 21 -14.5 34t-38.5 13zM313 52v-1q125 0 158 103h71q-19 -78 -79.5 -121t-149.5 -43q-109 0 -186 71
q-76 70 -76 187q0 119 76 188q77 69 184 69q111 0 173.5 -61.5t62.5 -187.5h-415v-8h1q0 -90 51 -143t129 -53zM311 448q-66 0 -111.5 -36.5t-60.5 -102.5h324q-3 67 -42.5 103t-109.5 36z" />
    <glyph glyph-name="uni1EBC" unicode="&#x1ebc;" horiz-adv-x="671" 
d="M283 838q-52 0 -65 -70h-48q7 64 36.5 96t76.5 32q35 0 60.5 -17.5t45.5 -35t41 -17.5q26 0 41.5 17t23.5 53h48q-7 -63 -37 -95.5t-76 -32.5q-35 0 -60.5 17.5t-45.5 35t-41 17.5zM173 334v-268h438v-66h-506h-10v700h78h428v-66h-428v-235h398v-65h-398z" />
    <glyph glyph-name="uni1EBD" unicode="&#x1ebd;" horiz-adv-x="598" 
d="M226 663q-52 0 -65 -70h-48q7 64 36.5 96t76.5 32q35 0 60.5 -17.5t45.5 -35t41 -17.5q26 0 41.5 17t23.5 53h48q-7 -63 -37 -95.5t-76 -32.5q-35 0 -60.5 17.5t-45.5 35t-41 17.5zM313 52v-1q125 0 158 103h71q-19 -78 -79.5 -121t-149.5 -43q-109 0 -186 71
q-76 70 -76 187q0 119 76 188q77 69 184 69q111 0 173.5 -61.5t62.5 -187.5h-415v-8h1q0 -90 51 -143t129 -53zM311 448q-66 0 -111.5 -36.5t-60.5 -102.5h324q-3 67 -42.5 103t-109.5 36z" />
    <glyph glyph-name="uni1EBE" unicode="&#x1ebe;" horiz-adv-x="671" 
d="M602 1002h96l-161 -131h-64zM432 769l-76 96l-76 -96h-87l135 131h56l134 -131h-86zM571 334h-398v-268h438v-66h-506h-10v700h78h428v-66h-428v-235h398v-65z" />
    <glyph glyph-name="uni1EBF" unicode="&#x1ebf;" horiz-adv-x="598" 
d="M532 851h89l-140 -161h-56zM382 574l-83 120l-83 -120h-80l134 161h57l134 -161h-79zM547 256h-415v-8h1q0 -90 51 -143t129 -53v-1q125 0 158 103h71q-19 -78 -79.5 -121t-149.5 -43q-109 0 -186 71q-76 70 -76 187q0 119 76 188q77 69 184 69q111 0 173.5 -61.5
t62.5 -187.5zM311 448q-66 0 -111.5 -36.5t-60.5 -102.5h324q-3 67 -42.5 103t-109.5 36z" />
    <glyph glyph-name="uni1EC0" unicode="&#x1ec0;" horiz-adv-x="671" 
d="M439 1002l129 -131h-64l-161 131h96zM432 769l-76 96l-76 -96h-87l135 131h56l134 -131h-86zM173 334v-268h438v-66h-506h-10v700h78h428v-66h-428v-235h398v-65h-398z" />
    <glyph glyph-name="uni1EC1" unicode="&#x1ec1;" horiz-adv-x="598" 
d="M393 851l107 -161h-56l-140 161h89zM382 574l-83 120l-83 -120h-80l134 161h57l134 -161h-79zM313 52v-1q125 0 158 103h71q-19 -78 -79.5 -121t-149.5 -43q-109 0 -186 71q-76 70 -76 187q0 119 76 188q77 69 184 69q111 0 173.5 -61.5t62.5 -187.5h-415v-8h1
q0 -90 51 -143t129 -53zM311 448q-66 0 -111.5 -36.5t-60.5 -102.5h324q-3 67 -42.5 103t-109.5 36z" />
    <glyph glyph-name="uni1EC2" unicode="&#x1ec2;" horiz-adv-x="671" 
d="M496 1013q-48 0 -56 -47h-48q4 41 32.5 64.5t71.5 23.5q44 0 74 -24t30 -64q0 -23 -13 -41t-28 -26.5t-28 -21t-13 -26.5h-44q0 20 11.5 36t26 25t26 23t11.5 31q0 21 -14.5 34t-38.5 13zM432 769l-76 96l-76 -96h-87l135 131h56l134 -131h-86zM173 334v-268h438v-66
h-506h-10v700h78h428v-66h-428v-235h398v-65h-398z" />
    <glyph glyph-name="uni1EC3" unicode="&#x1ec3;" horiz-adv-x="598" 
d="M448 822q-48 0 -56 -47h-48q4 41 32.5 64.5t71.5 23.5q44 0 74 -24t30 -64q0 -23 -13 -41t-28 -26.5t-28 -21t-13 -26.5h-44q0 20 11.5 36t26 25t26 23t11.5 31q0 21 -14.5 34t-38.5 13zM382 574l-83 120l-83 -120h-80l134 161h57l134 -161h-79zM547 256h-415v-8h1
q0 -90 51 -143t129 -53v-1q125 0 158 103h71q-19 -78 -79.5 -121t-149.5 -43q-109 0 -186 71q-76 70 -76 187q0 119 76 188q77 69 184 69q111 0 173.5 -61.5t62.5 -187.5zM311 448q-66 0 -111.5 -36.5t-60.5 -102.5h324q-3 67 -42.5 103t-109.5 36z" />
    <glyph glyph-name="uni1EC4" unicode="&#x1ec4;" horiz-adv-x="671" 
d="M783 996h48q-7 -63 -37 -95.5t-76 -32.5q-35 0 -60.5 17.5t-45.5 35t-41 17.5q-52 0 -65 -70h-48q7 64 36.5 96t76.5 32q35 0 60.5 -17.5t45.5 -35t41 -17.5q26 0 41.5 17t23.5 53zM432 769l-76 96l-76 -96h-87l135 131h56l134 -131h-86zM571 334h-398v-268h438v-66h-506
h-10v700h78h428v-66h-428v-235h398v-65z" />
    <glyph glyph-name="uni1EC5" unicode="&#x1ec5;" horiz-adv-x="598" 
d="M720 821h48q-7 -63 -37 -95.5t-76 -32.5q-35 0 -60.5 17.5t-45.5 35t-41 17.5q-52 0 -65 -70h-48q7 64 36.5 96t76.5 32q35 0 60.5 -17.5t45.5 -35t41 -17.5q26 0 41.5 17t23.5 53zM382 574l-83 120l-83 -120h-80l134 161h57l134 -161h-79zM547 256h-415v-8h1
q0 -90 51 -143t129 -53v-1q125 0 158 103h71q-19 -78 -79.5 -121t-149.5 -43q-109 0 -186 71q-76 70 -76 187q0 119 76 188q77 69 184 69q111 0 173.5 -61.5t62.5 -187.5zM311 448q-66 0 -111.5 -36.5t-60.5 -102.5h324q-3 67 -42.5 103t-109.5 36z" />
    <glyph glyph-name="uni1EC6" unicode="&#x1ec6;" horiz-adv-x="671" 
d="M432 769l-76 96l-76 -96h-87l135 131h56l134 -131h-86zM173 334v-268h438v-66h-506h-10v700h78h428v-66h-428v-235h398v-65h-398zM321 -124q15 16 36 16t36 -16q15 -15 15 -36t-15 -36q-23 -23 -55.5 -10.5t-32.5 46.5q0 20 16 36z" />
    <glyph glyph-name="uni1EC7" unicode="&#x1ec7;" horiz-adv-x="598" 
d="M382 574l-83 120l-83 -120h-80l134 161h57l134 -161h-79zM313 52v-1q125 0 158 103h71q-19 -78 -79.5 -121t-149.5 -43q-109 0 -186 71q-76 70 -76 187q0 119 76 188q77 69 184 69q111 0 173.5 -61.5t62.5 -187.5h-415v-8h1q0 -90 51 -143t129 -53zM311 448
q-66 0 -111.5 -36.5t-60.5 -102.5h324q-3 67 -42.5 103t-109.5 36zM264 -124q15 16 36 16t36 -16q15 -15 15 -36t-15 -36q-23 -23 -55.5 -10.5t-32.5 46.5q0 20 16 36z" />
    <glyph glyph-name="uni1EC8" unicode="&#x1ec8;" horiz-adv-x="268" 
d="M132 952q44 0 74 -24t30 -64q0 -23 -13 -41t-28 -26.5t-28 -21t-13 -26.5h-44q0 20 11.5 36t26 25t26 23t11.5 31q0 21 -14.5 34t-38.5 13q-48 0 -56 -47h-48q4 41 32.5 64.5t71.5 23.5zM173 0h-78v700h78v-700z" />
    <glyph glyph-name="uni1EC9" unicode="&#x1ec9;" horiz-adv-x="235" 
d="M115 747q44 0 74 -24t30 -64q0 -23 -13 -41t-28 -26.5t-28 -21t-13 -26.5h-44q0 20 11.5 36t26 25t26 23t11.5 31q0 21 -14.5 34t-38.5 13q-48 0 -56 -47h-48q4 41 32.5 64.5t71.5 23.5zM155 0h-75v495h75v-495z" />
    <glyph glyph-name="uni1ECA" unicode="&#x1eca;" horiz-adv-x="268" 
d="M95 0v700h78v-700h-78zM172 -196q-23 -23 -55.5 -10.5t-32.5 46.5q-2 32 32 47t56 -11q15 -15 15 -36t-15 -36z" />
    <glyph glyph-name="uni1ECB" unicode="&#x1ecb;" horiz-adv-x="235" 
d="M154 628q-23 -23 -55.5 -10.5t-32.5 46.5q-2 32 32 47.5t56 -10.5q15 -16 15 -37t-15 -36zM155 0h-75v495h75v-495zM155 -196q-23 -23 -55.5 -10.5t-32.5 46.5q-2 32 32 47t56 -11q15 -15 15 -36t-15 -36z" />
    <glyph glyph-name="uni1ECC" unicode="&#x1ecc;" horiz-adv-x="835" 
d="M157 606q101 104 260 104q160 0 261 -104q101 -106 101 -256q0 -151 -101 -255q-100 -105 -261 -105q-159 0 -260 105q-101 104 -101 255q0 150 101 256zM417 56q124 0 200 85q77 85 77 209t-77 210q-77 84 -200 84t-199 -84q-77 -86 -77 -210t77 -209q76 -85 199 -85z
M454 -196q-23 -23 -55.5 -10.5t-32.5 46.5q-2 32 32 47t56 -11q15 -15 15 -36t-15 -36z" />
    <glyph glyph-name="uni1ECD" unicode="&#x1ecd;" horiz-adv-x="625" 
d="M313 505q110 0 186 -70t76 -187t-76 -187q-77 -71 -186 -71t-186 71q-76 70 -76 187t76 187t186 70zM184 104q51 -53 129 -53t129 53q51 52 51 144t-51 144t-129 52t-129 -53q-52 -52 -52 -143q0 -92 52 -144zM350 -196q-23 -23 -55.5 -10.5t-32.5 46.5q-2 32 32 47
t56 -11q15 -15 15 -36t-15 -36z" />
    <glyph glyph-name="uni1ECE" unicode="&#x1ece;" horiz-adv-x="835" 
d="M414 911q-48 0 -56 -47h-48q4 41 32.5 64.5t71.5 23.5q44 0 74 -24t30 -64q0 -23 -13 -41t-28 -26.5t-28 -21t-13 -26.5h-44q0 20 11.5 36t26 25t26 23t11.5 31q0 21 -14.5 34t-38.5 13zM157 606q101 104 260 104q160 0 261 -104q101 -106 101 -256q0 -151 -101 -255
q-100 -105 -261 -105q-159 0 -260 105q-101 104 -101 255q0 150 101 256zM417 56q124 0 200 85q77 85 77 209t-77 210q-77 84 -200 84t-199 -84q-77 -86 -77 -210t77 -209q76 -85 199 -85z" />
    <glyph glyph-name="uni1ECF" unicode="&#x1ecf;" horiz-adv-x="625" 
d="M310 706q-48 0 -56 -47h-48q4 41 32.5 64.5t71.5 23.5q44 0 74 -24t30 -64q0 -23 -13 -41t-28 -26.5t-28 -21t-13 -26.5h-44q0 20 11.5 36t26 25t26 23t11.5 31q0 21 -14.5 34t-38.5 13zM313 505q110 0 186 -70t76 -187t-76 -187q-77 -71 -186 -71t-186 71
q-76 70 -76 187t76 187t186 70zM184 104q51 -53 129 -53t129 53q51 52 51 144t-51 144t-129 52t-129 -53q-52 -52 -52 -143q0 -92 52 -144z" />
    <glyph glyph-name="uni1ED0" unicode="&#x1ed0;" horiz-adv-x="835" 
d="M650 1056h89l-140 -161h-56zM500 779l-83 120l-83 -120h-80l134 161h57l134 -161h-79zM157 606q101 104 260 104q160 0 261 -104q101 -106 101 -256q0 -151 -101 -255q-100 -105 -261 -105q-159 0 -260 105q-101 104 -101 255q0 150 101 256zM417 56q124 0 200 85
q77 85 77 209t-77 210q-77 84 -200 84t-199 -84q-77 -86 -77 -210t77 -209q76 -85 199 -85z" />
    <glyph glyph-name="uni1ED1" unicode="&#x1ed1;" horiz-adv-x="625" 
d="M546 851h89l-140 -161h-56zM396 574l-83 120l-83 -120h-80l134 161h57l134 -161h-79zM313 505q110 0 186 -70t76 -187t-76 -187q-77 -71 -186 -71t-186 71q-76 70 -76 187t76 187t186 70zM184 104q51 -53 129 -53t129 53q51 52 51 144t-51 144t-129 52t-129 -53
q-52 -52 -52 -143q0 -92 52 -144z" />
    <glyph glyph-name="uni1ED2" unicode="&#x1ed2;" horiz-adv-x="835" 
d="M511 1056l107 -161h-56l-140 161h89zM500 779l-83 120l-83 -120h-80l134 161h57l134 -161h-79zM157 606q101 104 260 104q160 0 261 -104q101 -106 101 -256q0 -151 -101 -255q-100 -105 -261 -105q-159 0 -260 105q-101 104 -101 255q0 150 101 256zM417 56
q124 0 200 85q77 85 77 209t-77 210q-77 84 -200 84t-199 -84q-77 -86 -77 -210t77 -209q76 -85 199 -85z" />
    <glyph glyph-name="uni1ED3" unicode="&#x1ed3;" horiz-adv-x="625" 
d="M407 851l107 -161h-56l-140 161h89zM396 574l-83 120l-83 -120h-80l134 161h57l134 -161h-79zM313 505q110 0 186 -70t76 -187t-76 -187q-77 -71 -186 -71t-186 71q-76 70 -76 187t76 187t186 70zM184 104q51 -53 129 -53t129 53q51 52 51 144t-51 144t-129 52t-129 -53
q-52 -52 -52 -143q0 -92 52 -144z" />
    <glyph glyph-name="uni1ED4" unicode="&#x1ed4;" horiz-adv-x="835" 
d="M566 1027q-48 0 -56 -47h-48q4 41 32.5 64.5t71.5 23.5q44 0 74 -24t30 -64q0 -23 -13 -41t-28 -26.5t-28 -21t-13 -26.5h-44q0 20 11.5 36t26 25t26 23t11.5 31q0 21 -14.5 34t-38.5 13zM500 779l-83 120l-83 -120h-80l134 161h57l134 -161h-79zM157 606
q101 104 260 104q160 0 261 -104q101 -106 101 -256q0 -151 -101 -255q-100 -105 -261 -105q-159 0 -260 105q-101 104 -101 255q0 150 101 256zM417 56q124 0 200 85q77 85 77 209t-77 210q-77 84 -200 84t-199 -84q-77 -86 -77 -210t77 -209q76 -85 199 -85z" />
    <glyph glyph-name="uni1ED5" unicode="&#x1ed5;" horiz-adv-x="625" 
d="M462 822q-48 0 -56 -47h-48q4 41 32.5 64.5t71.5 23.5q44 0 74 -24t30 -64q0 -23 -13 -41t-28 -26.5t-28 -21t-13 -26.5h-44q0 20 11.5 36t26 25t26 23t11.5 31q0 21 -14.5 34t-38.5 13zM396 574l-83 120l-83 -120h-80l134 161h57l134 -161h-79zM313 505q110 0 186 -70
t76 -187t-76 -187q-77 -71 -186 -71t-186 71q-76 70 -76 187t76 187t186 70zM184 104q51 -53 129 -53t129 53q51 52 51 144t-51 144t-129 52t-129 -53q-52 -52 -52 -143q0 -92 52 -144z" />
    <glyph glyph-name="uni1ED6" unicode="&#x1ed6;" horiz-adv-x="835" 
d="M838 1026h48q-7 -63 -37 -95.5t-76 -32.5q-35 0 -60.5 17.5t-45.5 35t-41 17.5q-52 0 -65 -70h-48q7 64 36.5 96t76.5 32q35 0 60.5 -17.5t45.5 -35t41 -17.5q26 0 41.5 17t23.5 53zM500 779l-83 120l-83 -120h-80l134 161h57l134 -161h-79zM157 606q101 104 260 104
q160 0 261 -104q101 -106 101 -256q0 -151 -101 -255q-100 -105 -261 -105q-159 0 -260 105q-101 104 -101 255q0 150 101 256zM417 56q124 0 200 85q77 85 77 209t-77 210q-77 84 -200 84t-199 -84q-77 -86 -77 -210t77 -209q76 -85 199 -85z" />
    <glyph glyph-name="uni1ED7" unicode="&#x1ed7;" horiz-adv-x="625" 
d="M734 821h48q-7 -63 -37 -95.5t-76 -32.5q-35 0 -60.5 17.5t-45.5 35t-41 17.5q-52 0 -65 -70h-48q7 64 36.5 96t76.5 32q35 0 60.5 -17.5t45.5 -35t41 -17.5q26 0 41.5 17t23.5 53zM396 574l-83 120l-83 -120h-80l134 161h57l134 -161h-79zM313 505q110 0 186 -70
t76 -187t-76 -187q-77 -71 -186 -71t-186 71q-76 70 -76 187t76 187t186 70zM184 104q51 -53 129 -53t129 53q51 52 51 144t-51 144t-129 52t-129 -53q-52 -52 -52 -143q0 -92 52 -144z" />
    <glyph glyph-name="uni1ED8" unicode="&#x1ed8;" horiz-adv-x="835" 
d="M500 779l-83 120l-83 -120h-80l134 161h57l134 -161h-79zM157 606q101 104 260 104q160 0 261 -104q101 -106 101 -256q0 -151 -101 -255q-100 -105 -261 -105q-159 0 -260 105q-101 104 -101 255q0 150 101 256zM417 56q124 0 200 85q77 85 77 209t-77 210
q-77 84 -200 84t-199 -84q-77 -86 -77 -210t77 -209q76 -85 199 -85zM382 -124q15 16 36 16t36 -16q15 -15 15 -36t-15 -36q-23 -23 -55.5 -10.5t-32.5 46.5q0 20 16 36z" />
    <glyph glyph-name="uni1ED9" unicode="&#x1ed9;" horiz-adv-x="625" 
d="M396 574l-83 120l-83 -120h-80l134 161h57l134 -161h-79zM313 505q110 0 186 -70t76 -187t-76 -187q-77 -71 -186 -71t-186 71q-76 70 -76 187t76 187t186 70zM184 104q51 -53 129 -53t129 53q51 52 51 144t-51 144t-129 52t-129 -53q-52 -52 -52 -143q0 -92 52 -144z
M278 -124q15 16 36 16t36 -16q15 -15 15 -36t-15 -36q-23 -23 -55.5 -10.5t-32.5 46.5q0 20 16 36z" />
    <glyph glyph-name="uni1EDA" unicode="&#x1eda;" horiz-adv-x="835" 
d="M520 900h96l-161 -131h-64zM840 665q0 -49 -28 -86t-76 -53q43 -80 43 -176q0 -151 -101 -255q-100 -105 -261 -105q-159 0 -260 105q-101 104 -101 255q0 150 101 256q101 104 260 104q90 0 164.5 -35.5t123.5 -100.5q63 16 63 91q0 17 -3 34h73q2 -30 2 -34zM417 56
q124 0 200 85q77 85 77 209t-77 210q-77 84 -200 84t-199 -84q-77 -86 -77 -210t77 -209q76 -85 199 -85z" />
    <glyph glyph-name="uni1EDB" unicode="&#x1edb;" horiz-adv-x="713" 
d="M394 735h89l-140 -161h-56zM683 460q0 -52 -31 -90.5t-85 -52.5q8 -37 8 -69q0 -117 -76 -187q-77 -71 -186 -71t-186 71q-76 70 -76 187t76 187t186 70q76 0 139 -36.5t96 -99.5q63 17 63 91q0 18 -3 34h73q2 -30 2 -34zM184 104q51 -53 129 -53t129 53q51 52 51 144
t-51 144t-129 52t-129 -53q-52 -52 -52 -143q0 -92 52 -144z" />
    <glyph glyph-name="uni1EDC" unicode="&#x1edc;" horiz-adv-x="835" 
d="M357 900l129 -131h-64l-161 131h96zM840 665q0 -49 -28 -86t-76 -53q43 -80 43 -176q0 -151 -101 -255q-100 -105 -261 -105q-159 0 -260 105q-101 104 -101 255q0 150 101 256q101 104 260 104q90 0 164.5 -35.5t123.5 -100.5q63 16 63 91q0 17 -3 34h73q2 -30 2 -34z
M417 56q124 0 200 85q77 85 77 209t-77 210q-77 84 -200 84t-199 -84q-77 -86 -77 -210t77 -209q76 -85 199 -85z" />
    <glyph glyph-name="uni1EDD" unicode="&#x1edd;" horiz-adv-x="713" 
d="M255 735l107 -161h-56l-140 161h89zM683 460q0 -52 -31 -90.5t-85 -52.5q8 -37 8 -69q0 -117 -76 -187q-77 -71 -186 -71t-186 71q-76 70 -76 187t76 187t186 70q76 0 139 -36.5t96 -99.5q63 17 63 91q0 18 -3 34h73q2 -30 2 -34zM184 104q51 -53 129 -53t129 53
q51 52 51 144t-51 144t-129 52t-129 -53q-52 -52 -52 -143q0 -92 52 -144z" />
    <glyph glyph-name="uni1EDE" unicode="&#x1ede;" horiz-adv-x="835" 
d="M414 911q-48 0 -56 -47h-48q4 41 32.5 64.5t71.5 23.5q44 0 74 -24t30 -64q0 -23 -13 -41t-28 -26.5t-28 -21t-13 -26.5h-44q0 20 11.5 36t26 25t26 23t11.5 31q0 21 -14.5 34t-38.5 13zM840 665q0 -49 -28 -86t-76 -53q43 -80 43 -176q0 -151 -101 -255
q-100 -105 -261 -105q-159 0 -260 105q-101 104 -101 255q0 150 101 256q101 104 260 104q90 0 164.5 -35.5t123.5 -100.5q63 16 63 91q0 17 -3 34h73q2 -30 2 -34zM417 56q124 0 200 85q77 85 77 209t-77 210q-77 84 -200 84t-199 -84q-77 -86 -77 -210t77 -209
q76 -85 199 -85z" />
    <glyph glyph-name="uni1EDF" unicode="&#x1edf;" horiz-adv-x="713" 
d="M310 706q-48 0 -56 -47h-48q4 41 32.5 64.5t71.5 23.5q44 0 74 -24t30 -64q0 -23 -13 -41t-28 -26.5t-28 -21t-13 -26.5h-44q0 20 11.5 36t26 25t26 23t11.5 31q0 21 -14.5 34t-38.5 13zM683 460q0 -52 -31 -90.5t-85 -52.5q8 -37 8 -69q0 -117 -76 -187
q-77 -71 -186 -71t-186 71q-76 70 -76 187t76 187t186 70q76 0 139 -36.5t96 -99.5q63 17 63 91q0 18 -3 34h73q2 -30 2 -34zM184 104q51 -53 129 -53t129 53q51 52 51 144t-51 144t-129 52t-129 -53q-52 -52 -52 -143q0 -92 52 -144z" />
    <glyph glyph-name="uni1EE0" unicode="&#x1ee0;" horiz-adv-x="835" 
d="M344 838q-52 0 -65 -70h-48q7 64 36.5 96t76.5 32q35 0 60.5 -17.5t45.5 -35t41 -17.5q26 0 41.5 17t23.5 53h48q-7 -63 -37 -95.5t-76 -32.5q-35 0 -60.5 17.5t-45.5 35t-41 17.5zM840 665q0 -49 -28 -86t-76 -53q43 -80 43 -176q0 -151 -101 -255q-100 -105 -261 -105
q-159 0 -260 105q-101 104 -101 255q0 150 101 256q101 104 260 104q90 0 164.5 -35.5t123.5 -100.5q63 16 63 91q0 17 -3 34h73q2 -30 2 -34zM417 56q124 0 200 85q77 85 77 209t-77 210q-77 84 -200 84t-199 -84q-77 -86 -77 -210t77 -209q76 -85 199 -85z" />
    <glyph glyph-name="uni1EE1" unicode="&#x1ee1;" horiz-adv-x="713" 
d="M240 663q-52 0 -65 -70h-48q7 64 36.5 96t76.5 32q35 0 60.5 -17.5t45.5 -35t41 -17.5q26 0 41.5 17t23.5 53h48q-7 -63 -37 -95.5t-76 -32.5q-35 0 -60.5 17.5t-45.5 35t-41 17.5zM683 460q0 -52 -31 -90.5t-85 -52.5q8 -37 8 -69q0 -117 -76 -187q-77 -71 -186 -71
t-186 71q-76 70 -76 187t76 187t186 70q76 0 139 -36.5t96 -99.5q63 17 63 91q0 18 -3 34h73q2 -30 2 -34zM184 104q51 -53 129 -53t129 53q51 52 51 144t-51 144t-129 52t-129 -53q-52 -52 -52 -143q0 -92 52 -144z" />
    <glyph glyph-name="uni1EE2" unicode="&#x1ee2;" horiz-adv-x="835" 
d="M840 665q0 -49 -28 -86t-76 -53q43 -80 43 -176q0 -151 -101 -255q-100 -105 -261 -105q-159 0 -260 105q-101 104 -101 255q0 150 101 256q101 104 260 104q90 0 164.5 -35.5t123.5 -100.5q63 16 63 91q0 17 -3 34h73q2 -30 2 -34zM417 56q124 0 200 85q77 85 77 209
t-77 210q-77 84 -200 84t-199 -84q-77 -86 -77 -210t77 -209q76 -85 199 -85zM382 -124q15 16 36 16t36 -16q15 -15 15 -36t-15 -36q-23 -23 -55.5 -10.5t-32.5 46.5q0 20 16 36z" />
    <glyph glyph-name="uni1EE3" unicode="&#x1ee3;" horiz-adv-x="713" 
d="M683 460q0 -52 -31 -90.5t-85 -52.5q8 -37 8 -69q0 -117 -76 -187q-77 -71 -186 -71t-186 71q-76 70 -76 187t76 187t186 70q76 0 139 -36.5t96 -99.5q63 17 63 91q0 18 -3 34h73q2 -30 2 -34zM184 104q51 -53 129 -53t129 53q51 52 51 144t-51 144t-129 52t-129 -53
q-52 -52 -52 -143q0 -92 52 -144zM278 -124q15 16 36 16t36 -16q15 -15 15 -36t-15 -36q-23 -23 -55.5 -10.5t-32.5 46.5q0 20 16 36z" />
    <glyph glyph-name="uni1EE4" unicode="&#x1ee4;" horiz-adv-x="785" 
d="M616 307v393h79v-403q0 -179 -133 -262q-70 -45 -170 -45q-146 0 -224 89t-78 218v403h78v-393q0 -50 12.5 -94t38.5 -79.5t70 -56.5t103 -21q114 0 169 72q55 71 55 179zM357 -124q15 16 36 16t36 -16q15 -15 15 -36t-15 -36q-23 -23 -55.5 -10.5t-32.5 46.5q0 20 16 36
z" />
    <glyph glyph-name="uni1EE5" unicode="&#x1ee5;" horiz-adv-x="630" 
d="M475 253v242h75v-495h-75v97q-75 -107 -196 -107q-93 0 -146 53.5t-53 155.5v296h75v-280q0 -159 142 -159q67 0 123 50q55 49 55 147zM279 -124q15 16 36 16t36 -16q15 -15 15 -36t-15 -36q-23 -23 -55.5 -10.5t-32.5 46.5q0 20 16 36z" />
    <glyph glyph-name="uni1EE6" unicode="&#x1ee6;" horiz-adv-x="785" 
d="M389 911q-48 0 -56 -47h-48q4 41 32.5 64.5t71.5 23.5q44 0 74 -24t30 -64q0 -23 -13 -41t-28 -26.5t-28 -21t-13 -26.5h-44q0 20 11.5 36t26 25t26 23t11.5 31q0 21 -14.5 34t-38.5 13zM616 307v393h79v-403q0 -179 -133 -262q-70 -45 -170 -45q-146 0 -224 89t-78 218
v403h78v-393q0 -50 12.5 -94t38.5 -79.5t70 -56.5t103 -21q114 0 169 72q55 71 55 179z" />
    <glyph glyph-name="uni1EE7" unicode="&#x1ee7;" horiz-adv-x="630" 
d="M312 706q-48 0 -56 -47h-48q4 41 32.5 64.5t71.5 23.5q44 0 74 -24t30 -64q0 -23 -13 -41t-28 -26.5t-28 -21t-13 -26.5h-44q0 20 11.5 36t26 25t26 23t11.5 31q0 21 -14.5 34t-38.5 13zM475 253v242h75v-495h-75v97q-75 -107 -196 -107q-93 0 -146 53.5t-53 155.5v296
h75v-280q0 -159 142 -159q67 0 123 50q55 49 55 147z" />
    <glyph glyph-name="uni1EE8" unicode="&#x1ee8;" horiz-adv-x="876" 
d="M495 900h96l-161 -131h-64zM797 700h73q2 -30 2 -34q0 -67 -49 -109t-128 -42v-218q0 -179 -133 -262q-70 -45 -170 -45q-146 0 -224 89t-78 218v403h78v-393q0 -50 12.5 -94t38.5 -79.5t70 -56.5t103 -21q114 0 169 72q55 71 55 179v393h79v-130q105 0 105 96
q0 18 -3 34z" />
    <glyph glyph-name="uni1EE9" unicode="&#x1ee9;" horiz-adv-x="751" 
d="M396 735h89l-140 -161h-56zM652 494h73q2 -30 2 -34q0 -67 -49 -109t-128 -42v-309h-75v97q-75 -107 -196 -107q-93 0 -146 53.5t-53 155.5v296h75v-280q0 -159 142 -159q67 0 123 50q55 49 55 147v242h75v-131q105 0 105 96q0 18 -3 34z" />
    <glyph glyph-name="uni1EEA" unicode="&#x1eea;" horiz-adv-x="876" 
d="M332 900l129 -131h-64l-161 131h96zM797 700h73q2 -30 2 -34q0 -67 -49 -109t-128 -42v-218q0 -179 -133 -262q-70 -45 -170 -45q-146 0 -224 89t-78 218v403h78v-393q0 -50 12.5 -94t38.5 -79.5t70 -56.5t103 -21q114 0 169 72q55 71 55 179v393h79v-130q105 0 105 96
q0 18 -3 34z" />
    </font>
</defs>
</svg>
