<?xml version="1.0" standalone="no"?>
<!DOCTYPE svg PUBLIC "-//W3C//DTD SVG 1.1//EN" "http://www.w3.org/Graphics/SVG/1.1/DTD/svg11.dtd" >
<svg xmlns="http://www.w3.org/2000/svg" xmlns:xlink="http://www.w3.org/1999/xlink" version="1.1">
<metadata>
Created by FontForge 20161003 at Mon Jul 31 14:44:13 2017
 By www-data
Copyright (c) 2009 by Andrij Shevchenko / AndrijType. All rights reserved.
</metadata>
<defs>
<font id="OksanaSansItalic" horiz-adv-x="633" >
  <font-face 
    font-family="OksanaSansItalic"
    font-weight="400"
    font-style="italic"
    font-stretch="normal"
    units-per-em="1000"
    panose-1="2 1 5 5 4 2 0 2 0 4"
    ascent="750"
    descent="-250"
    x-height="500"
    cap-height="650"
    bbox="-92 -263 1752 965"
    underline-thickness="50"
    underline-position="-150"
    slope="-11"
    unicode-range="U+0020-FB06"
  />
<missing-glyph horiz-adv-x="610" 
d="M502 160l-43 -35l-137 154l-143 -139l-43 35l150 146l-140 159l44 36l136 -156l148 144l43 -35l-154 -150zM182 332q0 -19 -13 -31t-32 -12q-18 0 -31 12t-13 31q0 18 13.5 30t31.5 12t31 -12t13 -30zM381 518q0 -19 -13 -30.5t-32 -11.5t-32 11.5t-13 30.5q0 18 13.5 30
t31.5 12t31.5 -12t13.5 -30zM557 315q0 -18 -13 -30t-32 -12q-18 0 -31 12t-13 30q0 19 12.5 30.5t31.5 11.5t32 -11.5t13 -30.5zM366 123q0 -18 -13 -29.5t-32 -11.5t-31.5 11.5t-12.5 29.5q0 19 13 31t31 12q19 0 32 -12t13 -31z" />
    <glyph glyph-name="fi" unicode="fi" horiz-adv-x="689" 
d="M656 500q0 -32 -48 -257.5t-48 -242.5h-70q0 14 16.5 95t39 190t31.5 158l-3 -2h-322q-106 -598 -134 -691h-72q11 33 57 272t78 419h-61v59h72l11 68q15 103 61.5 149t124.5 46q32 0 61.5 -7.5t43.5 -15.5l13 -7v-60q-58 25 -114 25q-52 0 -80.5 -27.5t-38.5 -102.5
l-12 -68h394zM717 665q0 -23 -15.5 -40t-35.5 -17q-18 0 -26.5 11t-8.5 23q0 23 16 40t36 17q17 0 25.5 -11t8.5 -23z" />
    <glyph glyph-name="fl" unicode="fl" horiz-adv-x="685" 
d="M434 500v-59h-182q-106 -598 -134 -691h-72q11 33 57 272t78 419h-61v59h72l11 68q14 103 61.5 149t125.5 46l309 -12l-1 -1h12q0 -32 -71.5 -382.5t-71.5 -367.5h-71q0 15 25.5 145t60 300.5t47.5 240.5q-171 12 -218 12q-65 0 -96 -27t-41 -103l-12 -68h172z" />
    <glyph glyph-name="afii10104_afii10104" unicode="&#x457;&#x457;" horiz-adv-x="551" 
d="M183 500h71q0 -32 -48 -257.5t-48 -242.5h-71q0 20 48 247.5t48 252.5zM448 500h71q0 -32 -48 -257.5t-48 -242.5h-71q0 20 48 247.5t48 252.5zM664 665q0 -23 -15.5 -40t-35.5 -17q-18 0 -26.5 11t-8.5 23q0 23 16 40t36 17q17 0 25.5 -11t8.5 -23zM519 665
q0 -23 -15.5 -40t-35.5 -17q-18 0 -26.5 11t-8.5 23q0 23 16 40t36 17q17 0 25.5 -11t8.5 -23zM376 665q0 -23 -15.5 -40t-35.5 -17q-18 0 -26.5 11t-8.5 23q0 23 16 40t36 17q17 0 25.5 -11t8.5 -23zM231 665q0 -23 -15.5 -40t-35.5 -17q-18 0 -26.5 11t-8.5 23q0 23 16 40
t36 17q17 0 25.5 -11t8.5 -23z" />
    <glyph glyph-name="afii10103_afii10104" unicode="&#x456;&#x457;" horiz-adv-x="552" 
d="M183 500h71q0 -32 -48 -257.5t-48 -242.5h-71q0 20 48 247.5t48 252.5zM448 500h71q0 -32 -48 -257.5t-48 -242.5h-71q0 20 48 247.5t48 252.5zM661 665q0 -23 -15.5 -40t-35.5 -17q-18 0 -26.5 11t-8.5 23q0 23 16 40t36 17q17 0 25.5 -11t8.5 -23zM493 665
q0 -23 -15.5 -40t-35.5 -17q-18 0 -26.5 11t-8.5 23q0 23 16 40t36 17q17 0 25.5 -11t8.5 -23zM291 665q0 -23 -15.5 -40t-35.5 -17q-18 0 -26.5 11t-8.5 23q0 23 16 40t36 17q17 0 25.5 -11t8.5 -23z" />
    <glyph glyph-name=".notdef" horiz-adv-x="610" 
d="M502 160l-43 -35l-137 154l-143 -139l-43 35l150 146l-140 159l44 36l136 -156l148 144l43 -35l-154 -150zM182 332q0 -19 -13 -31t-32 -12q-18 0 -31 12t-13 31q0 18 13.5 30t31.5 12t31 -12t13 -30zM381 518q0 -19 -13 -30.5t-32 -11.5t-32 11.5t-13 30.5q0 18 13.5 30
t31.5 12t31.5 -12t13.5 -30zM557 315q0 -18 -13 -30t-32 -12q-18 0 -31 12t-13 30q0 19 12.5 30.5t31.5 11.5t32 -11.5t13 -30.5zM366 123q0 -18 -13 -29.5t-32 -11.5t-31.5 11.5t-12.5 29.5q0 19 13 31t31 12q19 0 32 -12t13 -31z" />
    <glyph glyph-name=".null" horiz-adv-x="0" 
 />
    <glyph glyph-name="nonmarkingreturn" horiz-adv-x="333" 
 />
    <glyph glyph-name="space" unicode=" " horiz-adv-x="283" 
 />
    <glyph glyph-name="exclam" unicode="!" horiz-adv-x="344" 
d="M323 750l-98 -470h-59l84 470h73zM123 44q0 23 15.5 38t34.5 15q18 0 29.5 -11t11.5 -27q0 -23 -15.5 -38t-34.5 -15q-18 0 -29.5 11t-11.5 27z" />
    <glyph glyph-name="quotedbl" unicode="&#x22;" horiz-adv-x="341" 
d="M102 524l-4 226h69l-9 -226h-56zM260 524l-4 226h69l-9 -226h-56z" />
    <glyph glyph-name="numbersign" unicode="#" horiz-adv-x="581" 
d="M467 544l-31 -118h105v-49h-117l-27 -106h144v-49h-157l-35 -138l-44 12l32 126h-108l-33 -131l-44 13l30 118h-103v49h116l27 106h-143v49h155l36 138l44 -12l-33 -126h108l34 131zM269 377l-27 -106h108l27 106h-108z" />
    <glyph glyph-name="dollar" unicode="$" horiz-adv-x="532" 
d="M53 114l28 49q8 -7 23.5 -16.5t62.5 -26t94 -16.5q62 0 100.5 29t38.5 66q0 36 -27.5 57.5t-94.5 42.5q-78 27 -108.5 57t-30.5 80q0 61 50.5 99.5t136.5 42.5l21 124h68l-27 -125q28 -3 56.5 -8t43.5 -9l14 -4v-55q-75 25 -141 25q-69 0 -106.5 -25t-37.5 -65
q0 -35 27 -56t97 -45q74 -27 105.5 -57t31.5 -79q0 -58 -52.5 -99.5t-138.5 -46.5l-17 -105h-68l22 105q-51 4 -93.5 19.5t-60.5 28.5z" />
    <glyph glyph-name="percent" unicode="%" horiz-adv-x="985" 
d="M816 650l-533 -650h-72l534 650h71zM480 574q0 -83 -54 -135.5t-137 -52.5t-136 52.5t-53 135.5t53.5 136t135.5 53q81 0 136 -53t55 -136zM419 574q0 58 -37.5 94.5t-92.5 36.5q-54 0 -91 -36.5t-37 -94.5t36.5 -94t91.5 -36q56 0 93 36t37 94zM926 82
q0 -83 -54.5 -135.5t-136.5 -52.5q-84 0 -137 52.5t-53 135.5t54 136t136 53q81 0 136 -53.5t55 -135.5zM865 82q0 58 -37.5 94.5t-92.5 36.5q-54 0 -91.5 -36.5t-37.5 -94.5t37 -94t92 -36t92.5 36.5t37.5 93.5z" />
    <glyph glyph-name="ampersand" unicode="&#x26;" horiz-adv-x="916" 
d="M932 327h-156q-7 -40 -24 -116.5t-30.5 -136.5t-13.5 -74h-69q0 18 31 159q-6 -11 -13 -23t-33 -42t-57 -51t-84.5 -38.5t-114.5 -17.5q-121 0 -194 74.5t-73 190.5q0 164 114.5 287t267.5 123q82 0 131 -38t49 -90q0 -38 -22 -68.5t-51.5 -46.5t-63 -27t-53 -14
t-25.5 -3v-1h484v-47zM391 47q62 0 115.5 18.5t89 47.5t54 49.5t30.5 40.5q15 66 26 124h-527q-5 -35 -5 -64q0 -92 57 -154t160 -62zM476 610q-92 0 -173 -66t-113 -170h197q27 3 57 11t68.5 23.5t63.5 45.5t25 69q0 34 -34.5 60.5t-90.5 26.5z" />
    <glyph glyph-name="quotesingle" unicode="'" horiz-adv-x="183" 
d="M135 524l-4 226h69l-9 -226h-56z" />
    <glyph glyph-name="parenleft" unicode="(" horiz-adv-x="348" 
d="M239 -159l-65 -25q-8 13 -20 37.5t-31.5 102.5t-19.5 160q0 77 13.5 152t34.5 134t47 112.5t51.5 92t46.5 67t34 42.5l14 14l57 -25q-9 -10 -24 -28t-53.5 -78t-67.5 -123.5t-53 -159t-24 -190.5q0 -77 15 -148t30 -104z" />
    <glyph glyph-name="parenright" unicode=")" horiz-adv-x="356" 
d="M161 705l66 25q8 -13 19.5 -37.5t31 -102.5t19.5 -160q0 -105 -24.5 -206.5t-60 -172t-71 -126t-59.5 -82.5l-25 -27l-57 25q9 10 24 28t53.5 78t67.5 123.5t53 159.5t24 191q0 76 -15 147t-31 104z" />
    <glyph glyph-name="asterisk" unicode="*" horiz-adv-x="432" 
d="M57 528l23 69l158 -77l-23 187l62 3l-6 -186l153 74l22 -63l-163 -48l115 -141l-60 -37l-84 157l-95 -157l-46 40l115 136z" />
    <glyph glyph-name="plus" unicode="+" horiz-adv-x="491" 
d="M74 249v58h168v171h56v-171h170v-58h-170v-171h-56v171h-168z" />
    <glyph glyph-name="comma" unicode="," horiz-adv-x="308" 
d="M84 -86l-32 22q103 121 103 203v39q11 8 31 8q16 0 26 -8t10 -23q0 -52 -40.5 -119t-97.5 -122z" />
    <glyph glyph-name="hyphen" unicode="-" horiz-adv-x="368" 
d="M74 249v58h271v-58h-271z" />
    <glyph glyph-name="period" unicode="." horiz-adv-x="290" 
d="M103 44q0 23 15.5 38t34.5 15q18 0 29.5 -11t11.5 -27q0 -23 -15.5 -38t-34.5 -15q-18 0 -29.5 11t-11.5 27z" />
    <glyph glyph-name="slash" unicode="/" horiz-adv-x="443" 
d="M39 -250h-68q93 210 209.5 460t186.5 395l70 145h68q-256 -528 -466 -1000z" />
    <glyph glyph-name="zero" unicode="0" horiz-adv-x="667" 
d="M637 388q0 -160 -90.5 -280.5t-217.5 -120.5q-238 0 -238 276q0 103 38.5 194.5t109 148t154.5 56.5q116 0 180 -68t64 -206zM564 386q0 221 -173 221q-64 0 -117 -51t-81.5 -129.5t-28.5 -162.5q0 -222 169 -222q95 0 163 106.5t68 237.5z" />
    <glyph glyph-name="one" unicode="1" horiz-adv-x="437" 
d="M272 0h-74q0 15 20.5 118.5t50 247t41.5 206.5q-150 -122 -235 -185l-24 46l272 217h74q0 -22 -62.5 -325.5t-62.5 -324.5z" />
    <glyph glyph-name="two" unicode="2" horiz-adv-x="579" 
d="M484 49v-62q-91 13 -431 13v53q17 11 46 30t102 73t129 103.5t102 109.5t46 103q0 64 -40.5 96t-129.5 32q-35 0 -72.5 -6t-57.5 -12l-19 -7v56q62 31 170 31q226 0 226 -178q0 -56 -45 -123t-113.5 -126.5t-137 -107t-128.5 -78.5h38q54 0 127 4.5t99 4.5q43 0 89 -9z
" />
    <glyph glyph-name="three" unicode="3" horiz-adv-x="580" 
d="M222 591v59h388v-43q-166 -138 -312 -243q211 -14 211 -176q0 -81 -74 -141t-196 -60q-41 0 -77 8t-58 19.5t-38.5 23t-23.5 19.5l-7 8l29 48q2 -3 7 -7.5t21.5 -15.5t35 -20t49 -16t62.5 -7q88 0 140.5 44.5t52.5 103.5q0 65 -50 92.5t-155 27.5l-2 43q96 89 293 242
q-108 -9 -169 -9h-127z" />
    <glyph glyph-name="four" unicode="4" horiz-adv-x="591" 
d="M30 174v47q76 91 191.5 198.5t192.5 168.5l77 62h61q0 -21 -93 -420l94 2v-58h-107q-36 -156 -36 -174h-74q0 20 36 174h-342zM384 228q62 263 78 338q-230 -186 -365 -344z" />
    <glyph glyph-name="five" unicode="5" horiz-adv-x="556" 
d="M35 64l28 46q7 -7 20.5 -17.5t60.5 -28.5t100 -18q83 0 135.5 46.5t52.5 115.5q0 63 -69.5 103t-203.5 40l-3 3q22 92 42 166t29 102l9 28h307v-57h-262q-20 -70 -50 -189q134 -9 206 -62t72 -135q0 -92 -74 -156t-189 -64q-68 0 -120.5 19.5t-71.5 38.5z" />
    <glyph glyph-name="six" unicode="6" horiz-adv-x="603" 
d="M531 662l10 -62q-114 -14 -218 -92t-142 -193q102 80 207 80q87 0 140.5 -44.5t53.5 -119.5q0 -100 -74 -172t-192 -72q-107 0 -166 59t-59 151q0 94 40.5 179t105.5 143.5t141.5 96t152.5 46.5zM164 206q0 -71 40 -115t115 -44q87 0 137 52t50 124q0 57 -41 89.5
t-113 32.5q-96 0 -180 -64q-8 -38 -8 -75z" />
    <glyph glyph-name="seven" unicode="7" horiz-adv-x="459" 
d="M525 650v-43q0 -24 -128.5 -229t-265.5 -391l-67 30q112 152 225.5 321.5t162.5 256.5q-102 -9 -380 -9v64h453z" />
    <glyph glyph-name="eight" unicode="8" horiz-adv-x="643" 
d="M580 198q0 -83 -75 -147t-191 -64q-111 0 -167 48.5t-56 123.5q0 39 18 71.5t48 53.5t59.5 34t63.5 22q-100 43 -100 140q0 76 69.5 129t161.5 53q91 0 146 -39t55 -103q0 -124 -162 -181q130 -40 130 -141zM160 169q0 -55 39 -91t117 -36q82 0 135.5 46.5t53.5 109.5
q0 31 -17 54.5t-41 35t-48.5 19t-41.5 9.5l-17 1l3 3q-28 -5 -54 -13.5t-58 -25t-51.5 -45.5t-19.5 -67zM377 352l1 1h2q26 5 51.5 14.5t54.5 27t46.5 47.5t17.5 68q0 45 -39 72.5t-101 27.5q-63 0 -113.5 -37.5t-50.5 -92.5q0 -48 34 -78t68 -36l34 -7l-8 -8l1 1h2z" />
    <glyph glyph-name="nine" unicode="9" horiz-adv-x="591" 
d="M104 -13l-10 51q108 11 208.5 80.5t152.5 171.5q-92 -48 -178 -48q-93 0 -142.5 49t-49.5 130q0 95 71 168t182 73t170 -60.5t59 -159.5q0 -106 -66.5 -208t-173.5 -169t-223 -78zM494 452q0 68 -42 109.5t-115 41.5q-81 0 -131.5 -52.5t-50.5 -122.5q0 -62 36.5 -98
t107.5 -36q93 0 178 50q17 53 17 108z" />
    <glyph glyph-name="colon" unicode=":" horiz-adv-x="339" 
d="M187 361q0 23 15.5 38t34.5 15q18 0 29.5 -11t11.5 -27q0 -23 -15.5 -38t-34.5 -15q-18 0 -29.5 11t-11.5 27zM141 113q0 23 15.5 38t34.5 15q18 0 29.5 -11t11.5 -27q0 -23 -15.5 -38t-34.5 -15q-18 0 -29.5 11t-11.5 27z" />
    <glyph glyph-name="semicolon" unicode=";" horiz-adv-x="339" 
d="M187 361q0 23 15.5 38t34.5 15q18 0 29.5 -11t11.5 -27q0 -23 -15.5 -38t-34.5 -15q-18 0 -29.5 11t-11.5 27zM104 -86l-32 22q103 121 103 203v39q11 8 31 8q16 0 26 -8t10 -23q0 -52 -40.5 -119t-97.5 -122z" />
    <glyph glyph-name="less" unicode="&#x3c;" horiz-adv-x="450" 
d="M408 123l-41 -36l-244 197l321 198l25 -36l-273 -162z" />
    <glyph glyph-name="equal" unicode="=" horiz-adv-x="554" 
d="M94 349v58h457v-58h-457zM94 148v58h457v-58h-457z" />
    <glyph glyph-name="greater" unicode="&#x3e;" horiz-adv-x="450" 
d="M403 277l-320 -197l-27 36l273 161l-211 162l40 36z" />
    <glyph glyph-name="question" unicode="?" horiz-adv-x="504" 
d="M186 239v59q34 0 77.5 18t85.5 50.5t70.5 87.5t28.5 119q0 129 -177 129q-40 0 -75 -6t-50 -12l-15 -7v52q53 34 167 34q106 0 169 -49.5t63 -136.5q0 -62 -24 -118.5t-62 -95.5t-84 -67.5t-91 -42.5t-83 -14zM123 44q0 23 15.5 38t34.5 15q18 0 29.5 -11t11.5 -27
q0 -23 -15.5 -38t-34.5 -15q-18 0 -29.5 11t-11.5 27z" />
    <glyph glyph-name="at" unicode="@" horiz-adv-x="985" 
d="M469 -163v-51q-97 0 -182.5 41t-140.5 123t-55 189q0 140 67.5 252t178 172t240.5 60q164 0 264.5 -89t100.5 -218q0 -150 -68 -239.5t-152 -89.5q-110 0 -110 79v11q-77 -90 -162 -90q-67 0 -108.5 44t-41.5 118q0 101 81.5 179.5t188.5 78.5q39 0 77.5 -6t57.5 -12
l19 -6q0 -17 -29.5 -144t-29.5 -158q0 -23 15.5 -37.5t40.5 -14.5q55 0 108.5 74.5t53.5 198.5q0 114 -84.5 191.5t-217.5 77.5q-113 0 -210 -50t-158 -149t-61 -226q0 -131 94.5 -220t222.5 -89zM616 110q6 41 26.5 131t23.5 108q-65 13 -99 13q-81 0 -144 -59.5
t-63 -136.5q0 -60 30.5 -95t83.5 -35q61 0 142 74z" />
    <glyph glyph-name="A" unicode="A" horiz-adv-x="664" 
d="M388 650h93q13 -89 63.5 -320t74.5 -330h-76q-5 18 -38 169h-329q-93 -156 -93 -169h-79q0 21 192 325.5t192 324.5zM495 220q-57 266 -72 368q-41 -79 -217 -368h289z" />
    <glyph glyph-name="B" unicode="B" horiz-adv-x="621" 
d="M314 -13q-48 0 -99.5 3.5t-78.5 6.5l-28 3q0 21 62 324.5t62 325.5q86 12 156 12q111 0 162 -43t51 -111q0 -86 -112 -175q94 -41 94 -140q0 -84 -70.5 -145t-198.5 -61zM518 190q0 122 -189 122q-43 0 -97 -6q-42 -210 -50 -254q76 -8 138 -8q91 0 144.5 41t53.5 105z
M242 354q55 5 91 5q60 0 109 -11q94 77 94 145q0 112 -159 112q-32 0 -86 -6q-12 -69 -49 -245z" />
    <glyph glyph-name="C" unicode="C" horiz-adv-x="681" 
d="M694 632l-1 -2q-35 -128 -35 -189h-56q0 45 22 140q-82 19 -147 19q-129 0 -219.5 -94t-90.5 -230q0 -93 61.5 -158.5t162.5 -65.5q38 0 76 10.5t65 25.5t49.5 30t33.5 26l11 10l29 -36q-4 -5 -12 -14t-34.5 -31.5t-55.5 -40t-74 -31.5t-91 -14q-139 0 -218 82t-79 200
q0 164 113.5 278.5t273.5 114.5q49 0 103 -7.5t83 -14.5z" />
    <glyph glyph-name="D" unicode="D" horiz-adv-x="776" 
d="M327 -13q-53 0 -108 3.5t-83 6.5l-29 3q0 21 62.5 324.5t62.5 325.5q90 12 196 12q160 0 238.5 -79.5t78.5 -205.5q0 -104 -57 -194t-153.5 -143t-207.5 -53zM425 600q-39 0 -127 -5q-11 -56 -53.5 -262t-54.5 -273q74 -8 138 -8q137 0 238 92.5t101 222.5q0 103 -60 168
t-182 65z" />
    <glyph glyph-name="E" unicode="E" horiz-adv-x="558" 
d="M363 374l94 -1v-55q-39 1 -100 1q-83 0 -141 -40t-58 -112q0 -49 43.5 -83.5t126.5 -34.5q48 0 93 17t67 34l21 18l23 -43q-3 -4 -9 -9.5t-26.5 -21t-43.5 -27t-60 -21t-76 -9.5q-115 0 -176 49t-61 123q0 77 56 130t138 68q-74 48 -74 131q0 79 63.5 126.5t153.5 47.5
q37 0 73.5 -6t55.5 -12l18 -5v-55q-68 20 -138 20q-65 0 -111 -33t-46 -89q0 -33 12.5 -56.5t31 -33.5t31 -14t19.5 -4z" />
    <glyph glyph-name="F" unicode="F" horiz-adv-x="564" 
d="M181 0h-74q0 21 62.5 324.5t62.5 325.5h401l-1 -60h-335l-48 -240h282v-59h-295q-55 -266 -55 -291z" />
    <glyph glyph-name="G" unicode="G" horiz-adv-x="742" 
d="M629 388h66q0 -31 -37.5 -202t-37.5 -186q-86 -13 -198 -13q-162 0 -246.5 81t-84.5 201q0 164 113.5 278.5t273.5 114.5q49 0 103 -7.5t83 -14.5l30 -8v-63q-101 33 -217 33q-129 0 -219.5 -95t-90.5 -231q0 -96 67.5 -160.5t190.5 -64.5q73 0 140 13q5 22 24.5 112.5
t29.5 143t10 68.5z" />
    <glyph glyph-name="H" unicode="H" horiz-adv-x="793" 
d="M623 0h-74q0 23 53 280h-368q-53 -257 -53 -280h-74q0 21 62.5 324.5t62.5 325.5h74q0 -18 -60 -312h368q60 294 60 312h74q0 -22 -62.5 -325.5t-62.5 -324.5z" />
    <glyph glyph-name="I" unicode="I" horiz-adv-x="351" 
d="M181 0h-74q0 21 62.5 324.5t62.5 325.5h74q0 -22 -62.5 -325.5t-62.5 -324.5z" />
    <glyph glyph-name="J" unicode="J" horiz-adv-x="351" 
d="M-77 -144q69 0 123 66.5t79 182.5q26 118 65 320.5t39 224.5h74q0 -21 -38 -216t-66 -328q-32 -152 -105 -233t-171 -81v64z" />
    <glyph glyph-name="K" unicode="K" horiz-adv-x="670" 
d="M181 0h-74q0 21 62.5 324.5t62.5 325.5h74q0 -20 -76 -391q372 344 406 391h91q-44 -56 -336 -312l248 -338h-94l-210 289l-120 -104q-34 -162 -34 -185z" />
    <glyph glyph-name="L" unicode="L" horiz-adv-x="577" 
d="M541 58v-58h-434q0 21 62.5 324.5t62.5 325.5h74q0 -16 -22.5 -127.5t-53 -259.5t-41.5 -205h352z" />
    <glyph glyph-name="M" unicode="M" horiz-adv-x="924" 
d="M800 650h63q-9 -116 -19 -343t-10 -307h-70q0 147 27 535q-157 -246 -325 -535h-64q-17 67 -55 249.5t-57 293.5q-116 -334 -181 -543h-67q24 81 107 317t123 333h64q31 -205 111 -568q244 406 353 568z" />
    <glyph glyph-name="N" unicode="N" horiz-adv-x="819" 
d="M648 0h-63l-305 519q-11 -59 -39 -197t-44 -223t-16 -99h-74q0 21 60 312.5t64 329.5l1 8h63l306 -521q10 54 38.5 195.5t44.5 226t16 99.5h73q0 -22 -62.5 -325.5t-62.5 -324.5z" />
    <glyph glyph-name="O" unicode="O" horiz-adv-x="789" 
d="M758 378q0 -162 -111.5 -276.5t-260.5 -114.5q-136 0 -215.5 83.5t-79.5 200.5q0 162 112 276.5t260 114.5q136 0 215.5 -83.5t79.5 -200.5zM682 369q0 93 -62.5 161t-160.5 68q-117 0 -204 -92.5t-87 -225.5q0 -93 62.5 -161t159.5 -68q117 0 204.5 92.5t87.5 225.5z
" />
    <glyph glyph-name="P" unicode="P" horiz-adv-x="597" 
d="M177 0h-70q0 21 62.5 324.5t62.5 325.5q94 12 156 12q112 0 166.5 -55t54.5 -137q0 -52 -20.5 -95.5t-52.5 -70.5t-72 -46t-76.5 -27t-69.5 -8q-56 0 -97 11q-44 -213 -44 -234zM294 596q-13 -71 -62 -304q35 -10 77 -10q36 0 73 9.5t73 29t58.5 57t22.5 87.5
q0 59 -38 97.5t-121 38.5q-36 0 -83 -5z" />
    <glyph glyph-name="Q" unicode="Q" horiz-adv-x="788" 
d="M758 378q0 -152 -98.5 -262.5t-236.5 -125.5q7 -50 37.5 -90.5t68 -62t68.5 -32.5t46 -11v-57q-60 0 -123.5 29t-112 88.5t-54.5 134.5q-122 10 -192 91t-70 191q0 162 111.5 276.5t259.5 114.5q136 0 216 -83.5t80 -200.5zM681 369q0 93 -62.5 161t-159.5 68
q-117 0 -204.5 -92.5t-87.5 -225.5q0 -93 62.5 -161t160.5 -68q117 0 204 92.5t87 225.5z" />
    <glyph glyph-name="R" unicode="R" horiz-adv-x="660" 
d="M177 0h-70q0 21 62.5 324.5t62.5 325.5q76 12 157 12q101 0 160 -47.5t59 -139.5q0 -75 -47 -129.5t-127 -82.5l164 -263h-90l-146 244q-39 -6 -80 -6q-30 0 -60 3q-45 -216 -45 -241zM375 601q-19 0 -82 -7q-11 -61 -59 -293q38 -4 57 -4q106 0 176 48t70 128
q0 128 -162 128z" />
    <glyph glyph-name="S" unicode="S" horiz-adv-x="597" 
d="M569 465h-49q0 40 22 119q-67 23 -129 23q-88 0 -133 -33.5t-45 -89.5q0 -46 32 -75.5t78 -46.5t92.5 -36.5t78.5 -58t32 -97.5q0 -80 -66.5 -131.5t-176.5 -51.5q-50 0 -93.5 10t-70.5 23.5t-47 27.5t-28 24l-9 10l38 47q3 -3 8 -8.5t24 -19.5t41 -24.5t58 -19t76 -8.5
q74 0 121 33.5t47 87.5q0 44 -32 72.5t-77 45.5t-90.5 36t-77.5 57.5t-32 97.5q0 82 69 132.5t177 50.5q44 0 94.5 -9t78.5 -19l29 -9q-40 -104 -40 -160z" />
    <glyph glyph-name="T" unicode="T" horiz-adv-x="519" 
d="M269 0h-73q0 16 22.5 129t52.5 258t40 204h-221v59h517v-59h-222q-10 -57 -40.5 -203.5t-53 -259t-22.5 -128.5z" />
    <glyph glyph-name="U" unicode="U" horiz-adv-x="775" 
d="M611 0h-73q0 20 31 173q-8 -14 -16 -25.5t-35 -44.5t-54 -55.5t-67 -41.5t-80 -19q-91 0 -139.5 50t-48.5 124q0 37 46 253.5t46 235.5h73q0 -21 -43.5 -228.5t-43.5 -235.5q0 -54 36 -90.5t107 -36.5q40 0 81.5 22.5t73 56.5t48.5 56.5t28 39.5q82 401 82 416h73
q0 -22 -62.5 -325.5t-62.5 -324.5z" />
    <glyph glyph-name="V" unicode="V" horiz-adv-x="649" 
d="M642 650h78q-17 -69 -182 -318t-245 -332h-68l-122 650h77l101 -581q90 113 218 318t143 263z" />
    <glyph glyph-name="W" unicode="W" horiz-adv-x="1026" 
d="M1026 650h72q-32 -92 -161.5 -306t-220.5 -344h-65q-39 324 -65 544q-61 -116 -161.5 -282.5t-164.5 -261.5h-67l-90 650h78l68 -565q286 459 324 565h64q27 -195 69 -562q102 156 199 322.5t121 239.5z" />
    <glyph glyph-name="X" unicode="X" horiz-adv-x="699" 
d="M18 0q128 144 329 327l-184 323h94l145 -278q160 154 263 278h91q-102 -113 -314 -315l185 -335h-94l-149 289q-148 -144 -272 -289h-94z" />
    <glyph glyph-name="Y" unicode="Y" horiz-adv-x="611" 
d="M276 155q0 23 -52 147t-104 236l-53 112h85q147 -317 177 -434q46 71 123 179.5t131 181.5l54 73h91q-268 -352 -360 -488q-94 -142 -94 -162h-80q0 9 30.5 65t51.5 90z" />
    <glyph glyph-name="Z" unicode="Z" 
d="M665 650v-39l-492 -552q207 -4 374 -49v-60q-112 28 -206 39t-277 11v39l494 553h-411v58h518z" />
    <glyph glyph-name="bracketleft" unicode="[" horiz-adv-x="397" 
d="M405 -20v-54h-278v774h278v-54h-212v-666h212z" />
    <glyph glyph-name="backslash" unicode="\" horiz-adv-x="502" 
d="M-7 750h72q93 -210 209.5 -460t186.5 -395l70 -145h-72q-256 528 -466 1000z" />
    <glyph glyph-name="bracketright" unicode="]" horiz-adv-x="397" 
d="M310 700v-774h-278v54h212v666h-212v54h278z" />
    <glyph glyph-name="asciicircum" unicode="^" horiz-adv-x="406" 
d="M223 688l162 -174l-31 -30l-131 144l-132 -144l-30 30z" />
    <glyph glyph-name="underscore" unicode="_" horiz-adv-x="736" 
d="M94 -151v58h639v-58h-639z" />
    <glyph glyph-name="grave" unicode="`" horiz-adv-x="244" 
d="M130 728l43 27l83 -163l-35 -23z" />
    <glyph glyph-name="a" unicode="a" horiz-adv-x="636" 
d="M420 514q49 0 94 -6.5t66 -13.5l20 -6q0 -32 -46 -251.5t-46 -236.5h-70q0 18 14 86h-1q-6 -7 -10.5 -13t-24 -23.5t-38 -29.5t-47 -22.5t-56.5 -10.5q-88 0 -141 59.5t-53 145.5q0 141 102 231.5t237 90.5zM308 47q35 0 71.5 19t53 34.5t28.5 30.5q56 279 62 313
q-55 17 -112 17q-102 0 -179 -73t-77 -178q0 -70 41.5 -116.5t111.5 -46.5z" />
    <glyph glyph-name="b" unicode="b" horiz-adv-x="614" 
d="M225 750h71q0 -28 -62 -332h1l5 5q4 5 9.5 11.5t15 15.5t20 17.5t24.5 17t28.5 15t32.5 10.5t36 4q86 0 140.5 -64.5t54.5 -148.5q0 -140 -98.5 -227t-234.5 -87q-48 0 -94.5 6t-68.5 11l-22 6q0 20 71 367.5t71 372.5zM371 453q-35 0 -69.5 -18t-50 -33t-26.5 -29
q-52 -252 -64 -318q56 -15 117 -15q102 0 175.5 69.5t73.5 174.5q0 70 -43 119.5t-113 49.5z" />
    <glyph glyph-name="c" unicode="c" horiz-adv-x="524" 
d="M477 106l18 -42q-3 -3 -8 -8.5t-23 -18.5t-38 -23t-52.5 -18.5t-67.5 -8.5q-93 0 -159 61t-66 161q0 130 91 217.5t221 87.5q33 0 66.5 -4.5t50.5 -9.5l18 -4v-53q-67 15 -135 15q-102 0 -171 -71t-69 -172q0 -75 49.5 -121.5t124.5 -46.5q39 0 76.5 14.5t55.5 29.5z" />
    <glyph glyph-name="d" unicode="d" horiz-adv-x="625" 
d="M579 750h71q0 -32 -72 -382.5t-72 -367.5h-70q0 11 13 82q-7 -9 -18 -20t-34.5 -30.5t-55.5 -32t-66 -12.5q-88 0 -141 59.5t-53 145.5q0 94 47.5 169t121 114t155.5 39q65 0 127 -18q47 231 47 254zM308 47q34 0 68.5 17t52 32.5t29.5 29.5q2 12 62 308q-56 27 -114 27
q-101 0 -176 -73t-75 -178q0 -70 41.5 -116.5t111.5 -46.5z" />
    <glyph glyph-name="e" unicode="e" horiz-adv-x="554" 
d="M478 99l19 -45q-3 -3 -8 -7.5t-23 -16t-39 -20.5t-55 -16t-70 -7q-98 0 -159.5 57t-61.5 150q0 133 87 226.5t200 93.5q79 0 126 -46t47 -122q0 -26 -4.5 -49.5t-9.5 -34.5l-5 -11q-63 -7 -199 -16t-176 -10q-1 -11 -1 -33q0 -66 48 -105.5t121 -39.5q45 0 85.5 13
t59.5 26zM364 460q-69 0 -129.5 -53t-80.5 -141q239 10 320 21q9 30 9 56q0 55 -32 86t-87 31z" />
    <glyph glyph-name="f" unicode="f" horiz-adv-x="383" 
d="M434 500v-59h-182q-106 -598 -134 -691h-72q11 33 57 272t78 419h-61v59h72l11 68q15 103 61.5 149t124.5 46q32 0 61.5 -7.5t43.5 -15.5l13 -7v-60q-58 25 -114 25q-52 0 -80.5 -27.5t-38.5 -102.5l-12 -68h172z" />
    <glyph glyph-name="g" unicode="g" horiz-adv-x="631" 
d="M21 -167l43 45q2 -3 6.5 -8.5t20.5 -19.5t34 -24.5t47.5 -19t61.5 -8.5q57 0 99.5 21.5t66 51.5t38 72t18.5 74t5 66v3h-2q-5 -6 -10.5 -12.5t-24.5 -24t-38 -29.5t-47.5 -22.5t-56.5 -10.5q-88 0 -141.5 59.5t-53.5 145.5q0 141 102 231.5t238 90.5q49 0 93.5 -6.5
t65.5 -13.5l20 -6q0 -8 -37 -187t-39 -229q-1 -37 -8.5 -77t-28.5 -87.5t-52 -84t-84 -61.5t-121 -25q-45 0 -84 10t-62 24t-39.5 28t-22.5 24zM315 47q79 0 151 81q6 38 18 97.5t26 128t19 91.5q-58 16 -111 16q-102 0 -179 -73t-77 -178q0 -70 41.5 -116.5t111.5 -46.5z
" />
    <glyph glyph-name="h" unicode="h" horiz-adv-x="624" 
d="M224 750h71q0 -33 -69 -370q3 5 9 14.5t25.5 32.5t41 40.5t53.5 32t64 14.5q67 0 109 -43.5t42 -103.5q0 -45 -34 -200t-34 -167h-70q0 13 32.5 163t32.5 188q0 41 -31 70t-79 29q-33 0 -64 -16t-53.5 -40t-34.5 -40.5t-20 -29.5q-63 -304 -63 -324h-71q0 20 71.5 372.5
t71.5 377.5z" />
    <glyph glyph-name="i" unicode="i" horiz-adv-x="287" 
d="M183 500h71q0 -32 -48 -257.5t-48 -242.5h-71q0 20 48 247.5t48 252.5zM292 665q0 -23 -15.5 -40t-35.5 -17q-18 0 -26.5 11t-8.5 23q0 23 16 40t36 17q17 0 25.5 -11t8.5 -23z" />
    <glyph glyph-name="j" unicode="j" horiz-adv-x="284" 
d="M-92 -199q63 4 115.5 55t69.5 144q12 57 54 269.5t42 230.5h71q0 -17 -48 -257t-48 -243q-21 -125 -96.5 -192t-159.5 -71v64zM296 665q0 -23 -15.5 -40t-35.5 -17q-18 0 -26.5 11t-8.5 23q0 23 16 40t36 17q17 0 25.5 -11t8.5 -23z" />
    <glyph glyph-name="k" unicode="k" horiz-adv-x="539" 
d="M224 750h71q0 -26 -94 -491q173 122 279 241h85q-93 -102 -252 -220l191 -280h-89l-159 238l-69 -49q-35 -175 -35 -189h-71q0 20 71.5 372.5t71.5 377.5z" />
    <glyph glyph-name="l" unicode="l" horiz-adv-x="270" 
d="M224 750h71q0 -32 -71.5 -382.5t-71.5 -367.5h-71q0 20 71.5 372.5t71.5 377.5z" />
    <glyph glyph-name="m" unicode="m" horiz-adv-x="874" 
d="M183 500h71q0 -21 -19 -116h1q3 5 8 14t22.5 31.5t36.5 39.5t48.5 31t59.5 14q112 0 116 -122q9 14 23 30.5t37.5 39t55.5 37.5t65 15q115 0 115 -131q0 -41 -35 -204.5t-35 -178.5h-71q0 16 34 174.5t34 192.5q0 38 -20 61.5t-63 23.5q-33 0 -66 -22t-48.5 -41
t-28.5 -39q-7 -50 -37.5 -192t-30.5 -158h-70q0 17 34 177t34 190q0 38 -20.5 61.5t-62.5 23.5q-34 0 -68 -24t-49 -43.5t-26 -37.5q-70 -336 -70 -347h-71q0 20 48 247.5t48 252.5z" />
    <glyph glyph-name="n" unicode="n" horiz-adv-x="629" 
d="M183 500h71q0 -21 -19 -118q5 9 17.5 26.5t37 43.5t60.5 44t74 18q67 0 109 -44t42 -103q0 -34 -33.5 -195.5t-33.5 -171.5h-71q0 11 32.5 167.5t32.5 183.5q0 41 -30.5 70t-79.5 29q-31 0 -61 -14.5t-52 -37.5t-34 -39t-21 -31q-8 -40 -28 -132t-29 -138.5t-9 -57.5h-71
q0 20 48 247.5t48 252.5z" />
    <glyph glyph-name="o" unicode="o" 
d="M621 289q0 -121 -93 -211.5t-205 -90.5q-110 0 -176 59.5t-66 166.5q0 122 91.5 211.5t203.5 89.5q111 0 178 -59t67 -166zM370 457q-81 0 -148.5 -70t-67.5 -166q0 -81 49.5 -129t127.5 -48q81 0 149 70t68 166q0 81 -49.5 129t-128.5 48z" />
    <glyph glyph-name="p" unicode="p" horiz-adv-x="610" 
d="M174 500h70q0 -12 -12 -82h1l5 5q4 5 9.5 11.5t14.5 15.5t19.5 17.5t24.5 17t28 15t32 10.5t36 4q87 0 141.5 -64.5t54.5 -148.5q0 -139 -99 -226.5t-228 -87.5q-60 0 -122 15q-48 -229 -48 -252h-70q0 20 71.5 372.5t71.5 377.5zM224 376q-6 -34 -62 -312
q54 -24 112 -24q102 0 175.5 69.5t73.5 174.5q0 70 -43 119.5t-113 49.5q-81 0 -143 -77z" />
    <glyph glyph-name="q" unicode="q" horiz-adv-x="628" 
d="M420 514q49 0 94 -6.5t66 -13.5l20 -6q0 -32 -71 -376.5t-71 -361.5h-71q0 21 64 335q-10 -13 -27 -30.5t-61 -42.5t-88 -25q-88 0 -141 59.5t-53 145.5q0 141 102 231.5t237 90.5zM308 47q35 0 71.5 19t53 34.5t28.5 30.5q58 292 62 313q-55 17 -112 17q-102 0 -179 -73
t-77 -178q0 -70 41.5 -116.5t111.5 -46.5z" />
    <glyph glyph-name="r" unicode="r" horiz-adv-x="427" 
d="M456 500v-68q-34 9 -61 9q-109 0 -193 -211q-44 -210 -44 -230h-70q0 12 48 247.5t48 252.5h63q0 -21 -38 -192h1q20 43 36 72.5t40.5 63.5t53.5 52t61 18q17 0 30.5 -3.5t18.5 -6.5z" />
    <glyph glyph-name="s" unicode="s" horiz-adv-x="478" 
d="M26 50l31 45q8 -6 22 -15.5t59.5 -25t92.5 -15.5q65 0 102 25.5t37 62.5q0 65 -120 109q-75 30 -106.5 59.5t-31.5 77.5q0 64 64.5 102.5t155.5 38.5q33 0 69 -5t55 -11l19 -5v-51q-71 19 -141 19q-63 0 -106.5 -23t-43.5 -62q0 -34 31 -57t96 -46q68 -27 99.5 -61
t31.5 -81q0 -64 -57 -104t-152 -40q-38 0 -73.5 6.5t-58.5 16t-41 18.5t-26 16z" />
    <glyph glyph-name="t" unicode="t" horiz-adv-x="437" 
d="M465 500v-59h-210q-57 -279 -57 -319q0 -70 66 -70q31 0 65.5 9.5t53.5 18.5l19 10v-50q-9 -6 -24.5 -15t-59 -23.5t-81.5 -14.5q-56 0 -85 27t-29 76q0 54 62 351h-64v59h76q27 133 27 140l75 25q0 -7 -32 -165h198z" />
    <glyph glyph-name="u" unicode="u" horiz-adv-x="634" 
d="M530 500h71q0 -32 -48 -257.5t-48 -242.5h-70q0 14 21 122q-6 -10 -17.5 -26t-36.5 -44t-61.5 -46.5t-74.5 -18.5q-68 0 -112 44t-44 103q0 32 33.5 186.5t33.5 179.5h71q0 -28 -32.5 -179.5t-32.5 -169.5q0 -40 31.5 -70.5t84.5 -30.5q33 0 63.5 16t53 41.5t33 41
t18.5 29.5q63 297 63 322z" />
    <glyph glyph-name="v" unicode="v" horiz-adv-x="544" 
d="M234 0l-158 500h79l123 -439q63 91 129 223t95 216h75q-40 -102 -125 -256t-157 -244h-61z" />
    <glyph glyph-name="w" unicode="w" horiz-adv-x="819" 
d="M771 500h72q-36 -98 -117 -252.5t-149 -247.5h-56q-39 243 -57 397q-44 -97 -110.5 -212t-118.5 -185h-59l-100 500h79l70 -437q62 92 130 226t93 211h57q13 -143 61 -432q58 90 118.5 220t86.5 212z" />
    <glyph glyph-name="x" unicode="x" horiz-adv-x="585" 
d="M617 500q-21 -23 -43.5 -47.5t-51 -53l-46 -46t-54 -52.5t-49.5 -48l158 -253h-80l-126 210q-138 -132 -196 -210h-88q87 103 248 246l-155 254h80l126 -215q126 133 190 215h87z" />
    <glyph glyph-name="y" unicode="y" horiz-adv-x="565" 
d="M518 500h76q-132 -274 -272 -496q-44 -68 -138.5 -151.5t-166.5 -110.5l-38 54q67 26 142.5 85t126.5 125l-147 494h79l115 -442q111 192 223 442z" />
    <glyph glyph-name="z" unicode="z" horiz-adv-x="503" 
d="M510 500v-36l-376 -410q8 1 20 1q216 0 336 -50l-10 -60q-175 55 -435 55v39l371 415q-119 -11 -277 -11v57h371z" />
    <glyph glyph-name="braceleft" unicode="{" horiz-adv-x="451" 
d="M430 741v-54q-78 0 -110.5 -27t-32.5 -81v-168q0 -34 -22 -68.5t-58 -57.5q35 -23 57 -57t23 -68v-161q0 -54 32.5 -81t110.5 -27v-55q-116 0 -161 40t-45 123v156q0 42 -37 70t-76 30h-3v61q39 0 77.5 28t38.5 70v164q0 83 45 123t161 40z" />
    <glyph glyph-name="bar" unicode="|" horiz-adv-x="349" 
d="M233 750v-1000h-76v1000h76z" />
    <glyph glyph-name="braceright" unicode="}" horiz-adv-x="451" 
d="M383 323v-62h-4q-39 -2 -75.5 -29.5t-36.5 -68.5v-164q0 -83 -45 -123t-161 -40v55q78 0 110.5 27t32.5 81v168q0 33 21.5 67.5t57.5 57.5q-36 24 -57.5 58t-21.5 68v161q0 54 -32.5 81t-110.5 27v54q116 0 161 -40t45 -123v-157q1 -42 37 -69t75 -29h4z" />
    <glyph glyph-name="asciitilde" unicode="~" horiz-adv-x="673" 
d="M650 365v-59q-2 -3 -5 -8t-15.5 -17.5t-27 -22t-39.5 -17.5t-54 -8q-42 0 -80.5 22t-63.5 48t-63 48t-80 22q-37 0 -74 -19.5t-56 -39.5l-18 -19v66q2 4 6.5 9.5t20.5 20.5t33 26.5t45 21t57 9.5q37 0 70 -14.5t57 -35.5t47.5 -42t53 -35.5t61.5 -14.5q34 0 65.5 15
t45.5 29z" />
    <glyph glyph-name="nbspace" unicode="&#xa0;" horiz-adv-x="637" 
 />
    <glyph glyph-name="exclamdown" unicode="&#xa1;" horiz-adv-x="344" 
d="M67 -250l97 469h60l-84 -469h-73zM212 442q0 23 15.5 38t34.5 15q18 0 29.5 -11t11.5 -27q0 -23 -15.5 -38t-34.5 -15q-18 0 -29.5 11t-11.5 27z" />
    <glyph glyph-name="cent" unicode="&#xa2;" horiz-adv-x="524" 
d="M477 173l18 -42q-3 -3 -7.5 -8t-21.5 -17.5t-36.5 -22.5t-50 -19t-63.5 -10l-17 -104h-65l23 109q-76 15 -126 73t-50 144q0 117 75.5 201t188.5 100l21 123h66l-27 -119q31 -1 61.5 -5.5t45.5 -8.5l16 -4v-53q-67 15 -135 15q-102 0 -171 -71t-69 -172
q0 -75 49.5 -121.5t124.5 -46.5q39 0 76.5 15t55.5 29z" />
    <glyph glyph-name="sterling" unicode="&#xa3;" horiz-adv-x="592" 
d="M530 356v-49h-230q-14 -154 -54 -249h317v-58h-511v58h121q42 88 53 249h-116v49h118q6 78 12 117q13 87 68.5 138t156.5 51q30 0 60 -7t45 -13l15 -7v-61q-57 26 -113 26q-143 0 -157 -137q-5 -36 -11 -107h226z" />
    <glyph glyph-name="currency" unicode="&#xa4;" horiz-adv-x="661" 
d="M535 314q0 -72 -45 -122l132 -123l-39 -40l-118 141q-49 -36 -114 -36q-67 0 -114 35l-118 -139l-39 41l131 121q-45 50 -45 122q0 71 45 121l-131 124l38 40l118 -142q49 36 115 36q65 0 111 -34l119 140l39 -41l-131 -122q46 -49 46 -122zM498 314q0 67 -40.5 106.5
t-106.5 39.5q-67 0 -107 -39t-40 -107q0 -67 40.5 -106.5t106.5 -39.5t106.5 39.5t40.5 106.5z" />
    <glyph glyph-name="yen" unicode="&#xa5;" horiz-adv-x="627" 
d="M98 289v41h177l-113 320h78l100 -319q145 177 233 319h78q-112 -167 -243 -320h141v-41h-185q-5 -36 -19 -100h204v-41h-213q-28 -125 -28 -148h-70q0 21 27 148h-167v41h176q16 77 18 91l-3 9h-191z" />
    <glyph glyph-name="brokenbar" unicode="&#xa6;" horiz-adv-x="349" 
d="M233 150v-400h-77v400h77zM233 750v-400h-77v400h77z" />
    <glyph glyph-name="section" unicode="&#xa7;" horiz-adv-x="601" 
d="M606 647v-55q-84 19 -153 19q-91 0 -141 -23t-50 -69q0 -7 1.5 -12t5 -10.5t7.5 -9.5t12.5 -9t15.5 -9t20.5 -10.5t24 -11.5t30 -13.5t34.5 -15.5q40 -19 64 -32.5t51 -33t39.5 -42t12.5 -48.5q0 -92 -113 -150q34 -28 34 -66q0 -66 -66.5 -105t-157.5 -39
q-68 0 -124.5 18t-79.5 36l-23 18l31 46q9 -7 26.5 -18t68.5 -29.5t101 -18.5q61 0 102.5 23.5t41.5 67.5q0 7 -1.5 12.5t-5 10.5t-7.5 9t-12 9.5t-15.5 9t-20.5 10t-24.5 11.5t-30 13.5t-34.5 15.5q-40 19 -64 32.5t-51 33t-39.5 42t-12.5 48.5q0 39 23 73t45 49.5t45 26.5
q-34 28 -34 67q0 68 76 106t191 38q38 0 77.5 -4t59.5 -8zM365 373q-85 38 -114 54q-79 -41 -79 -108q0 -38 35 -65.5t111 -62.5q87 -40 112 -54q31 15 56 42t25 66q0 38 -35 65.5t-111 62.5z" />
    <glyph glyph-name="dieresis" unicode="&#xa8;" horiz-adv-x="447" 
d="M420 663q0 -23 -15 -38t-36 -15q-18 0 -26.5 10.5t-8.5 22.5q0 23 15 38.5t36 15.5q18 0 26.5 -10.5t8.5 -23.5zM252 663q0 -23 -15 -38t-36 -15q-18 0 -26.5 10.5t-8.5 22.5q0 23 15 38.5t36 15.5q18 0 26.5 -10.5t8.5 -23.5z" />
    <glyph glyph-name="copyright" unicode="&#xa9;" horiz-adv-x="898" 
d="M823 323q0 -153 -100.5 -250.5t-254.5 -97.5q-155 0 -254.5 97t-99.5 251q0 153 100.5 251t253.5 98q152 0 253.5 -98t101.5 -251zM772 323q0 136 -87 222t-218 86q-129 0 -215 -86.5t-86 -221.5q0 -137 85.5 -222t215.5 -85q131 0 218 85t87 222zM586 485v-40
q-47 8 -90 8q-71 0 -113 -37.5t-42 -102.5q0 -62 39.5 -98t97.5 -36q34 0 65 14t45 28l14 14l17 -26q-2 -3 -6 -8t-17.5 -18.5t-30 -23.5t-44 -18t-57.5 -8q-73 0 -124 49.5t-51 130.5q0 83 56.5 133.5t142.5 50.5q26 0 50.5 -3t35.5 -6z" />
    <glyph glyph-name="ordfeminine" unicode="&#xaa;" horiz-adv-x="472" 
d="M451 627q0 -20 -30.5 -167t-30.5 -165h-59q0 13 12 70h-1q-2 -3 -7 -9t-19.5 -20.5t-29 -25.5t-36.5 -20t-42 -9q-64 0 -97 39t-33 100q0 95 71.5 162t168.5 67q33 0 66.5 -5.5t49.5 -11.5zM349 396q30 136 42 200q-38 9 -77 9q-66 0 -121 -50t-55 -121q0 -48 26 -76
t71 -28q58 0 114 66z" />
    <glyph glyph-name="guillemotleft" unicode="&#xab;" horiz-adv-x="572" 
d="M365 383l-162 -134l109 -137l-37 -33l-136 171l202 172zM549 383l-162 -134l109 -137l-37 -33l-136 171l202 172z" />
    <glyph glyph-name="logicalnot" unicode="&#xac;" horiz-adv-x="536" 
d="M491 347v-226h-61v168h-346v58h407z" />
    <glyph glyph-name="uni00AD" unicode="&#xad;" horiz-adv-x="368" 
d="M94 249v58h271v-58h-271z" />
    <glyph glyph-name="registered" unicode="&#xae;" horiz-adv-x="747" 
d="M698 462q0 -133 -86.5 -217t-218.5 -84q-133 0 -218.5 83.5t-85.5 217.5q0 133 86.5 217t217.5 84q130 0 217.5 -84.5t87.5 -216.5zM649 461q0 119 -72 190t-184 71t-183.5 -71.5t-71.5 -189.5q0 -119 71 -188.5t184 -69.5t184.5 70t71.5 188zM295 303v317q23 4 99 4
q66 0 102 -28.5t36 -74.5q0 -62 -82 -96l77 -123h-46l-66 110q-42 -12 -79 -15v-94h-41zM395 592q-11 0 -31 -0.5t-28 -0.5v-166q19 2 38.5 6.5t49 14.5t47.5 28.5t18 42.5q0 34 -24.5 54.5t-69.5 20.5z" />
    <glyph glyph-name="macron" unicode="&#xaf;" horiz-adv-x="478" 
d="M437 674v-36h-211v36h211z" />
    <glyph glyph-name="degree" unicode="&#xb0;" horiz-adv-x="500" 
d="M460 575q0 -83 -54 -136t-137 -53t-136 52.5t-53 136.5q0 83 53.5 136t135.5 53q81 0 136 -53.5t55 -135.5zM399 575q0 58 -37.5 94.5t-92.5 36.5q-54 0 -91 -36.5t-37 -94.5t36.5 -94t91.5 -36q56 0 93 36t37 94z" />
    <glyph glyph-name="plusminus" unicode="&#xb1;" horiz-adv-x="491" 
d="M74 354v58h168v171h56v-171h170v-58h-170v-171h-56v171h-168zM43 -3v58h457v-58h-457z" />
    <glyph glyph-name="twosuperior" unicode="&#xb2;" horiz-adv-x="433" 
d="M368 260v-46h-315v46q12 8 32 21t72 51t91 72t71.5 75.5t32.5 69.5q0 40 -30 61t-84 21q-28 0 -53 -3.5t-37 -7.5l-11 -3v42q45 18 117 18q75 0 115 -32t40 -86q0 -37 -28.5 -81.5t-76 -86t-89.5 -72.5t-87 -59h240z" />
    <glyph glyph-name="threesuperior" unicode="&#xb3;" horiz-adv-x="368" 
d="M22 259l23 36q4 -5 12.5 -12.5t40 -20.5t69.5 -13q58 0 96 32t38 74q0 84 -116 84l-10 30q75 74 148 155h-205v45h267v-31q-78 -87 -164 -167q67 -4 101 -34t34 -82q0 -60 -54 -105.5t-135 -45.5q-46 0 -82.5 14t-49.5 28z" />
    <glyph glyph-name="acute" unicode="&#xb4;" horiz-adv-x="244" 
d="M281 755l31 -35l-159 -155l-23 27z" />
    <glyph glyph-name="mu" unicode="&#xb5;" horiz-adv-x="634" 
d="M550 500h71q0 -32 -48 -257.5t-48 -242.5h-70q0 14 21 122q-6 -10 -17.5 -26t-36.5 -44t-61.5 -46.5t-74.5 -18.5q-66 0 -110 42q-47 -275 -47 -279h-71q0 16 35.5 195.5t36.5 197.5q3 37 35 184.5t32 172.5h71q0 -28 -32.5 -179.5t-32.5 -169.5q0 -40 31.5 -70.5
t84.5 -30.5q33 0 63.5 16t53 41.5t33 41t18.5 29.5q63 297 63 322z" />
    <glyph glyph-name="paragraph" unicode="&#xb6;" horiz-adv-x="660" 
d="M184 -132q57 0 116.5 62t78.5 148l19 93h-1q-3 -4 -10.5 -10t-42 -16.5t-81.5 -10.5q-86 0 -140 66.5t-54 148.5q0 133 92.5 217t233.5 84h353v-45q-104 -2 -189 -3q-50 -272 -103 -520q-23 -109 -100.5 -187t-171.5 -78v51z" />
    <glyph glyph-name="periodcentered" unicode="&#xb7;" horiz-adv-x="282" 
d="M190 344q0 23 15.5 38t34.5 15q18 0 29.5 -11t11.5 -27q0 -23 -15.5 -38t-34.5 -15q-18 0 -29.5 11t-11.5 27z" />
    <glyph glyph-name="cedilla" unicode="&#xb8;" horiz-adv-x="282" 
d="M47 -187l32 25q3 -5 9 -13.5t26 -22t42 -13.5q36 0 54.5 19.5t18.5 49.5q0 19 -13 32.5t-29 19.5t-29 17t-13 27q0 9 4.5 20t9.5 17l5 6h43q-16 -21 -16 -35q0 -13 14 -24t31 -18.5t31 -25t14 -41.5q0 -43 -32.5 -73.5t-86.5 -30.5q-37 0 -65.5 16t-38.5 32z" />
    <glyph glyph-name="onesuperior" unicode="&#xb9;" horiz-adv-x="334" 
d="M241 669h53q0 -39 -43 -231t-43 -224h-54q0 24 15.5 96.5t36 165.5t28.5 138q-100 -82 -166 -131l-17 34q35 26 82.5 64t77.5 63z" />
    <glyph glyph-name="ordmasculine" unicode="&#xba;" horiz-adv-x="484" 
d="M463 499q0 -86 -63.5 -146.5t-142.5 -60.5q-78 0 -128.5 44.5t-50.5 122.5q0 81 63.5 142t141.5 61q77 0 128.5 -45t51.5 -118zM405 490q0 54 -35.5 87t-89.5 33q-55 0 -100 -43t-45 -100q0 -56 37 -89t90 -33q54 0 98.5 42.5t44.5 102.5z" />
    <glyph glyph-name="guillemotright" unicode="&#xbb;" horiz-adv-x="572" 
d="M355 244l-202 -168l-26 36l163 133l-110 137l39 37zM539 244l-202 -168l-26 36l163 133l-110 137l39 37z" />
    <glyph glyph-name="onequarter" unicode="&#xbc;" horiz-adv-x="778" 
d="M261 669h53q0 -39 -43 -231t-43 -224h-54q0 24 15.5 96.5t36 165.5t28.5 138q-100 -82 -166 -131l-17 34q35 26 82.5 64t77.5 63zM718 610l-437 -613l-38 29l436 613zM774 -48v-42h-77q-19 -93 -19 -116h-52q0 24 19 116h-221v37q51 60 125.5 135.5t123.5 121.5l49 45h43
q0 -11 -3.5 -33t-10.5 -55t-13.5 -63t-16 -75t-15.5 -71h68zM655 -48q46 204 51 237q-142 -139 -231 -237h180z" />
    <glyph glyph-name="onehalf" unicode="&#xbd;" horiz-adv-x="838" 
d="M261 669h53q0 -39 -43 -231t-43 -224h-54q0 24 15.5 96.5t36 165.5t28.5 138q-100 -82 -166 -131l-17 34q35 26 82.5 64t77.5 63zM713 610l-437 -613l-38 29l436 613zM803 -160v-46h-315v46q12 8 32 21t72 51t91 72t71.5 75.5t32.5 69.5q0 40 -30 61t-84 21
q-28 0 -53 -3.5t-36 -7.5l-12 -3v42q45 18 117 18q75 0 115 -32t40 -86q0 -37 -28.5 -81t-76 -86t-89.5 -72.5t-87 -59.5h240z" />
    <glyph glyph-name="threequarters" unicode="&#xbe;" horiz-adv-x="835" 
d="M42 259l23 36q4 -5 12.5 -12.5t40 -20.5t69.5 -13q58 0 96 32t38 74q0 84 -116 84l-10 30q75 74 148 155h-205v45h267v-31q-78 -87 -164 -167q67 -4 101 -34t34 -82q0 -60 -54 -105.5t-135 -45.5q-46 0 -82.5 14t-49.5 28zM773 610l-437 -613l-38 29l436 613zM831 -48
v-42h-77q-19 -93 -19 -116h-52q0 24 19 116h-221v37q51 60 125.5 135.5t123.5 121.5l49 45h43q0 -11 -3.5 -33t-10.5 -55t-13.5 -63t-16 -75t-15.5 -71h68zM712 -48q46 204 51 237q-142 -139 -231 -237h180z" />
    <glyph glyph-name="questiondown" unicode="&#xbf;" horiz-adv-x="453" 
d="M352 261v-59q-27 0 -60.5 -11t-69.5 -34t-65.5 -54.5t-48.5 -78t-19 -98.5q0 -129 177 -129q40 0 75 6.5t50 12.5l15 6v-52q-52 -33 -166 -33q-106 0 -169 49t-63 136q0 63 24 119t62 95t84 68t91 43t83 14zM365 442q0 23 15.5 38t34.5 15q18 0 29.5 -11t11.5 -27
q0 -23 -15.5 -38t-34.5 -15q-18 0 -29.5 11t-11.5 27z" />
    <glyph glyph-name="Agrave" unicode="&#xc0;" horiz-adv-x="664" 
d="M388 650h93q13 -89 63.5 -320t74.5 -330h-76q-5 18 -38 169h-329q-93 -156 -93 -169h-79q0 21 192 325.5t192 324.5zM495 220q-57 266 -72 368q-41 -79 -217 -368h289zM334 863l43 27l83 -163l-35 -23z" />
    <glyph glyph-name="Aacute" unicode="&#xc1;" horiz-adv-x="664" 
d="M388 650h93q13 -89 63.5 -320t74.5 -330h-76q-5 18 -38 169h-329q-93 -156 -93 -169h-79q0 21 192 325.5t192 324.5zM495 220q-57 266 -72 368q-41 -79 -217 -368h289zM505 890l31 -35l-159 -155l-23 27z" />
    <glyph glyph-name="Acircumflex" unicode="&#xc2;" horiz-adv-x="664" 
d="M388 650h93q13 -89 63.5 -320t74.5 -330h-76q-5 18 -38 169h-329q-93 -156 -93 -169h-79q0 21 192 325.5t192 324.5zM495 220q-57 266 -72 368q-41 -79 -217 -368h289zM444 899l130 -119l-25 -44l-112 104l-146 -104l-24 44z" />
    <glyph glyph-name="Atilde" unicode="&#xc3;" horiz-adv-x="664" 
d="M388 650h93q13 -89 63.5 -320t74.5 -330h-76q-5 18 -38 169h-329q-93 -156 -93 -169h-79q0 21 192 325.5t192 324.5zM495 220q-57 266 -72 368q-41 -79 -217 -368h289zM603 841v-49q-21 -30 -78 -30q-33 0 -86 23t-83 23q-21 0 -42.5 -9t-32.5 -19l-11 -9v52q4 5 11.5 12
t31 18.5t48.5 11.5q37 0 90.5 -24t80.5 -24q19 0 37 6t26 12z" />
    <glyph glyph-name="Adieresis" unicode="&#xc4;" horiz-adv-x="664" 
d="M388 650h93q13 -89 63.5 -320t74.5 -330h-76q-5 18 -38 169h-329q-93 -156 -93 -169h-79q0 21 192 325.5t192 324.5zM495 220q-57 266 -72 368q-41 -79 -217 -368h289zM566 798q0 -23 -15 -38t-36 -15q-18 0 -26.5 10.5t-8.5 22.5q0 23 15 38.5t36 15.5q18 0 26.5 -10.5
t8.5 -23.5zM398 798q0 -23 -15 -38t-36 -15q-18 0 -26.5 10.5t-8.5 22.5q0 23 15 38.5t36 15.5q18 0 26.5 -10.5t8.5 -23.5z" />
    <glyph glyph-name="Aring" unicode="&#xc5;" horiz-adv-x="664" 
d="M388 650h93q13 -89 63.5 -320t74.5 -330h-76q-5 18 -38 169h-329q-93 -156 -93 -169h-79q0 21 192 325.5t192 324.5zM495 220q-57 266 -72 368q-41 -79 -217 -368h289zM538 824q0 -46 -29.5 -75t-74.5 -29q-47 0 -76 29t-29 75q0 45 30 74t75 29q44 0 74 -29t30 -74z
M503 824q0 31 -20 50.5t-49 19.5q-30 0 -50 -19.5t-20 -50.5t20 -50.5t50 -19.5q29 0 49 19.5t20 50.5z" />
    <glyph glyph-name="AE" unicode="&#xc6;" horiz-adv-x="889" 
d="M401 650h493v-60h-390q14 -73 44 -216h235v-60h-222q49 -226 56 -254h193v-60h-254q-5 18 -38 169h-329q-93 -156 -93 -169h-79q0 21 192 325.5t192 324.5zM508 220q-57 266 -72 368q-41 -79 -217 -368h289z" />
    <glyph glyph-name="Ccedilla" unicode="&#xc7;" horiz-adv-x="681" 
d="M274 -187l32 25q3 -5 9 -13.5t26 -22t42 -13.5q36 0 54.5 19.5t18.5 49.5q0 19 -13 32.5t-29 19.5t-29 17t-13 27q0 15 11 33q-137 1 -214.5 83t-77.5 199q0 164 113.5 278.5t273.5 114.5q49 0 103 -7.5t83 -14.5l30 -8l-1 -2q-35 -128 -35 -189h-56q0 45 22 140
q-82 19 -147 19q-129 0 -219.5 -94t-90.5 -230q0 -93 61.5 -158.5t162.5 -65.5q38 0 76 10.5t65 25.5t49.5 30t33.5 26l11 10l29 -36q-4 -4 -10.5 -12t-29 -27.5t-47 -36t-63 -32t-77.5 -20.5q-10 -20 -10 -28q0 -13 14 -24t31 -18.5t31 -25t14 -41.5q0 -43 -32.5 -73.5
t-86.5 -30.5q-37 0 -65.5 16t-39.5 32z" />
    <glyph glyph-name="Egrave" unicode="&#xc8;" horiz-adv-x="558" 
d="M363 374l94 -1v-55q-39 1 -100 1q-83 0 -141 -40t-58 -112q0 -49 43.5 -83.5t126.5 -34.5q48 0 93 17t67 34l21 18l23 -43q-3 -4 -9 -9.5t-26.5 -21t-43.5 -27t-60 -21t-76 -9.5q-115 0 -176 49t-61 123q0 77 56 130t138 68q-74 48 -74 131q0 79 63.5 126.5t153.5 47.5
q37 0 73.5 -6t55.5 -12l18 -5v-55q-68 20 -138 20q-65 0 -111 -33t-46 -89q0 -33 12.5 -56.5t31 -33.5t31 -14t19.5 -4zM302 863l43 27l83 -163l-35 -23z" />
    <glyph glyph-name="Eacute" unicode="&#xc9;" horiz-adv-x="558" 
d="M363 374l94 -1v-55q-39 1 -100 1q-83 0 -141 -40t-58 -112q0 -49 43.5 -83.5t126.5 -34.5q48 0 93 17t67 34l21 18l23 -43q-3 -4 -9 -9.5t-26.5 -21t-43.5 -27t-60 -21t-76 -9.5q-115 0 -176 49t-61 123q0 77 56 130t138 68q-74 48 -74 131q0 79 63.5 126.5t153.5 47.5
q37 0 73.5 -6t55.5 -12l18 -5v-55q-68 20 -138 20q-65 0 -111 -33t-46 -89q0 -33 12.5 -56.5t31 -33.5t31 -14t19.5 -4zM473 890l31 -35l-159 -155l-23 27z" />
    <glyph glyph-name="Ecircumflex" unicode="&#xca;" horiz-adv-x="558" 
d="M363 374l94 -1v-55q-39 1 -100 1q-83 0 -141 -40t-58 -112q0 -49 43.5 -83.5t126.5 -34.5q48 0 93 17t67 34l21 18l23 -43q-3 -4 -9 -9.5t-26.5 -21t-43.5 -27t-60 -21t-76 -9.5q-115 0 -176 49t-61 123q0 77 56 130t138 68q-74 48 -74 131q0 79 63.5 126.5t153.5 47.5
q37 0 73.5 -6t55.5 -12l18 -5v-55q-68 20 -138 20q-65 0 -111 -33t-46 -89q0 -33 12.5 -56.5t31 -33.5t31 -14t19.5 -4zM411 899l130 -119l-25 -44l-112 104l-146 -104l-24 44z" />
    <glyph glyph-name="Edieresis" unicode="&#xcb;" horiz-adv-x="558" 
d="M363 374l94 -1v-55q-39 1 -100 1q-83 0 -141 -40t-58 -112q0 -49 43.5 -83.5t126.5 -34.5q48 0 93 17t67 34l21 18l23 -43q-3 -4 -9 -9.5t-26.5 -21t-43.5 -27t-60 -21t-76 -9.5q-115 0 -176 49t-61 123q0 77 56 130t138 68q-74 48 -74 131q0 79 63.5 126.5t153.5 47.5
q37 0 73.5 -6t55.5 -12l18 -5v-55q-68 20 -138 20q-65 0 -111 -33t-46 -89q0 -33 12.5 -56.5t31 -33.5t31 -14t19.5 -4zM534 798q0 -23 -15 -38t-36 -15q-18 0 -26.5 10.5t-8.5 22.5q0 23 15 38.5t36 15.5q18 0 26.5 -10.5t8.5 -23.5zM366 798q0 -23 -15 -38t-36 -15
q-18 0 -26.5 10.5t-8.5 22.5q0 23 15 38.5t36 15.5q18 0 26.5 -10.5t8.5 -23.5z" />
    <glyph glyph-name="Igrave" unicode="&#xcc;" horiz-adv-x="351" 
d="M181 0h-74q0 21 62.5 324.5t62.5 325.5h74q0 -22 -62.5 -325.5t-62.5 -324.5zM167 863l43 27l83 -163l-35 -23z" />
    <glyph glyph-name="Iacute" unicode="&#xcd;" horiz-adv-x="351" 
d="M181 0h-74q0 21 62.5 324.5t62.5 325.5h74q0 -22 -62.5 -325.5t-62.5 -324.5zM338 890l31 -35l-159 -155l-23 27z" />
    <glyph glyph-name="Icircumflex" unicode="&#xce;" horiz-adv-x="351" 
d="M181 0h-74q0 21 62.5 324.5t62.5 325.5h74q0 -22 -62.5 -325.5t-62.5 -324.5zM276 899l130 -119l-25 -44l-112 104l-146 -104l-24 44z" />
    <glyph glyph-name="Idieresis" unicode="&#xcf;" horiz-adv-x="351" 
d="M181 0h-74q0 21 62.5 324.5t62.5 325.5h74q0 -22 -62.5 -325.5t-62.5 -324.5zM398 798q0 -23 -15 -38t-36 -15q-18 0 -26.5 10.5t-8.5 22.5q0 23 15 38.5t36 15.5q18 0 26.5 -10.5t8.5 -23.5zM230 798q0 -23 -15 -38t-36 -15q-18 0 -26.5 10.5t-8.5 22.5q0 23 15 38.5
t36 15.5q18 0 26.5 -10.5t8.5 -23.5z" />
    <glyph glyph-name="Eth" unicode="&#xd0;" horiz-adv-x="776" 
d="M327 -13q-53 0 -108 3.5t-83 6.5l-29 3q0 19 57 300h-90v49h100q58 276 58 301q90 12 196 12q160 0 238.5 -79.5t78.5 -205.5q0 -104 -57 -194t-153.5 -143t-207.5 -53zM425 600q-39 0 -127 -5q-16 -86 -50 -246h227v-49h-237q-42 -204 -48 -240q74 -8 138 -8
q137 0 238 92.5t101 222.5q0 103 -60 168t-182 65z" />
    <glyph glyph-name="Ntilde" unicode="&#xd1;" horiz-adv-x="819" 
d="M648 0h-63l-305 519q-11 -59 -39 -197t-44 -223t-16 -99h-74q0 21 60 312.5t64 329.5l1 8h63l306 -521q10 54 38.5 195.5t44.5 226t16 99.5h73q0 -22 -62.5 -325.5t-62.5 -324.5zM675 841v-49q-21 -30 -78 -30q-33 0 -86 23t-83 23q-21 0 -42.5 -9t-32.5 -19l-11 -9v52
q4 5 11.5 12t31 18.5t48.5 11.5q37 0 90.5 -24t80.5 -24q19 0 37 6t26 12z" />
    <glyph glyph-name="Ograve" unicode="&#xd2;" horiz-adv-x="789" 
d="M758 378q0 -162 -111.5 -276.5t-260.5 -114.5q-136 0 -215.5 83.5t-79.5 200.5q0 162 112 276.5t260 114.5q136 0 215.5 -83.5t79.5 -200.5zM682 369q0 93 -62.5 161t-160.5 68q-117 0 -204 -92.5t-87 -225.5q0 -93 62.5 -161t159.5 -68q117 0 204.5 92.5t87.5 225.5z
M384 863l43 27l83 -163l-35 -23z" />
    <glyph glyph-name="Oacute" unicode="&#xd3;" horiz-adv-x="789" 
d="M758 378q0 -162 -111.5 -276.5t-260.5 -114.5q-136 0 -215.5 83.5t-79.5 200.5q0 162 112 276.5t260 114.5q136 0 215.5 -83.5t79.5 -200.5zM682 369q0 93 -62.5 161t-160.5 68q-117 0 -204 -92.5t-87 -225.5q0 -93 62.5 -161t159.5 -68q117 0 204.5 92.5t87.5 225.5z
M556 890l31 -35l-159 -155l-23 27z" />
    <glyph glyph-name="Ocircumflex" unicode="&#xd4;" horiz-adv-x="789" 
d="M758 378q0 -162 -111.5 -276.5t-260.5 -114.5q-136 0 -215.5 83.5t-79.5 200.5q0 162 112 276.5t260 114.5q136 0 215.5 -83.5t79.5 -200.5zM682 369q0 93 -62.5 161t-160.5 68q-117 0 -204 -92.5t-87 -225.5q0 -93 62.5 -161t159.5 -68q117 0 204.5 92.5t87.5 225.5z
M494 899l130 -119l-25 -44l-112 104l-146 -104l-24 44z" />
    <glyph glyph-name="Otilde" unicode="&#xd5;" horiz-adv-x="789" 
d="M758 378q0 -162 -111.5 -276.5t-260.5 -114.5q-136 0 -215.5 83.5t-79.5 200.5q0 162 112 276.5t260 114.5q136 0 215.5 -83.5t79.5 -200.5zM682 369q0 93 -62.5 161t-160.5 68q-117 0 -204 -92.5t-87 -225.5q0 -93 62.5 -161t159.5 -68q117 0 204.5 92.5t87.5 225.5z
M653 841v-49q-21 -30 -78 -30q-33 0 -86 23t-83 23q-21 0 -42.5 -9t-32.5 -19l-11 -9v52q4 5 11.5 12t31 18.5t48.5 11.5q37 0 90.5 -24t80.5 -24q19 0 37 6t26 12z" />
    <glyph glyph-name="Odieresis" unicode="&#xd6;" horiz-adv-x="789" 
d="M758 378q0 -162 -111.5 -276.5t-260.5 -114.5q-136 0 -215.5 83.5t-79.5 200.5q0 162 112 276.5t260 114.5q136 0 215.5 -83.5t79.5 -200.5zM682 369q0 93 -62.5 161t-160.5 68q-117 0 -204 -92.5t-87 -225.5q0 -93 62.5 -161t159.5 -68q117 0 204.5 92.5t87.5 225.5z
M616 798q0 -23 -15 -38t-36 -15q-18 0 -26.5 10.5t-8.5 22.5q0 23 15 38.5t36 15.5q18 0 26.5 -10.5t8.5 -23.5zM448 798q0 -23 -15 -38t-36 -15q-18 0 -26.5 10.5t-8.5 22.5q0 23 15 38.5t36 15.5q18 0 26.5 -10.5t8.5 -23.5z" />
    <glyph glyph-name="multiply" unicode="&#xd7;" horiz-adv-x="505" 
d="M436 437l-119 -117l119 -117l-43 -46l-121 118l-120 -118l-44 46l119 117l-119 117l44 46l120 -119l121 119z" />
    <glyph glyph-name="Oslash" unicode="&#xd8;" horiz-adv-x="789" 
d="M758 378q0 -162 -111.5 -276.5t-260.5 -114.5q-65 0 -126 23q-34 -54 -69 -111l-33 6q54 89 74 119q-68 37 -104.5 103t-36.5 144q0 162 112 276.5t260 114.5q89 0 156 -39l71 105l33 -5q-30 -43 -78 -116q54 -40 83.5 -100.5t29.5 -128.5zM271 85q138 219 309 478
q-54 35 -121 35q-117 0 -204 -92.5t-87 -225.5q0 -60 27.5 -112t75.5 -83zM682 369q0 108 -78 176q-148 -223 -306 -475q43 -19 92 -19q117 0 204.5 92.5t87.5 225.5z" />
    <glyph glyph-name="Ugrave" unicode="&#xd9;" horiz-adv-x="775" 
d="M611 0h-73q0 20 31 173q-8 -14 -16 -25.5t-35 -44.5t-54 -55.5t-67 -41.5t-80 -19q-91 0 -139.5 50t-48.5 124q0 37 46 253.5t46 235.5h73q0 -21 -43.5 -228.5t-43.5 -235.5q0 -54 36 -90.5t107 -36.5q40 0 81.5 22.5t73 56.5t48.5 56.5t28 39.5q82 401 82 416h73
q0 -22 -62.5 -325.5t-62.5 -324.5zM369 863l43 27l83 -163l-35 -23z" />
    <glyph glyph-name="Uacute" unicode="&#xda;" horiz-adv-x="775" 
d="M611 0h-73q0 20 31 173q-8 -14 -16 -25.5t-35 -44.5t-54 -55.5t-67 -41.5t-80 -19q-91 0 -139.5 50t-48.5 124q0 37 46 253.5t46 235.5h73q0 -21 -43.5 -228.5t-43.5 -235.5q0 -54 36 -90.5t107 -36.5q40 0 81.5 22.5t73 56.5t48.5 56.5t28 39.5q82 401 82 416h73
q0 -22 -62.5 -325.5t-62.5 -324.5zM540 890l31 -35l-159 -155l-23 27z" />
    <glyph glyph-name="Ucircumflex" unicode="&#xdb;" horiz-adv-x="775" 
d="M611 0h-73q0 20 31 173q-8 -14 -16 -25.5t-35 -44.5t-54 -55.5t-67 -41.5t-80 -19q-91 0 -139.5 50t-48.5 124q0 37 46 253.5t46 235.5h73q0 -21 -43.5 -228.5t-43.5 -235.5q0 -54 36 -90.5t107 -36.5q40 0 81.5 22.5t73 56.5t48.5 56.5t28 39.5q82 401 82 416h73
q0 -22 -62.5 -325.5t-62.5 -324.5zM510 899l130 -119l-25 -44l-112 104l-146 -104l-24 44z" />
    <glyph glyph-name="Udieresis" unicode="&#xdc;" horiz-adv-x="775" 
d="M611 0h-73q0 20 31 173q-8 -14 -16 -25.5t-35 -44.5t-54 -55.5t-67 -41.5t-80 -19q-91 0 -139.5 50t-48.5 124q0 37 46 253.5t46 235.5h73q0 -21 -43.5 -228.5t-43.5 -235.5q0 -54 36 -90.5t107 -36.5q40 0 81.5 22.5t73 56.5t48.5 56.5t28 39.5q82 401 82 416h73
q0 -22 -62.5 -325.5t-62.5 -324.5zM601 798q0 -23 -15 -38t-36 -15q-18 0 -26.5 10.5t-8.5 22.5q0 23 15 38.5t36 15.5q18 0 26.5 -10.5t8.5 -23.5zM433 798q0 -23 -15 -38t-36 -15q-18 0 -26.5 10.5t-8.5 22.5q0 23 15 38.5t36 15.5q18 0 26.5 -10.5t8.5 -23.5z" />
    <glyph glyph-name="Yacute" unicode="&#xdd;" horiz-adv-x="611" 
d="M276 155q0 23 -52 147t-104 236l-53 112h85q147 -317 177 -434q46 71 123 179.5t131 181.5l54 73h91q-268 -352 -360 -488q-94 -142 -94 -162h-80q0 9 30.5 65t51.5 90zM495 890l31 -35l-159 -155l-23 27z" />
    <glyph glyph-name="Thorn" unicode="&#xde;" horiz-adv-x="597" 
d="M177 0h-70q0 21 62.5 324.5t62.5 325.5h70q0 -11 -17 -103q42 7 81 7q113 0 167.5 -55t54.5 -137q0 -52 -20.5 -95t-52.5 -70.5t-72 -46.5t-77 -27t-69 -8q-57 0 -98 11q-22 -112 -22 -126zM272 485q-18 -92 -62 -301q38 -10 78 -10q36 0 73 9.5t73 29t58.5 57t22.5 87.5
q0 60 -38 98t-121 38q-30 0 -84 -8z" />
    <glyph glyph-name="germandbls" unicode="&#xdf;" horiz-adv-x="602" 
d="M405 763q79 0 125.5 -42.5t46.5 -102.5q0 -68 -60 -130t-122 -82q86 -16 134 -66t48 -120q0 -98 -57.5 -165.5t-152.5 -67.5q-47 0 -87.5 13.5t-57.5 27.5l-18 13l25 51q5 -5 14.5 -12.5t42 -20t69.5 -12.5q74 0 113 51t39 120q0 68 -52 105.5t-135 37.5v52
q68 17 127.5 73.5t59.5 110.5q0 42 -30.5 71.5t-77.5 29.5q-126 0 -144 -139q-9 -67 -75 -416.5t-81 -392.5h-71q13 42 81 398t76 420q9 68 43.5 113t79 63.5t97.5 18.5z" />
    <glyph glyph-name="agrave" unicode="&#xe0;" horiz-adv-x="636" 
d="M420 514q49 0 94 -6.5t66 -13.5l20 -6q0 -32 -46 -251.5t-46 -236.5h-70q0 18 14 86h-1q-6 -7 -10.5 -13t-24 -23.5t-38 -29.5t-47 -22.5t-56.5 -10.5q-88 0 -141 59.5t-53 145.5q0 141 102 231.5t237 90.5zM308 47q35 0 71.5 19t53 34.5t28.5 30.5q56 279 62 313
q-55 17 -112 17q-102 0 -179 -73t-77 -178q0 -70 41.5 -116.5t111.5 -46.5zM343 728l43 27l83 -163l-35 -23z" />
    <glyph glyph-name="aacute" unicode="&#xe1;" horiz-adv-x="636" 
d="M420 514q49 0 94 -6.5t66 -13.5l20 -6q0 -32 -46 -251.5t-46 -236.5h-70q0 18 14 86h-1q-6 -7 -10.5 -13t-24 -23.5t-38 -29.5t-47 -22.5t-56.5 -10.5q-88 0 -141 59.5t-53 145.5q0 141 102 231.5t237 90.5zM308 47q35 0 71.5 19t53 34.5t28.5 30.5q56 279 62 313
q-55 17 -112 17q-102 0 -179 -73t-77 -178q0 -70 41.5 -116.5t111.5 -46.5zM513 755l31 -35l-159 -155l-23 27z" />
    <glyph glyph-name="acircumflex" unicode="&#xe2;" horiz-adv-x="636" 
d="M420 514q49 0 94 -6.5t66 -13.5l20 -6q0 -32 -46 -251.5t-46 -236.5h-70q0 18 14 86h-1q-6 -7 -10.5 -13t-24 -23.5t-38 -29.5t-47 -22.5t-56.5 -10.5q-88 0 -141 59.5t-53 145.5q0 141 102 231.5t237 90.5zM308 47q35 0 71.5 19t53 34.5t28.5 30.5q56 279 62 313
q-55 17 -112 17q-102 0 -179 -73t-77 -178q0 -70 41.5 -116.5t111.5 -46.5zM452 764l130 -119l-25 -44l-112 104l-146 -104l-24 44z" />
    <glyph glyph-name="atilde" unicode="&#xe3;" horiz-adv-x="636" 
d="M420 514q49 0 94 -6.5t66 -13.5l20 -6q0 -32 -46 -251.5t-46 -236.5h-70q0 18 14 86h-1q-6 -7 -10.5 -13t-24 -23.5t-38 -29.5t-47 -22.5t-56.5 -10.5q-88 0 -141 59.5t-53 145.5q0 141 102 231.5t237 90.5zM308 47q35 0 71.5 19t53 34.5t28.5 30.5q56 279 62 313
q-55 17 -112 17q-102 0 -179 -73t-77 -178q0 -70 41.5 -116.5t111.5 -46.5zM611 706v-49q-21 -30 -78 -30q-33 0 -86 23t-83 23q-21 0 -42.5 -9.5t-32.5 -18.5l-11 -9v52q4 5 11.5 12t31 18.5t48.5 11.5q37 0 90.5 -24t80.5 -24q19 0 37 6t26 12z" />
    <glyph glyph-name="adieresis" unicode="&#xe4;" horiz-adv-x="636" 
d="M420 514q49 0 94 -6.5t66 -13.5l20 -6q0 -32 -46 -251.5t-46 -236.5h-70q0 18 14 86h-1q-6 -7 -10.5 -13t-24 -23.5t-38 -29.5t-47 -22.5t-56.5 -10.5q-88 0 -141 59.5t-53 145.5q0 141 102 231.5t237 90.5zM308 47q35 0 71.5 19t53 34.5t28.5 30.5q56 279 62 313
q-55 17 -112 17q-102 0 -179 -73t-77 -178q0 -70 41.5 -116.5t111.5 -46.5zM575 663q0 -23 -15 -38t-36 -15q-18 0 -26.5 10.5t-8.5 22.5q0 23 15 38.5t36 15.5q18 0 26.5 -10.5t8.5 -23.5zM407 663q0 -23 -15 -38t-36 -15q-18 0 -26.5 10.5t-8.5 22.5q0 23 15 38.5t36 15.5
q18 0 26.5 -10.5t8.5 -23.5z" />
    <glyph glyph-name="aring" unicode="&#xe5;" horiz-adv-x="636" 
d="M420 514q49 0 94 -6.5t66 -13.5l20 -6q0 -32 -46 -251.5t-46 -236.5h-70q0 18 14 86h-1q-6 -7 -10.5 -13t-24 -23.5t-38 -29.5t-47 -22.5t-56.5 -10.5q-88 0 -141 59.5t-53 145.5q0 141 102 231.5t237 90.5zM308 47q35 0 71.5 19t53 34.5t28.5 30.5q56 279 62 313
q-55 17 -112 17q-102 0 -179 -73t-77 -178q0 -70 41.5 -116.5t111.5 -46.5zM554 689q0 -46 -29.5 -75t-74.5 -29q-47 0 -76 29t-29 75q0 45 30 74t75 29q44 0 74 -29t30 -74zM519 689q0 31 -20 50.5t-49 19.5q-30 0 -50 -19.5t-20 -50.5t20 -50.5t50 -19.5q29 0 49 19.5
t20 50.5z" />
    <glyph glyph-name="ae" unicode="&#xe6;" horiz-adv-x="879" 
d="M803 99l19 -45q-3 -3 -8 -7.5t-23 -16t-39 -20.5t-55 -16t-70 -7q-127 0 -187 89h-3l-3 -4q-2 -3 -5 -7t-8.5 -10.5t-11.5 -12t-14.5 -12.5t-17.5 -13t-20.5 -11.5t-24 -9.5t-27 -6.5t-30.5 -2.5q-88 0 -141 59.5t-53 145.5q0 94 49 169t124.5 114t160.5 39q86 0 155 -33
q60 33 123 33q79 0 126 -46t47 -122q0 -26 -5 -49.5t-9 -34.5l-5 -11q-63 -7 -199 -16t-176 -10q-1 -11 -1 -33q0 -66 48 -105.5t121 -39.5q45 0 85.5 13t58.5 26zM308 47q71 0 119 51q-21 42 -21 96q0 147 106 245q-50 22 -109 22q-96 0 -172 -73.5t-76 -177.5
q0 -70 41.5 -116.5t111.5 -46.5zM689 460q-69 0 -129.5 -53t-80.5 -141q239 10 320 21q9 30 9 56q0 55 -32 86t-87 31z" />
    <glyph glyph-name="ccedilla" unicode="&#xe7;" horiz-adv-x="524" 
d="M203 -187l32 25q3 -5 9 -13.5t26 -22t42 -13.5q36 0 54.5 19.5t18.5 49.5q0 19 -13 32.5t-29 19.5t-29 17t-13 27q0 15 11 33h-6q-93 0 -159 61t-66 161q0 130 91 217.5t221 87.5q33 0 66.5 -4.5t50.5 -9.5l18 -4v-53q-67 15 -135 15q-102 0 -171 -71t-69 -172
q0 -75 49.5 -121.5t124.5 -46.5q39 0 76.5 14.5t55.5 29.5l18 15l18 -42q-5 -6 -15.5 -16t-45.5 -29.5t-75 -26.5q-12 -17 -12 -30t14 -24t31 -18.5t31 -25t14 -41.5q0 -43 -32.5 -73.5t-86.5 -30.5q-37 0 -65.5 16t-38.5 32z" />
    <glyph glyph-name="egrave" unicode="&#xe8;" horiz-adv-x="554" 
d="M478 99l19 -45q-3 -3 -8 -7.5t-23 -16t-39 -20.5t-55 -16t-70 -7q-98 0 -159.5 57t-61.5 150q0 133 87 226.5t200 93.5q79 0 126 -46t47 -122q0 -26 -4.5 -49.5t-9.5 -34.5l-5 -11q-63 -7 -199 -16t-176 -10q-1 -11 -1 -33q0 -66 48 -105.5t121 -39.5q45 0 85.5 13
t59.5 26zM364 460q-69 0 -129.5 -53t-80.5 -141q239 10 320 21q9 30 9 56q0 55 -32 86t-87 31zM301 728l43 27l83 -163l-35 -23z" />
    <glyph glyph-name="eacute" unicode="&#xe9;" horiz-adv-x="554" 
d="M478 99l19 -45q-3 -3 -8 -7.5t-23 -16t-39 -20.5t-55 -16t-70 -7q-98 0 -159.5 57t-61.5 150q0 133 87 226.5t200 93.5q79 0 126 -46t47 -122q0 -26 -4.5 -49.5t-9.5 -34.5l-5 -11q-63 -7 -199 -16t-176 -10q-1 -11 -1 -33q0 -66 48 -105.5t121 -39.5q45 0 85.5 13
t59.5 26zM364 460q-69 0 -129.5 -53t-80.5 -141q239 10 320 21q9 30 9 56q0 55 -32 86t-87 31zM472 755l31 -35l-159 -155l-23 27z" />
    <glyph glyph-name="ecircumflex" unicode="&#xea;" horiz-adv-x="554" 
d="M478 99l19 -45q-3 -3 -8 -7.5t-23 -16t-39 -20.5t-55 -16t-70 -7q-98 0 -159.5 57t-61.5 150q0 133 87 226.5t200 93.5q79 0 126 -46t47 -122q0 -26 -4.5 -49.5t-9.5 -34.5l-5 -11q-63 -7 -199 -16t-176 -10q-1 -11 -1 -33q0 -66 48 -105.5t121 -39.5q45 0 85.5 13
t59.5 26zM364 460q-69 0 -129.5 -53t-80.5 -141q239 10 320 21q9 30 9 56q0 55 -32 86t-87 31zM410 764l130 -119l-25 -44l-112 104l-146 -104l-24 44z" />
    <glyph glyph-name="edieresis" unicode="&#xeb;" horiz-adv-x="554" 
d="M478 99l19 -45q-3 -3 -8 -7.5t-23 -16t-39 -20.5t-55 -16t-70 -7q-98 0 -159.5 57t-61.5 150q0 133 87 226.5t200 93.5q79 0 126 -46t47 -122q0 -26 -4.5 -49.5t-9.5 -34.5l-5 -11q-63 -7 -199 -16t-176 -10q-1 -11 -1 -33q0 -66 48 -105.5t121 -39.5q45 0 85.5 13
t59.5 26zM364 460q-69 0 -129.5 -53t-80.5 -141q239 10 320 21q9 30 9 56q0 55 -32 86t-87 31zM530 663q0 -23 -15 -38t-36 -15q-18 0 -26.5 10.5t-8.5 22.5q0 23 15 38.5t36 15.5q18 0 26.5 -10.5t8.5 -23.5zM362 663q0 -23 -15 -38t-36 -15q-18 0 -26.5 10.5t-8.5 22.5
q0 23 15 38.5t36 15.5q18 0 26.5 -10.5t8.5 -23.5z" />
    <glyph glyph-name="igrave" unicode="&#xec;" horiz-adv-x="287" 
d="M183 500h71q0 -32 -48 -257.5t-48 -242.5h-71q0 20 48 247.5t48 252.5zM139 728l43 27l83 -163l-35 -23z" />
    <glyph glyph-name="iacute" unicode="&#xed;" horiz-adv-x="287" 
d="M183 500h71q0 -32 -48 -257.5t-48 -242.5h-71q0 20 48 247.5t48 252.5zM310 755l31 -35l-159 -155l-23 27z" />
    <glyph glyph-name="icircumflex" unicode="&#xee;" horiz-adv-x="287" 
d="M183 500h71q0 -32 -48 -257.5t-48 -242.5h-71q0 20 48 247.5t48 252.5zM248 764l130 -119l-25 -44l-112 104l-146 -104l-24 44z" />
    <glyph glyph-name="idieresis" unicode="&#xef;" horiz-adv-x="287" 
d="M183 500h71q0 -32 -48 -257.5t-48 -242.5h-71q0 20 48 247.5t48 252.5zM370 663q0 -23 -15 -38t-36 -15q-18 0 -26.5 10.5t-8.5 22.5q0 23 15 38.5t36 15.5q18 0 26.5 -10.5t8.5 -23.5zM202 663q0 -23 -15 -38t-36 -15q-18 0 -26.5 10.5t-8.5 22.5q0 23 15 38.5t36 15.5
q18 0 26.5 -10.5t8.5 -23.5z" />
    <glyph glyph-name="eth" unicode="&#xf0;" horiz-adv-x="614" 
d="M265 498l-4 33l183 84q-36 47 -100 92l54 30q67 -45 107 -93l143 66l4 -33l-127 -59q61 -92 61 -229q0 -180 -81.5 -291t-215.5 -111q-100 0 -154 52t-54 131q0 109 76.5 183t174.5 74q54 0 98.5 -16.5t61.5 -32.5l17 -17h3v19q0 126 -50 209zM301 46q83 0 139 69.5
t69 195.5q-9 10 -23.5 21t-53 24.5t-83.5 13.5q-80 0 -137 -55.5t-57 -137.5q0 -57 38 -94t108 -37z" />
    <glyph glyph-name="ntilde" unicode="&#xf1;" horiz-adv-x="629" 
d="M203 500h71q0 -21 -19 -118q5 9 17.5 26.5t37 43.5t60.5 44t74 18q67 0 109 -44t42 -103q0 -34 -33.5 -195.5t-33.5 -171.5h-71q0 11 32.5 167.5t32.5 183.5q0 41 -30.5 70t-79.5 29q-31 0 -61 -14.5t-52 -37.5t-34 -39t-21 -31q-8 -40 -28 -132t-29 -138.5t-9 -57.5h-71
q0 20 48 247.5t48 252.5zM585 707v-49q-21 -30 -78 -30q-33 0 -86 23t-83 23q-21 0 -42.5 -9t-32.5 -19l-11 -9v52q4 5 11.5 12t31 18.5t48.5 11.5q37 0 90.5 -24t80.5 -24q19 0 37 6t26 12z" />
    <glyph glyph-name="ograve" unicode="&#xf2;" 
d="M624 289q0 -121 -93 -211.5t-205 -90.5q-110 0 -176 59.5t-66 166.5q0 122 91.5 211.5t203.5 89.5q111 0 178 -59t67 -166zM373 457q-81 0 -148.5 -70t-67.5 -166q0 -81 49.5 -129t127.5 -48q81 0 149 70t68 166q0 81 -49.5 129t-128.5 48zM322 728l43 27l83 -163
l-35 -23z" />
    <glyph glyph-name="oacute" unicode="&#xf3;" 
d="M624 289q0 -121 -93 -211.5t-205 -90.5q-110 0 -176 59.5t-66 166.5q0 122 91.5 211.5t203.5 89.5q111 0 178 -59t67 -166zM373 457q-81 0 -148.5 -70t-67.5 -166q0 -81 49.5 -129t127.5 -48q81 0 149 70t68 166q0 81 -49.5 129t-128.5 48zM493 755l31 -35l-159 -155
l-23 27z" />
    <glyph glyph-name="ocircumflex" unicode="&#xf4;" 
d="M624 289q0 -121 -93 -211.5t-205 -90.5q-110 0 -176 59.5t-66 166.5q0 122 91.5 211.5t203.5 89.5q111 0 178 -59t67 -166zM373 457q-81 0 -148.5 -70t-67.5 -166q0 -81 49.5 -129t127.5 -48q81 0 149 70t68 166q0 81 -49.5 129t-128.5 48zM432 764l130 -119l-25 -44
l-112 104l-146 -104l-24 44z" />
    <glyph glyph-name="otilde" unicode="&#xf5;" 
d="M624 289q0 -121 -93 -211.5t-205 -90.5q-110 0 -176 59.5t-66 166.5q0 122 91.5 211.5t203.5 89.5q111 0 178 -59t67 -166zM373 457q-81 0 -148.5 -70t-67.5 -166q0 -81 49.5 -129t127.5 -48q81 0 149 70t68 166q0 81 -49.5 129t-128.5 48zM591 706v-49q-21 -30 -78 -30
q-33 0 -86 23t-83 23q-21 0 -42.5 -9.5t-32.5 -18.5l-11 -9v52q4 5 11.5 12t31 18.5t48.5 11.5q37 0 90.5 -24t80.5 -24q19 0 37 6t26 12z" />
    <glyph glyph-name="odieresis" unicode="&#xf6;" 
d="M624 289q0 -121 -93 -211.5t-205 -90.5q-110 0 -176 59.5t-66 166.5q0 122 91.5 211.5t203.5 89.5q111 0 178 -59t67 -166zM373 457q-81 0 -148.5 -70t-67.5 -166q0 -81 49.5 -129t127.5 -48q81 0 149 70t68 166q0 81 -49.5 129t-128.5 48zM554 663q0 -23 -15 -38
t-36 -15q-18 0 -26.5 10.5t-8.5 22.5q0 23 15 38.5t36 15.5q18 0 26.5 -10.5t8.5 -23.5zM386 663q0 -23 -15 -38t-36 -15q-18 0 -26.5 10.5t-8.5 22.5q0 23 15 38.5t36 15.5q18 0 26.5 -10.5t8.5 -23.5z" />
    <glyph glyph-name="divide" unicode="&#xf7;" horiz-adv-x="563" 
d="M262 462q0 23 15.5 38t34.5 15q18 0 29.5 -11t11.5 -27q0 -23 -15.5 -38t-34.5 -15q-18 0 -29.5 11t-11.5 27zM265 163q0 23 15.5 38t34.5 15q18 0 29.5 -11t11.5 -27q0 -23 -15.5 -38t-34.5 -15q-18 0 -29.5 11t-11.5 27zM94 249v58h457v-58h-457z" />
    <glyph glyph-name="oslash" unicode="&#xf8;" 
d="M624 289q0 -121 -93 -211.5t-205 -90.5q-58 0 -109 19q-46 -72 -117 -185l-33 5q85 135 122 192q-105 57 -105 195q0 122 91.5 211.5t203.5 89.5q65 0 116 -21l104 157l33 -5q-41 -61 -109 -165q101 -59 101 -191zM373 457q-81 0 -148.5 -70t-67.5 -166t68 -145
q107 166 235 362q-37 19 -87 19zM485 422q-174 -268 -233 -361q37 -17 82 -17q81 0 149 70t68 166q0 94 -66 142z" />
    <glyph glyph-name="ugrave" unicode="&#xf9;" horiz-adv-x="634" 
d="M550 500h71q0 -32 -48 -257.5t-48 -242.5h-70q0 14 21 122q-6 -10 -17.5 -26t-36.5 -44t-61.5 -46.5t-74.5 -18.5q-68 0 -112 44t-44 103q0 32 33.5 186.5t33.5 179.5h71q0 -28 -32.5 -179.5t-32.5 -169.5q0 -40 31.5 -70.5t84.5 -30.5q33 0 63.5 16t53 41.5t33 41
t18.5 29.5q63 297 63 322zM330 728l43 27l83 -163l-35 -23z" />
    <glyph glyph-name="uacute" unicode="&#xfa;" horiz-adv-x="634" 
d="M550 500h71q0 -32 -48 -257.5t-48 -242.5h-70q0 14 21 122q-6 -10 -17.5 -26t-36.5 -44t-61.5 -46.5t-74.5 -18.5q-68 0 -112 44t-44 103q0 32 33.5 186.5t33.5 179.5h71q0 -28 -32.5 -179.5t-32.5 -169.5q0 -40 31.5 -70.5t84.5 -30.5q33 0 63.5 16t53 41.5t33 41
t18.5 29.5q63 297 63 322zM501 755l31 -35l-159 -155l-23 27z" />
    <glyph glyph-name="ucircumflex" unicode="&#xfb;" horiz-adv-x="634" 
d="M550 500h71q0 -32 -48 -257.5t-48 -242.5h-70q0 14 21 122q-6 -10 -17.5 -26t-36.5 -44t-61.5 -46.5t-74.5 -18.5q-68 0 -112 44t-44 103q0 32 33.5 186.5t33.5 179.5h71q0 -28 -32.5 -179.5t-32.5 -169.5q0 -40 31.5 -70.5t84.5 -30.5q33 0 63.5 16t53 41.5t33 41
t18.5 29.5q63 297 63 322zM440 764l130 -119l-25 -44l-112 104l-146 -104l-24 44z" />
    <glyph glyph-name="udieresis" unicode="&#xfc;" horiz-adv-x="634" 
d="M550 500h71q0 -32 -48 -257.5t-48 -242.5h-70q0 14 21 122q-6 -10 -17.5 -26t-36.5 -44t-61.5 -46.5t-74.5 -18.5q-68 0 -112 44t-44 103q0 32 33.5 186.5t33.5 179.5h71q0 -28 -32.5 -179.5t-32.5 -169.5q0 -40 31.5 -70.5t84.5 -30.5q33 0 63.5 16t53 41.5t33 41
t18.5 29.5q63 297 63 322zM394 663q0 -23 -15 -38t-36 -15q-18 0 -26.5 10.5t-8.5 22.5q0 23 15 38.5t36 15.5q18 0 26.5 -10.5t8.5 -23.5zM562 663q0 -23 -15 -38t-36 -15q-18 0 -26.5 10.5t-8.5 22.5q0 23 15 38.5t36 15.5q18 0 26.5 -10.5t8.5 -23.5z" />
    <glyph glyph-name="yacute" unicode="&#xfd;" horiz-adv-x="565" 
d="M518 500h76q-132 -274 -272 -496q-44 -68 -138.5 -151.5t-166.5 -110.5l-38 54q67 26 142.5 85t126.5 125l-147 494h79l115 -442q111 192 223 442zM453 755l31 -35l-159 -155l-23 27z" />
    <glyph glyph-name="thorn" unicode="&#xfe;" horiz-adv-x="618" 
d="M224 750h70q0 -25 -60 -330q75 94 166 94q87 0 141.5 -64.5t54.5 -148.5q0 -139 -98.5 -226.5t-227.5 -87.5q-62 0 -120 14q-47 -233 -47 -250h-70q0 20 95.5 497t95.5 502zM226 379l-64 -316q54 -23 111 -23q101 0 175 70t74 174q0 70 -43.5 119.5t-113.5 49.5
q-78 0 -139 -74z" />
    <glyph glyph-name="ydieresis" unicode="&#xff;" horiz-adv-x="565" 
d="M518 500h76q-132 -274 -272 -496q-44 -68 -138.5 -151.5t-166.5 -110.5l-38 54q67 26 142.5 85t126.5 125l-147 494h79l115 -442q111 192 223 442zM515 663q0 -23 -15 -38t-36 -15q-18 0 -26.5 10.5t-8.5 22.5q0 23 15 38.5t36 15.5q18 0 26.5 -10.5t8.5 -23.5zM347 663
q0 -23 -15 -38t-36 -15q-18 0 -26.5 10.5t-8.5 22.5q0 23 15 38.5t36 15.5q18 0 26.5 -10.5t8.5 -23.5z" />
    <glyph glyph-name="Amacron" unicode="&#x100;" horiz-adv-x="664" 
d="M388 650h93q13 -89 63.5 -320t74.5 -330h-76q-5 18 -38 169h-329q-93 -156 -93 -169h-79q0 21 192 325.5t192 324.5zM495 220q-57 266 -72 368q-41 -79 -217 -368h289zM563 809v-36h-211v36h211z" />
    <glyph glyph-name="amacron" unicode="&#x101;" horiz-adv-x="636" 
d="M420 514q49 0 94 -6.5t66 -13.5l20 -6q0 -32 -46 -251.5t-46 -236.5h-70q0 18 14 86h-1q-6 -7 -10.5 -13t-24 -23.5t-38 -29.5t-47 -22.5t-56.5 -10.5q-88 0 -141 59.5t-53 145.5q0 141 102 231.5t237 90.5zM308 47q35 0 71.5 19t53 34.5t28.5 30.5q56 279 62 313
q-55 17 -112 17q-102 0 -179 -73t-77 -178q0 -70 41.5 -116.5t111.5 -46.5zM543 674v-36h-211v36h211z" />
    <glyph glyph-name="Abreve" unicode="&#x102;" horiz-adv-x="664" 
d="M388 650h93q13 -89 63.5 -320t74.5 -330h-76q-5 18 -38 169h-329q-93 -156 -93 -169h-79q0 21 192 325.5t192 324.5zM495 220q-57 266 -72 368q-41 -79 -217 -368h289zM337 775l30 45q2 -5 11 -14.5t35 -22.5t56 -13q36 0 75.5 28t61.5 56l21 27l34 -21
q-4 -6 -10.5 -15.5t-27.5 -34t-43.5 -43.5t-55.5 -34.5t-65 -15.5q-39 0 -69.5 14.5t-41.5 28.5z" />
    <glyph glyph-name="abreve" unicode="&#x103;" horiz-adv-x="636" 
d="M420 514q49 0 94 -6.5t66 -13.5l20 -6q0 -32 -46 -251.5t-46 -236.5h-70q0 18 14 86h-1q-6 -7 -10.5 -13t-24 -23.5t-38 -29.5t-47 -22.5t-56.5 -10.5q-88 0 -141 59.5t-53 145.5q0 141 102 231.5t237 90.5zM308 47q35 0 71.5 19t53 34.5t28.5 30.5q56 279 62 313
q-55 17 -112 17q-102 0 -179 -73t-77 -178q0 -70 41.5 -116.5t111.5 -46.5zM320 640l30 45q2 -5 11 -14.5t35 -22.5t56 -13q36 0 75.5 27.5t60.5 55.5l22 28l34 -21q-4 -6 -10.5 -15.5t-27.5 -34t-43.5 -43.5t-55.5 -34.5t-65 -15.5q-39 0 -69.5 14.5t-41.5 29.5z" />
    <glyph glyph-name="Aogonek" unicode="&#x104;" horiz-adv-x="664" 
d="M388 650h93q13 -89 63.5 -320t74.5 -330q-5 -2 -14 -6t-31 -17t-39 -27.5t-31 -37t-14 -46.5q0 -45 30.5 -61.5t84.5 -16.5v-39q-29 0 -50.5 2t-45 8t-38 16.5t-24 30t-9.5 45.5q0 80 123 149h-18q-5 18 -38 169h-329q-93 -156 -93 -169h-79q0 21 192 325.5t192 324.5z
M495 220q-57 266 -72 368q-41 -79 -217 -368h289z" />
    <glyph glyph-name="aogonek" unicode="&#x105;" horiz-adv-x="636" 
d="M420 514q49 0 94 -6.5t66 -13.5l20 -6q0 -32 -46 -251.5t-46 -236.5q-5 -2 -14 -6t-31 -17t-39 -27.5t-31 -37t-14 -46.5q0 -45 30.5 -61.5t84.5 -16.5v-39q-29 0 -50.5 2t-45 8t-38 16.5t-24 30t-9.5 45.5q0 80 123 149h-12q0 18 14 86h-1q-6 -7 -10.5 -13t-24 -23.5
t-38 -29.5t-47 -22.5t-56.5 -10.5q-88 0 -141 59.5t-53 145.5q0 141 102 231.5t237 90.5zM308 47q35 0 71.5 19t53 34.5t28.5 30.5q56 279 62 313q-55 17 -112 17q-102 0 -179 -73t-77 -178q0 -70 41.5 -116.5t111.5 -46.5z" />
    <glyph glyph-name="Cacute" unicode="&#x106;" horiz-adv-x="681" 
d="M694 632l-1 -2q-35 -128 -35 -189h-56q0 45 22 140q-82 19 -147 19q-129 0 -219.5 -94t-90.5 -230q0 -93 61.5 -158.5t162.5 -65.5q38 0 76 10.5t65 25.5t49.5 30t33.5 26l11 10l29 -36q-4 -5 -12 -14t-34.5 -31.5t-55.5 -40t-74 -31.5t-91 -14q-139 0 -218 82t-79 200
q0 164 113.5 278.5t273.5 114.5q49 0 103 -7.5t83 -14.5zM595 890l31 -35l-159 -155l-23 27z" />
    <glyph glyph-name="cacute" unicode="&#x107;" horiz-adv-x="524" 
d="M477 106l18 -42q-3 -3 -8 -8.5t-23 -18.5t-38 -23t-52.5 -18.5t-67.5 -8.5q-93 0 -159 61t-66 161q0 130 91 217.5t221 87.5q33 0 66.5 -4.5t50.5 -9.5l18 -4v-53q-67 15 -135 15q-102 0 -171 -71t-69 -172q0 -75 49.5 -121.5t124.5 -46.5q39 0 76.5 14.5t55.5 29.5z
M488 755l31 -35l-159 -155l-23 27z" />
    <glyph glyph-name="Ccaron" unicode="&#x10c;" horiz-adv-x="681" 
d="M694 632l-1 -2q-35 -128 -35 -189h-56q0 45 22 140q-82 19 -147 19q-129 0 -219.5 -94t-90.5 -230q0 -93 61.5 -158.5t162.5 -65.5q38 0 76 10.5t65 25.5t49.5 30t33.5 26l11 10l29 -36q-4 -5 -12 -14t-34.5 -31.5t-55.5 -40t-74 -31.5t-91 -14q-139 0 -218 82t-79 200
q0 164 113.5 278.5t273.5 114.5q49 0 103 -7.5t83 -14.5zM709 837l-177 -118l-131 118l28 45l111 -103l149 104z" />
    <glyph glyph-name="ccaron" unicode="&#x10d;" horiz-adv-x="524" 
d="M477 106l18 -42q-3 -3 -8 -8.5t-23 -18.5t-38 -23t-52.5 -18.5t-67.5 -8.5q-93 0 -159 61t-66 161q0 130 91 217.5t221 87.5q33 0 66.5 -4.5t50.5 -9.5l18 -4v-53q-67 15 -135 15q-102 0 -171 -71t-69 -172q0 -75 49.5 -121.5t124.5 -46.5q39 0 76.5 14.5t55.5 29.5z
M602 702l-177 -118l-131 118l28 45l111 -103l149 104z" />
    <glyph glyph-name="Dcaron" unicode="&#x10e;" horiz-adv-x="776" 
d="M327 -13q-53 0 -108 3.5t-83 6.5l-29 3q0 21 62.5 324.5t62.5 325.5q90 12 196 12q160 0 238.5 -79.5t78.5 -205.5q0 -104 -57 -194t-153.5 -143t-207.5 -53zM425 600q-39 0 -127 -5q-11 -56 -53.5 -262t-54.5 -273q74 -8 138 -8q137 0 238 92.5t101 222.5q0 103 -60 168
t-182 65zM683 837l-177 -118l-131 118l28 45l111 -103l149 104z" />
    <glyph glyph-name="dcaron" unicode="&#x10f;" horiz-adv-x="653" 
d="M579 750h71q0 -32 -72 -382.5t-72 -367.5h-70q0 11 13 82q-7 -9 -18 -20t-34.5 -30.5t-55.5 -32t-66 -12.5q-88 0 -141 59.5t-53 145.5q0 94 47.5 169t121 114t155.5 39q65 0 127 -18q47 231 47 254zM308 47q34 0 68.5 17t52 32.5t29.5 29.5q2 12 62 308q-56 27 -114 27
q-101 0 -176 -73t-75 -178q0 -70 41.5 -116.5t111.5 -46.5zM853 733l-133 -172l-37 20l132 175z" />
    <glyph glyph-name="Dcroat" unicode="&#x110;" horiz-adv-x="776" 
d="M327 -13q-53 0 -108 3.5t-83 6.5l-29 3q0 19 57 300h-90v49h100q58 276 58 301q90 12 196 12q160 0 238.5 -79.5t78.5 -205.5q0 -104 -57 -194t-153.5 -143t-207.5 -53zM425 600q-39 0 -127 -5q-16 -86 -50 -246h227v-49h-237q-42 -204 -48 -240q74 -8 138 -8
q137 0 238 92.5t101 222.5q0 103 -60 168t-182 65z" />
    <glyph glyph-name="dcroat" unicode="&#x111;" horiz-adv-x="623" 
d="M579 750h71q0 -20 -12 -80h77v-52h-87q-15 -80 -47.5 -237.5t-53.5 -262.5t-21 -118h-70q0 11 13 82q-7 -9 -18 -20t-34.5 -30.5t-55.5 -32t-66 -12.5q-88 0 -141 59.5t-53 145.5q0 94 47.5 169t121 114t155.5 39q65 0 127 -18l24 122h-238v52h248q13 68 13 80zM308 47
q34 0 68.5 17t52 32.5t29.5 29.5q2 12 62 308q-56 27 -114 27q-101 0 -176 -73t-75 -178q0 -70 41.5 -116.5t111.5 -46.5z" />
    <glyph glyph-name="Emacron" unicode="&#x112;" horiz-adv-x="558" 
d="M363 374l94 -1v-55q-39 1 -100 1q-83 0 -141 -40t-58 -112q0 -49 43.5 -83.5t126.5 -34.5q48 0 93 17t67 34l21 18l23 -43q-3 -4 -9 -9.5t-26.5 -21t-43.5 -27t-60 -21t-76 -9.5q-115 0 -176 49t-61 123q0 77 56 130t138 68q-74 48 -74 131q0 79 63.5 126.5t153.5 47.5
q37 0 73.5 -6t55.5 -12l18 -5v-55q-68 20 -138 20q-65 0 -111 -33t-46 -89q0 -33 12.5 -56.5t31 -33.5t31 -14t19.5 -4zM528 809v-36h-211v36h211z" />
    <glyph glyph-name="emacron" unicode="&#x113;" horiz-adv-x="554" 
d="M478 99l19 -45q-3 -3 -8 -7.5t-23 -16t-39 -20.5t-55 -16t-70 -7q-98 0 -159.5 57t-61.5 150q0 133 87 226.5t200 93.5q79 0 126 -46t47 -122q0 -26 -4.5 -49.5t-9.5 -34.5l-5 -11q-63 -7 -199 -16t-176 -10q-1 -11 -1 -33q0 -66 48 -105.5t121 -39.5q45 0 85.5 13
t59.5 26zM364 460q-69 0 -129.5 -53t-80.5 -141q239 10 320 21q9 30 9 56q0 55 -32 86t-87 31zM503 674v-36h-211v36h211z" />
    <glyph glyph-name="Edotaccent" unicode="&#x116;" horiz-adv-x="558" 
d="M363 374l94 -1v-55q-39 1 -100 1q-83 0 -141 -40t-58 -112q0 -49 43.5 -83.5t126.5 -34.5q48 0 93 17t67 34l21 18l23 -43q-3 -4 -9 -9.5t-26.5 -21t-43.5 -27t-60 -21t-76 -9.5q-115 0 -176 49t-61 123q0 77 56 130t138 68q-74 48 -74 131q0 79 63.5 126.5t153.5 47.5
q37 0 73.5 -6t55.5 -12l18 -5v-55q-68 20 -138 20q-65 0 -111 -33t-46 -89q0 -33 12.5 -56.5t31 -33.5t31 -14t19.5 -4zM437 800q0 -23 -15.5 -40t-35.5 -17q-18 0 -26.5 11t-8.5 23q0 23 16 40t36 17q17 0 25.5 -11t8.5 -23z" />
    <glyph glyph-name="edotaccent" unicode="&#x117;" horiz-adv-x="554" 
d="M478 99l19 -45q-3 -3 -8 -7.5t-23 -16t-39 -20.5t-55 -16t-70 -7q-98 0 -159.5 57t-61.5 150q0 133 87 226.5t200 93.5q79 0 126 -46t47 -122q0 -26 -4.5 -49.5t-9.5 -34.5l-5 -11q-63 -7 -199 -16t-176 -10q-1 -11 -1 -33q0 -66 48 -105.5t121 -39.5q45 0 85.5 13
t59.5 26zM364 460q-69 0 -129.5 -53t-80.5 -141q239 10 320 21q9 30 9 56q0 55 -32 86t-87 31zM412 665q0 -23 -15.5 -40t-35.5 -17q-18 0 -26.5 11t-8.5 23q0 23 16 40t36 17q17 0 25.5 -11t8.5 -23z" />
    <glyph glyph-name="Eogonek" unicode="&#x118;" horiz-adv-x="558" 
d="M363 374l94 -1v-55q-39 1 -100 1q-83 0 -141 -40t-58 -112q0 -49 43.5 -83.5t126.5 -34.5q48 0 93 17t67 34l21 18l23 -43q-6 -7 -18.5 -18t-53.5 -34t-87 -31q-111 -52 -111 -126q0 -45 30.5 -61.5t84.5 -16.5v-39q-29 0 -50.5 2t-45 8t-38 16.5t-24 30t-9.5 45.5
q0 74 101 136q-112 1 -171.5 50t-59.5 122q0 77 56 130t138 68q-74 48 -74 131q0 79 63.5 126.5t153.5 47.5q37 0 73.5 -6t55.5 -12l18 -5v-55q-68 20 -138 20q-65 0 -111 -33t-46 -89q0 -33 12.5 -56.5t31 -33.5t31 -14t19.5 -4z" />
    <glyph glyph-name="eogonek" unicode="&#x119;" horiz-adv-x="554" 
d="M478 99l19 -45q-5 -5 -14.5 -13t-43.5 -24.5t-72 -23.5q-113 -53 -113 -127q0 -45 30.5 -61.5t84.5 -16.5v-39q-29 0 -50.5 2t-45 8t-38 16.5t-24 30t-9.5 45.5q0 74 101 136h-1q-98 0 -159.5 57t-61.5 150q0 133 87 226.5t200 93.5q79 0 126 -46t47 -122
q0 -26 -4.5 -49.5t-9.5 -34.5l-5 -11q-63 -7 -199 -16t-176 -10q-1 -11 -1 -33q0 -66 48 -105.5t121 -39.5q45 0 85.5 13t59.5 26zM364 460q-69 0 -129.5 -53t-80.5 -141q239 10 320 21q9 30 9 56q0 55 -32 86t-87 31z" />
    <glyph glyph-name="Ecaron" unicode="&#x11a;" horiz-adv-x="558" 
d="M363 374l94 -1v-55q-39 1 -100 1q-83 0 -141 -40t-58 -112q0 -49 43.5 -83.5t126.5 -34.5q48 0 93 17t67 34l21 18l23 -43q-3 -4 -9 -9.5t-26.5 -21t-43.5 -27t-60 -21t-76 -9.5q-115 0 -176 49t-61 123q0 77 56 130t138 68q-74 48 -74 131q0 79 63.5 126.5t153.5 47.5
q37 0 73.5 -6t55.5 -12l18 -5v-55q-68 20 -138 20q-65 0 -111 -33t-46 -89q0 -33 12.5 -56.5t31 -33.5t31 -14t19.5 -4zM611 837l-177 -118l-131 118l28 45l111 -103l149 104z" />
    <glyph glyph-name="ecaron" unicode="&#x11b;" horiz-adv-x="554" 
d="M478 99l19 -45q-3 -3 -8 -7.5t-23 -16t-39 -20.5t-55 -16t-70 -7q-98 0 -159.5 57t-61.5 150q0 133 87 226.5t200 93.5q79 0 126 -46t47 -122q0 -26 -4.5 -49.5t-9.5 -34.5l-5 -11q-63 -7 -199 -16t-176 -10q-1 -11 -1 -33q0 -66 48 -105.5t121 -39.5q45 0 85.5 13
t59.5 26zM364 460q-69 0 -129.5 -53t-80.5 -141q239 10 320 21q9 30 9 56q0 55 -32 86t-87 31zM585 702l-177 -118l-131 118l28 45l111 -103l149 104z" />
    <glyph glyph-name="Gbreve" unicode="&#x11e;" horiz-adv-x="742" 
d="M629 388h66q0 -31 -37.5 -202t-37.5 -186q-86 -13 -198 -13q-162 0 -246.5 81t-84.5 201q0 164 113.5 278.5t273.5 114.5q49 0 103 -7.5t83 -14.5l30 -8v-63q-101 33 -217 33q-129 0 -219.5 -95t-90.5 -231q0 -96 67.5 -160.5t190.5 -64.5q73 0 140 13q5 22 24.5 112.5
t29.5 143t10 68.5zM417 775l30 45q2 -5 11 -14.5t35 -22.5t56 -13q36 0 75.5 28t61.5 56l21 27l34 -21q-4 -6 -10.5 -15.5t-27.5 -34t-43.5 -43.5t-55.5 -34.5t-65 -15.5q-39 0 -69.5 14.5t-41.5 28.5z" />
    <glyph glyph-name="gbreve" unicode="&#x11f;" horiz-adv-x="631" 
d="M21 -167l43 45q2 -3 6.5 -8.5t20.5 -19.5t34 -24.5t47.5 -19t61.5 -8.5q57 0 99.5 21.5t66 51.5t38 72t18.5 74t5 66v3h-2q-5 -6 -10.5 -12.5t-24.5 -24t-38 -29.5t-47.5 -22.5t-56.5 -10.5q-88 0 -141.5 59.5t-53.5 145.5q0 141 102 231.5t238 90.5q49 0 93.5 -6.5
t65.5 -13.5l20 -6q0 -8 -37 -187t-39 -229q-1 -37 -8.5 -77t-28.5 -87.5t-52 -84t-84 -61.5t-121 -25q-45 0 -84 10t-62 24t-39.5 28t-22.5 24zM315 47q79 0 151 81q6 38 18 97.5t26 128t19 91.5q-58 16 -111 16q-102 0 -179 -73t-77 -178q0 -70 41.5 -116.5t111.5 -46.5z
M311 640l30 45q2 -5 11 -14.5t35 -22.5t56 -13q36 0 75.5 27.5t61.5 55.5l21 28l34 -21q-4 -6 -10.5 -15.5t-27.5 -34t-43.5 -43.5t-55.5 -34.5t-65 -15.5q-39 0 -69.5 14.5t-41.5 29.5z" />
    <glyph glyph-name="Gcommaaccent" unicode="&#x122;" horiz-adv-x="742" 
d="M629 388h66q0 -31 -37.5 -202t-37.5 -186q-86 -13 -198 -13q-162 0 -246.5 81t-84.5 201q0 164 113.5 278.5t273.5 114.5q49 0 103 -7.5t83 -14.5l30 -8v-63q-101 33 -217 33q-129 0 -219.5 -95t-90.5 -231q0 -96 67.5 -160.5t190.5 -64.5q73 0 140 13q5 22 24.5 112.5
t29.5 143t10 68.5zM345 -46l42 -6q-7 -43 -36.5 -98.5t-61.5 -91.5l-36 8q73 92 92 188z" />
    <glyph glyph-name="gcommaaccent" unicode="&#x123;" horiz-adv-x="631" 
d="M483 771l36 -7q-73 -92 -92 -188l-43 6q8 43 37.5 98t61.5 91zM21 -167l43 45q2 -3 6.5 -8.5t20.5 -19.5t34 -24.5t47.5 -19t61.5 -8.5q57 0 99.5 21.5t66 51.5t38 72t18.5 74t5 66v3h-2q-5 -6 -10.5 -12.5t-24.5 -24t-38 -29.5t-47.5 -22.5t-56.5 -10.5
q-88 0 -141.5 59.5t-53.5 145.5q0 141 102 231.5t238 90.5q49 0 93.5 -6.5t65.5 -13.5l20 -6q0 -8 -37 -187t-39 -229q-1 -37 -8.5 -77t-28.5 -87.5t-52 -84t-84 -61.5t-121 -25q-45 0 -84 10t-62 24t-39.5 28t-22.5 24zM315 47q79 0 151 81q6 38 18 97.5t26 128t19 91.5
q-58 16 -111 16q-102 0 -179 -73t-77 -178q0 -70 41.5 -116.5t111.5 -46.5z" />
    <glyph glyph-name="uni012A" unicode="&#x12a;" horiz-adv-x="351" 
d="M181 0h-74q0 21 62.5 324.5t62.5 325.5h74q0 -22 -62.5 -325.5t-62.5 -324.5zM396 809v-36h-211v36h211z" />
    <glyph glyph-name="imacron" unicode="&#x12b;" horiz-adv-x="287" 
d="M183 500h71q0 -32 -48 -257.5t-48 -242.5h-71q0 20 48 247.5t48 252.5zM342 674v-36h-211v36h211z" />
    <glyph glyph-name="Iogonek" unicode="&#x12e;" horiz-adv-x="351" 
d="M181 0q-5 -2 -14 -6t-31 -17t-39 -27.5t-31 -37t-14 -46.5q0 -45 30.5 -61.5t84.5 -16.5v-39q-29 0 -50.5 2t-45 8t-38 16.5t-24 30t-9.5 45.5q0 80 123 149h-16q0 21 62.5 324.5t62.5 325.5h74q0 -22 -62.5 -325.5t-62.5 -324.5z" />
    <glyph glyph-name="iogonek" unicode="&#x12f;" horiz-adv-x="287" 
d="M183 500h71q0 -32 -48 -257.5t-48 -242.5q-5 -2 -14 -6t-31 -17t-39 -27.5t-31 -37t-14 -46.5q0 -45 30.5 -61.5t84.5 -16.5v-39q-29 0 -50.5 2t-45 8t-38 16.5t-24 30t-9.5 45.5q0 80 123 149h-13q0 20 48 247.5t48 252.5zM293 665q0 -23 -15.5 -40t-35.5 -17
q-18 0 -26.5 11t-8.5 23q0 23 16 40t36 17q17 0 25.5 -11t8.5 -23z" />
    <glyph glyph-name="Idotaccent" unicode="&#x130;" horiz-adv-x="351" 
d="M181 0h-74q0 21 62.5 324.5t62.5 325.5h74q0 -22 -62.5 -325.5t-62.5 -324.5zM337 800q0 -23 -15.5 -40t-35.5 -17q-18 0 -26.5 11t-8.5 23q0 23 16 40t36 17q17 0 25.5 -11t8.5 -23z" />
    <glyph glyph-name="dotlessi" unicode="&#x131;" horiz-adv-x="287" 
d="M183 500h71q0 -32 -48 -257.5t-48 -242.5h-71q0 20 48 247.5t48 252.5z" />
    <glyph glyph-name="Kcommaaccent" unicode="&#x136;" horiz-adv-x="670" 
d="M181 0h-74q0 21 62.5 324.5t62.5 325.5h74q0 -20 -76 -391q372 344 406 391h91q-44 -56 -336 -312l248 -338h-94l-210 289l-120 -104q-34 -162 -34 -185zM301 -46l42 -6q-7 -43 -36.5 -98.5t-61.5 -91.5l-36 8q73 92 92 188z" />
    <glyph glyph-name="kcommaaccent" unicode="&#x137;" horiz-adv-x="539" 
d="M237 750h71q0 -26 -94 -491q173 122 279 241h85q-93 -102 -252 -220l191 -280h-89l-159 238l-69 -49q-35 -175 -35 -189h-71q0 20 71.5 372.5t71.5 377.5zM279 -46l42 -6q-7 -43 -36.5 -98.5t-61.5 -91.5l-36 8q73 92 92 188z" />
    <glyph glyph-name="Lacute" unicode="&#x139;" horiz-adv-x="577" 
d="M541 58v-58h-434q0 21 62.5 324.5t62.5 325.5h74q0 -16 -22.5 -127.5t-53 -259.5t-41.5 -205h352zM379 890l31 -35l-159 -155l-23 27z" />
    <glyph glyph-name="lacute" unicode="&#x13a;" horiz-adv-x="270" 
d="M237 750h71q0 -32 -71.5 -382.5t-71.5 -367.5h-71q0 20 71.5 372.5t71.5 377.5zM384 965l31 -35l-159 -155l-23 27z" />
    <glyph glyph-name="Lcommaaccent" unicode="&#x13b;" horiz-adv-x="577" 
d="M541 58v-58h-434q0 21 62.5 324.5t62.5 325.5h74q0 -16 -22.5 -127.5t-53 -259.5t-41.5 -205h352zM266 -46l42 -6q-7 -43 -36.5 -98.5t-61.5 -91.5l-36 8q73 92 92 188z" />
    <glyph glyph-name="lcommaaccent" unicode="&#x13c;" horiz-adv-x="270" 
d="M237 750h71q0 -32 -71.5 -382.5t-71.5 -367.5h-71q0 20 71.5 372.5t71.5 377.5zM110 -46l42 -6q-7 -43 -36.5 -98.5t-61.5 -91.5l-36 8q73 92 92 188z" />
    <glyph glyph-name="Lcaron" unicode="&#x13d;" horiz-adv-x="577" 
d="M541 58v-58h-434q0 21 62.5 324.5t62.5 325.5h74q0 -16 -22.5 -127.5t-53 -259.5t-41.5 -205h352zM533 733l-133 -172l-37 20l132 175z" />
    <glyph glyph-name="lcaron" unicode="&#x13e;" horiz-adv-x="296" 
d="M230 750h71q0 -32 -71.5 -382.5t-71.5 -367.5h-71q0 20 71.5 372.5t71.5 377.5zM507 733l-133 -172l-37 20l132 175z" />
    <glyph glyph-name="Lslash" unicode="&#x141;" horiz-adv-x="577" 
d="M541 58v-58h-434q0 20 49 263l-101 -58l-13 32l124 71q66 324 66 342h74q0 -24 -56 -294l158 91l13 -32l-181 -104q-44 -217 -51 -253h352z" />
    <glyph glyph-name="lslash" unicode="&#x142;" horiz-adv-x="309" 
d="M254 750h71q0 -29 -59 -322l112 68l13 -32l-135 -82q-74 -370 -74 -382h-71q0 23 63 332l-116 -71l-14 32l140 85q70 348 70 372z" />
    <glyph glyph-name="Nacute" unicode="&#x143;" horiz-adv-x="819" 
d="M648 0h-63l-305 519q-11 -59 -39 -197t-44 -223t-16 -99h-74q0 21 60 312.5t64 329.5l1 8h63l306 -521q10 54 38.5 195.5t44.5 226t16 99.5h73q0 -22 -62.5 -325.5t-62.5 -324.5zM601 890l31 -35l-159 -155l-23 27z" />
    <glyph glyph-name="nacute" unicode="&#x144;" horiz-adv-x="629" 
d="M203 500h71q0 -21 -19 -118q5 9 17.5 26.5t37 43.5t60.5 44t74 18q67 0 109 -44t42 -103q0 -34 -33.5 -195.5t-33.5 -171.5h-71q0 11 32.5 167.5t32.5 183.5q0 41 -30.5 70t-79.5 29q-31 0 -61 -14.5t-52 -37.5t-34 -39t-21 -31q-8 -40 -28 -132t-29 -138.5t-9 -57.5h-71
q0 20 48 247.5t48 252.5zM487 756l31 -35l-159 -155l-23 27z" />
    <glyph glyph-name="Ncommaaccent" unicode="&#x145;" horiz-adv-x="819" 
d="M648 0h-63l-305 519q-11 -59 -39 -197t-44 -223t-16 -99h-74q0 21 60 312.5t64 329.5l1 8h63l306 -521q10 54 38.5 195.5t44.5 226t16 99.5h73q0 -22 -62.5 -325.5t-62.5 -324.5zM337 -46l42 -6q-7 -43 -36.5 -98.5t-61.5 -91.5l-36 8q73 92 92 188z" />
    <glyph glyph-name="ncommaaccent" unicode="&#x146;" horiz-adv-x="629" 
d="M203 500h71q0 -21 -19 -118q5 9 17.5 26.5t37 43.5t60.5 44t74 18q67 0 109 -44t42 -103q0 -34 -33.5 -195.5t-33.5 -171.5h-71q0 11 32.5 167.5t32.5 183.5q0 41 -30.5 70t-79.5 29q-31 0 -61 -14.5t-52 -37.5t-34 -39t-21 -31q-8 -40 -28 -132t-29 -138.5t-9 -57.5h-71
q0 20 48 247.5t48 252.5zM348 -46l42 -6q-7 -43 -36.5 -98.5t-61.5 -91.5l-36 8q73 92 92 188z" />
    <glyph glyph-name="Ncaron" unicode="&#x147;" horiz-adv-x="819" 
d="M648 0h-63l-305 519q-11 -59 -39 -197t-44 -223t-16 -99h-74q0 21 60 312.5t64 329.5l1 8h63l306 -521q10 54 38.5 195.5t44.5 226t16 99.5h73q0 -22 -62.5 -325.5t-62.5 -324.5zM715 837l-177 -118l-131 118l28 45l111 -103l149 104z" />
    <glyph glyph-name="ncaron" unicode="&#x148;" horiz-adv-x="629" 
d="M203 500h71q0 -21 -19 -118q5 9 17.5 26.5t37 43.5t60.5 44t74 18q67 0 109 -44t42 -103q0 -34 -33.5 -195.5t-33.5 -171.5h-71q0 11 32.5 167.5t32.5 183.5q0 41 -30.5 70t-79.5 29q-31 0 -61 -14.5t-52 -37.5t-34 -39t-21 -31q-8 -40 -28 -132t-29 -138.5t-9 -57.5h-71
q0 20 48 247.5t48 252.5zM601 703l-177 -118l-131 118l28 45l111 -103l149 104z" />
    <glyph glyph-name="Omacron" unicode="&#x14c;" horiz-adv-x="789" 
d="M758 378q0 -162 -111.5 -276.5t-260.5 -114.5q-136 0 -215.5 83.5t-79.5 200.5q0 162 112 276.5t260 114.5q136 0 215.5 -83.5t79.5 -200.5zM682 369q0 93 -62.5 161t-160.5 68q-117 0 -204 -92.5t-87 -225.5q0 -93 62.5 -161t159.5 -68q117 0 204.5 92.5t87.5 225.5z
M612 809v-36h-211v36h211z" />
    <glyph glyph-name="omacron" unicode="&#x14d;" 
d="M624 289q0 -121 -93 -211.5t-205 -90.5q-110 0 -176 59.5t-66 166.5q0 122 91.5 211.5t203.5 89.5q111 0 178 -59t67 -166zM373 457q-81 0 -148.5 -70t-67.5 -166q0 -81 49.5 -129t127.5 -48q81 0 149 70t68 166q0 81 -49.5 129t-128.5 48zM526 674v-36h-211v36h211z" />
    <glyph glyph-name="Ohungarumlaut" unicode="&#x150;" horiz-adv-x="789" 
d="M758 378q0 -162 -111.5 -276.5t-260.5 -114.5q-136 0 -215.5 83.5t-79.5 200.5q0 162 112 276.5t260 114.5q136 0 215.5 -83.5t79.5 -200.5zM682 369q0 93 -62.5 161t-160.5 68q-117 0 -204 -92.5t-87 -225.5q0 -93 62.5 -161t159.5 -68q117 0 204.5 92.5t87.5 225.5z
M496 863l-77 -130l-51 5l88 141zM642 863l-77 -130l-51 5l88 141z" />
    <glyph glyph-name="ohungarumlaut" unicode="&#x151;" 
d="M624 289q0 -121 -93 -211.5t-205 -90.5q-110 0 -176 59.5t-66 166.5q0 122 91.5 211.5t203.5 89.5q111 0 178 -59t67 -166zM373 457q-81 0 -148.5 -70t-67.5 -166q0 -81 49.5 -129t127.5 -48q81 0 149 70t68 166q0 81 -49.5 129t-128.5 48zM409 728l-77 -130l-51 5
l88 141zM555 728l-77 -130l-51 5l88 141z" />
    <glyph glyph-name="OE" unicode="&#x152;" horiz-adv-x="1037" 
d="M957 60v-60h-431q0 11 4 32q-65 -45 -142 -45q-139 0 -218 82t-79 200q0 164 113.5 278.5t273.5 114.5q94 0 168 -48q5 30 5 36h391v-60h-327q-10 -52 -43 -216h259v-60h-272q-44 -214 -51 -254h349zM391 52q87 0 154 58q12 65 45.5 225.5t44.5 217.5q-82 47 -158 47
q-129 0 -219.5 -94t-90.5 -230q0 -93 61.5 -158.5t162.5 -65.5z" />
    <glyph glyph-name="oe" unicode="&#x153;" horiz-adv-x="997" 
d="M921 99l19 -45q-3 -3 -8 -7.5t-23 -16t-39 -20.5t-55 -16t-70 -7q-79 0 -136 38.5t-77 105.5q-36 -65 -93.5 -104.5t-122.5 -39.5q-107 0 -171 59.5t-64 166.5q0 122 88.5 211.5t197.5 89.5q172 0 203 -148q41 68 105.5 108t135.5 40q79 0 126 -46t47 -122
q0 -26 -5 -49.5t-9 -34.5l-5 -11q-63 -7 -199 -16t-176 -10q-1 -11 -1 -33q0 -66 48 -105.5t121 -39.5q45 0 85.5 13t58.5 26zM361 457q-78 0 -142.5 -70.5t-64.5 -167.5q0 -81 46.5 -128t122.5 -47q68 0 128.5 56t75.5 138q0 4 2 14q2 20 2 30q0 81 -46.5 128t-123.5 47z
M807 460q-69 0 -129.5 -53t-80.5 -141q239 10 320 21q9 30 9 56q0 55 -32 86t-87 31z" />
    <glyph glyph-name="Racute" unicode="&#x154;" horiz-adv-x="660" 
d="M177 0h-70q0 21 62.5 324.5t62.5 325.5q76 12 157 12q101 0 160 -47.5t59 -139.5q0 -75 -47 -129.5t-127 -82.5l164 -263h-90l-146 244q-39 -6 -80 -6q-30 0 -60 3q-45 -216 -45 -241zM375 601q-19 0 -82 -7q-11 -61 -59 -293q38 -4 57 -4q106 0 176 48t70 128
q0 128 -162 128zM495 890l31 -35l-159 -155l-23 27z" />
    <glyph glyph-name="racute" unicode="&#x155;" horiz-adv-x="427" 
d="M476 500v-68q-34 9 -61 9q-109 0 -193 -211q-44 -210 -44 -230h-70q0 12 48 247.5t48 252.5h63q0 -21 -38 -192h1q20 43 36 72.5t40.5 63.5t53.5 52t61 18q17 0 30.5 -3.5t18.5 -6.5zM405 755l31 -35l-159 -155l-23 27z" />
    <glyph glyph-name="Rcommaaccent" unicode="&#x156;" horiz-adv-x="660" 
d="M177 0h-70q0 21 62.5 324.5t62.5 325.5q76 12 157 12q101 0 160 -47.5t59 -139.5q0 -75 -47 -129.5t-127 -82.5l164 -263h-90l-146 244q-39 -6 -80 -6q-30 0 -60 3q-45 -216 -45 -241zM375 601q-19 0 -82 -7q-11 -61 -59 -293q38 -4 57 -4q106 0 176 48t70 128
q0 128 -162 128zM280 -46l42 -6q-7 -43 -36.5 -98.5t-61.5 -91.5l-36 8q73 92 92 188z" />
    <glyph glyph-name="rcommaaccent" unicode="&#x157;" horiz-adv-x="427" 
d="M476 500v-68q-34 9 -61 9q-109 0 -193 -211q-44 -210 -44 -230h-70q0 12 48 247.5t48 252.5h63q0 -21 -38 -192h1q20 43 36 72.5t40.5 63.5t53.5 52t61 18q17 0 30.5 -3.5t18.5 -6.5zM128 -46l42 -6q-7 -43 -36.5 -98.5t-61.5 -91.5l-36 8q73 92 92 188z" />
    <glyph glyph-name="Rcaron" unicode="&#x158;" horiz-adv-x="660" 
d="M177 0h-70q0 21 62.5 324.5t62.5 325.5q76 12 157 12q101 0 160 -47.5t59 -139.5q0 -75 -47 -129.5t-127 -82.5l164 -263h-90l-146 244q-39 -6 -80 -6q-30 0 -60 3q-45 -216 -45 -241zM375 601q-19 0 -82 -7q-11 -61 -59 -293q38 -4 57 -4q106 0 176 48t70 128
q0 128 -162 128zM609 837l-177 -118l-131 118l28 45l111 -103l149 104z" />
    <glyph glyph-name="rcaron" unicode="&#x159;" horiz-adv-x="427" 
d="M476 500v-68q-34 9 -61 9q-109 0 -193 -211q-44 -210 -44 -230h-70q0 12 48 247.5t48 252.5h63q0 -21 -38 -192h1q20 43 36 72.5t40.5 63.5t53.5 52t61 18q17 0 30.5 -3.5t18.5 -6.5zM520 702l-177 -118l-131 118l28 45l111 -103l149 104z" />
    <glyph glyph-name="Sacute" unicode="&#x15a;" horiz-adv-x="597" 
d="M569 465h-49q0 40 22 119q-67 23 -129 23q-88 0 -133 -33.5t-45 -89.5q0 -46 32 -75.5t78 -46.5t92.5 -36.5t78.5 -58t32 -97.5q0 -80 -66.5 -131.5t-176.5 -51.5q-50 0 -93.5 10t-70.5 23.5t-47 27.5t-28 24l-9 10l38 47q3 -3 8 -8.5t24 -19.5t41 -24.5t58 -19t76 -8.5
q74 0 121 33.5t47 87.5q0 44 -32 72.5t-77 45.5t-90.5 36t-77.5 57.5t-32 97.5q0 82 69 132.5t177 50.5q44 0 94.5 -9t78.5 -19l29 -9q-40 -104 -40 -160zM522 890l31 -35l-159 -155l-23 27z" />
    <glyph glyph-name="sacute" unicode="&#x15b;" horiz-adv-x="478" 
d="M46 50l31 45q8 -6 22 -15.5t59.5 -25t92.5 -15.5q65 0 102 25.5t37 62.5q0 65 -120 109q-75 30 -106.5 59.5t-31.5 77.5q0 64 64.5 102.5t155.5 38.5q33 0 69 -5t55 -11l19 -5v-51q-71 19 -141 19q-63 0 -106.5 -23t-43.5 -62q0 -34 31 -57t96 -46q68 -27 99.5 -61
t31.5 -81q0 -64 -57 -104t-152 -40q-38 0 -73.5 6.5t-58.5 16t-41 18.5t-26 16zM437 755l31 -35l-159 -155l-23 27z" />
    <glyph glyph-name="Scedilla" unicode="&#x15e;" horiz-adv-x="597" 
d="M176 -187l32 25q3 -5 9 -13.5t26 -22t42 -13.5q36 0 54.5 19.5t18.5 49.5q0 19 -13 32.5t-29 19.5t-29 17t-13 27q0 15 11 33q-72 3 -129 27t-78 46l-21 22l38 47q3 -3 8 -8.5t24 -19.5t41 -24.5t58 -19t76 -8.5q74 0 121 33.5t47 87.5q0 44 -32 72.5t-77 45.5t-90.5 36
t-77.5 57.5t-32 97.5q0 82 69 132.5t177 50.5q44 0 94.5 -9t78.5 -19l29 -9q-40 -104 -40 -160h-49q0 40 22 119q-67 23 -129 23q-88 0 -133 -33.5t-45 -89.5q0 -46 32 -75.5t78 -46.5t92.5 -36.5t78.5 -58t32 -97.5q0 -75 -59.5 -125.5t-159.5 -56.5q-9 -18 -9 -26
q0 -13 14 -24t31 -18.5t31 -25t14 -41.5q0 -43 -32.5 -73.5t-86.5 -30.5q-37 0 -65.5 16t-39.5 32z" />
    <glyph glyph-name="scedilla" unicode="&#x15f;" horiz-adv-x="478" 
d="M124 -187l32 25q3 -5 9 -13.5t26 -22t42 -13.5q36 0 54.5 19.5t18.5 49.5q0 19 -13 32.5t-29 19.5t-29 17t-13 27t12 34q-55 2 -102 17.5t-66 30.5l-20 14l31 45q8 -6 22 -15.5t59.5 -25t92.5 -15.5q65 0 102 25.5t37 62.5q0 65 -120 109q-75 30 -106.5 59.5t-31.5 77.5
q0 64 64.5 102.5t155.5 38.5q33 0 69 -5t55 -11l19 -5v-51q-71 19 -141 19q-63 0 -106.5 -23t-43.5 -62q0 -34 31 -57t96 -46q68 -27 99.5 -61t31.5 -81q0 -60 -49.5 -99t-135.5 -44q-9 -16 -9 -26q0 -13 14 -24t31 -18.5t31 -25t14 -41.5q0 -43 -32.5 -73.5t-86.5 -30.5
q-37 0 -65.5 16t-39.5 32z" />
    <glyph glyph-name="Scaron" unicode="&#x160;" horiz-adv-x="597" 
d="M569 465h-49q0 40 22 119q-67 23 -129 23q-88 0 -133 -33.5t-45 -89.5q0 -46 32 -75.5t78 -46.5t92.5 -36.5t78.5 -58t32 -97.5q0 -80 -66.5 -131.5t-176.5 -51.5q-50 0 -93.5 10t-70.5 23.5t-47 27.5t-28 24l-9 10l38 47q3 -3 8 -8.5t24 -19.5t41 -24.5t58 -19t76 -8.5
q74 0 121 33.5t47 87.5q0 44 -32 72.5t-77 45.5t-90.5 36t-77.5 57.5t-32 97.5q0 82 69 132.5t177 50.5q44 0 94.5 -9t78.5 -19l29 -9q-40 -104 -40 -160zM609 837l-177 -118l-131 118l28 45l111 -103l149 104z" />
    <glyph glyph-name="scaron" unicode="&#x161;" horiz-adv-x="478" 
d="M46 50l31 45q8 -6 22 -15.5t59.5 -25t92.5 -15.5q65 0 102 25.5t37 62.5q0 65 -120 109q-75 30 -106.5 59.5t-31.5 77.5q0 64 64.5 102.5t155.5 38.5q33 0 69 -5t55 -11l19 -5v-51q-71 19 -141 19q-63 0 -106.5 -23t-43.5 -62q0 -34 31 -57t96 -46q68 -27 99.5 -61
t31.5 -81q0 -64 -57 -104t-152 -40q-38 0 -73.5 6.5t-58.5 16t-41 18.5t-26 16zM550 702l-177 -118l-131 118l28 45l111 -103l149 104z" />
    <glyph glyph-name="Tcommaaccent" unicode="&#x162;" horiz-adv-x="519" 
d="M269 0h-73q0 16 22.5 129t52.5 258t40 204h-221v59h517v-59h-222q-10 -57 -40.5 -203.5t-53 -259t-22.5 -128.5zM202 -46l42 -6q-7 -43 -36.5 -98.5t-61.5 -91.5l-36 8q73 92 92 188z" />
    <glyph glyph-name="tcommaaccent" unicode="&#x163;" horiz-adv-x="437" 
d="M485 500v-59h-210q-57 -279 -57 -319q0 -70 66 -70q31 0 65.5 9.5t53.5 18.5l19 10v-50q-9 -6 -24.5 -15t-59 -23.5t-81.5 -14.5q-56 0 -85 27t-29 76q0 54 62 351h-64v59h76q27 133 27 140l75 25q0 -7 -32 -165h198zM184 -46l42 -6q-7 -43 -36.5 -98.5t-61.5 -91.5
l-36 8q73 92 92 188z" />
    <glyph glyph-name="Tcaron" unicode="&#x164;" horiz-adv-x="519" 
d="M269 0h-73q0 16 22.5 129t52.5 258t40 204h-221v59h517v-59h-222q-10 -57 -40.5 -203.5t-53 -259t-22.5 -128.5zM562 837l-177 -118l-131 118l28 45l111 -103l149 104z" />
    <glyph glyph-name="tcaron" unicode="&#x165;" horiz-adv-x="453" 
d="M485 500v-59h-210q-57 -279 -57 -319q0 -70 66 -70q31 0 65.5 9.5t53.5 18.5l19 10v-50q-9 -6 -24.5 -15t-59 -23.5t-81.5 -14.5q-56 0 -85 27t-29 76q0 54 62 351h-64v59h76q27 133 27 140l75 25q0 -7 -32 -165h198zM574 733l-133 -172l-37 20l132 175z" />
    <glyph glyph-name="Umacron" unicode="&#x16a;" horiz-adv-x="775" 
d="M611 0h-73q0 20 31 173q-8 -14 -16 -25.5t-35 -44.5t-54 -55.5t-67 -41.5t-80 -19q-91 0 -139.5 50t-48.5 124q0 37 46 253.5t46 235.5h73q0 -21 -43.5 -228.5t-43.5 -235.5q0 -54 36 -90.5t107 -36.5q40 0 81.5 22.5t73 56.5t48.5 56.5t28 39.5q82 401 82 416h73
q0 -22 -62.5 -325.5t-62.5 -324.5zM597 809v-36h-211v36h211z" />
    <glyph glyph-name="umacron" unicode="&#x16b;" horiz-adv-x="634" 
d="M550 500h71q0 -32 -48 -257.5t-48 -242.5h-70q0 14 21 122q-6 -10 -17.5 -26t-36.5 -44t-61.5 -46.5t-74.5 -18.5q-68 0 -112 44t-44 103q0 32 33.5 186.5t33.5 179.5h71q0 -28 -32.5 -179.5t-32.5 -169.5q0 -40 31.5 -70.5t84.5 -30.5q33 0 63.5 16t53 41.5t33 41
t18.5 29.5q63 297 63 322zM533 674v-36h-211v36h211z" />
    <glyph glyph-name="Uring" unicode="&#x16e;" horiz-adv-x="775" 
d="M611 0h-73q0 20 31 173q-8 -14 -16 -25.5t-35 -44.5t-54 -55.5t-67 -41.5t-80 -19q-91 0 -139.5 50t-48.5 124q0 37 46 253.5t46 235.5h73q0 -21 -43.5 -228.5t-43.5 -235.5q0 -54 36 -90.5t107 -36.5q40 0 81.5 22.5t73 56.5t48.5 56.5t28 39.5q82 401 82 416h73
q0 -22 -62.5 -325.5t-62.5 -324.5zM606 824q0 -46 -29.5 -75t-74.5 -29q-47 0 -76 29t-29 75q0 45 30 74t75 29q44 0 74 -29t30 -74zM571 824q0 31 -20 50.5t-49 19.5q-30 0 -50 -19.5t-20 -50.5t20 -50.5t50 -19.5q29 0 49 19.5t20 50.5z" />
    <glyph glyph-name="uring" unicode="&#x16f;" horiz-adv-x="634" 
d="M550 500h71q0 -32 -48 -257.5t-48 -242.5h-70q0 14 21 122q-6 -10 -17.5 -26t-36.5 -44t-61.5 -46.5t-74.5 -18.5q-68 0 -112 44t-44 103q0 32 33.5 186.5t33.5 179.5h71q0 -28 -32.5 -179.5t-32.5 -169.5q0 -40 31.5 -70.5t84.5 -30.5q33 0 63.5 16t53 41.5t33 41
t18.5 29.5q63 297 63 322zM541 689q0 -46 -29.5 -75t-74.5 -29q-47 0 -76 29t-29 75q0 45 30 74t75 29q44 0 74 -29t30 -74zM506 689q0 31 -20 50.5t-49 19.5q-30 0 -50 -19.5t-20 -50.5t20 -50.5t50 -19.5q29 0 49 19.5t20 50.5z" />
    <glyph glyph-name="Uhungarumlaut" unicode="&#x170;" horiz-adv-x="775" 
d="M611 0h-73q0 20 31 173q-8 -14 -16 -25.5t-35 -44.5t-54 -55.5t-67 -41.5t-80 -19q-91 0 -139.5 50t-48.5 124q0 37 46 253.5t46 235.5h73q0 -21 -43.5 -228.5t-43.5 -235.5q0 -54 36 -90.5t107 -36.5q40 0 81.5 22.5t73 56.5t48.5 56.5t28 39.5q82 401 82 416h73
q0 -22 -62.5 -325.5t-62.5 -324.5zM481 863l-77 -130l-51 5l88 141zM627 863l-77 -130l-51 5l88 141z" />
    <glyph glyph-name="uhungarumlaut" unicode="&#x171;" horiz-adv-x="634" 
d="M550 500h71q0 -32 -48 -257.5t-48 -242.5h-70q0 14 21 122q-6 -10 -17.5 -26t-36.5 -44t-61.5 -46.5t-74.5 -18.5q-68 0 -112 44t-44 103q0 32 33.5 186.5t33.5 179.5h71q0 -28 -32.5 -179.5t-32.5 -169.5q0 -40 31.5 -70.5t84.5 -30.5q33 0 63.5 16t53 41.5t33 41
t18.5 29.5q63 297 63 322zM563 728l-77 -130l-51 5l88 141zM417 728l-77 -130l-51 5l88 141z" />
    <glyph glyph-name="Uogonek" unicode="&#x172;" horiz-adv-x="775" 
d="M611 0q-5 -2 -14 -6t-31 -17t-39 -27.5t-31 -37t-14 -46.5q0 -45 30.5 -61.5t84.5 -16.5v-39q-29 0 -50.5 2t-45 8t-38 16.5t-24 30t-9.5 45.5q0 80 123 149h-15q0 20 31 173q-8 -14 -16 -25.5t-35 -44.5t-54 -55.5t-67 -41.5t-80 -19q-91 0 -139.5 50t-48.5 124
q0 37 46 253.5t46 235.5h73q0 -21 -43.5 -228.5t-43.5 -235.5q0 -54 36 -90.5t107 -36.5q40 0 81.5 22.5t73 56.5t48.5 56.5t28 39.5q82 401 82 416h73q0 -22 -62.5 -325.5t-62.5 -324.5z" />
    <glyph glyph-name="uogonek" unicode="&#x173;" horiz-adv-x="634" 
d="M550 500h71q0 -32 -48 -257.5t-48 -242.5q-5 -2 -14 -6t-31 -17t-39 -27.5t-31 -37t-14 -46.5q0 -45 30.5 -61.5t84.5 -16.5v-39q-29 0 -50.5 2t-45 8t-38 16.5t-24 30t-9.5 45.5q0 80 123 149h-12q0 14 21 122q-6 -10 -17.5 -26t-36.5 -44t-61.5 -46.5t-74.5 -18.5
q-68 0 -112 44t-44 103q0 32 33.5 186.5t33.5 179.5h71q0 -28 -32.5 -179.5t-32.5 -169.5q0 -40 31.5 -70.5t84.5 -30.5q33 0 63.5 16t53 41.5t33 41t18.5 29.5q63 297 63 322z" />
    <glyph glyph-name="Ydieresis" unicode="&#x178;" horiz-adv-x="611" 
d="M276 155q0 23 -52 147t-104 236l-53 112h85q147 -317 177 -434q46 71 123 179.5t131 181.5l54 73h91q-268 -352 -360 -488q-94 -142 -94 -162h-80q0 9 30.5 65t51.5 90zM556 798q0 -23 -15 -38t-36 -15q-18 0 -26.5 10.5t-8.5 22.5q0 23 15 38.5t36 15.5q18 0 26.5 -10.5
t8.5 -23.5zM388 798q0 -23 -15 -38t-36 -15q-18 0 -26.5 10.5t-8.5 22.5q0 23 15 38.5t36 15.5q18 0 26.5 -10.5t8.5 -23.5z" />
    <glyph glyph-name="Zacute" unicode="&#x179;" 
d="M665 650v-39l-492 -552q207 -4 374 -49v-60q-112 28 -206 39t-277 11v39l494 553h-411v58h518zM529 890l31 -35l-159 -155l-23 27z" />
    <glyph glyph-name="zacute" unicode="&#x17a;" horiz-adv-x="503" 
d="M530 500v-36l-376 -410q8 1 20 1q216 0 336 -50l-10 -60q-175 55 -435 55v39l371 415q-119 -11 -277 -11v57h371zM462 755l31 -35l-159 -155l-23 27z" />
    <glyph glyph-name="Zdotaccent" unicode="&#x17b;" 
d="M665 650v-39l-492 -552q207 -4 374 -49v-60q-112 28 -206 39t-277 11v39l494 553h-411v58h518zM470 800q0 -23 -15.5 -40t-35.5 -17q-18 0 -26.5 11t-8.5 23q0 23 16 40t36 17q17 0 25.5 -11t8.5 -23z" />
    <glyph glyph-name="zdotaccent" unicode="&#x17c;" horiz-adv-x="503" 
d="M530 500v-36l-376 -410q8 1 20 1q216 0 336 -50l-10 -60q-175 55 -435 55v39l371 415q-119 -11 -277 -11v57h371zM403 665q0 -23 -15.5 -40t-35.5 -17q-18 0 -26.5 11t-8.5 23q0 23 16 40t36 17q17 0 25.5 -11t8.5 -23z" />
    <glyph glyph-name="Zcaron" unicode="&#x17d;" 
d="M665 650v-39l-492 -552q207 -4 374 -49v-60q-112 28 -206 39t-277 11v39l494 553h-411v58h518zM619 837l-177 -118l-131 118l28 45l111 -103l149 104z" />
    <glyph glyph-name="zcaron" unicode="&#x17e;" horiz-adv-x="503" 
d="M530 500v-36l-376 -410q8 1 20 1q216 0 336 -50l-10 -60q-175 55 -435 55v39l371 415q-119 -11 -277 -11v57h371zM575 702l-177 -118l-131 118l28 45l111 -103l149 104z" />
    <glyph glyph-name="longs" unicode="&#x17f;" horiz-adv-x="323" 
d="M486 733v-60q-58 25 -113 25q-52 0 -81 -28t-38 -102q-10 -73 -76.5 -424.5t-80.5 -393.5h-71q14 41 81 396.5t76 421.5q14 103 61 149t125 46q32 0 61 -7.5t42 -15.5z" />
    <glyph glyph-name="florin" unicode="&#x192;" horiz-adv-x="381" 
d="M432 500v-59h-181q-62 -360 -83 -441q-33 -124 -103 -189.5t-153 -73.5v64q61 8 111 57.5t74 141.5q15 57 84 441h-63v59h73l11 68q14 103 60.5 149t124.5 46q32 0 61.5 -7.5t43.5 -15.5l13 -7v-60q-58 25 -114 25q-52 0 -80.5 -27.5t-38.5 -102.5l-11 -68h171z" />
    <glyph glyph-name="dotlessj" unicode="&#x237;" horiz-adv-x="284" 
d="M-92 -199q63 4 115.5 55t69.5 144q12 57 54 269.5t42 230.5h71q0 -17 -48 -257t-48 -243q-21 -125 -96.5 -192t-159.5 -71v64z" />
    <glyph glyph-name="circumflex" unicode="&#x2c6;" horiz-adv-x="406" 
d="M314 764l130 -119l-25 -44l-112 104l-146 -104l-24 44z" />
    <glyph glyph-name="caron" unicode="&#x2c7;" horiz-adv-x="385" 
d="M489 702l-177 -118l-131 118l28 45l111 -103l149 104z" />
    <glyph glyph-name="breve" unicode="&#x2d8;" horiz-adv-x="404" 
d="M191 640l30 45q2 -5 11 -14.5t35 -22.5t56 -13q36 0 75.5 27.5t61.5 55.5l21 28l34 -21q-4 -6 -10.5 -15.5t-27.5 -34t-43.5 -43.5t-55.5 -34.5t-65 -15.5q-39 0 -69.5 14.5t-41.5 29.5z" />
    <glyph glyph-name="dotaccent" unicode="&#x2d9;" horiz-adv-x="415" 
d="M367 665q0 -23 -15.5 -40t-35.5 -17q-18 0 -26.5 11t-8.5 23q0 23 16 40t36 17q17 0 25.5 -11t8.5 -23z" />
    <glyph glyph-name="ring" unicode="&#x2da;" horiz-adv-x="500" 
d="M401 689q0 -46 -29.5 -75t-74.5 -29q-47 0 -76 29t-29 75q0 45 30 74t75 29q44 0 74 -29t30 -74zM366 689q0 31 -20 50.5t-49 19.5q-30 0 -50 -19.5t-20 -50.5t20 -50.5t50 -19.5q29 0 49 19.5t20 50.5z" />
    <glyph glyph-name="ogonek" unicode="&#x2db;" horiz-adv-x="267" 
d="M211 22l13 -22q-5 -2 -14 -6t-31 -17t-39 -27.5t-31 -37t-14 -46.5q0 -45 30.5 -61.5t84.5 -16.5v-39q-29 0 -50.5 2t-45 8t-38 16.5t-24 30t-9.5 45.5q0 29 17.5 57.5t42 48t49 35t42.5 22.5z" />
    <glyph glyph-name="tilde" unicode="&#x2dc;" horiz-adv-x="478" 
d="M505 706v-49q-21 -30 -78 -30q-33 0 -86 23t-83 23q-21 0 -42.5 -9.5t-32.5 -18.5l-11 -9v52q4 5 11.5 12t31 18.5t48.5 11.5q37 0 90.5 -24t80.5 -24q19 0 37 6t26 12z" />
    <glyph glyph-name="hungarumlaut" unicode="&#x2dd;" horiz-adv-x="426" 
d="M275 728l-77 -130l-51 5l88 141zM421 728l-77 -130l-51 5l88 141z" />
    <glyph glyph-name="uni0400" unicode="&#x400;" horiz-adv-x="558" 
d="M363 374l94 -1v-55q-39 1 -100 1q-83 0 -141 -40t-58 -112q0 -49 43.5 -83.5t126.5 -34.5q48 0 93 17t67 34l21 18l23 -43q-3 -4 -9 -9.5t-26.5 -21t-43.5 -27t-60 -21t-76 -9.5q-115 0 -176 49t-61 123q0 77 56 130t138 68q-74 48 -74 131q0 79 63.5 126.5t153.5 47.5
q37 0 73.5 -6t55.5 -12l18 -5v-55q-68 20 -138 20q-65 0 -111 -33t-46 -89q0 -33 12.5 -56.5t31 -33.5t31 -14t19.5 -4zM322 878l43 27l83 -163l-35 -23z" />
    <glyph glyph-name="afii10023" unicode="&#x401;" horiz-adv-x="558" 
d="M363 374l94 -1v-55q-39 1 -100 1q-83 0 -141 -40t-58 -112q0 -49 43.5 -83.5t126.5 -34.5q48 0 93 17t67 34l21 18l23 -43q-3 -4 -9 -9.5t-26.5 -21t-43.5 -27t-60 -21t-76 -9.5q-115 0 -176 49t-61 123q0 77 56 130t138 68q-74 48 -74 131q0 79 63.5 126.5t153.5 47.5
q37 0 73.5 -6t55.5 -12l18 -5v-55q-68 20 -138 20q-65 0 -111 -33t-46 -89q0 -33 12.5 -56.5t31 -33.5t31 -14t19.5 -4zM563 813q0 -23 -15 -38t-36 -15q-18 0 -26.5 10.5t-8.5 22.5q0 23 15 38.5t36 15.5q18 0 26.5 -10.5t8.5 -23.5zM395 813q0 -23 -15 -38t-36 -15
q-18 0 -26.5 10.5t-8.5 22.5q0 23 15 38.5t36 15.5q18 0 26.5 -10.5t8.5 -23.5z" />
    <glyph glyph-name="afii10051" unicode="&#x402;" horiz-adv-x="765" 
d="M607 650v-59h-222q-3 -15 -58 -289l11 11t29.5 24.5t46 31t59 24.5t69.5 11q163 0 163 -160q0 -114 -37.5 -213.5t-92.5 -161.5t-114.5 -97t-108.5 -35v64q36 0 82 30.5t89.5 83.5t73.5 139t30 183q0 102 -115 102q-45 0 -95 -23t-70.5 -39.5t-30.5 -26.5
q-47 -222 -47 -250h-73q0 16 22.5 127.5t52.5 257t41 206.5h-222v59h517z" />
    <glyph glyph-name="afii10052" unicode="&#x403;" horiz-adv-x="482" 
d="M181 0h-74q0 21 62.5 324.5t62.5 325.5h346v-60h-281q-11 -59 -41.5 -206t-52.5 -257.5t-22 -126.5zM472 890l31 -35l-159 -155l-23 27z" />
    <glyph glyph-name="afii10053" unicode="&#x404;" horiz-adv-x="645" 
d="M651 644v-63q-58 21 -164 21q-119 0 -204.5 -67.5t-108.5 -182.5l405 7v-59h-411q-1 -8 -1 -24q0 -100 61.5 -162.5t167.5 -62.5q37 0 71.5 7t58 16.5t41 19.5t25.5 17l9 7l21 -48q-3 -3 -8.5 -9t-26.5 -20t-45 -25t-65 -20t-86 -9q-141 0 -220.5 82t-79.5 200
q0 165 115 279t282 114q45 0 85.5 -4.5t58.5 -9.5z" />
    <glyph glyph-name="afii10054" unicode="&#x405;" horiz-adv-x="597" 
d="M569 465h-49q0 40 22 119q-67 23 -129 23q-88 0 -133 -33.5t-45 -89.5q0 -46 32 -75.5t78 -46.5t92.5 -36.5t78.5 -58t32 -97.5q0 -80 -66.5 -131.5t-176.5 -51.5q-50 0 -93.5 10t-70.5 23.5t-47 27.5t-28 24l-9 10l38 47q3 -3 8 -8.5t24 -19.5t41 -24.5t58 -19t76 -8.5
q74 0 121 33.5t47 87.5q0 44 -32 72.5t-77 45.5t-90.5 36t-77.5 57.5t-32 97.5q0 82 69 132.5t177 50.5q44 0 94.5 -9t78.5 -19l29 -9q-40 -104 -40 -160z" />
    <glyph glyph-name="afii10055" unicode="&#x406;" horiz-adv-x="351" 
d="M181 0h-74q0 21 62.5 324.5t62.5 325.5h74q0 -22 -62.5 -325.5t-62.5 -324.5z" />
    <glyph glyph-name="afii10056" unicode="&#x407;" horiz-adv-x="351" 
d="M181 0h-74q0 21 62.5 324.5t62.5 325.5h74q0 -22 -62.5 -325.5t-62.5 -324.5zM426 798q0 -23 -15 -38t-36 -15q-18 0 -26.5 10.5t-8.5 22.5q0 23 15 38.5t36 15.5q18 0 26.5 -10.5t8.5 -23.5zM258 798q0 -23 -15 -38t-36 -15q-18 0 -26.5 10.5t-8.5 22.5q0 23 15 38.5
t36 15.5q18 0 26.5 -10.5t8.5 -23.5z" />
    <glyph glyph-name="afii10057" unicode="&#x408;" horiz-adv-x="351" 
d="M-77 -144q69 0 123 66.5t79 182.5q26 118 65 320.5t39 224.5h74q0 -21 -38 -216t-66 -328q-32 -152 -105 -233t-171 -81v64z" />
    <glyph glyph-name="afii10058" unicode="&#x409;" horiz-adv-x="1002" 
d="M677 650q0 -18 -8 -57t-26.5 -116.5t-25.5 -107.5q82 41 182 41q78 0 130 -42t52 -113q0 -104 -76 -186t-201 -82q-60 0 -101.5 19.5t-60.5 51.5t-26 60.5t-7 60.5q0 35 15 108t39 171.5t31 130.5h-234q-33 -266 -134.5 -434.5t-228.5 -168.5v57q43 0 91.5 47t91 126
t74.5 194t42 240h381zM767 358q-71 0 -161 -36q-22 -100 -22 -141q-1 -52 31 -94.5t103 -42.5q85 0 136.5 58.5t51.5 136.5q0 55 -39 87t-100 32z" />
    <glyph glyph-name="afii10059" unicode="&#x40a;" horiz-adv-x="1073" 
d="M181 0h-74q0 21 62.5 324.5t62.5 325.5h74q0 -18 -60 -312h360q9 39 28.5 119.5t29.5 126.5t10 64l74 2q0 -19 -9 -63t-30 -131l-28 -116q91 70 188 70q79 0 130.5 -42t51.5 -113q0 -66 -31.5 -126.5t-96.5 -101t-149 -40.5q-60 0 -101 19.5t-60 51.5t-26 60.5t-7 60.5
q0 33 13 101h-359q-53 -257 -53 -280zM837 358q-81 0 -166 -64q-17 -80 -17 -113q0 -53 32 -95t102 -42q86 0 137.5 58.5t51.5 136.5q0 55 -39.5 87t-100.5 32z" />
    <glyph glyph-name="afii10060" unicode="&#x40b;" horiz-adv-x="765" 
d="M607 650v-59h-222q-3 -15 -58 -289l11 11t29.5 24.5t46 31t59 24.5t69.5 11q48 0 82 -13.5t50.5 -36t23.5 -45t7 -47.5q0 -50 -24.5 -148t-24.5 -114h-73q0 18 22 108.5t22 128.5q0 102 -115 102q-45 0 -95 -23t-70.5 -39.5t-30.5 -26.5q-47 -222 -47 -250h-73
q0 16 22.5 127.5t52.5 257t41 206.5h-222v59h517z" />
    <glyph glyph-name="afii10061" unicode="&#x40c;" horiz-adv-x="670" 
d="M181 0h-74q0 21 62.5 324.5t62.5 325.5h74q0 -20 -76 -391q372 344 406 391h91q-44 -56 -336 -312l248 -338h-94l-210 289l-120 -104q-34 -162 -34 -185zM533 905l31 -35l-159 -155l-23 27z" />
    <glyph glyph-name="uni040D" unicode="&#x40d;" horiz-adv-x="796" 
d="M652 0h-74q0 16 19.5 111.5t46 223.5t37.5 186q-154 -165 -211 -222q-79 -80 -307 -299h-36q0 21 62.5 324.5t62.5 325.5h74q0 -17 -21 -119t-48 -227.5t-35 -174.5q195 200 219 224q223 223 300 297h36q0 -22 -62.5 -325.5t-62.5 -324.5zM440 863l43 27l83 -163l-35 -23
z" />
    <glyph glyph-name="afii10062" unicode="&#x40e;" horiz-adv-x="611" 
d="M276 155q0 23 -52 147t-104 236l-53 112h85q147 -317 177 -434q46 71 123 179.5t131 181.5l54 73h91q-268 -352 -360 -488q-94 -142 -94 -162h-80q0 9 30.5 65t51.5 90zM283 775l30 45q2 -5 11 -14.5t35 -22.5t56 -13q36 0 75.5 28t61.5 56l21 27l34 -21
q-4 -6 -10.5 -15.5t-27.5 -34t-43.5 -43.5t-55.5 -34.5t-65 -15.5q-39 0 -69.5 14.5t-41.5 28.5z" />
    <glyph glyph-name="afii10145" unicode="&#x40f;" horiz-adv-x="768" 
d="M656 650h73q0 -22 -62.5 -325.5t-62.5 -324.5h-212q-33 -168 -33 -215h-63q0 47 33 215h-222q0 21 62.5 324.5t62.5 325.5h73q0 -16 -22.5 -128.5t-53 -259t-41.5 -205.5l3 2h348q11 57 41.5 205t53 259t22.5 127z" />
    <glyph glyph-name="afii10017" unicode="&#x410;" horiz-adv-x="664" 
d="M388 650h93q13 -89 63.5 -320t74.5 -330h-76q-5 18 -38 169h-329q-93 -156 -93 -169h-79q0 21 192 325.5t192 324.5zM495 220q-57 266 -72 368q-41 -79 -217 -368h289z" />
    <glyph glyph-name="afii10018" unicode="&#x411;" 
d="M607 650v-60h-314q-15 -82 -41 -204q56 13 93 13q117 0 189.5 -49.5t72.5 -127.5q0 -77 -47.5 -132t-118 -79.5t-154.5 -24.5q-41 0 -86 3.5t-69 6.5l-25 4q0 21 62 324.5t62 325.5h376zM242 337q-35 -162 -57 -282q61 -11 121 -11q93 0 160.5 42.5t67.5 127.5
q0 60 -56.5 96.5t-144.5 36.5q-36 0 -91 -10z" />
    <glyph glyph-name="afii10019" unicode="&#x412;" horiz-adv-x="621" 
d="M314 -13q-48 0 -99.5 3.5t-78.5 6.5l-28 3q0 21 62 324.5t62 325.5q86 12 156 12q111 0 162 -43t51 -111q0 -86 -112 -175q94 -41 94 -140q0 -84 -70.5 -145t-198.5 -61zM518 190q0 122 -189 122q-43 0 -97 -6q-42 -210 -50 -254q76 -8 138 -8q91 0 144.5 41t53.5 105z
M242 354q55 5 91 5q60 0 109 -11q94 77 94 145q0 112 -159 112q-32 0 -86 -6q-12 -69 -49 -245z" />
    <glyph glyph-name="afii10020" unicode="&#x413;" horiz-adv-x="482" 
d="M181 0h-74q0 21 62.5 324.5t62.5 325.5h346v-60h-281q-11 -59 -41.5 -206t-52.5 -257.5t-22 -126.5z" />
    <glyph glyph-name="afii10021" unicode="&#x414;" horiz-adv-x="729" 
d="M315 650h363q0 -16 -22.5 -128t-52.5 -258t-41 -206h98q-46 -205 -46 -273h-63q0 57 34 215h-497q-3 -19 -13 -69.5t-15.5 -82.5t-5.5 -46h-62q0 21 20 127.5t20 128.5h67q58 88 131.5 270t84.5 322zM372 589q-20 -138 -81 -287.5t-119 -243.5h316q12 64 54 267t53 264
h-223z" />
    <glyph glyph-name="afii10022" unicode="&#x415;" horiz-adv-x="558" 
d="M363 374l94 -1v-55q-39 1 -100 1q-83 0 -141 -40t-58 -112q0 -49 43.5 -83.5t126.5 -34.5q48 0 93 17t67 34l21 18l23 -43q-3 -4 -9 -9.5t-26.5 -21t-43.5 -27t-60 -21t-76 -9.5q-115 0 -176 49t-61 123q0 77 56 130t138 68q-74 48 -74 131q0 79 63.5 126.5t153.5 47.5
q37 0 73.5 -6t55.5 -12l18 -5v-55q-68 20 -138 20q-65 0 -111 -33t-46 -89q0 -33 12.5 -56.5t31 -33.5t31 -14t19.5 -4z" />
    <glyph glyph-name="afii10024" unicode="&#x416;" horiz-adv-x="932" 
d="M531 650h70q0 -25 -70 -359q333 309 371 359h87q-53 -64 -305 -288l212 -362h-92l-175 313q-84 -74 -112 -93q-41 -198 -41 -220h-70q0 18 69 357q-336 -312 -370 -357h-87q24 29 116.5 116t188.5 172l-212 362h93l173 -314q78 68 113 93q41 207 41 221z" />
    <glyph glyph-name="afii10025" unicode="&#x417;" horiz-adv-x="546" 
d="M21 70l32 45q8 -8 23.5 -19t66 -30t104.5 -19q81 0 133 44.5t52 102.5q0 49 -40 80t-105 31h-91v52h102q14 1 35.5 8t52 21.5t51.5 44.5t21 69q0 50 -42.5 76.5t-114.5 26.5q-35 0 -74 -4.5t-60 -9.5l-21 -5v55q75 23 180 23q93 0 147 -38.5t54 -108.5q0 -113 -138 -174
q54 -19 87 -58t33 -89q0 -83 -76 -145t-186 -62q-43 0 -82.5 8.5t-64.5 21t-44 24.5t-27 21z" />
    <glyph glyph-name="afii10026" unicode="&#x418;" horiz-adv-x="796" 
d="M632 0h-74q0 16 19.5 111.5t46 223.5t37.5 186q-154 -165 -211 -222q-79 -80 -307 -299h-36q0 21 62.5 324.5t62.5 325.5h74q0 -17 -21 -119t-48 -227.5t-35 -174.5q195 200 219 224q223 223 300 297h36q0 -22 -62.5 -325.5t-62.5 -324.5z" />
    <glyph glyph-name="afii10027" unicode="&#x419;" horiz-adv-x="796" 
d="M652 0h-74q0 16 19.5 111.5t46 223.5t37.5 186q-154 -165 -211 -222q-79 -80 -307 -299h-36q0 21 62.5 324.5t62.5 325.5h74q0 -17 -21 -119t-48 -227.5t-35 -174.5q195 200 219 224q223 223 300 297h36q0 -22 -62.5 -325.5t-62.5 -324.5zM417 775l30 45q2 -5 11 -14.5
t35 -22.5t56 -13q36 0 75.5 28t61.5 56l21 27l34 -21q-4 -6 -10.5 -15.5t-27.5 -34t-43.5 -43.5t-55.5 -34.5t-65 -15.5q-39 0 -69.5 14.5t-41.5 28.5z" />
    <glyph glyph-name="afii10028" unicode="&#x41a;" horiz-adv-x="670" 
d="M181 0h-74q0 21 62.5 324.5t62.5 325.5h74q0 -20 -76 -391q372 344 406 391h91q-44 -56 -336 -312l248 -338h-94l-210 289l-120 -104q-34 -162 -34 -185z" />
    <glyph glyph-name="afii10029" unicode="&#x41b;" horiz-adv-x="739" 
d="M319 650h381q0 -22 -62.5 -325.5t-62.5 -324.5h-73q0 16 22 126t52 257.5t41 205.5h-234q-33 -266 -134.5 -434.5t-228.5 -168.5v57q43 0 91.5 47t91 126t74.5 194t42 240z" />
    <glyph glyph-name="afii10030" unicode="&#x41c;" horiz-adv-x="924" 
d="M800 650h63q-9 -116 -19 -343t-10 -307h-70q0 147 27 535q-157 -246 -325 -535h-64q-17 67 -55 249.5t-57 293.5q-116 -334 -181 -543h-67q24 81 107 317t123 333h64q31 -205 111 -568q244 406 353 568z" />
    <glyph glyph-name="afii10031" unicode="&#x41d;" horiz-adv-x="793" 
d="M623 0h-74q0 23 53 280h-368q-53 -257 -53 -280h-74q0 21 62.5 324.5t62.5 325.5h74q0 -18 -60 -312h368q60 294 60 312h74q0 -22 -62.5 -325.5t-62.5 -324.5z" />
    <glyph glyph-name="afii10032" unicode="&#x41e;" horiz-adv-x="789" 
d="M758 378q0 -162 -111.5 -276.5t-260.5 -114.5q-136 0 -215.5 83.5t-79.5 200.5q0 162 112 276.5t260 114.5q136 0 215.5 -83.5t79.5 -200.5zM682 369q0 93 -62.5 161t-160.5 68q-117 0 -204 -92.5t-87 -225.5q0 -93 62.5 -161t159.5 -68q117 0 204.5 92.5t87.5 225.5z
" />
    <glyph glyph-name="afii10033" unicode="&#x41f;" horiz-adv-x="768" 
d="M180 0h-73q0 21 62 324.5t62 325.5h498q0 -22 -62.5 -325.5t-62.5 -324.5h-73q0 16 22 128t52 259.5t41 205.5l-2 -2h-348q-11 -61 -41 -206.5t-52.5 -257t-22.5 -127.5z" />
    <glyph glyph-name="afii10034" unicode="&#x420;" horiz-adv-x="597" 
d="M177 0h-70q0 21 62.5 324.5t62.5 325.5q94 12 156 12q112 0 166.5 -55t54.5 -137q0 -52 -20.5 -95.5t-52.5 -70.5t-72 -46t-76.5 -27t-69.5 -8q-56 0 -97 11q-44 -213 -44 -234zM294 596q-13 -71 -62 -304q35 -10 77 -10q36 0 73 9.5t73 29t58.5 57t22.5 87.5
q0 59 -38 97.5t-121 38.5q-36 0 -83 -5z" />
    <glyph glyph-name="afii10035" unicode="&#x421;" horiz-adv-x="681" 
d="M694 632l-1 -2q-35 -128 -35 -189h-56q0 45 22 140q-82 19 -147 19q-129 0 -219.5 -94t-90.5 -230q0 -93 61.5 -158.5t162.5 -65.5q38 0 76 10.5t65 25.5t49.5 30t33.5 26l11 10l29 -36q-4 -5 -12 -14t-34.5 -31.5t-55.5 -40t-74 -31.5t-91 -14q-139 0 -218 82t-79 200
q0 164 113.5 278.5t273.5 114.5q49 0 103 -7.5t83 -14.5z" />
    <glyph glyph-name="afii10036" unicode="&#x422;" horiz-adv-x="519" 
d="M269 0h-73q0 16 22.5 129t52.5 258t40 204h-221v59h517v-59h-222q-10 -57 -40.5 -203.5t-53 -259t-22.5 -128.5z" />
    <glyph glyph-name="afii10037" unicode="&#x423;" horiz-adv-x="611" 
d="M276 155q0 23 -52 147t-104 236l-53 112h85q147 -317 177 -434q46 71 123 179.5t131 181.5l54 73h91q-268 -352 -360 -488q-94 -142 -94 -162h-80q0 9 30.5 65t51.5 90z" />
    <glyph glyph-name="afii10038" unicode="&#x424;" horiz-adv-x="847" 
d="M496 710h66q0 -16 -13 -86q132 -6 199.5 -80.5t67.5 -181.5q0 -79 -33 -144t-89 -106t-125 -64.5t-145 -27.5q-13 -70 -13 -85h-66q0 15 13 85q-133 6 -200 80.5t-67 182.5q0 80 33 144.5t89 105.5t125 64.5t145 26.5q13 70 13 86zM368 69q15 79 54.5 263.5t51.5 245.5
q-132 -6 -223.5 -82t-91.5 -203q0 -91 52 -154.5t157 -69.5zM539 576q-16 -79 -55 -265t-51 -244q132 6 223.5 82t91.5 203q0 58 -20.5 105.5t-69 81t-119.5 37.5z" />
    <glyph glyph-name="afii10039" unicode="&#x425;" horiz-adv-x="699" 
d="M18 0q128 144 329 327l-184 323h94l145 -278q160 154 263 278h91q-102 -113 -314 -315l185 -335h-94l-149 289q-148 -144 -272 -289h-94z" />
    <glyph glyph-name="afii10040" unicode="&#x426;" horiz-adv-x="780" 
d="M656 650h73q0 -16 -22.5 -127.5t-52.5 -257t-41 -206.5h98l-1 -3q-44 -194 -44 -271h-63q0 47 33 215h-529q0 21 62.5 324.5t62.5 325.5h73q0 -16 -22.5 -128.5t-53 -259t-41.5 -205.5l3 2h348q11 57 41.5 205t53 259t22.5 127z" />
    <glyph glyph-name="afii10041" unicode="&#x427;" horiz-adv-x="676" 
d="M513 0h-74q0 23 61 318q-3 -4 -12.5 -13t-31 -25t-45.5 -29.5t-58.5 -23.5t-67.5 -10q-48 0 -82 13.5t-50.5 36t-23.5 45t-7 47.5q0 50 28 162.5t28 128.5h73q0 -19 -25.5 -123.5t-25.5 -141.5q0 -42 25.5 -72.5t90.5 -30.5q43 0 92 22t68.5 37t34.5 29q53 256 53 280h74
q0 -22 -62.5 -325.5t-62.5 -324.5z" />
    <glyph glyph-name="afii10042" unicode="&#x428;" horiz-adv-x="1039" 
d="M107 0q0 21 62 324.5t62 325.5h72q0 -16 -22.5 -128t-53 -258.5t-41.5 -205.5h279q11 60 40.5 205.5t52 258t22.5 128.5h72q0 -16 -22.5 -128.5t-52.5 -258t-41 -205.5h276q11 58 41.5 205t53 259t22.5 128h72q0 -22 -61 -318t-64 -328v-4h-769z" />
    <glyph glyph-name="afii10043" unicode="&#x429;" horiz-adv-x="1051" 
d="M107 0q0 21 62 324.5t62 325.5h72q0 -16 -22.5 -128t-53 -258.5t-41.5 -205.5h279q11 60 40.5 205.5t52 258t22.5 128.5h72q0 -16 -22.5 -128.5t-52.5 -258t-41 -205.5h276q11 58 41.5 205t53 259t22.5 128h72q0 -16 -22.5 -127.5t-53 -259.5t-41.5 -205h99
q-46 -205 -46 -273h-63q0 50 33 215h-800z" />
    <glyph glyph-name="afii10044" unicode="&#x42a;" horiz-adv-x="680" 
d="M594 650v-39q-24 -11 -75 -42t-128 -98.5t-116 -135.5q99 59 189 59q91 0 144 -39.5t53 -122.5q0 -98 -82.5 -171.5t-200.5 -73.5q-105 0 -160.5 56t-55.5 150q0 62 29.5 125.5t77 115.5t95.5 92t96 69q-30 -3 -52 -3h-318v58h504zM437 340q-84 0 -187 -57
q-14 -40 -14 -79q0 -71 38 -114t115 -43q82 0 140.5 52t58.5 122q0 119 -151 119z" />
    <glyph glyph-name="afii10045" unicode="&#x42b;" horiz-adv-x="956" 
d="M792 0h-70q0 21 62.5 324.5t62.5 325.5h70q0 -22 -62.5 -325.5t-62.5 -324.5zM323 650q0 -15 -48 -255q52 14 91 14q116 0 189 -51.5t73 -130.5q0 -114 -96.5 -177.5t-226.5 -63.5q-41 0 -85.5 3.5t-67.5 6.5l-24 4q0 21 62 324.5t62 325.5h71zM265 345
q-51 -247 -59 -290q59 -11 118 -11q58 0 109 17.5t86.5 58.5t35.5 99q0 60 -57 99t-144 39q-45 0 -89 -12z" />
    <glyph glyph-name="afii10046" unicode="&#x42c;" horiz-adv-x="629" 
d="M302 650q0 -15 -48 -255q52 14 91 14q116 0 189 -51.5t73 -130.5q0 -114 -96.5 -177.5t-226.5 -63.5q-41 0 -85.5 3.5t-68.5 6.5l-23 4q0 21 62 324.5t62 325.5h71zM244 345q-51 -247 -59 -290q59 -11 118 -11q58 0 109 17.5t86.5 58.5t35.5 99q0 60 -57 99t-144 39
q-45 0 -89 -12z" />
    <glyph glyph-name="afii10047" unicode="&#x42d;" horiz-adv-x="666" 
d="M28 79l32 49q3 -3 9 -8.5t26 -18.5t42 -23t57.5 -18.5t72.5 -8.5q98 0 179 69t105 178l-382 -4v60l390 -3q0 5 0.5 14t0.5 13q0 97 -63.5 158.5t-171.5 61.5q-40 0 -82.5 -5t-65.5 -9l-23 -5v61q79 22 179 22q131 0 217 -84.5t86 -205.5q0 -87 -32.5 -161t-86 -122
t-120 -75t-135.5 -27q-44 0 -84 9.5t-66 23t-46 27t-29 23.5z" />
    <glyph glyph-name="afii10048" unicode="&#x42e;" horiz-adv-x="1061" 
d="M181 0h-74q0 21 62.5 324.5t62.5 325.5h74q0 -18 -60 -312h141q22 140 122.5 232t231.5 92q135 0 212 -83.5t77 -200.5q0 -163 -108.5 -277t-256.5 -114q-135 0 -209 83t-74 201v9h-148q-53 -257 -53 -280zM453 280q0 -94 59 -161.5t158 -67.5q116 0 200 92t84 226
q0 95 -59.5 162t-158.5 67q-115 0 -199 -92.5t-84 -225.5z" />
    <glyph glyph-name="afii10049" unicode="&#x42f;" horiz-adv-x="663" 
d="M499 0h-70q0 26 50 267q-45 -10 -134 -10h-23q-46 -52 -123 -148t-80 -109h-76q7 20 90.5 117t137.5 148q-64 17 -101.5 60.5t-37.5 107.5q0 96 81 162.5t195 66.5q55 0 109 -3t81 -6l26 -3q0 -22 -62.5 -325.5t-62.5 -324.5zM356 311q80 0 135 11q29 141 55 274
q-88 8 -153 8q-82 0 -136.5 -49t-54.5 -119q0 -58 43 -91.5t111 -33.5z" />
    <glyph glyph-name="afii10065" unicode="&#x430;" horiz-adv-x="636" 
d="M420 514q49 0 94 -6.5t66 -13.5l20 -6q0 -32 -46 -251.5t-46 -236.5h-70q0 18 14 86h-1q-6 -7 -10.5 -13t-24 -23.5t-38 -29.5t-47 -22.5t-56.5 -10.5q-88 0 -141 59.5t-53 145.5q0 141 102 231.5t237 90.5zM308 47q35 0 71.5 19t53 34.5t28.5 30.5q56 279 62 313
q-55 17 -112 17q-102 0 -179 -73t-77 -178q0 -70 41.5 -116.5t111.5 -46.5z" />
    <glyph glyph-name="afii10066" unicode="&#x431;" horiz-adv-x="571" 
d="M611 746l27 -40q-3 -4 -9 -11t-27.5 -25.5t-46 -32t-64.5 -25t-84 -11.5q-96 0 -157.5 -70t-83.5 -184h1q1 0 11 7.5t22 16t33 19t43.5 19t52.5 14t61 5.5q84 0 128.5 -46.5t44.5 -118.5q0 -103 -79.5 -189.5t-188.5 -86.5q-110 0 -162 60t-52 181q0 109 36.5 206.5
t114 163.5t181.5 66q36 0 70 8.5t56 20.5t39 24t25 21zM360 377q-52 0 -102.5 -19.5t-69.5 -33.5t-30 -25q-4 -35 -4 -80v-2q0 -172 145 -172q79 0 134.5 63.5t55.5 142.5q0 55 -32 90.5t-97 35.5z" />
    <glyph glyph-name="afii10067" unicode="&#x432;" horiz-adv-x="549" 
d="M183 500q88 14 159 14q92 0 136.5 -32.5t44.5 -84.5q0 -84 -112 -135q46 -6 79 -37.5t33 -78.5q0 -60 -64 -109.5t-175 -49.5q-42 0 -91 3.5t-77 6.5l-29 3q0 20 48 247.5t48 252.5zM344 238q-46 0 -145 -8q-26 -127 -37 -187q68 -10 128 -10q75 0 120 37t45 81
q0 37 -29 62t-82 25zM207 269q112 8 154 8h2q11 4 23 10.5t29.5 19.5t28.5 34t11 46q0 80 -123 80q-19 0 -89 -7q-9 -58 -36 -191z" />
    <glyph glyph-name="afii10068" unicode="&#x433;" horiz-adv-x="418" 
d="M183 500h295v-59l-235 1q-4 -36 -44.5 -229.5t-40.5 -212.5h-71q0 20 48 247.5t48 252.5z" />
    <glyph glyph-name="afii10069" unicode="&#x434;" horiz-adv-x="631" 
d="M21 -167l43 45q2 -3 6.5 -8.5t20.5 -19.5t34 -24.5t47.5 -19t61.5 -8.5q57 0 99.5 21.5t66 51.5t38 72t18.5 74t5 66v3h-2q-5 -6 -10.5 -12.5t-24.5 -24t-38 -29.5t-47.5 -22.5t-56.5 -10.5q-88 0 -141.5 59.5t-53.5 145.5q0 141 102 231.5t238 90.5q49 0 93.5 -6.5
t65.5 -13.5l20 -6q0 -8 -37 -187t-39 -229q-1 -37 -8.5 -77t-28.5 -87.5t-52 -84t-84 -61.5t-121 -25q-45 0 -84 10t-62 24t-39.5 28t-22.5 24zM315 47q79 0 151 81q6 38 18 97.5t26 128t19 91.5q-58 16 -111 16q-102 0 -179 -73t-77 -178q0 -70 41.5 -116.5t111.5 -46.5z
" />
    <glyph glyph-name="afii10070" unicode="&#x435;" horiz-adv-x="554" 
d="M478 99l19 -45q-3 -3 -8 -7.5t-23 -16t-39 -20.5t-55 -16t-70 -7q-98 0 -159.5 57t-61.5 150q0 133 87 226.5t200 93.5q79 0 126 -46t47 -122q0 -26 -4.5 -49.5t-9.5 -34.5l-5 -11q-63 -7 -199 -16t-176 -10q-1 -11 -1 -33q0 -66 48 -105.5t121 -39.5q45 0 85.5 13
t59.5 26zM364 460q-69 0 -129.5 -53t-80.5 -141q239 10 320 21q9 30 9 56q0 55 -32 86t-87 31z" />
    <glyph glyph-name="afii10072" unicode="&#x436;" horiz-adv-x="766" 
d="M431 500h71q0 -29 -46 -249q107 80 260 249h82q-123 -133 -241 -228l187 -272h-84l-152 235q-25 -19 -66 -47q-36 -172 -36 -188h-71q0 18 48 248q-116 -87 -260 -248h-82q125 134 241 227l-187 273h85l150 -235q44 32 66 46q35 166 35 189z" />
    <glyph glyph-name="afii10073" unicode="&#x437;" horiz-adv-x="473" 
d="M123 445v48q66 21 145 21q88 0 133.5 -32t45.5 -85q0 -75 -94 -126q43 -14 68.5 -44.5t25.5 -69.5q0 -69 -64.5 -119.5t-172.5 -50.5q-57 0 -104 12t-66 24l-19 12l21 41q7 -4 19 -10.5t54 -17t87 -10.5q82 0 128.5 35t46.5 82q0 35 -28.5 57.5t-81.5 22.5l-87 -1v49h101
q4 1 12 3.5t23.5 10.5t28.5 18t22.5 27.5t9.5 38.5q0 81 -127 81q-29 0 -61 -4t-49 -8z" />
    <glyph glyph-name="afii10074" unicode="&#x438;" 
d="M183 500h71q0 -21 -13 -87.5t-37.5 -178t-28.5 -128.5q91 101 153 164q16 17 38 38.5t43.5 43t44 43t41.5 40t34.5 33t24.5 23.5l9 9h37q0 -32 -47.5 -257.5t-47.5 -242.5h-71q0 14 15 85.5t35 165.5t28 138q-88 -100 -150 -159l-234 -230h-41q0 20 48 247.5t48 252.5z
" />
    <glyph glyph-name="afii10075" unicode="&#x439;" 
d="M183 500h71q0 -21 -13 -87.5t-37.5 -178t-28.5 -128.5q91 101 153 164q16 17 38 38.5t43.5 43t44 43t41.5 40t34.5 33t24.5 23.5l9 9h37q0 -32 -47.5 -257.5t-47.5 -242.5h-71q0 14 15 85.5t35 165.5t28 138q-88 -100 -150 -159l-234 -230h-41q0 20 48 247.5t48 252.5z
M291 640l30 45q2 -5 11 -14.5t35 -22.5t56 -13q36 0 75.5 27.5t61.5 55.5l21 28l34 -21q-4 -6 -10.5 -15.5t-27.5 -34t-43.5 -43.5t-55.5 -34.5t-65 -15.5q-39 0 -69.5 14.5t-41.5 29.5z" />
    <glyph glyph-name="afii10076" unicode="&#x43a;" horiz-adv-x="545" 
d="M183 500h71q0 -27 -44 -239q172 121 276 239h85q-93 -102 -252 -220l190 -280h-88l-159 238l-67 -48q-37 -170 -37 -190h-71q0 20 48 247.5t48 252.5z" />
    <glyph glyph-name="afii10077" unicode="&#x43b;" horiz-adv-x="602" 
d="M15 -13v66q167 21 252 447h302q0 -32 -48 -257.5t-48 -242.5h-70q0 18 42.5 217t42.5 224h-170q-21 -94 -48.5 -170.5t-64.5 -139.5t-85.5 -100.5t-104.5 -43.5z" />
    <glyph glyph-name="afii10078" unicode="&#x43c;" horiz-adv-x="753" 
d="M617 500h66q-21 -445 -19 -500h-65q-4 76 22 417q-143 -232 -238 -417h-59l-77 420q-79 -210 -138 -420h-65q67 228 176 500h62l86 -428q97 184 249 428z" />
    <glyph glyph-name="afii10079" unicode="&#x43d;" horiz-adv-x="637" 
d="M183 500h71q0 -22 -37 -205h278q38 182 38 205h71q0 -32 -48 -257.5t-48 -242.5h-71q0 16 46 240h-278q-47 -219 -47 -240h-71q0 20 48 247.5t48 252.5z" />
    <glyph glyph-name="afii10080" unicode="&#x43e;" 
d="M621 289q0 -121 -93 -211.5t-205 -90.5q-110 0 -176 59.5t-66 166.5q0 122 91.5 211.5t203.5 89.5q111 0 178 -59t67 -166zM370 457q-81 0 -148.5 -70t-67.5 -166q0 -81 49.5 -129t127.5 -48q81 0 149 70t68 166q0 81 -49.5 129t-128.5 48z" />
    <glyph glyph-name="afii10081" unicode="&#x43f;" horiz-adv-x="627" 
d="M183 500h411q0 -32 -48 -257.5t-48 -242.5h-70q0 17 42.5 216.5t42.5 224.5h-265q-9 -49 -32 -155.5t-40.5 -189t-17.5 -96.5h-71q0 20 48 247.5t48 252.5z" />
    <glyph glyph-name="afii10082" unicode="&#x440;" horiz-adv-x="610" 
d="M174 500h70q0 -12 -12 -82h1l5 5q4 5 9.5 11.5t14.5 15.5t19.5 17.5t24.5 17t28 15t32 10.5t36 4q87 0 141.5 -64.5t54.5 -148.5q0 -139 -99 -226.5t-228 -87.5q-60 0 -122 15q-48 -229 -48 -252h-70q0 20 71.5 372.5t71.5 377.5zM224 376q-6 -34 -62 -312
q54 -24 112 -24q102 0 175.5 69.5t73.5 174.5q0 70 -43 119.5t-113 49.5q-81 0 -143 -77z" />
    <glyph glyph-name="afii10083" unicode="&#x441;" horiz-adv-x="524" 
d="M477 106l18 -42q-3 -3 -8 -8.5t-23 -18.5t-38 -23t-52.5 -18.5t-67.5 -8.5q-93 0 -159 61t-66 161q0 130 91 217.5t221 87.5q33 0 66.5 -4.5t50.5 -9.5l18 -4v-53q-67 15 -135 15q-102 0 -171 -71t-69 -172q0 -75 49.5 -121.5t124.5 -46.5q39 0 76.5 14.5t55.5 29.5z" />
    <glyph glyph-name="afii10084" unicode="&#x442;" horiz-adv-x="466" 
d="M527 500v-59h-194q-9 -52 -31.5 -158.5t-39.5 -187.5t-17 -95h-71q0 15 16.5 96t39 188t31.5 157h-187v59h453z" />
    <glyph glyph-name="afii10085" unicode="&#x443;" horiz-adv-x="565" 
d="M518 500h76q-132 -274 -272 -496q-44 -68 -138.5 -151.5t-166.5 -110.5l-38 54q67 26 142.5 85t126.5 125l-147 494h79l115 -442q111 192 223 442z" />
    <glyph glyph-name="afii10086" unicode="&#x444;" horiz-adv-x="805" 
d="M498 750h67q0 -21 -44 -248q30 12 56 12q97 0 156 -58.5t59 -149.5q0 -131 -105.5 -225t-252.5 -94h-17q-44 -225 -44 -237h-67q0 21 46 248q-28 -11 -56 -11q-96 0 -155.5 58.5t-59.5 148.5q0 131 105.5 225.5t252.5 94.5q11 0 16 -1q43 217 43 237zM361 46
q14 70 43 212.5t41 201.5q-5 1 -17 1q-111 0 -192 -75t-81 -181q0 -71 48.5 -117t127.5 -46q20 0 30 4zM542 458q-16 0 -31 -5l-83 -413h17q111 0 192 75t81 181q0 71 -48.5 116.5t-127.5 45.5z" />
    <glyph glyph-name="afii10087" unicode="&#x445;" horiz-adv-x="585" 
d="M617 500q-21 -23 -43.5 -47.5t-51 -53l-46 -46t-54 -52.5t-49.5 -48l158 -253h-80l-126 210q-138 -132 -196 -210h-88q87 103 248 246l-155 254h80l126 -215q126 133 190 215h87z" />
    <glyph glyph-name="afii10088" unicode="&#x446;" horiz-adv-x="646" 
d="M598 59q-52 -159 -52 -266h-62q0 80 35 207h-431q0 27 48 254t48 246h68q0 -14 -17.5 -97.5t-40 -189t-30.5 -154.5h277q8 47 30.5 154t39.5 189.5t17 97.5h67q0 -14 -16.5 -94.5t-39 -188.5t-31.5 -158h90z" />
    <glyph glyph-name="afii10089" unicode="&#x447;" horiz-adv-x="505" 
d="M401 500h71q0 -32 -48 -257.5t-48 -242.5h-70q0 24 44 231q-6 -5 -16.5 -12.5t-48.5 -20.5t-82 -13q-134 0 -134 111q0 25 18.5 107t18.5 97h71q0 -15 -17 -92.5t-17 -100.5q0 -32 21.5 -52.5t68.5 -20.5q76 0 125 37q43 207 43 229z" />
    <glyph glyph-name="afii10090" unicode="&#x448;" horiz-adv-x="860" 
d="M762 500h67q0 -19 -47.5 -246t-47.5 -254h-644q0 27 47.5 254t47.5 246h68q0 -14 -17.5 -97.5t-40 -189t-30.5 -154.5h221q8 49 30.5 155t39.5 189t17 97h68q0 -14 -17 -97t-39.5 -189t-30.5 -155h221q8 47 30.5 154t39.5 189.5t17 97.5z" />
    <glyph glyph-name="afii10091" unicode="&#x449;" horiz-adv-x="879" 
d="M831 59q-52 -159 -52 -266h-63q0 80 35 207h-663q0 27 48 254t48 246h68q0 -14 -17.5 -97.5t-40 -189t-30.5 -154.5h221q8 49 30.5 155t39.5 189t17 97h68q0 -15 -17 -97.5t-40 -189t-31 -154.5h221q8 47 31 154t40 189.5t17 97.5h67q0 -14 -16.5 -94.5t-39 -188.5
t-31.5 -158h90z" />
    <glyph glyph-name="afii10092" unicode="&#x44a;" horiz-adv-x="529" 
d="M392 500v-33q-6 -4 -16 -11.5t-38 -31t-53 -47.5t-53.5 -59t-46.5 -67h3q10 7 27.5 17.5t64.5 27.5t85 17q60 0 98.5 -35.5t38.5 -90.5q0 -76 -73 -138t-159 -62q-87 0 -136.5 45.5t-49.5 119.5q0 49 26 98.5t68.5 90.5t77 67.5t70.5 49.5q-112 -11 -182 -11h-87v53h335z
M157 152q0 -52 31 -83.5t88 -31.5q56 0 103.5 44.5t47.5 101.5q0 36 -26.5 61t-78.5 25q-65 0 -152 -52q-13 -36 -13 -65z" />
    <glyph glyph-name="afii10093" unicode="&#x44b;" horiz-adv-x="794" 
d="M690 500h71q0 -32 -48 -257.5t-48 -242.5h-71q0 20 48 247.5t48 252.5zM184 500h71q0 -24 -36 -195q73 42 145 42q71 0 115 -40t44 -104q0 -85 -73 -150.5t-176 -65.5q-50 0 -97 3.5t-69 6.5l-21 3q0 20 48.5 247.5t48.5 252.5zM331 295q-67 0 -122 -35
q-32 -144 -46 -214q51 -8 113 -8q72 0 122.5 47.5t50.5 108.5q0 46 -32.5 73.5t-85.5 27.5z" />
    <glyph glyph-name="afii10094" unicode="&#x44c;" horiz-adv-x="542" 
d="M184 500h71q0 -24 -36 -195q73 42 145 42q71 0 115 -40t44 -104q0 -85 -73 -150.5t-176 -65.5q-50 0 -97 3.5t-69 6.5l-21 3q0 20 48.5 247.5t48.5 252.5zM331 295q-67 0 -122 -35q-32 -144 -46 -214q51 -8 113 -8q72 0 122.5 47.5t50.5 108.5q0 46 -32.5 73.5
t-85.5 27.5z" />
    <glyph glyph-name="afii10095" unicode="&#x44d;" horiz-adv-x="523" 
d="M119 226v48h325q1 5 1 17q0 167 -178 167q-29 0 -63.5 -4t-54.5 -8l-20 -5l-1 51q70 22 142 22q116 0 178 -57t62 -160q0 -129 -83.5 -219.5t-203.5 -90.5q-51 0 -100 16.5t-73 32.5l-24 16l23 42q8 -6 22 -15.5t58.5 -25t89.5 -15.5q79 0 139.5 52.5t79.5 135.5h-319z
" />
    <glyph glyph-name="afii10096" unicode="&#x44e;" horiz-adv-x="824" 
d="M183 500h71q0 -26 -38 -207q58 2 106 2q26 95 99 157t161 62q107 0 168 -58.5t61 -166.5q0 -122 -85.5 -212t-193.5 -90q-105 0 -162.5 58.5t-57.5 167.5q0 15 1 23h-109q-46 -222 -46 -236h-71q0 20 48 247.5t48 252.5zM577 457q-77 0 -138 -70t-61 -168
q0 -82 42.5 -128.5t118.5 -46.5q77 0 138 70t61 168q0 82 -43 128.5t-118 46.5z" />
    <glyph glyph-name="afii10097" unicode="&#x44f;" horiz-adv-x="569" 
d="M533 488q0 -32 -45.5 -251.5t-45.5 -236.5h-71q0 24 39 210q-63 -9 -123 -9h-10q-103 -119 -152 -201h-74q68 105 170 208q-53 14 -81 48.5t-28 82.5q0 74 68 124.5t168 50.5q46 0 92 -6.5t70 -13.5zM298 241q62 0 120 9q32 156 39 201q-58 13 -111 13q-72 0 -119 -36
t-47 -89q0 -42 33 -70t85 -28z" />
    <glyph glyph-name="uni0450" unicode="&#x450;" horiz-adv-x="554" 
d="M478 99l19 -45q-3 -3 -8 -7.5t-23 -16t-39 -20.5t-55 -16t-70 -7q-98 0 -159.5 57t-61.5 150q0 133 87 226.5t200 93.5q79 0 126 -46t47 -122q0 -26 -4.5 -49.5t-9.5 -34.5l-5 -11q-63 -7 -199 -16t-176 -10q-1 -11 -1 -33q0 -66 48 -105.5t121 -39.5q45 0 85.5 13
t59.5 26zM364 460q-69 0 -129.5 -53t-80.5 -141q239 10 320 21q9 30 9 56q0 55 -32 86t-87 31zM310 728l43 27l83 -163l-35 -23z" />
    <glyph glyph-name="afii10071" unicode="&#x451;" horiz-adv-x="554" 
d="M478 99l19 -45q-3 -3 -8 -7.5t-23 -16t-39 -20.5t-55 -16t-70 -7q-98 0 -159.5 57t-61.5 150q0 133 87 226.5t200 93.5q79 0 126 -46t47 -122q0 -26 -4.5 -49.5t-9.5 -34.5l-5 -11q-63 -7 -199 -16t-176 -10q-1 -11 -1 -33q0 -66 48 -105.5t121 -39.5q45 0 85.5 13
t59.5 26zM364 460q-69 0 -129.5 -53t-80.5 -141q239 10 320 21q9 30 9 56q0 55 -32 86t-87 31zM530 663q0 -23 -15 -38t-36 -15q-18 0 -26.5 10.5t-8.5 22.5q0 23 15 38.5t36 15.5q18 0 26.5 -10.5t8.5 -23.5zM362 663q0 -23 -15 -38t-36 -15q-18 0 -26.5 10.5t-8.5 22.5
q0 23 15 38.5t36 15.5q18 0 26.5 -10.5t8.5 -23.5z" />
    <glyph glyph-name="afii10099" unicode="&#x452;" horiz-adv-x="624" 
d="M230 750h71q0 -10 -16 -102h191l-1 -52h-200q-15 -83 -56 -278q5 8 11.5 17.5t26.5 32.5t40.5 39.5t51.5 30t62 13.5q68 0 110 -39t42 -98q0 -52 -19.5 -155.5t-31.5 -144.5q-41 -136 -108.5 -204.5t-139.5 -72.5v64q49 4 96.5 56.5t81.5 157.5q11 34 31 133.5t20 140.5
q0 45 -31.5 72t-81.5 27q-33 0 -64 -16t-53.5 -40t-34.5 -40.5t-20 -29.5q-50 -239 -50 -262h-71q0 13 19 110t50.5 254t46.5 232h-71v52h81q17 90 17 102z" />
    <glyph glyph-name="afii10100" unicode="&#x453;" horiz-adv-x="418" 
d="M183 500h295v-59l-235 1q-4 -36 -44.5 -229.5t-40.5 -212.5h-71q0 20 48 247.5t48 252.5zM400 755l31 -35l-159 -155l-23 27z" />
    <glyph glyph-name="afii10101" unicode="&#x454;" horiz-adv-x="556" 
d="M465 277v-49h-319v-20q0 -79 50 -122.5t127 -43.5q39 0 77.5 10.5t57.5 21.5l18 11l8 -44q-6 -6 -19 -15t-59.5 -24t-101.5 -15q-94 0 -158.5 58t-64.5 157q0 128 92 220t220 92q33 0 68 -3.5t53 -6.5l19 -4v-50q-73 12 -145 12q-86 0 -149.5 -51.5t-84.5 -133.5h311z
" />
    <glyph glyph-name="afii10102" unicode="&#x455;" horiz-adv-x="478" 
d="M46 50l31 45q8 -6 22 -15.5t59.5 -25t92.5 -15.5q65 0 102 25.5t37 62.5q0 65 -120 109q-75 30 -106.5 59.5t-31.5 77.5q0 64 64.5 102.5t155.5 38.5q33 0 69 -5t55 -11l19 -5v-51q-71 19 -141 19q-63 0 -106.5 -23t-43.5 -62q0 -34 31 -57t96 -46q68 -27 99.5 -61
t31.5 -81q0 -64 -57 -104t-152 -40q-38 0 -73.5 6.5t-58.5 16t-41 18.5t-26 16z" />
    <glyph glyph-name="afii10103" unicode="&#x456;" horiz-adv-x="287" 
d="M183 500h71q0 -32 -48 -257.5t-48 -242.5h-71q0 20 48 247.5t48 252.5zM292 665q0 -23 -15.5 -40t-35.5 -17q-18 0 -26.5 11t-8.5 23q0 23 16 40t36 17q17 0 25.5 -11t8.5 -23z" />
    <glyph glyph-name="afii10104" unicode="&#x457;" horiz-adv-x="287" 
d="M183 500h71q0 -32 -48 -257.5t-48 -242.5h-71q0 20 48 247.5t48 252.5zM370 663q0 -23 -15 -38t-36 -15q-18 0 -26.5 10.5t-8.5 22.5q0 23 15 38.5t36 15.5q18 0 26.5 -10.5t8.5 -23.5zM202 663q0 -23 -15 -38t-36 -15q-18 0 -26.5 10.5t-8.5 22.5q0 23 15 38.5t36 15.5
q18 0 26.5 -10.5t8.5 -23.5z" />
    <glyph glyph-name="afii10105" unicode="&#x458;" horiz-adv-x="284" 
d="M-92 -199q63 4 115.5 55t69.5 144q12 57 54 269.5t42 230.5h71q0 -17 -48 -257t-48 -243q-21 -125 -96.5 -192t-159.5 -71v64zM296 665q0 -23 -15.5 -40t-35.5 -17q-18 0 -26.5 11t-8.5 23q0 23 16 40t36 17q17 0 25.5 -11t8.5 -23z" />
    <glyph glyph-name="afii10106" unicode="&#x459;" horiz-adv-x="864" 
d="M15 -13v66q167 21 252 447h302q0 -25 -40 -203q9 7 23.5 16.5t54.5 23t81 13.5q66 0 107 -41t41 -100q0 -86 -68.5 -154t-168.5 -68q-87 0 -127 46.5t-40 104.5q0 31 28 155.5t28 147.5h-170q-21 -94 -48.5 -170.5t-64.5 -139.5t-85.5 -100.5t-104.5 -43.5zM656 301
q-75 0 -136 -43q-16 -78 -16 -100q0 -18 4 -35t14 -36.5t32.5 -31t54.5 -11.5q64 0 110.5 48.5t46.5 109.5q0 41 -30 70t-80 29z" />
    <glyph glyph-name="afii10107" unicode="&#x45a;" horiz-adv-x="901" 
d="M533 500h71q0 -26 -39 -202q10 8 26 17.5t54.5 22t78.5 12.5q66 0 107.5 -41t41.5 -100q0 -86 -68.5 -154t-168.5 -68q-86 0 -126.5 46.5t-40.5 98.5q0 31 14 108h-278q-47 -219 -47 -240h-71q0 20 48 247.5t48 252.5h71q0 -22 -37 -205h277q39 189 39 205zM693 301
q-71 0 -136 -42q-16 -80 -16 -108q0 -15 4 -30.5t14 -34.5t32.5 -30.5t54.5 -11.5q64 0 110.5 48.5t46.5 109.5q0 41 -30 70t-80 29z" />
    <glyph glyph-name="afii10108" unicode="&#x45b;" horiz-adv-x="624" 
d="M230 750h71q0 -10 -16 -102h191l-1 -52h-200q-15 -83 -56 -278q5 8 11.5 17.5t26.5 32.5t40.5 39.5t51.5 30t62 13.5q68 0 110 -39t42 -98q0 -45 -27.5 -173.5t-27.5 -140.5h-70q0 13 26 135t26 160q0 41 -30.5 67t-79.5 26q-33 0 -64 -16t-53.5 -40t-34.5 -40.5
t-20 -29.5q-50 -239 -50 -262h-71q0 13 19 110t50.5 254t46.5 232h-71v52h81q17 90 17 102z" />
    <glyph glyph-name="afii10109" unicode="&#x45c;" horiz-adv-x="545" 
d="M183 500h71q0 -27 -44 -239q172 121 276 239h85q-93 -102 -252 -220l190 -280h-88l-159 238l-67 -48q-37 -170 -37 -190h-71q0 20 48 247.5t48 252.5zM463 755l31 -35l-159 -155l-23 27z" />
    <glyph glyph-name="uni045D" unicode="&#x45d;" 
d="M183 500h71q0 -21 -13 -87.5t-37.5 -178t-28.5 -128.5q91 101 153 164q16 17 38 38.5t43.5 43t44 43t41.5 40t34.5 33t24.5 23.5l9 9h37q0 -32 -47.5 -257.5t-47.5 -242.5h-71q0 14 15 85.5t35 165.5t28 138q-88 -100 -150 -159l-234 -230h-41q0 20 48 247.5t48 252.5z
M307 728l43 27l83 -163l-35 -23z" />
    <glyph glyph-name="afii10110" unicode="&#x45e;" horiz-adv-x="565" 
d="M518 500h76q-132 -274 -272 -496q-44 -68 -138.5 -151.5t-166.5 -110.5l-38 54q67 26 142.5 85t126.5 125l-147 494h79l115 -442q111 192 223 442zM269 640l30 45q2 -5 11 -14.5t35 -22.5t56 -13q36 0 75.5 27.5t61.5 55.5l21 28l34 -21q-4 -6 -10.5 -15.5t-27.5 -34
t-43.5 -43.5t-55.5 -34.5t-65 -15.5q-39 0 -69.5 14.5t-41.5 29.5z" />
    <glyph glyph-name="afii10193" unicode="&#x45f;" horiz-adv-x="627" 
d="M529 500h68q0 -19 -48 -246t-48 -254h-167q-34 -127 -34 -207h-62q0 80 35 207h-183q0 27 47.5 254t47.5 246h68q0 -14 -17.5 -97.5t-40 -189t-30.5 -154.5h277q8 47 30.5 154t39.5 189.5t17 97.5z" />
    <glyph glyph-name="afii10146" unicode="&#x462;" horiz-adv-x="634" 
d="M619 650v-59h-312q-6 -23 -17 -68.5t-20.5 -84t-17.5 -70.5q84 42 180 42q79 0 130.5 -42t51.5 -113q0 -66 -31.5 -126.5t-96.5 -101t-149 -40.5q-60 0 -101 19.5t-60 51.5t-26 60.5t-7 60.5q0 58 89 412h-130v59h145q21 88 21 100h74q0 -18 -21 -100h298zM400 358
q-69 0 -159 -36q-24 -106 -24 -141q0 -53 32 -95t102 -42q86 0 137.5 58.5t51.5 136.5q0 55 -39.5 87t-100.5 32z" />
    <glyph glyph-name="afii10194" unicode="&#x463;" horiz-adv-x="890" 
d="M183 500h71q0 -21 -19 -118q5 9 17.5 26.5t37 43.5t60.5 44t74 18q67 0 109 -44t42 -103q0 -23 -9 -68q68 51 156 51q66 0 107 -41t41 -100q0 -86 -68.5 -154t-168.5 -68q-45 0 -79.5 15t-52.5 38t-26.5 46.5t-8.5 45.5q0 26 18 111.5t18 107.5q0 41 -30.5 70t-79.5 29
q-31 0 -61 -14.5t-52 -37.5t-34 -39t-21 -31q-8 -40 -28 -132t-29 -138.5t-9 -57.5h-71q0 20 48 247.5t48 252.5zM690 301q-70 0 -132 -40q-20 -88 -20 -113q0 -14 4 -29t14 -33.5t32.5 -30t54.5 -11.5q64 0 110.5 48.5t46.5 109.5q0 41 -30 70t-80 29z" />
    <glyph glyph-name="afii10050" unicode="&#x490;" horiz-adv-x="482" 
d="M537 822h55q-39 -127 -39 -232h-256q-11 -59 -41.5 -206t-52.5 -257.5t-22 -126.5h-74q0 21 62.5 324.5t62.5 325.5h268q4 39 13.5 82t16.5 66z" />
    <glyph glyph-name="afii10098" unicode="&#x491;" horiz-adv-x="426" 
d="M-92 -199q64 8 115.5 57.5t69.5 141.5q1 5 26 129.5t47.5 241.5t22.5 129h234q1 22 8 59t14 63l7 26h55q-36 -124 -36 -207h-220q-10 -54 -31.5 -161.5t-38 -189t-17.5 -90.5q-23 -124 -96 -189t-160 -74v64z" />
    <glyph glyph-name="endash" unicode="&#x2013;" horiz-adv-x="554" 
d="M74 249v58h457v-58h-457z" />
    <glyph glyph-name="emdash" unicode="&#x2014;" horiz-adv-x="736" 
d="M74 249v58h639v-58h-639z" />
    <glyph glyph-name="quoteleft" unicode="&#x2018;" horiz-adv-x="308" 
d="M287 763l33 -23q-104 -120 -104 -202v-39q-11 -8 -31 -8q-15 0 -25 8.5t-10 22.5q0 52 40.5 119t96.5 122z" />
    <glyph glyph-name="quoteright" unicode="&#x2019;" horiz-adv-x="308" 
d="M146 491l-32 22q103 121 103 203v38q11 9 31 9q16 0 26 -8.5t10 -23.5q0 -52 -41 -119t-97 -121z" />
    <glyph glyph-name="quotesinglbase" unicode="&#x201a;" horiz-adv-x="308" 
d="M84 -86l-32 22q103 121 103 203v39q11 8 31 8q16 0 26 -8t10 -23q0 -52 -40.5 -119t-97.5 -122z" />
    <glyph glyph-name="quotedblleft" unicode="&#x201c;" horiz-adv-x="473" 
d="M307 763l33 -23q-104 -120 -104 -202v-39q-11 -8 -31 -8q-15 0 -25 8.5t-10 22.5q0 52 40.5 119t96.5 122zM472 763l33 -23q-104 -120 -104 -202v-39q-11 -8 -31 -8q-15 0 -25 8.5t-10 22.5q0 52 40.5 119t96.5 122z" />
    <glyph glyph-name="quotedblright" unicode="&#x201d;" horiz-adv-x="473" 
d="M166 491l-32 22q103 121 103 203v38q11 9 31 9q16 0 26 -8.5t10 -23.5q0 -52 -41 -119t-97 -121zM331 491l-32 22q103 121 103 203v38q11 9 31 9q16 0 26 -8.5t10 -23.5q0 -52 -41 -119t-97 -121z" />
    <glyph glyph-name="quotedblbase" unicode="&#x201e;" horiz-adv-x="473" 
d="M104 -86l-32 22q103 121 103 203v39q11 8 31 8q16 0 26 -8t10 -23q0 -52 -40.5 -119t-97.5 -122zM269 -86l-32 22q103 121 103 203v39q11 8 31 8q16 0 26 -8t10 -23q0 -52 -40.5 -119t-97.5 -122z" />
    <glyph glyph-name="dagger" unicode="&#x2020;" horiz-adv-x="536" 
d="M491 427v-57h-165l-8 -620h-59l-7 620h-168v57h174v223h61v-223h172z" />
    <glyph glyph-name="daggerdbl" unicode="&#x2021;" horiz-adv-x="536" 
d="M491 -21v-58h-173v-171h-62v171h-172v58h173l9 221l-8 221h-174v58h174v171h61v-171h172v-58h-172l-10 -221l9 -221h173z" />
    <glyph glyph-name="bullet" unicode="&#x2022;" horiz-adv-x="347" 
d="M198 362q0 42 28 69.5t63 27.5q34 0 54.5 -20t20.5 -49q0 -42 -28 -69.5t-63 -27.5q-33 0 -54 20t-21 49z" />
    <glyph glyph-name="ellipsis" unicode="&#x2026;" horiz-adv-x="810" 
d="M123 44q0 23 15.5 38t34.5 15q18 0 29.5 -11t11.5 -27q0 -23 -15.5 -38t-34.5 -15q-18 0 -29.5 11t-11.5 27zM383 44q0 23 15.5 38t34.5 15q18 0 29.5 -11t11.5 -27q0 -23 -15.5 -38t-34.5 -15q-18 0 -29.5 11t-11.5 27zM643 44q0 23 15.5 38t34.5 15q18 0 29.5 -11
t11.5 -27q0 -23 -15.5 -38t-34.5 -15q-18 0 -29.5 11t-11.5 27z" />
    <glyph glyph-name="perthousand" unicode="&#x2030;" horiz-adv-x="1452" 
d="M816 650l-533 -650h-72l534 650h71zM480 574q0 -83 -54 -135.5t-137 -52.5t-136 52.5t-53 135.5t53.5 136t135.5 53q81 0 136 -53t55 -136zM419 574q0 58 -37.5 94.5t-92.5 36.5q-54 0 -91 -36.5t-37 -94.5t36.5 -94t91.5 -36q56 0 93 36t37 94zM926 82
q0 -83 -54.5 -135.5t-136.5 -52.5q-84 0 -137 52.5t-53 135.5t54 136t136 53q81 0 136 -53.5t55 -135.5zM865 82q0 58 -37.5 94.5t-92.5 36.5q-54 0 -91.5 -36.5t-37.5 -94.5t37 -94t92 -36t92.5 36.5t37.5 93.5zM1393 175q0 -83 -54 -135.5t-137 -52.5q-84 0 -137 52
t-53 136q0 83 54 136t136 53q81 0 136 -53.5t55 -135.5zM1332 175q0 58 -37.5 94.5t-92.5 36.5q-54 0 -91.5 -36.5t-37.5 -94.5t37 -94t92 -36t92.5 36.5t37.5 93.5z" />
    <glyph glyph-name="guilsinglleft" unicode="&#x2039;" horiz-adv-x="387" 
d="M345 383l-162 -134l109 -137l-37 -33l-136 171l202 172z" />
    <glyph glyph-name="guilsinglright" unicode="&#x203a;" horiz-adv-x="387" 
d="M335 244l-202 -168l-26 36l163 133l-110 137l39 37z" />
    <glyph glyph-name="fraction" unicode="&#x2044;" horiz-adv-x="441" 
d="M535 610l-437 -613l-38 29l436 613z" />
    <glyph glyph-name="zerosuperior" unicode="&#x2070;" horiz-adv-x="519" 
d="M488 487q0 -113 -71.5 -197.5t-162.5 -84.5q-163 0 -163 189q0 112 71.5 198t162.5 86q163 0 163 -191zM432 485q0 78 -29 111.5t-84 33.5q-69 0 -120.5 -72.5t-51.5 -162.5q0 -78 28.5 -110t84.5 -32q68 0 120 71t52 161z" />
    <glyph glyph-name="foursuperior" unicode="&#x2074;" horiz-adv-x="437" 
d="M403 372v-42h-77q-19 -93 -19 -116h-52q0 23 19 116h-221v37q51 60 125.5 135.5t123.5 121.5l49 45h43q0 -11 -3.5 -33t-10.5 -55t-13.5 -63t-16 -75t-15.5 -71h68zM284 372q46 204 51 237q-142 -139 -231 -237h180z" />
    <glyph glyph-name="fivesuperior" unicode="&#x2075;" horiz-adv-x="410" 
d="M35 250l22 37q4 -4 13 -10.5t41.5 -17t70.5 -10.5q65 0 99 30.5t34 79.5q0 45 -53.5 76t-139.5 31q15 65 28.5 115.5t19.5 68.5l5 19h223v-45h-189q-24 -88 -32 -123q87 -1 139.5 -43t52.5 -96q0 -69 -49.5 -113.5t-138.5 -44.5q-47 0 -83.5 11.5t-49.5 22.5z" />
    <glyph glyph-name="sixsuperior" unicode="&#x2076;" horiz-adv-x="461" 
d="M440 677v-41q-84 -6 -162 -58.5t-110 -129.5q64 45 133 45q62 0 98 -29.5t36 -85.5q0 -69 -50.5 -121.5t-134.5 -52.5q-76 0 -117.5 41.5t-41.5 109.5q0 126 107.5 220.5t241.5 101.5zM150 361q0 -50 26.5 -80.5t75.5 -30.5q59 0 91 35.5t32 85.5q0 39 -26.5 62t-72.5 23
q-57 0 -118 -38q-8 -29 -8 -57z" />
    <glyph glyph-name="sevensuperior" unicode="&#x2077;" horiz-adv-x="322" 
d="M389 669v-31q0 -8 -42 -78.5t-109 -172t-124 -177.5l-56 11q77 101 157 219.5t115 181.5h-255v47h314z" />
    <glyph glyph-name="eightsuperior" unicode="&#x2078;" horiz-adv-x="481" 
d="M430 351q0 -59 -52 -103t-132 -44q-76 0 -115.5 31.5t-39.5 82.5q0 90 127 132q-65 35 -65 99q0 55 48.5 91.5t116.5 36.5q58 0 95.5 -24.5t37.5 -68.5q0 -84 -111 -134q90 -29 90 -99zM142 330q0 -37 26 -59.5t80 -22.5t89 29t35 70q0 57 -86 83l-4 -1l-1 2q-2 1 -4 1
q-17 -3 -35 -8t-43 -16.5t-41 -31.5t-16 -46zM406 571q0 32 -25 49.5t-66 17.5q-44 0 -76.5 -24t-32.5 -62q0 -61 76 -88q26 6 49 15t49 34t26 58z" />
    <glyph glyph-name="ninesuperior" unicode="&#x2079;" horiz-adv-x="451" 
d="M78 204v42q77 5 150 51.5t111 116.5q-60 -29 -122 -29q-59 0 -96 31.5t-37 87.5q0 68 52.5 120.5t136.5 52.5q76 0 115 -39.5t39 -107.5q0 -83 -51 -157.5t-131.5 -119t-166.5 -49.5zM369 528q0 50 -24 78t-73 28q-60 0 -94.5 -37t-34.5 -86q0 -39 26.5 -64t72.5 -25
q57 0 112 23q15 39 15 83z" />
    <glyph glyph-name="zerosub" unicode="&#x2080;" horiz-adv-x="519" 
d="M498 67q0 -113 -71.5 -197.5t-162.5 -84.5q-163 0 -163 189q0 112 71.5 198t162.5 86q163 0 163 -191zM442 65q0 78 -29 111.5t-84 33.5q-69 0 -120.5 -72.5t-51.5 -162.5q0 -78 28.5 -110t84.5 -32q68 0 120 71t52 161z" />
    <glyph glyph-name="onesub" unicode="&#x2081;" horiz-adv-x="334" 
d="M251 249h53q0 -39 -43 -231t-43 -224h-54q0 24 15.5 96.5t36 165.5t28.5 138q-100 -82 -166 -131l-17 34q35 26 82.5 64t77.5 63z" />
    <glyph glyph-name="twosub" unicode="&#x2082;" horiz-adv-x="433" 
d="M378 -160v-46h-315v46q12 8 32 21t72 51t91 72t71.5 75.5t32.5 69.5q0 40 -30 61t-84 21q-28 0 -53 -3.5t-37 -7.5l-11 -3v42q45 18 117 18q75 0 115 -32t40 -86q0 -37 -28.5 -81t-76 -86t-89.5 -72.5t-87 -59.5h240z" />
    <glyph glyph-name="threesub" unicode="&#x2083;" horiz-adv-x="368" 
d="M32 -161l23 36q4 -5 12.5 -12.5t40 -20.5t69.5 -13q58 0 96 32.5t38 73.5q0 84 -116 84l-10 30q75 74 148 155h-205v45h267v-31q-78 -87 -164 -167q67 -4 101 -34t34 -82q0 -60 -54 -105.5t-135 -45.5q-46 0 -82.5 14t-49.5 28z" />
    <glyph glyph-name="foursub" unicode="&#x2084;" horiz-adv-x="437" 
d="M413 -48v-42h-77q-19 -93 -19 -116h-52q0 24 19 116h-221v37q51 60 125.5 135.5t123.5 121.5l49 45h43q0 -11 -3.5 -33t-10.5 -55t-13.5 -63t-16 -75t-15.5 -71h68zM294 -48q46 204 51 237q-142 -139 -231 -237h180z" />
    <glyph glyph-name="fivesub" unicode="&#x2085;" horiz-adv-x="410" 
d="M45 -170l22 37q4 -4 13 -10.5t41.5 -17t70.5 -10.5q65 0 99 30.5t34 79.5q0 45 -53.5 76t-139.5 31q15 65 28.5 115.5t19.5 68.5l5 19h223v-45h-189q-24 -88 -32 -123q87 -1 139.5 -43t52.5 -96q0 -69 -49.5 -113.5t-138.5 -44.5q-47 0 -83.5 11.5t-49.5 22.5z" />
    <glyph glyph-name="sixsub" unicode="&#x2086;" horiz-adv-x="461" 
d="M450 257v-41q-84 -6 -162 -58.5t-110 -129.5q64 45 133 45q62 0 98 -29.5t36 -85.5q0 -69 -50.5 -121.5t-134.5 -52.5q-76 0 -117.5 41.5t-41.5 109.5q0 126 107.5 220.5t241.5 101.5zM160 -59q0 -50 26.5 -80.5t75.5 -30.5q59 0 91 35.5t32 85.5q0 39 -26.5 62t-72.5 23
q-55 0 -118 -37q-8 -30 -8 -58z" />
    <glyph glyph-name="sevensub" unicode="&#x2087;" horiz-adv-x="322" 
d="M399 249v-31q0 -8 -42 -78.5t-109 -172t-124 -177.5l-56 11q188 250 272 401h-255v47h314z" />
    <glyph glyph-name="eightsub" unicode="&#x2088;" horiz-adv-x="481" 
d="M440 -69q0 -59 -52 -103t-132 -44q-76 0 -115.5 31.5t-39.5 82.5q0 90 127 132q-65 35 -65 99q0 55 48.5 91.5t116.5 36.5q58 0 95.5 -24.5t37.5 -68.5q0 -84 -111 -134q90 -29 90 -99zM152 -90q0 -37 26 -59.5t80 -22.5t89 29t35 70q0 59 -86 83l-4 -1l-1 2q-2 1 -4 1
q-17 -3 -35 -8t-43 -16t-41 -31.5t-16 -46.5zM416 151q0 32 -25 49.5t-66 17.5q-44 0 -76.5 -24t-32.5 -62q0 -61 76 -88q26 6 49 15t49 34t26 58z" />
    <glyph glyph-name="ninesub" unicode="&#x2089;" horiz-adv-x="451" 
d="M88 -216v42q77 6 150 52.5t111 116.5q-58 -30 -122 -30q-59 0 -96 31.5t-37 87.5q0 68 52.5 120.5t136.5 52.5q76 0 115 -39.5t39 -107.5q0 -83 -51 -157.5t-131.5 -119t-166.5 -49.5zM379 108q0 50 -24 78t-73 28q-60 0 -94.5 -37t-34.5 -86q0 -39 26.5 -64t72.5 -25
q57 0 112 23q15 39 15 83z" />
    <glyph glyph-name="Euro" unicode="&#x20ac;" horiz-adv-x="694" 
d="M69 375v41h130q47 113 144 179.5t206 66.5q49 0 90.5 -6t58.5 -12l16 -7v-54q-63 22 -170 22q-85 0 -159 -50t-113 -139h248v-41h-263q-16 -50 -19 -100h282v-40h-283q1 -89 51.5 -140t144.5 -51q52 0 104.5 20.5t78.5 41.5l27 20l8 -38l-11 -11t-31 -24.5t-49.5 -30.5
t-66 -24t-81.5 -11q-119 0 -183 68.5t-64 179.5h-96v40h97q5 56 19 100h-116z" />
    <glyph glyph-name="uni20B4" unicode="&#x20b4;" horiz-adv-x="531" 
d="M69 375v41h293q73 77 73 120q0 70 -110 70q-32 0 -68 -5t-56 -11l-20 -5v48q84 29 175 29q79 0 116 -29t37 -75q0 -54 -79 -142h90v-41h-129q-54 -53 -112 -100h241v-40h-288q-59 -59 -59 -116q0 -73 105 -73q40 0 82.5 12.5t65.5 25.5l22 12l6 -43q-9 -7 -25 -18
t-67.5 -29.5t-103.5 -18.5q-88 0 -123.5 28t-35.5 82q0 70 64 138h-94v40h138q82 68 115 100h-253z" />
    <glyph glyph-name="afii61352" unicode="&#x2116;" horiz-adv-x="1166" 
d="M598 0h-63l-257 511q-11 -60 -38 -195.5t-43 -218.5t-16 -97h-74q0 21 60 312.5t64 329.5l1 8h63l4 -9h1v-1l252 -501l38 190t45 228.5t15 92.5h73q0 -22 -62.5 -325.5t-62.5 -324.5zM1147 413q0 -86 -63.5 -146.5t-142.5 -60.5q-78 0 -128.5 44.5t-50.5 122.5
q0 81 63.5 142t141.5 61q77 0 128.5 -45t51.5 -118zM1089 404q0 54 -35.5 87t-89.5 33q-55 0 -100 -43t-45 -100q0 -56 37 -89t90 -33q54 0 98.5 42.5t44.5 102.5zM766 9v58h271v-58h-271z" />
    <glyph glyph-name="trademark" unicode="&#x2122;" horiz-adv-x="915" 
d="M834 750l41 -350h-44l-34 273q-65 -158 -122 -273h-39q-88 257 -103 293l-46 -293h-45q41 216 64 350h48q10 0 104 -296q28 57 60.5 131t51.5 119l18 46h46zM431 750v-43h-158v-307h-46v307h-136v43h340z" />
    <glyph glyph-name="onethird" unicode="&#x2153;" horiz-adv-x="773" 
d="M261 669h53q0 -39 -43 -231t-43 -224h-54q0 24 15.5 96.5t36 165.5t28.5 138q-100 -82 -166 -131l-17 34q35 26 82.5 64t77.5 63zM718 610l-437 -613l-38 29l436 613zM457 -161l23 36q4 -5 12.5 -12.5t40 -20.5t69.5 -13q58 0 96 32.5t38 73.5q0 84 -116 84l-10 30
q75 74 148 155h-205v45h267v-31q-78 -87 -164 -167q67 -4 101 -34t34 -82q0 -60 -54 -105.5t-135 -45.5q-46 0 -82.5 14t-49.5 28z" />
    <glyph glyph-name="twothirds" unicode="&#x2154;" horiz-adv-x="851" 
d="M388 260v-46h-315v46q12 8 32 21t72 51t91 72t71.5 75.5t32.5 69.5q0 40 -30 61t-84 21q-28 0 -53 -3.5t-37 -7.5l-11 -3v42q45 18 117 18q75 0 115 -32t40 -86q0 -37 -28.5 -81.5t-76 -86t-89.5 -72.5t-87 -59h240zM797 610l-437 -613l-38 29l436 613zM535 -161l23 36
q4 -5 12.5 -12.5t40 -20.5t69.5 -13q58 0 96 32.5t38 73.5q0 84 -116 84l-10 30q75 74 148 155h-205v45h267v-31q-78 -87 -164 -167q67 -4 101 -34t34 -82q0 -60 -54 -105.5t-135 -45.5q-46 0 -82.5 14t-49.5 28z" />
    <glyph glyph-name="oneeighth" unicode="&#x215b;" horiz-adv-x="862" 
d="M261 669h53q0 -39 -43 -231t-43 -224h-54q0 24 15.5 96.5t36 165.5t28.5 138q-100 -82 -166 -131l-17 34q35 26 82.5 64t77.5 63zM731 610l-437 -613l-38 29l436 613zM840 -69q0 -59 -52 -103t-132 -44q-76 0 -115.5 31.5t-39.5 82.5q0 90 127 132q-65 35 -65 99
q0 55 48.5 91.5t116.5 36.5q58 0 95.5 -24.5t37.5 -68.5q0 -84 -111 -134q90 -29 90 -99zM552 -90q0 -37 26 -59.5t80 -22.5t89 29t35 70q0 59 -86 83l-4 -1l-1 2q-2 1 -4 1q-17 -3 -35 -8t-43 -16t-41 -31.5t-16 -46.5zM816 151q0 32 -25 49.5t-66 17.5q-44 0 -76.5 -24
t-32.5 -62q0 -61 76 -88q26 6 49 15t49 34t26 58z" />
    <glyph glyph-name="threeeighths" unicode="&#x215c;" horiz-adv-x="921" 
d="M42 259l23 36q4 -5 12.5 -12.5t40 -20.5t69.5 -13q58 0 96 32t38 74q0 84 -116 84l-10 30q75 74 148 155h-205v45h267v-31q-78 -87 -164 -167q67 -4 101 -34t34 -82q0 -60 -54 -105.5t-135 -45.5q-46 0 -82.5 14t-49.5 28zM784 610l-437 -613l-38 29l436 613zM900 -69
q0 -59 -52 -103t-132 -44q-76 0 -115.5 31.5t-39.5 82.5q0 90 127 132q-65 35 -65 99q0 55 48.5 91.5t116.5 36.5q58 0 95.5 -24.5t37.5 -68.5q0 -84 -111 -134q90 -29 90 -99zM612 -90q0 -37 26 -59.5t80 -22.5t89 29t35 70q0 59 -86 83l-4 -1l-1 2q-2 1 -4 1
q-17 -3 -35 -8t-43 -16t-41 -31.5t-16 -46.5zM876 151q0 32 -25 49.5t-66 17.5q-44 0 -76.5 -24t-32.5 -62q0 -61 76 -88q26 6 49 15t49 34t26 58z" />
    <glyph glyph-name="fiveeighths" unicode="&#x215d;" horiz-adv-x="959" 
d="M55 250l22 37q4 -4 13 -10.5t41.5 -17t70.5 -10.5q65 0 99 30.5t34 79.5q0 45 -53.5 76t-139.5 31q15 65 28.5 115.5t19.5 68.5l5 19h223v-45h-189q-24 -88 -32 -123q87 -1 139.5 -43t52.5 -96q0 -69 -49.5 -113.5t-138.5 -44.5q-47 0 -83.5 11.5t-49.5 22.5zM826 610
l-437 -613l-38 29l436 613zM938 -69q0 -59 -52 -103t-132 -44q-76 0 -115.5 31.5t-39.5 82.5q0 90 127 132q-65 35 -65 99q0 55 48.5 91.5t116.5 36.5q58 0 95.5 -24.5t37.5 -68.5q0 -84 -111 -134q90 -29 90 -99zM650 -90q0 -37 26 -59.5t80 -22.5t89 29t35 70q0 59 -86 83
l-4 -1l-1 2q-2 1 -4 1q-17 -3 -35 -8t-43 -16t-41 -31.5t-16 -46.5zM914 151q0 32 -25 49.5t-66 17.5q-44 0 -76.5 -24t-32.5 -62q0 -61 76 -88q26 6 49 15t49 34t26 58z" />
    <glyph glyph-name="seveneighths" unicode="&#x215e;" horiz-adv-x="831" 
d="M809 -69q0 -59 -52 -103t-132 -44q-76 0 -115.5 31.5t-39.5 82.5q0 90 127 132q-65 35 -65 99q0 55 48.5 91.5t116.5 36.5q58 0 95.5 -24.5t37.5 -68.5q0 -84 -111 -134q90 -29 90 -99zM409 669v-31q0 -8 -42 -78.5t-109 -172t-124 -177.5l-56 11q77 101 157 219.5
t115 181.5h-255v47h314zM701 610l-437 -613l-38 29l436 613zM521 -90q0 -37 26 -59.5t80 -22.5t89 29t35 70q0 59 -86 83l-4 -1l-1 2q-2 1 -4 1q-17 -3 -35 -8t-43 -16t-41 -31.5t-16 -46.5zM785 151q0 32 -25 49.5t-66 17.5q-44 0 -76.5 -24t-32.5 -62q0 -61 76 -88
q26 6 49 15t49 34t26 58z" />
    <glyph glyph-name="arrowleft" unicode="&#x2190;" horiz-adv-x="808" 
d="M394 515l34 -35l-209 -133h567v-57h-568l210 -133l-34 -36l-297 197z" />
    <glyph glyph-name="arrowup" unicode="&#x2191;" horiz-adv-x="575" 
d="M307 698l200 -290l-35 -36l-137 205l5 -605h-65l5 608l-138 -208l-34 36z" />
    <glyph glyph-name="arrowright" unicode="&#x2192;" horiz-adv-x="808" 
d="M786 318l-297 -197l-35 36l209 132h-566v58h566l-209 133l35 35z" />
    <glyph glyph-name="arrowdown" unicode="&#x2193;" horiz-adv-x="575" 
d="M142 299l137 -207l-4 606h64l-5 -606l138 207l35 -36l-200 -291l-199 291z" />
    <glyph glyph-name="st" unicode="&#xfb06;" horiz-adv-x="877" 
d="M26 50l31 45q8 -6 22 -15.5t59.5 -25t92.5 -15.5q65 0 102 25.5t37 62.5q0 65 -120 109q-75 30 -106.5 59.5t-31.5 77.5q0 60 58.5 98t143.5 42q-28 33 -28 85q0 70 55 117.5t144 47.5q108 0 175.5 -50.5t67.5 -113.5q0 -26 -15 -99h191v-59h-204q-63 -285 -63 -319
q0 -70 66 -70q31 0 66 9.5t54 18.5l19 10v-50q-9 -6 -24.5 -15t-59 -23.5t-81.5 -14.5q-56 0 -85 27t-29 76q0 41 47.5 254t47.5 249q0 47 -49 83.5t-124 36.5q-67 0 -107 -34.5t-40 -87.5q0 -50 34 -79q26 -2 51.5 -7t38.5 -9l13 -3v-51q-71 19 -141 19q-63 0 -106.5 -23
t-43.5 -62q0 -34 31 -57t96 -46q68 -27 99.5 -61t31.5 -81q0 -64 -57 -104t-152 -40q-38 0 -73.5 6.5t-58.5 16t-41 18.5t-26 16z" />
    <glyph glyph-name="halfcaron" horiz-adv-x="575" 
d="M447 733l-133 -172l-37 20l132 175z" />
    <glyph glyph-name="commaaccent" horiz-adv-x="934" 
d="M61 -46l42 -6q-7 -43 -36.5 -98.5t-61.5 -91.5l-36 8q73 92 92 188z" />
    <glyph glyph-name="onefifth" horiz-adv-x="815" 
d="M261 669h53q0 -39 -43 -231t-43 -224h-54q0 24 15.5 96.5t36 165.5t28.5 138q-100 -82 -166 -131l-17 34q35 26 82.5 64t77.5 63zM733 610l-437 -613l-38 29l436 613zM470 -170l22 37q4 -4 13 -10.5t41.5 -17t70.5 -10.5q65 0 99 30.5t34 79.5q0 45 -53.5 76t-139.5 31
q15 65 28.5 115.5t18.5 68.5l6 19h223v-45h-189q-24 -88 -32 -123q87 -1 139.5 -43t52.5 -96q0 -69 -49.5 -113.5t-138.5 -44.5q-47 0 -83.5 11.5t-49.5 22.5z" />
    <glyph glyph-name="twofifths" horiz-adv-x="894" 
d="M388 260v-46h-315v46q12 8 32 21t72 51t91 72t71.5 75.5t32.5 69.5q0 40 -30 61t-84 21q-28 0 -53 -3.5t-37 -7.5l-11 -3v42q45 18 117 18q75 0 115 -32t40 -86q0 -37 -28.5 -81.5t-76 -86t-89.5 -72.5t-87 -59h240zM817 610l-437 -613l-38 29l436 613zM548 -170l22 37
q4 -4 13 -10.5t41.5 -17t70.5 -10.5q65 0 99 30.5t34 79.5q0 45 -53.5 76t-139.5 31q15 65 28.5 115.5t18.5 68.5l6 19h223v-45h-189q-24 -88 -32 -123q87 -1 139.5 -43t52.5 -96q0 -69 -49.5 -113.5t-138.5 -44.5q-47 0 -83.5 11.5t-49.5 22.5z" />
    <glyph glyph-name="threefifths" horiz-adv-x="873" 
d="M42 259l23 36q4 -5 12.5 -12.5t40 -20.5t69.5 -13q58 0 96 32t38 74q0 84 -116 84l-10 30q75 74 148 155h-205v45h267v-31q-78 -87 -164 -167q67 -4 101 -34t34 -82q0 -60 -54 -105.5t-135 -45.5q-46 0 -82.5 14t-49.5 28zM791 610l-437 -613l-38 29l436 613zM527 -170
l22 37q4 -4 13 -10.5t41.5 -17t70.5 -10.5q65 0 99 30.5t34 79.5q0 45 -53.5 76t-139.5 31q15 65 28.5 115.5t19.5 68.5l5 19h223v-45h-189q-24 -88 -32 -123q87 -1 139.5 -43t52.5 -96q0 -69 -49.5 -113.5t-138.5 -44.5q-47 0 -83.5 11.5t-49.5 22.5z" />
    <glyph glyph-name="fourfifths" horiz-adv-x="904" 
d="M423 372v-42h-77q-19 -93 -19 -116h-52q0 23 19 116h-221v37q51 60 125.5 135.5t123.5 121.5l49 45h43q0 -11 -3.5 -33t-10.5 -55t-13.5 -63t-16 -75t-15.5 -71h68zM304 372q46 204 51 237q-142 -139 -231 -237h180zM822 610l-437 -613l-38 29l436 613zM559 -170l22 37
q4 -4 13 -10.5t41.5 -17t70.5 -10.5q65 0 99 30.5t34 79.5q0 45 -53.5 76t-139.5 31q15 65 28.5 115.5t19.5 68.5l5 19h223v-45h-189q-24 -88 -32 -123q87 -1 139.5 -43t52.5 -96q0 -69 -49.5 -113.5t-138.5 -44.5q-47 0 -83.5 11.5t-49.5 22.5z" />
    <glyph glyph-name="zero.onum" horiz-adv-x="682" 
d="M651 295q0 -130 -89 -219t-214 -89q-121 0 -189 59.5t-68 160.5q0 131 87.5 219t213.5 88q122 0 190.5 -59.5t68.5 -159.5zM575 290q0 81 -51.5 122.5t-132.5 41.5q-97 0 -160 -69.5t-63 -172.5q0 -82 50.5 -123.5t130.5 -41.5q97 0 161.5 70t64.5 173z" />
    <glyph glyph-name="one.onum" horiz-adv-x="437" 
d="M316 500h71q0 -32 -48 -257.5t-48 -242.5h-70q0 15 15 91.5t38 185.5t32 156q-142 -98 -237 -156l-24 46z" />
    <glyph glyph-name="two.onum" horiz-adv-x="478" 
d="M409 51v-64q-88 13 -366 13v59q13 7 35 19.5t77.5 49.5t97.5 72.5t77 80.5t35 81q0 37 -29 63t-95 26q-31 0 -58 -4.5t-38 -8.5l-11 -4v59q42 21 126 21q98 0 141 -39.5t43 -98.5q0 -40 -26.5 -82.5t-63 -76.5t-87 -68.5t-87 -55t-75.5 -39.5q44 -2 60 -2q31 0 81 2.5
t73 2.5q41 0 90 -6z" />
    <glyph glyph-name="three.onum" horiz-adv-x="533" 
d="M170 440v60h373v-45q-165 -146 -312 -251q106 -1 158 -39t52 -122q0 -81 -73.5 -143.5t-196.5 -62.5q-46 0 -85 8t-55 16l-16 8l17 54q51 -27 131 -27q96 0 149 45t53 103q0 124 -187 124l-2 46q94 77 269 234q-93 -7 -148 -7z" />
    <glyph glyph-name="four.onum" horiz-adv-x="597" 
d="M10 0v46q74 91 192.5 204.5t199.5 181.5l81 68h55q0 -15 -5.5 -46.5t-18 -87t-21.5 -91.5t-28.5 -115t-25.5 -103h100v-57h-114q-30 -122 -30 -150h-75q0 23 30 150h-340zM364 57q80 312 90 363q-231 -198 -382 -371q76 8 148 8h144z" />
    <glyph glyph-name="five.onum" horiz-adv-x="509" 
d="M15 -131l17 55q48 -26 128 -26q96 0 150 43.5t54 114.5q0 65 -52 105.5t-161 40.5q-22 0 -34 -1l-2 3l71 296h291v-57h-242q-21 -90 -46 -192q119 -1 185 -55.5t66 -139.5q0 -94 -73.5 -156.5t-200.5 -62.5q-44 0 -82 8t-54 16z" />
    <glyph glyph-name="six.onum" horiz-adv-x="603" 
d="M531 674l15 -54q-119 -28 -224 -109.5t-142 -196.5q97 81 208 81q87 0 140.5 -44.5t53.5 -119.5q0 -101 -72.5 -172.5t-190.5 -71.5q-107 0 -167.5 60.5t-60.5 152.5q0 95 40.5 179t106 142t140.5 97t153 56zM164 209q0 -71 41.5 -116.5t116.5 -45.5q87 0 135.5 51.5
t48.5 124.5q0 57 -41 89.5t-113 32.5q-95 0 -180 -64q-8 -37 -8 -72z" />
    <glyph glyph-name="seven.onum" horiz-adv-x="459" 
d="M505 498v-43q0 -24 -128.5 -229t-265.5 -391l-67 30q112 152 225.5 321.5t162.5 256.5q-102 -9 -380 -9v64h453z" />
    <glyph glyph-name="eight.onum" horiz-adv-x="643" 
d="M593 198q0 -83 -75 -147t-191 -64q-111 0 -167 48.5t-56 123.5q0 39 18 71.5t48 53.5t59.5 34t63.5 22q-100 43 -100 140q0 76 69.5 129t161.5 53q91 0 146 -39t55 -103q0 -124 -162 -181q130 -40 130 -141zM173 169q0 -55 39 -91t117 -36q82 0 135.5 46.5t53.5 109.5
q0 31 -17 54.5t-41 35t-48.5 19t-41.5 9.5l-17 1l3 3q-28 -5 -54 -13.5t-58 -25t-51.5 -45.5t-19.5 -67zM390 352l1 1h2q26 5 51.5 14.5t54.5 27t46.5 47.5t17.5 68q0 45 -39 72.5t-101 27.5q-63 0 -113.5 -37.5t-50.5 -92.5q0 -48 34 -78t68 -36l34 -7l-8 -8q1 0 3 1z" />
    <glyph glyph-name="nine.onum" horiz-adv-x="584" 
d="M119 -184l-24 47q108 42 200.5 113.5t139.5 164.5q-92 -48 -178 -48q-94 0 -143 49.5t-49 130.5q0 94 71 167.5t182 73.5t170 -61t59 -160q0 -104 -62.5 -200.5t-156.5 -164.5t-209 -112zM474 303q0 68 -42 110t-115 42q-81 0 -131.5 -53t-50.5 -123q0 -62 36.5 -98
t107.5 -36q38 0 80 11.5t63.5 21.5t34.5 18q17 51 17 107z" />
    <glyph glyph-name="ct" horiz-adv-x="931" 
d="M477 106l18 -42q-3 -3 -8 -8.5t-23 -18.5t-38 -23t-52.5 -18.5t-67.5 -8.5q-93 0 -159 61t-66 161q0 124 84 210t207 94q-31 35 -31 85q0 70 55 117.5t144 47.5q107 0 174.5 -50.5t67.5 -113.5q0 -26 -15 -99h192v-59h-205q-6 -27 -16.5 -74.5t-17 -78.5t-14 -67t-11 -61
t-3.5 -38q0 -70 66 -70q31 0 65.5 9.5t53.5 18.5l19 10v-50q-9 -6 -24.5 -15t-59 -23.5t-81.5 -14.5q-56 0 -85 27t-29 76q0 41 47.5 254t47.5 249q0 47 -49 83.5t-123 36.5q-67 0 -107.5 -34.5t-40.5 -87.5q0 -50 39 -79q25 -2 49 -6t36 -7l12 -3v-53q-67 15 -135 15
q-102 0 -171 -71t-69 -172q0 -75 49.5 -121.5t124.5 -46.5q39 0 76.5 14.5t55.5 29.5z" />
    <glyph glyph-name="hryvnia.001" 
d="M206 587l10 51q82 29 159 29q87 0 124 -35.5t25 -95.5q-15 -77 -128 -178h147l-9 -47h-193q-4 -3 -22 -18t-29.5 -25t-30 -28.5t-30.5 -34.5t-22.5 -37t-14.5 -41q-7 -36 16.5 -58.5t83.5 -22.5q42 0 85 12t65 24l22 13l8 -42q-9 -7 -26 -18t-69.5 -29.5t-104.5 -18.5
q-149 0 -149 97q0 14 3 29q16 93 147 198h-182l9 47h230q114 100 128 167q8 38 -16.5 60.5t-90.5 22.5q-32 0 -68 -5t-57 -11z" />
    <glyph glyph-name="y.alt" horiz-adv-x="620" 
d="M12 -167l43 45q2 -3 6.5 -8.5t20.5 -19.5t34 -24.5t47.5 -19t61.5 -8.5q57 0 100 21.5t66 51.5t37.5 72t18.5 74t5 66q0 18 4 39q-42 -63 -82 -94q-53 -41 -108 -41q-68 0 -112 44t-44 103q0 32 33.5 186.5t33.5 179.5h71q0 -28 -32.5 -179.5t-32.5 -169.5
q0 -40 31.5 -70.5t84.5 -30.5q31 0 60 14.5t50.5 37.5t33.5 39.5t21 32.5q9 49 25.5 130t27 134.5t10.5 61.5h71q0 -7 -37 -192.5t-39 -235.5q-1 -38 -9 -77.5t-28.5 -87t-52 -84t-84.5 -61.5t-121 -25q-45 0 -84 10t-62 24t-39.5 28t-23.5 24z" />
    <glyph glyph-name="yacute.alt" horiz-adv-x="620" 
d="M12 -167l43 45q2 -3 6.5 -8.5t20.5 -19.5t34 -24.5t47.5 -19t61.5 -8.5q57 0 100 21.5t66 51.5t37.5 72t18.5 74t5 66q0 18 4 39q-42 -63 -82 -94q-53 -41 -108 -41q-68 0 -112 44t-44 103q0 32 33.5 186.5t33.5 179.5h71q0 -28 -32.5 -179.5t-32.5 -169.5
q0 -40 31.5 -70.5t84.5 -30.5q31 0 60 14.5t50.5 37.5t33.5 39.5t21 32.5q9 49 25.5 130t27 134.5t10.5 61.5h71q0 -7 -37 -192.5t-39 -235.5q-1 -38 -9 -77.5t-28.5 -87t-52 -84t-84.5 -61.5t-121 -25q-45 0 -84 10t-62 24t-39.5 28t-23.5 24zM481 755l31 -35l-159 -155
l-23 27z" />
    <glyph glyph-name="ydieresis.alt" horiz-adv-x="620" 
d="M12 -167l43 45q2 -3 6.5 -8.5t20.5 -19.5t34 -24.5t47.5 -19t61.5 -8.5q57 0 100 21.5t66 51.5t37.5 72t18.5 74t5 66q0 18 4 39q-42 -63 -82 -94q-53 -41 -108 -41q-68 0 -112 44t-44 103q0 32 33.5 186.5t33.5 179.5h71q0 -28 -32.5 -179.5t-32.5 -169.5
q0 -40 31.5 -70.5t84.5 -30.5q31 0 60 14.5t50.5 37.5t33.5 39.5t21 32.5q9 49 25.5 130t27 134.5t10.5 61.5h71q0 -7 -37 -192.5t-39 -235.5q-1 -38 -9 -77.5t-28.5 -87t-52 -84t-84.5 -61.5t-121 -25q-45 0 -84 10t-62 24t-39.5 28t-23.5 24zM542 663q0 -23 -15 -38
t-36 -15q-18 0 -26.5 10.5t-8.5 22.5q0 23 15 38.5t36 15.5q18 0 26.5 -10.5t8.5 -23.5zM374 663q0 -23 -15 -38t-36 -15q-18 0 -26.5 10.5t-8.5 22.5q0 23 15 38.5t36 15.5q18 0 26.5 -10.5t8.5 -23.5z" />
    <glyph glyph-name="afii10085.alt" horiz-adv-x="620" 
d="M12 -167l43 45q2 -3 6.5 -8.5t20.5 -19.5t34 -24.5t47.5 -19t61.5 -8.5q57 0 100 21.5t66 51.5t37.5 72t18.5 74t5 66q0 18 4 39q-42 -63 -82 -94q-53 -41 -108 -41q-68 0 -112 44t-44 103q0 32 33.5 186.5t33.5 179.5h71q0 -28 -32.5 -179.5t-32.5 -169.5
q0 -40 31.5 -70.5t84.5 -30.5q31 0 60 14.5t50.5 37.5t33.5 39.5t21 32.5q9 49 25.5 130t27 134.5t10.5 61.5h71q0 -7 -37 -192.5t-39 -235.5q-1 -38 -9 -77.5t-28.5 -87t-52 -84t-84.5 -61.5t-121 -25q-45 0 -84 10t-62 24t-39.5 28t-23.5 24z" />
    <glyph glyph-name="afii10110.alt" horiz-adv-x="620" 
d="M12 -167l43 45q2 -3 6.5 -8.5t20.5 -19.5t34 -24.5t47.5 -19t61.5 -8.5q57 0 100 21.5t66 51.5t37.5 72t18.5 74t5 66q0 18 4 39q-42 -63 -82 -94q-53 -41 -108 -41q-68 0 -112 44t-44 103q0 32 33.5 186.5t33.5 179.5h71q0 -28 -32.5 -179.5t-32.5 -169.5
q0 -40 31.5 -70.5t84.5 -30.5q31 0 60 14.5t50.5 37.5t33.5 39.5t21 32.5q9 49 25.5 130t27 134.5t10.5 61.5h71q0 -7 -37 -192.5t-39 -235.5q-1 -38 -9 -77.5t-28.5 -87t-52 -84t-84.5 -61.5t-121 -25q-45 0 -84 10t-62 24t-39.5 28t-23.5 24zM288 640l30 45q2 -5 11 -14.5
t35 -22.5t56 -13q36 0 75.5 27.5t60.5 55.5l22 28l34 -21q-4 -6 -10.5 -15.5t-27.5 -34t-43.5 -43.5t-55.5 -34.5t-65 -15.5q-39 0 -69.5 14.5t-41.5 29.5z" />
    <glyph glyph-name="afii10066.alt" horiz-adv-x="601" 
d="M81 185q0 90 54.5 153t132.5 100q-52 28 -80.5 66t-28.5 97q0 71 50 116.5t127 45.5q52 0 109 -28.5t84 -28.5q22 0 40.5 12t25.5 24l7 11l42 -16q-1 -4 -4 -10t-13 -21t-22.5 -27t-33 -21.5t-44.5 -9.5q-31 0 -86 28t-92 28q-53 0 -83.5 -28t-30.5 -74q0 -44 35.5 -75.5
t86 -52.5t101 -44.5t86 -67.5t35.5 -106q0 -111 -80.5 -190t-191.5 -79q-109 0 -167.5 53t-58.5 145zM508 249q0 20 -5 37t-17.5 31.5t-24 24.5t-33 21.5t-35 17.5t-41 18t-39.5 17q-69 -36 -115.5 -94t-46.5 -129q0 -73 42 -111t120 -38t136.5 61t58.5 144z" />
    <glyph glyph-name="afii10098.alt" horiz-adv-x="418" 
d="M183 500h234q0 22 7.5 59t14.5 63l7 26h55q-36 -124 -36 -207h-222q-4 -37 -44.5 -229.5t-40.5 -211.5h-71q0 20 48 247.5t48 252.5z" />
    <glyph glyph-name="AndrijType" horiz-adv-x="1841" 
d="M983 -130l-38 -2q0 55 0.5 167t0.5 168q0 18 -2 18l-27 2l1 21q45 3 56 3t11 -27v-28q34 60 94 60q48 0 78.5 -35t30.5 -92q0 -61 -40 -100t-111 -39q-29 0 -54 7v-123zM1140 460v7h-1q-1 -3 -3.5 -7t-11 -14.5t-18.5 -19t-26.5 -15t-35.5 -6.5q-49 0 -79 33t-30 89
q0 61 41.5 102.5t111.5 41.5q32 0 62 -10q13 77 47 127l31 -19q-31 -46 -41 -100.5t-10 -129.5v-75q0 -30 10 -30l24 5v-19q-24 -11 -40 -11q-17 0 -24 11.5t-7 39.5zM118 291l-3 28q88 8 232 378q8 21 12 30h-8q-57 0 -104.5 -31.5t-47.5 -75.5q0 -27 20 -54l-26 -12
q-21 29 -21 62q0 55 56 97t125 42q30 0 50.5 -6t32 -18.5t16.5 -23t10 -26.5l57 -202q14 -44 24 -44l30 8l1 -22q-34 -12 -56 -12q-13 0 -21 13t-16 42l-9 34h-174q-95 -201 -180 -207zM1314 86l-2 29q61 0 89.5 22t28.5 55q0 22 -18.5 34.5t-46.5 12.5q-42 0 -69 -37
t-27 -91q0 -57 37.5 -94.5t93.5 -37.5q38 0 79 21l12 -22q-48 -30 -99 -30q-66 0 -113 45t-47 116q0 66 39 110t98 44q37 0 65 -17.5t28 -49.5q0 -41 -31 -63t-73 -22v-1q57 -6 105 -6q128 0 192.5 37t64.5 103l32 -9q0 -76 -71 -119t-207 -43q-75 0 -160 13zM261 187l-30 1
q0 59 49.5 97.5t147.5 38.5q33 0 64 -4q40 -4 79 -4q143 0 152 66l27 -4q-4 -38 -45.5 -65t-130.5 -27q-28 0 -61 3v-229q0 -40 3 -40l32 6v-26q-44 -10 -63 -10q-12 0 -12 70v232q-14 1 -39 1q-173 0 -173 -106zM1140 487q0 91 6 145q-32 13 -62 13q-51 0 -80.5 -31.5
t-29.5 -80.5q0 -45 23.5 -70.5t61.5 -25.5q21 0 41.5 12.5t29.5 24.5zM985 172q0 -49 -2 -149q32 -12 60 -12q50 0 78 30t28 78q0 46 -24 73.5t-61 27.5q-20 0 -39 -11t-27 -20.5t-13 -16.5zM552 -113l6 30q20 -5 45 -5q92 0 147 83q-64 198 -105 198q-14 0 -34.5 -6.5
t-34.5 -13.5l-14 -7l-5 22q48 38 106 38q30 0 60.5 -67t49.5 -138q24 39 49.5 117t33.5 114l37 -5q-8 -34 -41.5 -121.5t-64.5 -136.5q-67 -109 -181 -109q-22 0 -54 7zM668 414l-37 -2q0 35 0.5 105t0.5 105q0 16 -6 19q-4 2 -24.5 6t-28.5 8l5 25q10 -4 38 -8t35 -6
q19 -5 19 -40v-37q2 8 11.5 24.5t35 36t56.5 19.5q78 0 78 -92q0 -13 -0.5 -52t-0.5 -61q0 -30 12 -30l23 5v-19q-23 -11 -39 -11q-18 0 -25 11t-7 40v116q0 61 -55 61q-23 0 -45 -16t-30.5 -28.5t-13.5 -21.5q-2 -104 -2 -157zM1494 283l4 29q27 -16 55 -16q49 0 84.5 39.5
t35.5 109.5q0 36 0.5 89t0.5 88q0 18 -2 19l-28 1q1 6 1 21q37 3 52 3t15 -40q0 -36 -1 -88t-1 -88q0 -87 -43.5 -136t-104.5 -49q-35 0 -68 18zM426 669q-5 16 -7.5 22.5t-10.5 16t-20 14.5q-50 -137 -78 -199h155zM1330 545q0 -22 -0.5 -68t-0.5 -63l-38 -2q0 35 0.5 105
t0.5 105q0 14 -2 18l-27 2l1 21q42 3 52 3q9 -5 9 -37v-51q8 33 31 63t56 30q7 0 13.5 -1.5t9.5 -3.5l3 -2l-1 -35q-18 5 -32 5q-28 0 -49 -30.5t-26 -58.5zM1545 626q0 -27 -1 -81t-1 -81q0 -30 11 -30l23 5v-19q-23 -11 -39 -11q-18 0 -25 11t-7 40q0 27 0.5 80.5
t0.5 81.5q0 17 -2 19l-28 1v21q38 3 52 3q16 0 16 -40zM1672 742q0 10 7 16.5t15 6.5q10 0 17 -6.5t7 -16.5t-7 -16.5t-17 -6.5q-8 0 -15 6.5t-7 16.5zM1505 742q0 10 6.5 16.5t16.5 6.5q9 0 15.5 -6.5t6.5 -16.5t-6.5 -16.5t-15.5 -6.5q-10 0 -16.5 6.5t-6.5 16.5z" />
    <glyph glyph-name="afii10194.alt" horiz-adv-x="823" 
d="M686 500v-33l-16.5 -11t-39 -30.5t-53.5 -47.5t-54 -59t-46 -68h4q9 7 25 17.5t63 27.5t90 17q60 0 98 -35t38 -91q0 -76 -72.5 -138t-158.5 -62q-87 0 -135 45.5t-48 119.5q0 134 214 289q-146 13 -189 13q-35 0 -67.5 -15t-56 -38.5t-36.5 -40.5t-22 -32
q-8 -40 -28 -132t-29 -138.5t-9 -57.5h-71q0 20 48 247.5t48 252.5h71q0 -21 -19 -118q5 10 17.5 26.5t37.5 43t64 44.5t83 18q40 0 99 -3.5t102.5 -7t47.5 -3.5zM450 152q0 -52 31.5 -83.5t88.5 -31.5q56 0 103.5 44.5t47.5 101.5q0 36 -26.5 61t-78.5 25q-70 0 -154 -53
q-12 -32 -12 -64z" />
    </font>
</defs>
</svg>
