<?xml version="1.0" standalone="no"?>
<!DOCTYPE svg PUBLIC "-//W3C//DTD SVG 1.1//EN" "http://www.w3.org/Graphics/SVG/1.1/DTD/svg11.dtd" >
<svg xmlns="http://www.w3.org/2000/svg" xmlns:xlink="http://www.w3.org/1999/xlink" version="1.1">
<metadata>
Created by FontForge 20161003 at Mon Jul 31 14:34:41 2017
 By www-data
Copyright (c) 2009 by Andrij Shevchenko / AndrijType. All rights reserved.
</metadata>
<defs>
<font id="OksanaSansDemiBold" horiz-adv-x="618" >
  <font-face 
    font-family="OksanaSansDemiBold"
    font-weight="600"
    font-stretch="normal"
    units-per-em="1000"
    panose-1="2 1 7 4 4 2 0 2 0 4"
    ascent="750"
    descent="-250"
    x-height="500"
    cap-height="650"
    bbox="-31 -266 1800 975"
    underline-thickness="50"
    underline-position="-150"
    unicode-range="U+0020-FB06"
  />
<missing-glyph horiz-adv-x="688" 
d="M546 143l-61 -49l-146 169l-154 -148l-62 49l166 158l-150 174l61 49l145 -169l161 153l60 -49l-170 -163zM392 95q0 -24 -16 -38.5t-41 -14.5q-23 0 -39.5 14.5t-16.5 38.5q0 23 16.5 38.5t39.5 15.5q24 0 40.5 -15t16.5 -39zM186 335q0 -23 -16.5 -38.5t-39.5 -15.5
q-24 0 -40.5 15t-16.5 39t17 38.5t40 14.5q24 0 40 -14.5t16 -38.5zM414 545q0 -24 -16.5 -38.5t-39.5 -14.5q-24 0 -40.5 14.5t-16.5 38.5t16.5 39t40.5 15q23 0 39.5 -15.5t16.5 -38.5zM609 310q0 -24 -16.5 -39t-40.5 -15q-23 0 -39.5 15t-16.5 39q0 23 16.5 38t39.5 15
q24 0 40.5 -15t16.5 -38z" />
    <glyph glyph-name="fi" unicode="fi" horiz-adv-x="710" 
d="M617 500v-500h-104v418h-307v-418h-104v418h-64v82h64v60q0 104 42 150.5t131 46.5q36 0 69.5 -6t49.5 -12l15 -6v-83q-51 16 -111 16q-50 0 -71 -22t-21 -84v-60h411zM622 661q0 -24 -16 -42t-43 -18q-26 0 -42.5 18t-16.5 42t16.5 41.5t42.5 17.5q27 0 43 -17.5
t16 -41.5z" />
    <glyph glyph-name="fl" unicode="fl" horiz-adv-x="713" 
d="M630 750v-750h-104v662q-85 9 -186 9q-79 0 -106.5 -22.5t-27.5 -88.5v-60h180v-82h-180v-418h-104v418h-64v82h64v60q0 107 50.5 153t175.5 46q39 0 90.5 -2.5t83.5 -4.5l32 -2h96z" />
    <glyph glyph-name="afii10104_afii10104" unicode="&#x457;&#x457;" horiz-adv-x="581" 
d="M592 661q0 -24 -17 -42t-42 -18t-42 18t-17 42t17 41.5t42 17.5t42 -17.5t17 -41.5zM430 661q0 -24 -17 -42t-42 -18t-41.5 18t-16.5 42t16.5 41.5t41.5 17.5q26 0 42.5 -17.5t16.5 -41.5zM271 661q0 -24 -17 -42t-42 -18t-42 18t-17 42t17 41.5t42 17.5t42 -17.5
t17 -41.5zM109 661q0 -24 -17 -42t-42 -18t-41.5 18t-16.5 42t16.5 41.5t41.5 17.5q26 0 42.5 -17.5t16.5 -41.5zM197 500v-500h-104v500h104zM488 500v-500h-104v500h104z" />
    <glyph glyph-name="afii10103_afii10104" unicode="&#x456;&#x457;" horiz-adv-x="581" 
d="M592 661q0 -24 -17 -42t-42 -18t-42 18t-17 42t17 41.5t42 17.5t42 -17.5t17 -41.5zM403 661q0 -24 -17 -42t-42 -18t-42 18t-17 42t17 41.5t42 17.5t42 -17.5t17 -41.5zM197 500v-500h-104v500h104zM202 661q0 -24 -16 -42t-43 -18q-26 0 -42.5 18t-16.5 42t16.5 41.5
t42.5 17.5q27 0 43 -17.5t16 -41.5zM488 500v-500h-104v500h104z" />
    <glyph glyph-name=".notdef" horiz-adv-x="688" 
d="M546 143l-61 -49l-146 169l-154 -148l-62 49l166 158l-150 174l61 49l145 -169l161 153l60 -49l-170 -163zM392 95q0 -24 -16 -38.5t-41 -14.5q-23 0 -39.5 14.5t-16.5 38.5q0 23 16.5 38.5t39.5 15.5q24 0 40.5 -15t16.5 -39zM186 335q0 -23 -16.5 -38.5t-39.5 -15.5
q-24 0 -40.5 15t-16.5 39t17 38.5t40 14.5q24 0 40 -14.5t16 -38.5zM414 545q0 -24 -16.5 -38.5t-39.5 -14.5q-24 0 -40.5 14.5t-16.5 38.5t16.5 39t40.5 15q23 0 39.5 -15.5t16.5 -38.5zM609 310q0 -24 -16.5 -39t-40.5 -15q-23 0 -39.5 15t-16.5 39q0 23 16.5 38t39.5 15
q24 0 40.5 -15t16.5 -38z" />
    <glyph glyph-name=".null" horiz-adv-x="0" 
 />
    <glyph glyph-name="nonmarkingreturn" horiz-adv-x="333" 
 />
    <glyph glyph-name="space" unicode=" " horiz-adv-x="294" 
 />
    <glyph glyph-name="exclam" unicode="!" horiz-adv-x="349" 
d="M231 750l-12 -465h-87l-10 465h109zM236 60q0 -27 -17 -45t-43 -18t-43 18t-17 45t17 45t43 18t43 -18t17 -45z" />
    <glyph glyph-name="quotedbl" unicode="&#x22;" horiz-adv-x="388" 
d="M135 747l-10 -235h-78l-9 235h97zM322 747l-10 -235h-78l-9 235h97z" />
    <glyph glyph-name="numbersign" unicode="#" horiz-adv-x="597" 
d="M471 551l-29 -111h98v-68h-115l-25 -96h140v-68h-157l-35 -137l-63 17l30 120h-96l-33 -128l-62 17l28 111h-96v68h114l24 96h-138v68h156l35 137l63 -17l-31 -120h96l33 128zM261 372l-25 -96h97l24 96h-96z" />
    <glyph glyph-name="dollar" unicode="$" horiz-adv-x="496" 
d="M29 113l31 70q10 -7 28.5 -16.5t70 -26t98.5 -16.5q50 0 76.5 23.5t26.5 52.5q0 25 -31 43.5t-76 32.5t-89.5 30.5t-75.5 47.5t-31 74q0 58 44.5 98t117.5 51l-4 123h97l-5 -119q34 -2 66.5 -7.5t47.5 -9.5l15 -5v-76q-85 26 -157 26q-53 0 -86 -19t-33 -52
q0 -25 31.5 -43t76 -31t89 -29.5t76 -48t31.5 -75.5q0 -56 -40 -100.5t-116 -56.5l4 -104h-97l4 102q-58 4 -105.5 19t-65.5 29z" />
    <glyph glyph-name="percent" unicode="%" horiz-adv-x="1104" 
d="M815 650l-429 -650h-100l428 650h101zM450 469q0 -85 -56 -140t-143 -55q-89 0 -144 54.5t-55 140.5t56.5 140.5t142.5 54.5q84 0 141.5 -55t57.5 -140zM365 470q0 50 -33 81.5t-81 31.5t-80.5 -31.5t-32.5 -81.5t32 -82t81 -32t81.5 32t32.5 82zM1051 179
q0 -85 -56 -140t-143 -55q-89 0 -144 54.5t-55 140.5t56.5 140.5t142.5 54.5q84 0 141.5 -55t57.5 -140zM966 180q0 50 -33 81.5t-81 31.5t-80.5 -31.5t-32.5 -81.5t32 -82t81 -32t81.5 32t32.5 82z" />
    <glyph glyph-name="ampersand" unicode="&#x26;" horiz-adv-x="795" 
d="M753 389v-68h-212v-167q0 -35 17.5 -57t54.5 -22q32 0 67.5 10.5t54.5 21.5l19 11l1 -74q-3 -2 -8 -6.5t-21.5 -14.5t-35.5 -18t-48 -14.5t-60 -6.5q-104 0 -135 89q-6 -10 -15.5 -21t-31 -28.5t-58.5 -28.5t-83 -11q-95 0 -157 54.5t-62 142.5q0 74 43 120t116 65
q-85 50 -85 136q0 77 51.5 119.5t146.5 42.5q40 0 75 -7t49 -14l15 -7v-66q-41 22 -106 22q-132 0 -132 -101q0 -30 11.5 -52t28 -31.5t28 -13.5t19.5 -5h137v101l104 35v-136h212zM437 138v183h-124q-74 0 -119 -31t-45 -92q0 -59 40 -94.5t109 -35.5q29 0 54.5 7t40 17.5
t25.5 21t15 17.5z" />
    <glyph glyph-name="quotesingle" unicode="'" horiz-adv-x="201" 
d="M135 747l-10 -235h-78l-9 235h97z" />
    <glyph glyph-name="parenleft" unicode="(" horiz-adv-x="386" 
d="M258 736l80 -33q-5 -6 -14 -18.5t-31.5 -54.5t-39.5 -88.5t-31 -120t-14 -149.5q0 -77 13.5 -149t32.5 -120t38 -85t32 -54l14 -18l-80 -33q-6 6 -16.5 17.5t-37 53.5t-47 90.5t-37 129t-16.5 168.5t16 168.5t38.5 132t45 90.5t38.5 56z" />
    <glyph glyph-name="parenright" unicode=")" horiz-adv-x="386" 
d="M128 -187l-81 33q5 6 14 18.5t31.5 54.5t39.5 88t31 119.5t14 150.5q0 76 -13.5 148t-32.5 120.5t-38 85.5t-33 55l-13 17l81 33q6 -6 16.5 -17.5t37 -53.5t46.5 -90.5t36.5 -129t16.5 -168.5t-16 -168.5t-38.5 -132t-44.5 -90.5t-38 -56z" />
    <glyph glyph-name="asterisk" unicode="*" horiz-adv-x="476" 
d="M48 611l163 -78l-22 180h97l-23 -179l164 77l30 -92l-177 -33l124 -134l-79 -56l-87 158l-88 -158l-78 57l123 131l-177 35z" />
    <glyph glyph-name="plus" unicode="+" horiz-adv-x="510" 
d="M299 487v-170h173v-81h-173v-171h-86v171h-175v81h175v170h86z" />
    <glyph glyph-name="comma" unicode="," horiz-adv-x="283" 
d="M106 85l-14 46q17 16 45 16q22 0 38 -11.5t16 -32.5q0 -111 -95 -237l-58 22q68 116 68 197z" />
    <glyph glyph-name="hyphen" unicode="-" horiz-adv-x="370" 
d="M332 317v-81h-294v81h294z" />
    <glyph glyph-name="period" unicode="." horiz-adv-x="307" 
d="M213 60q0 -27 -17 -45t-43 -18t-43 18t-17 45t17 45t43 18t43 -18t17 -45z" />
    <glyph glyph-name="slash" unicode="/" horiz-adv-x="520" 
d="M450 750h101q-251 -520 -462 -1000h-101q94 214 209.5 464t184.5 393z" />
    <glyph glyph-name="zero" unicode="0" horiz-adv-x="695" 
d="M347 664q133 0 214.5 -93.5t81.5 -247.5t-81 -246.5t-215 -92.5t-214.5 92.5t-80.5 246.5t80.5 247.5t214.5 93.5zM347 572q-88 0 -138 -67.5t-50 -181.5t49.5 -180.5t138.5 -66.5t139.5 66.5t50.5 180.5t-50.5 181.5t-139.5 67.5z" />
    <glyph glyph-name="one" unicode="1" horiz-adv-x="459" 
d="M250 650h109v-650h-109v542q-130 -117 -194 -168l-47 65z" />
    <glyph glyph-name="two" unicode="2" horiz-adv-x="584" 
d="M532 87v-87h-490v87q15 9 39 24.5t85.5 61.5t108.5 89.5t85.5 99t38.5 99.5q0 116 -166 116q-41 0 -82.5 -5.5t-62.5 -10.5l-22 -5v79q73 29 188 29q127 0 193 -52t66 -131q0 -55 -33.5 -116t-89.5 -116t-106.5 -95.5t-107.5 -78.5q42 0 164 6t192 6z" />
    <glyph glyph-name="three" unicode="3" horiz-adv-x="584" 
d="M35 66l35 65q8 -7 23 -17.5t61.5 -27.5t94.5 -17q86 0 129 36.5t43 90.5q0 50 -48 82t-139 32l-38 57q92 98 179 210q-150 -12 -294 -12v85h408v-60q-81 -105 -180 -207q99 -10 161 -61t62 -126q0 -90 -72 -151t-195 -61q-45 0 -85 8.5t-65.5 20.5t-44.5 24t-27 21z" />
    <glyph glyph-name="four" unicode="4" horiz-adv-x="591" 
d="M392 650h78v-408h102v-80h-102v-162h-104v162h-347v80q67 88 160.5 190t152.5 160zM366 242v298q-170 -185 -262 -303q48 -1 150.5 2t111.5 3z" />
    <glyph glyph-name="five" unicode="5" horiz-adv-x="575" 
d="M482 650v-85q-146 0 -256 7q-7 -92 -11 -170q32 4 54 4q119 0 186.5 -55.5t67.5 -141.5q0 -99 -72 -162t-195 -63q-45 0 -85.5 8.5t-65.5 20.5t-44 24t-27 21l-8 8l34 65q8 -7 23 -17.5t62 -27.5t95 -17q87 0 129 39t42 103q0 53 -43 86t-128 33q-51 0 -101 -10l-2 -1
l-14 -3l19 334h340z" />
    <glyph glyph-name="six" unicode="6" horiz-adv-x="621" 
d="M433 664l25 -76q-230 -47 -284 -231q90 47 180 47q99 0 159 -52.5t60 -129.5q0 -103 -72 -170.5t-195 -67.5q-113 0 -183.5 72.5t-70.5 182.5q0 77 23.5 143t61 112.5t88.5 82.5t102.5 56.5t105.5 30.5zM328 328q-84 0 -167 -44q-2 -15 -2 -45q0 -71 41.5 -120.5
t114.5 -49.5q74 0 113 41t39 104q0 51 -38 82.5t-101 31.5z" />
    <glyph glyph-name="seven" unicode="7" horiz-adv-x="522" 
d="M503 650v-60q-166 -305 -281 -590h-120q96 238 280 575q-199 -15 -363 -15v90h484z" />
    <glyph glyph-name="eight" unicode="8" horiz-adv-x="633" 
d="M52 175q0 108 150 159q-120 54 -120 160q0 72 67.5 121t167.5 49q101 0 168 -49t67 -123q0 -96 -118 -149q147 -52 147 -169q0 -77 -71 -133.5t-193 -56.5q-123 0 -194 56t-71 135zM476 182q0 48 -43.5 79t-86.5 38l-44 7q-5 0 -13 2q-132 -40 -132 -123q0 -51 42 -87
t118 -36q75 0 117 35.5t42 84.5zM336 367q5 -1 13 -2q102 45 102 117q0 44 -37 75.5t-97 31.5t-97 -29.5t-37 -71.5q0 -30 16 -53t38.5 -35.5t44.5 -20.5t38 -10z" />
    <glyph glyph-name="nine" unicode="9" horiz-adv-x="621" 
d="M187 -16l-25 77q229 45 284 231q-87 -47 -179 -47q-99 0 -159.5 52t-60.5 129q0 104 72 171t195 67q113 0 183.5 -72.5t70.5 -182.5q0 -95 -34.5 -173t-92 -127.5t-121 -80t-133.5 -44.5zM292 321q85 0 168 44q2 28 2 44q0 71 -42 120.5t-114 49.5q-74 0 -113 -41
t-39 -103q0 -52 37.5 -83t100.5 -31z" />
    <glyph glyph-name="colon" unicode=":" horiz-adv-x="309" 
d="M213 390q0 -27 -17 -45t-43 -18t-43 18t-17 45t17 45t43 18t43 -18t17 -45zM213 107q0 -27 -17 -45t-43 -18t-43 18t-17 45t17 45t43 18t43 -18t17 -45z" />
    <glyph glyph-name="semicolon" unicode=";" horiz-adv-x="307" 
d="M119 85l-14 46q17 16 45 16q22 0 38 -11.5t16 -32.5q0 -111 -95 -237l-58 22q68 116 68 197zM213 390q0 -27 -17 -45t-43 -18t-43 18t-17 45t17 45t43 18t43 -18t17 -45z" />
    <glyph glyph-name="less" unicode="&#x3c;" horiz-adv-x="452" 
d="M413 158l-48 -50l-296 209l296 209l48 -50l-239 -160z" />
    <glyph glyph-name="equal" unicode="=" horiz-adv-x="589" 
d="M551 422v-81h-513v81h513zM551 212v-81h-513v81h513z" />
    <glyph glyph-name="greater" unicode="&#x3e;" horiz-adv-x="452" 
d="M38 476l48 50l297 -209l-297 -209l-48 50l238 158z" />
    <glyph glyph-name="question" unicode="?" horiz-adv-x="456" 
d="M-3 644v79q53 34 167 34q127 0 193 -51.5t66 -126.5q0 -57 -28 -96t-66.5 -60.5t-75.5 -41.5t-59.5 -53t-14.5 -82l-77 -10q-6 28 -6 52q0 38 16 69t39.5 49.5t51 37t51 33.5t39.5 38t16 51q0 106 -166 106q-37 0 -73.5 -7t-54.5 -14zM206 60q0 -27 -17 -45t-43 -18
t-43 18t-17 45t17 45t43 18t43 -18t17 -45z" />
    <glyph glyph-name="at" unicode="@" horiz-adv-x="1033" 
d="M734 -16q-50 0 -73 23t-27 68q-64 -91 -156 -91q-76 0 -127.5 55.5t-51.5 145.5q0 95 64 159t175 64q41 0 83 -6.5t63 -13.5l22 -6v-288q0 -27 8 -39.5t30 -12.5q50 0 88 53.5t38 167.5q0 130 -87.5 207t-228.5 77q-105 0 -188 -37t-136 -120t-53 -203q0 -83 28 -149
t77 -106.5t111 -62t133 -21.5v-69q-195 0 -313 106.5t-118 301.5q0 198 127 313.5t332 115.5q179 0 286 -95.5t107 -257.5q0 -77 -20 -134.5t-52.5 -87t-67.5 -43.5t-73 -14zM505 52q65 0 128 74v206q-68 12 -101 12q-70 0 -112.5 -45.5t-42.5 -113.5q0 -63 35.5 -98
t92.5 -35z" />
    <glyph glyph-name="A" unicode="A" horiz-adv-x="716" 
d="M295 650l1 -2l1 2h129l266 -650h-111l-63 153h-324l-60 -153h-110zM357 568q-4 -10 -26.5 -67.5t-54.5 -140.5t-53 -136h267z" />
    <glyph glyph-name="B" unicode="B" horiz-adv-x="658" 
d="M109 0v650q123 14 217 14q119 0 172.5 -45.5t53.5 -120.5q0 -86 -73 -157q127 -42 127 -149q0 -92 -70 -150t-208 -58q-48 0 -103 4t-85 8zM317 298q-31 0 -111 -5v-222q84 -6 122 -6q85 0 129.5 32.5t44.5 93.5q0 54 -49.5 80.5t-135.5 26.5zM317 364q43 0 87 -6
q58 58 58 126q0 46 -34 73.5t-102 27.5q-42 0 -120 -8v-217q56 4 111 4z" />
    <glyph glyph-name="C" unicode="C" horiz-adv-x="703" 
d="M623 632v-206h-83v138q-61 13 -120 13q-117 0 -185.5 -70.5t-68.5 -186.5q0 -112 67 -178.5t177 -66.5q38 0 76 10.5t65.5 25t49.5 29t33 24.5l11 11l36 -58q-4 -5 -11.5 -14t-35 -32t-58 -40.5t-79.5 -32t-102 -14.5q-155 0 -249 92t-94 244t100 248t256 96q63 0 117 -8
t76 -16z" />
    <glyph glyph-name="D" unicode="D" horiz-adv-x="781" 
d="M109 0v650q100 14 235 14q172 0 278.5 -92.5t106.5 -248.5q0 -155 -105 -247t-279 -92q-56 0 -115 4t-90 8zM345 74q120 0 195 68.5t75 180.5q0 114 -74 183t-197 69q-44 0 -126 -6v-489q72 -6 127 -6z" />
    <glyph glyph-name="E" unicode="E" 
d="M578 84v-84h-469v650h444v-85h-335v-184h273v-82h-273v-215h360z" />
    <glyph glyph-name="F" unicode="F" horiz-adv-x="574" 
d="M513 354v-82h-295v-272h-109v650h451v-85h-342v-211h295z" />
    <glyph glyph-name="G" unicode="G" horiz-adv-x="750" 
d="M426 71q82 0 156 31v286h92v-333q-4 -3 -11 -7.5t-31.5 -17t-52 -22t-70.5 -17t-89 -7.5q-172 0 -270 91t-98 248q0 153 103.5 247t267.5 94q61 0 117 -8t82 -16l25 -8v-82q-100 30 -205 30q-131 0 -205 -70t-74 -187q0 -118 73.5 -185t189.5 -67z" />
    <glyph glyph-name="H" unicode="H" horiz-adv-x="787" 
d="M678 650v-650h-109v273h-351v-273h-109v650h109v-296h351v296h109z" />
    <glyph glyph-name="I" unicode="I" horiz-adv-x="327" 
d="M218 650v-650h-109v650h109z" />
    <glyph glyph-name="J" unicode="J" horiz-adv-x="346" 
d="M237 650v-530q0 -149 -69 -232t-169 -99l-14 90q65 13 104 75t39 163v533h109z" />
    <glyph glyph-name="K" unicode="K" horiz-adv-x="716" 
d="M109 0v650h109v-334l84 72l248 262h127l-302 -306l326 -344h-127l-268 281l-88 -71v-210h-109z" />
    <glyph glyph-name="L" unicode="L" horiz-adv-x="578" 
d="M567 81v-81h-458v650h109v-569h349z" />
    <glyph glyph-name="M" unicode="M" horiz-adv-x="953" 
d="M811 650l103 -650h-104l-76 493l-210 -493h-95l-214 493l-72 -493h-105l110 650h104l225 -536l229 536h105z" />
    <glyph glyph-name="N" unicode="N" horiz-adv-x="811" 
d="M702 650v-650h-89l-413 497q3 -16 3 -39v-458h-94v650h87l416 -502q-4 13 -4 34v468h94z" />
    <glyph glyph-name="O" unicode="O" horiz-adv-x="805" 
d="M753 324q0 -152 -100 -246t-252 -94q-151 0 -250 94t-99 246t99 246t250 94q152 0 252 -94t100 -246zM641 324q0 111 -69 181t-171 70t-170 -69.5t-68 -181.5t67.5 -181t170.5 -69q104 0 172 69t68 181z" />
    <glyph glyph-name="P" unicode="P" 
d="M109 0v650q105 14 198 14q122 0 194 -61t72 -163q0 -52 -18 -93.5t-46.5 -66.5t-66 -41.5t-73.5 -23t-72 -6.5q-49 0 -87 9v-218h-101zM303 578q-11 0 -93 -5v-279q39 -3 57 -3q36 0 68 6.5t63.5 21.5t50 46t18.5 74q0 63 -44.5 101t-119.5 38z" />
    <glyph glyph-name="Q" unicode="Q" horiz-adv-x="805" 
d="M419 -16q-168 0 -267.5 92.5t-99.5 246.5q0 153 96.5 247t247.5 94q152 0 250 -86.5t98 -219.5q0 -132 -72.5 -228.5t-152.5 -96.5v-1q141 0 224 -134l-84 -48q-37 65 -106.5 99.5t-133.5 34.5zM163 323q0 -115 73 -182t208 -67q69 0 127 81t58 194q0 102 -65 164
t-168 62q-102 0 -167.5 -69.5t-65.5 -182.5z" />
    <glyph glyph-name="R" unicode="R" horiz-adv-x="670" 
d="M109 0v650q87 14 198 14q128 0 197 -58t69 -151q0 -127 -137 -192l219 -263h-136l-183 230q-58 -13 -126 -15v-215h-101zM307 578q-17 0 -97 -5v-281q21 0 41.5 2t52.5 7t57.5 15.5t50 26.5t38.5 42t14 59q0 62 -40 98t-117 36z" />
    <glyph glyph-name="S" unicode="S" 
d="M522 642v-162h-75v94q-53 11 -98 11q-82 0 -124 -28.5t-42 -77.5q0 -38 39.5 -64t96 -43.5t112.5 -37t95.5 -57t39.5 -91.5q0 -87 -69.5 -144.5t-195.5 -57.5q-46 0 -89 8t-71 19.5t-49.5 22.5t-31.5 19l-10 8l39 80q10 -8 29 -19.5t75.5 -31t111.5 -19.5q68 0 111 31
t43 75q0 34 -39.5 57.5t-96 40.5t-112.5 37.5t-95.5 61t-39.5 99.5q0 80 73 135.5t203 55.5q42 0 84.5 -5.5t63.5 -10.5z" />
    <glyph glyph-name="T" unicode="T" horiz-adv-x="578" 
d="M570 650v-82h-227v-568h-109v568h-227v82h563z" />
    <glyph glyph-name="U" unicode="U" horiz-adv-x="779" 
d="M669 650v-650h-108v157h-2q-3 -7 -8.5 -18.5t-27.5 -41.5t-48.5 -53t-72.5 -41.5t-98 -18.5q-103 0 -153.5 58t-50.5 158v450h109v-407q0 -73 35.5 -115.5t107.5 -42.5q36 0 70 15.5t56 34t42.5 45t27.5 38t13 23.5v409h108z" />
    <glyph glyph-name="V" unicode="V" horiz-adv-x="698" 
d="M404 0h-110l-279 650h111l223 -553l223 553h111z" />
    <glyph glyph-name="W" unicode="W" horiz-adv-x="1100" 
d="M978 650h107q-19 -57 -127.5 -346.5t-113.5 -303.5h-107l-187 532l-188 -532h-107l-240 650h107l46 -128q45 -127 93.5 -261.5t50.5 -140.5l190 530h97q175 -490 189 -528z" />
    <glyph glyph-name="X" unicode="X" horiz-adv-x="713" 
d="M16 0l279 326l-272 324h124l209 -256l209 256h125l-273 -325l279 -325h-129l-211 256l-210 -256h-130z" />
    <glyph glyph-name="Y" unicode="Y" horiz-adv-x="679" 
d="M125 650q38 -68 92.5 -163.5t94.5 -164.5t42 -73l205 401h111l-352 -650h-111l90 168l-283 482h111z" />
    <glyph glyph-name="Z" unicode="Z" horiz-adv-x="652" 
d="M604 650v-55l-405 -514h405v-81h-557v54l406 514h-406v82h557z" />
    <glyph glyph-name="bracketleft" unicode="[" horiz-adv-x="420" 
d="M411 -5v-76h-307v786h307v-76h-215v-634h215z" />
    <glyph glyph-name="backslash" unicode="\" horiz-adv-x="520" 
d="M-31 750h101q94 -214 209.5 -464t184.5 -393l68 -143h-101q-251 519 -462 1000z" />
    <glyph glyph-name="bracketright" unicode="]" horiz-adv-x="420" 
d="M316 704v-785h-307v76h214v634h-214v75h307z" />
    <glyph glyph-name="asciicircum" unicode="^" horiz-adv-x="414" 
d="M207 692l169 -173l-43 -42l-126 134l-127 -134l-42 42z" />
    <glyph glyph-name="underscore" unicode="_" horiz-adv-x="780" 
d="M741 -83v-81h-703v81h703z" />
    <glyph glyph-name="grave" unicode="`" horiz-adv-x="259" 
d="M6 717l54 48l135 -164l-42 -37z" />
    <glyph glyph-name="a" unicode="a" horiz-adv-x="582" 
d="M395 0v77q-58 -93 -174 -93q-78 0 -129.5 43.5t-51.5 113.5q0 77 56.5 122t174.5 45q58 0 124 -8v32q0 56 -30 80.5t-103 24.5q-36 0 -73 -4.5t-56 -9.5l-19 -5l-10 67q79 30 175 30q124 0 172 -48t48 -148v-319h-104zM258 57q38 0 72 19.5t46 33.5t19 26v105
q-54 7 -106 7q-75 0 -111 -26.5t-36 -72.5q0 -41 32 -66.5t84 -25.5z" />
    <glyph glyph-name="b" unicode="b" horiz-adv-x="636" 
d="M83 10v740h104v-321q77 86 178 86q99 0 165 -71t66 -184q0 -123 -80.5 -199.5t-210.5 -76.5q-61 0 -116.5 6.5t-80.5 13.5zM327 430q-35 0 -69 -16t-49 -29t-22 -22v-292q49 -13 102 -13q95 0 147.5 52.5t52.5 139.5q0 82 -45.5 131t-116.5 49z" />
    <glyph glyph-name="c" unicode="c" horiz-adv-x="520" 
d="M486 124l27 -58q-3 -3 -8 -8.5t-23.5 -20t-40.5 -25t-59 -19.5t-78 -9q-115 0 -189.5 67.5t-74.5 182.5q0 127 79 204t199 77q33 0 71 -5.5t59 -10.5l22 -5v-82q-74 21 -143 21q-81 0 -133 -54t-52 -137q0 -81 51 -128.5t124 -47.5q46 0 88 14.5t61 29.5z" />
    <glyph glyph-name="d" unicode="d" horiz-adv-x="636" 
d="M553 750v-750h-104v66q-6 -9 -22 -24.5t-60 -36.5t-94 -21q-106 0 -169.5 66.5t-63.5 181.5q0 123 84.5 203t224.5 80q50 0 100 -9v244h104zM309 69q82 0 140 66v291q-45 15 -91 15q-101 0 -156 -54.5t-55 -142.5q0 -82 45 -128.5t117 -46.5z" />
    <glyph glyph-name="e" unicode="e" horiz-adv-x="562" 
d="M488 115l23 -67q-3 -3 -8.5 -7t-26 -15t-43 -19.5t-59.5 -15.5t-77 -7q-107 0 -182 66t-75 180q0 126 71 205.5t176 79.5q99 0 163 -56t64 -161q0 -19 -3 -37.5t-6 -26.5l-3 -9h-362v-12q0 -70 51 -110.5t126 -40.5q48 0 90.5 13t61.5 27zM288 441q-60 0 -102.5 -44.5
t-47.5 -114.5q188 0 286 3q1 11 1 23q0 67 -38.5 100t-98.5 33z" />
    <glyph glyph-name="f" unicode="f" horiz-adv-x="412" 
d="M386 500v-82h-180v-418h-104v418h-64v82h64v60q0 104 42 150.5t131 46.5q36 0 69.5 -6t49.5 -12l15 -6v-83q-51 16 -111 16q-50 0 -71 -22t-21 -84v-60h180z" />
    <glyph glyph-name="g" unicode="g" horiz-adv-x="522" 
d="M431 497q40 -69 40 -152q0 -81 -50.5 -136t-143.5 -55q-32 0 -53 4q-15 -51 -15 -73q22 3 50 3q120 0 192.5 -44t72.5 -130q0 -77 -63.5 -128.5t-174.5 -51.5q-117 0 -178 48t-61 131q0 58 24 98t56 60q6 34 26 112q-82 47 -82 146q0 84 56.5 135t160.5 51
q29 0 64.5 -4.5t57.5 -8.5zM248 16q-26 0 -76 -8q-40 -31 -40 -91q0 -49 40 -77t110 -28q67 0 104.5 29.5t37.5 75.5t-47 72.5t-129 26.5zM382 335q0 46 -25 98q-47 7 -73 7q-59 0 -92 -29t-33 -82q0 -43 29.5 -73t80.5 -30q52 0 82.5 31.5t30.5 77.5z" />
    <glyph glyph-name="h" unicode="h" horiz-adv-x="635" 
d="M83 0v750h104v-352q73 117 192 117q82 0 127.5 -49.5t45.5 -148.5v-317h-104v315q0 112 -106 112q-27 0 -53.5 -11.5t-44 -28t-31 -33t-19.5 -28.5l-7 -11v-315h-104z" />
    <glyph glyph-name="i" unicode="i" horiz-adv-x="289" 
d="M197 500v-500h-104v500h104zM204 661q0 -24 -16 -42t-43 -18q-26 0 -42.5 18t-16.5 42t16.5 41.5t42.5 17.5q27 0 43 -17.5t16 -41.5z" />
    <glyph glyph-name="j" unicode="j" horiz-adv-x="305" 
d="M109 0v500h104v-500q0 -64 -21 -115t-56 -81.5t-72 -47.5t-76 -22l-15 90q53 11 94.5 55t41.5 121zM218 661q0 -24 -16 -42t-43 -18q-26 0 -42.5 18t-16.5 42t16.5 41.5t42.5 17.5q27 0 43 -17.5t16 -41.5z" />
    <glyph glyph-name="k" unicode="k" horiz-adv-x="570" 
d="M88 0v750h104v-464l43 34l180 180h120l-224 -215l245 -285h-125l-191 226l-48 -37v-189h-104z" />
    <glyph glyph-name="l" unicode="l" horiz-adv-x="270" 
d="M187 750v-750h-104v750h104z" />
    <glyph glyph-name="m" unicode="m" horiz-adv-x="906" 
d="M93 0v500h104v-101q4 10 12.5 24.5t27 37.5t51.5 38.5t72 15.5q119 0 143 -113q6 14 15 28t28.5 36t50.5 35.5t69 13.5q157 0 157 -183v-332h-104v332q0 45 -24.5 71t-69.5 26q-26 0 -48 -11t-36 -28.5t-20.5 -28t-10.5 -20.5v-341h-104v332q0 45 -24 71t-69 26
q-26 0 -48.5 -11t-36.5 -28.5t-20.5 -28t-10.5 -20.5v-341h-104z" />
    <glyph glyph-name="n" unicode="n" horiz-adv-x="645" 
d="M93 0v500h104v-102q73 117 191 117q82 0 127.5 -49.5t45.5 -148.5v-317h-104v315q0 112 -106 112q-32 0 -61.5 -15t-49 -37t-29.5 -36t-14 -22v-317h-104z" />
    <glyph glyph-name="o" unicode="o" horiz-adv-x="640" 
d="M599 250q0 -120 -79 -193t-201 -73t-200.5 73t-78.5 193t78.5 192.5t200.5 72.5q123 0 201.5 -72.5t78.5 -192.5zM319 433q-74 0 -123 -50t-49 -133t49 -133.5t123 -50.5q75 0 124.5 50.5t49.5 133.5t-49.5 133t-124.5 50z" />
    <glyph glyph-name="p" unicode="p" horiz-adv-x="636" 
d="M83 -250v750h104v-71q77 86 173 86q104 0 170 -70.5t66 -184.5q0 -122 -80.5 -199t-210.5 -77q-59 0 -118 11v-245h-104zM327 430q-35 0 -69 -16t-49 -29t-22 -22v-288q49 -17 102 -17q95 0 147.5 52.5t52.5 139.5q0 82 -45.5 131t-116.5 49z" />
    <glyph glyph-name="q" unicode="q" horiz-adv-x="636" 
d="M553 475v-725h-104v316q-6 -8 -24 -24.5t-63.5 -37t-95.5 -20.5q-106 0 -166 66t-60 182q0 124 84.5 203.5t224.5 79.5q57 0 108 -10t73 -20zM302 69q81 0 147 66v291q-45 15 -91 15q-101 0 -156 -54.5t-55 -142.5q0 -83 42 -129t113 -46z" />
    <glyph glyph-name="r" unicode="r" horiz-adv-x="421" 
d="M400 500v-91l-70 2q-40 -2 -68.5 -34t-41 -69t-23.5 -91v-217h-104v500h92v-168q11 37 22 64.5t29 57t44 45.5t59 16q19 0 34 -3.5t21 -7.5z" />
    <glyph glyph-name="s" unicode="s" horiz-adv-x="496" 
d="M29 46l31 70q10 -7 28.5 -16.5t70 -26t98.5 -16.5q50 0 76.5 23.5t26.5 52.5q0 25 -31 43.5t-76 32.5t-89.5 30.5t-75.5 47.5t-31 74q0 69 61.5 111.5t157.5 42.5q42 0 82 -6t59 -11l19 -6v-76q-85 26 -157 26q-53 0 -86 -19t-33 -52q0 -25 31.5 -43t76 -31t89 -29.5
t76 -48t31.5 -75.5q0 -65 -53 -112.5t-152 -47.5q-70 0 -127.5 15.5t-79.5 30.5z" />
    <glyph glyph-name="t" unicode="t" horiz-adv-x="446" 
d="M420 500v-82h-214v-251q0 -92 72 -92q32 0 67 10.5t55 21.5l19 11l1 -74q-7 -7 -21 -17t-59 -26.5t-94 -16.5q-70 0 -107 47t-37 133v254h-64v82h64v133l104 36v-169h214z" />
    <glyph glyph-name="u" unicode="u" horiz-adv-x="645" 
d="M552 500v-500h-104v100l-4 -6q-4 -6 -8.5 -12t-12 -15.5t-17 -18t-21 -18.5t-25.5 -18t-29.5 -14.5t-34.5 -10t-39 -3.5q-82 0 -127.5 49.5t-45.5 148.5v318h104v-315q0 -112 106 -112q88 0 154 110v317h104z" />
    <glyph glyph-name="v" unicode="v" horiz-adv-x="583" 
d="M233 0l-214 500h109l164 -407q31 54 86 190t76 217h110q-27 -86 -99.5 -246.5t-126.5 -253.5h-105z" />
    <glyph glyph-name="w" unicode="w" horiz-adv-x="873" 
d="M744 500h110q-24 -85 -88.5 -243t-112.5 -257h-104v1l-1 -1q-97 308 -115 377q-34 -119 -125 -377h-104v2l-1 -2l-184 500h110l134 -382q21 56 64.5 192.5t56.5 189.5h105q12 -49 61 -195t64 -186q102 254 130 381z" />
    <glyph glyph-name="x" unicode="x" horiz-adv-x="581" 
d="M558 500l-205 -248l215 -252h-122q-144 182 -156 201l-155 -201h-122l214 252l-204 248h122q134 -177 145 -194l146 194h122z" />
    <glyph glyph-name="y" unicode="y" horiz-adv-x="594" 
d="M462 500h113l-228 -495l-117 -255h-107l116 253l-220 497h117l162 -397z" />
    <glyph glyph-name="z" unicode="z" horiz-adv-x="512" 
d="M469 500v-50l-293 -375q4 0 12 0.5t11 0.5h272v-76h-433v54l292 378q-126 -11 -269 -11v79h408z" />
    <glyph glyph-name="braceleft" unicode="{" horiz-adv-x="464" 
d="M85 249v86q37 0 74.5 24t37.5 64v146q0 93 50 136t179 43v-76q-75 0 -107 -25.5t-32 -76.5v-152q0 -38 -23.5 -71t-63.5 -55q87 -47 87 -127v-151q0 -52 32 -77t107 -25v-76q-129 0 -179 43t-50 135v146q0 40 -37.5 64.5t-74.5 24.5z" />
    <glyph glyph-name="bar" unicode="|" horiz-adv-x="375" 
d="M241 750v-1000h-106v1000h106z" />
    <glyph glyph-name="braceright" unicode="}" horiz-adv-x="464" 
d="M177 165q0 39 23 72.5t63 54.5q-40 21 -63 54.5t-23 71.5v152q0 51 -32 76.5t-107 25.5v76q129 0 179 -43t50 -136v-146q0 -40 37 -64t75 -24v-86q-38 0 -75 -24.5t-37 -64.5v-146q0 -92 -50 -135t-179 -43v76q75 0 107 25t32 77v151z" />
    <glyph glyph-name="asciitilde" unicode="~" horiz-adv-x="709" 
d="M505 320q41 0 77 16.5t52 33.5l16 16l21 -71q-2 -4 -7 -10.5t-21.5 -23.5t-35 -30t-48 -23.5t-60.5 -10.5q-39 0 -70.5 14t-52.5 34t-41.5 40.5t-48.5 34.5t-62 14q-42 0 -83.5 -19t-62.5 -38l-20 -19l-20 80q3 4 9.5 11t27 24.5t41.5 31t52 24.5t61 11q43 0 76.5 -14.5
t55 -35t41.5 -41t46 -35t57 -14.5z" />
    <glyph glyph-name="nbspace" unicode="&#xa0;" horiz-adv-x="389" 
 />
    <glyph glyph-name="exclamdown" unicode="&#xa1;" horiz-adv-x="345" 
d="M123 -237l12 465h87l10 -465h-109zM229 452q0 -27 -17 -45t-43 -18t-43 18t-17 45t17 45t43 18t43 -18t17 -45z" />
    <glyph glyph-name="cent" unicode="&#xa2;" horiz-adv-x="520" 
d="M486 191l27 -58q-6 -7 -17.5 -18.5t-54 -33t-92.5 -27.5l4 -104h-97l4 104q-98 12 -159 78t-61 169q0 110 61 184t159 92l-4 123h97l-5 -119q28 -2 58.5 -7t47.5 -9l16 -4v-82q-74 21 -143 21q-81 0 -133 -54t-52 -137q0 -81 51 -128.5t124 -47.5q46 0 88 14.5t61 28.5z
" />
    <glyph glyph-name="sterling" unicode="&#xa3;" horiz-adv-x="628" 
d="M511 368v-68h-234v-219h327v-81h-552v81h111v219h-111v68h111v98q0 90 52 144t158 54q35 0 69.5 -7t51.5 -15l17 -7v-79q-51 21 -109 21q-69 0 -97 -28.5t-28 -87.5v-93h234z" />
    <glyph glyph-name="currency" unicode="&#xa4;" horiz-adv-x="660" 
d="M522 314q0 -72 -44 -121l125 -120l-49 -47l-111 136q-47 -32 -112 -32q-61 0 -111 32l-113 -135l-49 47l126 118q-45 50 -45 122q0 71 43 120l-125 121l49 47l111 -137q50 33 114 33q63 0 109 -31l113 134l49 -47l-125 -118q45 -51 45 -122zM470 314q0 64 -38.5 101
t-100.5 37q-64 0 -102 -36.5t-38 -100.5t38.5 -101.5t101.5 -37.5q62 0 100.5 37.5t38.5 100.5z" />
    <glyph glyph-name="yen" unicode="&#xa5;" 
d="M530 201v-68h-169v-133h-109v133h-179v68h179v81h-179v68h143l-165 300h122l141 -295q108 168 169 295h106q-84 -153 -195 -300h136v-68h-169v-81h169z" />
    <glyph glyph-name="brokenbar" unicode="&#xa6;" horiz-adv-x="375" 
d="M241 150v-400h-108v400h108zM241 750v-400h-108v400h108z" />
    <glyph glyph-name="section" unicode="&#xa7;" horiz-adv-x="590" 
d="M520 645v-74q-88 15 -163 15q-161 0 -161 -81q0 -24 9.5 -37t43.5 -22t100 -12q93 -4 140 -33.5t47 -100.5q0 -68 -73 -118q70 -27 70 -104q0 -74 -61.5 -120.5t-179.5 -46.5q-69 0 -128.5 18t-84.5 36l-25 18l34 65q9 -7 24.5 -16.5t65.5 -26t100 -16.5q68 0 105.5 26.5
t37.5 59.5q0 23 -7.5 34.5t-38 20.5t-92.5 11q-202 8 -202 137q0 66 67 123q-64 28 -64 106q0 73 65.5 115t182.5 42q48 0 95 -5t70 -9zM299 376q-47 1 -88 8q-40 -46 -40 -96q0 -39 36.5 -59.5t126.5 -24.5q37 -2 55 -4q55 37 55 90q0 45 -31 63.5t-114 22.5z" />
    <glyph glyph-name="dieresis" unicode="&#xa8;" horiz-adv-x="469" 
d="M342 661q0 -24 -17 -42t-42 -18t-42 18t-17 42t17 41.5t42 17.5t42 -17.5t17 -41.5zM150 661q0 -24 -17 -42t-42 -18t-41.5 18t-16.5 42t16.5 41.5t41.5 17.5q26 0 42.5 -17.5t16.5 -41.5z" />
    <glyph glyph-name="copyright" unicode="&#xa9;" horiz-adv-x="895" 
d="M809 323q0 -154 -102 -252.5t-261 -98.5q-158 0 -259.5 98.5t-101.5 252.5q0 153 102 252t259 99q158 0 260.5 -99t102.5 -252zM737 322q0 130 -82.5 212.5t-208.5 82.5q-125 0 -206.5 -82.5t-81.5 -212.5t81 -211.5t207 -81.5t208.5 81.5t82.5 211.5zM567 483v-56
q-48 8 -90 8q-65 0 -102 -32.5t-37 -89.5q0 -54 34.5 -84.5t88.5 -30.5q32 0 61.5 13t43.5 26l13 13l22 -35q-2 -3 -5.5 -8.5t-17.5 -19.5t-30.5 -24.5t-45 -19.5t-60.5 -9q-75 0 -125.5 48.5t-50.5 130.5t57 133t143 51q29 0 54 -3.5t36 -7.5z" />
    <glyph glyph-name="ordfeminine" unicode="&#xaa;" horiz-adv-x="520" 
d="M390 295h-84v56q-56 -67 -133 -67q-51 0 -86 30t-35 84q0 57 51 89.5t126 32.5q35 0 77 -5v25q0 60 -85 60q-29 0 -57 -2t-42 -4l-13 -3v49q48 15 121 15q160 0 160 -121v-239zM207 333q44 0 99 55v88q-30 3 -61 3q-52 0 -79.5 -22.5t-27.5 -55.5q0 -31 19.5 -49.5
t49.5 -18.5z" />
    <glyph glyph-name="guillemotleft" unicode="&#xab;" horiz-adv-x="605" 
d="M328 376l-135 -127l134 -130l-44 -50l-184 181l185 175zM533 376l-135 -127l134 -130l-44 -50l-184 181l185 175z" />
    <glyph glyph-name="logicalnot" unicode="&#xac;" horiz-adv-x="558" 
d="M496 357v-247h-86v166h-349v81h435z" />
    <glyph glyph-name="uni00AD" unicode="&#xad;" horiz-adv-x="389" 
d="M341 317v-81h-294v81h294z" />
    <glyph glyph-name="registered" unicode="&#xae;" horiz-adv-x="771" 
d="M704 445q0 -138 -90 -225t-230 -87t-229 87t-89 225q0 137 90.5 224.5t227.5 87.5t228.5 -87.5t91.5 -224.5zM636 444q0 118 -70 188.5t-182 70.5q-111 0 -180.5 -71t-69.5 -188q0 -118 68.5 -186t181.5 -68q112 0 182 68.5t70 185.5zM278 287v315q26 5 107 5
q69 0 106 -29t37 -76q0 -59 -76 -94l73 -122h-63l-58 104q-25 -8 -69 -14v-89h-57zM386 563q-35 0 -51 -1v-147q133 20 133 82q0 30 -21.5 48t-60.5 18z" />
    <glyph glyph-name="macron" unicode="&#xaf;" horiz-adv-x="491" 
d="M358 681v-55h-237v55h237z" />
    <glyph glyph-name="degree" unicode="&#xb0;" horiz-adv-x="503" 
d="M450 570q0 -85 -56 -140t-143 -55q-89 0 -144 54.5t-55 140.5t56.5 140.5t142.5 54.5q84 0 141.5 -55t57.5 -140zM365 571q0 50 -33 81.5t-81 31.5t-80.5 -31.5t-32.5 -81.5t32 -82t81 -32t81.5 32t32.5 82z" />
    <glyph glyph-name="plusminus" unicode="&#xb1;" horiz-adv-x="589" 
d="M339 594v-170h173v-81h-173v-171h-86v171h-175v81h175v170h86zM551 64v-81h-513v81h513z" />
    <glyph glyph-name="twosuperior" unicode="&#xb2;" horiz-adv-x="416" 
d="M379 278v-64h-342v64q10 6 26.5 17t59.5 43t75.5 61.5t59 67.5t26.5 67q0 81 -114 81q-28 0 -57.5 -3.5t-44.5 -7.5l-15 -4v59q52 20 131 20q90 0 136 -38.5t46 -100.5q0 -64 -66 -133.5t-153 -128.5h232z" />
    <glyph glyph-name="threesuperior" unicode="&#xb3;" horiz-adv-x="395" 
d="M24 260l24 49q6 -5 16 -12.5t43.5 -19.5t68.5 -12q56 0 85 24.5t29 61.5q0 34 -33 56t-94 22l-26 42q43 46 119 139q-25 -3 -55 -3h-146v62h286v-42q-57 -74 -124 -145q68 -8 111 -43.5t43 -87.5q0 -64 -48.5 -106t-133.5 -42q-50 0 -91 14.5t-58 28.5z" />
    <glyph glyph-name="acute" unicode="&#xb4;" horiz-adv-x="259" 
d="M170 765l54 -48l-147 -153l-42 37z" />
    <glyph glyph-name="mu" unicode="&#xb5;" horiz-adv-x="645" 
d="M552 500v-500h-104v100l-4 -6q-4 -6 -8.5 -12t-12 -15.5t-17 -18t-21 -18.5t-25.5 -18t-29.5 -14.5t-34.5 -10t-39 -3.5q-39 0 -70 11v-245h-104v533h1v217h104v-315q0 -112 106 -112q88 0 154 110v317h104z" />
    <glyph glyph-name="paragraph" unicode="&#xb6;" horiz-adv-x="762" 
d="M708 650v-90h-196v-810h-106v385q-45 -16 -97 -16q-109 0 -183 71t-74 191q0 123 94 196t247 73h315z" />
    <glyph glyph-name="periodcentered" unicode="&#xb7;" horiz-adv-x="307" 
d="M213 360q0 -27 -17 -45t-43 -18t-43 18t-17 45t17 45t43 18t43 -18t17 -45z" />
    <glyph glyph-name="cedilla" unicode="&#xb8;" horiz-adv-x="287" 
d="M133 -3h66q-10 -17 -10 -30q0 -15 16.5 -26.5t36 -19.5t36 -26.5t16.5 -44.5q0 -46 -35.5 -73.5t-94.5 -27.5q-25 0 -47.5 7t-37 16.5t-25 19.5t-14.5 17l-5 7l38 34q3 -5 9.5 -13t27 -21t40.5 -13q33 0 51 16t18 41q0 15 -15.5 27t-33.5 19t-33.5 20.5t-15.5 32.5
q0 10 3 19.5t6 13.5z" />
    <glyph glyph-name="onesuperior" unicode="&#xb9;" horiz-adv-x="316" 
d="M170 669h79v-455h-79v373q-88 -79 -133 -114l-33 49z" />
    <glyph glyph-name="ordmasculine" unicode="&#xba;" horiz-adv-x="515" 
d="M463 470q0 -85 -58 -135.5t-148 -50.5t-147.5 50.5t-57.5 135.5t57.5 135t147.5 50t148 -50t58 -135zM383 470q0 55 -34.5 87.5t-91.5 32.5t-91 -32.5t-34 -87.5t34 -87.5t91 -32.5t91.5 32.5t34.5 87.5z" />
    <glyph glyph-name="guillemotright" unicode="&#xbb;" horiz-adv-x="605" 
d="M72 375l44 50l184 -181l-185 -175l-44 49l135 127zM277 375l44 50l184 -181l-185 -175l-44 49l135 127z" />
    <glyph glyph-name="onequarter" unicode="&#xbc;" horiz-adv-x="817" 
d="M170 669h79v-455h-79v373q-88 -79 -133 -114l-33 49zM659 587l-326 -601l-66 25l326 601zM682 249h56v-286h71v-58h-71v-111h-76v111h-241v58q48 62 113 133.5t106 111.5zM662 -37v203q-63 -63 -174 -203h174z" />
    <glyph glyph-name="onehalf" unicode="&#xbd;" horiz-adv-x="901" 
d="M170 669h79v-455h-79v373q-88 -79 -133 -114l-33 49zM659 587l-326 -601l-66 25l326 601zM864 -142v-64h-342v64q10 6 26.5 17t59.5 43t75.5 61.5t59 67.5t26.5 67q0 81 -114 81q-28 0 -57.5 -3.5t-44.5 -7.5l-15 -4v59q52 20 131 20q90 0 136 -38.5t46 -100.5
q0 -112 -219 -262h232z" />
    <glyph glyph-name="threequarters" unicode="&#xbe;" horiz-adv-x="874" 
d="M24 260l24 49q6 -5 16 -12.5t43.5 -19.5t68.5 -12q56 0 85 24.5t29 61.5q0 34 -33 56t-94 22l-26 42q43 46 119 139q-25 -3 -55 -3h-146v62h286v-42q-57 -74 -124 -145q68 -8 111 -43.5t43 -87.5q0 -64 -48.5 -106t-133.5 -42q-50 0 -91 14.5t-58 28.5zM716 587
l-326 -601l-66 25l326 601zM739 249h56v-286h71v-58h-71v-111h-76v111h-241v58q48 62 113 133.5t107 111.5zM719 -37v203q-63 -63 -174 -203h174z" />
    <glyph glyph-name="questiondown" unicode="&#xbf;" horiz-adv-x="423" 
d="M418 -153v-78q-6 -4 -17.5 -10t-54.5 -15.5t-94 -9.5q-127 0 -193.5 51.5t-66.5 126.5q0 42 15 74t38.5 52t51.5 36t55 31t48 32.5t31.5 45t5.5 63.5l77 10q6 -28 6 -51q0 -45 -22 -79.5t-53.5 -56t-63 -40.5t-53.5 -45t-22 -59q0 -49 41 -77.5t126 -28.5q36 0 72.5 7
t54.5 14zM329 452q0 -27 -17 -45t-43 -18t-43 18t-17 45t17 45t43 18t43 -18t17 -45z" />
    <glyph glyph-name="Agrave" unicode="&#xc0;" horiz-adv-x="716" 
d="M295 650l1 -2l1 2h129l266 -650h-111l-63 153h-324l-60 -153h-110zM357 568q-4 -10 -26.5 -67.5t-54.5 -140.5t-53 -136h267zM240 852l54 48l135 -164l-42 -37z" />
    <glyph glyph-name="Aacute" unicode="&#xc1;" horiz-adv-x="716" 
d="M295 650l1 -2l1 2h129l266 -650h-111l-63 153h-324l-60 -153h-110zM357 568q-4 -10 -26.5 -67.5t-54.5 -140.5t-53 -136h267zM417 900l54 -48l-147 -153l-42 37z" />
    <glyph glyph-name="Acircumflex" unicode="&#xc2;" horiz-adv-x="716" 
d="M295 650l1 -2l1 2h129l266 -650h-111l-63 153h-324l-60 -153h-110zM357 568q-4 -10 -26.5 -67.5t-54.5 -140.5t-53 -136h267zM358 910l169 -116l-35 -63l-134 96l-134 -96l-35 63z" />
    <glyph glyph-name="Atilde" unicode="&#xc3;" horiz-adv-x="716" 
d="M295 650l1 -2l1 2h129l266 -650h-111l-63 153h-324l-60 -153h-110zM357 568q-4 -10 -26.5 -67.5t-54.5 -140.5t-53 -136h267zM527 866l22 -40q-1 -3 -3.5 -8t-11.5 -17t-19.5 -21.5t-30 -17.5t-41.5 -8q-37 0 -78.5 23t-73.5 23q-28 0 -52.5 -12t-34.5 -24l-10 -12
l-22 46q2 3 5 8.5t14.5 20t24.5 25t33.5 19.5t41.5 9q42 0 83.5 -24t69.5 -24q27 0 47.5 8.5t28.5 17.5z" />
    <glyph glyph-name="Adieresis" unicode="&#xc4;" horiz-adv-x="716" 
d="M295 650l1 -2l1 2h129l266 -650h-111l-63 153h-324l-60 -153h-110zM357 568q-4 -10 -26.5 -67.5t-54.5 -140.5t-53 -136h267zM511 796q0 -24 -17 -42t-42 -18t-42 18t-17 42t17 41.5t42 17.5t42 -17.5t17 -41.5zM319 796q0 -24 -17 -42t-42 -18t-41.5 18t-16.5 42
t16.5 41.5t41.5 17.5q26 0 42.5 -17.5t16.5 -41.5z" />
    <glyph glyph-name="Aring" unicode="&#xc5;" horiz-adv-x="716" 
d="M295 650l1 -2l1 2h129l266 -650h-111l-63 153h-324l-60 -153h-110zM357 568q-4 -10 -26.5 -67.5t-54.5 -140.5t-53 -136h267zM470 827q0 -48 -31.5 -79t-80.5 -31q-51 0 -82 31t-31 79t32 79t81 31q48 0 80 -31t32 -79zM421 828q0 28 -18 45.5t-45 17.5t-45.5 -17.5
t-18.5 -45.5t18.5 -46t45.5 -18t45 18t18 46z" />
    <glyph glyph-name="AE" unicode="&#xc6;" horiz-adv-x="989" 
d="M949 84v-84h-464v153h-276l-100 -153h-117l443 650h489v-85h-335v-184h273v-82h-273v-215h360zM478 565l-223 -341h230v341h-7z" />
    <glyph glyph-name="Ccedilla" unicode="&#xc7;" horiz-adv-x="703" 
d="M623 632v-206h-83v138q-61 13 -120 13q-117 0 -185.5 -70.5t-68.5 -186.5q0 -112 67 -178.5t177 -66.5q38 0 76 10.5t65.5 25t49.5 29t33 24.5l11 11l36 -58q-4 -5 -10.5 -13t-31 -29t-51.5 -37.5t-71 -32t-91 -19.5q-4 -12 -4 -19q0 -15 16.5 -26.5t36 -19.5t36 -26.5
t16.5 -44.5q0 -46 -35.5 -73.5t-94.5 -27.5q-25 0 -47.5 7t-37 16.5t-25 19.5t-15.5 17l-4 7l38 34q3 -5 9.5 -13t27 -21t40.5 -13q33 0 51 16t18 41q0 15 -15.5 27t-33.5 19t-33.5 20.5t-15.5 32.5q0 15 5 27q-140 11 -223.5 101t-83.5 233q0 152 100 248t256 96
q63 0 117 -8t76 -16z" />
    <glyph glyph-name="Egrave" unicode="&#xc8;" 
d="M578 84v-84h-469v650h444v-85h-335v-184h273v-82h-273v-215h360zM186 852l54 48l135 -164l-42 -37z" />
    <glyph glyph-name="Eacute" unicode="&#xc9;" 
d="M578 84v-84h-469v650h444v-85h-335v-184h273v-82h-273v-215h360zM363 900l54 -48l-147 -153l-42 37z" />
    <glyph glyph-name="Ecircumflex" unicode="&#xca;" 
d="M578 84v-84h-469v650h444v-85h-335v-184h273v-82h-273v-215h360zM304 910l169 -116l-35 -63l-134 96l-134 -96l-35 63z" />
    <glyph glyph-name="Edieresis" unicode="&#xcb;" 
d="M578 84v-84h-469v650h444v-85h-335v-184h273v-82h-273v-215h360zM457 796q0 -24 -17 -42t-42 -18t-42 18t-17 42t17 41.5t42 17.5t42 -17.5t17 -41.5zM265 796q0 -24 -17 -42t-42 -18t-41.5 18t-16.5 42t16.5 41.5t41.5 17.5q26 0 42.5 -17.5t16.5 -41.5z" />
    <glyph glyph-name="Igrave" unicode="&#xcc;" horiz-adv-x="327" 
d="M218 650v-650h-109v650h109zM45 852l54 48l135 -164l-42 -37z" />
    <glyph glyph-name="Iacute" unicode="&#xcd;" horiz-adv-x="327" 
d="M218 650v-650h-109v650h109zM222 900l54 -48l-147 -153l-42 37z" />
    <glyph glyph-name="Icircumflex" unicode="&#xce;" horiz-adv-x="327" 
d="M218 650v-650h-109v650h109zM163 910l169 -116l-35 -63l-134 96l-134 -96l-35 63z" />
    <glyph glyph-name="Idieresis" unicode="&#xcf;" horiz-adv-x="327" 
d="M218 650v-650h-109v650h109zM316 796q0 -24 -17 -42t-42 -18t-42 18t-17 42t17 41.5t42 17.5t42 -17.5t17 -41.5zM124 796q0 -24 -17 -42t-42 -18t-41.5 18t-16.5 42t16.5 41.5t41.5 17.5q26 0 42.5 -17.5t16.5 -41.5z" />
    <glyph glyph-name="Eth" unicode="&#xd0;" horiz-adv-x="781" 
d="M109 0v288h-83v68h83v294q100 14 235 14q172 0 278.5 -92.5t106.5 -248.5q0 -155 -105 -247t-279 -92q-56 0 -115 4t-90 8zM345 74q120 0 195 68.5t75 180.5q0 114 -74 183t-197 69q-44 0 -126 -6v-213h222v-68h-222v-208q72 -6 127 -6z" />
    <glyph glyph-name="Ntilde" unicode="&#xd1;" horiz-adv-x="811" 
d="M702 650v-650h-89l-413 497q3 -16 3 -39v-458h-94v650h87l416 -502q-4 13 -4 34v468h94zM580 866l22 -40q-1 -3 -3.5 -8t-11.5 -17t-19.5 -21.5t-30 -17.5t-41.5 -8q-37 0 -78.5 23t-73.5 23q-28 0 -52 -12t-34 -24l-11 -12l-22 46q2 3 5 8.5t14.5 20t24.5 25t33.5 19.5
t41.5 9q42 0 83.5 -24t69.5 -24q27 0 47.5 8.5t27.5 17.5z" />
    <glyph glyph-name="Ograve" unicode="&#xd2;" horiz-adv-x="805" 
d="M753 324q0 -152 -100 -246t-252 -94q-151 0 -250 94t-99 246t99 246t250 94q152 0 252 -94t100 -246zM641 324q0 111 -69 181t-171 70t-170 -69.5t-68 -181.5t67.5 -181t170.5 -69q104 0 172 69t68 181zM283 852l54 48l135 -164l-42 -37z" />
    <glyph glyph-name="Oacute" unicode="&#xd3;" horiz-adv-x="805" 
d="M753 324q0 -152 -100 -246t-252 -94q-151 0 -250 94t-99 246t99 246t250 94q152 0 252 -94t100 -246zM641 324q0 111 -69 181t-171 70t-170 -69.5t-68 -181.5t67.5 -181t170.5 -69q104 0 172 69t68 181zM460 900l54 -48l-147 -153l-42 37z" />
    <glyph glyph-name="Ocircumflex" unicode="&#xd4;" horiz-adv-x="805" 
d="M753 324q0 -152 -100 -246t-252 -94q-151 0 -250 94t-99 246t99 246t250 94q152 0 252 -94t100 -246zM641 324q0 111 -69 181t-171 70t-170 -69.5t-68 -181.5t67.5 -181t170.5 -69q104 0 172 69t68 181zM401 910l169 -116l-35 -63l-134 96l-134 -96l-35 63z" />
    <glyph glyph-name="Otilde" unicode="&#xd5;" horiz-adv-x="805" 
d="M753 324q0 -152 -100 -246t-252 -94q-151 0 -250 94t-99 246t99 246t250 94q152 0 252 -94t100 -246zM641 324q0 111 -69 181t-171 70t-170 -69.5t-68 -181.5t67.5 -181t170.5 -69q104 0 172 69t68 181zM570 866l22 -40q-1 -3 -3.5 -8t-11.5 -17t-19.5 -21.5t-30 -17.5
t-41.5 -8q-37 0 -78.5 23t-73.5 23q-28 0 -52 -12t-34 -24l-11 -12l-22 46q2 3 5 8.5t14.5 20t24.5 25t33.5 19.5t41.5 9q42 0 83.5 -24t69.5 -24q27 0 47.5 8.5t27.5 17.5z" />
    <glyph glyph-name="Odieresis" unicode="&#xd6;" horiz-adv-x="805" 
d="M753 324q0 -152 -100 -246t-252 -94q-151 0 -250 94t-99 246t99 246t250 94q152 0 252 -94t100 -246zM641 324q0 111 -69 181t-171 70t-170 -69.5t-68 -181.5t67.5 -181t170.5 -69q104 0 172 69t68 181zM554 796q0 -24 -17 -42t-42 -18t-42 18t-17 42t17 41.5t42 17.5
t42 -17.5t17 -41.5zM362 796q0 -24 -17 -42t-42 -18t-41.5 18t-16.5 42t16.5 41.5t41.5 17.5q26 0 42.5 -17.5t16.5 -41.5z" />
    <glyph glyph-name="multiply" unicode="&#xd7;" horiz-adv-x="443" 
d="M405 435l-120 -116l120 -115l-61 -64l-123 118l-122 -118l-61 64l120 115l-120 116l61 64l122 -118l123 118z" />
    <glyph glyph-name="Oslash" unicode="&#xd8;" horiz-adv-x="805" 
d="M753 324q0 -152 -100 -246t-252 -94q-58 0 -116 16q-7 -15 -15 -32t-17 -38t-15 -33l-48 7q17 39 51 113q-88 40 -138.5 120t-50.5 187q0 152 99 246t250 94q72 0 139 -25l45 88l48 -7q-19 -36 -51 -99q80 -43 125.5 -120t45.5 -177zM281 104q111 239 217 452
q-47 19 -97 19q-102 0 -170 -69.5t-68 -181.5q0 -75 31.5 -132t86.5 -88zM641 324q0 139 -103 209q-106 -213 -214 -448q38 -11 77 -11q104 0 172 69t68 181z" />
    <glyph glyph-name="Ugrave" unicode="&#xd9;" horiz-adv-x="779" 
d="M669 650v-650h-108v157h-2q-3 -7 -8.5 -18.5t-27.5 -41.5t-48.5 -53t-72.5 -41.5t-98 -18.5q-103 0 -153.5 58t-50.5 158v450h109v-407q0 -73 35.5 -115.5t107.5 -42.5q36 0 70 15.5t56 34t42.5 45t27.5 38t13 23.5v409h108zM259 852l54 48l135 -164l-42 -37z" />
    <glyph glyph-name="Uacute" unicode="&#xda;" horiz-adv-x="779" 
d="M669 650v-650h-108v157h-2q-3 -7 -8.5 -18.5t-27.5 -41.5t-48.5 -53t-72.5 -41.5t-98 -18.5q-103 0 -153.5 58t-50.5 158v450h109v-407q0 -73 35.5 -115.5t107.5 -42.5q36 0 70 15.5t56 34t42.5 45t27.5 38t13 23.5v409h108zM436 900l54 -48l-147 -153l-42 37z" />
    <glyph glyph-name="Ucircumflex" unicode="&#xdb;" horiz-adv-x="779" 
d="M669 650v-650h-108v157h-2q-3 -7 -8.5 -18.5t-27.5 -41.5t-48.5 -53t-72.5 -41.5t-98 -18.5q-103 0 -153.5 58t-50.5 158v450h109v-407q0 -73 35.5 -115.5t107.5 -42.5q36 0 70 15.5t56 34t42.5 45t27.5 38t13 23.5v409h108zM377 910l169 -116l-35 -63l-134 96l-134 -96
l-35 63z" />
    <glyph glyph-name="Udieresis" unicode="&#xdc;" horiz-adv-x="779" 
d="M669 650v-650h-108v157h-2q-3 -7 -8.5 -18.5t-27.5 -41.5t-48.5 -53t-72.5 -41.5t-98 -18.5q-103 0 -153.5 58t-50.5 158v450h109v-407q0 -73 35.5 -115.5t107.5 -42.5q36 0 70 15.5t56 34t42.5 45t27.5 38t13 23.5v409h108zM530 796q0 -24 -17 -42t-42 -18t-42 18
t-17 42t17 41.5t42 17.5t42 -17.5t17 -41.5zM338 796q0 -24 -17 -42t-42 -18t-41.5 18t-16.5 42t16.5 41.5t41.5 17.5q26 0 42.5 -17.5t16.5 -41.5z" />
    <glyph glyph-name="Yacute" unicode="&#xdd;" horiz-adv-x="679" 
d="M125 650q38 -68 92.5 -163.5t94.5 -164.5t42 -73l205 401h111l-352 -650h-111l90 168l-283 482h111zM418 900l54 -48l-147 -153l-42 37z" />
    <glyph glyph-name="Thorn" unicode="&#xde;" 
d="M210 650v-105q62 4 97 4q122 0 194 -61t72 -163q0 -52 -18 -93.5t-46.5 -66.5t-66 -41.5t-73.5 -23t-72 -6.5q-49 0 -87 9v-103h-101v650h101zM303 463q-11 0 -93 -5v-279q39 -3 57 -3q36 0 68 6.5t63.5 21.5t50 46t18.5 74q0 63 -44.5 101t-119.5 38z" />
    <glyph glyph-name="germandbls" unicode="&#xdf;" horiz-adv-x="681" 
d="M187 517v-517h-104v512q0 117 70 182t179 65q96 0 147.5 -44.5t51.5 -123.5q0 -107 -129 -185q108 -24 173 -82.5t65 -136.5q0 -84 -60 -143.5t-164 -59.5q-49 0 -89.5 15t-56.5 30l-16 15l33 66q4 -5 12.5 -12t37.5 -18.5t62 -11.5q67 0 101 34.5t34 86.5q0 62 -68 106
t-194 44v81q5 1 19.5 5t39 16t46 27.5t37 42t15.5 57.5q0 46 -28.5 73t-80.5 27q-60 0 -96.5 -41t-36.5 -110z" />
    <glyph glyph-name="agrave" unicode="&#xe0;" horiz-adv-x="582" 
d="M395 0v77q-58 -93 -174 -93q-78 0 -129.5 43.5t-51.5 113.5q0 77 56.5 122t174.5 45q58 0 124 -8v32q0 56 -30 80.5t-103 24.5q-36 0 -73 -4.5t-56 -9.5l-19 -5l-10 67q79 30 175 30q124 0 172 -48t48 -148v-319h-104zM258 57q38 0 72 19.5t46 33.5t19 26v105
q-54 7 -106 7q-75 0 -111 -26.5t-36 -72.5q0 -41 32 -66.5t84 -25.5zM177 717l54 48l135 -164l-42 -37z" />
    <glyph glyph-name="aacute" unicode="&#xe1;" horiz-adv-x="582" 
d="M395 0v77q-58 -93 -174 -93q-78 0 -129.5 43.5t-51.5 113.5q0 77 56.5 122t174.5 45q58 0 124 -8v32q0 56 -30 80.5t-103 24.5q-36 0 -73 -4.5t-56 -9.5l-19 -5l-10 67q79 30 175 30q124 0 172 -48t48 -148v-319h-104zM258 57q38 0 72 19.5t46 33.5t19 26v105
q-54 7 -106 7q-75 0 -111 -26.5t-36 -72.5q0 -41 32 -66.5t84 -25.5zM354 765l54 -48l-147 -153l-42 37z" />
    <glyph glyph-name="acircumflex" unicode="&#xe2;" horiz-adv-x="582" 
d="M395 0v77q-58 -93 -174 -93q-78 0 -129.5 43.5t-51.5 113.5q0 77 56.5 122t174.5 45q58 0 124 -8v32q0 56 -30 80.5t-103 24.5q-36 0 -73 -4.5t-56 -9.5l-19 -5l-10 67q79 30 175 30q124 0 172 -48t48 -148v-319h-104zM258 57q38 0 72 19.5t46 33.5t19 26v105
q-54 7 -106 7q-75 0 -111 -26.5t-36 -72.5q0 -41 32 -66.5t84 -25.5zM295 775l169 -116l-35 -63l-134 96l-134 -96l-35 63z" />
    <glyph glyph-name="atilde" unicode="&#xe3;" horiz-adv-x="582" 
d="M395 0v77q-58 -93 -174 -93q-78 0 -129.5 43.5t-51.5 113.5q0 77 56.5 122t174.5 45q58 0 124 -8v32q0 56 -30 80.5t-103 24.5q-36 0 -73 -4.5t-56 -9.5l-19 -5l-10 67q79 30 175 30q124 0 172 -48t48 -148v-319h-104zM258 57q38 0 72 19.5t46 33.5t19 26v105
q-54 7 -106 7q-75 0 -111 -26.5t-36 -72.5q0 -41 32 -66.5t84 -25.5zM464 731l22 -40q-1 -3 -3.5 -8t-11.5 -17t-19.5 -21.5t-30 -17.5t-41.5 -8q-37 0 -78.5 23t-73.5 23q-28 0 -52 -12t-34 -24l-11 -12l-22 46q2 3 5 8.5t14.5 20t24.5 25t33.5 19.5t41.5 9q42 0 83.5 -24
t69.5 -24q27 0 47.5 8.5t27.5 16.5z" />
    <glyph glyph-name="adieresis" unicode="&#xe4;" horiz-adv-x="582" 
d="M395 0v77q-58 -93 -174 -93q-78 0 -129.5 43.5t-51.5 113.5q0 77 56.5 122t174.5 45q58 0 124 -8v32q0 56 -30 80.5t-103 24.5q-36 0 -73 -4.5t-56 -9.5l-19 -5l-10 67q79 30 175 30q124 0 172 -48t48 -148v-319h-104zM258 57q38 0 72 19.5t46 33.5t19 26v105
q-54 7 -106 7q-75 0 -111 -26.5t-36 -72.5q0 -41 32 -66.5t84 -25.5zM448 661q0 -24 -17 -42t-42 -18t-42 18t-17 42t17 41.5t42 17.5t42 -17.5t17 -41.5zM256 661q0 -24 -17 -42t-42 -18t-41.5 18t-16.5 42t16.5 41.5t41.5 17.5q26 0 42.5 -17.5t16.5 -41.5z" />
    <glyph glyph-name="aring" unicode="&#xe5;" horiz-adv-x="582" 
d="M395 0v77q-58 -93 -174 -93q-78 0 -129.5 43.5t-51.5 113.5q0 77 56.5 122t174.5 45q58 0 124 -8v32q0 56 -30 80.5t-103 24.5q-36 0 -73 -4.5t-56 -9.5l-19 -5l-10 67q79 30 175 30q124 0 172 -48t48 -148v-319h-104zM258 57q38 0 72 19.5t46 33.5t19 26v105
q-54 7 -106 7q-75 0 -111 -26.5t-36 -72.5q0 -41 32 -66.5t84 -25.5zM407 692q0 -48 -31.5 -79t-80.5 -31q-51 0 -82 31t-31 79t32 79t81 31q48 0 80 -31t32 -79zM358 693q0 28 -18 45.5t-45 17.5t-45.5 -17.5t-18.5 -45.5t18.5 -46t45.5 -18t45 18t18 46z" />
    <glyph glyph-name="ae" unicode="&#xe6;" horiz-adv-x="914" 
d="M840 115l23 -67q-3 -3 -8.5 -7t-26 -15t-43 -19.5t-59.5 -15.5t-77 -7q-75 0 -136.5 33.5t-93.5 95.5q-9 -21 -23 -40t-37 -41t-59 -35t-79 -13q-86 0 -133.5 42.5t-47.5 114.5q0 77 58 123t175 46q61 0 125 -10q2 8 2 10l2 22q0 54 -31.5 80.5t-100.5 26.5q-34 0 -73 -6
t-61 -11l-22 -6l-9 68q101 31 190 31q139 0 173 -75q69 75 171 75q99 0 163 -56t64 -161q0 -19 -3 -37.5t-6 -26.5l-3 -9h-362v-12q0 -70 51 -110.5t126 -40.5q48 0 90.5 13t61.5 27zM249 62q101 0 149 110q-6 27 -6 58v20q-62 8 -105 8q-145 0 -145 -104q0 -42 27.5 -67
t79.5 -25zM640 441q-60 0 -102.5 -44.5t-47.5 -114.5q188 0 286 3q1 11 1 23q0 67 -38.5 100t-98.5 33z" />
    <glyph glyph-name="ccedilla" unicode="&#xe7;" horiz-adv-x="520" 
d="M486 124l27 -58q-6 -7 -17 -18t-53 -32.5t-91 -28.5q-5 -10 -5 -20q0 -15 16.5 -26.5t36 -19.5t36 -26.5t16.5 -44.5q0 -46 -35.5 -73.5t-94.5 -27.5q-40 0 -72 16.5t-44 33.5l-13 17l38 34q3 -5 9.5 -13t27 -21t40.5 -13q33 0 51 16t18 41q0 15 -15.5 27t-33.5 19
t-33.5 20.5t-15.5 32.5q0 14 5 26q-108 6 -176 73t-68 176q0 127 79 204t199 77q33 0 71 -5.5t59 -10.5l22 -5v-82q-74 21 -143 21q-81 0 -133 -54t-52 -137q0 -81 51 -128.5t124 -47.5q46 0 88 14.5t61 29.5z" />
    <glyph glyph-name="egrave" unicode="&#xe8;" horiz-adv-x="562" 
d="M488 115l23 -67q-3 -3 -8.5 -7t-26 -15t-43 -19.5t-59.5 -15.5t-77 -7q-107 0 -182 66t-75 180q0 126 71 205.5t176 79.5q99 0 163 -56t64 -161q0 -19 -3 -37.5t-6 -26.5l-3 -9h-362v-12q0 -70 51 -110.5t126 -40.5q48 0 90.5 13t61.5 27zM288 441q-60 0 -102.5 -44.5
t-47.5 -114.5q188 0 286 3q1 11 1 23q0 67 -38.5 100t-98.5 33zM186 717l54 48l135 -164l-42 -37z" />
    <glyph glyph-name="eacute" unicode="&#xe9;" horiz-adv-x="562" 
d="M488 115l23 -67q-3 -3 -8.5 -7t-26 -15t-43 -19.5t-59.5 -15.5t-77 -7q-107 0 -182 66t-75 180q0 126 71 205.5t176 79.5q99 0 163 -56t64 -161q0 -19 -3 -37.5t-6 -26.5l-3 -9h-362v-12q0 -70 51 -110.5t126 -40.5q48 0 90.5 13t61.5 27zM288 441q-60 0 -102.5 -44.5
t-47.5 -114.5q188 0 286 3q1 11 1 23q0 67 -38.5 100t-98.5 33zM363 765l54 -48l-147 -153l-42 37z" />
    <glyph glyph-name="ecircumflex" unicode="&#xea;" horiz-adv-x="562" 
d="M488 115l23 -67q-3 -3 -8.5 -7t-26 -15t-43 -19.5t-59.5 -15.5t-77 -7q-107 0 -182 66t-75 180q0 126 71 205.5t176 79.5q99 0 163 -56t64 -161q0 -19 -3 -37.5t-6 -26.5l-3 -9h-362v-12q0 -70 51 -110.5t126 -40.5q48 0 90.5 13t61.5 27zM288 441q-60 0 -102.5 -44.5
t-47.5 -114.5q188 0 286 3q1 11 1 23q0 67 -38.5 100t-98.5 33zM304 775l169 -116l-35 -63l-134 96l-134 -96l-35 63z" />
    <glyph glyph-name="edieresis" unicode="&#xeb;" horiz-adv-x="562" 
d="M488 115l23 -67q-3 -3 -8.5 -7t-26 -15t-43 -19.5t-59.5 -15.5t-77 -7q-107 0 -182 66t-75 180q0 126 71 205.5t176 79.5q99 0 163 -56t64 -161q0 -19 -3 -37.5t-6 -26.5l-3 -9h-362v-12q0 -70 51 -110.5t126 -40.5q48 0 90.5 13t61.5 27zM288 441q-60 0 -102.5 -44.5
t-47.5 -114.5q188 0 286 3q1 11 1 23q0 67 -38.5 100t-98.5 33zM457 661q0 -24 -17 -42t-42 -18t-42 18t-17 42t17 41.5t42 17.5t42 -17.5t17 -41.5zM265 661q0 -24 -17 -42t-42 -18t-41.5 18t-16.5 42t16.5 41.5t41.5 17.5q26 0 42.5 -17.5t16.5 -41.5z" />
    <glyph glyph-name="igrave" unicode="&#xec;" horiz-adv-x="289" 
d="M197 500v-500h-104v500h104zM28 717l54 48l135 -164l-42 -37z" />
    <glyph glyph-name="iacute" unicode="&#xed;" horiz-adv-x="289" 
d="M197 500v-500h-104v500h104zM205 765l54 -48l-147 -153l-42 37z" />
    <glyph glyph-name="icircumflex" unicode="&#xee;" horiz-adv-x="289" 
d="M197 500v-500h-104v500h104zM146 775l169 -116l-35 -63l-134 96l-134 -96l-35 63z" />
    <glyph glyph-name="idieresis" unicode="&#xef;" horiz-adv-x="289" 
d="M197 500v-500h-104v500h104zM299 661q0 -24 -17 -42t-42 -18t-42 18t-17 42t17 41.5t42 17.5t42 -17.5t17 -41.5zM107 661q0 -24 -17 -42t-42 -18t-41.5 18t-16.5 42t16.5 41.5t41.5 17.5q26 0 42.5 -17.5t16.5 -41.5z" />
    <glyph glyph-name="eth" unicode="&#xf0;" horiz-adv-x="619" 
d="M513 739l28 -44l-114 -69q138 -125 138 -351q0 -128 -66 -209.5t-203 -81.5q-109 0 -176.5 61.5t-67.5 161.5q0 108 65.5 165.5t169.5 57.5q34 0 63.5 -6.5t47 -16t30 -19.5t17.5 -16l5 -7h3q-20 133 -105 212l-159 -96l-27 44l143 87q-48 32 -109 58l32 69
q90 -33 156 -79zM299 68q81 0 120.5 55t39.5 152q0 17 -1 25q-52 52 -144 52q-74 0 -114.5 -38.5t-40.5 -106.5q0 -63 38.5 -101t101.5 -38z" />
    <glyph glyph-name="ntilde" unicode="&#xf1;" horiz-adv-x="645" 
d="M93 0v500h104v-102q73 117 191 117q82 0 127.5 -49.5t45.5 -148.5v-317h-104v315q0 112 -106 112q-32 0 -61.5 -15t-49 -37t-29.5 -36t-14 -22v-317h-104zM480 732l22 -40q-1 -3 -3.5 -8t-11.5 -17t-19.5 -21.5t-30 -17.5t-41.5 -8q-37 0 -78.5 23t-73.5 23
q-28 0 -52 -12t-34 -24l-11 -12l-22 46q2 3 5 8.5t14.5 20t24.5 25t33.5 19.5t41.5 9q42 0 83.5 -24t69.5 -24q27 0 47.5 8.5t27.5 17.5z" />
    <glyph glyph-name="ograve" unicode="&#xf2;" horiz-adv-x="640" 
d="M599 250q0 -120 -79 -193t-201 -73t-200.5 73t-78.5 193t78.5 192.5t200.5 72.5q123 0 201.5 -72.5t78.5 -192.5zM319 433q-74 0 -123 -50t-49 -133t49 -133.5t123 -50.5q75 0 124.5 50.5t49.5 133.5t-49.5 133t-124.5 50zM202 717l54 48l135 -164l-42 -37z" />
    <glyph glyph-name="oacute" unicode="&#xf3;" horiz-adv-x="640" 
d="M599 250q0 -120 -79 -193t-201 -73t-200.5 73t-78.5 193t78.5 192.5t200.5 72.5q123 0 201.5 -72.5t78.5 -192.5zM319 433q-74 0 -123 -50t-49 -133t49 -133.5t123 -50.5q75 0 124.5 50.5t49.5 133.5t-49.5 133t-124.5 50zM378 765l54 -48l-147 -153l-42 37z" />
    <glyph glyph-name="ocircumflex" unicode="&#xf4;" horiz-adv-x="640" 
d="M599 250q0 -120 -79 -193t-201 -73t-200.5 73t-78.5 193t78.5 192.5t200.5 72.5q123 0 201.5 -72.5t78.5 -192.5zM319 433q-74 0 -123 -50t-49 -133t49 -133.5t123 -50.5q75 0 124.5 50.5t49.5 133.5t-49.5 133t-124.5 50zM319 775l169 -116l-35 -63l-134 96l-134 -96
l-35 63z" />
    <glyph glyph-name="otilde" unicode="&#xf5;" horiz-adv-x="640" 
d="M599 250q0 -120 -79 -193t-201 -73t-200.5 73t-78.5 193t78.5 192.5t200.5 72.5q123 0 201.5 -72.5t78.5 -192.5zM319 433q-74 0 -123 -50t-49 -133t49 -133.5t123 -50.5q75 0 124.5 50.5t49.5 133.5t-49.5 133t-124.5 50zM488 731l22 -40q-1 -3 -3.5 -8t-11.5 -17
t-19.5 -21.5t-30 -17.5t-41.5 -8q-37 0 -78.5 23t-73.5 23q-28 0 -52 -12t-34 -24l-11 -12l-22 46q2 3 5 8.5t14.5 20t24.5 25t33.5 19.5t41.5 9q42 0 83.5 -24t69.5 -24q27 0 47.5 8.5t27.5 16.5z" />
    <glyph glyph-name="odieresis" unicode="&#xf6;" horiz-adv-x="640" 
d="M599 250q0 -120 -79 -193t-201 -73t-200.5 73t-78.5 193t78.5 192.5t200.5 72.5q123 0 201.5 -72.5t78.5 -192.5zM319 433q-74 0 -123 -50t-49 -133t49 -133.5t123 -50.5q75 0 124.5 50.5t49.5 133.5t-49.5 133t-124.5 50zM472 661q0 -24 -17 -42t-42 -18t-42 18t-17 42
t17 41.5t42 17.5t42 -17.5t17 -41.5zM280 661q0 -24 -17 -42t-42 -18t-41.5 18t-16.5 42t16.5 41.5t41.5 17.5q26 0 42.5 -17.5t16.5 -41.5z" />
    <glyph glyph-name="divide" unicode="&#xf7;" horiz-adv-x="589" 
d="M353 485q0 -27 -17 -45t-43 -18t-43 18t-17 45t17 45t43 18t43 -18t17 -45zM355 151q0 -27 -17 -45t-43 -18t-43 18t-17 45t17 45t43 18t43 -18t17 -45zM551 317v-81h-513v81h513z" />
    <glyph glyph-name="oslash" unicode="&#xf8;" horiz-adv-x="640" 
d="M599 250q0 -120 -79 -193t-201 -73q-44 0 -86 11q-25 -52 -82 -176l-49 8q28 62 86 184q-69 31 -108.5 93t-39.5 146q0 120 78.5 192.5t200.5 72.5q56 0 103 -16l75 151l48 -8q-30 -60 -80 -161q63 -33 98.5 -92.5t35.5 -138.5zM319 433q-74 0 -123 -50t-49 -133
q0 -109 79 -158l158 329q-30 12 -65 12zM425 399l-156 -326q22 -7 50 -7q75 0 124.5 50.5t49.5 133.5q0 99 -68 149z" />
    <glyph glyph-name="ugrave" unicode="&#xf9;" horiz-adv-x="645" 
d="M552 500v-500h-104v100l-4 -6q-4 -6 -8.5 -12t-12 -15.5t-17 -18t-21 -18.5t-25.5 -18t-29.5 -14.5t-34.5 -10t-39 -3.5q-82 0 -127.5 49.5t-45.5 148.5v318h104v-315q0 -112 106 -112q88 0 154 110v317h104zM201 717l54 48l135 -164l-42 -37z" />
    <glyph glyph-name="uacute" unicode="&#xfa;" horiz-adv-x="645" 
d="M552 500v-500h-104v100l-4 -6q-4 -6 -8.5 -12t-12 -15.5t-17 -18t-21 -18.5t-25.5 -18t-29.5 -14.5t-34.5 -10t-39 -3.5q-82 0 -127.5 49.5t-45.5 148.5v318h104v-315q0 -112 106 -112q88 0 154 110v317h104zM378 765l54 -48l-147 -153l-42 37z" />
    <glyph glyph-name="ucircumflex" unicode="&#xfb;" horiz-adv-x="645" 
d="M552 500v-500h-104v100l-4 -6q-4 -6 -8.5 -12t-12 -15.5t-17 -18t-21 -18.5t-25.5 -18t-29.5 -14.5t-34.5 -10t-39 -3.5q-82 0 -127.5 49.5t-45.5 148.5v318h104v-315q0 -112 106 -112q88 0 154 110v317h104zM319 775l169 -116l-35 -63l-134 96l-134 -96l-35 63z" />
    <glyph glyph-name="udieresis" unicode="&#xfc;" horiz-adv-x="645" 
d="M552 500v-500h-104v100l-4 -6q-4 -6 -8.5 -12t-12 -15.5t-17 -18t-21 -18.5t-25.5 -18t-29.5 -14.5t-34.5 -10t-39 -3.5q-82 0 -127.5 49.5t-45.5 148.5v318h104v-315q0 -112 106 -112q88 0 154 110v317h104zM472 661q0 -24 -17 -42t-42 -18t-42 18t-17 42t17 41.5
t42 17.5t42 -17.5t17 -41.5zM280 661q0 -24 -17 -42t-42 -18t-41.5 18t-16.5 42t16.5 41.5t41.5 17.5q26 0 42.5 -17.5t16.5 -41.5z" />
    <glyph glyph-name="yacute" unicode="&#xfd;" horiz-adv-x="594" 
d="M462 500h113l-228 -495l-117 -255h-107l116 253l-220 497h117l162 -397zM365 765l54 -48l-147 -153l-42 37z" />
    <glyph glyph-name="thorn" unicode="&#xfe;" horiz-adv-x="636" 
d="M83 -250v1000h104v-321q77 86 178 86q99 0 165 -71t66 -184q0 -123 -80.5 -199.5t-210.5 -76.5q-60 0 -118 7v-241h-104zM327 430q-35 0 -69 -16t-49 -29t-22 -22v-292q49 -13 102 -13q95 0 147.5 52.5t52.5 139.5q0 82 -45.5 131t-116.5 49z" />
    <glyph glyph-name="ydieresis" unicode="&#xff;" horiz-adv-x="594" 
d="M462 500h113l-228 -495l-117 -255h-107l116 253l-220 497h117l162 -397zM459 661q0 -24 -17 -42t-42 -18t-42 18t-17 42t17 41.5t42 17.5t42 -17.5t17 -41.5zM267 661q0 -24 -17 -42t-42 -18t-41.5 18t-16.5 42t16.5 41.5t41.5 17.5q26 0 42.5 -17.5t16.5 -41.5z" />
    <glyph glyph-name="Amacron" unicode="&#x100;" horiz-adv-x="716" 
d="M295 650l1 -2l1 2h129l266 -650h-111l-63 153h-324l-60 -153h-110zM357 568q-4 -10 -26.5 -67.5t-54.5 -140.5t-53 -136h267zM476 816v-55h-237v55h237z" />
    <glyph glyph-name="amacron" unicode="&#x101;" horiz-adv-x="582" 
d="M395 0v77q-58 -93 -174 -93q-78 0 -129.5 43.5t-51.5 113.5q0 77 56.5 122t174.5 45q58 0 124 -8v32q0 56 -30 80.5t-103 24.5q-36 0 -73 -4.5t-56 -9.5l-19 -5l-10 67q79 30 175 30q124 0 172 -48t48 -148v-319h-104zM258 57q38 0 72 19.5t46 33.5t19 26v105
q-54 7 -106 7q-75 0 -111 -26.5t-36 -72.5q0 -41 32 -66.5t84 -25.5zM413 681v-55h-237v55h237z" />
    <glyph glyph-name="Abreve" unicode="&#x102;" horiz-adv-x="716" 
d="M295 650l1 -2l1 2h129l266 -650h-111l-63 153h-324l-60 -153h-110zM357 568q-4 -10 -26.5 -67.5t-54.5 -140.5t-53 -136h267zM358 786q38 0 72 16.5t49 33.5l15 16l40 -57q-2 -3 -7 -9t-21.5 -20.5t-35 -25.5t-49 -20t-63.5 -9t-63 8.5t-49.5 21t-34.5 25t-22 20.5l-7 9
l39 57q6 -7 17 -18t46.5 -29.5t73.5 -18.5z" />
    <glyph glyph-name="abreve" unicode="&#x103;" horiz-adv-x="582" 
d="M395 0v77q-58 -93 -174 -93q-78 0 -129.5 43.5t-51.5 113.5q0 77 56.5 122t174.5 45q58 0 124 -8v32q0 56 -30 80.5t-103 24.5q-36 0 -73 -4.5t-56 -9.5l-19 -5l-10 67q79 30 175 30q124 0 172 -48t48 -148v-319h-104zM258 57q38 0 72 19.5t46 33.5t19 26v105
q-54 7 -106 7q-75 0 -111 -26.5t-36 -72.5q0 -41 32 -66.5t84 -25.5zM295 651q38 0 72 16.5t49 32.5l15 17l40 -57q-2 -3 -7 -9t-21.5 -20.5t-35 -25.5t-49 -20t-63.5 -9t-63 8.5t-49.5 21t-34.5 25t-22 21.5l-7 8l39 57q6 -7 17 -18t46.5 -29.5t73.5 -18.5z" />
    <glyph glyph-name="Aogonek" unicode="&#x104;" horiz-adv-x="716" 
d="M295 650l1 -2l1 2h129l266 -650h-19q-4 -2 -11.5 -5t-26 -14.5t-32.5 -25t-25.5 -35.5t-11.5 -47q0 -70 123 -70v-54q-198 0 -198 123q0 73 93 128h-3l-63 153h-324l-60 -153h-110zM357 568q-4 -10 -26.5 -67.5t-54.5 -140.5t-53 -136h267z" />
    <glyph glyph-name="aogonek" unicode="&#x105;" horiz-adv-x="582" 
d="M395 0v77q-58 -93 -174 -93q-78 0 -129.5 43.5t-51.5 113.5q0 77 56.5 122t174.5 45q58 0 124 -8v32q0 56 -30 80.5t-103 24.5q-36 0 -73 -4.5t-56 -9.5l-19 -5l-10 67q79 30 175 30q124 0 172 -48t48 -148v-319h-12q-4 -2 -11.5 -5t-26 -14.5t-32.5 -25t-25.5 -35.5
t-11.5 -47q0 -70 123 -70v-54q-198 0 -198 123q0 73 93 128h-3zM258 57q38 0 72 19.5t46 33.5t19 26v105q-54 7 -106 7q-75 0 -111 -26.5t-36 -72.5q0 -41 32 -66.5t84 -25.5z" />
    <glyph glyph-name="Cacute" unicode="&#x106;" horiz-adv-x="703" 
d="M623 632v-206h-83v138q-61 13 -120 13q-117 0 -185.5 -70.5t-68.5 -186.5q0 -112 67 -178.5t177 -66.5q38 0 76 10.5t65.5 25t49.5 29t33 24.5l11 11l36 -58q-4 -5 -11.5 -14t-35 -32t-58 -40.5t-79.5 -32t-102 -14.5q-155 0 -249 92t-94 244t100 248t256 96q63 0 117 -8
t76 -16zM464 900l54 -48l-147 -153l-42 37z" />
    <glyph glyph-name="cacute" unicode="&#x107;" horiz-adv-x="520" 
d="M486 124l27 -58q-3 -3 -8 -8.5t-23.5 -20t-40.5 -25t-59 -19.5t-78 -9q-115 0 -189.5 67.5t-74.5 182.5q0 127 79 204t199 77q33 0 71 -5.5t59 -10.5l22 -5v-82q-74 21 -143 21q-81 0 -133 -54t-52 -137q0 -81 51 -128.5t124 -47.5q46 0 88 14.5t61 29.5zM379 765l54 -48
l-147 -153l-42 37z" />
    <glyph glyph-name="Ccaron" unicode="&#x10c;" horiz-adv-x="703" 
d="M623 632v-206h-83v138q-61 13 -120 13q-117 0 -185.5 -70.5t-68.5 -186.5q0 -112 67 -178.5t177 -66.5q38 0 76 10.5t65.5 25t49.5 29t33 24.5l11 11l36 -58q-4 -5 -11.5 -14t-35 -32t-58 -40.5t-79.5 -32t-102 -14.5q-155 0 -249 92t-94 244t100 248t256 96q63 0 117 -8
t76 -16zM405 716l-169 116l35 63l133 -96l135 96l35 -63z" />
    <glyph glyph-name="ccaron" unicode="&#x10d;" horiz-adv-x="520" 
d="M486 124l27 -58q-3 -3 -8 -8.5t-23.5 -20t-40.5 -25t-59 -19.5t-78 -9q-115 0 -189.5 67.5t-74.5 182.5q0 127 79 204t199 77q33 0 71 -5.5t59 -10.5l22 -5v-82q-74 21 -143 21q-81 0 -133 -54t-52 -137q0 -81 51 -128.5t124 -47.5q46 0 88 14.5t61 29.5zM320 581
l-169 116l35 63l133 -96l135 96l35 -63z" />
    <glyph glyph-name="Dcaron" unicode="&#x10e;" horiz-adv-x="781" 
d="M109 0v650q100 14 235 14q172 0 278.5 -92.5t106.5 -248.5q0 -155 -105 -247t-279 -92q-56 0 -115 4t-90 8zM345 74q120 0 195 68.5t75 180.5q0 114 -74 183t-197 69q-44 0 -126 -6v-489q72 -6 127 -6zM338 716l-169 116l35 63l133 -96l135 96l35 -63z" />
    <glyph glyph-name="dcaron" unicode="&#x10f;" horiz-adv-x="684" 
d="M553 750v-750h-104v66q-6 -9 -22 -24.5t-60 -36.5t-94 -21q-106 0 -169.5 66.5t-63.5 181.5q0 123 84.5 203t224.5 80q50 0 100 -9v244h104zM309 69q82 0 140 66v291q-45 15 -91 15q-101 0 -156 -54.5t-55 -142.5q0 -82 45 -128.5t117 -46.5zM778 734l-108 -178l-61 27
l106 182z" />
    <glyph glyph-name="Dcroat" unicode="&#x110;" horiz-adv-x="781" 
d="M109 0v288h-83v68h83v294q100 14 235 14q172 0 278.5 -92.5t106.5 -248.5q0 -155 -105 -247t-279 -92q-56 0 -115 4t-90 8zM345 74q120 0 195 68.5t75 180.5q0 114 -74 183t-197 69q-44 0 -126 -6v-213h222v-68h-222v-208q72 -6 127 -6z" />
    <glyph glyph-name="dcroat" unicode="&#x111;" horiz-adv-x="665" 
d="M553 750v-72h136v-72h-136v-606h-104v66q-6 -9 -22 -24.5t-60 -36.5t-94 -21q-106 0 -169.5 66.5t-63.5 181.5q0 123 84.5 203t224.5 80q50 0 100 -9v100h-200v72h200v72h104zM309 69q82 0 140 66v291q-45 15 -91 15q-101 0 -156 -54.5t-55 -142.5q0 -82 45 -128.5
t117 -46.5z" />
    <glyph glyph-name="Emacron" unicode="&#x112;" 
d="M578 84v-84h-469v650h444v-85h-335v-184h273v-82h-273v-215h360zM422 816v-55h-237v55h237z" />
    <glyph glyph-name="emacron" unicode="&#x113;" horiz-adv-x="562" 
d="M488 115l23 -67q-3 -3 -8.5 -7t-26 -15t-43 -19.5t-59.5 -15.5t-77 -7q-107 0 -182 66t-75 180q0 126 71 205.5t176 79.5q99 0 163 -56t64 -161q0 -19 -3 -37.5t-6 -26.5l-3 -9h-362v-12q0 -70 51 -110.5t126 -40.5q48 0 90.5 13t61.5 27zM288 441q-60 0 -102.5 -44.5
t-47.5 -114.5q188 0 286 3q1 11 1 23q0 67 -38.5 100t-98.5 33zM421 681v-55h-237v55h237z" />
    <glyph glyph-name="Edotaccent" unicode="&#x116;" 
d="M578 84v-84h-469v650h444v-85h-335v-184h273v-82h-273v-215h360zM360 796q0 -24 -16 -42t-43 -18q-26 0 -42.5 18t-16.5 42t16.5 41.5t42.5 17.5q27 0 43 -17.5t16 -41.5z" />
    <glyph glyph-name="edotaccent" unicode="&#x117;" horiz-adv-x="562" 
d="M488 115l23 -67q-3 -3 -8.5 -7t-26 -15t-43 -19.5t-59.5 -15.5t-77 -7q-107 0 -182 66t-75 180q0 126 71 205.5t176 79.5q99 0 163 -56t64 -161q0 -19 -3 -37.5t-6 -26.5l-3 -9h-362v-12q0 -70 51 -110.5t126 -40.5q48 0 90.5 13t61.5 27zM288 441q-60 0 -102.5 -44.5
t-47.5 -114.5q188 0 286 3q1 11 1 23q0 67 -38.5 100t-98.5 33zM359 661q0 -24 -16 -42t-43 -18q-26 0 -42.5 18t-16.5 42t16.5 41.5t42.5 17.5q27 0 43 -17.5t16 -41.5z" />
    <glyph glyph-name="Eogonek" unicode="&#x118;" 
d="M578 84v-84h-172q-4 -2 -11.5 -5t-26 -14.5t-32.5 -25t-25.5 -35.5t-11.5 -47q0 -70 123 -70v-54q-198 0 -198 123q0 73 93 128h-208v650h444v-85h-335v-184h273v-82h-273v-215h360z" />
    <glyph glyph-name="eogonek" unicode="&#x119;" horiz-adv-x="562" 
d="M488 115l23 -67q-45 -39 -130 -56q-33 -15 -61 -45t-28 -74q0 -70 123 -70v-54q-198 0 -198 123q0 62 69 112q-104 4 -175 69.5t-71 176.5q0 126 71 205.5t176 79.5q99 0 163 -56t64 -161q0 -19 -3 -37.5t-6 -26.5l-3 -9h-362v-12q0 -70 51 -110.5t126 -40.5
q48 0 90.5 13t61.5 27zM288 441q-60 0 -102.5 -44.5t-47.5 -114.5q188 0 286 3q1 11 1 23q0 67 -38.5 100t-98.5 33z" />
    <glyph glyph-name="Ecaron" unicode="&#x11a;" 
d="M578 84v-84h-469v650h444v-85h-335v-184h273v-82h-273v-215h360zM304 716l-169 116l35 63l133 -96l135 96l35 -63z" />
    <glyph glyph-name="ecaron" unicode="&#x11b;" horiz-adv-x="562" 
d="M488 115l23 -67q-3 -3 -8.5 -7t-26 -15t-43 -19.5t-59.5 -15.5t-77 -7q-107 0 -182 66t-75 180q0 126 71 205.5t176 79.5q99 0 163 -56t64 -161q0 -19 -3 -37.5t-6 -26.5l-3 -9h-362v-12q0 -70 51 -110.5t126 -40.5q48 0 90.5 13t61.5 27zM288 441q-60 0 -102.5 -44.5
t-47.5 -114.5q188 0 286 3q1 11 1 23q0 67 -38.5 100t-98.5 33zM304 581l-169 116l35 63l133 -96l135 96l35 -63z" />
    <glyph glyph-name="Gbreve" unicode="&#x11e;" horiz-adv-x="750" 
d="M426 71q82 0 156 31v286h92v-333q-4 -3 -11 -7.5t-31.5 -17t-52 -22t-70.5 -17t-89 -7.5q-172 0 -270 91t-98 248q0 153 103.5 247t267.5 94q61 0 117 -8t82 -16l25 -8v-82q-100 30 -205 30q-131 0 -205 -70t-74 -187q0 -118 73.5 -185t189.5 -67zM424 786q38 0 72 16.5
t49 33.5l15 16l40 -57q-2 -3 -7 -9t-21.5 -20.5t-35 -25.5t-49 -20t-63.5 -9t-63 8.5t-49.5 21t-34.5 25t-22 20.5l-7 9l39 57q6 -7 17 -18t46.5 -29.5t73.5 -18.5z" />
    <glyph glyph-name="gbreve" unicode="&#x11f;" horiz-adv-x="522" 
d="M431 497q40 -69 40 -152q0 -81 -50.5 -136t-143.5 -55q-32 0 -53 4q-15 -51 -15 -73q22 3 50 3q120 0 192.5 -44t72.5 -130q0 -77 -63.5 -128.5t-174.5 -51.5q-117 0 -178 48t-61 131q0 58 24 98t56 60q6 34 26 112q-82 47 -82 146q0 84 56.5 135t160.5 51
q29 0 64.5 -4.5t57.5 -8.5zM248 16q-26 0 -76 -8q-40 -31 -40 -91q0 -49 40 -77t110 -28q67 0 104.5 29.5t37.5 75.5t-47 72.5t-129 26.5zM382 335q0 46 -25 98q-47 7 -73 7q-59 0 -92 -29t-33 -82q0 -43 29.5 -73t80.5 -30q52 0 82.5 31.5t30.5 77.5zM261 650q38 0 72 16.5
t49 33.5l15 16l40 -57q-2 -3 -7 -9t-21.5 -20.5t-35 -25.5t-49 -20t-63.5 -9t-63 8.5t-49.5 21t-34.5 25t-22 20.5l-7 9l39 57q6 -7 17 -18t46.5 -29.5t73.5 -18.5z" />
    <glyph glyph-name="Gcommaaccent" unicode="&#x122;" horiz-adv-x="750" 
d="M426 71q82 0 156 31v286h92v-333q-4 -3 -11 -7.5t-31.5 -17t-52 -22t-70.5 -17t-89 -7.5q-172 0 -270 91t-98 248q0 153 103.5 247t267.5 94q61 0 117 -8t82 -16l25 -8v-82q-100 30 -205 30q-131 0 -205 -70t-74 -187q0 -118 73.5 -185t189.5 -67zM368 -48l64 -8
q0 -42 -19.5 -98.5t-46.5 -93.5l-55 10q57 102 57 190z" />
    <glyph glyph-name="gcommaaccent" unicode="&#x123;" horiz-adv-x="522" 
d="M299 777l55 -10q-56 -98 -56 -190l-65 8q0 42 20 98t46 94zM431 497q40 -69 40 -152q0 -81 -50.5 -136t-143.5 -55q-32 0 -53 4q-15 -51 -15 -73q22 3 50 3q120 0 192.5 -44t72.5 -130q0 -77 -63.5 -128.5t-174.5 -51.5q-117 0 -178 48t-61 131q0 58 24 98t56 60
q6 34 26 112q-82 47 -82 146q0 84 56.5 135t160.5 51q29 0 64.5 -4.5t57.5 -8.5zM248 16q-26 0 -76 -8q-40 -31 -40 -91q0 -49 40 -77t110 -28q67 0 104.5 29.5t37.5 75.5t-47 72.5t-129 26.5zM382 335q0 46 -25 98q-47 7 -73 7q-59 0 -92 -29t-33 -82q0 -43 29.5 -73
t80.5 -30q52 0 82.5 31.5t30.5 77.5z" />
    <glyph glyph-name="uni012A" unicode="&#x12a;" horiz-adv-x="327" 
d="M218 650v-650h-109v650h109zM280 816v-55h-237v55h237z" />
    <glyph glyph-name="imacron" unicode="&#x12b;" horiz-adv-x="289" 
d="M197 500v-500h-104v500h104zM262 681v-55h-237v55h237z" />
    <glyph glyph-name="Iogonek" unicode="&#x12e;" horiz-adv-x="327" 
d="M218 650v-650h-17q-4 -2 -11.5 -5t-26 -14.5t-32.5 -25t-25.5 -35.5t-11.5 -47q0 -70 123 -70v-54q-198 0 -198 123q0 73 93 128h-3v650h109z" />
    <glyph glyph-name="iogonek" unicode="&#x12f;" horiz-adv-x="289" 
d="M197 500v-500h-12q-4 -2 -11.5 -5t-26 -14.5t-32.5 -25t-25.5 -35.5t-11.5 -47q0 -70 123 -70v-54q-198 0 -198 123q0 73 93 128h-3v500h104zM202 661q0 -24 -16 -42t-43 -18q-26 0 -42.5 18t-16.5 42t16.5 41.5t42.5 17.5q27 0 43 -17.5t16 -41.5z" />
    <glyph glyph-name="Idotaccent" unicode="&#x130;" horiz-adv-x="327" 
d="M218 650v-650h-109v650h109zM219 796q0 -24 -16 -42t-43 -18q-26 0 -42.5 18t-16.5 42t16.5 41.5t42.5 17.5q27 0 43 -17.5t16 -41.5z" />
    <glyph glyph-name="dotlessi" unicode="&#x131;" horiz-adv-x="289" 
d="M197 500v-500h-104v500h104z" />
    <glyph glyph-name="Kcommaaccent" unicode="&#x136;" horiz-adv-x="716" 
d="M109 0v650h109v-334l84 72l248 262h127l-302 -306l326 -344h-127l-268 281l-88 -71v-210h-109zM326 -48l64 -8q0 -42 -19.5 -98.5t-46.5 -93.5l-55 10q57 102 57 190z" />
    <glyph glyph-name="kcommaaccent" unicode="&#x137;" horiz-adv-x="560" 
d="M88 0v750h104v-464l43 34l180 180h120l-224 -215l245 -285h-125l-191 226l-48 -37v-189h-104zM279 -48l64 -8q0 -42 -19.5 -98.5t-46.5 -93.5l-55 10q57 102 57 190z" />
    <glyph glyph-name="Lacute" unicode="&#x139;" horiz-adv-x="578" 
d="M567 81v-81h-458v650h109v-569h349zM218 900l54 -48l-147 -153l-42 37z" />
    <glyph glyph-name="lacute" unicode="&#x13a;" horiz-adv-x="270" 
d="M187 750v-750h-104v750h104zM212 975l54 -48l-147 -153l-42 37z" />
    <glyph glyph-name="Lcommaaccent" unicode="&#x13b;" horiz-adv-x="578" 
d="M567 81v-81h-458v650h109v-569h349zM283 -48l64 -8q0 -42 -19.5 -98.5t-46.5 -93.5l-55 10q57 102 57 190z" />
    <glyph glyph-name="lcommaaccent" unicode="&#x13c;" horiz-adv-x="270" 
d="M187 750v-750h-104v750h104zM101 -48l64 -8q0 -42 -19.5 -98.5t-46.5 -93.5l-55 10q57 102 57 190z" />
    <glyph glyph-name="Lcaron" unicode="&#x13d;" horiz-adv-x="578" 
d="M567 81v-81h-458v650h109v-569h349zM445 734l-108 -178l-61 27l106 182z" />
    <glyph glyph-name="lcaron" unicode="&#x13e;" horiz-adv-x="317" 
d="M187 750v-750h-104v750h104zM413 734l-108 -178l-61 27l106 182z" />
    <glyph glyph-name="Lslash" unicode="&#x141;" horiz-adv-x="578" 
d="M567 81v-81h-458v222l-51 -31l-28 44l79 48v367h109v-300l172 105l28 -44l-200 -123v-207h349z" />
    <glyph glyph-name="lslash" unicode="&#x142;" horiz-adv-x="340" 
d="M219 750v-330l139 90l28 -44l-167 -108v-358h-104v291l-54 -35l-27 44l81 52v398h104z" />
    <glyph glyph-name="Nacute" unicode="&#x143;" horiz-adv-x="811" 
d="M702 650v-650h-89l-413 497q3 -16 3 -39v-458h-94v650h87l416 -502q-4 13 -4 34v468h94zM470 900l54 -48l-147 -153l-42 37z" />
    <glyph glyph-name="nacute" unicode="&#x144;" horiz-adv-x="645" 
d="M93 0v500h104v-102q73 117 191 117q82 0 127.5 -49.5t45.5 -148.5v-317h-104v315q0 112 -106 112q-32 0 -61.5 -15t-49 -37t-29.5 -36t-14 -22v-317h-104zM370 766l54 -48l-147 -153l-42 37z" />
    <glyph glyph-name="Ncommaaccent" unicode="&#x145;" horiz-adv-x="811" 
d="M702 650v-650h-89l-413 497q3 -16 3 -39v-458h-94v650h87l416 -502q-4 13 -4 34v468h94zM374 -48l64 -8q0 -42 -19.5 -98.5t-46.5 -93.5l-55 10q57 102 57 190z" />
    <glyph glyph-name="ncommaaccent" unicode="&#x146;" horiz-adv-x="645" 
d="M93 0v500h104v-102q73 117 191 117q82 0 127.5 -49.5t45.5 -148.5v-317h-104v315q0 112 -106 112q-32 0 -61.5 -15t-49 -37t-29.5 -36t-14 -22v-317h-104zM313 -48l64 -8q0 -42 -19.5 -98.5t-46.5 -93.5l-55 10q57 102 57 190z" />
    <glyph glyph-name="Ncaron" unicode="&#x147;" horiz-adv-x="811" 
d="M702 650v-650h-89l-413 497q3 -16 3 -39v-458h-94v650h87l416 -502q-4 13 -4 34v468h94zM411 716l-169 116l35 63l133 -96l135 96l35 -63z" />
    <glyph glyph-name="ncaron" unicode="&#x148;" horiz-adv-x="645" 
d="M93 0v500h104v-102q73 117 191 117q82 0 127.5 -49.5t45.5 -148.5v-317h-104v315q0 112 -106 112q-32 0 -61.5 -15t-49 -37t-29.5 -36t-14 -22v-317h-104zM311 582l-169 116l35 63l133 -96l135 96l35 -63z" />
    <glyph glyph-name="Omacron" unicode="&#x14c;" horiz-adv-x="805" 
d="M753 324q0 -152 -100 -246t-252 -94q-151 0 -250 94t-99 246t99 246t250 94q152 0 252 -94t100 -246zM641 324q0 111 -69 181t-171 70t-170 -69.5t-68 -181.5t67.5 -181t170.5 -69q104 0 172 69t68 181zM519 816v-55h-237v55h237z" />
    <glyph glyph-name="omacron" unicode="&#x14d;" horiz-adv-x="640" 
d="M599 250q0 -120 -79 -193t-201 -73t-200.5 73t-78.5 193t78.5 192.5t200.5 72.5q123 0 201.5 -72.5t78.5 -192.5zM319 433q-74 0 -123 -50t-49 -133t49 -133.5t123 -50.5q75 0 124.5 50.5t49.5 133.5t-49.5 133t-124.5 50zM437 681v-55h-237v55h237z" />
    <glyph glyph-name="Ohungarumlaut" unicode="&#x150;" horiz-adv-x="805" 
d="M753 324q0 -152 -100 -246t-252 -94q-151 0 -250 94t-99 246t99 246t250 94q152 0 252 -94t100 -246zM641 324q0 111 -69 181t-171 70t-170 -69.5t-68 -181.5t67.5 -181t170.5 -69q104 0 172 69t68 181zM411 868l-60 -142l-76 8l73 158zM578 868l-60 -142l-76 8l73 158z
" />
    <glyph glyph-name="ohungarumlaut" unicode="&#x151;" horiz-adv-x="640" 
d="M599 250q0 -120 -79 -193t-201 -73t-200.5 73t-78.5 193t78.5 192.5t200.5 72.5q123 0 201.5 -72.5t78.5 -192.5zM319 433q-74 0 -123 -50t-49 -133t49 -133.5t123 -50.5q75 0 124.5 50.5t49.5 133.5t-49.5 133t-124.5 50zM329 733l-60 -142l-76 8l73 158zM496 733
l-60 -142l-76 8l73 158z" />
    <glyph glyph-name="OE" unicode="&#x152;" horiz-adv-x="1067" 
d="M1027 84v-84h-469v14q-64 -30 -138 -30q-172 0 -270 91t-98 248q0 155 94.5 248t256.5 93q87 0 155 -30v16h444v-85h-335v-184h273v-82h-273v-215h360zM426 71q68 0 132 39v440q-66 30 -136 30q-129 0 -194 -69t-65 -188q0 -118 73.5 -185t189.5 -67z" />
    <glyph glyph-name="oe" unicode="&#x153;" horiz-adv-x="993" 
d="M919 115l23 -67q-3 -3 -8.5 -7t-26 -15t-43 -19.5t-59.5 -15.5t-77 -7q-67 0 -124 27t-92 77q-60 -104 -200 -104q-118 0 -195 73t-77 193t77 192.5t195 72.5q147 0 205 -113q34 54 86.5 83.5t114.5 29.5q99 0 163 -56t64 -161q0 -19 -3 -37.5t-6 -26.5l-3 -9h-362v-12
q0 -70 51 -110.5t126 -40.5q48 0 91 13t61 27zM312 433q-71 0 -118 -50t-47 -133t47 -133.5t118 -50.5q65 0 108.5 43t50.5 116v5q0 16 1 25q-1 81 -46 129.5t-114 48.5zM719 441q-60 0 -102.5 -44.5t-47.5 -114.5q188 0 286 3q1 11 1 23q0 67 -38.5 100t-98.5 33z" />
    <glyph glyph-name="Racute" unicode="&#x154;" horiz-adv-x="670" 
d="M109 0v650q87 14 198 14q128 0 197 -58t69 -151q0 -127 -137 -192l219 -263h-136l-183 230q-58 -13 -126 -15v-215h-101zM307 578q-17 0 -97 -5v-281q21 0 41.5 2t52.5 7t57.5 15.5t50 26.5t38.5 42t14 59q0 62 -40 98t-117 36zM368 900l54 -48l-147 -153l-42 37z" />
    <glyph glyph-name="racute" unicode="&#x155;" horiz-adv-x="421" 
d="M400 500v-91l-70 2q-40 -2 -68.5 -34t-41 -69t-23.5 -91v-217h-104v500h92v-168q11 37 22 64.5t29 57t44 45.5t59 16q19 0 34 -3.5t21 -7.5zM284 765l54 -48l-147 -153l-42 37z" />
    <glyph glyph-name="Rcommaaccent" unicode="&#x156;" horiz-adv-x="670" 
d="M109 0v650q87 14 198 14q128 0 197 -58t69 -151q0 -127 -137 -192l219 -263h-136l-183 230q-58 -13 -126 -15v-215h-101zM307 578q-17 0 -97 -5v-281q21 0 41.5 2t52.5 7t57.5 15.5t50 26.5t38.5 42t14 59q0 62 -40 98t-117 36zM307 -48l64 -8q0 -42 -19.5 -98.5
t-46.5 -93.5l-55 10q57 102 57 190z" />
    <glyph glyph-name="rcommaaccent" unicode="&#x157;" horiz-adv-x="421" 
d="M400 500v-91l-70 2q-40 -2 -68.5 -34t-41 -69t-23.5 -91v-217h-104v500h92v-168q11 37 22 64.5t29 57t44 45.5t59 16q19 0 34 -3.5t21 -7.5zM116 -48l64 -8q0 -42 -19.5 -98.5t-46.5 -93.5l-55 10q57 102 57 190z" />
    <glyph glyph-name="Rcaron" unicode="&#x158;" horiz-adv-x="670" 
d="M109 0v650q87 14 198 14q128 0 197 -58t69 -151q0 -127 -137 -192l219 -263h-136l-183 230q-58 -13 -126 -15v-215h-101zM307 578q-17 0 -97 -5v-281q21 0 41.5 2t52.5 7t57.5 15.5t50 26.5t38.5 42t14 59q0 62 -40 98t-117 36zM309 716l-169 116l35 63l133 -96l135 96
l35 -63z" />
    <glyph glyph-name="rcaron" unicode="&#x159;" horiz-adv-x="421" 
d="M400 500v-91l-70 2q-40 -2 -68.5 -34t-41 -69t-23.5 -91v-217h-104v500h92v-168q11 37 22 64.5t29 57t44 45.5t59 16q19 0 34 -3.5t21 -7.5zM225 581l-169 116l35 63l133 -96l135 96l35 -63z" />
    <glyph glyph-name="Sacute" unicode="&#x15a;" 
d="M522 642v-162h-75v94q-53 11 -98 11q-82 0 -124 -28.5t-42 -77.5q0 -38 39.5 -64t96 -43.5t112.5 -37t95.5 -57t39.5 -91.5q0 -87 -69.5 -144.5t-195.5 -57.5q-46 0 -89 8t-71 19.5t-49.5 22.5t-31.5 19l-10 8l39 80q10 -8 29 -19.5t75.5 -31t111.5 -19.5q68 0 111 31
t43 75q0 34 -39.5 57.5t-96 40.5t-112.5 37.5t-95.5 61t-39.5 99.5q0 80 73 135.5t203 55.5q42 0 84.5 -5.5t63.5 -10.5zM388 900l54 -48l-147 -153l-42 37z" />
    <glyph glyph-name="sacute" unicode="&#x15b;" horiz-adv-x="496" 
d="M29 46l31 70q10 -7 28.5 -16.5t70 -26t98.5 -16.5q50 0 76.5 23.5t26.5 52.5q0 25 -31 43.5t-76 32.5t-89.5 30.5t-75.5 47.5t-31 74q0 69 61.5 111.5t157.5 42.5q42 0 82 -6t59 -11l19 -6v-76q-85 26 -157 26q-53 0 -86 -19t-33 -52q0 -25 31.5 -43t76 -31t89 -29.5
t76 -48t31.5 -75.5q0 -65 -53 -112.5t-152 -47.5q-70 0 -127.5 15.5t-79.5 30.5zM320 765l54 -48l-147 -153l-42 37z" />
    <glyph glyph-name="Scedilla" unicode="&#x15e;" 
d="M522 642v-162h-75v94q-53 11 -98 11q-82 0 -124 -28.5t-42 -77.5q0 -38 39.5 -64t96 -43.5t112.5 -37t95.5 -57t39.5 -91.5q0 -83 -62.5 -139t-176.5 -62q-4 -8 -4 -18q0 -15 16.5 -26.5t36 -19.5t36 -26.5t16.5 -44.5q0 -46 -35.5 -73.5t-94.5 -27.5q-25 0 -47.5 7
t-37 16.5t-25 19.5t-14.5 17l-5 7l38 34q3 -5 9.5 -13t27 -21t40.5 -13q33 0 51 16t18 41q0 15 -15.5 27t-33.5 19t-33.5 20.5t-15.5 32.5q0 15 5 27q-61 5 -113.5 23.5t-74.5 34.5l-22 17l39 80q10 -8 29 -19.5t75.5 -31t111.5 -19.5q68 0 111 31t43 75q0 34 -39.5 57.5
t-96 40.5t-112.5 37.5t-95.5 61t-39.5 99.5q0 80 73 135.5t203 55.5q42 0 84.5 -5.5t63.5 -10.5z" />
    <glyph glyph-name="scedilla" unicode="&#x15f;" horiz-adv-x="496" 
d="M29 46l31 70q10 -7 28.5 -16.5t70 -26t98.5 -16.5q50 0 76.5 23.5t26.5 52.5q0 25 -31 43.5t-76 32.5t-89.5 30.5t-75.5 47.5t-31 74q0 69 61.5 111.5t157.5 42.5q42 0 82 -6t59 -11l19 -6v-76q-85 26 -157 26q-53 0 -86 -19t-33 -52q0 -25 31.5 -43t76 -31t89 -29.5
t76 -48t31.5 -75.5q0 -64 -52 -111.5t-149 -48.5q-4 -10 -4 -17q0 -15 16.5 -26.5t36 -19.5t36 -26.5t16.5 -44.5q0 -46 -35.5 -73.5t-94.5 -27.5q-25 0 -47.5 7t-37 16.5t-25 19.5t-14.5 17l-5 7l38 34q3 -5 9.5 -13t27 -21t40.5 -13q33 0 51 16t18 41q0 15 -15.5 27
t-33.5 19t-33.5 20.5t-15.5 32.5q0 15 6 29q-51 5 -93 19.5t-58 26.5z" />
    <glyph glyph-name="Scaron" unicode="&#x160;" 
d="M522 642v-162h-75v94q-53 11 -98 11q-82 0 -124 -28.5t-42 -77.5q0 -38 39.5 -64t96 -43.5t112.5 -37t95.5 -57t39.5 -91.5q0 -87 -69.5 -144.5t-195.5 -57.5q-46 0 -89 8t-71 19.5t-49.5 22.5t-31.5 19l-10 8l39 80q10 -8 29 -19.5t75.5 -31t111.5 -19.5q68 0 111 31
t43 75q0 34 -39.5 57.5t-96 40.5t-112.5 37.5t-95.5 61t-39.5 99.5q0 80 73 135.5t203 55.5q42 0 84.5 -5.5t63.5 -10.5zM329 716l-169 116l35 63l133 -96l135 96l35 -63z" />
    <glyph glyph-name="scaron" unicode="&#x161;" horiz-adv-x="496" 
d="M29 46l31 70q10 -7 28.5 -16.5t70 -26t98.5 -16.5q50 0 76.5 23.5t26.5 52.5q0 25 -31 43.5t-76 32.5t-89.5 30.5t-75.5 47.5t-31 74q0 69 61.5 111.5t157.5 42.5q42 0 82 -6t59 -11l19 -6v-76q-85 26 -157 26q-53 0 -86 -19t-33 -52q0 -25 31.5 -43t76 -31t89 -29.5
t76 -48t31.5 -75.5q0 -65 -53 -112.5t-152 -47.5q-70 0 -127.5 15.5t-79.5 30.5zM261 581l-169 116l35 63l133 -96l135 96l35 -63z" />
    <glyph glyph-name="Tcommaaccent" unicode="&#x162;" horiz-adv-x="578" 
d="M570 650v-82h-227v-568h-109v568h-227v82h563zM258 -48l64 -8q0 -42 -19.5 -98.5t-46.5 -93.5l-55 10q57 102 57 190z" />
    <glyph glyph-name="tcommaaccent" unicode="&#x163;" horiz-adv-x="471" 
d="M435 500v-82h-214v-251q0 -92 72 -92q32 0 67.5 10.5t54.5 21.5l19 11l1 -74q-7 -7 -21 -17t-59 -26.5t-94 -16.5q-70 0 -107 47t-37 133v254h-64v82h64v133l104 36v-169h214zM192 -48l64 -8q0 -42 -19.5 -98.5t-46.5 -93.5l-55 10q57 102 57 190z" />
    <glyph glyph-name="Tcaron" unicode="&#x164;" horiz-adv-x="578" 
d="M570 650v-82h-227v-568h-109v568h-227v82h563zM285 716l-169 116l35 63l133 -96l135 96l35 -63z" />
    <glyph glyph-name="tcaron" unicode="&#x165;" horiz-adv-x="476" 
d="M435 500v-82h-214v-251q0 -92 72 -92q32 0 67.5 10.5t54.5 21.5l19 11l1 -74q-7 -7 -21 -17t-59 -26.5t-94 -16.5q-70 0 -107 47t-37 133v254h-64v82h64v133l104 36v-169h214zM480 734l-108 -178l-61 27l106 182z" />
    <glyph glyph-name="Umacron" unicode="&#x16a;" horiz-adv-x="779" 
d="M669 650v-650h-108v157h-2q-3 -7 -8.5 -18.5t-27.5 -41.5t-48.5 -53t-72.5 -41.5t-98 -18.5q-103 0 -153.5 58t-50.5 158v450h109v-407q0 -73 35.5 -115.5t107.5 -42.5q36 0 70 15.5t56 34t42.5 45t27.5 38t13 23.5v409h108zM495 816v-55h-237v55h237z" />
    <glyph glyph-name="umacron" unicode="&#x16b;" horiz-adv-x="645" 
d="M552 500v-500h-104v100l-4 -6q-4 -6 -8.5 -12t-12 -15.5t-17 -18t-21 -18.5t-25.5 -18t-29.5 -14.5t-34.5 -10t-39 -3.5q-82 0 -127.5 49.5t-45.5 148.5v318h104v-315q0 -112 106 -112q88 0 154 110v317h104zM437 681v-55h-237v55h237z" />
    <glyph glyph-name="Uring" unicode="&#x16e;" horiz-adv-x="779" 
d="M669 650v-650h-108v157h-2q-3 -7 -8.5 -18.5t-27.5 -41.5t-48.5 -53t-72.5 -41.5t-98 -18.5q-103 0 -153.5 58t-50.5 158v450h109v-407q0 -73 35.5 -115.5t107.5 -42.5q36 0 70 15.5t56 34t42.5 45t27.5 38t13 23.5v409h108zM489 827q0 -48 -31.5 -79t-80.5 -31
q-51 0 -82 31t-31 79t32 79t81 31q48 0 80 -31t32 -79zM440 828q0 28 -18 45.5t-45 17.5t-45.5 -17.5t-18.5 -45.5t18.5 -46t45.5 -18t45 18t18 46z" />
    <glyph glyph-name="uring" unicode="&#x16f;" horiz-adv-x="645" 
d="M552 500v-500h-104v100l-4 -6q-4 -6 -8.5 -12t-12 -15.5t-17 -18t-21 -18.5t-25.5 -18t-29.5 -14.5t-34.5 -10t-39 -3.5q-82 0 -127.5 49.5t-45.5 148.5v318h104v-315q0 -112 106 -112q88 0 154 110v317h104zM430 692q0 -48 -31.5 -79t-80.5 -31q-51 0 -82 31t-31 79
t32 79t81 31q48 0 80 -31t32 -79zM381 693q0 28 -18 45.5t-45 17.5t-45.5 -17.5t-18.5 -45.5t18.5 -46t45.5 -18t45 18t18 46z" />
    <glyph glyph-name="Uhungarumlaut" unicode="&#x170;" horiz-adv-x="779" 
d="M669 650v-650h-108v157h-2q-3 -7 -8.5 -18.5t-27.5 -41.5t-48.5 -53t-72.5 -41.5t-98 -18.5q-103 0 -153.5 58t-50.5 158v450h109v-407q0 -73 35.5 -115.5t107.5 -42.5q36 0 70 15.5t56 34t42.5 45t27.5 38t13 23.5v409h108zM387 868l-60 -142l-76 8l73 158zM554 868
l-60 -142l-76 8l73 158z" />
    <glyph glyph-name="uhungarumlaut" unicode="&#x171;" horiz-adv-x="645" 
d="M552 500v-500h-104v100l-4 -6q-4 -6 -8.5 -12t-12 -15.5t-17 -18t-21 -18.5t-25.5 -18t-29.5 -14.5t-34.5 -10t-39 -3.5q-82 0 -127.5 49.5t-45.5 148.5v318h104v-315q0 -112 106 -112q88 0 154 110v317h104zM329 733l-60 -142l-76 8l73 158zM496 733l-60 -142l-76 8
l73 158z" />
    <glyph glyph-name="Uogonek" unicode="&#x172;" horiz-adv-x="779" 
d="M669 650v-650h-18q-4 -2 -11.5 -5t-26 -14.5t-32.5 -25t-25.5 -35.5t-11.5 -47q0 -70 123 -70v-54q-198 0 -198 123q0 73 93 128h-1v157h-2q-3 -7 -8.5 -18.5t-27.5 -41.5t-48.5 -53t-72.5 -41.5t-98 -18.5q-103 0 -153.5 58t-50.5 158v450h109v-407q0 -73 35.5 -115.5
t107.5 -42.5q36 0 70 15.5t56 34t42.5 45t27.5 38t13 23.5v409h108z" />
    <glyph glyph-name="uogonek" unicode="&#x173;" horiz-adv-x="645" 
d="M552 500v-500h-12q-4 -2 -11.5 -5t-26 -14.5t-32.5 -25t-25.5 -35.5t-11.5 -47q0 -70 123 -70v-54q-198 0 -198 123q0 73 93 128h-3v100l-4 -6q-4 -6 -8.5 -12t-12 -15.5t-17 -18t-21 -18.5t-25.5 -18t-29.5 -14.5t-34.5 -10t-39 -3.5q-82 0 -127.5 49.5t-45.5 148.5v318
h104v-315q0 -112 106 -112q88 0 154 110v317h104z" />
    <glyph glyph-name="Ydieresis" unicode="&#x178;" horiz-adv-x="679" 
d="M125 650q38 -68 92.5 -163.5t94.5 -164.5t42 -73l205 401h111l-352 -650h-111l90 168l-283 482h111zM512 796q0 -24 -17 -42t-42 -18t-42 18t-17 42t17 41.5t42 17.5t42 -17.5t17 -41.5zM320 796q0 -24 -17 -42t-42 -18t-41.5 18t-16.5 42t16.5 41.5t41.5 17.5
q26 0 42.5 -17.5t16.5 -41.5z" />
    <glyph glyph-name="Zacute" unicode="&#x179;" horiz-adv-x="652" 
d="M604 650v-55l-405 -514h405v-81h-557v54l406 514h-406v82h557zM400 900l54 -48l-147 -153l-42 37z" />
    <glyph glyph-name="zacute" unicode="&#x17a;" horiz-adv-x="512" 
d="M469 500v-50l-293 -375q4 0 12 0.5t11 0.5h272v-76h-433v54l292 378q-126 -11 -269 -11v79h408zM334 765l54 -48l-147 -153l-42 37z" />
    <glyph glyph-name="Zdotaccent" unicode="&#x17b;" horiz-adv-x="652" 
d="M604 650v-55l-405 -514h405v-81h-557v54l406 514h-406v82h557zM397 796q0 -24 -16 -42t-43 -18q-26 0 -42.5 18t-16.5 42t16.5 41.5t42.5 17.5q27 0 43 -17.5t16 -41.5z" />
    <glyph glyph-name="zdotaccent" unicode="&#x17c;" horiz-adv-x="512" 
d="M469 500v-50l-293 -375q4 0 12 0.5t11 0.5h272v-76h-433v54l292 378q-126 -11 -269 -11v79h408zM331 661q0 -24 -16 -42t-43 -18q-26 0 -42.5 18t-16.5 42t16.5 41.5t42.5 17.5q27 0 43 -17.5t16 -41.5z" />
    <glyph glyph-name="Zcaron" unicode="&#x17d;" horiz-adv-x="652" 
d="M604 650v-55l-405 -514h405v-81h-557v54l406 514h-406v82h557zM341 716l-169 116l35 63l133 -96l135 96l35 -63z" />
    <glyph glyph-name="zcaron" unicode="&#x17e;" horiz-adv-x="512" 
d="M469 500v-50l-293 -375q4 0 12 0.5t11 0.5h272v-76h-433v54l292 378q-126 -11 -269 -11v79h408zM275 581l-169 116l35 63l133 -96l135 96l35 -63z" />
    <glyph glyph-name="longs" unicode="&#x17f;" horiz-adv-x="270" 
d="M390 724v-80q-44 20 -109 20q-51 0 -72.5 -22.5t-21.5 -72.5v-569h-104v569q0 104 39 148.5t129 44.5q35 0 70 -9.5t52 -18.5z" />
    <glyph glyph-name="florin" unicode="&#x192;" horiz-adv-x="442" 
d="M409 433v-82h-180v-351q0 -64 -21 -115t-56 -81.5t-72 -47.5t-76 -22l-15 90q53 11 94.5 55t41.5 121v351h-64v82h64v127q0 105 42.5 154.5t129.5 49.5q36 0 70 -8t50 -16l16 -7v-83q-53 23 -112 23q-49 0 -70.5 -24t-21.5 -89v-127h180z" />
    <glyph glyph-name="dotlessj" unicode="&#x237;" horiz-adv-x="305" 
d="M109 0v500h104v-500q0 -64 -21 -115t-56 -81.5t-72 -47.5t-76 -22l-15 90q53 11 94.5 55t41.5 121z" />
    <glyph glyph-name="circumflex" unicode="&#x2c6;" horiz-adv-x="414" 
d="M207 775l169 -116l-35 -63l-134 96l-134 -96l-35 63z" />
    <glyph glyph-name="caron" unicode="&#x2c7;" horiz-adv-x="414" 
d="M207 581l-169 116l35 63l133 -96l135 96l35 -63z" />
    <glyph glyph-name="breve" unicode="&#x2d8;" horiz-adv-x="438" 
d="M219 651q38 0 72 16.5t49 32.5l15 17l40 -57q-2 -3 -7 -9t-21.5 -20.5t-35 -25.5t-49 -20t-63.5 -9t-63 8.5t-49.5 21t-34.5 25t-22 21.5l-7 8l39 57q6 -7 17 -18t46.5 -29.5t73.5 -18.5z" />
    <glyph glyph-name="dotaccent" unicode="&#x2d9;" horiz-adv-x="456" 
d="M318 661q0 -24 -16 -42t-43 -18q-26 0 -42.5 18t-16.5 42t16.5 41.5t42.5 17.5q27 0 43 -17.5t16 -41.5z" />
    <glyph glyph-name="ring" unicode="&#x2da;" horiz-adv-x="503" 
d="M296 692q0 -48 -31.5 -79t-80.5 -31q-51 0 -82 31t-31 79t32 79t81 31q48 0 80 -31t32 -79zM247 693q0 28 -18 45.5t-45 17.5t-45.5 -17.5t-18.5 -45.5t18.5 -46t45.5 -18t45 18t18 46z" />
    <glyph glyph-name="ogonek" unicode="&#x2db;" horiz-adv-x="286" 
d="M194 30l26 -30q-4 -2 -11.5 -5t-26 -14.5t-32.5 -25t-25.5 -35.5t-11.5 -47q0 -70 123 -70v-54q-198 0 -198 123q0 29 16 56.5t39 45t46 31t39 19.5z" />
    <glyph glyph-name="tilde" unicode="&#x2dc;" horiz-adv-x="491" 
d="M412 731l22 -40q-1 -3 -3.5 -8t-11.5 -17t-19.5 -21.5t-30 -17.5t-41.5 -8q-37 0 -78.5 23t-73.5 23q-28 0 -52 -12t-34 -24l-11 -12l-22 46q2 3 5 8.5t14.5 20t24.5 25t33.5 19.5t41.5 9q42 0 83.5 -24t69.5 -24q27 0 47.5 8.5t27.5 16.5z" />
    <glyph glyph-name="hungarumlaut" unicode="&#x2dd;" horiz-adv-x="469" 
d="M199 733l-60 -142l-76 8l73 158zM366 733l-60 -142l-76 8l73 158z" />
    <glyph glyph-name="uni0400" unicode="&#x400;" 
d="M578 84v-84h-469v650h444v-85h-335v-184h273v-82h-273v-215h360zM172 867l54 48l135 -164l-42 -37z" />
    <glyph glyph-name="afii10023" unicode="&#x401;" 
d="M578 84v-84h-469v650h444v-85h-335v-184h273v-82h-273v-215h360zM463 811q0 -24 -17 -42t-42 -18t-42 18t-17 42t17 41.5t42 17.5t42 -17.5t17 -41.5zM271 811q0 -24 -17 -42t-42 -18t-41.5 18t-16.5 42t16.5 41.5t41.5 17.5q26 0 42.5 -17.5t16.5 -41.5z" />
    <glyph glyph-name="afii10051" unicode="&#x402;" horiz-adv-x="836" 
d="M637 117v85q0 59 -30 86.5t-99 27.5q-40 0 -79.5 -18t-56.5 -32t-29 -27v-239h-109v568h-227v82h563v-82h-227v-253q3 4 8.5 10t24 22t40 28t56 22t71.5 10q111 0 157 -46t46 -134v-107q0 -149 -69 -232t-169 -99l-14 90q65 13 104 75t39 163z" />
    <glyph glyph-name="afii10052" unicode="&#x403;" horiz-adv-x="508" 
d="M508 566h-290v-566h-109v650h399v-84zM344 900l54 -48l-147 -153l-42 37z" />
    <glyph glyph-name="afii10053" unicode="&#x404;" horiz-adv-x="708" 
d="M546 366v-81h-389q10 -100 75.5 -158t177.5 -58q60 0 120 19.5t90 38.5l30 19l31 -61q-4 -4 -12 -11t-36 -24.5t-58.5 -30.5t-79.5 -24t-100 -11q-155 0 -249 92t-94 244t100 248t256 96q56 0 108.5 -8t76.5 -16l24 -7v-83q-79 30 -192 30q-110 0 -180.5 -58.5
t-85.5 -155.5h387z" />
    <glyph glyph-name="afii10054" unicode="&#x405;" 
d="M522 642v-162h-75v94q-53 11 -98 11q-82 0 -124 -28.5t-42 -77.5q0 -38 39.5 -64t96 -43.5t112.5 -37t95.5 -57t39.5 -91.5q0 -87 -69.5 -144.5t-195.5 -57.5q-46 0 -89 8t-71 19.5t-49.5 22.5t-31.5 19l-10 8l39 80q10 -8 29 -19.5t75.5 -31t111.5 -19.5q68 0 111 31
t43 75q0 34 -39.5 57.5t-96 40.5t-112.5 37.5t-95.5 61t-39.5 99.5q0 80 73 135.5t203 55.5q42 0 84.5 -5.5t63.5 -10.5z" />
    <glyph glyph-name="afii10055" unicode="&#x406;" horiz-adv-x="327" 
d="M218 650v-650h-109v650h109z" />
    <glyph glyph-name="afii10056" unicode="&#x407;" horiz-adv-x="327" 
d="M218 650v-650h-109v650h109zM319 796q0 -24 -17 -42t-42 -18t-42 18t-17 42t17 41.5t42 17.5t42 -17.5t17 -41.5zM127 796q0 -24 -17 -42t-42 -18t-41.5 18t-16.5 42t16.5 41.5t41.5 17.5q26 0 42.5 -17.5t16.5 -41.5z" />
    <glyph glyph-name="afii10057" unicode="&#x408;" horiz-adv-x="346" 
d="M237 650v-530q0 -149 -69 -232t-169 -99l-14 90q65 13 104 75t39 163v533h109z" />
    <glyph glyph-name="afii10058" unicode="&#x409;" horiz-adv-x="1091" 
d="M219 650h425v-313q12 10 30 21t64.5 27t93.5 16q99 0 166.5 -46.5t67.5 -136.5q0 -101 -72 -167.5t-205 -66.5q-254 0 -254 228v352h-228q-17 -268 -69 -408t-174 -172l-27 100q92 33 130 158t52 408zM799 325q-37 0 -74.5 -10.5t-54 -19t-26.5 -15.5v-59
q3 -152 149 -152q81 0 125 40.5t44 102.5q0 55 -46 84t-117 29z" />
    <glyph glyph-name="afii10059" unicode="&#x40a;" horiz-adv-x="1140" 
d="M678 650v-313q12 10 30 21t64.5 27t93.5 16q100 0 167 -46.5t67 -136.5q0 -101 -72 -167.5t-205 -66.5q-254 0 -254 228v61h-351v-273h-109v650h109v-296h351v296h109zM833 325q-37 0 -74.5 -10.5t-54 -19t-26.5 -15.5v-59q3 -152 150 -152q81 0 124.5 40.5t43.5 102.5
q0 55 -46 84t-117 29z" />
    <glyph glyph-name="afii10060" unicode="&#x40b;" horiz-adv-x="836" 
d="M570 650v-82h-227v-253q3 4 8.5 10t24 22t40 28t56 22t71.5 10q111 0 157 -46t46 -134v-227h-109v202q0 59 -30 86.5t-99 27.5q-40 0 -79.5 -18t-56.5 -32t-29 -27v-239h-109v568h-227v82h563z" />
    <glyph glyph-name="afii10061" unicode="&#x40c;" horiz-adv-x="716" 
d="M109 0v650h109v-334l84 72l248 262h127l-302 -306l326 -344h-127l-268 281l-88 -71v-210h-109zM399 915l54 -48l-147 -153l-42 37z" />
    <glyph glyph-name="uni040D" unicode="&#x40d;" horiz-adv-x="786" 
d="M677 650v-650h-98v448l3 44l-404 -492h-69v650h98v-458l-4 -39l406 497h68zM282 852l54 48l135 -164l-42 -37z" />
    <glyph glyph-name="afii10062" unicode="&#x40e;" horiz-adv-x="679" 
d="M125 650q38 -68 92.5 -163.5t94.5 -164.5t42 -73l205 401h111l-352 -650h-111l90 168l-283 482h111zM359 786q38 0 72 16.5t49 33.5l15 16l40 -57q-2 -3 -7 -9t-21.5 -20.5t-35 -25.5t-49 -20t-63.5 -9t-63 8.5t-49.5 21t-34.5 25t-22 20.5l-7 9l39 57q6 -7 17 -18
t46.5 -29.5t73.5 -18.5z" />
    <glyph glyph-name="afii10145" unicode="&#x40f;" horiz-adv-x="768" 
d="M218 650v-567h332v567h109v-650h-229v-212h-92v212h-229v650h109z" />
    <glyph glyph-name="afii10017" unicode="&#x410;" horiz-adv-x="716" 
d="M295 650l1 -2l1 2h129l266 -650h-111l-63 153h-324l-60 -153h-110zM357 568q-4 -10 -26.5 -67.5t-54.5 -140.5t-53 -136h267z" />
    <glyph glyph-name="afii10018" unicode="&#x411;" horiz-adv-x="670" 
d="M524 650v-84h-306v-164q40 6 103 6q145 0 221 -49.5t76 -146.5q0 -99 -70.5 -163.5t-219.5 -64.5q-55 0 -109.5 4t-82.5 8l-27 4v650h415zM321 336q-51 0 -103 -7v-258q65 -7 110 -7q96 0 141 39t45 105q0 65 -51.5 96.5t-141.5 31.5z" />
    <glyph glyph-name="afii10019" unicode="&#x412;" horiz-adv-x="658" 
d="M109 0v650q123 14 217 14q119 0 172.5 -45.5t53.5 -120.5q0 -86 -73 -157q127 -42 127 -149q0 -92 -70 -150t-208 -58q-48 0 -103 4t-85 8zM317 298q-31 0 -111 -5v-222q84 -6 122 -6q85 0 129.5 32.5t44.5 93.5q0 54 -49.5 80.5t-135.5 26.5zM317 364q43 0 87 -6
q58 58 58 126q0 46 -34 73.5t-102 27.5q-42 0 -120 -8v-217q56 4 111 4z" />
    <glyph glyph-name="afii10020" unicode="&#x413;" horiz-adv-x="508" 
d="M508 566h-290v-566h-109v650h399v-84z" />
    <glyph glyph-name="afii10021" unicode="&#x414;" horiz-adv-x="783" 
d="M203 650h443v-567h101v-295h-92v212h-512v-195h-92v278h71q37 80 52.5 195.5t28.5 371.5zM540 564h-247q-11 -191 -27 -298t-47 -183h321v481z" />
    <glyph glyph-name="afii10022" unicode="&#x415;" 
d="M578 84v-84h-469v650h444v-85h-335v-184h273v-82h-273v-215h360z" />
    <glyph glyph-name="afii10024" unicode="&#x416;" horiz-adv-x="1042" 
d="M557 240v-240h-102v345l-70 -53l-242 -292h-127l294 324l-282 326h127l224 -269l76 48v221h102v-318l68 57l247 261h127l-293 -291l320 -359h-127l-261 300z" />
    <glyph glyph-name="afii10025" unicode="&#x417;" horiz-adv-x="603" 
d="M91 566l-5 75q83 23 184 23q117 0 180 -45.5t63 -116.5q0 -98 -112 -158q74 -12 112 -51t38 -103q0 -96 -79.5 -151t-199.5 -55q-28 0 -54 3t-47 7.5t-40 11t-33 13t-26 13.5t-20.5 13.5t-14 11t-8.5 7.5l-3 3l35 66q9 -8 26 -19t69.5 -29.5t105.5 -18.5q83 0 129.5 34.5
t46.5 89.5q0 49 -36.5 75t-96.5 26l-119 -3v73q65 4 131 4l10 5t21.5 13.5t27.5 23t21.5 33t9.5 42.5q0 45 -41 73t-122 28q-32 0 -70.5 -4.5t-60.5 -8.5z" />
    <glyph glyph-name="afii10026" unicode="&#x418;" horiz-adv-x="786" 
d="M677 650v-650h-98v448l3 44l-404 -492h-69v650h98v-458l-4 -39l406 497h68z" />
    <glyph glyph-name="afii10027" unicode="&#x419;" horiz-adv-x="786" 
d="M677 650v-650h-98v448l3 44l-404 -492h-69v650h98v-458l-4 -39l406 497h68zM400 786q38 0 72 16.5t49 33.5l15 16l40 -57q-2 -3 -7 -9t-21.5 -20.5t-35 -25.5t-49 -20t-63.5 -9t-63 8.5t-49.5 21t-34.5 25t-22 20.5l-7 9l39 57q6 -7 17 -18t46.5 -29.5t73.5 -18.5z" />
    <glyph glyph-name="afii10028" unicode="&#x41a;" horiz-adv-x="716" 
d="M109 0v650h109v-334l84 72l248 262h127l-302 -306l326 -344h-127l-268 281l-88 -71v-210h-109z" />
    <glyph glyph-name="afii10029" unicode="&#x41b;" horiz-adv-x="753" 
d="M219 650h425v-650h-109v564h-228q-17 -268 -69 -408t-174 -172l-27 100q92 33 130 158t52 408z" />
    <glyph glyph-name="afii10030" unicode="&#x41c;" horiz-adv-x="953" 
d="M811 650l103 -650h-104l-76 493l-210 -493h-95l-214 493l-72 -493h-105l110 650h104l225 -536l229 536h105z" />
    <glyph glyph-name="afii10031" unicode="&#x41d;" horiz-adv-x="787" 
d="M678 650v-650h-109v273h-351v-273h-109v650h109v-296h351v296h109z" />
    <glyph glyph-name="afii10032" unicode="&#x41e;" horiz-adv-x="805" 
d="M753 324q0 -152 -100 -246t-252 -94q-151 0 -250 94t-99 246t99 246t250 94q152 0 252 -94t100 -246zM641 324q0 111 -69 181t-171 70t-170 -69.5t-68 -181.5t67.5 -181t170.5 -69q104 0 172 69t68 181z" />
    <glyph glyph-name="afii10033" unicode="&#x41f;" horiz-adv-x="768" 
d="M659 650v-650h-109v567h-332v-567h-109v650h550z" />
    <glyph glyph-name="afii10034" unicode="&#x420;" 
d="M109 0v650q105 14 198 14q122 0 194 -61t72 -163q0 -52 -18 -93.5t-46.5 -66.5t-66 -41.5t-73.5 -23t-72 -6.5q-49 0 -87 9v-218h-101zM303 578q-11 0 -93 -5v-279q39 -3 57 -3q36 0 68 6.5t63.5 21.5t50 46t18.5 74q0 63 -44.5 101t-119.5 38z" />
    <glyph glyph-name="afii10035" unicode="&#x421;" horiz-adv-x="703" 
d="M623 632v-206h-83v138q-61 13 -120 13q-117 0 -185.5 -70.5t-68.5 -186.5q0 -112 67 -178.5t177 -66.5q38 0 76 10.5t65.5 25t49.5 29t33 24.5l11 11l36 -58q-4 -5 -11.5 -14t-35 -32t-58 -40.5t-79.5 -32t-102 -14.5q-155 0 -249 92t-94 244t100 248t256 96q63 0 117 -8
t76 -16z" />
    <glyph glyph-name="afii10036" unicode="&#x422;" horiz-adv-x="578" 
d="M570 650v-82h-227v-568h-109v568h-227v82h563z" />
    <glyph glyph-name="afii10037" unicode="&#x423;" horiz-adv-x="679" 
d="M125 650q38 -68 92.5 -163.5t94.5 -164.5t42 -73l205 401h111l-352 -650h-111l90 168l-283 482h111z" />
    <glyph glyph-name="afii10038" unicode="&#x424;" horiz-adv-x="872" 
d="M483 710v-84q156 -2 246.5 -81.5t90.5 -219.5q0 -142 -90 -221.5t-247 -81.5v-87h-97v87q-154 2 -244 81.5t-90 218.5q0 141 89.5 221t244.5 83v84h97zM718 325q0 107 -61 164.5t-174 59.5v-450q114 1 174.5 59.5t60.5 166.5zM154 322q0 -107 60 -164t172 -59v450
q-113 -3 -172.5 -61.5t-59.5 -165.5z" />
    <glyph glyph-name="afii10039" unicode="&#x425;" horiz-adv-x="713" 
d="M16 0l279 326l-272 324h124l209 -256l209 256h125l-273 -325l279 -325h-129l-211 256l-210 -256h-130z" />
    <glyph glyph-name="afii10040" unicode="&#x426;" horiz-adv-x="796" 
d="M218 650v-567h332v567h109v-567h101v-295h-92v212h-559v650h109z" />
    <glyph glyph-name="afii10041" unicode="&#x427;" horiz-adv-x="706" 
d="M597 650v-650h-109v299q-3 -4 -8.5 -10t-24 -22t-40.5 -28t-56.5 -22t-72.5 -10q-201 0 -201 180v263h109v-238q0 -61 30.5 -87.5t99.5 -26.5q91 0 164 73v279h109z" />
    <glyph glyph-name="afii10042" unicode="&#x428;" horiz-adv-x="1053" 
d="M581 650v-567h254v567h108v-650h-834v650h109v-567h254v567h109z" />
    <glyph glyph-name="afii10043" unicode="&#x429;" horiz-adv-x="1081" 
d="M943 650v-567h102v-295h-92v212h-844v650h109v-567h254v567h109v-567h254v567h108z" />
    <glyph glyph-name="afii10044" unicode="&#x42a;" horiz-adv-x="753" 
d="M542 650v-55q-4 0 -46.5 -28.5t-104 -89.5t-92.5 -126q75 50 167 50q100 0 167 -46.5t67 -136.5q0 -101 -72 -167.5t-205 -66.5q-140 0 -201.5 64.5t-61.5 163.5q0 184 228 361q-43 -5 -66 -5h-320v82h540zM276 279v9q-7 -28 -7 -60q0 -73 39.5 -116t119.5 -43
q81 0 124.5 40.5t43.5 102.5q0 55 -46 84t-117 29q-41 0 -80 -11.5t-58 -23.5z" />
    <glyph glyph-name="afii10045" unicode="&#x42b;" horiz-adv-x="958" 
d="M109 0v650h109v-242q50 10 103 10q144 0 220.5 -51.5t76.5 -149.5q0 -100 -71 -166.5t-219 -66.5q-55 0 -109.5 4t-82.5 8zM321 346q-54 0 -103 -13v-262q65 -7 110 -7q95 0 140.5 41.5t45.5 107.5q0 65 -52 99t-141 34zM849 650v-650h-109v650h109z" />
    <glyph glyph-name="afii10046" unicode="&#x42c;" horiz-adv-x="670" 
d="M109 0v650h109v-242q50 10 103 10q144 0 220.5 -51.5t76.5 -149.5q0 -100 -71 -166.5t-219 -66.5q-55 0 -109.5 4t-82.5 8zM321 346q-54 0 -103 -13v-262q65 -7 110 -7q95 0 140.5 41.5t45.5 107.5q0 65 -52 99t-141 34z" />
    <glyph glyph-name="afii10047" unicode="&#x42d;" horiz-adv-x="689" 
d="M71 561v81q104 22 218 22q155 0 251 -93t96 -245q0 -150 -102.5 -246t-260.5 -96q-49 0 -93.5 9t-73 21.5t-50 25t-30.5 21.5l-10 9l36 70q11 -8 30.5 -20t76 -31.5t108.5 -19.5q104 0 170.5 53.5t81.5 160.5h-388v83h391q-7 102 -75 157.5t-179 55.5q-41 0 -90 -4.5
t-78 -8.5z" />
    <glyph glyph-name="afii10048" unicode="&#x42e;" horiz-adv-x="1110" 
d="M1058 324q0 -153 -98 -246.5t-249 -93.5q-139 0 -232.5 80t-108.5 214h-152v-278h-109v650h109v-291h151q12 138 106 221.5t236 83.5q151 0 249 -94t98 -246zM947 324q0 112 -67 181.5t-171 69.5q-102 0 -171 -70t-69 -181t69 -180.5t171 -69.5t170 69.5t68 180.5z" />
    <glyph glyph-name="afii10049" unicode="&#x42f;" horiz-adv-x="677" 
d="M561 650v-650h-102v254q-1 0 -24 -1t-58.5 -2.5t-68.5 -1.5l-139 -249h-107l150 260q-65 18 -106.5 65t-41.5 116q0 101 72.5 162t214.5 61q45 0 97.5 -3.5t82.5 -6.5zM306 324q83 0 153 7v245q-68 7 -117 7q-86 0 -130 -38t-44 -100q0 -55 41 -88t97 -33z" />
    <glyph glyph-name="afii10065" unicode="&#x430;" horiz-adv-x="582" 
d="M395 0v77q-58 -93 -174 -93q-78 0 -129.5 43.5t-51.5 113.5q0 77 56.5 122t174.5 45q58 0 124 -8v32q0 56 -30 80.5t-103 24.5q-36 0 -73 -4.5t-56 -9.5l-19 -5l-10 67q79 30 175 30q124 0 172 -48t48 -148v-319h-104zM258 57q38 0 72 19.5t46 33.5t19 26v105
q-54 7 -106 7q-75 0 -111 -26.5t-36 -72.5q0 -41 32 -66.5t84 -25.5z" />
    <glyph glyph-name="afii10066" unicode="&#x431;" horiz-adv-x="599" 
d="M335 577q-85 -16 -127.5 -61t-55.5 -156h1q2 3 6.5 7.5t21 16t36 20.5t52.5 16.5t69 7.5q100 0 160 -53.5t60 -150.5q0 -102 -74 -171t-195 -69q-115 0 -182 71.5t-67 197.5q0 104 18 179t54.5 122.5t83.5 73t112 36.5q69 12 117.5 35t62.5 39l15 17l39 -60
q-2 -3 -5.5 -9t-20 -23t-37.5 -31t-59.5 -30t-84.5 -25zM314 356q-43 0 -83 -14t-56 -25t-27 -21q-1 -15 -1 -46q0 -85 39 -133t109 -48q72 0 114.5 43.5t42.5 109.5q0 63 -36.5 98.5t-101.5 35.5z" />
    <glyph glyph-name="afii10067" unicode="&#x432;" horiz-adv-x="584" 
d="M300 -16q-52 0 -103.5 4t-77.5 8l-26 4v500q117 15 196 15q209 0 209 -129q0 -72 -107 -118v-2q51 0 100 -32.5t49 -88.5q0 -68 -63.5 -114.5t-176.5 -46.5zM316 228q-19 0 -124 -3v-161q53 -8 102 -8q75 0 108 28t33 68q0 33 -31.5 54.5t-87.5 21.5zM192 281q68 4 125 4
q6 2 11 3t20 8t25.5 15.5t19.5 24t9 33.5q0 74 -113 74q-36 0 -97 -7v-155z" />
    <glyph glyph-name="afii10068" unicode="&#x433;" horiz-adv-x="427" 
d="M424 418l-227 1v-419h-104v500h331v-82z" />
    <glyph glyph-name="afii10069" unicode="&#x434;" horiz-adv-x="676" 
d="M650 79v-266h-88v187h-441v-187h-87v266h68q26 93 36.5 185.5t13.5 235.5h406v-421h92zM242 425q-6 -209 -44 -346h263v346h-219z" />
    <glyph glyph-name="afii10070" unicode="&#x435;" horiz-adv-x="562" 
d="M488 115l23 -67q-3 -3 -8.5 -7t-26 -15t-43 -19.5t-59.5 -15.5t-77 -7q-107 0 -182 66t-75 180q0 126 71 205.5t176 79.5q99 0 163 -56t64 -161q0 -19 -3 -37.5t-6 -26.5l-3 -9h-362v-12q0 -70 51 -110.5t126 -40.5q48 0 90.5 13t61.5 27zM288 441q-60 0 -102.5 -44.5
t-47.5 -114.5q188 0 286 3q1 11 1 23q0 67 -38.5 100t-98.5 33z" />
    <glyph glyph-name="afii10072" unicode="&#x436;" horiz-adv-x="795" 
d="M346 326v174h102v-241l41 36l174 205h119l-221 -231l221 -269h-119l-167 216l-48 -34v-182h-102v244l-42 -36l-174 -208h-118l221 234l-213 266h118l158 -213z" />
    <glyph glyph-name="afii10073" unicode="&#x437;" horiz-adv-x="501" 
d="M66 422l-11 63q70 30 162 30q102 0 157 -33.5t55 -93.5q0 -76 -104 -121v-2q45 0 88 -33t43 -84q0 -75 -63 -119.5t-168 -44.5q-43 0 -81 6.5t-61 15t-39.5 17.5t-23.5 15l-7 7l25 60q7 -5 20.5 -13t59.5 -21.5t98 -13.5q66 0 101 27t35 64q0 35 -30.5 55.5t-86.5 20.5
l-97 -2v67q52 3 117 3q3 1 8 3t18 9t23 15.5t18 23t8 30.5q0 32 -35 51t-100 19q-32 0 -64 -5.5t-49 -10.5z" />
    <glyph glyph-name="afii10074" unicode="&#x438;" horiz-adv-x="670" 
d="M512 500h65v-500h-102v351l-312 -351h-70v500h102v-347q0 -9 -1 -12z" />
    <glyph glyph-name="afii10075" unicode="&#x439;" horiz-adv-x="670" 
d="M512 500h65v-500h-102v351l-312 -351h-70v500h102v-347q0 -9 -1 -12zM342 651q38 0 72 16.5t49 32.5l15 17l40 -57q-2 -3 -7 -9t-21.5 -20.5t-35 -25.5t-49 -20t-63.5 -9t-63 8.5t-49.5 21t-34.5 25t-22 21.5l-7 8l39 57q6 -7 17 -18t46.5 -29.5t73.5 -18.5z" />
    <glyph glyph-name="afii10076" unicode="&#x43a;" horiz-adv-x="580" 
d="M98 0v500h104v-214l42 34l181 180h120l-224 -215l245 -285h-125l-191 226l-48 -37v-189h-104z" />
    <glyph glyph-name="afii10077" unicode="&#x43b;" horiz-adv-x="633" 
d="M540 500v-500h-105v418h-170q-18 -402 -224 -434l-15 86q144 29 150 430h364z" />
    <glyph glyph-name="afii10078" unicode="&#x43c;" horiz-adv-x="797" 
d="M658 500l80 -500h-95l-49 370l-153 -370h-83v4l-2 -4l-152 369l-50 -369h-95l82 500h84l175 -409l172 409h86z" />
    <glyph glyph-name="afii10079" unicode="&#x43d;" horiz-adv-x="654" 
d="M93 0v500h104v-194h260v194h104v-500h-104v228h-260v-228h-104z" />
    <glyph glyph-name="afii10080" unicode="&#x43e;" horiz-adv-x="640" 
d="M599 250q0 -120 -79 -193t-201 -73t-200.5 73t-78.5 193t78.5 192.5t200.5 72.5q123 0 201.5 -72.5t78.5 -192.5zM319 433q-74 0 -123 -50t-49 -133t49 -133.5t123 -50.5q75 0 124.5 50.5t49.5 133.5t-49.5 133t-124.5 50z" />
    <glyph glyph-name="afii10081" unicode="&#x43f;" horiz-adv-x="645" 
d="M552 500v-500h-104v418h-251v-418h-104v500h459z" />
    <glyph glyph-name="afii10082" unicode="&#x440;" horiz-adv-x="636" 
d="M83 -250v750h104v-71q77 86 173 86q104 0 170 -70.5t66 -184.5q0 -122 -80.5 -199t-210.5 -77q-59 0 -118 11v-245h-104zM327 430q-35 0 -69 -16t-49 -29t-22 -22v-288q49 -17 102 -17q95 0 147.5 52.5t52.5 139.5q0 82 -45.5 131t-116.5 49z" />
    <glyph glyph-name="afii10083" unicode="&#x441;" horiz-adv-x="520" 
d="M486 124l27 -58q-3 -3 -8 -8.5t-23.5 -20t-40.5 -25t-59 -19.5t-78 -9q-115 0 -189.5 67.5t-74.5 182.5q0 127 79 204t199 77q33 0 71 -5.5t59 -10.5l22 -5v-82q-74 21 -143 21q-81 0 -133 -54t-52 -137q0 -81 51 -128.5t124 -47.5q46 0 88 14.5t61 29.5z" />
    <glyph glyph-name="afii10084" unicode="&#x442;" horiz-adv-x="479" 
d="M481 500v-82h-190v-418h-104v418h-190v82h484z" />
    <glyph glyph-name="afii10085" unicode="&#x443;" horiz-adv-x="594" 
d="M462 500h113l-228 -495l-117 -255h-107l116 253l-220 497h117l162 -397z" />
    <glyph glyph-name="afii10086" unicode="&#x444;" horiz-adv-x="813" 
d="M456 750v-263h2q28 28 94 28q88 0 154.5 -71t66.5 -181q0 -128 -75.5 -203.5t-200.5 -75.5q-15 0 -41 2v-236h-99v263h-1q-26 -29 -95 -29q-88 0 -154.5 71t-66.5 181q0 128 76 203.5t200 75.5q13 0 41 -2v237h99zM294 59q39 0 63 20v360q-21 3 -41 3q-79 0 -125.5 -51.5
t-46.5 -141.5q0 -82 44.5 -136t105.5 -54zM518 440q-41 0 -62 -21v-358q22 -3 41 -3q78 0 125 51.5t47 140.5q0 83 -44 136.5t-107 53.5z" />
    <glyph glyph-name="afii10087" unicode="&#x445;" horiz-adv-x="581" 
d="M558 500l-205 -248l215 -252h-122q-144 182 -156 201l-155 -201h-122l214 252l-204 248h122q134 -177 145 -194l146 194h122z" />
    <glyph glyph-name="afii10088" unicode="&#x446;" horiz-adv-x="671" 
d="M197 500v-418h251v418h104v-418h93v-289h-93v207h-459v500h104z" />
    <glyph glyph-name="afii10089" unicode="&#x447;" horiz-adv-x="566" 
d="M369 275v225h104v-500h-104v219l-5 -5t-15.5 -10.5t-28 -13t-42 -10.5t-57.5 -5q-78 0 -120 37.5t-42 112.5v175h106v-171q0 -85 91 -85q32 0 60 8t40 16z" />
    <glyph glyph-name="afii10090" unicode="&#x448;" horiz-adv-x="891" 
d="M798 500v-500h-705v500h99v-418h203v418h100v-418h204v418h99z" />
    <glyph glyph-name="afii10091" unicode="&#x449;" horiz-adv-x="917" 
d="M891 82v-289h-93v207h-705v500h99v-418h203v418h100v-418h204v418h99v-418h93z" />
    <glyph glyph-name="afii10092" unicode="&#x44a;" horiz-adv-x="610" 
d="M373 500v-60h-1q-11 -7 -30.5 -23.5t-54.5 -59.5t-53 -89h3q6 5 17 12t49.5 19t81.5 12q185 0 185 -142q0 -77 -68.5 -131t-169.5 -54q-103 0 -163 50.5t-60 128.5q0 150 147 266q-101 -9 -168 -9h-78v80h363zM216 177q0 -56 33.5 -89.5t89.5 -33.5q54 0 89 29.5t35 78.5
q0 88 -113 88q-34 0 -66.5 -8t-47.5 -16l-16 -8q-4 -17 -4 -41z" />
    <glyph glyph-name="afii10093" unicode="&#x44b;" horiz-adv-x="835" 
d="M742 500v-500h-104v500h104zM197 500v-182q49 37 139 37q84 0 142 -45t58 -122q0 -88 -72 -146t-195 -58q-45 0 -89 4t-66 8l-21 4v500h104zM308 283q-59 0 -111 -31v-191q45 -5 81 -5q71 0 111.5 37t40.5 90q0 48 -34.5 74t-87.5 26z" />
    <glyph glyph-name="afii10094" unicode="&#x44c;" horiz-adv-x="576" 
d="M197 500v-182q49 37 139 37q84 0 142 -45t58 -122q0 -88 -72 -146t-195 -58q-45 0 -89 4t-66 8l-21 4v500h104zM308 283q-59 0 -111 -31v-191q45 -5 81 -5q71 0 111.5 37t40.5 90q0 48 -34.5 74t-87.5 26z" />
    <glyph glyph-name="afii10095" unicode="&#x44d;" horiz-adv-x="529" 
d="M77 418l-11 72q67 25 156 25q111 0 189 -68.5t78 -180.5q0 -128 -79 -205t-186 -77q-44 0 -81.5 7t-59.5 16.5t-37 19.5t-21 17l-6 7l27 60q7 -5 19.5 -13t55.5 -21.5t91 -13.5q74 0 121.5 42t58.5 122h-268v60h270q-4 75 -56.5 113t-133.5 38q-28 0 -59.5 -5t-49.5 -10z
" />
    <glyph glyph-name="afii10096" unicode="&#x44e;" horiz-adv-x="868" 
d="M555 515q120 0 196.5 -72.5t76.5 -192.5t-77 -193t-196 -73q-104 0 -176 65t-81 174h-101v-223h-104v500h104v-197l104 3q17 96 87 152.5t167 56.5zM557 433q-76 0 -121.5 -49.5t-45.5 -133.5t46 -134t121 -50q76 0 122.5 50t46.5 134t-46.5 133.5t-122.5 49.5z" />
    <glyph glyph-name="afii10097" unicode="&#x44f;" horiz-adv-x="584" 
d="M492 497v-497h-104v198q-57 -5 -108 -5h-18l-100 -193h-109l128 205q-61 16 -94.5 53.5t-33.5 90.5q0 76 64.5 121t177.5 45q51 0 100 -4.5t73 -8.5zM286 249q36 0 102 6v186q-60 6 -93 6q-67 0 -104.5 -28.5t-37.5 -74.5q0 -45 34.5 -70t98.5 -25z" />
    <glyph glyph-name="uni0450" unicode="&#x450;" horiz-adv-x="562" 
d="M488 115l23 -67q-3 -3 -8.5 -7t-26 -15t-43 -19.5t-59.5 -15.5t-77 -7q-107 0 -182 66t-75 180q0 126 71 205.5t176 79.5q99 0 163 -56t64 -161q0 -19 -3 -37.5t-6 -26.5l-3 -9h-362v-12q0 -70 51 -110.5t126 -40.5q48 0 90.5 13t61.5 27zM288 441q-60 0 -102.5 -44.5
t-47.5 -114.5q188 0 286 3q1 11 1 23q0 67 -38.5 100t-98.5 33zM195 717l54 48l135 -164l-42 -37z" />
    <glyph glyph-name="afii10071" unicode="&#x451;" horiz-adv-x="562" 
d="M488 115l23 -67q-3 -3 -8.5 -7t-26 -15t-43 -19.5t-59.5 -15.5t-77 -7q-107 0 -182 66t-75 180q0 126 71 205.5t176 79.5q99 0 163 -56t64 -161q0 -19 -3 -37.5t-6 -26.5l-3 -9h-362v-12q0 -70 51 -110.5t126 -40.5q48 0 90.5 13t61.5 27zM288 441q-60 0 -102.5 -44.5
t-47.5 -114.5q188 0 286 3q1 11 1 23q0 67 -38.5 100t-98.5 33zM457 661q0 -24 -17 -42t-42 -18t-42 18t-17 42t17 41.5t42 17.5t42 -17.5t17 -41.5zM265 661q0 -24 -17 -42t-42 -18t-41.5 18t-16.5 42t16.5 41.5t41.5 17.5q26 0 42.5 -17.5t16.5 -41.5z" />
    <glyph glyph-name="afii10099" unicode="&#x452;" horiz-adv-x="649" 
d="M406 653v-72h-214v-249q3 5 7.5 13t22 28.5t37 36.5t51 29t65.5 13q89 0 135.5 -53.5t46.5 -180.5q0 -96 -8.5 -171.5t-25 -126.5t-36.5 -86.5t-47 -56t-53 -30.5t-58 -13l-15 90q31 5 53 21.5t43 56.5t32 120t11 199q0 80 -27.5 111t-78.5 31q-44 0 -82.5 -28.5
t-55.5 -56.5l-17 -29v-249h-104v581h-64v72h64v89l104 8v-97h214z" />
    <glyph glyph-name="afii10100" unicode="&#x453;" horiz-adv-x="427" 
d="M424 418l-227 1v-419h-104v500h331v-82zM295 765l54 -48l-147 -153l-42 37z" />
    <glyph glyph-name="afii10101" unicode="&#x454;" horiz-adv-x="530" 
d="M488 117l23 -66q-8 -8 -23.5 -19t-70 -29.5t-117.5 -18.5q-110 0 -185 69t-75 180q0 129 77 205.5t191 76.5q41 0 80.5 -5t58.5 -10l19 -5v-77q-71 20 -145 20q-167 0 -185 -158h266v-60h-267q6 -75 54.5 -116t124.5 -41q47 0 90.5 13.5t63.5 27.5z" />
    <glyph glyph-name="afii10102" unicode="&#x455;" horiz-adv-x="496" 
d="M29 46l31 70q10 -7 28.5 -16.5t70 -26t98.5 -16.5q50 0 76.5 23.5t26.5 52.5q0 25 -31 43.5t-76 32.5t-89.5 30.5t-75.5 47.5t-31 74q0 69 61.5 111.5t157.5 42.5q42 0 82 -6t59 -11l19 -6v-76q-85 26 -157 26q-53 0 -86 -19t-33 -52q0 -25 31.5 -43t76 -31t89 -29.5
t76 -48t31.5 -75.5q0 -65 -53 -112.5t-152 -47.5q-70 0 -127.5 15.5t-79.5 30.5z" />
    <glyph glyph-name="afii10103" unicode="&#x456;" horiz-adv-x="289" 
d="M197 500v-500h-104v500h104zM202 661q0 -24 -16 -42t-43 -18q-26 0 -42.5 18t-16.5 42t16.5 41.5t42.5 17.5q27 0 43 -17.5t16 -41.5z" />
    <glyph glyph-name="afii10104" unicode="&#x457;" horiz-adv-x="289" 
d="M197 500v-500h-104v500h104zM299 661q0 -24 -17 -42t-42 -18t-42 18t-17 42t17 41.5t42 17.5t42 -17.5t17 -41.5zM107 661q0 -24 -17 -42t-42 -18t-41.5 18t-16.5 42t16.5 41.5t41.5 17.5q26 0 42.5 -17.5t16.5 -41.5z" />
    <glyph glyph-name="afii10105" unicode="&#x458;" horiz-adv-x="305" 
d="M109 0v500h104v-500q0 -64 -21 -115t-56 -81.5t-72 -47.5t-76 -22l-15 90q53 11 94.5 55t41.5 121zM218 661q0 -24 -16 -42t-43 -18q-26 0 -42.5 18t-16.5 42t16.5 41.5t42.5 17.5q27 0 43 -17.5t16 -41.5z" />
    <glyph glyph-name="afii10106" unicode="&#x459;" horiz-adv-x="934" 
d="M41 -16l-15 86q144 29 150 430h364v-212h3q7 5 19.5 12t55.5 19t91 12q87 0 136 -40.5t49 -116.5q0 -78 -69 -134t-169 -56q-103 0 -162 43t-59 101v290h-170q-18 -402 -224 -434zM674 260q-64 0 -134 -32v-86q0 -38 34 -63t89 -25q53 0 88.5 32t35.5 81q0 93 -113 93z
" />
    <glyph glyph-name="afii10107" unicode="&#x45a;" horiz-adv-x="956" 
d="M93 0v500h104v-194h260v194h104v-212h4q7 5 19.5 12t55.5 19t91 12q87 0 136 -40.5t49 -116.5q0 -78 -69 -134t-169 -56q-103 0 -162 43t-59 101v100h-260v-228h-104zM696 260q-68 0 -135 -32v-86h1q0 -38 34 -63t89 -25q53 0 88.5 32t35.5 81q0 93 -113 93z" />
    <glyph glyph-name="afii10108" unicode="&#x45b;" horiz-adv-x="640" 
d="M192 750v-97h214v-72h-214v-250q2 5 6.5 13t21 29t36 37t53 29t70.5 13q80 0 129 -50t49 -148v-254h-104v249q0 58 -28.5 86t-77.5 28q-44 0 -82.5 -28.5t-55.5 -56.5l-17 -29v-249h-104v581h-64v72h64v89z" />
    <glyph glyph-name="afii10109" unicode="&#x45c;" horiz-adv-x="580" 
d="M98 0v500h104v-214l42 34l181 180h120l-224 -215l245 -285h-125l-191 226l-48 -37v-189h-104zM373 765l54 -48l-147 -153l-42 37z" />
    <glyph glyph-name="uni045D" unicode="&#x45d;" horiz-adv-x="670" 
d="M512 500h65v-500h-102v351l-312 -351h-70v500h102v-347q0 -9 -1 -12zM217 717l54 48l135 -164l-42 -37z" />
    <glyph glyph-name="afii10110" unicode="&#x45e;" horiz-adv-x="594" 
d="M462 500h113l-228 -495l-117 -255h-107l116 253l-220 497h117l162 -397zM304 651q38 0 72 16.5t49 32.5l15 17l40 -57q-2 -3 -7 -9t-21.5 -20.5t-35 -25.5t-49 -20t-63.5 -9t-63 8.5t-49.5 21t-34.5 25t-22 21.5l-7 8l39 57q6 -7 17 -18t46.5 -29.5t73.5 -18.5z" />
    <glyph glyph-name="afii10193" unicode="&#x45f;" horiz-adv-x="669" 
d="M576 500v-500h-195v-187h-90v187h-198v500h104v-410h275v410h104z" />
    <glyph glyph-name="afii10146" unicode="&#x462;" horiz-adv-x="711" 
d="M570 650v-82h-311v-166q63 11 127 11q134 0 203.5 -46.5t69.5 -148.5q0 -47 -16.5 -87.5t-50.5 -74t-92 -53t-135 -19.5q-55 0 -108.5 4t-80.5 8l-26 4v568h-143v82h143v60h109v-60h311zM365 341q-70 0 -106 -13v-257q61 -7 106 -7q95 0 142.5 43t47.5 109
q0 125 -190 125z" />
    <glyph glyph-name="afii10194" unicode="&#x463;" horiz-adv-x="601" 
d="M435 530v-70h-214v-152q1 1 9.5 7t20 12.5t28 13.5t39.5 11.5t49 4.5q85 0 139.5 -44.5t54.5 -122.5q0 -87 -69.5 -146.5t-183.5 -59.5q-48 0 -96 4t-72 8l-23 4v460h-64v70h64v80l104 5v-85h214zM331 285q-69 0 -110 -41v-182q42 -6 83 -6q70 0 110 38t40 91
q0 48 -34 74t-89 26z" />
    <glyph glyph-name="afii10050" unicode="&#x490;" horiz-adv-x="503" 
d="M424 812h84v-246h-290v-566h-109v650h315v162z" />
    <glyph glyph-name="afii10098" unicode="&#x491;" horiz-adv-x="416" 
d="M330 646h86v-228h-219v-418h-104v500h237v146z" />
    <glyph glyph-name="endash" unicode="&#x2013;" horiz-adv-x="589" 
d="M551 317v-81h-513v81h513z" />
    <glyph glyph-name="emdash" unicode="&#x2014;" horiz-adv-x="779" 
d="M741 317v-81h-703v81h703z" />
    <glyph glyph-name="quoteleft" unicode="&#x2018;" horiz-adv-x="283" 
d="M172 539l15 -46q-18 -17 -45 -17q-22 0 -38.5 11.5t-16.5 32.5q0 111 96 237l58 -22q-69 -113 -69 -196z" />
    <glyph glyph-name="quoteright" unicode="&#x2019;" horiz-adv-x="283" 
d="M106 695l-14 46q17 16 45 16q22 0 38 -11.5t16 -32.5q0 -111 -95 -237l-58 22q68 116 68 197z" />
    <glyph glyph-name="quotesinglbase" unicode="&#x201a;" horiz-adv-x="283" 
d="M106 85l-14 46q17 16 45 16q22 0 38 -11.5t16 -32.5q0 -111 -95 -237l-58 22q68 116 68 197z" />
    <glyph glyph-name="quotedblleft" unicode="&#x201c;" horiz-adv-x="475" 
d="M172 539l15 -46q-18 -17 -45 -17q-22 0 -38.5 11.5t-16.5 32.5q0 111 96 237l58 -22q-69 -113 -69 -196zM364 539l15 -46q-18 -17 -45 -17q-22 0 -38.5 11.5t-16.5 32.5q0 111 96 237l58 -22q-69 -113 -69 -196z" />
    <glyph glyph-name="quotedblright" unicode="&#x201d;" horiz-adv-x="475" 
d="M106 695l-14 46q17 16 45 16q22 0 38 -11.5t16 -32.5q0 -111 -95 -237l-58 22q68 116 68 197zM298 695l-14 46q17 16 45 16q22 0 38 -11.5t16 -32.5q0 -111 -95 -237l-58 22q68 116 68 197z" />
    <glyph glyph-name="quotedblbase" unicode="&#x201e;" horiz-adv-x="475" 
d="M106 85l-14 46q17 16 45 16q22 0 38 -11.5t16 -32.5q0 -111 -95 -237l-58 22q68 116 68 197zM298 85l-14 46q17 16 45 16q22 0 38 -11.5t16 -32.5q0 -111 -95 -237l-58 22q68 116 68 197z" />
    <glyph glyph-name="dagger" unicode="&#x2020;" horiz-adv-x="558" 
d="M496 440v-81h-164l-12 -609h-81l-11 609h-167v81h176v210h86v-210h173z" />
    <glyph glyph-name="daggerdbl" unicode="&#x2021;" horiz-adv-x="558" 
d="M496 1v-81h-175v-170h-86v170h-174v81h174l14 199l-12 199h-176v80h176v171h86v-171h173v-80h-174l-14 -199l12 -199h176z" />
    <glyph glyph-name="bullet" unicode="&#x2022;" horiz-adv-x="384" 
d="M301 380q0 -47 -30.5 -78.5t-74.5 -31.5q-45 0 -75 31.5t-30 78.5t30 78.5t75 31.5q44 0 74.5 -31.5t30.5 -78.5z" />
    <glyph glyph-name="ellipsis" unicode="&#x2026;" horiz-adv-x="914" 
d="M213 60q0 -27 -17 -45t-43 -18t-43 18t-17 45t17 45t43 18t43 -18t17 -45zM516 60q0 -27 -17 -45t-43 -18t-43 18t-17 45t17 45t43 18t43 -18t17 -45zM819 60q0 -27 -17 -45t-43 -18t-43 18t-17 45t17 45t43 18t43 -18t17 -45z" />
    <glyph glyph-name="perthousand" unicode="&#x2030;" horiz-adv-x="1572" 
d="M815 650l-429 -650h-100l428 650h101zM450 469q0 -85 -56 -140t-143 -55q-89 0 -144 54.5t-55 140.5t56.5 140.5t142.5 54.5q84 0 141.5 -55t57.5 -140zM365 470q0 50 -33 81.5t-81 31.5t-80.5 -31.5t-32.5 -81.5t32 -82t81 -32t81.5 32t32.5 82zM1051 179
q0 -85 -56 -140t-143 -55q-89 0 -144 54.5t-55 140.5t56.5 140.5t142.5 54.5q84 0 141.5 -55t57.5 -140zM966 180q0 50 -33 81.5t-81 31.5t-80.5 -31.5t-32.5 -81.5t32 -82t81 -32t81.5 32t32.5 82zM1519 179q0 -85 -56 -140t-143 -55q-89 0 -144 54.5t-55 140.5t56.5 140.5
t142.5 54.5q84 0 141.5 -55t57.5 -140zM1434 180q0 50 -33 81.5t-81 31.5t-80.5 -31.5t-32.5 -81.5t32 -82t81 -32t81.5 32t32.5 82z" />
    <glyph glyph-name="guilsinglleft" unicode="&#x2039;" horiz-adv-x="400" 
d="M328 376l-135 -127l134 -130l-44 -50l-184 181l185 175z" />
    <glyph glyph-name="guilsinglright" unicode="&#x203a;" horiz-adv-x="400" 
d="M72 375l44 50l184 -181l-185 -175l-44 49l135 127z" />
    <glyph glyph-name="fraction" unicode="&#x2044;" horiz-adv-x="493" 
d="M469 587l-326 -601l-66 25l326 601z" />
    <glyph glyph-name="zerosuperior" unicode="&#x2070;" horiz-adv-x="481" 
d="M240 679q94 0 151 -65.5t57 -173.5t-57 -172.5t-151 -64.5t-150.5 64.5t-56.5 172.5t56.5 173.5t150.5 65.5zM240 611q-59 0 -94 -46.5t-35 -124.5q0 -79 34.5 -124.5t94.5 -45.5t95 45.5t35 124.5t-35.5 125t-94.5 46z" />
    <glyph glyph-name="foursuperior" unicode="&#x2074;" horiz-adv-x="398" 
d="M264 669h56v-286h71v-58h-71v-111h-76v111h-241v58q48 62 113 133.5t106 111.5zM244 383v203q-63 -63 -174 -203h174z" />
    <glyph glyph-name="fivesuperior" unicode="&#x2075;" horiz-adv-x="383" 
d="M331 669v-62h-85q-33 0 -97 2q-5 -77 -7 -114q18 3 42 3q81 0 128 -40t47 -100q0 -69 -49.5 -112t-136.5 -43q-50 0 -90 14.5t-55 28.5l-16 14l24 49q6 -5 16.5 -12.5t43.5 -19.5t68 -12q57 0 86 25.5t29 67.5q0 38 -30.5 61.5t-87.5 23.5q-38 0 -78 -8l-3 -1l13 235h238
z" />
    <glyph glyph-name="sixsuperior" unicode="&#x2076;" horiz-adv-x="434" 
d="M298 686l20 -56q-162 -47 -196 -167q59 33 121 33q69 0 112 -37.5t43 -90.5q0 -72 -52 -118.5t-141 -46.5q-80 0 -126 50t-46 128q0 54 16 100t42 78.5t62 58.5t71 41.5t74 26.5zM225 445q-56 0 -113 -32q-1 -10 -1 -32q0 -50 26.5 -83t76.5 -33q53 0 80 27t27 70
q0 36 -27 59.5t-69 23.5z" />
    <glyph glyph-name="sevensuperior" unicode="&#x2077;" horiz-adv-x="357" 
d="M348 669v-42q-113 -213 -194 -413h-91q62 151 185 389h-240v66h340z" />
    <glyph glyph-name="eightsuperior" unicode="&#x2078;" horiz-adv-x="438" 
d="M33 335q0 78 110 112q-85 35 -85 114q0 48 46 83t115 35t114.5 -34.5t45.5 -84.5q0 -72 -85 -100q110 -40 110 -126q0 -54 -48.5 -92.5t-134.5 -38.5t-137 38t-51 94zM326 341q0 32 -29 54t-59 28l-29 6q-5 1 -11 2q-89 -25 -89 -87q0 -36 30 -60t82 -24t78.5 22.5
t26.5 58.5zM233 476q3 0 8 -1q66 22 66 77q0 31 -24 51t-64 20t-63.5 -19t-23.5 -48q0 -33 25 -53t51 -23z" />
    <glyph glyph-name="ninesuperior" unicode="&#x2079;" horiz-adv-x="434" 
d="M125 195l-20 57q75 12 130 54.5t76 112.5q-57 -34 -120 -34q-70 0 -113 37.5t-43 91.5q0 72 52 118.5t141 46.5q80 0 126 -50t46 -129q0 -67 -25.5 -123.5t-66.5 -93t-88 -59t-95 -29.5zM209 436q53 0 112 31q2 22 2 33q0 50 -26.5 83t-76.5 33q-53 0 -80 -26.5
t-27 -69.5q0 -36 27 -60t69 -24z" />
    <glyph glyph-name="zerosub" unicode="&#x2080;" horiz-adv-x="481" 
d="M240 259q94 0 151 -65.5t57 -173.5t-57 -172.5t-151 -64.5t-150.5 64.5t-56.5 172.5t56.5 173.5t150.5 65.5zM240 191q-59 0 -94 -46.5t-35 -124.5q0 -79 34.5 -124.5t94.5 -45.5t95 45.5t35 124.5t-35.5 125t-94.5 46z" />
    <glyph glyph-name="onesub" unicode="&#x2081;" horiz-adv-x="316" 
d="M170 249h79v-455h-79v373q-88 -79 -133 -114l-33 49z" />
    <glyph glyph-name="twosub" unicode="&#x2082;" horiz-adv-x="416" 
d="M379 -142v-64h-342v64q10 6 26.5 17t59.5 43t75.5 61.5t59 67.5t26.5 67q0 81 -114 81q-28 0 -57.5 -3.5t-44.5 -7.5l-15 -4v59q52 20 131 20q90 0 136 -38.5t46 -100.5q0 -112 -219 -262h232z" />
    <glyph glyph-name="threesub" unicode="&#x2083;" horiz-adv-x="395" 
d="M24 -160l24 49q6 -5 16 -12.5t43.5 -19.5t68.5 -12q56 0 85 24.5t29 61.5q0 34 -33 56t-94 22l-26 42q43 46 119 139q-25 -3 -55 -3h-146v62h286v-42q-57 -74 -124 -145q68 -8 111 -43.5t43 -87.5q0 -64 -48.5 -106t-133.5 -42q-50 0 -91 14.5t-58 28.5z" />
    <glyph glyph-name="foursub" unicode="&#x2084;" horiz-adv-x="398" 
d="M264 249h56v-286h71v-58h-71v-111h-76v111h-241v58q48 62 113 133.5t106 111.5zM244 -37v203q-63 -63 -174 -203h174z" />
    <glyph glyph-name="fivesub" unicode="&#x2085;" horiz-adv-x="383" 
d="M331 249v-62h-85q-33 0 -97 2q-5 -77 -7 -114q18 3 42 3q81 0 128 -40t47 -100q0 -69 -49.5 -112t-136.5 -43q-50 0 -90 14.5t-55 28.5l-16 14l24 49q6 -5 16.5 -12.5t43.5 -19.5t68 -12q57 0 86 25.5t29 67.5q0 38 -30.5 61.5t-87.5 23.5q-38 0 -78 -8l-3 -1l13 235h238
z" />
    <glyph glyph-name="sixsub" unicode="&#x2086;" horiz-adv-x="434" 
d="M298 266l20 -56q-162 -47 -196 -167q59 33 121 33q69 0 112 -37.5t43 -90.5q0 -72 -52 -118.5t-141 -46.5q-80 0 -126 50t-46 128q0 54 16 100t42 78.5t62 58.5t71 41.5t74 26.5zM225 25q-54 0 -113 -31q-1 -11 -1 -33q0 -50 26.5 -83t76.5 -33q53 0 80 27t27 70
q0 36 -27 59.5t-69 23.5z" />
    <glyph glyph-name="sevensub" unicode="&#x2087;" horiz-adv-x="357" 
d="M348 249v-42q-113 -213 -194 -413h-91q60 147 185 389h-240v66h340z" />
    <glyph glyph-name="eightsub" unicode="&#x2088;" horiz-adv-x="438" 
d="M33 -85q0 78 110 112q-85 35 -85 114q0 48 46 83t115 35t114.5 -34.5t45.5 -84.5q0 -72 -85 -100q110 -40 110 -126q0 -54 -48.5 -92.5t-134.5 -38.5t-137 38t-51 94zM326 -79q0 32 -29 54t-59 28l-29 6q-5 1 -11 2q-89 -25 -89 -87q0 -36 30 -60t82 -24t78.5 22.5
t26.5 58.5zM233 56q3 0 8 -1q66 22 66 77q0 31 -24 51t-64 20t-63.5 -19t-23.5 -48q0 -33 25 -53t51 -23z" />
    <glyph glyph-name="ninesub" unicode="&#x2089;" horiz-adv-x="434" 
d="M125 -225l-20 57q75 12 130 54.5t76 112.5q-61 -34 -120 -34q-70 0 -113 37.5t-43 91.5q0 72 52 118.5t141 46.5q80 0 126 -50t46 -129q0 -67 -25.5 -123.5t-66.5 -93t-88 -59t-95 -29.5zM209 16q53 0 112 31q2 22 2 33q0 50 -26.5 83t-76.5 33q-53 0 -80 -26.5
t-27 -69.5q0 -36 27 -60t69 -24z" />
    <glyph glyph-name="Euro" unicode="&#x20ac;" horiz-adv-x="682" 
d="M534 282v-55h-299q38 -163 209 -163q55 0 106.5 18t75.5 36l24 18l23 -53l-10.5 -10.5t-30.5 -24t-50 -30.5t-68 -23.5t-86 -10.5q-119 0 -198.5 65t-102.5 178h-75v55h67q-1 12 -1 38q0 28 3 53h-69v56h80q29 108 113 171.5t208 63.5q49 0 95 -6t68 -12l21 -6v-75
q-69 20 -177 20q-175 0 -221 -156h295v-56h-306q-3 -26 -3 -53q0 -26 1 -38h308z" />
    <glyph glyph-name="uni20B4" unicode="&#x20b4;" horiz-adv-x="562" 
d="M108 565v71q89 32 183 32q83 0 129 -38t46 -101q0 -47 -34 -100h90v-56h-135q-14 -16 -89 -91h224v-55h-273q-39 -49 -39 -89q0 -71 105 -71q42 0 84 11.5t63 23.5l21 12l23 -58q-9 -8 -25 -20t-69.5 -32t-109.5 -20q-186 0 -186 134q0 52 41 109h-117v55h163
q15 17 45.5 47.5t42.5 43.5h-251v56h298q34 45 34 85q0 71 -115 71q-31 0 -68.5 -5t-58.5 -10z" />
    <glyph glyph-name="afii61352" unicode="&#x2116;" horiz-adv-x="1241" 
d="M657 650v-650h-89v1l-1 -1l-365 475l1 -10v-465h-94v650h87l367 -481l-1 39v442h95zM1189 390q0 -85 -58 -135.5t-148 -50.5t-147.5 50.5t-57.5 135.5t57.5 135t147.5 50t148 -50t58 -135zM1109 390q0 55 -34.5 87.5t-91.5 32.5t-91 -32.5t-34 -87.5t34 -87.5t91 -32.5
t91.5 32.5t34.5 87.5zM1131 84v-81h-294v81h294z" />
    <glyph glyph-name="trademark" unicode="&#x2122;" horiz-adv-x="935" 
d="M837 750l43 -350h-62l-32 249l-106 -249h-54l-99 266l-36 -266h-64l10 57q10 57 26 147t26 146h70l96 -280l118 280h64zM421 750v-59l-154 -1v-290h-65v290h-136v60h355z" />
    <glyph glyph-name="onethird" unicode="&#x2153;" horiz-adv-x="880" 
d="M170 669h79v-455h-79v373q-88 -79 -133 -114l-33 49zM659 587l-326 -601l-66 25l326 601zM509 -160l24 49q6 -5 16 -12.5t43.5 -19.5t68.5 -12q56 0 85 24.5t29 61.5q0 34 -33 56t-94 22l-26 42q43 46 119 139q-25 -3 -55 -3h-146v62h286v-42q-57 -74 -124 -145
q68 -8 111 -43.5t43 -87.5q0 -64 -48.5 -106t-133.5 -42q-50 0 -91 14.5t-57 28.5z" />
    <glyph glyph-name="twothirds" unicode="&#x2154;" horiz-adv-x="946" 
d="M379 278v-64h-342v64q10 6 26.5 17t59.5 43t75.5 61.5t59 67.5t26.5 67q0 81 -114 81q-28 0 -57.5 -3.5t-44.5 -7.5l-15 -4v59q52 20 131 20q90 0 136 -38.5t46 -100.5q0 -64 -66 -133.5t-153 -128.5h232zM725 587l-326 -601l-66 25l326 601zM575 -160l24 49
q6 -5 16 -12.5t43.5 -19.5t68.5 -12q56 0 85 24.5t29 61.5q0 34 -33 56t-94 22l-26 42q43 46 119 139q-25 -3 -55 -3h-146v62h286v-42q-57 -74 -124 -145q68 -8 111 -43.5t43 -87.5q0 -64 -48.5 -106t-133.5 -42q-50 0 -91 14.5t-57 28.5z" />
    <glyph glyph-name="oneeighth" unicode="&#x215b;" horiz-adv-x="923" 
d="M170 669h79v-455h-79v373q-88 -79 -133 -114l-33 49zM659 587l-326 -601l-66 25l326 601zM518 -85q0 78 110 112q-85 35 -85 114q0 48 46 83t115 35t114.5 -34.5t45.5 -84.5q0 -72 -85 -100q110 -40 110 -126q0 -54 -48.5 -92.5t-134.5 -38.5t-137 38t-51 94zM811 -79
q0 32 -29.5 54t-58.5 28l-29 6q-5 1 -11 2q-89 -25 -89 -87q0 -36 30 -60t82 -24t78.5 22.5t26.5 58.5zM718 56q3 0 8 -1q66 22 66 77q0 31 -24 51t-64 20t-63.5 -19t-23.5 -48q0 -33 25.5 -53t50.5 -23z" />
    <glyph glyph-name="threeeighths" unicode="&#x215c;" horiz-adv-x="989" 
d="M24 260l24 49q6 -5 16 -12.5t43.5 -19.5t68.5 -12q56 0 85 24.5t29 61.5q0 34 -33 56t-94 22l-26 42q43 46 119 139q-25 -3 -55 -3h-146v62h286v-42q-57 -74 -124 -145q68 -8 111 -43.5t43 -87.5q0 -64 -48.5 -106t-133.5 -42q-50 0 -91 14.5t-58 28.5zM725 587
l-326 -601l-66 25l326 601zM584 -85q0 78 110 112q-85 35 -85 114q0 48 46 83t115 35t114.5 -34.5t45.5 -84.5q0 -72 -85 -100q110 -40 110 -126q0 -54 -48.5 -92.5t-134.5 -38.5t-137 38t-51 94zM877 -79q0 32 -29.5 54t-58.5 28l-29 6q-5 1 -11 2q-89 -25 -89 -87
q0 -36 30 -60t82 -24t78.5 22.5t26.5 58.5zM784 56q3 0 8 -1q66 22 66 77q0 31 -24 51t-64 20t-63.5 -19t-23.5 -48q0 -33 25.5 -53t50.5 -23z" />
    <glyph glyph-name="fiveeighths" unicode="&#x215d;" horiz-adv-x="978" 
d="M331 669v-62h-85q-33 0 -97 2q-5 -77 -7 -114q18 3 42 3q81 0 128 -40t47 -100q0 -69 -49.5 -112t-136.5 -43q-50 0 -90 14.5t-55 28.5l-16 14l24 49q6 -5 16.5 -12.5t43.5 -19.5t68 -12q57 0 86 25.5t29 67.5q0 38 -30.5 61.5t-87.5 23.5q-38 0 -78 -8l-3 -1l13 235h238
zM713 587l-326 -601l-66 25l326 601zM572 -85q0 78 110 112q-85 35 -85 114q0 48 46 83t115 35t114.5 -34.5t45.5 -84.5q0 -72 -85 -100q110 -40 110 -126q0 -54 -48.5 -92.5t-134.5 -38.5t-137 38t-51 94zM865 -79q0 32 -29.5 54t-58.5 28l-29 6q-5 1 -11 2
q-89 -25 -89 -87q0 -36 30 -60t82 -24t78.5 22.5t26.5 58.5zM772 56q3 0 8 -1q66 22 66 77q0 31 -24 51t-64 20t-63.5 -19t-23.5 -48q0 -33 25.5 -53t50.5 -23z" />
    <glyph glyph-name="seveneighths" unicode="&#x215e;" horiz-adv-x="894" 
d="M348 669v-42q-113 -213 -194 -413h-91q62 151 185 389h-240v66h340zM630 587l-326 -601l-66 25l326 601zM489 -85q0 78 110 112q-85 35 -85 114q0 48 46 83t115 35t114.5 -34.5t45.5 -84.5q0 -72 -85 -100q110 -40 110 -126q0 -54 -48.5 -92.5t-134.5 -38.5t-137 38
t-51 94zM782 -79q0 32 -29 54t-59 28l-29 6q-5 1 -11 2q-89 -25 -89 -87q0 -36 30 -60t82 -24t78.5 22.5t26.5 58.5zM689 56q3 0 8 -1q66 22 66 77q0 31 -24 51t-64 20t-63.5 -19t-23.5 -48q0 -33 25 -53t51 -23z" />
    <glyph glyph-name="arrowleft" unicode="&#x2190;" horiz-adv-x="713" 
d="M395 516l18 -65l-197 -143l459 9v-80l-460 8l198 -142l-18 -65l-326 239z" />
    <glyph glyph-name="arrowup" unicode="&#x2191;" horiz-adv-x="600" 
d="M300 665l230 -295l-47 -51l-144 189l6 -508h-91l7 508l-144 -189l-47 51z" />
    <glyph glyph-name="arrowright" unicode="&#x2192;" horiz-adv-x="713" 
d="M38 236v81l459 -9l-197 143l18 65l326 -239l-326 -239l-18 65l196 141z" />
    <glyph glyph-name="arrowdown" unicode="&#x2193;" horiz-adv-x="600" 
d="M300 -15l-230 295l47 50l144 -189l-6 509h91l-7 -510l144 190l47 -50z" />
    <glyph glyph-name="st" unicode="&#xfb06;" horiz-adv-x="911" 
d="M29 46l31 70q10 -7 28.5 -16.5t70 -26t98.5 -16.5q50 0 76.5 23.5t26.5 52.5q0 25 -31 43.5t-76 32.5t-89.5 30.5t-75.5 47.5t-31 74q0 69 61.5 111.5t157.5 42.5q13 0 37 -2q-40 43 -40 103t48.5 95.5t138.5 35.5h211v-247h214v-82h-214v-251q0 -92 72 -92
q32 0 67.5 10.5t54.5 21.5l19 11l1 -74q-7 -7 -21 -17t-59 -26.5t-94 -16.5q-70 0 -107 47t-37 133v522h-104q-122 0 -122 -89q0 -22 10 -41t23.5 -30t27.5 -18.5t24 -10.5l10 -3l-1 -2h1v-76q-85 26 -157 26q-53 0 -86 -19t-33 -52q0 -25 31.5 -43t76 -31t89 -29.5t76 -48
t31.5 -75.5q0 -65 -53 -112.5t-152 -47.5q-70 0 -127.5 15.5t-79.5 30.5z" />
    <glyph glyph-name="onefifth" horiz-adv-x="868" 
d="M170 669h79v-455h-79v373q-88 -79 -133 -114l-33 49zM659 587l-326 -601l-66 25l326 601zM816 249v-62h-85q-33 0 -97 2q-5 -77 -7 -114q18 3 42 3q81 0 128 -40t47 -100q0 -69 -49.5 -112t-136.5 -43q-50 0 -90 14.5t-56 28.5l-15 14l24 49q6 -5 16.5 -12.5t43.5 -19.5
t68 -12q57 0 86 25.5t29 67.5q0 38 -30.5 61.5t-87.5 23.5q-38 0 -78 -8l-3 -1l13 235h238z" />
    <glyph glyph-name="twofifths" horiz-adv-x="935" 
d="M379 278v-64h-342v64q10 6 26.5 17t59.5 43t75.5 61.5t59 67.5t26.5 67q0 81 -114 81q-28 0 -57.5 -3.5t-44.5 -7.5l-15 -4v59q52 20 131 20q90 0 136 -38.5t46 -100.5q0 -64 -66 -133.5t-153 -128.5h232zM725 587l-326 -601l-66 25l326 601zM882 249v-62h-85
q-33 0 -97 2q-5 -77 -7 -114q18 3 42 3q81 0 128 -40t47 -100q0 -69 -49.5 -112t-136.5 -43q-50 0 -90 14.5t-56 28.5l-15 14l24 49q6 -5 16.5 -12.5t43.5 -19.5t68 -12q57 0 86 25.5t29 67.5q0 38 -30.5 61.5t-87.5 23.5q-38 0 -78 -8l-3 -1l13 235h238z" />
    <glyph glyph-name="threefifths" horiz-adv-x="935" 
d="M24 260l24 49q6 -5 16 -12.5t43.5 -19.5t68.5 -12q56 0 85 24.5t29 61.5q0 34 -33 56t-94 22l-26 42q43 46 119 139q-25 -3 -55 -3h-146v62h286v-42q-57 -74 -124 -145q68 -8 111 -43.5t43 -87.5q0 -64 -48.5 -106t-133.5 -42q-50 0 -91 14.5t-58 28.5zM725 587
l-326 -601l-66 25l326 601zM882 249v-62h-85q-33 0 -97 2q-5 -77 -7 -114q18 3 42 3q81 0 128 -40t47 -100q0 -69 -49.5 -112t-136.5 -43q-50 0 -90 14.5t-56 28.5l-15 14l24 49q6 -5 16.5 -12.5t43.5 -19.5t68 -12q57 0 86 25.5t29 67.5q0 38 -30.5 61.5t-87.5 23.5
q-38 0 -78 -8l-3 -1l13 235h238z" />
    <glyph glyph-name="fourfifths" horiz-adv-x="935" 
d="M264 669h56v-286h71v-58h-71v-111h-76v111h-241v58q48 62 113 133.5t106 111.5zM244 383v203q-63 -63 -174 -203h174zM725 587l-326 -601l-66 25l326 601zM882 249v-62h-85q-33 0 -97 2q-5 -77 -7 -114q18 3 42 3q81 0 128 -40t47 -100q0 -69 -49.5 -112t-136.5 -43
q-50 0 -90 14.5t-56 28.5l-15 14l24 49q6 -5 16.5 -12.5t43.5 -19.5t68 -12q57 0 86 25.5t29 67.5q0 38 -30.5 61.5t-87.5 23.5q-38 0 -78 -8l-3 -1l13 235h238z" />
    <glyph glyph-name="ct" horiz-adv-x="946" 
d="M486 124l27 -58q-3 -3 -8 -8.5t-23.5 -20t-40.5 -25t-59 -19.5t-78 -9q-115 0 -189.5 67.5t-74.5 182.5q0 127 79 204t199 77q5 0 15 -0.5t15 -0.5q-40 44 -40 102q0 60 48.5 95.5t137.5 35.5h211v-247h214v-82h-214v-251q0 -92 73 -92q32 0 67 10.5t55 21.5l19 11v-74
q-7 -7 -21 -17t-59 -26.5t-94 -16.5q-70 0 -107 47t-37 133v522h-104q-122 0 -122 -89q0 -43 29 -67.5t58 -33.5l8 -2v-82q-74 21 -143 21q-81 0 -133 -54t-52 -137q0 -81 51 -128.5t124 -47.5q46 0 88 14.5t61 29.5z" />
    <glyph glyph-name="halfcaron" horiz-adv-x="414" 
d="M351 734l-108 -178l-61 27l106 182z" />
    <glyph glyph-name="commaaccent" horiz-adv-x="259" 
d="M74 -48l64 -8q0 -42 -19.5 -98.5t-46.5 -93.5l-55 10q57 102 57 190z" />
    <glyph glyph-name="a.alt" horiz-adv-x="636" 
d="M553 475v-475h-104v66h-1q-6 -8 -24 -24.5t-63 -37t-95 -20.5q-106 0 -166 66t-60 182q0 123 84.5 203t224.5 80q57 0 108 -10t73 -20zM302 69q81 0 147 66v291q-45 15 -91 15q-101 0 -156 -54.5t-55 -142.5q0 -83 42 -129t113 -46z" />
    <glyph glyph-name="aring.alt" horiz-adv-x="643" 
d="M553 475v-475h-104v66h-1q-6 -8 -24 -24.5t-63 -37t-95 -20.5q-106 0 -166 66t-60 182q0 123 84.5 203t224.5 80q57 0 108 -10t73 -20zM302 69q81 0 147 66v291q-45 15 -91 15q-101 0 -156 -54.5t-55 -142.5q0 -83 42 -129t113 -46zM449 692q0 -48 -31.5 -79t-80.5 -31
q-51 0 -82 31t-31 79t32 79t81 31q48 0 80 -31t32 -79zM400 693q0 28 -18 45.5t-45 17.5t-45.5 -17.5t-18.5 -45.5t18.5 -46t45.5 -18t45 18t18 46z" />
    <glyph glyph-name="agrave.alt" horiz-adv-x="643" 
d="M553 475v-475h-104v66h-1q-6 -8 -24 -24.5t-63 -37t-95 -20.5q-106 0 -166 66t-60 182q0 123 84.5 203t224.5 80q57 0 108 -10t73 -20zM302 69q81 0 147 66v291q-45 15 -91 15q-101 0 -156 -54.5t-55 -142.5q0 -83 42 -129t113 -46zM220 717l54 48l135 -164l-42 -37z" />
    <glyph glyph-name="adieresis.alt" horiz-adv-x="643" 
d="M553 475v-475h-104v66h-1q-6 -8 -24 -24.5t-63 -37t-95 -20.5q-106 0 -166 66t-60 182q0 123 84.5 203t224.5 80q57 0 108 -10t73 -20zM302 69q81 0 147 66v291q-45 15 -91 15q-101 0 -156 -54.5t-55 -142.5q0 -83 42 -129t113 -46zM491 661q0 -24 -17 -42t-42 -18
t-42 18t-17 42t17 41.5t42 17.5t42 -17.5t17 -41.5zM299 661q0 -24 -17 -42t-42 -18t-41.5 18t-16.5 42t16.5 41.5t41.5 17.5q26 0 42.5 -17.5t16.5 -41.5z" />
    <glyph glyph-name="aogonek.alt" horiz-adv-x="643" 
d="M553 475v-475h-2q-4 -2 -11.5 -5t-26 -14.5t-32.5 -25t-25.5 -35.5t-11.5 -47q0 -70 123 -70v-54q-198 0 -198 123q0 73 93 128h-13v66h-1q-6 -8 -24 -24.5t-63 -37t-95 -20.5q-106 0 -166 66t-60 182q0 123 84.5 203t224.5 80q57 0 108 -10t73 -20zM302 69q81 0 147 66
v291q-45 15 -91 15q-101 0 -156 -54.5t-55 -142.5q0 -83 42 -129t113 -46z" />
    <glyph glyph-name="abreve.alt" horiz-adv-x="643" 
d="M553 475v-475h-104v66h-1q-6 -8 -24 -24.5t-63 -37t-95 -20.5q-106 0 -166 66t-60 182q0 123 84.5 203t224.5 80q57 0 108 -10t73 -20zM302 69q81 0 147 66v291q-45 15 -91 15q-101 0 -156 -54.5t-55 -142.5q0 -83 42 -129t113 -46zM338 651q38 0 72 16.5t49 32.5l15 17
l40 -57q-2 -3 -7 -9t-21.5 -20.5t-35 -25.5t-49 -20t-63.5 -9t-63 8.5t-49.5 21t-34.5 25t-22 21.5l-7 8l39 57q6 -7 17 -18t46.5 -29.5t73.5 -18.5z" />
    <glyph glyph-name="aacute.alt" horiz-adv-x="643" 
d="M553 475v-475h-104v66h-1q-6 -8 -24 -24.5t-63 -37t-95 -20.5q-106 0 -166 66t-60 182q0 123 84.5 203t224.5 80q57 0 108 -10t73 -20zM302 69q81 0 147 66v291q-45 15 -91 15q-101 0 -156 -54.5t-55 -142.5q0 -83 42 -129t113 -46zM396 765l54 -48l-147 -153l-42 37z
" />
    <glyph glyph-name="amacron.alt" horiz-adv-x="643" 
d="M553 475v-475h-104v66h-1q-6 -8 -24 -24.5t-63 -37t-95 -20.5q-106 0 -166 66t-60 182q0 123 84.5 203t224.5 80q57 0 108 -10t73 -20zM302 69q81 0 147 66v291q-45 15 -91 15q-101 0 -156 -54.5t-55 -142.5q0 -83 42 -129t113 -46zM452 681v-55h-237v55h237z" />
    <glyph glyph-name="acircumflex.alt" horiz-adv-x="643" 
d="M553 475v-475h-104v66h-1q-6 -8 -24 -24.5t-63 -37t-95 -20.5q-106 0 -166 66t-60 182q0 123 84.5 203t224.5 80q57 0 108 -10t73 -20zM302 69q81 0 147 66v291q-45 15 -91 15q-101 0 -156 -54.5t-55 -142.5q0 -83 42 -129t113 -46zM337 775l169 -116l-35 -63l-134 96
l-134 -96l-35 63z" />
    <glyph glyph-name="atilde.alt" horiz-adv-x="643" 
d="M553 475v-475h-104v66h-1q-6 -8 -24 -24.5t-63 -37t-95 -20.5q-106 0 -166 66t-60 182q0 123 84.5 203t224.5 80q57 0 108 -10t73 -20zM302 69q81 0 147 66v291q-45 15 -91 15q-101 0 -156 -54.5t-55 -142.5q0 -83 42 -129t113 -46zM506 731l22 -40q-1 -3 -3.5 -8
t-11.5 -17t-19.5 -21.5t-30 -17.5t-41.5 -8q-37 0 -78.5 23t-73.5 23q-28 0 -52 -12t-34 -24l-11 -12l-22 46q2 3 5 8.5t14.5 20t24.5 25t33.5 19.5t41.5 9q42 0 83.5 -24t69.5 -24q27 0 47.5 8.5t27.5 16.5z" />
    <glyph glyph-name="g.alt" horiz-adv-x="636" 
d="M553 475v-439q0 -151 -79.5 -226.5t-209.5 -75.5q-44 0 -81.5 7t-60 17.5t-38.5 21t-22 17.5l-7 7l35 75q7 -7 20.5 -16.5t59 -26t96.5 -16.5q89 0 136 54.5t47 144.5v47q-4 -4 -10.5 -11t-24 -20.5t-37.5 -24t-50 -18.5t-61 -8q-106 0 -166 66t-60 182q0 123 84.5 203
t224.5 80q57 0 108 -10t73 -20zM302 69q81 0 147 66v291q-45 15 -91 15q-101 0 -156 -54.5t-55 -142.5q0 -83 42 -129t113 -46z" />
    <glyph glyph-name="gcommaaccent.alt" horiz-adv-x="643" 
d="M394 777l56 -10q-57 -97 -57 -190l-64 8q0 42 19.5 98t45.5 94zM553 475v-439q0 -151 -79.5 -226.5t-209.5 -75.5q-44 0 -81.5 7t-60 17.5t-38.5 21t-22 17.5l-7 7l35 75q7 -7 20.5 -16.5t59 -26t96.5 -16.5q89 0 136 54.5t47 144.5v47q-4 -4 -10.5 -11t-24 -20.5
t-37.5 -24t-50 -18.5t-61 -8q-106 0 -166 66t-60 182q0 123 84.5 203t224.5 80q57 0 108 -10t73 -20zM302 69q81 0 147 66v291q-45 15 -91 15q-101 0 -156 -54.5t-55 -142.5q0 -83 42 -129t113 -46z" />
    <glyph glyph-name="gbreve.alt" horiz-adv-x="643" 
d="M553 475v-439q0 -151 -79.5 -226.5t-209.5 -75.5q-44 0 -81.5 7t-60 17.5t-38.5 21t-22 17.5l-7 7l35 75q7 -7 20.5 -16.5t59 -26t96.5 -16.5q89 0 136 54.5t47 144.5v47q-4 -4 -10.5 -11t-24 -20.5t-37.5 -24t-50 -18.5t-61 -8q-106 0 -166 66t-60 182q0 123 84.5 203
t224.5 80q57 0 108 -10t73 -20zM302 69q81 0 147 66v291q-45 15 -91 15q-101 0 -156 -54.5t-55 -142.5q0 -83 42 -129t113 -46zM342 651q38 0 72 16.5t49 32.5l15 17l40 -57q-2 -3 -7 -9t-21.5 -20.5t-35 -25.5t-49 -20t-63.5 -9t-63 8.5t-49.5 21t-34.5 25t-22 21.5l-7 8
l39 57q6 -7 17 -18t46.5 -29.5t73.5 -18.5z" />
    <glyph glyph-name="afii10065.alt" horiz-adv-x="643" 
d="M553 475v-475h-104v66h-1q-6 -8 -24 -24.5t-63 -37t-95 -20.5q-106 0 -166 66t-60 182q0 123 84.5 203t224.5 80q57 0 108 -10t73 -20zM302 69q81 0 147 66v291q-45 15 -91 15q-101 0 -156 -54.5t-55 -142.5q0 -83 42 -129t113 -46z" />
    <glyph glyph-name="afii10069.alt" horiz-adv-x="643" 
d="M553 475v-439q0 -151 -79.5 -226.5t-209.5 -75.5q-44 0 -81.5 7t-60 17.5t-38.5 21t-22 17.5l-7 7l35 75q7 -7 20.5 -16.5t59 -26t96.5 -16.5q89 0 136 54.5t47 144.5v47q-4 -4 -10.5 -11t-24 -20.5t-37.5 -24t-50 -18.5t-61 -8q-106 0 -166 66t-60 182q0 123 84.5 203
t224.5 80q57 0 108 -10t73 -20zM302 69q81 0 147 66v291q-45 15 -91 15q-101 0 -156 -54.5t-55 -142.5q0 -83 42 -129t113 -46z" />
    <glyph glyph-name="zero.onum" horiz-adv-x="695" 
d="M347 515q133 0 214.5 -74.5t81.5 -192.5q0 -117 -81.5 -190.5t-214.5 -73.5t-214 73.5t-81 190.5q0 118 81 192.5t214 74.5zM347 428q-86 0 -137 -51t-51 -129t50 -127.5t138 -49.5q87 0 138.5 49.5t51.5 127.5t-51.5 129t-138.5 51z" />
    <glyph glyph-name="one.onum" horiz-adv-x="459" 
d="M250 500h109v-500h-109v392q-130 -117 -194 -168l-47 65z" />
    <glyph glyph-name="two.onum" horiz-adv-x="520" 
d="M467 87v-87h-425v82q12 6 31.5 17.5t70 44t89.5 62.5t70.5 68t31.5 66q0 38 -32.5 63t-98.5 25q-28 0 -57.5 -3t-44.5 -6l-15 -3v84q54 15 150 15q99 0 155.5 -44t56.5 -110q0 -43 -33 -88.5t-87 -84t-101 -65.5t-97 -50q41 0 115 7t100 7h121z" />
    <glyph glyph-name="three.onum" horiz-adv-x="569" 
d="M50 -114l15 65q58 -32 164 -32q86 0 131.5 37t45.5 90q0 50 -48 82t-139 32l-38 57q92 98 179 210q-150 -12 -294 -12v85h408v-60q-81 -105 -180 -207q99 -10 161 -61t62 -126q0 -90 -74.5 -151t-197.5 -61q-67 0 -115.5 13t-63.5 26z" />
    <glyph glyph-name="four.onum" horiz-adv-x="591" 
d="M392 500h78v-426h102v-74h-102v-150h-104v150h-347v74q67 88 160.5 194.5t152.5 169.5zM366 74v316q-155 -182 -263 -321q49 -1 151 2t112 3z" />
    <glyph glyph-name="five.onum" horiz-adv-x="569" 
d="M477 500v-85q-146 0 -256 7q-6 -65 -12 -170q32 4 54 4q119 0 186.5 -55.5t67.5 -141.5q0 -98 -76 -161.5t-201 -63.5q-64 0 -109 8t-58 16l-13 8l15 70q56 -17 150 -17q87 0 134 40t47 102q0 53 -43.5 86t-128.5 33q-53 0 -105 -11l-12 -3l20 334h340z" />
    <glyph glyph-name="six.onum" horiz-adv-x="621" 
d="M393 664l25 -76q-105 -21 -166 -78t-82 -156q89 50 184 50q99 0 159 -52.5t60 -129.5q0 -103 -72 -170.5t-195 -67.5q-113 0 -183.5 72.5t-70.5 182.5q0 96 28.5 173.5t78 127.5t108 80.5t126.5 43.5zM328 328q-85 0 -168 -44q-1 -15 -1 -45q0 -71 41.5 -120.5
t114.5 -49.5q74 0 113 41t39 104q0 51 -38 82.5t-101 31.5z" />
    <glyph glyph-name="seven.onum" horiz-adv-x="522" 
d="M503 500v-60q-8 -12 -21.5 -34.5t-52 -90.5t-72.5 -134.5t-72.5 -158.5t-62.5 -172h-120q72 241 275 575q-199 -15 -358 -15v90h484z" />
    <glyph glyph-name="eight.onum" horiz-adv-x="633" 
d="M52 175q0 108 150 159q-120 54 -120 160q0 72 67.5 121t167.5 49q101 0 168 -49t67 -123q0 -96 -118 -149q147 -52 147 -169q0 -77 -71 -133.5t-193 -56.5q-123 0 -194 56t-71 135zM476 182q0 48 -43.5 79t-86.5 38l-44 7q-5 0 -13 2q-132 -40 -132 -123q0 -51 42 -87
t118 -36q75 0 117 35.5t42 84.5zM336 367q5 -1 13 -2q102 45 102 117q0 44 -37 75.5t-97 31.5t-97 -29.5t-37 -71.5q0 -30 16 -53t38.5 -35.5t44.5 -20.5t38 -10z" />
    <glyph glyph-name="nine.onum" horiz-adv-x="621" 
d="M147 -165l-25 77q111 22 197 79t121 149q-88 -44 -173 -44q-99 0 -159.5 52t-60.5 129q0 104 72 171t195 67q113 0 183.5 -72.5t70.5 -182.5q0 -76 -27.5 -142.5t-70.5 -112.5t-100.5 -82t-112 -56.5t-110.5 -31.5zM292 172q86 0 167 43q3 42 3 45q0 71 -42 120.5
t-114 49.5q-74 0 -113 -41t-39 -103q0 -52 37.5 -83t100.5 -31z" />
    <glyph glyph-name="y.alt" horiz-adv-x="642" 
d="M448 19v84q-3 -5 -7.5 -13t-22.5 -28.5t-38 -36t-53.5 -28.5t-69.5 -13q-82 0 -127.5 49.5t-45.5 148.5v318h104v-315q0 -112 106 -112q88 0 154 110v317h104v-464q0 -151 -79.5 -226.5t-209.5 -75.5q-44 0 -81.5 7t-60 17.5t-38.5 21t-23 17.5l-6 7l35 75
q7 -7 20.5 -16.5t59 -26t96.5 -16.5q89 0 136 54.5t47 144.5z" />
    <glyph glyph-name="yacute.alt" horiz-adv-x="642" 
d="M448 19v84q-3 -5 -7.5 -13t-22.5 -28.5t-38 -36t-53.5 -28.5t-69.5 -13q-82 0 -127.5 49.5t-45.5 148.5v318h104v-315q0 -112 106 -112q88 0 154 110v317h104v-464q0 -151 -79.5 -226.5t-209.5 -75.5q-44 0 -81.5 7t-60 17.5t-38.5 21t-23 17.5l-6 7l35 75
q7 -7 20.5 -16.5t59 -26t96.5 -16.5q89 0 136 54.5t47 144.5zM378 765l54 -48l-147 -153l-42 37z" />
    <glyph glyph-name="ydieresis.alt" horiz-adv-x="642" 
d="M448 19v84q-3 -5 -7.5 -13t-22.5 -28.5t-38 -36t-53.5 -28.5t-69.5 -13q-82 0 -127.5 49.5t-45.5 148.5v318h104v-315q0 -112 106 -112q88 0 154 110v317h104v-464q0 -151 -79.5 -226.5t-209.5 -75.5q-44 0 -81.5 7t-60 17.5t-38.5 21t-23 17.5l-6 7l35 75
q7 -7 20.5 -16.5t59 -26t96.5 -16.5q89 0 136 54.5t47 144.5zM472 661q0 -24 -17 -42t-42 -18t-42 18t-17 42t17 41.5t42 17.5t42 -17.5t17 -41.5zM280 661q0 -24 -17 -42t-42 -18t-41.5 18t-16.5 42t16.5 41.5t41.5 17.5q26 0 42.5 -17.5t16.5 -41.5z" />
    <glyph glyph-name="afii10085.alt" horiz-adv-x="642" 
d="M448 19v84q-3 -5 -7.5 -13t-22.5 -28.5t-38 -36t-53.5 -28.5t-69.5 -13q-82 0 -127.5 49.5t-45.5 148.5v318h104v-315q0 -112 106 -112q88 0 154 110v317h104v-464q0 -151 -79.5 -226.5t-209.5 -75.5q-44 0 -81.5 7t-60 17.5t-38.5 21t-23 17.5l-6 7l35 75
q7 -7 20.5 -16.5t59 -26t96.5 -16.5q89 0 136 54.5t47 144.5z" />
    <glyph glyph-name="afii10110.alt" horiz-adv-x="642" 
d="M448 19v84q-3 -5 -7.5 -13t-22.5 -28.5t-38 -36t-53.5 -28.5t-69.5 -13q-82 0 -127.5 49.5t-45.5 148.5v318h104v-315q0 -112 106 -112q88 0 154 110v317h104v-464q0 -151 -79.5 -226.5t-209.5 -75.5q-44 0 -81.5 7t-60 17.5t-38.5 21t-23 17.5l-6 7l35 75
q7 -7 20.5 -16.5t59 -26t96.5 -16.5q89 0 136 54.5t47 144.5zM319 651q38 0 72 16.5t49 32.5l15 17l40 -57q-2 -3 -7 -9t-21.5 -20.5t-35 -25.5t-49 -20t-63.5 -9t-63 8.5t-49.5 21t-34.5 25t-22 21.5l-7 8l39 57q6 -7 17 -18t46.5 -29.5t73.5 -18.5z" />
    <glyph glyph-name="afii10066.alt" horiz-adv-x="585" 
d="M230 427q-63 36 -98.5 78.5t-35.5 107.5t49 108t117 43q47 0 96 -19.5t73 -19.5q20 0 36 8.5t21 17.5l6 9l60 -23q-1 -4 -2.5 -10.5t-9 -23t-17.5 -29t-29 -23t-42 -10.5q-35 0 -84 19t-80 19q-40 0 -64 -17.5t-24 -50.5q0 -36 36 -68.5t87.5 -60.5t103 -60t87.5 -81.5
t36 -110.5q0 -113 -73.5 -179.5t-192.5 -66.5q-116 0 -182.5 59.5t-66.5 166.5q0 96 63 154.5t130 62.5zM447 223q0 31 -12 56.5t-40 47.5t-49 35t-62 35q-52 -10 -100.5 -58t-48.5 -120q0 -73 41 -114t111 -41t115 44t45 115z" />
    <glyph glyph-name="AndrijType" horiz-adv-x="1906" 
d="M99 281l-4 39q30 2 62.5 39.5t63.5 100t53.5 115.5t46.5 115l9 24h-1q-55 0 -100.5 -29.5t-45.5 -72.5q0 -24 18 -52l-37 -16q-19 31 -19 62q0 59 57.5 102.5t129.5 43.5q34 0 58 -7t37 -20.5t19 -25t11 -27.5l52 -192q12 -38 22 -38l30 7v-30q-41 -12 -65 -12
q-14 0 -22.5 12t-16.5 41l-8 29h-165q-95 -204 -185 -208zM998 -128l-52 -3q0 55 1 164t1 164q0 17 -2 17l-28 3l2 29q56 3 68 3q13 0 13 -28v-27q4 10 11.5 21t30 25t50.5 14q49 0 78.5 -35t29.5 -92q0 -61 -41 -100.5t-116 -39.5q-20 0 -46 4v-119zM1127 463v2h-1
q-1 -3 -3 -7t-9.5 -15t-17 -19t-26.5 -15t-36 -7q-49 0 -78.5 33.5t-29.5 89.5q0 61 42 102.5t116 41.5q30 0 56 -7q16 77 51 125l42 -28q-35 -48 -45 -103.5t-10 -135.5v-51q0 -29 11 -29l22 5v-26q-24 -12 -45 -12q-22 0 -30.5 12.5t-8.5 43.5zM1334 82l-3 39
q54 0 79.5 19.5t25.5 49.5q0 21 -16.5 32.5t-41.5 11.5q-39 0 -62.5 -35.5t-23.5 -86.5q0 -57 34 -92.5t88 -35.5q40 0 79 20l17 -29q-49 -33 -107 -33q-68 0 -115.5 45.5t-47.5 121.5q0 67 40.5 112t103.5 45q37 0 67 -18.5t30 -51.5q0 -39 -29 -60t-67 -21v-1
q59 -6 109 -6q128 0 195 39.5t67 113.5l44 -13q0 -87 -76 -134.5t-216 -47.5q-81 0 -174 16zM256 179l-41 2q0 61 50.5 102.5t152.5 41.5q34 0 66 -4q37 -4 76 -4q135 0 148 64l37 -5q-6 -42 -48 -71t-134 -29q-33 0 -51 2v-210q0 -36 4 -36l30 4l1 -35q-52 -10 -74 -10
q-16 0 -16 77v214q-11 1 -31 1q-170 0 -170 -104zM552 -118l7 42q27 -5 45 -5q88 0 140 78q-61 184 -98 184q-12 0 -33 -6.5t-35 -12.5l-15 -6l-6 30q50 39 115 39q30 0 57 -59t46 -131q35 61 73 220l51 -7q-6 -30 -39.5 -119t-65.5 -141q-68 -112 -188 -112q-26 0 -54 6z
M668 412l-52 -2q0 33 0.5 101t0.5 102q0 15 -5 18q-3 2 -24.5 6t-30.5 8l7 33q11 -4 42.5 -7.5t40.5 -5.5q22 -6 22 -46v-29h1q1 3 3 8.5t10.5 19t19 23.5t28.5 18.5t38 8.5q79 0 79 -95q0 -12 -0.5 -47.5t-0.5 -56.5q0 -29 12 -29l21 5v-26q-24 -12 -44 -12
q-23 0 -31.5 12.5t-8.5 43.5l1 108q0 52 -48 52q-21 0 -41 -15t-27.5 -25.5t-11.5 -18.5q-1 -51 -1 -152zM1516 274l6 39q23 -13 50 -13q45 0 77.5 37.5t32.5 106.5q0 34 0.5 84.5t0.5 84.5q0 17 -3 17l-27 2q1 9 1 29q44 4 61 4q20 0 20 -46q0 -35 -1 -85t-1 -84
q0 -93 -42.5 -142.5t-105.5 -49.5q-32 0 -69 16zM1001 168q-2 -92 -2 -137q25 -10 53 -10q46 0 70.5 27.5t24.5 70.5q0 41 -21 66t-54 25q-45 0 -71 -42zM1127 492q0 75 7 131q-29 11 -56 11q-46 0 -72 -28.5t-26 -72.5q0 -41 20.5 -64t54.5 -23q20 0 38 11.5t26 22.5z
M1338 412l-53 -2q0 33 1 101t1 102q0 14 -2 16l-28 3l1 29q50 4 62 4q12 -8 12 -42v-50q6 33 27.5 65t55.5 32q7 0 14 -2t10 -4l3 -1l-1 -49q-22 4 -36 4q-24 0 -42.5 -27.5t-24.5 -55.5v-123zM1560 619q0 -25 -1 -75t-1 -75q0 -29 11 -29l22 5v-26q-24 -12 -44 -12
q-23 0 -31.5 12.5t-8.5 43.5q0 25 1 75t1 75q0 17 -3 17l-28 2l1 29q44 4 61 4q20 0 20 -46zM406 655q0 1 -2.5 9t-3.5 9.5t-3.5 8t-4.5 8.5t-5 6.5t-7.5 7t-9.5 4.5q-43 -122 -71 -185h141zM1507 743q0 13 8.5 21.5t20.5 8.5t21 -8.5t9 -21.5t-9 -21.5t-21 -8.5t-20.5 8.5
t-8.5 21.5zM1682 743q0 13 9 21.5t20 8.5q12 0 21 -8.5t9 -21.5t-9 -21.5t-21 -8.5q-11 0 -20 8.5t-9 21.5z" />
    <glyph glyph-name="afii10083_afii10077" horiz-adv-x="1058" 
d="M965 500v-500h-104v418h-171q-3 -73 -12.5 -131.5t-32.5 -117t-59 -97.5t-95.5 -63.5t-138.5 -24.5q-152 0 -232 65.5t-80 184.5q0 127 79 204t199 77q33 0 71 -5.5t59 -10.5l22 -5v-82q-74 21 -143 21q-81 0 -133 -54t-52 -137q0 -86 56 -131t154 -45q62 0 108 25
t72.5 63.5t42 98.5t21 116.5t6.5 130.5h363z" />
    <glyph glyph-name="afii10070_afii10077" horiz-adv-x="1128" 
d="M1035 500v-500h-104v418h-171q-9 -227 -96.5 -330.5t-302.5 -103.5q-153 0 -237 66t-84 184q0 125 71 203t176 78q99 0 163 -56t64 -161q0 -19 -3 -37.5t-6 -26.5l-3 -9h-362v-12q3 -75 66 -113t156 -38q75 0 128 17.5t88 50.5t55.5 88t29 121.5t9.5 160.5h363zM288 441
q-60 0 -102.5 -44.5t-47.5 -114.5q188 0 286 3q1 11 1 23q0 67 -38.5 100t-98.5 33z" />
    <glyph glyph-name="afii10101_afii10077" horiz-adv-x="1058" 
d="M470 417q-74 21 -143 21q-83 0 -132 -40.5t-59 -117.5h266v-60h-267q11 -157 217 -157q55 0 96.5 16t68 49t43.5 70t26 91.5t12 100.5t4 110h363v-500h-104v418h-171q-3 -76 -11 -133.5t-30.5 -116.5t-58.5 -97.5t-96.5 -62.5t-142.5 -24q-152 0 -231.5 65.5t-79.5 184.5
q0 127 79 204t199 77q33 0 71 -5.5t59 -10.5l22 -5v-77z" />
    <glyph glyph-name="afii10083_afii10106" horiz-adv-x="1359" 
d="M470 412q-74 21 -143 21q-81 0 -133 -54t-52 -137q0 -86 56 -131t154 -45q62 0 108 25t72.5 63.5t42 98.5t21 116.5t6.5 130.5h363v-212h3q7 5 20 12t56 19t91 12q86 0 135 -41t49 -116q0 -77 -69 -133.5t-168 -56.5q-103 0 -162 43t-59 101v290h-171
q-3 -73 -12.5 -131.5t-32.5 -117t-59 -97.5t-95.5 -63.5t-138.5 -24.5q-152 0 -232 65.5t-80 184.5q0 127 79 204t199 77q33 0 71 -5.5t59 -10.5l22 -5v-82zM1100 260q-65 0 -135 -32v-90q2 -36 36.5 -60t87.5 -24t88.5 32t35.5 81q0 93 -113 93z" />
    <glyph glyph-name="afii10070_afii10106" horiz-adv-x="1429" 
d="M1035 500v-212h3q7 5 20 12t56 19t91 12q86 0 135 -41t49 -116q0 -77 -69 -133.5t-168 -56.5q-103 0 -162 43t-59 101v290h-171q-9 -227 -96.5 -330.5t-302.5 -103.5q-153 0 -237 66t-84 184q0 125 71 203t176 78q99 0 163 -56t64 -161q0 -19 -3 -37.5t-6 -26.5l-3 -9
h-362v-6q0 -78 63.5 -117.5t158.5 -39.5q75 0 128 17.5t88 50.5t55.5 88t29 121.5t9.5 160.5h363zM1170 260q-65 0 -135 -32v-90q2 -36 36.5 -60t87.5 -24t88.5 32t35.5 81q0 93 -113 93zM288 441q-60 0 -102.5 -44.5t-47.5 -114.5q188 0 286 3q1 11 1 23q0 67 -38.5 100
t-98.5 33z" />
    <glyph glyph-name="afii10101_afii10106" horiz-adv-x="1359" 
d="M470 417q-74 21 -143 21q-83 0 -132 -40.5t-59 -117.5h266v-60h-267q11 -157 217 -157q55 0 96.5 16t68 49t43.5 70t26 91.5t12 100.5t4 110h363v-212h3q7 5 20 12t56 19t91 12q86 0 135 -41t49 -116q0 -77 -69 -133.5t-168 -56.5q-103 0 -162 43t-59 101v290h-171
q-3 -76 -11 -133.5t-30.5 -116.5t-58.5 -97.5t-96.5 -62.5t-142.5 -24q-152 0 -231.5 65.5t-79.5 184.5q0 127 79 204t199 77q33 0 71 -5.5t59 -10.5l22 -5v-77zM1100 260q-65 0 -135 -32v-86q0 -38 34.5 -63t89.5 -25q53 0 88.5 32t35.5 81q0 93 -113 93z" />
    </font>
</defs>
</svg>
