<?xml version="1.0" standalone="no"?>
<!DOCTYPE svg PUBLIC "-//W3C//DTD SVG 1.1//EN" "http://www.w3.org/Graphics/SVG/1.1/DTD/svg11.dtd" >
<svg xmlns="http://www.w3.org/2000/svg" xmlns:xlink="http://www.w3.org/1999/xlink" version="1.1">
<metadata>
Created by FontForge 20161003 at Mon Jul 31 14:38:42 2017
 By www-data
Copyright (c) 2009 by Andrij Shevchenko / AndrijType. All rights reserved.
</metadata>
<defs>
<font id="OksanaSansLight" horiz-adv-x="552" >
  <font-face 
    font-family="OksanaSansLight"
    font-weight="300"
    font-stretch="normal"
    units-per-em="1000"
    panose-1="2 1 3 4 4 2 0 2 0 4"
    ascent="750"
    descent="-250"
    x-height="500"
    cap-height="650"
    bbox="-23 -260 1641 950"
    underline-thickness="50"
    underline-position="-150"
    unicode-range="U+0020-FB06"
  />
<missing-glyph horiz-adv-x="507" 
d="M398 182l-20 -17l-125 136l-128 -129l-20 17l130 132l-125 138l20 17l124 -136l130 131l20 -17l-132 -134zM290 482q0 -12 -8.5 -19.5t-20.5 -7.5q-13 0 -21.5 7.5t-8.5 19.5t8.5 19.5t21.5 7.5q12 0 20.5 -7.5t8.5 -19.5zM433 322q0 -12 -8.5 -19.5t-20.5 -7.5
t-20.5 7.5t-8.5 19.5t8.5 19.5t20.5 7.5t20.5 -7.5t8.5 -19.5zM285 161q0 -12 -8.5 -19.5t-20.5 -7.5t-20.5 7.5t-8.5 19.5t8.5 19.5t20.5 7.5t20.5 -7.5t8.5 -19.5zM129 327q0 -12 -8 -19.5t-20 -7.5t-20.5 7.5t-8.5 19.5t8.5 19.5t20.5 7.5t20 -7.5t8 -19.5z" />
    <glyph glyph-name="fi" unicode="fi" horiz-adv-x="642" 
d="M528 500v-500h-34v473h-350v-473h-34v473h-69v27h69v80q0 100 33.5 137.5t105.5 37.5q29 0 59 -5.5t46 -11.5l15 -5v-28q-56 20 -113 20q-59 0 -85.5 -29.5t-26.5 -115.5v-80h384zM535 643q0 -11 -7 -18.5t-19 -7.5q-11 0 -18 7.5t-7 18.5t7 19t18 8q12 0 19 -7.5
t7 -19.5z" />
    <glyph glyph-name="fl" unicode="fl" horiz-adv-x="641" 
d="M536 750v-750h-34v721q-91 8 -186 8q-102 0 -137 -29t-35 -120v-80h204v-27h-204v-473h-34v473h-69v27h69v80q0 104 42.5 141t159.5 37q41 0 89.5 -2t76.5 -4l27 -2h31z" />
    <glyph glyph-name="afii10104_afii10104" unicode="&#x457;&#x457;" horiz-adv-x="526" 
d="M501 643q0 -11 -7.5 -18.5t-17.5 -7.5q-12 0 -19.5 7.5t-7.5 18.5t7.5 19t19.5 8q10 0 17.5 -8t7.5 -19zM362 643q0 -11 -7.5 -18.5t-19.5 -7.5q-10 0 -17.5 7.5t-7.5 18.5t7.5 19t17.5 8q12 0 19.5 -8t7.5 -19zM221 643q0 -11 -7.5 -18.5t-17.5 -7.5q-11 0 -18.5 7.5
t-7.5 18.5t7.5 19t18.5 8q10 0 17.5 -8t7.5 -19zM81 643q0 -11 -7.5 -18.5t-18.5 -7.5q-10 0 -17.5 7.5t-7.5 18.5t7.5 19t17.5 8q11 0 18.5 -8t7.5 -19zM149 500v-500h-34v500h34zM412 500v-500h-34v500h34z" />
    <glyph glyph-name="afii10103_afii10104" unicode="&#x456;&#x457;" horiz-adv-x="526" 
d="M501 643q0 -11 -7.5 -18.5t-17.5 -7.5q-12 0 -19.5 7.5t-7.5 18.5t7.5 19t19.5 8q10 0 17.5 -8t7.5 -19zM338 643q0 -11 -7.5 -18.5t-18.5 -7.5t-18 7.5t-7 18.5t7 19t18 8t18.5 -8t7.5 -19zM149 500v-500h-34v500h34zM156 643q0 -11 -7 -18.5t-19 -7.5q-11 0 -18 7.5
t-7 18.5t7 19t18 8q12 0 19 -7.5t7 -19.5zM412 500v-500h-34v500h34z" />
    <glyph glyph-name=".notdef" horiz-adv-x="507" 
d="M398 182l-20 -17l-125 136l-128 -129l-20 17l130 132l-125 138l20 17l124 -136l130 131l20 -17l-132 -134zM290 482q0 -12 -8.5 -19.5t-20.5 -7.5q-13 0 -21.5 7.5t-8.5 19.5t8.5 19.5t21.5 7.5q12 0 20.5 -7.5t8.5 -19.5zM433 322q0 -12 -8.5 -19.5t-20.5 -7.5
t-20.5 7.5t-8.5 19.5t8.5 19.5t20.5 7.5t20.5 -7.5t8.5 -19.5zM285 161q0 -12 -8.5 -19.5t-20.5 -7.5t-20.5 7.5t-8.5 19.5t8.5 19.5t20.5 7.5t20.5 -7.5t8.5 -19.5zM129 327q0 -12 -8 -19.5t-20 -7.5t-20.5 7.5t-8.5 19.5t8.5 19.5t20.5 7.5t20 -7.5t8 -19.5z" />
    <glyph glyph-name=".null" horiz-adv-x="0" 
 />
    <glyph glyph-name="nonmarkingreturn" horiz-adv-x="333" 
 />
    <glyph glyph-name="space" unicode=" " horiz-adv-x="267" 
 />
    <glyph glyph-name="exclam" unicode="!" horiz-adv-x="288" 
d="M162 750l-4 -476h-29l-3 476h36zM172 40q0 -12 -8 -20t-19 -8q-12 0 -19.5 8t-7.5 20t7.5 20t19.5 8q11 0 19 -8.5t8 -19.5z" />
    <glyph glyph-name="quotedbl" unicode="&#x22;" horiz-adv-x="278" 
d="M76 749l-3 -210h-26l-3 210h32zM205 749l-3 -210h-26l-3 210h32z" />
    <glyph glyph-name="numbersign" unicode="#" horiz-adv-x="558" 
d="M416 536l-33 -129h112v-23h-118l-31 -121h149v-23h-155l-35 -139l-21 5l34 134h-122l-34 -133l-21 6l33 127h-111v23h117l31 121h-148v23h154l36 140l21 -5l-35 -135h122l34 134zM233 384l-31 -121h122l31 121h-122z" />
    <glyph glyph-name="dollar" unicode="$" horiz-adv-x="478" 
d="M38 113l11 23q9 -6 25.5 -15.5t69 -25.5t107.5 -16q77 0 116 37.5t39 81.5q0 37 -35 61.5t-85.5 38t-100.5 28t-85 42t-35 69.5q0 56 46 93t122 44l-1 126h32l-2 -124h5q34 0 69.5 -5t53.5 -10l19 -5v-26q-72 21 -141 21q-76 0 -122.5 -30.5t-46.5 -80.5q0 -35 35 -58.5
t85 -36.5t100 -27.5t85 -43.5t35 -73q0 -54 -44.5 -98.5t-132.5 -47.5l2 -105h-32l1 105q-58 2 -107 16.5t-68 28.5z" />
    <glyph glyph-name="percent" unicode="%" horiz-adv-x="1030" 
d="M744 650l-433 -650h-33l433 650h33zM426 478q0 -79 -51.5 -129t-127.5 -50q-77 0 -127.5 50t-50.5 129q0 80 51 130.5t127 50.5t127.5 -50.5t51.5 -130.5zM398 478q0 68 -44 111t-107 43t-106 -43t-43 -111t43 -110t106 -42q64 0 107.5 42t43.5 110zM960 169
q0 -79 -51.5 -129t-127.5 -50q-77 0 -127.5 50t-50.5 129q0 80 51 130.5t127 50.5t127.5 -50.5t51.5 -130.5zM932 169q0 68 -44 111t-107 43t-106 -43t-43 -111t43 -110t106 -42q64 0 107.5 42t43.5 110z" />
    <glyph glyph-name="ampersand" unicode="&#x26;" horiz-adv-x="759" 
d="M706 362v-23h-229v-221q0 -44 20.5 -71t64.5 -27q36 0 72 12.5t54 25.5l18 13l1 -25q-7 -6 -20 -15.5t-53 -25t-81 -15.5q-94 0 -108 95q-11 -18 -26.5 -35.5t-59.5 -38.5t-100 -21q-93 0 -150 51.5t-57 134.5q0 77 51 122t129 57q-107 41 -107 151q0 72 48 112.5
t141 40.5q38 0 71 -7.5t47 -15.5l15 -8v-23q-47 30 -123 30q-83 0 -125 -35t-42 -97q0 -37 13.5 -65t31.5 -42t39 -22.5t31.5 -10t14.5 -1.5h156v135l34 10v-145h229zM443 113v226h-163q-81 -2 -137 -42t-56 -116q0 -71 50 -117t134 -46q36 0 66.5 10t49 24t32 27.5
t19.5 23.5z" />
    <glyph glyph-name="quotesingle" unicode="'" horiz-adv-x="149" 
d="M76 749l-3 -210h-26l-3 210h32z" />
    <glyph glyph-name="parenleft" unicode="(" horiz-adv-x="331" 
d="M250 724l27 -11q-5 -7 -14 -19.5t-32 -55.5t-40 -90.5t-31.5 -122.5t-14.5 -153t13.5 -151.5t33 -123t39 -87.5t33.5 -56l13 -18l-27 -11q-6 6 -15 18.5t-33 54.5t-42.5 90t-33.5 125t-15 159t14.5 159t34.5 127.5t40.5 90t35.5 57.5z" />
    <glyph glyph-name="parenright" unicode=")" horiz-adv-x="331" 
d="M81 -175l-27 11q5 7 14 19.5t32 55.5t40 90.5t31.5 122.5t14.5 153t-13.5 151.5t-33 123t-39 87.5t-32.5 56l-14 18l27 11q6 -6 15 -18.5t33 -54.5t42.5 -90t33.5 -125t15 -159t-14.5 -159t-35 -127.5t-40.5 -90t-34 -57.5z" />
    <glyph glyph-name="asterisk" unicode="*" horiz-adv-x="463" 
d="M42 576l181 -67l-7 193h32l-9 -193l183 67l9 -30l-185 -53l119 -152l-26 -18l-107 158l-108 -158l-26 18l119 152l-185 53z" />
    <glyph glyph-name="plus" unicode="+" horiz-adv-x="460" 
d="M245 465v-172h170v-27h-170v-172h-28v172h-172v27h172v172h28z" />
    <glyph glyph-name="comma" unicode="," horiz-adv-x="242" 
d="M112 105l-4 15q6 5 15 5q18 0 18 -14q0 -106 -79 -216l-21 8q71 105 71 202z" />
    <glyph glyph-name="hyphen" unicode="-" horiz-adv-x="333" 
d="M289 293v-27h-245v27h245z" />
    <glyph glyph-name="period" unicode="." horiz-adv-x="249" 
d="M151 40q0 -12 -8 -20t-19 -8q-12 0 -19.5 8t-7.5 20t7.5 20t19.5 8q11 0 19 -8.5t8 -19.5z" />
    <glyph glyph-name="slash" unicode="/" horiz-adv-x="479" 
d="M468 750h33q-262 -539 -471 -1000h-34q93 205 211 455t189 397z" />
    <glyph glyph-name="zero" unicode="0" horiz-adv-x="694" 
d="M347 659q123 0 200.5 -91.5t77.5 -244.5t-77.5 -243t-200.5 -90t-200.5 90t-77.5 243t77.5 244.5t200.5 91.5zM347 629q-108 0 -175.5 -83t-67.5 -223t67 -221.5t176 -81.5t176 81.5t67 221.5t-67 223t-176 83z" />
    <glyph glyph-name="one" unicode="1" horiz-adv-x="423" 
d="M267 650h35v-650h-35v614q-126 -121 -229 -211l-16 21z" />
    <glyph glyph-name="two" unicode="2" horiz-adv-x="580" 
d="M511 29v-29h-452v29q16 11 42 29.5t92.5 74.5t117.5 108t92.5 119.5t41.5 120.5q0 70 -51.5 109.5t-160.5 39.5q-44 0 -82.5 -5t-54.5 -11l-17 -5v26q55 24 160 24q123 0 183 -47t60 -125q0 -50 -31.5 -110t-74 -109.5t-101.5 -102.5t-96.5 -82.5t-75.5 -56.5
q19 -1 69 -1q57 0 180.5 2t158.5 2z" />
    <glyph glyph-name="three" unicode="3" horiz-adv-x="569" 
d="M51 63l11 23q2 -3 6.5 -7.5t21.5 -16t37.5 -20.5t54.5 -16.5t73 -7.5q102 0 155.5 51t53.5 122q0 62 -59.5 106t-164.5 44l-14 19q87 105 201 267q-165 -5 -345 -5v28h380v-21q-93 -135 -201 -263q110 -2 174.5 -52t64.5 -123q0 -82 -62.5 -141.5t-177.5 -59.5
q-43 0 -80.5 7.5t-60 18t-39 21.5t-22.5 19z" />
    <glyph glyph-name="four" unicode="4" horiz-adv-x="543" 
d="M391 650h27v-434h100v-27h-100v-189h-34v189h-358v27q61 84 152.5 192.5t151.5 175.5zM384 615q-187 -210 -330 -400h54q46 0 147.5 0.5t128.5 0.5v399z" />
    <glyph glyph-name="five" unicode="5" horiz-adv-x="553" 
d="M450 650v-28q-194 0 -272 3q-8 -98 -15 -243q36 10 86 10q107 0 171 -51.5t64 -131.5q0 -95 -62 -157t-178 -62q-43 0 -81 7.5t-60.5 18t-39 21.5t-23.5 19l-6 7l12 23q2 -3 6.5 -7.5t21.5 -16t37.5 -20.5t54.5 -16.5t73 -7.5q103 0 156 54.5t53 137.5q0 68 -56.5 112.5
t-151.5 44.5q-45 0 -81 -8l-27 -8l18 299h300z" />
    <glyph glyph-name="six" unicode="6" horiz-adv-x="615" 
d="M437 659l9 -26q-57 -14 -107 -37t-98.5 -59.5t-82.5 -91.5t-47 -124q107 70 225 70q96 0 154 -49t58 -125q0 -97 -61.5 -162t-179.5 -65q-102 0 -170 71t-68 180q0 77 23.5 142.5t60.5 109.5t87.5 79t98 54.5t98.5 32.5zM328 366q-112 0 -221 -70q-3 -27 -3 -55
q0 -96 58 -159.5t147 -63.5q102 0 153 56t51 140q0 67 -50.5 109.5t-134.5 42.5z" />
    <glyph glyph-name="seven" unicode="7" horiz-adv-x="493" 
d="M467 650v-21q-194 -360 -308 -629h-40q103 245 309 627q-254 -7 -402 -7v30h441z" />
    <glyph glyph-name="eight" unicode="8" horiz-adv-x="614" 
d="M69 165q0 39 18 70t48 51t57 31t58 19q-26 7 -49 18t-47 30t-38.5 49t-14.5 67q0 64 57 111.5t149 47.5t149.5 -48t57.5 -113q0 -35 -15 -63.5t-40 -47t-48.5 -29t-49.5 -18.5q31 -7 58.5 -18.5t58 -31.5t49 -52.5t18.5 -73.5q0 -68 -63 -121t-175 -53t-175 53t-63 122z
M510 167q0 40 -21.5 71.5t-52 47t-61 25.5t-51.5 13l-22 2q-5 0 -11 1q-27 -5 -52.5 -14t-59.5 -26.5t-55 -48.5t-21 -70q0 -59 53.5 -105.5t150.5 -46.5q96 0 149.5 46t53.5 105zM313 348q4 0 11 -1q23 5 45 14t50 26t45 45t17 63q0 55 -47 97t-127 42q-79 0 -126 -40.5
t-47 -94.5q0 -39 18.5 -69t45 -45t52.5 -24t44 -11zM303 329l-1 -3l2 3h-1z" />
    <glyph glyph-name="nine" unicode="9" horiz-adv-x="615" 
d="M178 -10l-8 25q57 14 107 37t98.5 59.5t82.5 92t47 124.5q-113 -70 -225 -70q-97 0 -155 49t-58 125q0 97 62 162t180 65q102 0 169.5 -71t67.5 -180q0 -77 -23.5 -142.5t-60.5 -110t-87.5 -79t-97.5 -54.5t-99 -32zM287 283q115 0 222 70q3 25 3 55q0 96 -58.5 159.5
t-147.5 63.5q-102 0 -153 -56t-51 -140q0 -67 51 -109.5t134 -42.5z" />
    <glyph glyph-name="colon" unicode=":" horiz-adv-x="252" 
d="M151 391q0 -12 -8 -20t-19 -8q-12 0 -19.5 8t-7.5 20t7.5 20t19.5 8q11 0 19 -8.5t8 -19.5zM151 107q0 -12 -8 -20t-19 -8q-12 0 -19.5 8t-7.5 20t7.5 20t19.5 8q11 0 19 -8.5t8 -19.5z" />
    <glyph glyph-name="semicolon" unicode=";" horiz-adv-x="249" 
d="M115 105l-4 15q6 5 15 5q18 0 18 -14q0 -106 -79 -216l-21 8q71 105 71 202zM151 391q0 -12 -8 -20t-19 -8q-12 0 -19.5 8t-7.5 20t7.5 20t19.5 8q11 0 19 -8.5t8 -19.5z" />
    <glyph glyph-name="less" unicode="&#x3c;" horiz-adv-x="446" 
d="M401 154l-16 -17l-298 182l298 182l16 -17l-277 -165z" />
    <glyph glyph-name="equal" unicode="=" horiz-adv-x="530" 
d="M485 387v-27h-440v27h440zM485 198v-27h-440v27h440z" />
    <glyph glyph-name="greater" unicode="&#x3e;" horiz-adv-x="446" 
d="M45 484l16 17l298 -182l-298 -182l-16 17l276 165z" />
    <glyph glyph-name="question" unicode="?" horiz-adv-x="427" 
d="M-11 696v26q46 33 151 33q122 0 183 -47t61 -124q0 -51 -26 -89t-63 -62t-73 -48t-60.5 -62t-22.5 -90l-26 -3q-3 41 8.5 74.5t32 56t46 41.5t51.5 36.5t47.5 36t35 45.5t13.5 60q0 68 -52 107.5t-161 39.5q-43 0 -79 -7.5t-51 -15.5zM162 40q0 -12 -8 -20t-19 -8
q-12 0 -19.5 8t-7.5 20t7.5 20t19.5 8q11 0 19 -8.5t8 -19.5z" />
    <glyph glyph-name="at" unicode="@" horiz-adv-x="1001" 
d="M718 -10q-39 0 -54.5 23t-15.5 70q-10 -12 -29 -29t-64 -40.5t-86 -23.5q-78 0 -131.5 52t-53.5 144q0 95 64 158t167 63q38 0 77.5 -3.5t59.5 -7.5l21 -3v-309q0 -39 10 -56.5t38 -17.5q64 0 113 58t49 193q0 150 -96.5 240.5t-247.5 90.5q-178 0 -293.5 -104.5
t-115.5 -297.5q0 -176 108 -273.5t265 -97.5v-24q-171 0 -286 104t-115 291q0 200 122.5 313t314.5 113q164 0 267 -97t103 -258q0 -77 -18 -133t-47.5 -84.5t-60.5 -41t-65 -12.5zM477 13q24 0 50.5 9t45 20t38.5 26.5t25.5 21l11.5 11.5v273q-83 11 -135 11
q-89 0 -146 -56.5t-57 -142.5q0 -81 48.5 -127t118.5 -46z" />
    <glyph glyph-name="A" unicode="A" horiz-adv-x="664" 
d="M311 650l1 -1v1h41l280 -650h-36l-84 191h-365l-81 -191h-36zM503 215q-25 60 -65.5 155.5t-71.5 169t-35 83.5l-172 -408h344z" />
    <glyph glyph-name="B" unicode="B" horiz-adv-x="641" 
d="M132 0v650q93 9 186 9q101 0 150.5 -43t49.5 -110q0 -102 -85 -174q139 -38 139 -149q0 -90 -66.5 -141.5t-189.5 -51.5q-41 0 -87 2.5t-71 5.5zM303 324q-61 0 -139 -6v-294q82 -7 151 -7q107 0 165 43t58 123q0 71 -64.5 106t-170.5 35zM303 347q55 0 104 -9
q81 70 81 164q0 58 -43 94.5t-127 36.5q-86 0 -154 -8v-284q66 6 139 6z" />
    <glyph glyph-name="C" unicode="C" horiz-adv-x="699" 
d="M606 631v-171h-27v149q-65 21 -164 21q-133 0 -221 -85.5t-88 -225.5q0 -139 82.5 -219t213.5 -80q43 0 84.5 11.5t70.5 27.5t52 32t34 27l11 12l12 -20q-4 -5 -11.5 -13t-33.5 -28.5t-55 -36.5t-74.5 -29t-93.5 -13q-146 0 -237.5 88.5t-91.5 240.5t98 246t244 94
q59 0 108 -7t68 -14z" />
    <glyph glyph-name="D" unicode="D" horiz-adv-x="771" 
d="M132 0v650q82 9 202 9q163 0 266 -91t103 -245t-102.5 -243.5t-266.5 -89.5q-43 0 -93.5 2.5t-79.5 5.5zM335 19q146 0 238.5 82t92.5 222t-92.5 223.5t-239.5 83.5q-82 0 -166 -7v-596q101 -8 167 -8z" />
    <glyph glyph-name="E" unicode="E" horiz-adv-x="609" 
d="M564 28v-28h-432v650h397v-28h-361v-263h299v-27h-299v-304h396z" />
    <glyph glyph-name="F" unicode="F" 
d="M484 344v-27h-316v-317h-36v650h406v-28h-370v-278h316z" />
    <glyph glyph-name="G" unicode="G" horiz-adv-x="747" 
d="M423 19q116 0 197 47v322h31v-337q-9 -7 -26 -17t-77 -27t-127 -17q-161 0 -256.5 89t-95.5 244q0 153 101.5 244.5t259.5 91.5q56 0 106 -7t72 -14l22 -7v-28q-79 28 -194 28q-147 0 -239 -83.5t-92 -224.5q0 -142 87 -223t231 -81z" />
    <glyph glyph-name="H" unicode="H" horiz-adv-x="772" 
d="M639 650v-650h-35v297h-436v-297h-36v650h36v-326h436v326h35z" />
    <glyph glyph-name="I" unicode="I" horiz-adv-x="301" 
d="M168 650v-650h-36v650h36z" />
    <glyph glyph-name="J" unicode="J" horiz-adv-x="320" 
d="M187 650v-562q0 -135 -56.5 -209t-127.5 -84l-5 30q60 9 106.5 76t46.5 187v562h36z" />
    <glyph glyph-name="K" unicode="K" horiz-adv-x="680" 
d="M132 0v650h36v-399l117 99l298 300h41l-314 -314l339 -336h-41l-321 315l-119 -100v-215h-36z" />
    <glyph glyph-name="L" unicode="L" horiz-adv-x="574" 
d="M561 27v-27h-429v650h36v-623h393z" />
    <glyph glyph-name="M" unicode="M" horiz-adv-x="905" 
d="M747 650l103 -650h-34l-94 599l-254 -599h-31l-255 599l-93 -599h-34l105 650h34l258 -613l260 613h35z" />
    <glyph glyph-name="N" unicode="N" horiz-adv-x="800" 
d="M668 650v-650h-30l-477 601q2 -4 2 -8v-593h-31v650h29l476 -602v7v595h31z" />
    <glyph glyph-name="O" unicode="O" horiz-adv-x="800" 
d="M731 323q0 -151 -95.5 -242t-235.5 -91q-141 0 -236 91t-95 242q0 152 95 244t236 92q140 0 235.5 -92t95.5 -244zM695 323q0 138 -85.5 222.5t-209.5 84.5q-125 0 -210 -84t-85 -223q0 -138 85 -221t210 -83t210 83t85 221z" />
    <glyph glyph-name="P" unicode="P" horiz-adv-x="584" 
d="M132 0v650q76 9 151 9q110 0 175.5 -56t65.5 -143q0 -53 -19.5 -93.5t-49 -63.5t-69.5 -37.5t-74.5 -19t-70.5 -4.5q-37 0 -76 7v-249h-33zM282 631q-27 0 -117 -6v-351q23 -5 67 -5q34 0 65 4t67.5 16.5t63 32.5t44 55.5t17.5 82.5q0 74 -56 122.5t-151 48.5z" />
    <glyph glyph-name="Q" unicode="Q" horiz-adv-x="800" 
d="M433 -10q-166 0 -265 89.5t-99 243.5q0 152 94.5 244t234.5 92q143 0 237 -82t94 -226q0 -140 -72 -235t-165 -110q139 -7 237 -117l-27 -17q-104 118 -269 118zM441 19q93 0 171.5 92.5t78.5 236.5q0 134 -83 208t-210 74q-124 0 -208.5 -84t-84.5 -223
q0 -141 91.5 -222.5t244.5 -81.5z" />
    <glyph glyph-name="R" unicode="R" horiz-adv-x="646" 
d="M132 0v650q61 9 154 9q115 0 176.5 -55.5t61.5 -145.5q0 -130 -151 -184l242 -274h-45l-230 264q-74 -20 -175 -20v-244h-33zM286 630q-65 0 -121 -6v-354q6 -3 32.5 -0.5t62.5 4.5t76.5 15t74 31t56 53.5t22.5 81.5q0 78 -53 126.5t-150 48.5z" />
    <glyph glyph-name="S" unicode="S" horiz-adv-x="612" 
d="M497 641v-129h-26v107q-58 14 -122 14q-109 0 -164 -38.5t-55 -104.5q0 -42 30.5 -72t76.5 -46t100 -33.5t100 -34.5t76.5 -49t30.5 -77q0 -80 -63 -134t-180 -54q-70 0 -128 17t-81 34l-24 17l13 27q9 -7 26 -18t74.5 -29.5t120.5 -18.5q98 0 152.5 45t54.5 111
q0 46 -42.5 76.5t-103.5 48.5t-122 37.5t-103.5 57t-42.5 93.5q0 77 65 124t190 47q38 0 74.5 -4.5t54.5 -8.5z" />
    <glyph glyph-name="T" unicode="T" horiz-adv-x="534" 
d="M525 650v-27h-241v-623h-35v623h-241v27h517z" />
    <glyph glyph-name="U" unicode="U" horiz-adv-x="764" 
d="M596 230v420h35v-650h-35v198q-6 -14 -15 -30.5t-35 -51t-56 -60t-78.5 -46t-101.5 -20.5q-92 0 -139 55.5t-47 146.5v458h35v-445q0 -81 42.5 -131.5t122.5 -50.5q51 0 98 21.5t77.5 52t53 60.5t33.5 51z" />
    <glyph glyph-name="V" unicode="V" horiz-adv-x="652" 
d="M25 650h37l264 -619l265 619h36l-283 -649l1 -1h-36z" />
    <glyph glyph-name="W" unicode="W" horiz-adv-x="1066" 
d="M1006 650h35q-3 -10 -43 -112t-85 -216.5t-85 -217t-41 -104.5h-35l-219 612l-219 -612h-35l-254 650h35l237 -611l220 611h32l220 -609z" />
    <glyph glyph-name="X" unicode="X" horiz-adv-x="669" 
d="M32 0l282 326v1l-274 323h40l254 -301l255 301h40l-274 -323l-1 -1l283 -326h-41l-262 304l-261 -304h-41z" />
    <glyph glyph-name="Y" unicode="Y" horiz-adv-x="640" 
d="M61 650l274 -465l247 465h36l-349 -650h-36l84 159l-292 491h36z" />
    <glyph glyph-name="Z" unicode="Z" horiz-adv-x="616" 
d="M568 650v-19l-471 -604h471v-27h-521v19l472 604h-472v27h521z" />
    <glyph glyph-name="bracketleft" unicode="[" horiz-adv-x="366" 
d="M349 -41v-25h-238v760h238v-25h-207v-710h207z" />
    <glyph glyph-name="backslash" unicode="\" horiz-adv-x="479" 
d="M-23 750h34q93 -205 210.5 -455t188.5 -397l72 -148h-33q-263 539 -472 1000z" />
    <glyph glyph-name="bracketright" unicode="]" horiz-adv-x="366" 
d="M254 694v-760h-238v25h208v710h-208v25h238z" />
    <glyph glyph-name="asciicircum" unicode="^" horiz-adv-x="395" 
d="M197 682l152 -174l-14 -14l-138 157l-138 -157l-15 14z" />
    <glyph glyph-name="underscore" unicode="_" horiz-adv-x="720" 
d="M675 -107v-27h-630v27h630z" />
    <glyph glyph-name="grave" unicode="`" horiz-adv-x="223" 
d="M34 724l20 16l117 -160l-15 -13z" />
    <glyph glyph-name="a" unicode="a" 
d="M413 0v107q-7 -13 -18.5 -27.5t-35 -37.5t-59.5 -37.5t-77 -14.5q-76 0 -123.5 40.5t-47.5 106.5q0 76 54.5 120.5t167.5 44.5q61 0 139 -9v54q0 70 -35 104t-117 34q-34 0 -70.5 -5.5t-56.5 -11.5l-20 -5l-3 23q72 25 155 25q99 0 140 -41.5t41 -126.5v-343h-34zM234 14
q109 0 179 116v143q-67 8 -134 8q-99 0 -146.5 -38t-47.5 -103q0 -56 41.5 -91t107.5 -35z" />
    <glyph glyph-name="b" unicode="b" horiz-adv-x="609" 
d="M105 10v740h34v-345q16 19 35.5 37.5t67 43.5t94.5 25q95 0 158 -68.5t63 -183.5q0 -123 -74.5 -196t-200.5 -73q-51 0 -95 5t-63 10zM324 483q-35 0 -69.5 -14t-59 -34.5t-37.5 -34t-19 -21.5v-348q62 -16 138 -16q114 0 180 65t66 176q0 105 -56.5 166t-142.5 61z" />
    <glyph glyph-name="c" unicode="c" horiz-adv-x="501" 
d="M482 78l11 -20q-3 -3 -8 -7.5t-23 -16t-38.5 -20.5t-55 -16.5t-71.5 -7.5q-103 0 -174 65.5t-71 177.5q0 120 74 199t186 79q31 0 67.5 -5.5t57.5 -10.5l21 -5v-27q-77 21 -143 21q-100 0 -165 -71.5t-65 -177.5q0 -100 64 -159t152 -59q52 0 97.5 15t64.5 30z" />
    <glyph glyph-name="d" unicode="d" horiz-adv-x="609" 
d="M506 750v-750h-34v95q-8 -11 -21 -24.5t-37.5 -34t-59.5 -33.5t-72 -13q-99 0 -164.5 64.5t-65.5 178.5q0 123 78 200.5t207 77.5q76 0 135 -21v260h34zM292 18q97 0 180 102v339q-59 27 -132 27q-116 0 -184.5 -69t-68.5 -181q0 -103 58.5 -160.5t146.5 -57.5z" />
    <glyph glyph-name="e" unicode="e" 
d="M483 76l9 -23q-7 -7 -21.5 -17.5t-65.5 -28t-110 -17.5q-100 0 -171.5 64.5t-71.5 175.5q0 121 67 201t166 80q88 0 148.5 -54t60.5 -157l-5 -50h-405v-10v-6q1 -6 1 -9q0 -96 64 -152.5t152 -56.5q53 0 98.5 15t64.5 30zM285 486q-79 0 -135.5 -61.5t-64.5 -155.5
q273 0 378 1q1 12 1 33q0 90 -51.5 136.5t-127.5 46.5z" />
    <glyph glyph-name="f" unicode="f" horiz-adv-x="373" 
d="M348 500v-27h-204v-473h-34v473h-69v27h69v80q0 100 33.5 137.5t105.5 37.5q29 0 59 -5.5t46 -11.5l15 -5v-28q-56 20 -113 20q-59 0 -85.5 -29.5t-26.5 -115.5v-80h204z" />
    <glyph glyph-name="g" unicode="g" horiz-adv-x="511" 
d="M404 499q5 -7 13.5 -20.5t22 -53.5t13.5 -78q0 -74 -47.5 -126t-132.5 -52q-47 0 -79 13q-21 -78 -21 -103q25 4 62 4q123 0 195 -43t72 -124q0 -77 -57.5 -126.5t-158.5 -49.5q-107 0 -166.5 46t-59.5 129q0 61 27 100.5t58 56.5q6 51 25 120q-79 43 -79 143
q0 82 54.5 129t144.5 47q26 0 54.5 -3t43.5 -6zM232 59q-31 0 -71 -7q-25 -14 -48.5 -48t-23.5 -88q0 -70 52.5 -109.5t143.5 -39.5q86 0 135.5 41.5t49.5 107.5q0 67 -64.5 105t-173.5 38zM424 344q0 66 -42 134q-59 8 -93 8q-76 0 -122.5 -40t-46.5 -111q0 -60 39 -101
t112 -41q71 0 112 44.5t41 106.5z" />
    <glyph glyph-name="h" unicode="h" horiz-adv-x="617" 
d="M105 0v750h34v-389q11 18 24.5 36t41.5 47.5t67.5 48t81.5 18.5q158 0 158 -180v-331h-34v330q0 152 -135 152q-29 0 -57 -10t-50.5 -29t-38.5 -33.5t-31.5 -37.5t-18 -27.5t-8.5 -14.5v-330h-34z" />
    <glyph glyph-name="i" unicode="i" horiz-adv-x="263" 
d="M149 500v-500h-34v500h34zM158 643q0 -11 -7 -18.5t-19 -7.5q-11 0 -18 7.5t-7 18.5t7 19t18 8q12 0 19 -7.5t7 -19.5z" />
    <glyph glyph-name="j" unicode="j" horiz-adv-x="280" 
d="M132 0v500h34v-500q0 -63 -17.5 -113.5t-45 -80.5t-57 -46t-59.5 -20l-6 30q57 8 104 66.5t47 163.5zM174 643q0 -11 -7 -18.5t-19 -7.5q-11 0 -18 7.5t-7 18.5t7 19t18 8q12 0 19 -7.5t7 -19.5z" />
    <glyph glyph-name="k" unicode="k" horiz-adv-x="528" 
d="M113 0v750h34v-500l57 46l243 204h41l-257 -216l272 -284h-42l-254 265l-60 -48v-217h-34z" />
    <glyph glyph-name="l" unicode="l" horiz-adv-x="244" 
d="M139 750v-750h-34v750h34z" />
    <glyph glyph-name="m" unicode="m" horiz-adv-x="881" 
d="M115 0v500h34v-126q7 17 17.5 34.5t31.5 43.5t54 42.5t71 16.5q62 0 97.5 -35t40.5 -101q7 17 17.5 35t31 43.5t53 41.5t70.5 16q68 0 106 -41t38 -117v-353h-34v353q0 61 -33 95t-89 34q-31 0 -59 -14t-44.5 -32t-30.5 -39.5t-18.5 -33.5t-6.5 -17v-346h-34v353
q0 61 -31.5 95t-87.5 34q-37 0 -68 -17.5t-50.5 -44t-28 -42.5t-13.5 -29v-349h-34z" />
    <glyph glyph-name="n" unicode="n" horiz-adv-x="626" 
d="M115 0v500h34v-138q10 18 24.5 36t42 47t67 47.5t81.5 18.5q157 0 157 -180v-331h-34v330q0 152 -134 152q-41 0 -80 -20.5t-65.5 -50.5t-39.5 -48.5t-19 -30.5v-332h-34z" />
    <glyph glyph-name="o" unicode="o" horiz-adv-x="616" 
d="M564 250q0 -117 -72.5 -188.5t-183.5 -71.5t-183.5 71.5t-72.5 188.5t72.5 189t183.5 72t183.5 -72t72.5 -189zM308 484q-94 0 -157.5 -64.5t-63.5 -169.5t63 -169t158 -64t158 64t63 169t-63.5 169.5t-157.5 64.5z" />
    <glyph glyph-name="p" unicode="p" horiz-adv-x="609" 
d="M105 -250v750h34v-95q14 18 34.5 37.5t67 44t93.5 24.5q97 0 160 -68t63 -184q0 -122 -74.5 -195.5t-200.5 -73.5q-83 0 -143 25v-265h-34zM324 483q-35 0 -69.5 -14t-59 -34.5t-37.5 -34t-19 -21.5v-333q64 -31 138 -31q114 0 180 65t66 176q0 105 -56.5 166t-142.5 61z
" />
    <glyph glyph-name="q" unicode="q" horiz-adv-x="609" 
d="M506 476v-726h-34v345q-10 -11 -23.5 -23.5t-41 -33.5t-64 -34.5t-74.5 -13.5q-98 0 -157.5 63.5t-59.5 179.5q0 123 78 200.5t207 77.5q49 0 91.5 -8.5t59.5 -17.5zM280 18q99 0 192 102v339q-59 27 -132 27q-116 0 -184.5 -69t-68.5 -181q0 -104 53 -161t140 -57z" />
    <glyph glyph-name="r" unicode="r" horiz-adv-x="399" 
d="M373 500v-30q-26 7 -54 7q-30 0 -55.5 -15.5t-42.5 -37.5t-31.5 -57t-22.5 -62.5t-18 -66.5v-238h-34v500h30v-217q10 37 18.5 64t24 60t33 54t43.5 35.5t57 14.5q15 0 28 -2.5t19 -5.5z" />
    <glyph glyph-name="s" unicode="s" horiz-adv-x="478" 
d="M38 48l11 23q9 -6 25.5 -15.5t69 -25.5t107.5 -16q77 0 116 37.5t39 81.5q0 37 -35 61.5t-85.5 38t-100.5 28t-85 42t-35 69.5q0 63 56 101t146 38q34 0 69.5 -5t53.5 -10l19 -5v-26q-72 21 -141 21q-76 0 -122.5 -30.5t-46.5 -80.5q0 -35 35 -58.5t85 -36.5t100 -27.5
t85 -43.5t35 -73q0 -55 -47 -100.5t-140 -45.5q-64 0 -117.5 14.5t-74.5 29.5z" />
    <glyph glyph-name="t" unicode="t" horiz-adv-x="399" 
d="M374 500v-27h-230v-334q0 -119 86 -119q35 0 71 12.5t55 25.5l18 13v-25q-7 -6 -19.5 -15.5t-53 -25t-81.5 -15.5q-53 0 -81.5 37.5t-28.5 110.5v335h-69v27h69v149l34 12v-161h230z" />
    <glyph glyph-name="u" unicode="u" horiz-adv-x="626" 
d="M512 500v-500h-34v137q-11 -18 -24.5 -35.5t-42 -46.5t-67.5 -47t-81 -18q-157 0 -157 179v331h34v-330q0 -151 134 -151q33 0 66 15t54.5 33t42.5 43t28 36t13 22v332h34z" />
    <glyph glyph-name="v" unicode="v" horiz-adv-x="547" 
d="M253 0l-221 500h36l204 -469q47 81 117 241t90 228h35q-21 -69 -97 -238.5t-129 -261.5h-35z" />
    <glyph glyph-name="w" unicode="w" horiz-adv-x="833" 
d="M765 500h36q-17 -54 -85 -231.5t-108 -268.5l-32 1v2l-2 -3q-136 383 -159 459q-80 -243 -161 -459l-33 1l-1 -1l-188 500h36l171 -461q30 77 87.5 242.5t73.5 218.5h34q31 -109 161 -460q34 82 95 247.5t75 212.5z" />
    <glyph glyph-name="x" unicode="x" horiz-adv-x="532" 
d="M501 500l-214 -247l224 -253h-41q-190 217 -204 235l-204 -235h-40l223 253l-213 247h40q193 -227 194 -230l194 230h41z" />
    <glyph glyph-name="y" unicode="y" horiz-adv-x="558" 
d="M488 500h37l-228 -499l-115 -251h-36l116 251l-230 499h39l210 -465z" />
    <glyph glyph-name="z" unicode="z" horiz-adv-x="496" 
d="M435 500v-18l-340 -458q18 2 24 2h325v-26h-393v19l341 460q-174 -6 -314 -6v27h357z" />
    <glyph glyph-name="braceleft" unicode="{" horiz-adv-x="434" 
d="M212 418v188q0 70 39 105.5t138 35.5v-25q-82 0 -115 -29.5t-33 -86.5v-190q0 -41 -27.5 -74.5t-69.5 -49.5q41 -16 69 -49.5t28 -74.5v-190q0 -57 33 -86.5t115 -29.5v-25q-99 0 -138 35.5t-39 105.5v188q0 46 -39.5 79t-81.5 33v28q42 0 81.5 33t39.5 79z" />
    <glyph glyph-name="bar" unicode="|" horiz-adv-x="315" 
d="M175 750v-1000h-35v1000h35z" />
    <glyph glyph-name="braceright" unicode="}" horiz-adv-x="434" 
d="M192 168q0 41 28 74.5t69 49.5q-42 16 -69.5 49.5t-27.5 74.5v190q0 57 -33 86.5t-115 29.5v25q99 0 138 -35.5t39 -105.5v-188q0 -46 39.5 -79t81.5 -33v-28q-42 0 -81.5 -33t-39.5 -79v-188q0 -70 -39 -105.5t-138 -35.5v25q82 0 115 29.5t33 86.5v190z" />
    <glyph glyph-name="asciitilde" unicode="~" horiz-adv-x="685" 
d="M494 287q42 0 76.5 17.5t47.5 35.5l14 17l9 -23q-2 -3 -5.5 -8.5t-17.5 -19.5t-29.5 -24.5t-41.5 -19t-55 -8.5q-39 0 -69.5 15t-51 36l-41 42t-50.5 36t-68 15q-47 0 -86.5 -20t-55.5 -40l-17 -20l-9 25q2 4 7 10t21 21t34.5 27t47 21.5t59.5 9.5q42 0 74 -15t53 -36
t41 -42.5t48.5 -36.5t64.5 -15z" />
    <glyph glyph-name="nbspace" unicode="&#xa0;" horiz-adv-x="296" 
 />
    <glyph glyph-name="exclamdown" unicode="&#xa1;" horiz-adv-x="287" 
d="M128 -227l3 475h30l2 -475h-35zM167 483q0 -12 -8 -20t-19 -8q-12 0 -19.5 8t-7.5 20t7.5 20t19.5 8q11 0 19 -8.5t8 -19.5z" />
    <glyph glyph-name="cent" unicode="&#xa2;" horiz-adv-x="501" 
d="M482 144l11 -20q-7 -7 -20 -17.5t-59.5 -29.5t-100.5 -21l2 -106h-32l1 106q-98 4 -165 69t-67 174q0 112 65 188.5t167 87.5l-1 125h32l-2 -123q30 0 66.5 -5.5t57.5 -10.5l21 -5v-27q-77 21 -143 21q-100 0 -165 -71.5t-65 -177.5q0 -100 64 -159t152 -59q52 0 97.5 15
t64.5 30z" />
    <glyph glyph-name="sterling" unicode="&#xa3;" horiz-adv-x="607" 
d="M486 339v-23h-270v-289h364v-27h-518v27h117v289h-117v23h117v143q0 85 41.5 131t142.5 46q29 0 60 -6t47 -12l16 -6v-26q-56 21 -115 21q-89 0 -122 -38t-33 -111v-142h270z" />
    <glyph glyph-name="currency" unicode="&#xa4;" horiz-adv-x="662" 
d="M507 313q0 -76 -48 -124l132 -133l-17 -17l-126 140q-48 -40 -117 -40q-70 0 -117 39l-126 -137l-17 16l131 132q-47 47 -47 124t47 124l-132 135l17 16l126 -141q48 40 118 40q67 0 115 -38l127 138l17 -16l-131 -133q48 -48 48 -125zM488 313q0 73 -43 115.5t-114 42.5
q-72 0 -115 -42.5t-43 -114.5t43 -115t115 -43q71 0 114 42.5t43 114.5z" />
    <glyph glyph-name="yen" unicode="&#xa5;" horiz-adv-x="605" 
d="M521 174v-24h-192v-150h-35v150h-197v24h197v116h-197v23h183l-196 337h40l188 -337h1q149 207 219 337h35q-83 -148 -226 -337h180v-23h-192v-116h192z" />
    <glyph glyph-name="brokenbar" unicode="&#xa6;" horiz-adv-x="315" 
d="M175 150v-400h-36v400h36zM175 750v-400h-36v400h36z" />
    <glyph glyph-name="section" unicode="&#xa7;" horiz-adv-x="575" 
d="M495 645v-25q-82 13 -153 13q-105 0 -159.5 -33t-54.5 -91q0 -35 13 -55t55.5 -32.5t121.5 -13.5q103 -1 147.5 -31t44.5 -102q0 -81 -107 -121q58 -10 79.5 -35t21.5 -70q0 -62 -55.5 -108.5t-162.5 -46.5q-63 0 -118 17t-78 34l-24 17l11 22q9 -7 25.5 -17.5t70 -28
t109.5 -17.5q90 0 138 39.5t48 87.5q0 33 -10 50.5t-49 29.5t-115 12q-207 3 -207 131q0 85 87 131q-45 13 -63.5 39t-18.5 69q0 69 63.5 109t179.5 40q36 0 76 -3.5t62 -7.5zM303 388q-64 0 -106 9q-81 -44 -81 -123q0 -109 193 -112l59 -3q16 5 32.5 12.5t35.5 20.5t31 34
t12 46q0 62 -39 88.5t-137 27.5z" />
    <glyph glyph-name="dieresis" unicode="&#xa8;" horiz-adv-x="419" 
d="M285 643q0 -11 -7.5 -18.5t-17.5 -7.5q-11 0 -18.5 7.5t-7.5 18.5t7.5 19t18.5 8q10 0 17.5 -8t7.5 -19zM128 643q0 -11 -7 -18.5t-19 -7.5q-10 0 -17.5 7.5t-7.5 18.5t7.5 19t17.5 8q12 0 19 -7.5t7 -19.5z" />
    <glyph glyph-name="copyright" unicode="&#xa9;" horiz-adv-x="901" 
d="M794 323q0 -153 -98.5 -248.5t-245.5 -95.5t-246 95.5t-99 248.5t99.5 249.5t245.5 96.5t245 -96.5t99 -249.5zM770 323q0 145 -92.5 235.5t-228.5 90.5q-135 0 -227 -90.5t-92 -235.5t92 -234.5t227 -89.5q137 0 229 89.5t92 234.5zM564 488v-20q-46 8 -89 8
q-81 0 -129.5 -44.5t-48.5 -119.5q0 -71 46 -114t110 -43q37 0 70 14.5t48 29.5l15 15l9 -13q-6 -8 -17 -19t-49.5 -30t-81.5 -19q-71 0 -123 49t-52 130q0 84 56 134.5t144 50.5q20 0 43 -2.5t36 -4.5z" />
    <glyph glyph-name="ordfeminine" unicode="&#xaa;" horiz-adv-x="493" 
d="M352 295h-28v78q-11 -13 -26.5 -28.5t-51.5 -36t-68 -20.5q-46 0 -77.5 28.5t-31.5 80.5q0 54 47.5 89.5t124.5 35.5q45 0 83 -6v40q0 77 -109 77q-28 0 -53.5 -2.5t-36.5 -4.5l-11 -2v18q32 10 104 10q134 0 134 -98v-259zM188 306q56 0 136 80v115q-42 5 -78 5
q-70 0 -109.5 -31.5t-39.5 -76.5q0 -44 26 -68t65 -24z" />
    <glyph glyph-name="guillemotleft" unicode="&#xab;" horiz-adv-x="550" 
d="M292 393l-154 -143l154 -148l-14 -18l-172 166l172 160zM471 393l-154 -143l154 -148l-14 -18l-172 166l172 160z" />
    <glyph glyph-name="logicalnot" unicode="&#xac;" horiz-adv-x="507" 
d="M438 333v-198h-29v171h-341v27h370z" />
    <glyph glyph-name="uni00AD" unicode="&#xad;" horiz-adv-x="339" 
d="M292 293v-27h-245v27h245z" />
    <glyph glyph-name="registered" unicode="&#xae;" horiz-adv-x="716" 
d="M643 468q0 -126 -82 -205.5t-203 -79.5q-122 0 -203.5 79.5t-81.5 205.5q0 127 82 207t203 80q120 0 202.5 -80.5t82.5 -206.5zM619 468q0 120 -75 194.5t-187 74.5q-111 0 -186 -74.5t-75 -194.5t74.5 -192.5t186.5 -72.5t187 72.5t75 192.5zM271 308v321q20 1 87 1
q62 0 97 -28t35 -73q0 -64 -92 -97l84 -125h-22l-79 119q-44 -13 -90 -17v-101h-20zM359 614q-53 0 -68 -1v-190q17 1 40 5.5t57.5 15t57.5 32.5t23 51q0 39 -29 63t-81 24z" />
    <glyph glyph-name="macron" unicode="&#xaf;" horiz-adv-x="459" 
d="M326 664v-19h-202v19h202z" />
    <glyph glyph-name="degree" unicode="&#xb0;" horiz-adv-x="495" 
d="M426 580q0 -79 -51.5 -129t-127.5 -50q-77 0 -127.5 50t-50.5 129q0 80 51 130.5t127 50.5t127.5 -50.5t51.5 -130.5zM398 580q0 68 -44 111t-107 43t-106 -43t-43 -111t43 -110t106 -42q64 0 107.5 42t43.5 110z" />
    <glyph glyph-name="plusminus" unicode="&#xb1;" horiz-adv-x="530" 
d="M280 567v-172h170v-27h-170v-172h-28v172h-172v27h172v172h28zM485 42v-27h-440v27h440z" />
    <glyph glyph-name="twosuperior" unicode="&#xb2;" horiz-adv-x="404" 
d="M360 236v-22h-316v22q11 7 29 20.5t64.5 52t82 75t64.5 83t29 83.5q0 103 -148 103q-31 0 -57.5 -3.5t-37.5 -7.5l-12 -3v20q38 16 111 16q86 0 128.5 -33.5t42.5 -90.5q0 -41 -29.5 -90.5t-76.5 -94.5t-83.5 -75t-71.5 -55h281z" />
    <glyph glyph-name="threesuperior" unicode="&#xb3;" horiz-adv-x="384" 
d="M35 258l9 17q4 -5 13 -13t44 -21t78 -13q70 0 106.5 35t36.5 85q0 44 -41 74t-113 30l-10 14q73 88 140 187q-50 -5 -72 -5h-169v21h266v-15q-64 -93 -138 -182q75 -3 119.5 -38.5t44.5 -85.5q0 -58 -43 -100t-123 -42q-48 0 -85 13t-50 26z" />
    <glyph glyph-name="acute" unicode="&#xb4;" horiz-adv-x="223" 
d="M161 740l20 -16l-122 -157l-15 13z" />
    <glyph glyph-name="mu" unicode="&#xb5;" horiz-adv-x="626" 
d="M512 500v-500h-34v137q-11 -18 -24.5 -35.5t-42 -46.5t-67.5 -47t-81 -18q-85 0 -124 53v-293h-34v532h1v218h34v-330q0 -151 134 -151q33 0 66 15t54.5 33t42.5 43t28 36t13 22v332h34z" />
    <glyph glyph-name="paragraph" unicode="&#xb6;" horiz-adv-x="734" 
d="M665 650v-30h-204v-869h-35v400q-51 -22 -107 -22q-101 0 -175.5 70t-74.5 187q0 120 83.5 192t215.5 72h297z" />
    <glyph glyph-name="periodcentered" unicode="&#xb7;" horiz-adv-x="249" 
d="M151 340q0 -12 -8 -20t-19 -8q-12 0 -19.5 8t-7.5 20t7.5 20t19.5 8q11 0 19 -8.5t8 -19.5z" />
    <glyph glyph-name="cedilla" unicode="&#xb8;" horiz-adv-x="275" 
d="M145 -4h22q-12 -21 -12 -36t19.5 -26t43 -17t43 -23t19.5 -44q0 -44 -34 -72.5t-90 -28.5q-34 0 -62 15t-39 30l-11 15l14 12q4 -6 11 -15t31.5 -23.5t51.5 -14.5q47 0 75 24.5t28 60.5q0 22 -19 37t-42.5 20.5t-42.5 17.5t-19 30q0 8 3 17.5t7 14.5z" />
    <glyph glyph-name="onesuperior" unicode="&#xb9;" horiz-adv-x="294" 
d="M185 669h27v-455h-27v426q-111 -104 -158 -145l-12 16z" />
    <glyph glyph-name="ordmasculine" unicode="&#xba;" horiz-adv-x="530" 
d="M461 470q0 -84 -55.5 -133t-140.5 -49t-140.5 49t-55.5 133t55.5 133t140.5 49t140.5 -49t55.5 -133zM434 470q0 72 -47.5 116t-121.5 44q-75 0 -122 -43.5t-47 -116.5q0 -72 47 -115.5t122 -43.5q74 0 121.5 43t47.5 116z" />
    <glyph glyph-name="guillemotright" unicode="&#xbb;" horiz-adv-x="550" 
d="M78 392l15 18l171 -166l-171 -160l-15 17l154 143zM257 392l15 18l171 -166l-171 -160l-15 17l154 143z" />
    <glyph glyph-name="onequarter" unicode="&#xbc;" horiz-adv-x="732" 
d="M185 669h27v-455h-27v426q-111 -104 -158 -145l-12 16zM599 577l-300 -548l-23 9l300 548zM627 249h19v-303h70v-21h-70v-131h-26v131h-249v21q43 59 107 135t106 122zM620 -54v275q-137 -156 -225 -275h225z" />
    <glyph glyph-name="onehalf" unicode="&#xbd;" horiz-adv-x="831" 
d="M185 669h27v-455h-27v426q-111 -104 -158 -145l-12 16zM599 577l-300 -548l-23 9l300 548zM788 -184v-22h-316v22q11 7 29 20.5t64.5 52t82 75t64.5 83t29 83.5q0 103 -148 103q-31 0 -57.5 -3.5t-37.5 -7.5l-12 -3v20q38 16 111 16q86 0 128.5 -33.5t42.5 -90.5
q0 -41 -29.5 -90.5t-76.5 -94.5t-83.5 -75t-71.5 -55h281z" />
    <glyph glyph-name="threequarters" unicode="&#xbe;" horiz-adv-x="796" 
d="M35 258l9 17q4 -5 13 -13t44 -21t78 -13q70 0 106.5 35t36.5 85q0 44 -41 74t-113 30l-10 14q73 88 140 187q-50 -5 -72 -5h-169v21h266v-15q-64 -93 -138 -182q75 -3 119.5 -38.5t44.5 -85.5q0 -58 -43 -100t-123 -42q-48 0 -85 13t-50 26zM662 577l-300 -548l-23 9
l300 548zM691 249h19v-303h70v-21h-70v-131h-26v131h-249v21q43 59 107 135t106 122zM684 -54v275q-137 -156 -225 -275h225z" />
    <glyph glyph-name="questiondown" unicode="&#xbf;" horiz-adv-x="390" 
d="M389 -201v-27q-45 -32 -150 -32q-123 0 -183.5 47t-60.5 124q0 51 26 89t63 61.5t73 47.5t60.5 62.5t22.5 90.5l26 3q3 -41 -8.5 -74.5t-32 -56t-46 -41.5t-51.5 -36.5t-47.5 -36t-35 -45.5t-13.5 -60q0 -68 52 -107.5t161 -39.5q42 0 78 8t51 16zM271 483q0 -12 -8 -20
t-19 -8q-12 0 -19.5 8t-7.5 20t7.5 20t19.5 8q11 0 19 -8.5t8 -19.5z" />
    <glyph glyph-name="Agrave" unicode="&#xc0;" horiz-adv-x="664" 
d="M311 650l1 -1v1h41l280 -650h-36l-84 191h-365l-81 -191h-36zM503 215q-25 60 -65.5 155.5t-71.5 169t-35 83.5l-172 -408h344zM242 859l20 16l117 -160l-15 -13z" />
    <glyph glyph-name="Aacute" unicode="&#xc1;" horiz-adv-x="664" 
d="M311 650l1 -1v1h41l280 -650h-36l-84 191h-365l-81 -191h-36zM503 215q-25 60 -65.5 155.5t-71.5 169t-35 83.5l-172 -408h344zM400 875l20 -16l-122 -157l-15 13z" />
    <glyph glyph-name="Acircumflex" unicode="&#xc2;" horiz-adv-x="664" 
d="M311 650l1 -1v1h41l280 -650h-36l-84 191h-365l-81 -191h-36zM503 215q-25 60 -65.5 155.5t-71.5 169t-35 83.5l-172 -408h344zM333 883l152 -121l-12 -21l-140 112l-140 -112l-13 21z" />
    <glyph glyph-name="Atilde" unicode="&#xc3;" horiz-adv-x="664" 
d="M311 650l1 -1v1h41l280 -650h-36l-84 191h-365l-81 -191h-36zM503 215q-25 60 -65.5 155.5t-71.5 169t-35 83.5l-172 -408h344zM499 837l9 -13q-1 -2 -3 -5.5t-9.5 -13t-17 -16.5t-27 -12.5t-37.5 -5.5q-32 0 -72.5 23.5t-71.5 23.5q-20 0 -37.5 -5.5t-28 -13t-18 -15.5
t-10.5 -14l-3 -5l-10 15q1 3 3.5 7t12 15.5t20.5 20t30 15.5t41 7q34 0 74.5 -24t69.5 -24t50.5 10t27.5 20z" />
    <glyph glyph-name="Adieresis" unicode="&#xc4;" horiz-adv-x="664" 
d="M311 650l1 -1v1h41l280 -650h-36l-84 191h-365l-81 -191h-36zM503 215q-25 60 -65.5 155.5t-71.5 169t-35 83.5l-172 -408h344zM437 778q0 -11 -7.5 -18.5t-17.5 -7.5q-11 0 -18.5 7.5t-7.5 18.5t7.5 19t18.5 8q10 0 17.5 -8t7.5 -19zM280 778q0 -11 -7 -18.5t-19 -7.5
q-10 0 -17.5 7.5t-7.5 18.5t7.5 19t17.5 8q12 0 19 -7.5t7 -19.5z" />
    <glyph glyph-name="Aring" unicode="&#xc5;" horiz-adv-x="664" 
d="M311 650l1 -1v1h41l280 -650h-36l-84 191h-365l-81 -191h-36zM503 215q-25 60 -65.5 155.5t-71.5 169t-35 83.5l-172 -408h344zM427 819q0 -42 -27 -68.5t-67 -26.5q-41 0 -68 26.5t-27 68.5q0 41 27.5 68t67.5 27t67 -27t27 -68zM409 819q0 35 -22 56.5t-54 21.5
q-33 0 -55.5 -21.5t-22.5 -56.5t22.5 -56.5t55.5 -21.5q32 0 54 21.5t22 56.5z" />
    <glyph glyph-name="AE" unicode="&#xc6;" horiz-adv-x="956" 
d="M911 28v-28h-430v191h-310l-136 -191h-38l469 650h410v-28h-361v-263h299v-27h-299v-304h396zM478 622l-290 -407h293v407h-3z" />
    <glyph glyph-name="Ccedilla" unicode="&#xc7;" horiz-adv-x="699" 
d="M606 631v-171h-27v149q-65 21 -164 21q-133 0 -221 -85.5t-88 -225.5q0 -139 82.5 -219t213.5 -80q43 0 84.5 11.5t70.5 27.5t52 32t34 27l11 12l12 -20q-4 -5 -11 -12.5t-32 -27.5t-53 -35.5t-71.5 -29t-88.5 -15.5q-8 -19 -8 -30q0 -15 19.5 -26t43 -17t43 -23
t19.5 -44q0 -44 -34 -72.5t-90 -28.5q-34 0 -62 15t-39 30l-11 15l14 12q4 -6 11 -15t31.5 -23.5t51.5 -14.5q47 0 75 24.5t28 60.5q0 22 -19 37t-42.5 20.5t-42.5 17.5t-19 30q0 16 9 32q-142 3 -230.5 91t-88.5 238q0 152 98 246t244 94q59 0 108 -7t68 -14z" />
    <glyph glyph-name="Egrave" unicode="&#xc8;" horiz-adv-x="609" 
d="M564 28v-28h-432v650h397v-28h-361v-263h299v-27h-299v-304h396zM213 859l20 16l117 -160l-15 -13z" />
    <glyph glyph-name="Eacute" unicode="&#xc9;" horiz-adv-x="609" 
d="M564 28v-28h-432v650h397v-28h-361v-263h299v-27h-299v-304h396zM372 875l20 -16l-122 -157l-15 13z" />
    <glyph glyph-name="Ecircumflex" unicode="&#xca;" horiz-adv-x="609" 
d="M564 28v-28h-432v650h397v-28h-361v-263h299v-27h-299v-304h396zM304 883l152 -121l-12 -21l-140 112l-140 -112l-13 21z" />
    <glyph glyph-name="Edieresis" unicode="&#xcb;" horiz-adv-x="609" 
d="M564 28v-28h-432v650h397v-28h-361v-263h299v-27h-299v-304h396zM408 778q0 -11 -7.5 -18.5t-17.5 -7.5q-11 0 -18.5 7.5t-7.5 18.5t7.5 19t18.5 8q10 0 17.5 -8t7.5 -19zM251 778q0 -11 -7 -18.5t-19 -7.5q-10 0 -17.5 7.5t-7.5 18.5t7.5 19t17.5 8q12 0 19 -7.5
t7 -19.5z" />
    <glyph glyph-name="Igrave" unicode="&#xcc;" horiz-adv-x="301" 
d="M168 650v-650h-36v650h36zM59 859l20 16l117 -160l-15 -13z" />
    <glyph glyph-name="Iacute" unicode="&#xcd;" horiz-adv-x="301" 
d="M168 650v-650h-36v650h36zM217 875l20 -16l-122 -157l-15 13z" />
    <glyph glyph-name="Icircumflex" unicode="&#xce;" horiz-adv-x="301" 
d="M168 650v-650h-36v650h36zM150 883l152 -121l-12 -21l-140 112l-140 -112l-13 21z" />
    <glyph glyph-name="Idieresis" unicode="&#xcf;" horiz-adv-x="301" 
d="M168 650v-650h-36v650h36zM254 778q0 -11 -7.5 -18.5t-17.5 -7.5q-11 0 -18.5 7.5t-7.5 18.5t7.5 19t18.5 8q10 0 17.5 -8t7.5 -19zM97 778q0 -11 -7 -18.5t-19 -7.5q-10 0 -17.5 7.5t-7.5 18.5t7.5 19t17.5 8q12 0 19 -7.5t7 -19.5z" />
    <glyph glyph-name="Eth" unicode="&#xd0;" horiz-adv-x="771" 
d="M132 0v312h-97v23h97v315q82 9 202 9q163 0 266 -91t103 -245t-102.5 -243.5t-266.5 -89.5q-43 0 -93.5 2.5t-79.5 5.5zM335 19q146 0 238.5 82t92.5 222t-92.5 223.5t-239.5 83.5q-82 0 -166 -7v-288h277v-23h-277v-285q101 -8 167 -8z" />
    <glyph glyph-name="Ntilde" unicode="&#xd1;" horiz-adv-x="800" 
d="M668 650v-650h-30l-477 601q2 -4 2 -8v-593h-31v650h29l476 -602v7v595h31zM583 837l9 -13q-1 -2 -3 -5.5t-9.5 -13t-17 -16.5t-27 -12.5t-37.5 -5.5q-32 0 -72.5 23.5t-71.5 23.5q-32 0 -56 -13t-32 -27l-9 -13l-10 15q1 3 3.5 7t12 15.5t20.5 20t30 15.5t41 7
q34 0 74.5 -24t69.5 -24t50.5 10t27.5 20z" />
    <glyph glyph-name="Ograve" unicode="&#xd2;" horiz-adv-x="800" 
d="M731 323q0 -151 -95.5 -242t-235.5 -91q-141 0 -236 91t-95 242q0 152 95 244t236 92q140 0 235.5 -92t95.5 -244zM695 323q0 138 -85.5 222.5t-209.5 84.5q-125 0 -210 -84t-85 -223q0 -138 85 -221t210 -83t210 83t85 221zM309 859l20 16l117 -160l-15 -13z" />
    <glyph glyph-name="Oacute" unicode="&#xd3;" horiz-adv-x="800" 
d="M731 323q0 -151 -95.5 -242t-235.5 -91q-141 0 -236 91t-95 242q0 152 95 244t236 92q140 0 235.5 -92t95.5 -244zM695 323q0 138 -85.5 222.5t-209.5 84.5q-125 0 -210 -84t-85 -223q0 -138 85 -221t210 -83t210 83t85 221zM467 875l20 -16l-122 -157l-15 13z" />
    <glyph glyph-name="Ocircumflex" unicode="&#xd4;" horiz-adv-x="800" 
d="M731 323q0 -151 -95.5 -242t-235.5 -91q-141 0 -236 91t-95 242q0 152 95 244t236 92q140 0 235.5 -92t95.5 -244zM695 323q0 138 -85.5 222.5t-209.5 84.5q-125 0 -210 -84t-85 -223q0 -138 85 -221t210 -83t210 83t85 221zM399 883l152 -121l-12 -21l-140 112
l-140 -112l-13 21z" />
    <glyph glyph-name="Otilde" unicode="&#xd5;" horiz-adv-x="800" 
d="M731 323q0 -151 -95.5 -242t-235.5 -91q-141 0 -236 91t-95 242q0 152 95 244t236 92q140 0 235.5 -92t95.5 -244zM695 323q0 138 -85.5 222.5t-209.5 84.5q-125 0 -210 -84t-85 -223q0 -138 85 -221t210 -83t210 83t85 221zM567 837l9 -13q-1 -2 -3 -5.5t-9.5 -13
t-17 -16.5t-27 -12.5t-37.5 -5.5q-32 0 -72.5 23.5t-71.5 23.5q-32 0 -56 -13t-32 -27l-9 -13l-10 15q1 3 3.5 7t12 15.5t20.5 20t30 15.5t41 7q34 0 74.5 -24t69.5 -24t50.5 10t27.5 20z" />
    <glyph glyph-name="Odieresis" unicode="&#xd6;" horiz-adv-x="800" 
d="M731 323q0 -151 -95.5 -242t-235.5 -91q-141 0 -236 91t-95 242q0 152 95 244t236 92q140 0 235.5 -92t95.5 -244zM695 323q0 138 -85.5 222.5t-209.5 84.5q-125 0 -210 -84t-85 -223q0 -138 85 -221t210 -83t210 83t85 221zM503 778q0 -11 -7.5 -18.5t-17.5 -7.5
q-11 0 -18.5 7.5t-7.5 18.5t7.5 19t18.5 8q10 0 17.5 -8t7.5 -19zM346 778q0 -11 -7 -18.5t-19 -7.5q-10 0 -17.5 7.5t-7.5 18.5t7.5 19t17.5 8q12 0 19 -7.5t7 -19.5z" />
    <glyph glyph-name="multiply" unicode="&#xd7;" horiz-adv-x="366" 
d="M321 441l-117 -121l117 -119l-20 -22l-118 120l-117 -120l-21 22l117 120l-117 120l20 21l118 -120l118 120z" />
    <glyph glyph-name="Oslash" unicode="&#xd8;" horiz-adv-x="800" 
d="M731 323q0 -151 -95.5 -242t-235.5 -91q-62 0 -125 21q-43 -93 -49 -108l-18 2q34 76 51 112q-87 37 -138.5 117t-51.5 189q0 152 95 244t236 92q79 0 150 -33l52 103l18 -2q-21 -40 -55 -109q77 -41 121.5 -117.5t44.5 -177.5zM272 45q114 246 265 553q-62 32 -137 32
q-125 0 -210 -84t-85 -223q0 -99 45.5 -171t121.5 -107zM695 323q0 91 -38.5 160t-105.5 107q-118 -238 -263 -551q54 -20 112 -20q125 0 210 83t85 221z" />
    <glyph glyph-name="Ugrave" unicode="&#xd9;" horiz-adv-x="764" 
d="M596 230v420h35v-650h-35v198q-6 -14 -15 -30.5t-35 -51t-56 -60t-78.5 -46t-101.5 -20.5q-92 0 -139 55.5t-47 146.5v458h35v-445q0 -81 42.5 -131.5t122.5 -50.5q51 0 98 21.5t77.5 52t53 60.5t33.5 51zM277 859l20 16l117 -160l-15 -13z" />
    <glyph glyph-name="Uacute" unicode="&#xda;" horiz-adv-x="764" 
d="M596 230v420h35v-650h-35v198q-6 -14 -15 -30.5t-35 -51t-56 -60t-78.5 -46t-101.5 -20.5q-92 0 -139 55.5t-47 146.5v458h35v-445q0 -81 42.5 -131.5t122.5 -50.5q51 0 98 21.5t77.5 52t53 60.5t33.5 51zM435 875l20 -16l-122 -157l-15 13z" />
    <glyph glyph-name="Ucircumflex" unicode="&#xdb;" horiz-adv-x="764" 
d="M596 230v420h35v-650h-35v198q-6 -14 -15 -30.5t-35 -51t-56 -60t-78.5 -46t-101.5 -20.5q-92 0 -139 55.5t-47 146.5v458h35v-445q0 -81 42.5 -131.5t122.5 -50.5q51 0 98 21.5t77.5 52t53 60.5t33.5 51zM369 883l152 -121l-12 -21l-140 112l-140 -112l-13 21z" />
    <glyph glyph-name="Udieresis" unicode="&#xdc;" horiz-adv-x="764" 
d="M596 230v420h35v-650h-35v198q-6 -14 -15 -30.5t-35 -51t-56 -60t-78.5 -46t-101.5 -20.5q-92 0 -139 55.5t-47 146.5v458h35v-445q0 -81 42.5 -131.5t122.5 -50.5q51 0 98 21.5t77.5 52t53 60.5t33.5 51zM472 778q0 -11 -7.5 -18.5t-17.5 -7.5q-11 0 -18.5 7.5
t-7.5 18.5t7.5 19t18.5 8q10 0 17.5 -8t7.5 -19zM315 778q0 -11 -7 -18.5t-19 -7.5q-10 0 -17.5 7.5t-7.5 18.5t7.5 19t17.5 8q12 0 19 -7.5t7 -19.5z" />
    <glyph glyph-name="Yacute" unicode="&#xdd;" horiz-adv-x="640" 
d="M61 650l274 -465l247 465h36l-349 -650h-36l84 159l-292 491h36zM408 875l20 -16l-122 -157l-15 13z" />
    <glyph glyph-name="Thorn" unicode="&#xde;" horiz-adv-x="584" 
d="M165 650v-130q68 7 118 7q110 0 175.5 -56t65.5 -143q0 -53 -19.5 -93.5t-49 -63.5t-69.5 -37.5t-74.5 -19.5t-70.5 -5q-37 0 -76 7v-116h-33v650h33zM282 498q-27 0 -117 -6v-351q18 -4 67 -4q34 0 65 4t67.5 16.5t63 32.5t44 55.5t17.5 82.5q0 74 -56 122t-151 48z" />
    <glyph glyph-name="germandbls" unicode="&#xdf;" horiz-adv-x="656" 
d="M139 540v-540h-34v539q0 97 56.5 158t149.5 61q84 0 129 -38.5t45 -112.5q0 -41 -17 -75.5t-45.5 -59t-55 -39.5t-55.5 -27q130 -14 211 -78t81 -148q0 -80 -55.5 -135t-159.5 -55q-48 0 -85.5 13.5t-51.5 26.5l-14 14l12 23q5 -5 14 -13.5t43.5 -22t76.5 -13.5
q92 0 138.5 47t46.5 116q0 81 -88 141t-231 60v27q10 2 25.5 6.5t49 19.5t60 35t47 54.5t20.5 75.5q0 62 -37.5 95t-106.5 33q-77 0 -123 -53t-46 -135z" />
    <glyph glyph-name="agrave" unicode="&#xe0;" 
d="M413 0v107q-7 -13 -18.5 -27.5t-35 -37.5t-59.5 -37.5t-77 -14.5q-76 0 -123.5 40.5t-47.5 106.5q0 76 54.5 120.5t167.5 44.5q61 0 139 -9v54q0 70 -35 104t-117 34q-34 0 -70.5 -5.5t-56.5 -11.5l-20 -5l-3 23q72 25 155 25q99 0 140 -41.5t41 -126.5v-343h-34zM234 14
q109 0 179 116v143q-67 8 -134 8q-99 0 -146.5 -38t-47.5 -103q0 -56 41.5 -91t107.5 -35zM181 724l20 16l117 -160l-15 -13z" />
    <glyph glyph-name="aacute" unicode="&#xe1;" 
d="M413 0v107q-7 -13 -18.5 -27.5t-35 -37.5t-59.5 -37.5t-77 -14.5q-76 0 -123.5 40.5t-47.5 106.5q0 76 54.5 120.5t167.5 44.5q61 0 139 -9v54q0 70 -35 104t-117 34q-34 0 -70.5 -5.5t-56.5 -11.5l-20 -5l-3 23q72 25 155 25q99 0 140 -41.5t41 -126.5v-343h-34zM234 14
q109 0 179 116v143q-67 8 -134 8q-99 0 -146.5 -38t-47.5 -103q0 -56 41.5 -91t107.5 -35zM339 740l20 -16l-122 -157l-15 13z" />
    <glyph glyph-name="acircumflex" unicode="&#xe2;" 
d="M413 0v107q-7 -13 -18.5 -27.5t-35 -37.5t-59.5 -37.5t-77 -14.5q-76 0 -123.5 40.5t-47.5 106.5q0 76 54.5 120.5t167.5 44.5q61 0 139 -9v54q0 70 -35 104t-117 34q-34 0 -70.5 -5.5t-56.5 -11.5l-20 -5l-3 23q72 25 155 25q99 0 140 -41.5t41 -126.5v-343h-34zM234 14
q109 0 179 116v143q-67 8 -134 8q-99 0 -146.5 -38t-47.5 -103q0 -56 41.5 -91t107.5 -35zM271 748l152 -121l-12 -21l-140 112l-140 -112l-13 21z" />
    <glyph glyph-name="atilde" unicode="&#xe3;" 
d="M413 0v107q-7 -13 -18.5 -27.5t-35 -37.5t-59.5 -37.5t-77 -14.5q-76 0 -123.5 40.5t-47.5 106.5q0 76 54.5 120.5t167.5 44.5q61 0 139 -9v54q0 70 -35 104t-117 34q-34 0 -70.5 -5.5t-56.5 -11.5l-20 -5l-3 23q72 25 155 25q99 0 140 -41.5t41 -126.5v-343h-34zM234 14
q109 0 179 116v143q-67 8 -134 8q-99 0 -146.5 -38t-47.5 -103q0 -56 41.5 -91t107.5 -35zM438 702l9 -13q-1 -2 -3 -5.5t-9.5 -13t-17 -16.5t-27 -12.5t-37.5 -5.5q-32 0 -72.5 23.5t-71.5 23.5q-32 0 -56.5 -13.5t-32.5 -26.5l-8 -13l-10 15q1 3 3.5 7t12 15.5t20.5 20
t30 15.5t41 7q34 0 74.5 -24t69.5 -24t50.5 10t28.5 20z" />
    <glyph glyph-name="adieresis" unicode="&#xe4;" 
d="M413 0v107q-7 -13 -18.5 -27.5t-35 -37.5t-59.5 -37.5t-77 -14.5q-76 0 -123.5 40.5t-47.5 106.5q0 76 54.5 120.5t167.5 44.5q61 0 139 -9v54q0 70 -35 104t-117 34q-34 0 -70.5 -5.5t-56.5 -11.5l-20 -5l-3 23q72 25 155 25q99 0 140 -41.5t41 -126.5v-343h-34zM234 14
q109 0 179 116v143q-67 8 -134 8q-99 0 -146.5 -38t-47.5 -103q0 -56 41.5 -91t107.5 -35zM376 643q0 -11 -7.5 -18.5t-17.5 -7.5q-11 0 -18.5 7.5t-7.5 18.5t7.5 19t18.5 8q10 0 17.5 -8t7.5 -19zM219 643q0 -11 -7 -18.5t-19 -7.5q-10 0 -17.5 7.5t-7.5 18.5t7.5 19
t17.5 8q12 0 19 -7.5t7 -19.5z" />
    <glyph glyph-name="aring" unicode="&#xe5;" 
d="M413 0v107q-7 -13 -18.5 -27.5t-35 -37.5t-59.5 -37.5t-77 -14.5q-76 0 -123.5 40.5t-47.5 106.5q0 76 54.5 120.5t167.5 44.5q61 0 139 -9v54q0 70 -35 104t-117 34q-34 0 -70.5 -5.5t-56.5 -11.5l-20 -5l-3 23q72 25 155 25q99 0 140 -41.5t41 -126.5v-343h-34zM234 14
q109 0 179 116v143q-67 8 -134 8q-99 0 -146.5 -38t-47.5 -103q0 -56 41.5 -91t107.5 -35zM365 684q0 -42 -27 -68.5t-67 -26.5q-41 0 -68 26.5t-27 68.5q0 41 27.5 68t67.5 27t67 -27t27 -68zM347 684q0 35 -22 56.5t-54 21.5q-33 0 -55.5 -21.5t-22.5 -56.5t22.5 -56.5
t55.5 -21.5q32 0 54 21.5t22 56.5z" />
    <glyph glyph-name="ae" unicode="&#xe6;" horiz-adv-x="912" 
d="M843 76l9 -23q-7 -7 -21.5 -17.5t-65.5 -28t-110 -17.5q-85 0 -151 47t-85 131q-7 -28 -20 -54.5t-36 -56.5t-62 -48.5t-88 -18.5q-77 0 -119 40t-42 107q0 76 54.5 120.5t168.5 44.5q61 0 139 -12l1 57q0 70 -35 104t-117 34q-33 0 -70.5 -6.5t-58.5 -12.5l-20 -6l-3 23
q79 28 159 28q89 0 127.5 -34.5t44.5 -104.5q30 64 83.5 101.5t119.5 37.5q88 0 148.5 -54t60.5 -157l-5 -50h-405v-10v-6q1 -6 1 -9q0 -96 64 -152.5t152 -56.5q53 0 98.5 15t64.5 30zM222 16q49 0 86.5 21t58 54t31 59.5t15.5 51.5q-1 9 -1 28q0 27 2 41q-65 13 -135 13
q-100 0 -147 -38.5t-47 -103.5q0 -57 35.5 -91.5t101.5 -34.5zM645 486q-79 0 -135.5 -61.5t-64.5 -155.5q273 0 378 1q1 12 1 33q0 90 -51.5 136.5t-127.5 46.5z" />
    <glyph glyph-name="ccedilla" unicode="&#xe7;" horiz-adv-x="501" 
d="M482 78l11 -20q-6 -6 -17.5 -15.5t-53 -27.5t-89.5 -23q-9 -18 -9 -32q0 -15 19.5 -26t43 -17t43 -23t19.5 -44q0 -44 -34 -72.5t-90 -28.5q-34 0 -62 15t-39 30l-11 15l14 12q4 -6 11 -15t31.5 -23.5t51.5 -14.5q47 0 75 24.5t28 60.5q0 22 -19 37t-42.5 20.5
t-42.5 17.5t-19 30q0 16 9 32h-13q-103 0 -174 65.5t-71 177.5q0 120 74 199t186 79q31 0 67.5 -5.5t57.5 -10.5l21 -5v-27q-77 21 -143 21q-100 0 -165 -71.5t-65 -177.5q0 -100 64 -159t152 -59q52 0 97.5 15t64.5 30z" />
    <glyph glyph-name="egrave" unicode="&#xe8;" 
d="M483 76l9 -23q-7 -7 -21.5 -17.5t-65.5 -28t-110 -17.5q-100 0 -171.5 64.5t-71.5 175.5q0 121 67 201t166 80q88 0 148.5 -54t60.5 -157l-5 -50h-405v-10v-6q1 -6 1 -9q0 -96 64 -152.5t152 -56.5q53 0 98.5 15t64.5 30zM285 486q-79 0 -135.5 -61.5t-64.5 -155.5
q273 0 378 1q1 12 1 33q0 90 -51.5 136.5t-127.5 46.5zM206 724l20 16l117 -160l-15 -13z" />
    <glyph glyph-name="eacute" unicode="&#xe9;" 
d="M483 76l9 -23q-7 -7 -21.5 -17.5t-65.5 -28t-110 -17.5q-100 0 -171.5 64.5t-71.5 175.5q0 121 67 201t166 80q88 0 148.5 -54t60.5 -157l-5 -50h-405v-10v-6q1 -6 1 -9q0 -96 64 -152.5t152 -56.5q53 0 98.5 15t64.5 30zM285 486q-79 0 -135.5 -61.5t-64.5 -155.5
q273 0 378 1q1 12 1 33q0 90 -51.5 136.5t-127.5 46.5zM364 740l20 -16l-122 -157l-15 13z" />
    <glyph glyph-name="ecircumflex" unicode="&#xea;" 
d="M483 76l9 -23q-7 -7 -21.5 -17.5t-65.5 -28t-110 -17.5q-100 0 -171.5 64.5t-71.5 175.5q0 121 67 201t166 80q88 0 148.5 -54t60.5 -157l-5 -50h-405v-10v-6q1 -6 1 -9q0 -96 64 -152.5t152 -56.5q53 0 98.5 15t64.5 30zM285 486q-79 0 -135.5 -61.5t-64.5 -155.5
q273 0 378 1q1 12 1 33q0 90 -51.5 136.5t-127.5 46.5zM297 748l152 -121l-12 -21l-140 112l-140 -112l-13 21z" />
    <glyph glyph-name="edieresis" unicode="&#xeb;" 
d="M483 76l9 -23q-7 -7 -21.5 -17.5t-65.5 -28t-110 -17.5q-100 0 -171.5 64.5t-71.5 175.5q0 121 67 201t166 80q88 0 148.5 -54t60.5 -157l-5 -50h-405v-10v-6q1 -6 1 -9q0 -96 64 -152.5t152 -56.5q53 0 98.5 15t64.5 30zM285 486q-79 0 -135.5 -61.5t-64.5 -155.5
q273 0 378 1q1 12 1 33q0 90 -51.5 136.5t-127.5 46.5zM401 643q0 -11 -7.5 -18.5t-17.5 -7.5q-11 0 -18.5 7.5t-7.5 18.5t7.5 19t18.5 8q10 0 17.5 -8t7.5 -19zM244 643q0 -11 -7 -18.5t-19 -7.5q-10 0 -17.5 7.5t-7.5 18.5t7.5 19t17.5 8q12 0 19 -7.5t7 -19.5z" />
    <glyph glyph-name="igrave" unicode="&#xec;" horiz-adv-x="263" 
d="M149 500v-500h-34v500h34zM41 724l20 16l117 -160l-15 -13z" />
    <glyph glyph-name="iacute" unicode="&#xed;" horiz-adv-x="263" 
d="M149 500v-500h-34v500h34zM199 740l20 -16l-122 -157l-15 13z" />
    <glyph glyph-name="icircumflex" unicode="&#xee;" horiz-adv-x="263" 
d="M149 500v-500h-34v500h34zM132 748l152 -121l-12 -21l-140 112l-140 -112l-13 21z" />
    <glyph glyph-name="idieresis" unicode="&#xef;" horiz-adv-x="263" 
d="M149 500v-500h-34v500h34zM236 643q0 -11 -7.5 -18.5t-17.5 -7.5q-11 0 -18.5 7.5t-7.5 18.5t7.5 19t18.5 8q10 0 17.5 -8t7.5 -19zM79 643q0 -11 -7 -18.5t-19 -7.5q-10 0 -17.5 7.5t-7.5 18.5t7.5 19t17.5 8q12 0 19 -7.5t7 -19.5z" />
    <glyph glyph-name="eth" unicode="&#xf0;" horiz-adv-x="618" 
d="M531 730l10 -16l-133 -82q138 -122 138 -361q0 -120 -64.5 -200.5t-184.5 -80.5q-104 0 -166 58.5t-62 159.5q0 107 66 166t173 59q58 0 105.5 -20t65 -36.5t28.5 -32.5q-17 177 -126 272l-193 -118l-10 16l188 115q-52 40 -144 78l12 24q100 -39 159 -86zM511 271
q0 18 -2 50q-7 10 -18.5 21t-35 27.5t-60 27t-79.5 10.5q-96 0 -154 -52.5t-58 -146.5q0 -88 53 -139t141 -51q102 0 157.5 71.5t55.5 181.5z" />
    <glyph glyph-name="ntilde" unicode="&#xf1;" horiz-adv-x="626" 
d="M115 0v500h34v-138q10 18 24.5 36t42 47t67 47.5t81.5 18.5q157 0 157 -180v-331h-34v330q0 152 -134 152q-41 0 -80 -20.5t-65.5 -50.5t-39.5 -48.5t-19 -30.5v-332h-34zM462 704l9 -13q-1 -2 -3 -5.5t-9.5 -13t-17 -16.5t-27 -12.5t-37.5 -5.5q-32 0 -72.5 23.5
t-71.5 23.5q-32 0 -56.5 -13.5t-32.5 -26.5l-8 -13l-10 15q1 3 3.5 7t12 15.5t20.5 20t30 15.5t41 7q34 0 74.5 -24t69.5 -24t50.5 10t28.5 20z" />
    <glyph glyph-name="ograve" unicode="&#xf2;" horiz-adv-x="616" 
d="M564 250q0 -117 -72.5 -188.5t-183.5 -71.5t-183.5 71.5t-72.5 188.5t72.5 189t183.5 72t183.5 -72t72.5 -189zM308 484q-94 0 -157.5 -64.5t-63.5 -169.5t63 -169t158 -64t158 64t63 169t-63.5 169.5t-157.5 64.5zM217 724l20 16l117 -160l-15 -13z" />
    <glyph glyph-name="oacute" unicode="&#xf3;" horiz-adv-x="616" 
d="M564 250q0 -117 -72.5 -188.5t-183.5 -71.5t-183.5 71.5t-72.5 188.5t72.5 189t183.5 72t183.5 -72t72.5 -189zM308 484q-94 0 -157.5 -64.5t-63.5 -169.5t63 -169t158 -64t158 64t63 169t-63.5 169.5t-157.5 64.5zM375 740l20 -16l-122 -157l-15 13z" />
    <glyph glyph-name="ocircumflex" unicode="&#xf4;" horiz-adv-x="616" 
d="M564 250q0 -117 -72.5 -188.5t-183.5 -71.5t-183.5 71.5t-72.5 188.5t72.5 189t183.5 72t183.5 -72t72.5 -189zM308 484q-94 0 -157.5 -64.5t-63.5 -169.5t63 -169t158 -64t158 64t63 169t-63.5 169.5t-157.5 64.5zM308 748l152 -121l-12 -21l-140 112l-140 -112l-13 21z
" />
    <glyph glyph-name="otilde" unicode="&#xf5;" horiz-adv-x="616" 
d="M564 250q0 -117 -72.5 -188.5t-183.5 -71.5t-183.5 71.5t-72.5 188.5t72.5 189t183.5 72t183.5 -72t72.5 -189zM308 484q-94 0 -157.5 -64.5t-63.5 -169.5t63 -169t158 -64t158 64t63 169t-63.5 169.5t-157.5 64.5zM475 702l9 -13q-1 -2 -3 -5.5t-9.5 -13t-17 -16.5
t-27 -12.5t-37.5 -5.5q-32 0 -72.5 23.5t-71.5 23.5q-32 0 -56.5 -13.5t-32.5 -26.5l-8 -13l-10 15q1 3 3.5 7t12 15.5t20.5 20t30 15.5t41 7q34 0 74.5 -24t69.5 -24t50.5 10t27.5 20z" />
    <glyph glyph-name="odieresis" unicode="&#xf6;" horiz-adv-x="616" 
d="M564 250q0 -117 -72.5 -188.5t-183.5 -71.5t-183.5 71.5t-72.5 188.5t72.5 189t183.5 72t183.5 -72t72.5 -189zM308 484q-94 0 -157.5 -64.5t-63.5 -169.5t63 -169t158 -64t158 64t63 169t-63.5 169.5t-157.5 64.5zM412 643q0 -11 -7.5 -18.5t-17.5 -7.5q-11 0 -18.5 7.5
t-7.5 18.5t7.5 19t18.5 8q10 0 17.5 -8t7.5 -19zM255 643q0 -11 -7 -18.5t-19 -7.5q-10 0 -17.5 7.5t-7.5 18.5t7.5 19t17.5 8q12 0 19 -7.5t7 -19.5z" />
    <glyph glyph-name="divide" unicode="&#xf7;" horiz-adv-x="529" 
d="M290 447q0 -12 -8 -20t-19 -8q-12 0 -19.5 8t-7.5 20t7.5 20t19.5 8q11 0 19 -8.5t8 -19.5zM293 196q0 -12 -8 -20t-19 -8q-12 0 -19.5 8t-7.5 20t7.5 20t19.5 8q11 0 19 -8.5t8 -19.5zM484 293v-27h-440v27h440z" />
    <glyph glyph-name="oslash" unicode="&#xf8;" horiz-adv-x="616" 
d="M564 250q0 -117 -72.5 -188.5t-183.5 -71.5q-46 0 -94 15l-84 -182l-18 3q38 84 86 185q-68 29 -107 91.5t-39 147.5q0 117 72.5 189t183.5 72q64 0 116 -26l81 165l18 -2q-32 -64 -84 -170q58 -33 91.5 -92t33.5 -136zM308 484q-94 0 -157.5 -64.5t-63.5 -169.5
q0 -75 33.5 -130.5t89.5 -81.5q107 229 201 421q-48 25 -103 25zM426 451q-128 -266 -200 -420q35 -14 82 -14q95 0 158 64t63 169q0 136 -103 201z" />
    <glyph glyph-name="ugrave" unicode="&#xf9;" horiz-adv-x="626" 
d="M512 500v-500h-34v137q-11 -18 -24.5 -35.5t-42 -46.5t-67.5 -47t-81 -18q-157 0 -157 179v331h34v-330q0 -151 134 -151q33 0 66 15t54.5 33t42.5 43t28 36t13 22v332h34zM217 724l20 16l117 -160l-15 -13z" />
    <glyph glyph-name="uacute" unicode="&#xfa;" horiz-adv-x="626" 
d="M512 500v-500h-34v137q-11 -18 -24.5 -35.5t-42 -46.5t-67.5 -47t-81 -18q-157 0 -157 179v331h34v-330q0 -151 134 -151q33 0 66 15t54.5 33t42.5 43t28 36t13 22v332h34zM375 740l20 -16l-122 -157l-15 13z" />
    <glyph glyph-name="ucircumflex" unicode="&#xfb;" horiz-adv-x="626" 
d="M512 500v-500h-34v137q-11 -18 -24.5 -35.5t-42 -46.5t-67.5 -47t-81 -18q-157 0 -157 179v331h34v-330q0 -151 134 -151q33 0 66 15t54.5 33t42.5 43t28 36t13 22v332h34zM307 748l152 -121l-12 -21l-140 112l-140 -112l-13 21z" />
    <glyph glyph-name="udieresis" unicode="&#xfc;" horiz-adv-x="626" 
d="M512 500v-500h-34v137q-11 -18 -24.5 -35.5t-42 -46.5t-67.5 -47t-81 -18q-157 0 -157 179v331h34v-330q0 -151 134 -151q33 0 66 15t54.5 33t42.5 43t28 36t13 22v332h34zM411 643q0 -11 -7.5 -18.5t-17.5 -7.5q-11 0 -18.5 7.5t-7.5 18.5t7.5 19t18.5 8q10 0 17.5 -8
t7.5 -19zM254 643q0 -11 -7 -18.5t-19 -7.5q-10 0 -17.5 7.5t-7.5 18.5t7.5 19t17.5 8q12 0 19 -7.5t7 -19.5z" />
    <glyph glyph-name="yacute" unicode="&#xfd;" horiz-adv-x="558" 
d="M488 500h37l-228 -499l-115 -251h-36l116 251l-230 499h39l210 -465zM357 740l20 -16l-122 -157l-15 13z" />
    <glyph glyph-name="thorn" unicode="&#xfe;" horiz-adv-x="609" 
d="M105 -250v1000h34v-345q16 19 35.5 37.5t67 43.5t94.5 25q95 0 158 -68.5t63 -183.5q0 -123 -74.5 -196t-200.5 -73q-73 0 -143 12v-252h-34zM324 483q-35 0 -69.5 -14t-59 -34.5t-37.5 -34t-19 -21.5v-348q62 -16 138 -16q114 0 180 65t66 176q0 105 -56.5 166
t-142.5 61z" />
    <glyph glyph-name="ydieresis" unicode="&#xff;" horiz-adv-x="558" 
d="M488 500h37l-228 -499l-115 -251h-36l116 251l-230 499h39l210 -465zM394 643q0 -11 -7.5 -18.5t-17.5 -7.5q-11 0 -18.5 7.5t-7.5 18.5t7.5 19t18.5 8q10 0 17.5 -8t7.5 -19zM237 643q0 -11 -7 -18.5t-19 -7.5q-10 0 -17.5 7.5t-7.5 18.5t7.5 19t17.5 8q12 0 19 -7.5
t7 -19.5z" />
    <glyph glyph-name="Amacron" unicode="&#x100;" horiz-adv-x="664" 
d="M311 650l1 -1v1h41l280 -650h-36l-84 191h-365l-81 -191h-36zM503 215q-25 60 -65.5 155.5t-71.5 169t-35 83.5l-172 -408h344zM433 799v-19h-202v19h202z" />
    <glyph glyph-name="amacron" unicode="&#x101;" 
d="M413 0v107q-7 -13 -18.5 -27.5t-35 -37.5t-59.5 -37.5t-77 -14.5q-76 0 -123.5 40.5t-47.5 106.5q0 76 54.5 120.5t167.5 44.5q61 0 139 -9v54q0 70 -35 104t-117 34q-34 0 -70.5 -5.5t-56.5 -11.5l-20 -5l-3 23q72 25 155 25q99 0 140 -41.5t41 -126.5v-343h-34zM234 14
q109 0 179 116v143q-67 8 -134 8q-99 0 -146.5 -38t-47.5 -103q0 -56 41.5 -91t107.5 -35zM372 664v-19h-202v19h202z" />
    <glyph glyph-name="Abreve" unicode="&#x102;" horiz-adv-x="664" 
d="M311 650l1 -1v1h41l280 -650h-36l-84 191h-365l-81 -191h-36zM503 215q-25 60 -65.5 155.5t-71.5 169t-35 83.5l-172 -408h344zM333 746q38 0 72.5 17t49.5 34l15 17l14 -20q-2 -3 -6 -8t-18.5 -17.5t-31 -22t-42.5 -17.5t-53 -8q-44 0 -81.5 18.5t-53.5 36.5l-16 18
l14 20q6 -8 16.5 -19t46.5 -30t74 -19z" />
    <glyph glyph-name="abreve" unicode="&#x103;" 
d="M413 0v107q-7 -13 -18.5 -27.5t-35 -37.5t-59.5 -37.5t-77 -14.5q-76 0 -123.5 40.5t-47.5 106.5q0 76 54.5 120.5t167.5 44.5q61 0 139 -9v54q0 70 -35 104t-117 34q-34 0 -70.5 -5.5t-56.5 -11.5l-20 -5l-3 23q72 25 155 25q99 0 140 -41.5t41 -126.5v-343h-34zM234 14
q109 0 179 116v143q-67 8 -134 8q-99 0 -146.5 -38t-47.5 -103q0 -56 41.5 -91t107.5 -35zM272 611q38 0 72.5 17t49.5 34l15 17l14 -20q-2 -3 -6 -8t-18.5 -17.5t-31 -22t-42.5 -17.5t-53 -8t-53 7.5t-43 18t-30 21.5t-19 19l-6 7l14 20q6 -8 16.5 -19t46.5 -30t74 -19z
" />
    <glyph glyph-name="Aogonek" unicode="&#x104;" horiz-adv-x="664" 
d="M311 650l1 -1v1h41l280 -650h-6q-5 -2 -12.5 -6.5t-26.5 -19t-34 -30t-27 -40t-12 -48.5q0 -88 156 -88v-19q-182 0 -182 107q0 48 34.5 85t74.5 59h-1l-84 191h-365l-81 -191h-36zM503 215q-25 60 -65.5 155.5t-71.5 169t-35 83.5l-172 -408h344z" />
    <glyph glyph-name="aogonek" unicode="&#x105;" 
d="M413 0v107q-7 -13 -18.5 -27.5t-35 -37.5t-59.5 -37.5t-77 -14.5q-76 0 -123.5 40.5t-47.5 106.5q0 76 54.5 120.5t167.5 44.5q61 0 139 -9v54q0 70 -35 104t-117 34q-34 0 -70.5 -5.5t-56.5 -11.5l-20 -5l-3 23q72 25 155 25q99 0 140 -41.5t41 -126.5v-343h-4
q-5 -2 -12.5 -6.5t-26.5 -19t-34 -30t-27 -40t-12 -48.5q0 -88 156 -88v-19q-182 0 -182 107q0 48 34.5 85t74.5 59h-1zM234 14q109 0 179 116v143q-67 8 -134 8q-99 0 -146.5 -38t-47.5 -103q0 -56 41.5 -91t107.5 -35z" />
    <glyph glyph-name="Cacute" unicode="&#x106;" horiz-adv-x="699" 
d="M606 631v-171h-27v149q-65 21 -164 21q-133 0 -221 -85.5t-88 -225.5q0 -139 82.5 -219t213.5 -80q43 0 84.5 11.5t70.5 27.5t52 32t34 27l11 12l12 -20q-4 -5 -11.5 -13t-33.5 -28.5t-55 -36.5t-74.5 -29t-93.5 -13q-146 0 -237.5 88.5t-91.5 240.5t98 246t244 94
q59 0 108 -7t68 -14zM478 875l20 -16l-122 -157l-15 13z" />
    <glyph glyph-name="cacute" unicode="&#x107;" horiz-adv-x="501" 
d="M482 78l11 -20q-3 -3 -8 -7.5t-23 -16t-38.5 -20.5t-55 -16.5t-71.5 -7.5q-103 0 -174 65.5t-71 177.5q0 120 74 199t186 79q31 0 67.5 -5.5t57.5 -10.5l21 -5v-27q-77 21 -143 21q-100 0 -165 -71.5t-65 -177.5q0 -100 64 -159t152 -59q52 0 97.5 15t64.5 30zM386 740
l20 -16l-122 -157l-15 13z" />
    <glyph glyph-name="Ccaron" unicode="&#x10c;" horiz-adv-x="699" 
d="M606 631v-171h-27v149q-65 21 -164 21q-133 0 -221 -85.5t-88 -225.5q0 -139 82.5 -219t213.5 -80q43 0 84.5 11.5t70.5 27.5t52 32t34 27l11 12l12 -20q-4 -5 -11.5 -13t-33.5 -28.5t-55 -36.5t-74.5 -29t-93.5 -13q-146 0 -237.5 88.5t-91.5 240.5t98 246t244 94
q59 0 108 -7t68 -14zM410 722l-152 122l13 21l139 -113l141 113l12 -21z" />
    <glyph glyph-name="ccaron" unicode="&#x10d;" horiz-adv-x="501" 
d="M482 78l11 -20q-3 -3 -8 -7.5t-23 -16t-38.5 -20.5t-55 -16.5t-71.5 -7.5q-103 0 -174 65.5t-71 177.5q0 120 74 199t186 79q31 0 67.5 -5.5t57.5 -10.5l21 -5v-27q-77 21 -143 21q-100 0 -165 -71.5t-65 -177.5q0 -100 64 -159t152 -59q52 0 97.5 15t64.5 30zM318 587
l-152 122l13 21l139 -113l141 113l12 -21z" />
    <glyph glyph-name="Dcaron" unicode="&#x10e;" horiz-adv-x="771" 
d="M132 0v650q82 9 202 9q163 0 266 -91t103 -245t-102.5 -243.5t-266.5 -89.5q-43 0 -93.5 2.5t-79.5 5.5zM335 19q146 0 238.5 82t92.5 222t-92.5 223.5t-239.5 83.5q-82 0 -166 -7v-596q101 -8 167 -8zM324 722l-152 122l13 21l139 -113l141 113l12 -21z" />
    <glyph glyph-name="dcaron" unicode="&#x10f;" horiz-adv-x="657" 
d="M506 750v-750h-34v95q-8 -11 -21 -24.5t-37.5 -34t-59.5 -33.5t-72 -13q-99 0 -164.5 64.5t-65.5 178.5q0 123 78 200.5t207 77.5q76 0 135 -21v260h34zM292 18q97 0 180 102v339q-59 27 -132 27q-116 0 -184.5 -69t-68.5 -181q0 -103 58.5 -160.5t146.5 -57.5zM713 733
l-103 -165l-21 10l101 165z" />
    <glyph glyph-name="Dcroat" unicode="&#x110;" horiz-adv-x="771" 
d="M132 0v312h-97v23h97v315q82 9 202 9q163 0 266 -91t103 -245t-102.5 -243.5t-266.5 -89.5q-43 0 -93.5 2.5t-79.5 5.5zM335 19q146 0 238.5 82t92.5 222t-92.5 223.5t-239.5 83.5q-82 0 -166 -7v-288h277v-23h-277v-285q101 -8 167 -8z" />
    <glyph glyph-name="dcroat" unicode="&#x111;" horiz-adv-x="638" 
d="M506 750v-91h145v-25h-145v-634h-34v95q-8 -11 -21 -24.5t-37.5 -34t-59.5 -33.5t-72 -13q-99 0 -164.5 64.5t-65.5 178.5q0 123 78 200.5t207 77.5q76 0 135 -21v144h-210v25h210v91h34zM292 18q97 0 180 102v339q-59 27 -132 27q-116 0 -184.5 -69t-68.5 -181
q0 -103 58.5 -160.5t146.5 -57.5z" />
    <glyph glyph-name="Emacron" unicode="&#x112;" horiz-adv-x="609" 
d="M564 28v-28h-432v650h397v-28h-361v-263h299v-27h-299v-304h396zM405 799v-19h-202v19h202z" />
    <glyph glyph-name="emacron" unicode="&#x113;" 
d="M483 76l9 -23q-7 -7 -21.5 -17.5t-65.5 -28t-110 -17.5q-100 0 -171.5 64.5t-71.5 175.5q0 121 67 201t166 80q88 0 148.5 -54t60.5 -157l-5 -50h-405v-10v-6q1 -6 1 -9q0 -96 64 -152.5t152 -56.5q53 0 98.5 15t64.5 30zM285 486q-79 0 -135.5 -61.5t-64.5 -155.5
q273 0 378 1q1 12 1 33q0 90 -51.5 136.5t-127.5 46.5zM398 664v-19h-202v19h202z" />
    <glyph glyph-name="Edotaccent" unicode="&#x116;" horiz-adv-x="609" 
d="M564 28v-28h-432v650h397v-28h-361v-263h299v-27h-299v-304h396zM328 778q0 -11 -7 -18.5t-19 -7.5q-11 0 -18 7.5t-7 18.5t7 19t18 8q12 0 19 -7.5t7 -19.5z" />
    <glyph glyph-name="edotaccent" unicode="&#x117;" 
d="M483 76l9 -23q-7 -7 -21.5 -17.5t-65.5 -28t-110 -17.5q-100 0 -171.5 64.5t-71.5 175.5q0 121 67 201t166 80q88 0 148.5 -54t60.5 -157l-5 -50h-405v-10v-6q1 -6 1 -9q0 -96 64 -152.5t152 -56.5q53 0 98.5 15t64.5 30zM285 486q-79 0 -135.5 -61.5t-64.5 -155.5
q273 0 378 1q1 12 1 33q0 90 -51.5 136.5t-127.5 46.5zM321 643q0 -11 -7 -18.5t-19 -7.5q-11 0 -18 7.5t-7 18.5t7 19t18 8q12 0 19 -7.5t7 -19.5z" />
    <glyph glyph-name="Eogonek" unicode="&#x118;" horiz-adv-x="609" 
d="M564 28v-28h-166q-5 -2 -12.5 -6.5t-26.5 -19t-34 -30t-27 -40t-12 -48.5q0 -88 156 -88v-19q-182 0 -182 107q0 48 34.5 85t74.5 59h-237v650h397v-28h-361v-263h299v-27h-299v-304h396z" />
    <glyph glyph-name="eogonek" unicode="&#x119;" 
d="M367 10l10 -10q-5 -2 -12.5 -6.5t-26.5 -19t-34 -30t-27 -40t-12 -48.5q0 -88 156 -88v-19q-182 0 -182 107q0 76 95 136q-26 -2 -39 -2q-100 0 -171.5 64.5t-71.5 175.5q0 121 67 201t166 80q88 0 148.5 -54t60.5 -157l-5 -50h-405v-10v-6q1 -6 1 -9q0 -96 64 -152.5
t152 -56.5q53 0 98.5 15t64.5 30l19 15l9 -23q-6 -6 -17.5 -14.5t-52.5 -25.5t-88 -21zM285 486q-79 0 -135.5 -61.5t-64.5 -155.5q273 0 378 1q1 12 1 33q0 90 -51.5 136.5t-127.5 46.5z" />
    <glyph glyph-name="Ecaron" unicode="&#x11a;" horiz-adv-x="609" 
d="M564 28v-28h-432v650h397v-28h-361v-263h299v-27h-299v-304h396zM303 722l-152 122l13 21l139 -113l141 113l12 -21z" />
    <glyph glyph-name="ecaron" unicode="&#x11b;" 
d="M483 76l9 -23q-7 -7 -21.5 -17.5t-65.5 -28t-110 -17.5q-100 0 -171.5 64.5t-71.5 175.5q0 121 67 201t166 80q88 0 148.5 -54t60.5 -157l-5 -50h-405v-10v-6q1 -6 1 -9q0 -96 64 -152.5t152 -56.5q53 0 98.5 15t64.5 30zM285 486q-79 0 -135.5 -61.5t-64.5 -155.5
q273 0 378 1q1 12 1 33q0 90 -51.5 136.5t-127.5 46.5zM296 587l-152 122l13 21l139 -113l141 113l12 -21z" />
    <glyph glyph-name="Gbreve" unicode="&#x11e;" horiz-adv-x="747" 
d="M423 19q116 0 197 47v322h31v-337q-9 -7 -26 -17t-77 -27t-127 -17q-161 0 -256.5 89t-95.5 244q0 153 101.5 244.5t259.5 91.5q56 0 106 -7t72 -14l22 -7v-28q-79 28 -194 28q-147 0 -239 -83.5t-92 -224.5q0 -142 87 -223t231 -81zM424 746q38 0 72.5 17t49.5 34l15 17
l14 -20q-2 -3 -6 -8t-18.5 -17.5t-31 -22t-42.5 -17.5t-53 -8q-44 0 -81.5 18.5t-53.5 36.5l-16 18l14 20q6 -8 16.5 -19t46.5 -30t74 -19z" />
    <glyph glyph-name="gbreve" unicode="&#x11f;" horiz-adv-x="511" 
d="M404 499q5 -7 13.5 -20.5t22 -53.5t13.5 -78q0 -74 -47.5 -126t-132.5 -52q-47 0 -79 13q-21 -78 -21 -103q25 4 62 4q123 0 195 -43t72 -124q0 -77 -57.5 -126.5t-158.5 -49.5q-107 0 -166.5 46t-59.5 129q0 61 27 100.5t58 56.5q6 51 25 120q-79 43 -79 143
q0 82 54.5 129t144.5 47q26 0 54.5 -3t43.5 -6zM232 59q-31 0 -71 -7q-25 -14 -48.5 -48t-23.5 -88q0 -70 52.5 -109.5t143.5 -39.5q86 0 135.5 41.5t49.5 107.5q0 67 -64.5 105t-173.5 38zM424 344q0 66 -42 134q-59 8 -93 8q-76 0 -122.5 -40t-46.5 -111q0 -60 39 -101
t112 -41q71 0 112 44.5t41 106.5zM265 610q38 0 72.5 17t49.5 34l15 17l14 -20q-2 -3 -6 -8t-18.5 -17.5t-31 -22t-42.5 -17.5t-53 -8q-44 0 -81.5 18.5t-53.5 36.5l-16 18l14 20q6 -8 16.5 -19t46.5 -30t74 -19z" />
    <glyph glyph-name="Gcommaaccent" unicode="&#x122;" horiz-adv-x="747" 
d="M423 19q116 0 197 47v322h31v-337q-9 -7 -26 -17t-77 -27t-127 -17q-161 0 -256.5 89t-95.5 244q0 153 101.5 244.5t259.5 91.5q56 0 106 -7t72 -14l22 -7v-28q-79 28 -194 28q-147 0 -239 -83.5t-92 -224.5q0 -142 87 -223t231 -81zM390 -45l23 -2q0 -45 -20 -99.5
t-47 -87.5l-19 5q26 36 44.5 87.5t18.5 96.5z" />
    <glyph glyph-name="gcommaaccent" unicode="&#x123;" horiz-adv-x="511" 
d="M322 763l20 -4q-27 -36 -45.5 -88t-18.5 -97l-22 3q0 45 20 99t46 87zM404 499q5 -7 13.5 -20.5t22 -53.5t13.5 -78q0 -74 -47.5 -126t-132.5 -52q-47 0 -79 13q-21 -78 -21 -103q25 4 62 4q123 0 195 -43t72 -124q0 -77 -57.5 -126.5t-158.5 -49.5q-107 0 -166.5 46
t-59.5 129q0 61 27 100.5t58 56.5q6 51 25 120q-79 43 -79 143q0 82 54.5 129t144.5 47q26 0 54.5 -3t43.5 -6zM232 59q-31 0 -71 -7q-25 -14 -48.5 -48t-23.5 -88q0 -70 52.5 -109.5t143.5 -39.5q86 0 135.5 41.5t49.5 107.5q0 67 -64.5 105t-173.5 38zM424 344
q0 66 -42 134q-59 8 -93 8q-76 0 -122.5 -40t-46.5 -111q0 -60 39 -101t112 -41q71 0 112 44.5t41 106.5z" />
    <glyph glyph-name="uni012A" unicode="&#x12a;" horiz-adv-x="301" 
d="M168 650v-650h-36v650h36zM250 799v-19h-202v19h202z" />
    <glyph glyph-name="imacron" unicode="&#x12b;" horiz-adv-x="263" 
d="M149 500v-500h-34v500h34zM232 664v-19h-202v19h202z" />
    <glyph glyph-name="Iogonek" unicode="&#x12e;" horiz-adv-x="301" 
d="M168 650v-650h-6q-5 -2 -12.5 -6.5t-26.5 -19t-34 -30t-27 -40t-12 -48.5q0 -88 156 -88v-19q-182 0 -182 107q0 48 34.5 85t74.5 59h-1v650h36z" />
    <glyph glyph-name="iogonek" unicode="&#x12f;" horiz-adv-x="263" 
d="M149 500v-500h-5q-5 -2 -12.5 -6.5t-26.5 -19t-34 -30t-27 -40t-12 -48.5q0 -88 156 -88v-19q-182 0 -182 107q0 48 34.5 85t74.5 59v500h34zM156 643q0 -11 -7 -18.5t-19 -7.5q-11 0 -18 7.5t-7 18.5t7 19t18 8q12 0 19 -7.5t7 -19.5z" />
    <glyph glyph-name="Idotaccent" unicode="&#x130;" horiz-adv-x="301" 
d="M168 650v-650h-36v650h36zM174 778q0 -11 -7 -18.5t-19 -7.5q-11 0 -18 7.5t-7 18.5t7 19t18 8q12 0 19 -7.5t7 -19.5z" />
    <glyph glyph-name="dotlessi" unicode="&#x131;" horiz-adv-x="263" 
d="M149 500v-500h-34v500h34z" />
    <glyph glyph-name="Kcommaaccent" unicode="&#x136;" horiz-adv-x="680" 
d="M132 0v650h36v-399l117 99l298 300h41l-314 -314l339 -336h-41l-321 315l-119 -100v-215h-36zM340 -45l23 -2q0 -45 -20 -99.5t-47 -87.5l-19 5q26 36 44.5 87.5t18.5 96.5z" />
    <glyph glyph-name="kcommaaccent" unicode="&#x137;" horiz-adv-x="511" 
d="M113 0v750h34v-500l57 46l243 204h41l-257 -216l272 -284h-42l-254 265l-60 -48v-217h-34zM287 -45l23 -2q0 -45 -20 -99.5t-47 -87.5l-19 5q26 36 44.5 87.5t18.5 96.5z" />
    <glyph glyph-name="Lacute" unicode="&#x139;" horiz-adv-x="574" 
d="M561 27v-27h-429v650h36v-623h393zM216 875l20 -16l-122 -157l-15 13z" />
    <glyph glyph-name="lacute" unicode="&#x13a;" horiz-adv-x="244" 
d="M139 750v-750h-34v750h34zM204 950l20 -16l-122 -157l-15 13z" />
    <glyph glyph-name="Lcommaaccent" unicode="&#x13b;" horiz-adv-x="574" 
d="M561 27v-27h-429v650h36v-623h393zM310 -45l23 -2q0 -45 -20 -99.5t-47 -87.5l-19 5q26 36 44.5 87.5t18.5 96.5z" />
    <glyph glyph-name="lcommaaccent" unicode="&#x13c;" horiz-adv-x="244" 
d="M139 750v-750h-34v750h34zM109 -45l23 -2q0 -45 -20 -99.5t-47 -87.5l-19 5q26 36 44.5 87.5t18.5 96.5z" />
    <glyph glyph-name="Lcaron" unicode="&#x13d;" horiz-adv-x="574" 
d="M561 27v-27h-429v650h36v-623h393zM385 733l-103 -165l-21 10l101 165z" />
    <glyph glyph-name="lcaron" unicode="&#x13e;" horiz-adv-x="291" 
d="M139 750v-750h-34v750h34zM347 733l-103 -165l-21 10l101 165z" />
    <glyph glyph-name="Lslash" unicode="&#x141;" horiz-adv-x="574" 
d="M561 27v-27h-429v265l-66 -40l-9 16l75 46v363h36v-341l210 128l10 -16l-220 -134v-260h393z" />
    <glyph glyph-name="lslash" unicode="&#x142;" horiz-adv-x="297" 
d="M162 750v-387l174 115l10 -16l-184 -122v-340h-34v318l-74 -49l-10 16l84 55v410h34z" />
    <glyph glyph-name="Nacute" unicode="&#x143;" horiz-adv-x="800" 
d="M668 650v-650h-30l-477 601q2 -4 2 -8v-593h-31v650h29l476 -602v7v595h31zM484 875l20 -16l-122 -157l-15 13z" />
    <glyph glyph-name="nacute" unicode="&#x144;" horiz-adv-x="626" 
d="M115 0v500h34v-138q10 18 24.5 36t42 47t67 47.5t81.5 18.5q157 0 157 -180v-331h-34v330q0 152 -134 152q-41 0 -80 -20.5t-65.5 -50.5t-39.5 -48.5t-19 -30.5v-332h-34zM363 742l20 -16l-122 -157l-15 13z" />
    <glyph glyph-name="Ncommaaccent" unicode="&#x145;" horiz-adv-x="800" 
d="M668 650v-650h-30l-477 601q2 -4 2 -8v-593h-31v650h29l476 -602v7v595h31zM392 -45l23 -2q0 -45 -20 -99.5t-47 -87.5l-19 5q26 36 44.5 87.5t18.5 96.5z" />
    <glyph glyph-name="ncommaaccent" unicode="&#x146;" horiz-adv-x="626" 
d="M115 0v500h34v-138q10 18 24.5 36t42 47t67 47.5t81.5 18.5q157 0 157 -180v-331h-34v330q0 152 -134 152q-41 0 -80 -20.5t-65.5 -50.5t-39.5 -48.5t-19 -30.5v-332h-34zM331 -45l23 -2q0 -45 -20 -99.5t-47 -87.5l-19 5q26 36 44.5 87.5t18.5 96.5z" />
    <glyph glyph-name="Ncaron" unicode="&#x147;" horiz-adv-x="800" 
d="M668 650v-650h-30l-477 601q2 -4 2 -8v-593h-31v650h29l476 -602v7v595h31zM416 722l-152 122l13 21l139 -113l141 113l12 -21z" />
    <glyph glyph-name="ncaron" unicode="&#x148;" horiz-adv-x="626" 
d="M115 0v500h34v-138q10 18 24.5 36t42 47t67 47.5t81.5 18.5q157 0 157 -180v-331h-34v330q0 152 -134 152q-41 0 -80 -20.5t-65.5 -50.5t-39.5 -48.5t-19 -30.5v-332h-34zM295 589l-152 122l13 21l139 -113l141 113l12 -21z" />
    <glyph glyph-name="Omacron" unicode="&#x14c;" horiz-adv-x="800" 
d="M731 323q0 -151 -95.5 -242t-235.5 -91q-141 0 -236 91t-95 242q0 152 95 244t236 92q140 0 235.5 -92t95.5 -244zM695 323q0 138 -85.5 222.5t-209.5 84.5q-125 0 -210 -84t-85 -223q0 -138 85 -221t210 -83t210 83t85 221zM500 799v-19h-202v19h202z" />
    <glyph glyph-name="omacron" unicode="&#x14d;" horiz-adv-x="616" 
d="M564 250q0 -117 -72.5 -188.5t-183.5 -71.5t-183.5 71.5t-72.5 188.5t72.5 189t183.5 72t183.5 -72t72.5 -189zM308 484q-94 0 -157.5 -64.5t-63.5 -169.5t63 -169t158 -64t158 64t63 169t-63.5 169.5t-157.5 64.5zM409 664v-19h-202v19h202z" />
    <glyph glyph-name="Ohungarumlaut" unicode="&#x150;" horiz-adv-x="800" 
d="M731 323q0 -151 -95.5 -242t-235.5 -91q-141 0 -236 91t-95 242q0 152 95 244t236 92q140 0 235.5 -92t95.5 -244zM695 323q0 138 -85.5 222.5t-209.5 84.5q-125 0 -210 -84t-85 -223q0 -138 85 -221t210 -83t210 83t85 221zM393 855l-47 -113l-26 2l51 118zM530 855
l-48 -113l-26 2l52 118z" />
    <glyph glyph-name="ohungarumlaut" unicode="&#x151;" horiz-adv-x="616" 
d="M564 250q0 -117 -72.5 -188.5t-183.5 -71.5t-183.5 71.5t-72.5 188.5t72.5 189t183.5 72t183.5 -72t72.5 -189zM308 484q-94 0 -157.5 -64.5t-63.5 -169.5t63 -169t158 -64t158 64t63 169t-63.5 169.5t-157.5 64.5zM302 720l-47 -113l-26 2l51 118zM439 720l-48 -113
l-26 2l52 118z" />
    <glyph glyph-name="OE" unicode="&#x152;" horiz-adv-x="1055" 
d="M1010 28v-28h-432v34q-69 -44 -157 -44q-161 0 -256.5 89t-95.5 244t92.5 245.5t248.5 90.5q103 0 168 -34v25h397v-28h-361v-263h299v-27h-299v-304h396zM423 19q87 0 155 50v529q-69 33 -162 33q-145 0 -228 -82.5t-83 -225.5q0 -142 87 -223t231 -81z" />
    <glyph glyph-name="oe" unicode="&#x153;" horiz-adv-x="1016" 
d="M948 76l9 -23q-7 -7 -21.5 -17.5t-65.5 -28t-110 -17.5q-80 0 -144 42t-88 118q-23 -75 -81.5 -117.5t-140.5 -42.5q-109 0 -181.5 71.5t-72.5 188.5t72.5 189t181.5 72q86 0 145.5 -47t80.5 -129q26 80 84.5 128t133.5 48q88 0 148.5 -54t60.5 -157l-5 -50h-405v-10
l1 -6v-9q0 -96 64 -152.5t152 -56.5q53 0 98.5 15t64.5 30zM306 484q-94 0 -156.5 -64.5t-62.5 -169.5t62.5 -169t156.5 -64q90 0 148.5 60t62.5 162v3v8q0 106 -59 170t-152 64zM750 486q-79 0 -135.5 -61.5t-64.5 -155.5q273 0 378 1q1 12 1 33q0 90 -51.5 136.5
t-127.5 46.5z" />
    <glyph glyph-name="Racute" unicode="&#x154;" horiz-adv-x="646" 
d="M132 0v650q61 9 154 9q115 0 176.5 -55.5t61.5 -145.5q0 -130 -151 -184l242 -274h-45l-230 264q-74 -20 -175 -20v-244h-33zM286 630q-65 0 -121 -6v-354q6 -3 32.5 -0.5t62.5 4.5t76.5 15t74 31t56 53.5t22.5 81.5q0 78 -53 126.5t-150 48.5zM360 875l20 -16l-122 -157
l-15 13z" />
    <glyph glyph-name="racute" unicode="&#x155;" horiz-adv-x="399" 
d="M373 500v-30q-26 7 -54 7q-30 0 -55.5 -15.5t-42.5 -37.5t-31.5 -57t-22.5 -62.5t-18 -66.5v-238h-34v500h30v-217q10 37 18.5 64t24 60t33 54t43.5 35.5t57 14.5q15 0 28 -2.5t19 -5.5zM274 740l20 -16l-122 -157l-15 13z" />
    <glyph glyph-name="Rcommaaccent" unicode="&#x156;" horiz-adv-x="646" 
d="M132 0v650q61 9 154 9q115 0 176.5 -55.5t61.5 -145.5q0 -130 -151 -184l242 -274h-45l-230 264q-74 -20 -175 -20v-244h-33zM286 630q-65 0 -121 -6v-354q6 -3 32.5 -0.5t62.5 4.5t76.5 15t74 31t56 53.5t22.5 81.5q0 78 -53 126.5t-150 48.5zM312 -45l23 -2
q0 -45 -20 -99.5t-47 -87.5l-19 5q26 36 44.5 87.5t18.5 96.5z" />
    <glyph glyph-name="rcommaaccent" unicode="&#x157;" horiz-adv-x="399" 
d="M373 500v-30q-26 7 -54 7q-30 0 -55.5 -15.5t-42.5 -37.5t-31.5 -57t-22.5 -62.5t-18 -66.5v-238h-34v500h30v-217q10 37 18.5 64t24 60t33 54t43.5 35.5t57 14.5q15 0 28 -2.5t19 -5.5zM122 -45l23 -2q0 -45 -20 -99.5t-47 -87.5l-19 5q26 36 44.5 87.5t18.5 96.5z" />
    <glyph glyph-name="Rcaron" unicode="&#x158;" horiz-adv-x="646" 
d="M132 0v650q61 9 154 9q115 0 176.5 -55.5t61.5 -145.5q0 -130 -151 -184l242 -274h-45l-230 264q-74 -20 -175 -20v-244h-33zM286 630q-65 0 -121 -6v-354q6 -3 32.5 -0.5t62.5 4.5t76.5 15t74 31t56 53.5t22.5 81.5q0 78 -53 126.5t-150 48.5zM292 722l-152 122l13 21
l139 -113l141 113l12 -21z" />
    <glyph glyph-name="rcaron" unicode="&#x159;" horiz-adv-x="399" 
d="M373 500v-30q-26 7 -54 7q-30 0 -55.5 -15.5t-42.5 -37.5t-31.5 -57t-22.5 -62.5t-18 -66.5v-238h-34v500h30v-217q10 37 18.5 64t24 60t33 54t43.5 35.5t57 14.5q15 0 28 -2.5t19 -5.5zM206 587l-152 122l13 21l139 -113l141 113l12 -21z" />
    <glyph glyph-name="Sacute" unicode="&#x15a;" horiz-adv-x="612" 
d="M497 641v-129h-26v107q-58 14 -122 14q-109 0 -164 -38.5t-55 -104.5q0 -42 30.5 -72t76.5 -46t100 -33.5t100 -34.5t76.5 -49t30.5 -77q0 -80 -63 -134t-180 -54q-70 0 -128 17t-81 34l-24 17l13 27q9 -7 26 -18t74.5 -29.5t120.5 -18.5q98 0 152.5 45t54.5 111
q0 46 -42.5 76.5t-103.5 48.5t-122 37.5t-103.5 57t-42.5 93.5q0 77 65 124t190 47q38 0 74.5 -4.5t54.5 -8.5zM393 875l20 -16l-122 -157l-15 13z" />
    <glyph glyph-name="sacute" unicode="&#x15b;" horiz-adv-x="478" 
d="M38 48l11 23q9 -6 25.5 -15.5t69 -25.5t107.5 -16q77 0 116 37.5t39 81.5q0 37 -35 61.5t-85.5 38t-100.5 28t-85 42t-35 69.5q0 63 56 101t146 38q34 0 69.5 -5t53.5 -10l19 -5v-26q-72 21 -141 21q-76 0 -122.5 -30.5t-46.5 -80.5q0 -35 35 -58.5t85 -36.5t100 -27.5
t85 -43.5t35 -73q0 -55 -47 -100.5t-140 -45.5q-64 0 -117.5 14.5t-74.5 29.5zM318 740l20 -16l-122 -157l-15 13z" />
    <glyph glyph-name="Scedilla" unicode="&#x15e;" horiz-adv-x="612" 
d="M497 641v-129h-26v107q-58 14 -122 14q-109 0 -164 -38.5t-55 -104.5q0 -42 30.5 -72t76.5 -46t100 -33.5t100 -34.5t76.5 -49t30.5 -77q0 -80 -63 -134t-180 -54h-5q-8 -19 -8 -30q0 -15 19.5 -26t43 -17t43 -23t19.5 -44q0 -44 -34 -72.5t-90 -28.5q-34 0 -62 15
t-39 30l-11 15l14 12q4 -6 11 -15t31.5 -23.5t51.5 -14.5q47 0 75 24.5t28 60.5q0 22 -19 37t-42.5 20.5t-42.5 17.5t-19 30q0 16 10 33q-62 3 -114 20t-73 32l-20 15l13 27q9 -7 26 -18t74.5 -29.5t120.5 -18.5q98 0 152.5 45t54.5 111q0 46 -42.5 76.5t-103.5 48.5
t-122 37.5t-103.5 57t-42.5 93.5q0 77 65 124t190 47q38 0 74.5 -4.5t54.5 -8.5z" />
    <glyph glyph-name="scedilla" unicode="&#x15f;" horiz-adv-x="478" 
d="M38 48l11 23q9 -6 25.5 -15.5t69 -25.5t107.5 -16q77 0 116 37.5t39 81.5q0 37 -35 61.5t-85.5 38t-100.5 28t-85 42t-35 69.5q0 63 56 101t146 38q34 0 69.5 -5t53.5 -10l19 -5v-26q-72 21 -141 21q-76 0 -122.5 -30.5t-46.5 -80.5q0 -35 35 -58.5t85 -36.5t100 -27.5
t85 -43.5t35 -73q0 -55 -47 -100.5t-140 -45.5q-3 0 -9 0.5t-9 0.5q-9 -16 -9 -31t19.5 -26t43 -17t43 -23t19.5 -44q0 -44 -34 -72.5t-90 -28.5q-34 0 -62 15t-39 30l-11 15l14 12q4 -6 11 -15t31.5 -23.5t51.5 -14.5q47 0 75 24.5t28 60.5q0 22 -19 37t-42.5 20.5
t-42.5 17.5t-19 30q0 16 10 34q-52 4 -95.5 18t-60.5 26z" />
    <glyph glyph-name="Scaron" unicode="&#x160;" horiz-adv-x="612" 
d="M497 641v-129h-26v107q-58 14 -122 14q-109 0 -164 -38.5t-55 -104.5q0 -42 30.5 -72t76.5 -46t100 -33.5t100 -34.5t76.5 -49t30.5 -77q0 -80 -63 -134t-180 -54q-70 0 -128 17t-81 34l-24 17l13 27q9 -7 26 -18t74.5 -29.5t120.5 -18.5q98 0 152.5 45t54.5 111
q0 46 -42.5 76.5t-103.5 48.5t-122 37.5t-103.5 57t-42.5 93.5q0 77 65 124t190 47q38 0 74.5 -4.5t54.5 -8.5zM325 722l-152 122l13 21l139 -113l141 113l12 -21z" />
    <glyph glyph-name="scaron" unicode="&#x161;" horiz-adv-x="478" 
d="M38 48l11 23q9 -6 25.5 -15.5t69 -25.5t107.5 -16q77 0 116 37.5t39 81.5q0 37 -35 61.5t-85.5 38t-100.5 28t-85 42t-35 69.5q0 63 56 101t146 38q34 0 69.5 -5t53.5 -10l19 -5v-26q-72 21 -141 21q-76 0 -122.5 -30.5t-46.5 -80.5q0 -35 35 -58.5t85 -36.5t100 -27.5
t85 -43.5t35 -73q0 -55 -47 -100.5t-140 -45.5q-64 0 -117.5 14.5t-74.5 29.5zM249 587l-152 122l13 21l139 -113l141 113l12 -21z" />
    <glyph glyph-name="Tcommaaccent" unicode="&#x162;" horiz-adv-x="534" 
d="M525 650v-27h-241v-623h-35v623h-241v27h517zM256 -45l23 -2q0 -45 -20 -99.5t-47 -87.5l-19 5q26 36 44.5 87.5t18.5 96.5z" />
    <glyph glyph-name="tcommaaccent" unicode="&#x163;" horiz-adv-x="442" 
d="M400 500v-27h-230v-334q0 -119 86 -119q35 0 71 12.5t55 25.5l18 13v-25q-7 -6 -19.5 -15.5t-53 -25t-81.5 -15.5q-53 0 -81.5 37.5t-28.5 110.5v335h-69v27h69v149l34 12v-161h230zM196 -45l23 -2q0 -45 -20 -99.5t-47 -87.5l-19 5q26 36 44.5 87.5t18.5 96.5z" />
    <glyph glyph-name="Tcaron" unicode="&#x164;" horiz-adv-x="534" 
d="M525 650v-27h-241v-623h-35v623h-241v27h517zM265 722l-152 122l13 21l139 -113l141 113l12 -21z" />
    <glyph glyph-name="tcaron" unicode="&#x165;" horiz-adv-x="443" 
d="M400 500v-27h-230v-334q0 -119 86 -119q35 0 71 12.5t55 25.5l18 13v-25q-7 -6 -19.5 -15.5t-53 -25t-81.5 -15.5q-53 0 -81.5 37.5t-28.5 110.5v335h-69v27h69v149l34 12v-161h230zM429 733l-103 -165l-21 10l101 165z" />
    <glyph glyph-name="Umacron" unicode="&#x16a;" horiz-adv-x="764" 
d="M596 230v420h35v-650h-35v198q-6 -14 -15 -30.5t-35 -51t-56 -60t-78.5 -46t-101.5 -20.5q-92 0 -139 55.5t-47 146.5v458h35v-445q0 -81 42.5 -131.5t122.5 -50.5q51 0 98 21.5t77.5 52t53 60.5t33.5 51zM469 799v-19h-202v19h202z" />
    <glyph glyph-name="umacron" unicode="&#x16b;" horiz-adv-x="626" 
d="M512 500v-500h-34v137q-11 -18 -24.5 -35.5t-42 -46.5t-67.5 -47t-81 -18q-157 0 -157 179v331h34v-330q0 -151 134 -151q33 0 66 15t54.5 33t42.5 43t28 36t13 22v332h34zM408 664v-19h-202v19h202z" />
    <glyph glyph-name="Uring" unicode="&#x16e;" horiz-adv-x="764" 
d="M596 230v420h35v-650h-35v198q-6 -14 -15 -30.5t-35 -51t-56 -60t-78.5 -46t-101.5 -20.5q-92 0 -139 55.5t-47 146.5v458h35v-445q0 -81 42.5 -131.5t122.5 -50.5q51 0 98 21.5t77.5 52t53 60.5t33.5 51zM463 819q0 -42 -27 -68.5t-67 -26.5q-41 0 -68 26.5t-27 68.5
q0 41 27.5 68t67.5 27t67 -27t27 -68zM445 819q0 35 -22 56.5t-54 21.5q-33 0 -55.5 -21.5t-22.5 -56.5t22.5 -56.5t55.5 -21.5q32 0 54 21.5t22 56.5z" />
    <glyph glyph-name="uring" unicode="&#x16f;" horiz-adv-x="626" 
d="M512 500v-500h-34v137q-11 -18 -24.5 -35.5t-42 -46.5t-67.5 -47t-81 -18q-157 0 -157 179v331h34v-330q0 -151 134 -151q33 0 66 15t54.5 33t42.5 43t28 36t13 22v332h34zM401 684q0 -42 -27 -68.5t-67 -26.5q-41 0 -68 26.5t-27 68.5q0 41 27.5 68t67.5 27t67 -27
t27 -68zM383 684q0 35 -22 56.5t-54 21.5q-33 0 -55.5 -21.5t-22.5 -56.5t22.5 -56.5t55.5 -21.5q32 0 54 21.5t22 56.5z" />
    <glyph glyph-name="Uhungarumlaut" unicode="&#x170;" horiz-adv-x="764" 
d="M596 230v420h35v-650h-35v198q-6 -14 -15 -30.5t-35 -51t-56 -60t-78.5 -46t-101.5 -20.5q-92 0 -139 55.5t-47 146.5v458h35v-445q0 -81 42.5 -131.5t122.5 -50.5q51 0 98 21.5t77.5 52t53 60.5t33.5 51zM362 855l-47 -113l-26 2l51 118zM499 855l-48 -113l-26 2l52 118
z" />
    <glyph glyph-name="uhungarumlaut" unicode="&#x171;" horiz-adv-x="626" 
d="M512 500v-500h-34v137q-11 -18 -24.5 -35.5t-42 -46.5t-67.5 -47t-81 -18q-157 0 -157 179v331h34v-330q0 -151 134 -151q33 0 66 15t54.5 33t42.5 43t28 36t13 22v332h34zM301 720l-47 -113l-26 2l51 118zM438 720l-48 -113l-26 2l52 118z" />
    <glyph glyph-name="Uogonek" unicode="&#x172;" horiz-adv-x="764" 
d="M596 230v420h35v-650h-5q-5 -2 -12.5 -6.5t-26.5 -19t-34 -30t-27 -40t-12 -48.5q0 -88 156 -88v-19q-182 0 -182 107q0 48 34.5 85t74.5 59h-1v198q-6 -14 -15 -30.5t-35 -51t-56 -60t-78.5 -46t-101.5 -20.5q-92 0 -139 55.5t-47 146.5v458h35v-445q0 -81 42.5 -131.5
t122.5 -50.5q51 0 98 21.5t77.5 52t53 60.5t33.5 51z" />
    <glyph glyph-name="uogonek" unicode="&#x173;" horiz-adv-x="626" 
d="M512 500v-500h-4q-5 -2 -12.5 -6.5t-26.5 -19t-34 -30t-27 -40t-12 -48.5q0 -88 156 -88v-19q-182 0 -182 107q0 48 34.5 85t74.5 59h-1v137q-11 -18 -24.5 -35.5t-42 -46.5t-67.5 -47t-81 -18q-157 0 -157 179v331h34v-330q0 -151 134 -151q33 0 66 15t54.5 33t42.5 43
t28 36t13 22v332h34z" />
    <glyph glyph-name="Ydieresis" unicode="&#x178;" horiz-adv-x="640" 
d="M61 650l274 -465l247 465h36l-349 -650h-36l84 159l-292 491h36zM444 778q0 -11 -7.5 -18.5t-17.5 -7.5q-11 0 -18.5 7.5t-7.5 18.5t7.5 19t18.5 8q10 0 17.5 -8t7.5 -19zM287 778q0 -11 -7 -18.5t-19 -7.5q-10 0 -17.5 7.5t-7.5 18.5t7.5 19t17.5 8q12 0 19 -7.5
t7 -19.5z" />
    <glyph glyph-name="Zacute" unicode="&#x179;" horiz-adv-x="616" 
d="M568 650v-19l-471 -604h471v-27h-521v19l472 604h-472v27h521zM402 875l20 -16l-122 -157l-15 13z" />
    <glyph glyph-name="zacute" unicode="&#x17a;" horiz-adv-x="496" 
d="M435 500v-18l-340 -458q18 2 24 2h325v-26h-393v19l341 460q-174 -6 -314 -6v27h357zM336 740l20 -16l-122 -157l-15 13z" />
    <glyph glyph-name="Zdotaccent" unicode="&#x17b;" horiz-adv-x="616" 
d="M568 650v-19l-471 -604h471v-27h-521v19l472 604h-472v27h521zM359 778q0 -11 -7 -18.5t-19 -7.5q-11 0 -18 7.5t-7 18.5t7 19t18 8q12 0 19 -7.5t7 -19.5z" />
    <glyph glyph-name="zdotaccent" unicode="&#x17c;" horiz-adv-x="496" 
d="M435 500v-18l-340 -458q18 2 24 2h325v-26h-393v19l341 460q-174 -6 -314 -6v27h357zM293 643q0 -11 -7 -18.5t-19 -7.5q-11 0 -18 7.5t-7 18.5t7 19t18 8q12 0 19 -7.5t7 -19.5z" />
    <glyph glyph-name="Zcaron" unicode="&#x17d;" horiz-adv-x="616" 
d="M568 650v-19l-471 -604h471v-27h-521v19l472 604h-472v27h521zM334 722l-152 122l13 21l139 -113l141 113l12 -21z" />
    <glyph glyph-name="zcaron" unicode="&#x17e;" horiz-adv-x="496" 
d="M435 500v-18l-340 -458q18 2 24 2h325v-26h-393v19l341 460q-174 -6 -314 -6v27h357zM268 587l-152 122l13 21l139 -113l141 113l12 -21z" />
    <glyph glyph-name="longs" unicode="&#x17f;" horiz-adv-x="244" 
d="M139 617v-617h-34v617h34zM363 733v-27q-46 18 -112 18q-59 0 -85.5 -26.5t-26.5 -80.5h-34q0 72 33 106t104 34q31 0 61.5 -6t44.5 -12z" />
    <glyph glyph-name="florin" unicode="&#x192;" horiz-adv-x="424" 
d="M388 414v-27h-204v-387q0 -63 -17.5 -113.5t-45.5 -80.5t-57.5 -46t-59.5 -20l-5 30q57 8 104 66.5t47 163.5v387h-69v27h69v166q0 101 33 140.5t105 39.5q29 0 59 -7t45 -13l16 -7v-28q-56 25 -113 25q-59 0 -85 -31t-26 -119v-166h204z" />
    <glyph glyph-name="dotlessj" unicode="&#x237;" horiz-adv-x="280" 
d="M132 0v500h34v-500q0 -63 -17.5 -113.5t-45 -80.5t-57 -46t-59.5 -20l-6 30q57 8 104 66.5t47 163.5z" />
    <glyph glyph-name="circumflex" unicode="&#x2c6;" horiz-adv-x="395" 
d="M197 748l152 -121l-12 -21l-140 112l-140 -112l-13 21z" />
    <glyph glyph-name="caron" unicode="&#x2c7;" horiz-adv-x="395" 
d="M196 587l-152 122l13 21l139 -113l141 113l12 -21z" />
    <glyph glyph-name="breve" unicode="&#x2d8;" horiz-adv-x="408" 
d="M204 611q38 0 72.5 17t49.5 34l15 17l14 -20q-2 -3 -6 -8t-18.5 -17.5t-31 -22t-42.5 -17.5t-53 -8t-53 7.5t-43 18t-30 21.5t-19 19l-6 7l14 20q6 -8 16.5 -19t46.5 -30t74 -19z" />
    <glyph glyph-name="dotaccent" unicode="&#x2d9;" horiz-adv-x="410" 
d="M273 643q0 -11 -7 -18.5t-19 -7.5q-11 0 -18 7.5t-7 18.5t7 19t18 8q12 0 19 -7.5t7 -19.5z" />
    <glyph glyph-name="ring" unicode="&#x2da;" horiz-adv-x="495" 
d="M285 684q0 -42 -27 -68.5t-67 -26.5q-41 0 -68 26.5t-27 68.5q0 41 27.5 68t67.5 27t67 -27t27 -68zM267 684q0 35 -22 56.5t-54 21.5q-33 0 -55.5 -21.5t-22.5 -56.5t22.5 -56.5t55.5 -21.5q32 0 54 21.5t22 56.5z" />
    <glyph glyph-name="ogonek" unicode="&#x2db;" horiz-adv-x="275" 
d="M172 10l10 -10q-5 -2 -12.5 -6.5t-26.5 -19t-34 -30t-27 -40t-12 -48.5q0 -88 156 -88v-19q-182 0 -182 107q0 27 13 52.5t32 43t38 31.5t32 21z" />
    <glyph glyph-name="tilde" unicode="&#x2dc;" horiz-adv-x="459" 
d="M393 702l9 -13q-1 -2 -3 -5.5t-9.5 -13t-17 -16.5t-27 -12.5t-37.5 -5.5q-32 0 -72.5 23.5t-71.5 23.5q-32 0 -56.5 -13.5t-32.5 -26.5l-8 -13l-10 15q1 3 3.5 7t12 15.5t20.5 20t30 15.5t41 7q34 0 74.5 -24t69.5 -24t50.5 10t27.5 20z" />
    <glyph glyph-name="hungarumlaut" unicode="&#x2dd;" horiz-adv-x="419" 
d="M175 720l-47 -113l-26 2l51 118zM312 720l-48 -113l-26 2l52 118z" />
    <glyph glyph-name="uni0400" unicode="&#x400;" horiz-adv-x="609" 
d="M564 28v-28h-432v650h397v-28h-361v-263h299v-27h-299v-304h396zM217 874l20 16l117 -160l-15 -13z" />
    <glyph glyph-name="afii10023" unicode="&#x401;" horiz-adv-x="609" 
d="M564 28v-28h-432v650h397v-28h-361v-263h299v-27h-299v-304h396zM407 793q0 -11 -7.5 -18.5t-17.5 -7.5q-11 0 -18.5 7.5t-7.5 18.5t7.5 19t18.5 8q10 0 17.5 -8t7.5 -19zM250 793q0 -11 -7 -18.5t-19 -7.5q-10 0 -17.5 7.5t-7.5 18.5t7.5 19t17.5 8q12 0 19 -7.5
t7 -19.5z" />
    <glyph glyph-name="afii10051" unicode="&#x402;" horiz-adv-x="808" 
d="M525 650v-27h-241v-340q7 9 22 23.5t44 36.5t71.5 37t87.5 15q101 0 143.5 -40.5t42.5 -125.5v-141q0 -135 -56 -209t-127 -84l-5 30q58 9 103.5 72.5t48.5 177.5v146q0 75 -37 109.5t-124 34.5q-51 0 -102.5 -25t-73.5 -44.5t-38 -37.5v-258h-35v623h-241v27h517z" />
    <glyph glyph-name="afii10052" unicode="&#x403;" horiz-adv-x="479" 
d="M473 622h-305v-622h-36v650h341v-28zM337 875l20 -16l-122 -157l-15 13z" />
    <glyph glyph-name="afii10053" unicode="&#x404;" horiz-adv-x="701" 
d="M541 337v-27h-438q3 -137 85 -214.5t214 -77.5q43 0 85 9t71 22t52 26.5t34 22.5l12 9l10 -21q-4 -4 -12 -10.5t-34 -23t-55 -29t-74.5 -23t-92.5 -10.5q-146 0 -237.5 88.5t-91.5 240.5t98 246t244 94q57 0 106 -7t69 -14l21 -7v-28q-68 28 -190 28q-131 0 -219 -81
t-95 -213h438z" />
    <glyph glyph-name="afii10054" unicode="&#x405;" horiz-adv-x="612" 
d="M497 641v-129h-26v107q-58 14 -122 14q-109 0 -164 -38.5t-55 -104.5q0 -42 30.5 -72t76.5 -46t100 -33.5t100 -34.5t76.5 -49t30.5 -77q0 -80 -63 -134t-180 -54q-70 0 -128 17t-81 34l-24 17l13 27q9 -7 26 -18t74.5 -29.5t120.5 -18.5q98 0 152.5 45t54.5 111
q0 46 -42.5 76.5t-103.5 48.5t-122 37.5t-103.5 57t-42.5 93.5q0 77 65 124t190 47q38 0 74.5 -4.5t54.5 -8.5z" />
    <glyph glyph-name="afii10055" unicode="&#x406;" horiz-adv-x="301" 
d="M168 650v-650h-36v650h36z" />
    <glyph glyph-name="afii10056" unicode="&#x407;" horiz-adv-x="301" 
d="M168 650v-650h-36v650h36zM256 778q0 -11 -7.5 -18.5t-17.5 -7.5q-11 0 -18.5 7.5t-7.5 18.5t7.5 19t18.5 8q10 0 17.5 -8t7.5 -19zM99 778q0 -11 -7 -18.5t-19 -7.5q-10 0 -17.5 7.5t-7.5 18.5t7.5 19t17.5 8q12 0 19 -7.5t7 -19.5z" />
    <glyph glyph-name="afii10057" unicode="&#x408;" horiz-adv-x="320" 
d="M187 650v-562q0 -135 -56.5 -209t-127.5 -84l-5 30q60 9 106.5 76t46.5 187v562h36z" />
    <glyph glyph-name="afii10058" unicode="&#x409;" horiz-adv-x="1063" 
d="M227 650h361v-326q92 61 200 61q100 0 167.5 -44t67.5 -129q0 -98 -64 -160t-190 -62q-217 0 -217 219v413h-296q-16 -285 -61.5 -436.5t-141.5 -195.5l-10 32q87 46 128 193t56 435zM778 359q-45 0 -92 -13.5t-67 -23.5t-31 -18v-95q2 -191 183 -191q108 0 163 53.5
t55 138.5q0 74 -60.5 111.5t-150.5 37.5z" />
    <glyph glyph-name="afii10059" unicode="&#x40a;" horiz-adv-x="1119" 
d="M639 650v-326q91 61 201 61q64 0 115 -17.5t85 -57.5t34 -98q0 -98 -63.5 -160t-189.5 -62q-217 0 -217 219v88h-436v-297h-36v650h36v-326h436v326h35zM830 359q-46 0 -93 -13.5t-67 -23.5t-31 -18v-91q0 -195 183 -195q109 0 163.5 53.5t54.5 138.5q0 74 -60 111.5
t-150 37.5z" />
    <glyph glyph-name="afii10060" unicode="&#x40b;" horiz-adv-x="808" 
d="M525 650v-27h-241v-340q7 9 22 23.5t44 36.5t71.5 37t87.5 15q101 0 143.5 -40.5t42.5 -125.5v-229h-36v221q0 75 -37 109.5t-124 34.5q-51 0 -102.5 -25t-73.5 -44.5t-38 -37.5v-258h-35v623h-241v27h517z" />
    <glyph glyph-name="afii10061" unicode="&#x40c;" horiz-adv-x="680" 
d="M132 0v650h36v-399l117 99l298 300h41l-314 -314l339 -336h-41l-321 315l-119 -100v-215h-36zM405 890l20 -16l-122 -157l-15 13z" />
    <glyph glyph-name="uni040D" unicode="&#x40d;" horiz-adv-x="778" 
d="M646 650v-650h-32v590l4 13l-462 -603h-24v650h32v-592l-4 -12l463 604h23zM296 859l20 16l117 -160l-15 -13z" />
    <glyph glyph-name="afii10062" unicode="&#x40e;" horiz-adv-x="640" 
d="M61 650l274 -465l247 465h36l-349 -650h-36l84 159l-292 491h36zM340 746q38 0 72.5 17t49.5 34l15 17l14 -20q-2 -3 -6 -8t-18.5 -17.5t-31 -22t-42.5 -17.5t-53 -8q-44 0 -81.5 18.5t-53.5 36.5l-16 18l14 20q6 -8 16.5 -19t46.5 -30t74 -19z" />
    <glyph glyph-name="afii10145" unicode="&#x40f;" horiz-adv-x="753" 
d="M168 650v-622h417v622h35v-650h-228v-219h-31v219h-229v650h36z" />
    <glyph glyph-name="afii10017" unicode="&#x410;" horiz-adv-x="664" 
d="M311 650l1 -1v1h41l280 -650h-36l-84 191h-365l-81 -191h-36zM503 215q-25 60 -65.5 155.5t-71.5 169t-35 83.5l-172 -408h344z" />
    <glyph glyph-name="afii10018" unicode="&#x411;" horiz-adv-x="654" 
d="M504 650v-28h-336v-226q42 9 133 9q128 0 206 -48t78 -146q0 -96 -68.5 -158.5t-203.5 -62.5q-43 0 -88.5 2.5t-68.5 5.5l-24 2v650h372zM301 381q-73 0 -133 -10v-347q91 -8 145 -8q117 0 177.5 53.5t60.5 139.5q0 87 -69.5 129.5t-180.5 42.5z" />
    <glyph glyph-name="afii10019" unicode="&#x412;" horiz-adv-x="641" 
d="M132 0v650q93 9 186 9q101 0 150.5 -43t49.5 -110q0 -102 -85 -174q139 -38 139 -149q0 -90 -66.5 -141.5t-189.5 -51.5q-41 0 -87 2.5t-71 5.5zM303 324q-61 0 -139 -6v-294q82 -7 151 -7q107 0 165 43t58 123q0 71 -64.5 106t-170.5 35zM303 347q55 0 104 -9
q81 70 81 164q0 58 -43 94.5t-127 36.5q-86 0 -154 -8v-284q66 6 139 6z" />
    <glyph glyph-name="afii10020" unicode="&#x413;" horiz-adv-x="479" 
d="M473 622h-305v-622h-36v650h341v-28z" />
    <glyph glyph-name="afii10021" unicode="&#x414;" horiz-adv-x="730" 
d="M212 650h377v-622h90v-247h-30v219h-564v-203h-30v231h65q43 83 60 207t32 415zM554 622h-311q-13 -261 -31.5 -385.5t-59.5 -208.5h402v594z" />
    <glyph glyph-name="afii10022" unicode="&#x415;" horiz-adv-x="609" 
d="M564 28v-28h-432v650h397v-28h-361v-263h299v-27h-299v-304h396z" />
    <glyph glyph-name="afii10024" unicode="&#x416;" horiz-adv-x="995" 
d="M460 430v220h33v-377l105 90l289 287h41l-302 -297l337 -353h-41l-318 333l-111 -92v-241h-33v399l-104 -84l-284 -315h-40l297 327l-285 323h40l267 -304z" />
    <glyph glyph-name="afii10025" unicode="&#x417;" horiz-adv-x="579" 
d="M88 614l-1 26q73 19 166 19q106 0 162.5 -42.5t56.5 -113.5q0 -59 -38.5 -100t-85.5 -65q75 -8 119 -49t44 -107q0 -84 -70.5 -138t-183.5 -54q-141 0 -222 81l12 22q3 -3 9 -8t26 -18.5t42.5 -23.5t57.5 -18t72 -8q101 0 160.5 47t59.5 118q0 63 -46 100t-117 37
l-114 -2v25q55 2 117 2q5 2 13.5 6t29.5 18t37 30t29.5 43t13.5 56q0 61 -48.5 98t-142.5 37q-37 0 -76.5 -4.5t-60.5 -9.5z" />
    <glyph glyph-name="afii10026" unicode="&#x418;" horiz-adv-x="778" 
d="M646 650v-650h-32v590l4 13l-462 -603h-24v650h32v-592l-4 -12l463 604h23z" />
    <glyph glyph-name="afii10027" unicode="&#x419;" horiz-adv-x="778" 
d="M646 650v-650h-32v590l4 13l-462 -603h-24v650h32v-592l-4 -12l463 604h23zM387 746q38 0 72.5 17t49.5 34l15 17l14 -20q-2 -3 -6 -8t-18.5 -17.5t-31 -22t-42.5 -17.5t-53 -8q-44 0 -81.5 18.5t-53.5 36.5l-16 18l14 20q6 -8 16.5 -19t46.5 -30t74 -19z" />
    <glyph glyph-name="afii10028" unicode="&#x41a;" horiz-adv-x="680" 
d="M132 0v650h36v-399l117 99l298 300h41l-314 -314l339 -336h-41l-321 315l-119 -100v-215h-36z" />
    <glyph glyph-name="afii10029" unicode="&#x41b;" horiz-adv-x="721" 
d="M227 650h361v-650h-36v622h-296q-16 -285 -61.5 -436.5t-141.5 -195.5l-10 32q87 46 128 193t56 435z" />
    <glyph glyph-name="afii10030" unicode="&#x41c;" horiz-adv-x="905" 
d="M747 650l103 -650h-34l-94 599l-254 -599h-31l-255 599l-93 -599h-34l105 650h34l258 -613l260 613h35z" />
    <glyph glyph-name="afii10031" unicode="&#x41d;" horiz-adv-x="772" 
d="M639 650v-650h-35v297h-436v-297h-36v650h36v-326h436v326h35z" />
    <glyph glyph-name="afii10032" unicode="&#x41e;" horiz-adv-x="800" 
d="M731 323q0 -151 -95.5 -242t-235.5 -91q-141 0 -236 91t-95 242q0 152 95 244t236 92q140 0 235.5 -92t95.5 -244zM695 323q0 138 -85.5 222.5t-209.5 84.5q-125 0 -210 -84t-85 -223q0 -138 85 -221t210 -83t210 83t85 221z" />
    <glyph glyph-name="afii10033" unicode="&#x41f;" horiz-adv-x="753" 
d="M620 650v-650h-35v622h-417v-622h-36v650h488z" />
    <glyph glyph-name="afii10034" unicode="&#x420;" horiz-adv-x="584" 
d="M132 0v650q76 9 151 9q110 0 175.5 -56t65.5 -143q0 -53 -19.5 -93.5t-49 -63.5t-69.5 -37.5t-74.5 -19t-70.5 -4.5q-37 0 -76 7v-249h-33zM282 631q-27 0 -117 -6v-351q23 -5 67 -5q34 0 65 4t67.5 16.5t63 32.5t44 55.5t17.5 82.5q0 74 -56 122.5t-151 48.5z" />
    <glyph glyph-name="afii10035" unicode="&#x421;" horiz-adv-x="699" 
d="M606 631v-171h-27v149q-65 21 -164 21q-133 0 -221 -85.5t-88 -225.5q0 -139 82.5 -219t213.5 -80q43 0 84.5 11.5t70.5 27.5t52 32t34 27l11 12l12 -20q-4 -5 -11.5 -13t-33.5 -28.5t-55 -36.5t-74.5 -29t-93.5 -13q-146 0 -237.5 88.5t-91.5 240.5t98 246t244 94
q59 0 108 -7t68 -14z" />
    <glyph glyph-name="afii10036" unicode="&#x422;" horiz-adv-x="534" 
d="M525 650v-27h-241v-623h-35v623h-241v27h517z" />
    <glyph glyph-name="afii10037" unicode="&#x423;" horiz-adv-x="640" 
d="M61 650l274 -465l247 465h36l-349 -650h-36l84 159l-292 491h36z" />
    <glyph glyph-name="afii10038" unicode="&#x424;" horiz-adv-x="855" 
d="M443 710v-85q159 -1 251 -77.5t92 -223.5q0 -149 -92 -227t-251 -79v-83h-32v83q-159 1 -250.5 77.5t-91.5 224.5t91.5 225.5t250.5 79.5v85h32zM752 324q0 137 -82 205.5t-227 69.5v-555q145 1 227 72t82 208zM102 320q0 -137 82 -206t227 -70v555q-145 -2 -227 -72.5
t-82 -206.5z" />
    <glyph glyph-name="afii10039" unicode="&#x425;" horiz-adv-x="669" 
d="M32 0l282 326v1l-274 323h40l254 -301l255 301h40l-274 -323l-1 -1l283 -326h-41l-262 304l-261 -304h-41z" />
    <glyph glyph-name="afii10040" unicode="&#x426;" horiz-adv-x="762" 
d="M168 650v-622h417v622h35v-622h91v-247h-30v219h-549v650h36z" />
    <glyph glyph-name="afii10041" unicode="&#x427;" horiz-adv-x="684" 
d="M551 650v-650h-35v342q-101 -111 -226 -111q-98 0 -141.5 41t-43.5 126v252h36v-244q0 -76 37 -110t124 -34q52 0 104 25.5t74.5 45.5t35.5 35v282h35z" />
    <glyph glyph-name="afii10042" unicode="&#x428;" horiz-adv-x="1038" 
d="M537 650v-622h333v622h35v-650h-773v650h36v-622h333v622h36z" />
    <glyph glyph-name="afii10043" unicode="&#x429;" horiz-adv-x="1047" 
d="M905 650v-622h91v-247h-30v219h-834v650h36v-622h333v622h36v-622h333v622h35z" />
    <glyph glyph-name="afii10044" unicode="&#x42a;" horiz-adv-x="716" 
d="M508 650v-19q-9 -5 -24 -14.5t-56 -40t-76 -63.5t-73.5 -83.5t-58.5 -100.5q86 56 192 56q100 0 167.5 -43.5t67.5 -129.5q0 -98 -63.5 -160t-189.5 -62q-119 0 -175.5 60.5t-56.5 158.5q0 59 24.5 119t57.5 104t78.5 87t76 65.5t60.5 42.5q-60 -4 -104 -4h-354v27h507z
M402 359q-101 0 -191 -56q-14 -45 -14 -90q0 -87 49.5 -141t148.5 -54q108 0 163 53.5t55 138.5q0 74 -60.5 111.5t-150.5 37.5z" />
    <glyph glyph-name="afii10045" unicode="&#x42b;" horiz-adv-x="897" 
d="M132 0v650h36v-254q56 12 133 12q128 0 206 -48.5t78 -147.5q0 -97 -68.5 -159.5t-203.5 -62.5q-43 0 -88.5 2.5t-68.5 5.5zM301 384q-91 0 -133 -14v-346q91 -8 145 -8q117 0 177.5 54.5t60.5 140.5q0 87 -69.5 130t-180.5 43zM765 650v-650h-36v650h36z" />
    <glyph glyph-name="afii10046" unicode="&#x42c;" horiz-adv-x="654" 
d="M132 0v650h36v-254q56 12 133 12q128 0 206 -48.5t78 -147.5q0 -97 -68.5 -159.5t-203.5 -62.5q-43 0 -88.5 2.5t-68.5 5.5zM301 384q-91 0 -133 -14v-346q91 -8 145 -8q117 0 177.5 54.5t60.5 140.5q0 87 -69.5 130t-180.5 43z" />
    <glyph glyph-name="afii10047" unicode="&#x42d;" horiz-adv-x="692" 
d="M67 609v27q114 23 225 23q146 0 238.5 -90t92.5 -242t-99.5 -244.5t-249.5 -92.5q-70 0 -133 21.5t-91 42.5l-28 21l12 24q11 -9 31 -22.5t82.5 -36t124.5 -22.5q131 0 218.5 77.5t94.5 214.5h-438v27h439q-1 137 -84.5 215.5t-215.5 78.5q-46 0 -101 -5.5t-87 -11.5z
" />
    <glyph glyph-name="afii10048" unicode="&#x42e;" horiz-adv-x="1088" 
d="M1020 323q0 -151 -94 -242t-235 -91q-136 0 -230 85.5t-101 229.5h-192v-305h-36v650h36v-317h192q4 148 98.5 237t232.5 89q140 0 234.5 -92t94.5 -244zM983 323q0 139 -83.5 223t-208.5 84t-211.5 -84.5t-86.5 -222.5t86.5 -221t211.5 -83q124 0 208 83t84 221z" />
    <glyph glyph-name="afii10049" unicode="&#x42f;" horiz-adv-x="646" 
d="M511 650v-650h-33v276q-3 -1 -33 -2.5t-79 -3t-89 -1.5h-13l-143 -269h-36l148 273q-67 12 -114 59t-47 120q0 95 68 151t200 56q40 0 83 -2.5t65 -4.5zM282 294q37 0 84.5 2t77.5 3.5t34 2.5v323q-79 7 -140 7q-114 0 -173 -48t-59 -131q0 -73 54.5 -116t121.5 -43z" />
    <glyph glyph-name="afii10065" unicode="&#x430;" 
d="M413 0v107q-7 -13 -18.5 -27.5t-35 -37.5t-59.5 -37.5t-77 -14.5q-76 0 -123.5 40.5t-47.5 106.5q0 76 54.5 120.5t167.5 44.5q61 0 139 -9v54q0 70 -35 104t-117 34q-34 0 -70.5 -5.5t-56.5 -11.5l-20 -5l-3 23q72 25 155 25q99 0 140 -41.5t41 -126.5v-343h-34zM234 14
q109 0 179 116v143q-67 8 -134 8q-99 0 -146.5 -38t-47.5 -103q0 -56 41.5 -91t107.5 -35z" />
    <glyph glyph-name="afii10066" unicode="&#x431;" horiz-adv-x="583" 
d="M317 630q-40 -9 -68 -19.5t-57 -31t-48 -50.5t-33 -76.5t-20 -109.5q8 9 22 19.5t42.5 27.5t72.5 28t94 11q95 0 152 -54t57 -147q0 -100 -68.5 -169t-181.5 -69q-107 0 -168 71.5t-61 188.5q0 111 18.5 188t55.5 121t79 66t103 34q43 9 77.5 22t53.5 24.5t32 22t17 16.5
l4 7l14 -19q-1 -3 -4.5 -7.5t-18 -18t-33.5 -26t-54.5 -26.5t-78.5 -24zM315 404q-48 0 -91 -11t-71 -28t-42 -28t-22 -19q-2 -21 -2 -69q0 -104 51.5 -167.5t144.5 -63.5q97 0 155 60.5t58 148.5q0 82 -49 129.5t-132 47.5z" />
    <glyph glyph-name="afii10067" unicode="&#x432;" horiz-adv-x="558" 
d="M287 -10q-38 0 -81 2.5t-67 5.5l-24 2v500q94 11 161 11q93 0 136.5 -33.5t43.5 -90.5q0 -46 -33 -76.5t-73 -46.5q62 -2 106.5 -36.5t44.5 -83.5q0 -64 -51 -109t-163 -45zM323 250q-106 0 -176 -2v-225q77 -9 138 -9q99 0 140.5 39t41.5 93q0 42 -40.5 73t-103.5 31z
M147 267q99 3 176 3q4 1 11 3.5t24.5 12t30.5 21.5t24 32t11 43q0 47 -36 76t-112 29q-33 0 -129 -9v-211z" />
    <glyph glyph-name="afii10068" unicode="&#x433;" horiz-adv-x="414" 
d="M413 473h-264v-473h-34v500h298v-27z" />
    <glyph glyph-name="afii10069" unicode="&#x434;" horiz-adv-x="635" 
d="M600 27v-228h-29v201h-507v-201h-28v228h64q33 106 46 207.5t17 265.5h350v-473h87zM192 475q-4 -153 -16 -250t-44 -198h349v448h-289z" />
    <glyph glyph-name="afii10070" unicode="&#x435;" 
d="M483 76l9 -23q-7 -7 -21.5 -17.5t-65.5 -28t-110 -17.5q-100 0 -171.5 64.5t-71.5 175.5q0 121 67 201t166 80q88 0 148.5 -54t60.5 -157l-5 -50h-405v-10v-6q1 -6 1 -9q0 -96 64 -152.5t152 -56.5q53 0 98.5 15t64.5 30zM285 486q-79 0 -135.5 -61.5t-64.5 -155.5
q273 0 378 1q1 12 1 33q0 90 -51.5 136.5t-127.5 46.5z" />
    <glyph glyph-name="afii10072" unicode="&#x436;" horiz-adv-x="728" 
d="M348 310v190h33v-281l67 57l224 224h38l-237 -233l237 -267h-38l-220 249l-71 -57v-192h-33v282l-70 -59l-222 -223h-38l235 232l-223 268h39l205 -250z" />
    <glyph glyph-name="afii10073" unicode="&#x437;" horiz-adv-x="483" 
d="M65 463l-3 22q61 26 147 26q91 0 137.5 -31.5t46.5 -86.5q0 -82 -113 -128q61 -1 103.5 -36t42.5 -87q0 -63 -54 -107.5t-151 -44.5q-41 0 -77 6.5t-57.5 15t-38 17.5t-22.5 15l-7 7l8 20q7 -6 20.5 -15.5t63 -25.5t108.5 -16q84 0 128.5 38.5t44.5 89.5q0 47 -39 77.5
t-102 30.5l-100 -1v22q45 2 106 2q4 1 11 4t25 13.5t32 22.5t25 32.5t11 42.5q0 44 -40 71t-119 27q-35 0 -69 -6t-51 -12z" />
    <glyph glyph-name="afii10074" unicode="&#x438;" horiz-adv-x="655" 
d="M518 500h22v-500h-34v451l-368 -451h-23v500h33v-453z" />
    <glyph glyph-name="afii10075" unicode="&#x439;" horiz-adv-x="655" 
d="M518 500h22v-500h-34v451l-368 -451h-23v500h33v-453zM327 611q38 0 72.5 17t49.5 34l15 17l14 -20q-2 -3 -6 -8t-18.5 -17.5t-31 -22t-42.5 -17.5t-53 -8t-53 7.5t-43 18t-30 21.5t-19 19l-6 7l14 20q6 -8 16.5 -19t46.5 -30t74 -19z" />
    <glyph glyph-name="afii10076" unicode="&#x43a;" horiz-adv-x="538" 
d="M123 0v500h34v-250l57 46l243 204h41l-257 -216l272 -284h-42l-254 265l-60 -48v-217h-34z" />
    <glyph glyph-name="afii10077" unicode="&#x43b;" horiz-adv-x="615" 
d="M500 500v-500h-34v473h-239q-3 -86 -13.5 -161.5t-31 -147.5t-58 -118t-88.5 -56l-5 28q45 10 78 56.5t51 118.5t27 147t11 160h302z" />
    <glyph glyph-name="afii10078" unicode="&#x43c;" horiz-adv-x="753" 
d="M605 500l73 -500h-31l-64 456l-192 -456h-25l-1 5l-3 -5l-191 455l-66 -455h-31l76 500h28l199 -469l199 469h29z" />
    <glyph glyph-name="afii10079" unicode="&#x43d;" horiz-adv-x="636" 
d="M115 0v500h34v-219h338v219h34v-500h-34v255h-338v-255h-34z" />
    <glyph glyph-name="afii10080" unicode="&#x43e;" horiz-adv-x="616" 
d="M564 250q0 -117 -72.5 -188.5t-183.5 -71.5t-183.5 71.5t-72.5 188.5t72.5 189t183.5 72t183.5 -72t72.5 -189zM308 484q-94 0 -157.5 -64.5t-63.5 -169.5t63 -169t158 -64t158 64t63 169t-63.5 169.5t-157.5 64.5z" />
    <glyph glyph-name="afii10081" unicode="&#x43f;" horiz-adv-x="627" 
d="M512 500v-500h-34v473h-329v-473h-34v500h397z" />
    <glyph glyph-name="afii10082" unicode="&#x440;" horiz-adv-x="609" 
d="M105 -250v750h34v-95q14 18 34.5 37.5t67 44t93.5 24.5q97 0 160 -68t63 -184q0 -122 -74.5 -195.5t-200.5 -73.5q-83 0 -143 25v-265h-34zM324 483q-35 0 -69.5 -14t-59 -34.5t-37.5 -34t-19 -21.5v-333q64 -31 138 -31q114 0 180 65t66 176q0 105 -56.5 166t-142.5 61z
" />
    <glyph glyph-name="afii10083" unicode="&#x441;" horiz-adv-x="501" 
d="M482 78l11 -20q-3 -3 -8 -7.5t-23 -16t-38.5 -20.5t-55 -16.5t-71.5 -7.5q-103 0 -174 65.5t-71 177.5q0 120 74 199t186 79q31 0 67.5 -5.5t57.5 -10.5l21 -5v-27q-77 21 -143 21q-100 0 -165 -71.5t-65 -177.5q0 -100 64 -159t152 -59q52 0 97.5 15t64.5 30z" />
    <glyph glyph-name="afii10084" unicode="&#x442;" horiz-adv-x="453" 
d="M459 500v-27h-218v-473h-34v473h-215v27h467z" />
    <glyph glyph-name="afii10085" unicode="&#x443;" horiz-adv-x="558" 
d="M488 500h37l-228 -499l-115 -251h-36l116 251l-230 499h39l210 -465z" />
    <glyph glyph-name="afii10086" unicode="&#x444;" horiz-adv-x="788" 
d="M411 750v-276q43 37 109 37q89 0 152.5 -70t63.5 -185q0 -122 -69.5 -194t-188.5 -72q-39 0 -67 5v-245h-33v277q-37 -37 -110 -37q-89 0 -152.5 69.5t-63.5 184.5q0 124 69.5 195.5t188.5 71.5q32 0 68 -6v245h33zM278 15q58 0 100 35v429q-37 7 -68 7q-104 0 -164 -64
t-60 -174q0 -105 56 -169t136 -64zM510 486q-63 0 -99 -36v-429q32 -6 67 -6q104 0 164 64t60 173q0 105 -56.5 169.5t-135.5 64.5z" />
    <glyph glyph-name="afii10087" unicode="&#x445;" horiz-adv-x="532" 
d="M501 500l-214 -247l224 -253h-41q-190 217 -204 235l-204 -235h-40l223 253l-213 247h40q193 -227 194 -230l194 230h41z" />
    <glyph glyph-name="afii10088" unicode="&#x446;" horiz-adv-x="634" 
d="M149 500v-473h329v473h34v-473h87v-234h-30v207h-454v500h34z" />
    <glyph glyph-name="afii10089" unicode="&#x447;" horiz-adv-x="539" 
d="M391 264v236h34v-500h-34v244q-59 -46 -169 -46q-145 0 -145 136v166h35v-165q0 -114 120 -114q47 0 87 10.5t56 21.5z" />
    <glyph glyph-name="afii10090" unicode="&#x448;" horiz-adv-x="871" 
d="M756 500v-500h-641v500h32v-473h271v473h33v-473h272v473h33z" />
    <glyph glyph-name="afii10091" unicode="&#x449;" horiz-adv-x="879" 
d="M844 27v-234h-30v207h-699v500h32v-473h271v473h33v-473h272v473h33v-473h88z" />
    <glyph glyph-name="afii10092" unicode="&#x44a;" 
d="M333 500v-21q-5 -4 -14 -11t-33.5 -30.5t-45.5 -48.5t-44 -62.5t-35 -75.5q9 6 24.5 15t59 22.5t88.5 13.5q78 0 122.5 -34t44.5 -104q0 -74 -58.5 -124t-139.5 -50q-86 0 -137.5 48t-51.5 124q0 54 20 107t53 94.5t59 67t53 46.5q-92 -4 -220 -4h-68v27h323zM148 167
q0 -68 43 -111t113 -43q66 0 113.5 42t47.5 107q0 119 -143 119q-40 0 -81.5 -12t-60 -21.5t-24.5 -14.5q-8 -34 -8 -66z" />
    <glyph glyph-name="afii10093" unicode="&#x44b;" horiz-adv-x="771" 
d="M656 500v-500h-34v500h34zM149 500v-210q66 46 162 46q80 0 132.5 -39.5t52.5 -114.5q0 -81 -64.5 -136.5t-166.5 -55.5q-43 0 -80.5 2.5t-53.5 5.5l-16 2v500h34zM302 312q-81 0 -153 -45v-246q61 -7 119 -7q85 0 139 49t54 117q0 65 -45 98.5t-114 33.5z" />
    <glyph glyph-name="afii10094" unicode="&#x44c;" horiz-adv-x="548" 
d="M149 500v-210q66 46 162 46q80 0 132.5 -39.5t52.5 -114.5q0 -81 -64.5 -136.5t-166.5 -55.5q-43 0 -80.5 2.5t-53.5 5.5l-16 2v500h34zM302 312q-81 0 -153 -45v-246q61 -7 119 -7q85 0 139 49t54 117q0 65 -45 98.5t-114 33.5z" />
    <glyph glyph-name="afii10095" unicode="&#x44d;" horiz-adv-x="514" 
d="M74 463l-3 25q63 23 138 23q105 0 178 -66.5t73 -179.5q0 -122 -75 -198.5t-180 -76.5q-38 0 -70.5 6.5t-51.5 15t-33 17.5t-19 15l-5 7l9 20q5 -6 16 -15t54 -24.5t96 -15.5q93 0 158 64.5t70 170.5h-292v21h292q-2 99 -66.5 156t-159.5 57q-29 0 -61 -5.5t-50 -11.5z
" />
    <glyph glyph-name="afii10096" unicode="&#x44e;" horiz-adv-x="828" 
d="M526 511q110 0 180 -72t70 -189q0 -118 -70 -189t-180 -71q-109 0 -177.5 70t-68.5 190v3h-131v-253h-34v500h34v-220q9 0 53 0.5t79 0.5q9 107 76 168.5t169 61.5zM526 484q-97 0 -156.5 -64t-59.5 -170t59.5 -169.5t156.5 -63.5q96 0 156.5 63.5t60.5 169.5t-60.5 170
t-156.5 64z" />
    <glyph glyph-name="afii10097" unicode="&#x44f;" horiz-adv-x="555" 
d="M442 499v-499h-34v221q-65 -9 -154 -9q-19 0 -27 1l-120 -213h-36l128 216q-68 10 -104 46t-36 92q0 70 59.5 113.5t161.5 43.5q44 0 84.5 -3t59.5 -6zM256 231q77 0 152 10v238q-63 9 -128 9q-88 0 -138 -38t-50 -98q0 -57 43 -89t121 -32z" />
    <glyph glyph-name="uni0450" unicode="&#x450;" 
d="M483 76l9 -23q-7 -7 -21.5 -17.5t-65.5 -28t-110 -17.5q-100 0 -171.5 64.5t-71.5 175.5q0 121 67 201t166 80q88 0 148.5 -54t60.5 -157l-5 -50h-405v-10v-6q1 -6 1 -9q0 -96 64 -152.5t152 -56.5q53 0 98.5 15t64.5 30zM285 486q-79 0 -135.5 -61.5t-64.5 -155.5
q273 0 378 1q1 12 1 33q0 90 -51.5 136.5t-127.5 46.5zM216 724l20 16l117 -160l-15 -13z" />
    <glyph glyph-name="afii10071" unicode="&#x451;" 
d="M483 76l9 -23q-7 -7 -21.5 -17.5t-65.5 -28t-110 -17.5q-100 0 -171.5 64.5t-71.5 175.5q0 121 67 201t166 80q88 0 148.5 -54t60.5 -157l-5 -50h-405v-10v-6q1 -6 1 -9q0 -96 64 -152.5t152 -56.5q53 0 98.5 15t64.5 30zM285 486q-79 0 -135.5 -61.5t-64.5 -155.5
q273 0 378 1q1 12 1 33q0 90 -51.5 136.5t-127.5 46.5zM401 643q0 -11 -7.5 -18.5t-17.5 -7.5q-11 0 -18.5 7.5t-7.5 18.5t7.5 19t18.5 8q10 0 17.5 -8t7.5 -19zM244 643q0 -11 -7 -18.5t-19 -7.5q-10 0 -17.5 7.5t-7.5 18.5t7.5 19t17.5 8q12 0 19 -7.5t7 -19.5z" />
    <glyph glyph-name="afii10099" unicode="&#x452;" horiz-adv-x="627" 
d="M370 641v-25h-230v-322q4 8 12.5 21.5t29 38.5t43.5 45t57.5 35t70.5 15q78 0 119.5 -46.5t41.5 -168.5q0 -474 -182 -494l-5 30q153 20 153 464q0 107 -35 146.5t-100 39.5q-35 0 -68.5 -16t-56 -36t-42.5 -45.5t-27 -37.5t-11 -20v-265h-34v616h-69v25h69v106l34 3
v-109h230z" />
    <glyph glyph-name="afii10100" unicode="&#x453;" horiz-adv-x="414" 
d="M413 473h-264v-473h-34v500h298v-27zM298 740l20 -16l-122 -157l-15 13z" />
    <glyph glyph-name="afii10101" unicode="&#x454;" horiz-adv-x="514" 
d="M483 77l9 -22q-8 -7 -23 -18t-66.5 -29t-110.5 -18q-100 0 -170 67t-70 177q0 124 71.5 200.5t181.5 76.5q36 0 72 -5t55 -10l18 -5v-25q-68 19 -141 19q-98 0 -158.5 -60.5t-67.5 -163.5h294v-21h-294v-3q0 -101 62.5 -161t151.5 -60q52 0 98.5 15t66.5 31z" />
    <glyph glyph-name="afii10102" unicode="&#x455;" horiz-adv-x="478" 
d="M38 48l11 23q9 -6 25.5 -15.5t69 -25.5t107.5 -16q77 0 116 37.5t39 81.5q0 37 -35 61.5t-85.5 38t-100.5 28t-85 42t-35 69.5q0 63 56 101t146 38q34 0 69.5 -5t53.5 -10l19 -5v-26q-72 21 -141 21q-76 0 -122.5 -30.5t-46.5 -80.5q0 -35 35 -58.5t85 -36.5t100 -27.5
t85 -43.5t35 -73q0 -55 -47 -100.5t-140 -45.5q-64 0 -117.5 14.5t-74.5 29.5z" />
    <glyph glyph-name="afii10103" unicode="&#x456;" horiz-adv-x="263" 
d="M149 500v-500h-34v500h34zM156 643q0 -11 -7 -18.5t-19 -7.5q-11 0 -18 7.5t-7 18.5t7 19t18 8q12 0 19 -7.5t7 -19.5z" />
    <glyph glyph-name="afii10104" unicode="&#x457;" horiz-adv-x="263" 
d="M149 500v-500h-34v500h34zM236 643q0 -11 -7.5 -18.5t-17.5 -7.5q-11 0 -18.5 7.5t-7.5 18.5t7.5 19t18.5 8q10 0 17.5 -8t7.5 -19zM79 643q0 -11 -7 -18.5t-19 -7.5q-10 0 -17.5 7.5t-7.5 18.5t7.5 19t17.5 8q12 0 19 -7.5t7 -19.5z" />
    <glyph glyph-name="afii10105" unicode="&#x458;" horiz-adv-x="280" 
d="M132 0v500h34v-500q0 -63 -17.5 -113.5t-45 -80.5t-57 -46t-59.5 -20l-6 30q57 8 104 66.5t47 163.5zM174 643q0 -11 -7 -18.5t-19 -7.5q-11 0 -18 7.5t-7 18.5t7 19t18 8q12 0 19 -7.5t7 -19.5z" />
    <glyph glyph-name="afii10106" unicode="&#x459;" horiz-adv-x="904" 
d="M36 -10l-5 28q45 10 78 56.5t51 118.5t27 147t11 160h302v-243q8 6 29 16t66 22.5t90 12.5q79 0 123 -35.5t44 -106.5q0 -75 -58.5 -125.5t-139.5 -50.5q-85 0 -136.5 39.5t-51.5 93.5v350h-239q-3 -86 -13.5 -161.5t-31 -147.5t-58 -118t-88.5 -56zM674 284
q-92 0 -174 -48v-107q0 -48 43.5 -82t112.5 -34q66 0 113.5 42.5t47.5 107.5q0 121 -143 121z" />
    <glyph glyph-name="afii10107" unicode="&#x45a;" horiz-adv-x="926" 
d="M115 0v500h34v-219h338v219h34v-243q8 6 29 16t66 22.5t90 12.5q79 0 123 -35.5t44 -106.5q0 -75 -58.5 -125.5t-139.5 -50.5q-84 0 -136 39.5t-52 93.5v132h-338v-255h-34zM695 284q-52 0 -100.5 -16.5t-73.5 -31.5v-107q0 -48 43.5 -82t112.5 -34q67 0 114.5 42.5
t47.5 107.5q0 121 -144 121z" />
    <glyph glyph-name="afii10108" unicode="&#x45b;" horiz-adv-x="618" 
d="M140 750v-109h230v-25h-230v-321q8 15 21.5 34t41 49.5t67.5 50.5t84 20q73 0 116.5 -44t43.5 -138v-267h-34v265q0 155 -135 155q-35 0 -68.5 -16t-56 -36t-42.5 -45.5t-27 -37.5t-11 -20v-265h-34v616h-69v25h69v106z" />
    <glyph glyph-name="afii10109" unicode="&#x45c;" horiz-adv-x="538" 
d="M123 0v500h34v-250l57 46l243 204h41l-257 -216l272 -284h-42l-254 265l-60 -48v-217h-34zM366 740l20 -16l-122 -157l-15 13z" />
    <glyph glyph-name="uni045D" unicode="&#x45d;" horiz-adv-x="655" 
d="M518 500h22v-500h-34v451l-368 -451h-23v500h33v-453zM224 724l20 16l117 -160l-15 -13z" />
    <glyph glyph-name="afii10110" unicode="&#x45e;" horiz-adv-x="558" 
d="M488 500h37l-228 -499l-115 -251h-36l116 251l-230 499h39l210 -465zM289 611q38 0 72.5 17t49.5 34l15 17l14 -20q-2 -3 -6 -8t-18.5 -17.5t-31 -22t-42.5 -17.5t-53 -8t-53 7.5t-43 18t-30 21.5t-19 19l-6 7l14 20q6 -8 16.5 -19t46.5 -30t74 -19z" />
    <glyph glyph-name="afii10193" unicode="&#x45f;" horiz-adv-x="640" 
d="M526 500v-500h-188v-201h-30v201h-193v500h34v-470h343v470h34z" />
    <glyph glyph-name="afii10146" unicode="&#x462;" horiz-adv-x="688" 
d="M525 650v-27h-323v-229q49 13 140 13q126 0 201.5 -46t75.5 -146q0 -97 -69.5 -161t-204.5 -64q-43 0 -87.5 2.5t-67.5 5.5l-24 2v623h-158v27h158v60h36v-60h323zM336 382q-95 0 -134 -13v-345q88 -8 143 -8q117 0 178.5 56.5t61.5 142.5t-68.5 126.5t-180.5 40.5z" />
    <glyph glyph-name="afii10194" unicode="&#x463;" horiz-adv-x="556" 
d="M387 509v-24h-230v-215q67 67 164 67q80 0 131.5 -39.5t51.5 -115.5q0 -81 -63.5 -136.5t-168.5 -55.5q-37 0 -74.5 2.5t-55.5 5.5l-19 2v485h-70v24h70v104l34 2v-106h230zM310 312q-42 0 -80 -16t-51 -27.5t-22 -21.5v-225q54 -8 113 -8q91 0 145.5 49t54.5 118
q0 65 -45.5 98t-114.5 33z" />
    <glyph glyph-name="afii10050" unicode="&#x490;" horiz-adv-x="464" 
d="M434 834h28v-212h-294v-622h-36v650h302v184z" />
    <glyph glyph-name="afii10098" unicode="&#x491;" horiz-adv-x="399" 
d="M374 650h29v-177h-254v-473h-34v500h259v150z" />
    <glyph glyph-name="endash" unicode="&#x2013;" horiz-adv-x="530" 
d="M485 293v-27h-440v27h440z" />
    <glyph glyph-name="emdash" unicode="&#x2014;" horiz-adv-x="720" 
d="M675 293v-27h-630v27h630z" />
    <glyph glyph-name="quoteleft" unicode="&#x2018;" horiz-adv-x="242" 
d="M120 545l5 -15q-6 -5 -15 -5q-18 0 -18 14q0 108 79 216l20 -8q-71 -107 -71 -202z" />
    <glyph glyph-name="quoteright" unicode="&#x2019;" horiz-adv-x="242" 
d="M112 736l-4 14q6 5 15 5q18 0 18 -14q0 -106 -79 -216l-21 8q71 105 71 203z" />
    <glyph glyph-name="quotesinglbase" unicode="&#x201a;" horiz-adv-x="242" 
d="M112 105l-4 15q6 5 15 5q18 0 18 -14q0 -106 -79 -216l-21 8q71 105 71 202z" />
    <glyph glyph-name="quotedblleft" unicode="&#x201c;" horiz-adv-x="390" 
d="M120 545l5 -15q-6 -5 -15 -5q-18 0 -18 14q0 108 79 216l20 -8q-71 -107 -71 -202zM268 545l5 -15q-6 -5 -15 -5q-18 0 -18 14q0 108 79 216l20 -8q-71 -107 -71 -202z" />
    <glyph glyph-name="quotedblright" unicode="&#x201d;" horiz-adv-x="390" 
d="M112 736l-4 14q6 5 15 5q18 0 18 -14q0 -106 -79 -216l-21 8q71 105 71 203zM260 736l-4 14q6 5 15 5q18 0 18 -14q0 -106 -79 -216l-21 8q71 105 71 203z" />
    <glyph glyph-name="quotedblbase" unicode="&#x201e;" horiz-adv-x="390" 
d="M112 105l-4 15q6 5 15 5q18 0 18 -14q0 -106 -79 -216l-21 8q71 105 71 202zM260 105l-4 15q6 5 15 5q18 0 18 -14q0 -106 -79 -216l-21 8q71 105 71 202z" />
    <glyph glyph-name="dagger" unicode="&#x2020;" horiz-adv-x="507" 
d="M438 411v-27h-168l-3 -634h-27l-4 634h-168v27h171v239h29v-239h170z" />
    <glyph glyph-name="daggerdbl" unicode="&#x2021;" horiz-adv-x="507" 
d="M438 -51v-27h-171v-172h-29v172h-170v27h171l4 251l-4 251h-171v27h171v172h29v-172h170v-27h-170l-5 -251l4 -251h171z" />
    <glyph glyph-name="bullet" unicode="&#x2022;" horiz-adv-x="296" 
d="M203 369q0 -23 -15 -38.5t-37 -15.5q-23 0 -37.5 15.5t-14.5 38.5q0 22 14.5 38t37.5 16q22 0 37 -16t15 -38z" />
    <glyph glyph-name="ellipsis" unicode="&#x2026;" horiz-adv-x="719" 
d="M151 40q0 -12 -8 -20t-19 -8q-12 0 -19.5 8t-7.5 20t7.5 20t19.5 8q11 0 19 -8.5t8 -19.5zM385 40q0 -12 -8 -20t-19 -8q-12 0 -19.5 8t-7.5 20t7.5 20t19.5 8q11 0 19 -8.5t8 -19.5zM620 40q0 -12 -8 -20t-19 -8q-12 0 -19.5 8t-7.5 20t7.5 20t19.5 8q11 0 19 -8.5
t8 -19.5z" />
    <glyph glyph-name="perthousand" unicode="&#x2030;" horiz-adv-x="1464" 
d="M744 650l-433 -650h-33l433 650h33zM426 478q0 -79 -51.5 -129t-127.5 -50q-77 0 -127.5 50t-50.5 129q0 80 51 130.5t127 50.5t127.5 -50.5t51.5 -130.5zM398 478q0 68 -44 111t-107 43t-106 -43t-43 -111t43 -110t106 -42q64 0 107.5 42t43.5 110zM960 169
q0 -79 -51.5 -129t-127.5 -50q-77 0 -127.5 50t-50.5 129q0 80 51 130.5t127 50.5t127.5 -50.5t51.5 -130.5zM932 169q0 68 -44 111t-107 43t-106 -43t-43 -111t43 -110t106 -42q64 0 107.5 42t43.5 110zM1395 169q0 -79 -51.5 -129t-127.5 -50q-77 0 -127.5 50t-50.5 129
q0 80 51 130.5t127 50.5t127.5 -50.5t51.5 -130.5zM1367 169q0 68 -44 111t-107 43t-106 -43t-43 -111t43 -110t106 -42q64 0 107.5 42t43.5 110z" />
    <glyph glyph-name="guilsinglleft" unicode="&#x2039;" horiz-adv-x="371" 
d="M292 393l-154 -143l154 -148l-14 -18l-172 166l172 160z" />
    <glyph glyph-name="guilsinglright" unicode="&#x203a;" horiz-adv-x="371" 
d="M78 392l15 18l171 -166l-171 -160l-15 17l154 143z" />
    <glyph glyph-name="fraction" unicode="&#x2044;" horiz-adv-x="426" 
d="M409 577l-300 -548l-23 9l300 548z" />
    <glyph glyph-name="zerosuperior" unicode="&#x2070;" horiz-adv-x="484" 
d="M242 675q87 0 141 -64t54 -171t-54 -170.5t-141 -63.5t-141 63t-54 171t54 171.5t141 63.5zM242 652q-75 0 -122 -57.5t-47 -154.5t46.5 -153.5t122.5 -56.5t122.5 56.5t46.5 153.5q0 98 -47 155t-122 57z" />
    <glyph glyph-name="foursuperior" unicode="&#x2074;" horiz-adv-x="371" 
d="M266 669h19v-303h70v-21h-70v-131h-26v131h-249v21q43 59 107 135t107 122zM259 366v275q-137 -156 -225 -275h225z" />
    <glyph glyph-name="fivesuperior" unicode="&#x2075;" horiz-adv-x="372" 
d="M163 469q-39 0 -65 -7l-2 -1l-6 -2l13 210h210v-21h-191q-4 -33 -10 -166q24 6 58 6q75 0 121 -37.5t46 -93.5q0 -66 -43.5 -108.5t-124.5 -42.5q-48 0 -84.5 13t-49.5 26l-13 13l9 17q4 -5 13 -13t44 -21t78 -13q71 0 107.5 36t36.5 93q0 48 -41 80t-106 32z" />
    <glyph glyph-name="sixsuperior" unicode="&#x2076;" horiz-adv-x="430" 
d="M302 682l8 -20q-55 -15 -99.5 -39.5t-83.5 -72.5t-50 -111q73 49 154 49q68 0 110 -36t42 -90q0 -68 -44 -112t-130 -44q-75 0 -118.5 49t-43.5 128q0 67 23.5 121t63.5 88.5t81 55.5t87 34zM226 470q-79 0 -151 -48q-2 -12 -2 -39q0 -69 36.5 -112t101.5 -43
q75 0 110.5 37t35.5 96q0 47 -36.5 78t-94.5 31z" />
    <glyph glyph-name="sevensuperior" unicode="&#x2077;" horiz-adv-x="342" 
d="M326 669v-15q-135 -251 -215 -440h-31q77 180 213 433h-276v22h309z" />
    <glyph glyph-name="eightsuperior" unicode="&#x2078;" horiz-adv-x="428" 
d="M47 327q0 37 25 64.5t52 39t58 18.5q-27 6 -49 17t-42 37.5t-20 63.5q0 44 39 76t104 32q64 0 104 -32.5t40 -77.5q0 -80 -108 -110q49 -12 89.5 -43t40.5 -86q0 -50 -43 -85t-122 -35t-123.5 35.5t-44.5 85.5zM354 328q0 44 -35 73t-69 36l-35 7h-6q-18 -3 -35.5 -9
t-43 -18.5t-41.5 -35t-16 -51.5q0 -43 37 -73t105 -30t103.5 29.5t35.5 71.5zM222 461q2 0 5 -1q14 3 26.5 8t33.5 16.5t34 32t13 46.5q0 38 -32.5 65.5t-87.5 27.5q-54 0 -86 -27t-32 -64q0 -44 31.5 -70t62.5 -30z" />
    <glyph glyph-name="ninesuperior" unicode="&#x2079;" horiz-adv-x="430" 
d="M125 200l-7 20q52 9 98.5 34t85 74.5t50.5 113.5q-74 -48 -153 -48q-67 0 -109 36t-42 90q0 68 43.5 111.5t130.5 43.5q75 0 118 -48.5t43 -127.5q0 -67 -24.5 -123t-64 -91t-82.5 -56.5t-87 -28.5zM205 412q77 0 149 47q3 20 3 40q0 69 -36.5 112t-101.5 43
q-75 0 -110 -37t-35 -96q0 -47 36.5 -78t94.5 -31z" />
    <glyph glyph-name="zerosub" unicode="&#x2080;" horiz-adv-x="484" 
d="M242 255q87 0 141 -64t54 -171t-54 -170.5t-141 -63.5t-141 63t-54 171t54 171.5t141 63.5zM242 232q-75 0 -122 -57.5t-47 -154.5t46.5 -153.5t122.5 -56.5t122.5 56.5t46.5 153.5q0 98 -47 155t-122 57z" />
    <glyph glyph-name="onesub" unicode="&#x2081;" horiz-adv-x="294" 
d="M185 249h27v-455h-27v426q-111 -104 -158 -145l-12 16z" />
    <glyph glyph-name="twosub" unicode="&#x2082;" horiz-adv-x="404" 
d="M360 -184v-22h-316v22q11 7 29 20.5t64.5 52t82 75t64.5 83t29 83.5q0 103 -148 103q-31 0 -57.5 -3.5t-37.5 -7.5l-12 -3v20q38 16 111 16q86 0 128.5 -33.5t42.5 -90.5q0 -41 -29.5 -90.5t-76.5 -94.5t-83.5 -75t-71.5 -55h281z" />
    <glyph glyph-name="threesub" unicode="&#x2083;" horiz-adv-x="384" 
d="M35 -162l9 17q4 -5 13 -13t44 -21t78 -13q70 0 106.5 35t36.5 85q0 44 -41 74t-113 30l-10 14q73 88 140 187q-50 -5 -72 -5h-169v21h266v-15q-64 -93 -138 -182q76 -3 120 -38t44 -86q0 -58 -43 -100t-123 -42q-48 0 -85 13t-50 26z" />
    <glyph glyph-name="foursub" unicode="&#x2084;" horiz-adv-x="371" 
d="M266 249h19v-303h70v-21h-70v-131h-26v131h-249v21q43 59 107 135t107 122zM259 -54v275q-137 -156 -225 -275h225z" />
    <glyph glyph-name="fivesub" unicode="&#x2085;" horiz-adv-x="372" 
d="M163 49q-39 0 -65 -7l-2 -1l-6 -2l13 210h210v-21h-191q-4 -33 -10 -166q24 6 58 6q75 0 121 -37.5t46 -93.5q0 -66 -43.5 -108.5t-124.5 -42.5q-48 0 -84.5 13t-49.5 26l-13 13l9 17q4 -5 13 -13t44 -21t78 -13q71 0 107.5 36t36.5 93q0 48 -41 80t-106 32z" />
    <glyph glyph-name="sixsub" unicode="&#x2086;" horiz-adv-x="430" 
d="M302 262l8 -20q-55 -15 -99.5 -39.5t-83.5 -72.5t-50 -111q73 49 154 49q68 0 110 -36t42 -90q0 -68 -44 -112t-130 -44q-75 0 -118.5 49t-43.5 128q0 67 23.5 121t63.5 88.5t81 55.5t87 34zM226 50q-79 0 -151 -48q-2 -12 -2 -39q0 -69 36.5 -112t101.5 -43
q75 0 110.5 37t35.5 96q0 47 -36.5 78t-94.5 31z" />
    <glyph glyph-name="sevensub" unicode="&#x2087;" horiz-adv-x="342" 
d="M326 249v-15q-135 -251 -215 -440h-31q74 176 213 433h-276v22h309z" />
    <glyph glyph-name="eightsub" unicode="&#x2088;" horiz-adv-x="428" 
d="M47 -93q0 37 25 64.5t52 39t58 18.5q-27 6 -49 17t-42 37.5t-20 63.5q0 44 39 76t104 32q64 0 104 -32.5t40 -77.5q0 -80 -108 -110q21 -5 40 -13.5t41 -23t35.5 -38.5t13.5 -54q0 -50 -43 -85t-122 -35t-123.5 35.5t-44.5 85.5zM354 -92q0 44 -35 73t-69 36l-35 7h-6
q-18 -4 -35.5 -9.5t-43 -18t-41.5 -35t-16 -51.5q0 -43 37 -73t105 -30t103.5 29.5t35.5 71.5zM222 41q2 0 5 -1q14 3 26.5 8t33.5 16.5t34 32t13 46.5q0 38 -32.5 65.5t-87.5 27.5q-54 0 -86 -27t-32 -64q0 -44 31.5 -70t62.5 -30z" />
    <glyph glyph-name="ninesub" unicode="&#x2089;" horiz-adv-x="430" 
d="M125 -220l-7 20q52 9 98.5 34t85 74.5t50.5 113.5q-74 -48 -153 -48q-67 0 -109 36t-42 90q0 68 43.5 111.5t130.5 43.5q75 0 118 -48.5t43 -127.5q0 -67 -24.5 -123t-64 -91t-82.5 -56.5t-87 -28.5zM205 -8q77 0 149 47q3 19 3 40q0 69 -36.5 112t-101.5 43
q-75 0 -110 -37t-35 -96q0 -47 36.5 -78t94.5 -31z" />
    <glyph glyph-name="Euro" unicode="&#x20ac;" horiz-adv-x="700" 
d="M506 267v-19h-331q17 -112 87 -172t181 -60q39 0 77 10t64.5 24t47.5 28t31 24l10 10l8 -19l-11 -11t-31 -25t-50.5 -31.5t-67.5 -24.5t-83 -11q-123 0 -201.5 67.5t-96.5 190.5h-78v19h75q-2 32 -2 52q0 30 5 67h-78v20h81q23 117 105.5 185t203.5 68q55 0 104 -6.5
t70 -12.5l22 -7v-25q-74 25 -194 25q-109 0 -181.5 -60t-94.5 -167h328v-20h-331q-5 -37 -5 -67q0 -36 2 -52h334z" />
    <glyph glyph-name="uni20B4" unicode="&#x20b4;" horiz-adv-x="547" 
d="M114 616v24q68 25 157 25q87 0 128 -33t41 -88q0 -64 -63 -138h119v-20h-137q-20 -22 -61 -61t-59 -58h257v-19h-274q-62 -74 -62 -136q0 -95 144 -95q47 0 91 13.5t64 26.5l20 13l9 -20q-8 -7 -22.5 -17t-63.5 -26.5t-102 -16.5q-171 0 -171 116q0 66 62 142h-139v19
h155q20 23 61.5 63t56.5 56h-273v20h292q64 73 64 133q0 99 -147 99q-36 0 -72.5 -5.5t-55.5 -10.5z" />
    <glyph glyph-name="afii61352" unicode="&#x2116;" horiz-adv-x="1204" 
d="M1136 386q0 -84 -55.5 -133t-140.5 -49t-140.5 49t-55.5 133t55.5 133t140.5 49t140.5 -49t55.5 -133zM1109 386q0 72 -47.5 116t-121.5 44q-75 0 -122 -43.5t-47 -116.5q0 -72 47 -115.5t122 -43.5q74 0 121.5 43t47.5 116zM607 650v-650l-28 1l-1 -1l-415 591v-591h-31
v650h29l415 -592v592h31zM1063 59v-27h-245v27h245z" />
    <glyph glyph-name="trademark" unicode="&#x2122;" horiz-adv-x="887" 
d="M775 750l46 -350h-22l-41 314l-129 -314h-19l-124 322l-50 -322h-22q36 215 59 350h24l122 -326l135 326h21zM398 750v-21h-162v-329h-23v329h-136v21h321z" />
    <glyph glyph-name="onethird" unicode="&#x2153;" horiz-adv-x="812" 
d="M185 669h27v-455h-27v426q-111 -104 -158 -145l-12 16zM599 577l-300 -548l-23 9l300 548zM463 -162l9 17q4 -5 13 -13t44 -21t78 -13q70 0 106.5 35t36.5 85q0 44 -41 74t-113 30l-10 14q73 88 140 187q-50 -5 -72 -5h-169v21h266v-15q-64 -93 -138 -182q76 -3 120 -38
t44 -86q0 -58 -43 -100t-123 -42q-48 0 -85 13t-50 26z" />
    <glyph glyph-name="twothirds" unicode="&#x2154;" horiz-adv-x="865" 
d="M360 236v-22h-316v22q11 7 29 20.5t64.5 52t82 75t64.5 83t29 83.5q0 103 -148 103q-31 0 -57.5 -3.5t-37.5 -7.5l-12 -3v20q38 16 111 16q86 0 128.5 -33.5t42.5 -90.5q0 -41 -29.5 -90.5t-76.5 -94.5t-83.5 -75t-71.5 -55h281zM653 577l-300 -548l-23 9l300 548z
M515 -162l9 17q4 -5 13 -13t44 -21t78 -13q70 0 106.5 35t36.5 85q0 44 -41 74t-113 30l-10 14q73 88 140 187q-50 -5 -72 -5h-169v21h266v-15q-64 -93 -138 -182q76 -3 120 -38t44 -86q0 -58 -43 -100t-123 -42q-48 0 -85 13t-50 26z" />
    <glyph glyph-name="oneeighth" unicode="&#x215b;" horiz-adv-x="856" 
d="M185 669h27v-455h-27v426q-111 -104 -158 -145l-12 16zM599 577l-300 -548l-23 9l300 548zM475 -93q0 37 25 64.5t52 39t58 18.5q-27 6 -49 17t-42 37.5t-20 63.5q0 44 39 76t104 32q64 0 104 -32.5t40 -77.5q0 -80 -108 -110q21 -5 40 -13.5t41 -23t35.5 -38.5t13.5 -54
q0 -50 -43 -85t-122 -35t-123.5 35.5t-44.5 85.5zM782 -92q0 44 -35 73t-69 36l-35 7h-6q-18 -4 -35.5 -9.5t-43 -18t-41.5 -35t-16 -51.5q0 -43 37 -73t105 -30t103.5 29.5t35.5 71.5zM650 41q2 0 5 -1q14 3 26.5 8t33.5 16.5t34 32t13 46.5q0 38 -32.5 65.5t-87.5 27.5
q-54 0 -86 -27t-32 -64q0 -44 31.5 -70t62.5 -30z" />
    <glyph glyph-name="threeeighths" unicode="&#x215c;" horiz-adv-x="909" 
d="M35 258l9 17q4 -5 13 -13t44 -21t78 -13q70 0 106.5 35t36.5 85q0 44 -41 74t-113 30l-10 14q73 88 140 187q-50 -5 -72 -5h-169v21h266v-15q-64 -93 -138 -182q75 -3 119.5 -38.5t44.5 -85.5q0 -58 -43 -100t-123 -42q-48 0 -85 13t-50 26zM653 577l-300 -548l-23 9
l300 548zM527 -93q0 37 25 64.5t52 39t58 18.5q-27 6 -49 17t-42 37.5t-20 63.5q0 44 39 76t104 32q64 0 104 -32.5t40 -77.5q0 -80 -108 -110q21 -5 40 -13.5t41 -23t35.5 -38.5t13.5 -54q0 -50 -43 -85t-122 -35t-123.5 35.5t-44.5 85.5zM834 -92q0 44 -35 73t-69 36
l-35 7h-6q-18 -4 -35.5 -9.5t-43 -18t-41.5 -35t-16 -51.5q0 -43 37 -73t105 -30t103.5 29.5t35.5 71.5zM702 41q2 0 5 -1q14 3 26.5 8t33.5 16.5t34 32t13 46.5q0 38 -32.5 65.5t-87.5 27.5q-54 0 -86 -27t-32 -64q0 -44 31.5 -70t62.5 -30z" />
    <glyph glyph-name="fiveeighths" unicode="&#x215d;" horiz-adv-x="899" 
d="M518 -93q0 37 25 64.5t52 39t58 18.5q-27 6 -49 17t-42 37.5t-20 63.5q0 44 39 76t104 32q64 0 104 -32.5t40 -77.5q0 -80 -108 -110q21 -5 40 -13.5t41 -23t35.5 -38.5t13.5 -54q0 -50 -43 -85t-122 -35t-123.5 35.5t-44.5 85.5zM825 -92q0 44 -34.5 73t-69.5 36l-35 7
h-6q-18 -4 -35.5 -9.5t-43 -18t-41.5 -35t-16 -51.5q0 -43 37 -73t105 -30t103.5 29.5t35.5 71.5zM693 41q2 0 5 -1q14 3 26.5 8t33.5 16.5t34 32t13 46.5q0 38 -32.5 65.5t-87.5 27.5q-54 0 -86 -27t-32 -64q0 -44 31.5 -70t63.5 -30zM163 469q-39 0 -65 -7l-2 -1l-6 -2
l13 210h210v-21h-191q-4 -33 -10 -166q24 6 58 6q75 0 121 -37.5t46 -93.5q0 -66 -43.5 -108.5t-124.5 -42.5q-48 0 -84.5 13t-49.5 26l-13 13l9 17q4 -5 13 -13t44 -21t78 -13q71 0 107.5 36t36.5 93q0 48 -41 80t-106 32zM642 577l-300 -548l-23 9l300 548z" />
    <glyph glyph-name="seveneighths" unicode="&#x215e;" horiz-adv-x="814" 
d="M326 669v-15q-135 -251 -215 -440h-31q77 180 213 433h-276v22h309zM557 577l-300 -548l-23 9l300 548zM432 -93q0 37 25 64.5t52 39t58 18.5q-27 6 -49 17t-42 37.5t-20 63.5q0 44 39 76t104 32q64 0 104 -32.5t40 -77.5q0 -80 -108 -110q21 -5 40 -13.5t41 -23
t35.5 -38.5t13.5 -54q0 -50 -43 -85t-122 -35t-123.5 35.5t-44.5 85.5zM739 -92q0 44 -34.5 73t-69.5 36l-35 7h-6q-18 -4 -35.5 -9.5t-43 -18t-41.5 -35t-16 -51.5q0 -43 37 -73t105 -30t103.5 29.5t35.5 71.5zM607 41q2 0 5 -1q14 3 26.5 8t33.5 16.5t34 32t13 46.5
q0 38 -32.5 65.5t-87.5 27.5q-54 0 -86 -27t-32 -64q0 -44 31.5 -70t63.5 -30z" />
    <glyph glyph-name="arrowleft" unicode="&#x2190;" horiz-adv-x="694" 
d="M394 491l7 -21l-263 -180l511 3v-27l-509 3l261 -179l-7 -22l-307 212z" />
    <glyph glyph-name="arrowup" unicode="&#x2191;" horiz-adv-x="538" 
d="M268 660l204 -284l-16 -17l-175 247l3 -606h-31l3 606l-174 -247l-16 17z" />
    <glyph glyph-name="arrowright" unicode="&#x2192;" horiz-adv-x="694" 
d="M44 266v27l511 -3l-263 180l7 21l307 -211l-307 -212l-7 22l261 179z" />
    <glyph glyph-name="arrowdown" unicode="&#x2193;" horiz-adv-x="538" 
d="M269 -10l-203 284l16 17l174 -246l-2 605h30l-2 -606l174 247l16 -17z" />
    <glyph glyph-name="st" unicode="&#xfb06;" horiz-adv-x="858" 
d="M38 48l11 23q9 -6 25.5 -15.5t69 -25.5t107.5 -16q77 0 116 37.5t39 81.5q0 37 -35 61.5t-85.5 38t-100.5 28t-85 42t-35 69.5q0 63 56 101t146 38q30 0 72 -6q-63 43 -63 115q0 61 48.5 95t131.5 34h147v-249h230v-27h-230v-334q0 -119 86 -119q35 0 71 12.5t54 25.5
l18 13l1 -25q-7 -6 -20 -15.5t-53 -25t-81 -15.5q-53 0 -81.5 37.5t-28.5 110.5v590h-112q-72 0 -115 -29t-43 -84q0 -34 18.5 -61t36.5 -39t38 -20l17 -4v-26q-72 21 -141 21q-76 0 -122.5 -30.5t-46.5 -80.5q0 -35 35 -58.5t85 -36.5t100 -27.5t85 -43.5t35 -73
q0 -55 -47 -100.5t-140 -45.5q-64 0 -117.5 14.5t-74.5 29.5z" />
    <glyph glyph-name="onefifth" horiz-adv-x="799" 
d="M591 49q-39 0 -65 -7l-2 -1l-6 -2l13 210h210v-21h-191q-4 -33 -10 -166q24 6 58 6q75 0 121 -37.5t46 -93.5q0 -66 -43.5 -108.5t-124.5 -42.5q-48 0 -84.5 13t-49.5 26l-13 13l9 17q4 -5 13 -13t44 -21t78 -13q71 0 107.5 36t36.5 93q0 48 -41 80t-106 32zM185 669h27
v-455h-27v426q-111 -104 -158 -145l-12 16zM599 577l-300 -548l-23 9l300 548z" />
    <glyph glyph-name="twofifths" horiz-adv-x="852" 
d="M360 236v-22h-316v22q11 7 29 20.5t64.5 52t82 75t64.5 83t29 83.5q0 103 -148 103q-31 0 -57.5 -3.5t-37.5 -7.5l-12 -3v20q38 16 111 16q86 0 128.5 -33.5t42.5 -90.5q0 -41 -29.5 -90.5t-76.5 -94.5t-83.5 -75t-71.5 -55h281zM643 49q-39 0 -65 -7l-2 -1l-6 -2l13 210
h210v-21h-191q-4 -33 -10 -166q24 6 58 6q75 0 121 -37.5t46 -93.5q0 -66 -43.5 -108.5t-124.5 -42.5q-48 0 -84.5 13t-49.5 26l-13 13l9 17q4 -5 13 -13t44 -21t78 -13q71 0 107.5 36t36.5 93q0 48 -41 80t-106 32zM653 577l-300 -548l-23 9l300 548z" />
    <glyph glyph-name="threefifths" horiz-adv-x="852" 
d="M35 258l9 17q4 -5 13 -13t44 -21t78 -13q70 0 106.5 35t36.5 85q0 44 -41 74t-113 30l-10 14q73 88 140 187q-50 -5 -72 -5h-169v21h266v-15q-64 -93 -138 -182q75 -3 119.5 -38.5t44.5 -85.5q0 -58 -43 -100t-123 -42q-48 0 -85 13t-50 26zM643 49q-39 0 -65 -7l-2 -1
l-6 -2l13 210h210v-21h-191q-4 -33 -10 -166q24 6 58 6q75 0 121 -37.5t46 -93.5q0 -66 -43.5 -108.5t-124.5 -42.5q-48 0 -84.5 13t-49.5 26l-13 13l9 17q4 -5 13 -13t44 -21t78 -13q71 0 107.5 36t36.5 93q0 48 -41 80t-106 32zM653 577l-300 -548l-23 9l300 548z" />
    <glyph glyph-name="fourfifths" horiz-adv-x="852" 
d="M266 669h19v-303h70v-21h-70v-131h-26v131h-249v21q43 59 107 135t107 122zM259 366v275q-137 -156 -225 -275h225zM643 49q-39 0 -65 -7l-2 -1l-6 -2l13 210h210v-21h-191q-4 -33 -10 -166q24 6 58 6q75 0 121 -37.5t46 -93.5q0 -66 -43.5 -108.5t-124.5 -42.5
q-48 0 -84.5 13t-49.5 26l-13 13l9 17q4 -5 13 -13t44 -21t78 -13q71 0 107.5 36t36.5 93q0 48 -41 80t-106 32zM653 577l-300 -548l-23 9l300 548z" />
    <glyph glyph-name="ct" horiz-adv-x="906" 
d="M482 78l11 -20q-3 -3 -8 -7.5t-23 -16t-38.5 -20.5t-55 -16.5t-71.5 -7.5q-103 0 -174 65.5t-71 177.5q0 120 74 199t186 79q35 0 77 -7q-65 43 -65 116q0 61 48.5 95t131.5 34h147v-249h230v-27h-230v-334q0 -119 86 -119q35 0 71 12.5t54 25.5l18 13l1 -25
q-7 -6 -20 -15.5t-53 -25t-81 -15.5q-53 0 -81.5 37.5t-28.5 110.5v590h-112q-72 0 -115 -29t-43 -84q0 -30 12.5 -54t32.5 -38t33.5 -21t26.5 -11l6 -1v-27q-77 21 -143 21q-100 0 -165 -71.5t-65 -177.5q0 -100 64 -159t152 -59q52 0 97.5 15t64.5 30z" />
    <glyph glyph-name="halfcaron" horiz-adv-x="395" 
d="M324 733l-103 -165l-21 10l101 165z" />
    <glyph glyph-name="commaaccent" horiz-adv-x="223" 
d="M86 -45l23 -2q0 -45 -20 -99.5t-47 -87.5l-19 5q26 36 44.5 87.5t18.5 96.5z" />
    <glyph glyph-name="a.alt" horiz-adv-x="609" 
d="M506 476v-476h-34v96q-8 -10 -21.5 -22.5t-41 -34t-65 -35.5t-75.5 -14q-97 0 -157 63.5t-60 179.5q0 123 78 200.5t207 77.5q49 0 91.5 -8.5t59.5 -17.5zM280 18q99 0 192 102v339q-59 27 -132 27q-116 0 -184.5 -69t-68.5 -181q0 -104 53 -161t140 -57z" />
    <glyph glyph-name="aring.alt" horiz-adv-x="619" 
d="M506 476v-476h-34v96q-8 -10 -21.5 -22.5t-41 -34t-65 -35.5t-75.5 -14q-97 0 -157 63.5t-60 179.5q0 123 78 200.5t207 77.5q49 0 91.5 -8.5t59.5 -17.5zM280 18q99 0 192 102v339q-59 27 -132 27q-116 0 -184.5 -69t-68.5 -181q0 -104 53 -161t140 -57zM418 684
q0 -42 -27 -68.5t-67 -26.5q-41 0 -68 26.5t-27 68.5q0 41 27.5 68t67.5 27t67 -27t27 -68zM400 684q0 35 -22 56.5t-54 21.5q-33 0 -55.5 -21.5t-22.5 -56.5t22.5 -56.5t55.5 -21.5q32 0 54 21.5t22 56.5z" />
    <glyph glyph-name="agrave.alt" horiz-adv-x="619" 
d="M506 476v-476h-34v96q-8 -10 -21.5 -22.5t-41 -34t-65 -35.5t-75.5 -14q-97 0 -157 63.5t-60 179.5q0 123 78 200.5t207 77.5q49 0 91.5 -8.5t59.5 -17.5zM280 18q99 0 192 102v339q-59 27 -132 27q-116 0 -184.5 -69t-68.5 -181q0 -104 53 -161t140 -57zM233 724l20 16
l117 -160l-15 -13z" />
    <glyph glyph-name="adieresis.alt" horiz-adv-x="619" 
d="M506 476v-476h-34v96q-8 -10 -21.5 -22.5t-41 -34t-65 -35.5t-75.5 -14q-97 0 -157 63.5t-60 179.5q0 123 78 200.5t207 77.5q49 0 91.5 -8.5t59.5 -17.5zM280 18q99 0 192 102v339q-59 27 -132 27q-116 0 -184.5 -69t-68.5 -181q0 -104 53 -161t140 -57zM428 643
q0 -11 -7.5 -18.5t-17.5 -7.5q-11 0 -18.5 7.5t-7.5 18.5t7.5 19t18.5 8q10 0 17.5 -8t7.5 -19zM271 643q0 -11 -7 -18.5t-19 -7.5q-10 0 -17.5 7.5t-7.5 18.5t7.5 19t17.5 8q12 0 19 -7.5t7 -19.5z" />
    <glyph glyph-name="aogonek.alt" horiz-adv-x="619" 
d="M506 476v-476h-2q-5 -2 -12.5 -6.5t-26.5 -19t-34 -30t-27 -40t-12 -48.5q0 -88 156 -88v-19q-182 0 -182 107q0 48 34.5 85t74.5 59h-3v96q-8 -10 -21.5 -22.5t-41 -34t-65 -35.5t-75.5 -14q-97 0 -157 63.5t-60 179.5q0 123 78 200.5t207 77.5q49 0 91.5 -8.5
t59.5 -17.5zM280 18q99 0 192 102v339q-59 27 -132 27q-116 0 -184.5 -69t-68.5 -181q0 -104 53 -161t140 -57z" />
    <glyph glyph-name="abreve.alt" horiz-adv-x="619" 
d="M506 476v-476h-34v96q-8 -10 -21.5 -22.5t-41 -34t-65 -35.5t-75.5 -14q-97 0 -157 63.5t-60 179.5q0 123 78 200.5t207 77.5q49 0 91.5 -8.5t59.5 -17.5zM280 18q99 0 192 102v339q-59 27 -132 27q-116 0 -184.5 -69t-68.5 -181q0 -104 53 -161t140 -57zM324 611
q38 0 72.5 17t49.5 34l15 17l14 -20q-2 -3 -6 -8t-18.5 -17.5t-31 -22t-42.5 -17.5t-53 -8t-53 7.5t-43 18t-30 21.5t-19 19l-6 7l14 20q6 -8 16.5 -19t46.5 -30t74 -19z" />
    <glyph glyph-name="aacute.alt" horiz-adv-x="619" 
d="M506 476v-476h-34v96q-8 -10 -21.5 -22.5t-41 -34t-65 -35.5t-75.5 -14q-97 0 -157 63.5t-60 179.5q0 123 78 200.5t207 77.5q49 0 91.5 -8.5t59.5 -17.5zM280 18q99 0 192 102v339q-59 27 -132 27q-116 0 -184.5 -69t-68.5 -181q0 -104 53 -161t140 -57zM391 740l20 -16
l-122 -157l-15 13z" />
    <glyph glyph-name="amacron.alt" horiz-adv-x="619" 
d="M506 476v-476h-34v96q-8 -10 -21.5 -22.5t-41 -34t-65 -35.5t-75.5 -14q-97 0 -157 63.5t-60 179.5q0 123 78 200.5t207 77.5q49 0 91.5 -8.5t59.5 -17.5zM280 18q99 0 192 102v339q-59 27 -132 27q-116 0 -184.5 -69t-68.5 -181q0 -104 53 -161t140 -57zM424 664v-19
h-202v19h202z" />
    <glyph glyph-name="acircumflex.alt" horiz-adv-x="619" 
d="M506 476v-476h-34v96q-8 -10 -21.5 -22.5t-41 -34t-65 -35.5t-75.5 -14q-97 0 -157 63.5t-60 179.5q0 123 78 200.5t207 77.5q49 0 91.5 -8.5t59.5 -17.5zM280 18q99 0 192 102v339q-59 27 -132 27q-116 0 -184.5 -69t-68.5 -181q0 -104 53 -161t140 -57zM324 748
l152 -121l-12 -21l-140 112l-140 -112l-13 21z" />
    <glyph glyph-name="atilde.alt" horiz-adv-x="619" 
d="M506 476v-476h-34v96q-8 -10 -21.5 -22.5t-41 -34t-65 -35.5t-75.5 -14q-97 0 -157 63.5t-60 179.5q0 123 78 200.5t207 77.5q49 0 91.5 -8.5t59.5 -17.5zM280 18q99 0 192 102v339q-59 27 -132 27q-116 0 -184.5 -69t-68.5 -181q0 -104 53 -161t140 -57zM491 702l9 -13
q-1 -2 -3 -5.5t-9.5 -13t-17 -16.5t-27 -12.5t-37.5 -5.5q-32 0 -72.5 23.5t-71.5 23.5q-32 0 -56.5 -13.5t-32.5 -26.5l-8 -13l-10 15q1 3 3.5 7t12 15.5t20.5 20t30 15.5t41 7q34 0 74.5 -24t69.5 -24t50.5 10t27.5 20z" />
    <glyph glyph-name="g.alt" horiz-adv-x="609" 
d="M506 476v-454q0 -135 -66.5 -208.5t-181.5 -73.5q-64 0 -111.5 18t-62.5 36l-16 17l12 25q2 -3 6 -7.5t20 -16t34.5 -20.5t50.5 -16t68 -7q98 0 154 62.5t59 172.5v92q-8 -10 -21.5 -22.5t-41 -34t-65 -35.5t-75.5 -14q-97 0 -157 63.5t-60 179.5q0 123 78 200.5
t207 77.5q49 0 91.5 -8.5t59.5 -17.5zM280 18q99 0 192 102v339q-59 27 -132 27q-116 0 -184.5 -69t-68.5 -181q0 -104 53 -161t140 -57z" />
    <glyph glyph-name="gcommaaccent.alt" horiz-adv-x="619" 
d="M506 476v-454q0 -135 -66.5 -208.5t-181.5 -73.5q-64 0 -111.5 18t-62.5 36l-16 17l12 25q2 -3 6 -7.5t20 -16t34.5 -20.5t50.5 -16t68 -7q98 0 154 62.5t59 172.5v92q-8 -10 -21.5 -22.5t-41 -34t-65 -35.5t-75.5 -14q-97 0 -157 63.5t-60 179.5q0 123 78 200.5
t207 77.5q49 0 91.5 -8.5t59.5 -17.5zM280 18q99 0 192 102v339q-59 27 -132 27q-116 0 -184.5 -69t-68.5 -181q0 -104 53 -161t140 -57zM407 763l20 -4q-26 -36 -44.5 -88t-18.5 -97l-23 3q0 45 20 99t46 87z" />
    <glyph glyph-name="gbreve.alt" horiz-adv-x="619" 
d="M506 476v-454q0 -135 -66.5 -208.5t-181.5 -73.5q-64 0 -111.5 18t-62.5 36l-16 17l12 25q2 -3 6 -7.5t20 -16t34.5 -20.5t50.5 -16t68 -7q98 0 154 62.5t59 172.5v92q-8 -10 -21.5 -22.5t-41 -34t-65 -35.5t-75.5 -14q-97 0 -157 63.5t-60 179.5q0 123 78 200.5
t207 77.5q49 0 91.5 -8.5t59.5 -17.5zM280 18q99 0 192 102v339q-59 27 -132 27q-116 0 -184.5 -69t-68.5 -181q0 -104 53 -161t140 -57zM333 611q38 0 72.5 17t49.5 34l15 17l14 -20q-2 -3 -6 -8t-18.5 -17.5t-31 -22t-42.5 -17.5t-53 -8t-53 7.5t-43 18t-30 21.5t-19 19
l-6 7l14 20q6 -8 16.5 -19t46.5 -30t74 -19z" />
    <glyph glyph-name="afii10065.alt" horiz-adv-x="619" 
d="M506 476v-476h-34v96q-8 -10 -21.5 -22.5t-41 -34t-65 -35.5t-75.5 -14q-97 0 -157 63.5t-60 179.5q0 123 78 200.5t207 77.5q49 0 91.5 -8.5t59.5 -17.5zM280 18q99 0 192 102v339q-59 27 -132 27q-116 0 -184.5 -69t-68.5 -181q0 -104 53 -161t140 -57z" />
    <glyph glyph-name="afii10069.alt" horiz-adv-x="619" 
d="M506 476v-454q0 -135 -66.5 -208.5t-181.5 -73.5q-64 0 -111.5 18t-62.5 36l-16 17l12 25q2 -3 6 -7.5t20 -16t34.5 -20.5t50.5 -16t68 -7q98 0 154 62.5t59 172.5v92q-8 -10 -21.5 -22.5t-41 -34t-65 -35.5t-75.5 -14q-97 0 -157 63.5t-60 179.5q0 123 78 200.5
t207 77.5q49 0 91.5 -8.5t59.5 -17.5zM280 18q99 0 192 102v339q-59 27 -132 27q-116 0 -184.5 -69t-68.5 -181q0 -104 53 -161t140 -57z" />
    <glyph glyph-name="zero.onum" horiz-adv-x="694" 
d="M347 511q122 0 200 -72.5t78 -189.5t-77.5 -188t-200.5 -71t-200.5 71t-77.5 188t78 189.5t200 72.5zM347 482q-107 0 -175 -64.5t-68 -168.5t67.5 -167t175.5 -63t175.5 63t67.5 167t-67.5 168.5t-175.5 64.5z" />
    <glyph glyph-name="one.onum" horiz-adv-x="423" 
d="M267 500h35v-500h-35v464q-126 -121 -229 -211l-16 21z" />
    <glyph glyph-name="two.onum" horiz-adv-x="510" 
d="M441 29v-29h-382v27q7 4 18 11.5t44 30.5t63 46.5t66.5 56.5t63 63t44.5 64t18 62q0 51 -42 86t-123 35q-34 0 -61 -2.5t-37 -5.5l-10 -2v28q31 11 118 11q92 0 142 -41.5t50 -102.5q0 -38 -28 -83.5t-65 -82.5t-87.5 -76.5t-82.5 -60.5t-62 -39q12 -1 38 -1
q34 0 98.5 2.5t81.5 2.5h135z" />
    <glyph glyph-name="three.onum" horiz-adv-x="550" 
d="M62 -124l6 23q5 -3 15.5 -8.5t53.5 -14t98 -8.5q102 0 156 51t54 122q0 62 -59 106t-165 44l-13 19q86 105 200 267q-162 -5 -345 -5v28h380v-21q-91 -135 -200 -263q110 -3 174 -53t64 -122q0 -82 -63 -141.5t-178 -59.5q-61 0 -105.5 9t-58.5 18z" />
    <glyph glyph-name="four.onum" horiz-adv-x="543" 
d="M391 500h27v-475h100v-25h-100v-150h-34v150h-358v25q61 84 152.5 203t151.5 196zM384 464q-4 -5 -43.5 -57.5t-82.5 -110t-101.5 -135t-102.5 -137.5h54q46 0 147.5 0.5t128.5 0.5v439z" />
    <glyph glyph-name="five.onum" horiz-adv-x="550" 
d="M448 500v-28q-194 0 -272 3q-10 -125 -16 -243q36 10 86 10q108 0 171.5 -51.5t63.5 -131.5q0 -94 -66 -156.5t-183 -62.5q-58 0 -99.5 6t-54.5 12l-13 5l6 24q43 -19 156 -19q104 0 161 55t57 137q0 68 -56 112.5t-151 44.5q-44 0 -84 -9l-24 -7l17 299h301z" />
    <glyph glyph-name="six.onum" horiz-adv-x="615" 
d="M397 659l9 -26q-262 -66 -297 -314q108 72 227 72q96 0 154 -49t58 -125q0 -97 -61.5 -162t-179.5 -65q-102 0 -170 71t-68 180q0 96 28.5 172t78 124t103.5 77t118 45zM328 366q-49 0 -100 -15.5t-77 -29t-45 -26.5q-2 -34 -2 -54q0 -96 58 -159.5t147 -63.5
q102 0 153 56t51 140q0 67 -50.5 109.5t-134.5 42.5z" />
    <glyph glyph-name="seven.onum" horiz-adv-x="493" 
d="M467 500v-21q-24 -40 -62.5 -107t-122 -234.5t-123.5 -287.5h-40q83 247 308 627q-254 -7 -401 -7v30h441z" />
    <glyph glyph-name="eight.onum" horiz-adv-x="614" 
d="M69 165q0 39 18 70t48 51t57 31t58 19q-26 7 -49 18t-47 30t-38.5 49t-14.5 67q0 64 57 111.5t149 47.5t149.5 -48t57.5 -113q0 -35 -15 -63.5t-40 -47t-48.5 -29t-49.5 -18.5q31 -7 58.5 -18.5t58 -31.5t49 -52.5t18.5 -73.5q0 -68 -63 -121t-175 -53t-175 53t-63 122z
M510 167q0 40 -21.5 71.5t-52 47t-61 25.5t-51.5 13l-22 2q-5 0 -11 1q-27 -5 -52.5 -14t-59.5 -26.5t-55 -48.5t-21 -70q0 -59 53.5 -105.5t150.5 -46.5q96 0 149.5 46t53.5 105zM313 348q4 0 11 -1q23 5 45 14t50 26t45 45t17 63q0 55 -47 97t-127 42q-79 0 -126 -40.5
t-47 -94.5q0 -39 18.5 -69t45 -45t52.5 -24t44 -11zM303 329l-1 -3l2 3h-1z" />
    <glyph glyph-name="nine.onum" horiz-adv-x="615" 
d="M138 -159l-8 26q46 12 88.5 27.5t90.5 42t85 59.5t67 80t42 102q-109 -69 -223 -69q-97 0 -155 49.5t-58 125.5q0 97 62 162t180 65q102 0 169.5 -71t67.5 -181q0 -77 -28 -142.5t-70 -109.5t-99.5 -79t-107.5 -54.5t-103 -32.5zM287 135q113 0 221 68q4 36 4 56
q0 97 -58.5 160.5t-147.5 63.5q-102 0 -153 -56t-51 -140q0 -67 51 -109.5t134 -42.5z" />
    <glyph glyph-name="y.alt" horiz-adv-x="625" 
d="M478 17v121q-10 -17 -24.5 -35.5t-42 -47.5t-67 -47t-81.5 -18q-157 0 -157 179v331h34v-330q0 -151 134 -151q33 0 66 15t54.5 33t42.5 43t28 36t13 22v332h34v-478q0 -135 -66 -208.5t-181 -73.5q-64 0 -111.5 18t-63.5 36l-16 17l13 25q2 -3 6 -7.5t19.5 -16t34 -20.5
t51 -16t68.5 -7q100 0 156 66t56 182z" />
    <glyph glyph-name="yacute.alt" horiz-adv-x="625" 
d="M478 17v121q-10 -17 -24.5 -35.5t-42 -47.5t-67 -47t-81.5 -18q-157 0 -157 179v331h34v-330q0 -151 134 -151q33 0 66 15t54.5 33t42.5 43t28 36t13 22v332h34v-478q0 -135 -66 -208.5t-181 -73.5q-64 0 -111.5 18t-63.5 36l-16 17l13 25q2 -3 6 -7.5t19.5 -16t34 -20.5
t51 -16t68.5 -7q100 0 156 66t56 182zM375 740l20 -16l-122 -157l-15 13z" />
    <glyph glyph-name="ydieresis.alt" horiz-adv-x="625" 
d="M478 17v121q-10 -17 -24.5 -35.5t-42 -47.5t-67 -47t-81.5 -18q-157 0 -157 179v331h34v-330q0 -151 134 -151q33 0 66 15t54.5 33t42.5 43t28 36t13 22v332h34v-478q0 -135 -66 -208.5t-181 -73.5q-64 0 -111.5 18t-63.5 36l-16 17l13 25q2 -3 6 -7.5t19.5 -16t34 -20.5
t51 -16t68.5 -7q100 0 156 66t56 182zM411 643q0 -11 -7.5 -18.5t-17.5 -7.5q-11 0 -18.5 7.5t-7.5 18.5t7.5 19t18.5 8q10 0 17.5 -8t7.5 -19zM254 643q0 -11 -7 -18.5t-19 -7.5q-10 0 -17.5 7.5t-7.5 18.5t7.5 19t17.5 8q12 0 19 -7.5t7 -19.5z" />
    <glyph glyph-name="afii10085.alt" horiz-adv-x="625" 
d="M478 17v121q-10 -17 -24.5 -35.5t-42 -47.5t-67 -47t-81.5 -18q-157 0 -157 179v331h34v-330q0 -151 134 -151q33 0 66 15t54.5 33t42.5 43t28 36t13 22v332h34v-478q0 -135 -66 -208.5t-181 -73.5q-64 0 -111.5 18t-63.5 36l-16 17l13 25q2 -3 6 -7.5t19.5 -16t34 -20.5
t51 -16t68.5 -7q100 0 156 66t56 182z" />
    <glyph glyph-name="afii10110.alt" horiz-adv-x="625" 
d="M478 17v121q-10 -17 -24.5 -35.5t-42 -47.5t-67 -47t-81.5 -18q-157 0 -157 179v331h34v-330q0 -151 134 -151q33 0 66 15t54.5 33t42.5 43t28 36t13 22v332h34v-478q0 -135 -66 -208.5t-181 -73.5q-64 0 -111.5 18t-63.5 36l-16 17l13 25q2 -3 6 -7.5t19.5 -16t34 -20.5
t51 -16t68.5 -7q100 0 156 66t56 182zM308 611q38 0 72.5 17t49.5 34l15 17l14 -20q-2 -3 -6 -8t-18.5 -17.5t-31 -22t-42.5 -17.5t-53 -8t-53 7.5t-43 18t-30 21.5t-19 19l-6 7l14 20q6 -8 16.5 -19t46.5 -30t74 -19z" />
    <glyph glyph-name="afii10066.alt" horiz-adv-x="573" 
d="M50 213q0 54 23 98.5t58.5 71t73.5 41.5t73 17q-79 42 -121.5 85.5t-42.5 109.5q0 57 42 90.5t107 33.5q48 0 98 -20t74 -20q22 0 39 8t24 16l6 9l21 -8q-1 -2 -2.5 -5.5t-8.5 -13t-16 -16.5t-24 -12.5t-32 -5.5q-28 0 -78 20t-92 20q-55 0 -89 -25.5t-34 -71.5
q0 -37 21 -68.5t54.5 -55t74.5 -45t81.5 -44.5t74 -49.5t54.5 -63.5t21 -82q0 -111 -69.5 -174t-178.5 -63q-106 0 -169 61.5t-63 161.5zM496 225q0 25 -6.5 47t-23.5 41.5t-30 32.5t-42.5 31t-43.5 25.5t-49 26.5q-32 -2 -68.5 -16t-71 -39t-57 -66.5t-22.5 -91.5
q0 -89 55 -144.5t145 -55.5q94 0 154 56t60 153z" />
    <glyph glyph-name="AndrijType" horiz-adv-x="1755" 
d="M1110 455v15q-4 -7 -12 -17.5t-34 -27.5t-54 -17q-47 0 -78 33t-31 90q0 61 40 101t105 40q36 0 70 -13q10 79 42 131l15 -8q-46 -77 -46 -225q0 -17 0.5 -50.5t0.5 -49.5q0 -32 10 -32l26 7v-11q-23 -8 -33 -8q-21 0 -21 42zM916 -133l-19 -1q0 57 0.5 171.5t0.5 172.5
q0 21 -3 21l-27 -1v12q32 2 41 2q7 0 7 -27v-27q5 9 14.5 19.5t33.5 24.5t50 14q47 0 78 -34.5t31 -92.5q0 -60 -38 -98t-103 -38q-38 0 -66 12v-130zM97 303l-2 15q19 2 39 17.5t37.5 37t37.5 55.5t34.5 62.5t32.5 70.5t28.5 67.5t25.5 64t20 50.5q-2 0 -7.5 0.5t-8.5 0.5
q-58 0 -109 -34.5t-51 -80.5q0 -28 23 -55l-13 -7q-24 28 -24 60q0 51 55 91t120 40q31 0 50.5 -11t25 -22t12.5 -33l62 -216q16 -50 27 -50q6 0 14 2t12 4l5 2l1 -11q-25 -10 -42 -10q-19 0 -35 56l-12 42h-185q-94 -200 -173 -208zM1110 479q0 10 -0.5 31.5t-0.5 31.5
q0 61 5 102q-30 15 -70 15q-56 0 -90 -35.5t-34 -90.5q0 -51 27.5 -80t69.5 -29q45 0 93 55zM1008 232q-23 0 -45 -12t-32 -22.5t-15 -18.5v-166q28 -15 68 -15q55 0 87.5 33.5t32.5 87.5q0 52 -27 82.5t-69 30.5zM405 687q-5 16 -8 23.5t-11.5 16.5t-21.5 13
q-62 -160 -88 -216h175zM1241 92l-1 15q71 0 102.5 25t31.5 62q0 25 -21.5 39t-52.5 14q-45 0 -76 -40t-31 -97q0 -58 41 -98t99 -40q40 0 80 22l5 -12q-43 -25 -89 -25q-63 0 -108.5 43.5t-45.5 108.5q0 63 36 106.5t90 43.5q38 0 63.5 -16.5t25.5 -46.5q0 -44 -34 -68
t-80 -24v-1q62 -5 101 -5q128 0 188 33.5t60 89.5l16 -4q0 -61 -63 -97.5t-195 -36.5q-63 0 -142 9zM220 198h-15q0 56 46.5 90t139.5 34q34 0 66 -4q41 -4 83 -4q151 0 155 68l14 -1q-3 -35 -42.5 -58.5t-125.5 -23.5q-38 0 -75 4v-254q0 -45 3 -45l34 8l1 -13
q-35 -10 -50 -10q-7 0 -7 60v256q-34 2 -49 2q-178 0 -178 -109zM506 -107l4 16q24 -6 47 -6q47 0 87.5 23.5t67.5 64.5q-7 21 -15.5 45.5t-27 70t-38 74.5t-35.5 29t-36.5 -8t-33.5 -16l-12 -8l-4 11q46 37 94 37q17 0 36.5 -26.5t36.5 -68t27.5 -71t18.5 -55.5
q26 41 57.5 124t38.5 119l18 -2q-7 -35 -41.5 -122t-64.5 -135t-75.5 -75.5t-97.5 -27.5q-27 0 -52 7zM622 416l-18 -1q0 37 0.5 109.5t0.5 108.5q0 19 -7 22q-4 2 -24 6t-28 8l3 13q9 -4 32 -8t29 -6q13 -5 13 -33v-45q5 11 15.5 26.5t37 34.5t56.5 19q76 0 76 -88v-125
q0 -32 12 -32l24 7v-11q-22 -8 -31 -8q-12 0 -17.5 9t-5.5 33l1 126q0 73 -65 73q-18 0 -35 -8t-28.5 -19t-21 -22.5t-13.5 -19.5l-5 -8q-1 -54 -1 -161zM1418 295l2 15q26 -19 62 -19q52 0 92.5 42.5t40.5 113.5v186q0 21 -2 22l-28 -1q0 8 1 11q28 3 39 3q9 0 9 -33
q0 -36 -0.5 -92.5t-0.5 -93.5q0 -80 -45 -127t-103 -47q-38 0 -67 20zM1271 416l-19 -1q0 37 0.5 109.5t0.5 108.5q0 17 -2 21h-28l1 11q31 3 39 3q6 -3 6 -32v-55q9 32 34 62t59 30q6 0 12 -1.5t8 -3.5l3 -2l-1 -17q-12 6 -25 6q-33 0 -57.5 -32.5t-30.5 -61.5v-145z
M1477 635q0 -30 -0.5 -89.5t-0.5 -88.5q0 -32 11 -32l24 7v-11q-22 -8 -31 -8q-12 0 -17 9t-5 33q0 29 0.5 88.5t0.5 89.5q0 21 -3 22l-28 -1l1 11q29 3 38 3q10 0 10 -33zM1456 740q0 14 13 14q5 0 9 -4.5t4 -9.5q0 -14 -13 -14t-13 14zM1613 740q0 5 3.5 9.5t8.5 4.5
q6 0 10 -4.5t4 -9.5q0 -14 -14 -14q-12 0 -12 14z" />
    <glyph glyph-name="afii10083_afii10077" horiz-adv-x="1025" 
d="M910 500v-500h-34v473h-239q-2 -64 -8 -116.5t-19 -110.5t-35.5 -101.5t-55.5 -80t-82.5 -55.5t-111.5 -19q-124 0 -198.5 64t-74.5 179q0 120 74 199t186 79q31 0 67.5 -5.5t57.5 -10.5l21 -5v-27q-77 21 -143 21q-100 0 -165 -71.5t-65 -177.5q0 -103 67.5 -160.5
t172.5 -57.5q69 0 120 29.5t80.5 75t48.5 113t25.5 128.5t8.5 137h302z" />
    <glyph glyph-name="afii10070_afii10077" horiz-adv-x="1088" 
d="M973 500v-500h-34v473h-239q-3 -91 -13 -160t-35 -132.5t-64.5 -103.5t-103 -63.5t-149.5 -23.5q-125 0 -204 64.5t-79 178.5q1 120 67.5 199t165.5 79q88 0 148.5 -54t60.5 -157l-5 -50h-405v-10q0 -1 0.5 -5t0.5 -7q0 -100 72.5 -156t177.5 -56q81 0 140.5 24t95.5 64
t58.5 104t31 132t10.5 160h302zM285 486q-79 0 -135.5 -61.5t-64.5 -155.5q273 0 378 1q1 12 1 33q0 90 -51.5 136.5t-127.5 46.5z" />
    <glyph glyph-name="afii10101_afii10077" horiz-adv-x="1025" 
d="M458 465q-77 20 -143 20q-97 0 -160 -62t-71 -162h293v-21h-294v-5q0 -105 66.5 -162t175.5 -57q53 0 95.5 16t71 40.5t50 64.5t33 78t19 92t10 95t4.5 98h302v-500h-34v473h-239q-2 -57 -5 -100t-12 -96t-22.5 -91.5t-37 -77.5t-55 -63.5t-78 -39.5t-103.5 -15
q-123 0 -197.5 64t-74.5 179q0 120 74 199t186 79q31 0 67.5 -5.5t57.5 -10.5l21 -5v-25z" />
    <glyph glyph-name="afii10083_afii10106" horiz-adv-x="1314" 
d="M458 463q-77 21 -143 21q-100 0 -165 -71.5t-65 -177.5q0 -103 67.5 -160.5t172.5 -57.5q69 0 120 29.5t80.5 75t48.5 113t25.5 128.5t8.5 137h302v-243q8 6 29 16t66 22.5t89 12.5q79 0 123.5 -35.5t44.5 -106.5q0 -75 -58.5 -125.5t-139.5 -50.5q-85 0 -136.5 39.5
t-51.5 93.5v350h-239q-2 -64 -8 -116.5t-19 -110.5t-35.5 -101.5t-55.5 -80t-82.5 -55.5t-111.5 -19q-124 0 -198.5 64t-74.5 179q0 120 74 199t186 79q31 0 67.5 -5.5t57.5 -10.5l21 -5v-27zM1084 284q-92 0 -174 -48v-107q0 -48 43.5 -82t112.5 -34q66 0 113.5 42.5
t47.5 107.5q0 61 -37.5 91t-105.5 30z" />
    <glyph glyph-name="afii10070_afii10106" horiz-adv-x="1377" 
d="M973 500v-243q8 6 29 16t66 22.5t89 12.5q79 0 123.5 -35.5t44.5 -106.5q0 -75 -58.5 -125.5t-139.5 -50.5q-85 0 -136.5 39.5t-51.5 93.5v350h-239q-3 -91 -13 -160t-35 -132.5t-64.5 -103.5t-103 -63.5t-149.5 -23.5q-125 0 -204 64.5t-79 178.5q1 120 67.5 199
t165.5 79q88 0 148.5 -54t60.5 -157l-5 -50h-405v-10q0 -1 0.5 -5t0.5 -7q0 -100 72.5 -156t177.5 -56q81 0 140.5 24t95.5 64t58.5 104t31 132t10.5 160h302zM1147 284q-92 0 -174 -48v-112q2 -46 45.5 -78.5t110.5 -32.5q66 0 113.5 42.5t47.5 107.5q0 61 -37.5 91
t-105.5 30zM285 486q-79 0 -135.5 -61.5t-64.5 -155.5q273 0 378 1q1 12 1 33q0 90 -51.5 136.5t-127.5 46.5z" />
    <glyph glyph-name="afii10101_afii10106" horiz-adv-x="1314" 
d="M458 465q-77 20 -143 20q-97 0 -160 -62t-71 -162h293v-21h-294v-5q0 -105 66.5 -162t175.5 -57q53 0 95.5 16t71 40.5t50 64.5t33 78t19 92t10 95t4.5 98h302v-243q8 6 29 16t66 22.5t89 12.5q79 0 123.5 -35.5t44.5 -106.5q0 -75 -58.5 -125.5t-139.5 -50.5
q-85 0 -136.5 39.5t-51.5 93.5v350h-239q-2 -57 -5 -100t-12 -96t-22.5 -91.5t-37 -77.5t-55 -63.5t-78 -39.5t-103.5 -15q-123 0 -197.5 64t-74.5 179q0 120 74 199t186 79q31 0 67.5 -5.5t57.5 -10.5l21 -5v-25zM1084 284q-92 0 -174 -48v-107q0 -48 43.5 -82t112.5 -34
q66 0 113.5 42.5t47.5 107.5q0 61 -37.5 91t-105.5 30z" />
    </font>
</defs>
</svg>
