<?xml version="1.0" standalone="no"?>
<!DOCTYPE svg PUBLIC "-//W3C//DTD SVG 1.1//EN" "http://www.w3.org/Graphics/SVG/1.1/DTD/svg11.dtd" >
<svg xmlns="http://www.w3.org/2000/svg" xmlns:xlink="http://www.w3.org/1999/xlink" version="1.1">
<metadata>
Created by FontForge 20161003 at Mon Aug  7 11:55:06 2017
 By www-data
Copyright \(c\) 2016 by Mateusz Machalski. All rights reserved.
</metadata>
<defs>
<font id="AlergiaWideExtraLight" horiz-adv-x="662" >
  <font-face 
    font-family="AlergiaWideExtraLight"
    font-weight="265"
    font-stretch="normal"
    units-per-em="1000"
    panose-1="2 0 3 3 0 0 0 0 0 0"
    ascent="800"
    descent="-200"
    x-height="487"
    cap-height="700"
    bbox="-88 -239 1381 1108"
    underline-thickness="50"
    underline-position="-200"
    unicode-range="U+0020-25CA"
  />
<missing-glyph horiz-adv-x="485" 
d="M90 740h308v-970h-308v970zM323 643v32h-160v-32h63v-36h-64v-32h161v32h-64v36h64zM259 482v68h-97v-101h161v33h-64zM194 517h32v-35h-32v35zM323 391v32h-161v-32h64v-36h-64v-32h97v68h64zM323 268v97h-32v-64h-129v-33h161zM323 137v109h-97v-54h33v22h32v-45h-97
v77h-32v-109h161zM323 -31v109h-161v-109h161zM194 46h97v-45h-97v45zM323 -85v32h-161v-32h68l-68 -46v-32h161v32h-99l68 46h31z" />
    <glyph glyph-name=".notdef" horiz-adv-x="485" 
d="M90 740h308v-970h-308v970zM323 643v32h-160v-32h63v-36h-64v-32h161v32h-64v36h64zM259 482v68h-97v-101h161v33h-64zM194 517h32v-35h-32v35zM323 391v32h-161v-32h64v-36h-64v-32h97v68h64zM323 268v97h-32v-64h-129v-33h161zM323 137v109h-97v-54h33v22h32v-45h-97
v77h-32v-109h161zM323 -31v109h-161v-109h161zM194 46h97v-45h-97v45zM323 -85v32h-161v-32h68l-68 -46v-32h161v32h-99l68 46h31z" />
    <glyph glyph-name=".null" horiz-adv-x="0" 
 />
    <glyph glyph-name="nonmarkingreturn" horiz-adv-x="333" 
 />
    <glyph glyph-name="space" unicode=" " horiz-adv-x="275" 
 />
    <glyph glyph-name="exclam" unicode="!" horiz-adv-x="184" 
d="M74 143l-5 557h47l-5 -557h-37zM92 -10q-14 0 -24.5 10.5t-10.5 24.5t10.5 25t24.5 11q22 0 31.5 -18t0 -36t-31.5 -17z" />
    <glyph glyph-name="numbersign" unicode="#" horiz-adv-x="842" 
d="M757 454l-4 -39h-142l-23 -230h142l-4 -39h-142l-15 -146h-44l15 146h-272l-15 -146h-45l15 146h-139l4 39h139l23 230h-138l4 39h138l15 146h45l-15 -146h272l15 146h44l-15 -146h142zM272 185h272l23 230h-272z" />
    <glyph glyph-name="dollar" unicode="$" 
d="M361 671l-26 -300q124 -28 166 -48q96 -46 96 -143q0 -89 -70 -139.5t-189 -50.5q-29 0 -37 1l-12 -141h-29l13 145q-91 13 -145 62.5t-63 134.5h46q15 -135 165 -159l26 301q-94 22 -146 53q-67 40 -67 127q0 90 70 142q69 52 176 54l11 120h29l-11 -121
q96 -6 155.5 -56.5t70.5 -134.5h-46q-10 68 -58 108t-125 45zM136 519q0 -64 52 -96q46 -28 118 -46l26 295q-87 -2 -141.5 -43.5t-54.5 -109.5zM336 29q99 0 155.5 38.5t56.5 107.5q0 40 -19 65q-22 29 -49 42q-49 22 -69 27q-27 7 -80 18l-26 -297q7 -1 31 -1z" />
    <glyph glyph-name="percent" unicode="%" horiz-adv-x="1052" 
d="M260 -17l504 750l27 -16l-504 -750zM386 667q48 -49 48 -137t-48 -136q-48 -49 -122 -49t-122 50t-48 135q0 86 47.5 136t122.5 50q74 0 122 -49zM173 643q-35 -41 -35 -113t35 -112q34 -40 91 -40q58 0 92 40t34 112q0 73 -34 113t-92 40q-57 0 -91 -40zM787 369
q76 0 123 -50t47 -136t-47 -136t-123 -50q-74 0 -122 50.5t-48 135.5t48 135.5t122 50.5zM787 31q58 0 92 40t35 112q-1 72 -35 112t-92 40q-57 0 -91.5 -40t-34.5 -112t34.5 -112t91.5 -40z" />
    <glyph glyph-name="ampersand" unicode="&#x26;" horiz-adv-x="722" 
d="M558 123l126 -123h-56l-96 93q-97 -103 -246 -103q-108 0 -170.5 47t-62.5 130q0 66 44 112t144 95q-70 67 -97.5 107.5t-27.5 83.5q0 67 56 106t133 39t134 -39q56 -39 56 -106q0 -59 -42 -103t-143 -96l7 -7l211 -207q55 79 66 193h44q-12 -128 -80 -222zM160 566
q0 -35 28 -73t93 -100h1q92 47 130.5 85.5t38.5 87.5t-41.5 78t-104.5 29q-62 0 -103.5 -29t-41.5 -78zM288 29q133 0 215 91l-223 216l-10 10q-88 -45 -129 -86t-41 -93q0 -66 49 -102t139 -36z" />
    <glyph glyph-name="parenleft" unicode="(" horiz-adv-x="332" 
d="M264 700h39q-164 -208 -164 -450q0 -252 164 -460h-39q-170 209 -170 460q0 241 170 450z" />
    <glyph glyph-name="parenright" unicode=")" horiz-adv-x="332" 
d="M29 700h39q170 -209 170 -450q0 -251 -170 -460h-39q164 208 164 460q0 242 -164 450z" />
    <glyph glyph-name="asterisk" unicode="*" horiz-adv-x="389" 
d="M340 647l11 -34l-128 -41l79 -109l-29 -21l-79 109l-78 -109l-29 21l78 109l-127 41l11 34l127 -41v134h36v-134z" />
    <glyph glyph-name="plus" unicode="+" 
d="M345 351h233v-37h-233v-223h-37v223h-224v37h224v234h37v-234z" />
    <glyph glyph-name="comma" unicode="," horiz-adv-x="165" 
d="M69 -129h-32l25 197h46z" />
    <glyph glyph-name="hyphen" unicode="-" horiz-adv-x="501" 
d="M416 283v-37h-332v37h332z" />
    <glyph glyph-name="period" unicode="." horiz-adv-x="184" 
d="M92 -10q-14 0 -24.5 10.5t-10.5 24.5t10.5 25t24.5 11q22 0 31.5 -18t0 -36t-31.5 -17z" />
    <glyph glyph-name="slash" unicode="/" horiz-adv-x="348" 
d="M-10 -20l324 760h44l-324 -760h-44z" />
    <glyph glyph-name="zero" unicode="0" horiz-adv-x="661" 
d="M136 613q70 97 194 97q123 0 195 -97q71 -98 71 -263t-71 -263q-72 -97 -195 -97q-124 0 -194 97q-71 98 -71 263t71 263zM171 115q57 -86 159 -86q101 0 160 86q57 85 57 235t-57 235q-59 86 -160 86q-102 0 -159 -86q-57 -85 -57 -235t57 -235z" />
    <glyph glyph-name="one" unicode="1" horiz-adv-x="495" 
d="M305 0h-46v597q-64 -79 -197 -85v38q169 15 211 150h32v-700z" />
    <glyph glyph-name="two" unicode="2" horiz-adv-x="671" 
d="M586 0h-526q0 58 26 106t67.5 81t92 62.5t100.5 56.5t91.5 55t67.5 66.5t26 83.5q0 70 -54 115.5t-147 45.5q-97 0 -155 -49.5t-59 -133.5h-46q0 105 72 163q71 58 188 58q114 0 182 -56q66 -56 66 -143q0 -48 -24.5 -89t-64.5 -71t-88 -57t-97 -53.5t-90 -54.5
t-68 -65.5t-30 -81.5h470v-39z" />
    <glyph glyph-name="three" unicode="3" horiz-adv-x="683" 
d="M434 356q84 -20 129 -66t45 -112q0 -88 -73 -137q-73 -51 -197 -51q-125 0 -201 64q-77 63 -77 177h47q1 -95 63 -149t168 -54q102 0 161.5 41t59.5 110q0 72 -67 114.5t-186 42.5v34v4q120 0 177 39.5t57 107.5q0 70 -53 110.5t-149 40.5q-99 0 -155 -48.5t-58 -134.5
h-46q0 104 71 163q70 58 188 58q116 0 183 -50t67 -136q0 -128 -154 -168z" />
    <glyph glyph-name="four" unicode="4" horiz-adv-x="728" 
d="M521 212h132v-38h-132v-174h-46v174h-405v29l421 496h30v-487zM475 622l-350 -410h350v410z" />
    <glyph glyph-name="five" unicode="5" horiz-adv-x="653" 
d="M330 436q106 0 177 -61q71 -62 71 -167q0 -100 -76 -158q-76 -60 -177 -60q-108 0 -184 59q-76 58 -76 158h47q2 -83 62 -130q59 -49 151 -49q81 0 143 50q61 49 61 130q0 88 -58 139q-59 50 -146 50q-127 0 -201 -60l-35 10l43 353h411v-39h-370l-36 -274q76 49 193 49z
" />
    <glyph glyph-name="six" unicode="6" horiz-adv-x="680" 
d="M349 436q121 0 189 -62q67 -61 67 -154q0 -95 -69 -163q-68 -67 -191 -67q-129 0 -199.5 80.5t-70.5 224.5q0 206 72.5 310.5t211.5 104.5q98 0 163 -53q63 -53 65 -134h-45q-1 62 -53 106q-50 43 -130 43q-230 0 -236 -346q31 52 90.5 81t135.5 29zM345 28q100 0 156 56
q55 55 55 136q0 76 -55 128q-55 51 -156 51q-94 0 -155 -47q-60 -48 -60 -125t57 -138t158 -61z" />
    <glyph glyph-name="seven" unicode="7" horiz-adv-x="618" 
d="M65 661v39h493v-21q-82 -141 -132 -231q-54 -100 -110 -216q-62 -127 -99 -232h-48q97 261 333 661h-437z" />
    <glyph glyph-name="eight" unicode="8" 
d="M420 366q77 -21 124.5 -67.5t47.5 -112.5q0 -85 -74 -141q-73 -55 -187 -55t-187 55q-74 56 -74 141q0 66 47.5 112.5t124.5 67.5q-59 16 -106 58q-46 40 -46 106q0 76 69 128q67 52 172 52t173 -52q68 -53 68 -128q0 -66 -45 -106q-49 -42 -107 -58zM138 525
q0 -60 56 -101t137 -41t137 41t56 101q0 63 -55 105t-138 42t-138 -42t-55 -105zM180 74q60 -45 151 -45q90 0 152 45q60 45 60 116q0 66 -60 112q-62 45 -152 45q-91 0 -151 -45q-61 -46 -61 -112q0 -71 61 -116z" />
    <glyph glyph-name="nine" unicode="9" horiz-adv-x="680" 
d="M335 710q129 0 199.5 -80.5t70.5 -224.5q0 -218 -63 -316.5t-205 -98.5q-100 0 -172 54t-73 133h45q3 -62 61 -105q59 -44 139 -44q116 0 167 81q52 82 53 266q-31 -52 -91 -81.5t-136 -29.5q-119 0 -187 62t-68 154q0 96 69 163q68 67 191 67zM335 301q93 0 155 48
q61 47 59 124q0 76 -56 138q-57 61 -158 61q-99 0 -155 -56t-56 -136q0 -76 55 -127q55 -52 156 -52z" />
    <glyph glyph-name="colon" unicode=":" horiz-adv-x="184" 
d="M92 416q-14 0 -24.5 10.5t-10.5 24.5t10.5 25t24.5 11q22 0 31.5 -18t0 -36t-31.5 -17zM92 -10q-14 0 -24.5 10.5t-10.5 24.5t10.5 25t24.5 11q22 0 31.5 -18t0 -36t-31.5 -17z" />
    <glyph glyph-name="semicolon" unicode=";" horiz-adv-x="174" 
d="M82 416q-14 0 -24.5 10.5t-10.5 24.5t10.5 25t24.5 11q22 0 31.5 -18t0 -36t-31.5 -17zM69 -129h-32l25 197h46z" />
    <glyph glyph-name="less" unicode="&#x3c;" horiz-adv-x="669" 
d="M84 351l501 201v-42l-454 -177l454 -178v-42l-501 201v37z" />
    <glyph glyph-name="equal" unicode="=" 
d="M578 407h-494v37h494v-37zM578 216h-494v37h494v-37z" />
    <glyph glyph-name="greater" unicode="&#x3e;" horiz-adv-x="669" 
d="M84 510v42l501 -201v-37l-501 -201v42l454 178z" />
    <glyph glyph-name="question" unicode="?" horiz-adv-x="600" 
d="M137 660q64 50 167 50q104 0 168 -51q63 -51 63 -137q0 -36 -7.5 -63t-28 -50.5t-31 -33t-41.5 -33.5q-27 -20 -42 -34t-34 -38t-28.5 -55.5t-10.5 -71.5h-37q0 106 56 162q34 32 52 47q8 7 25.5 21.5t26 22t20 21.5t18.5 30q15 33 15 76q0 68 -49.5 108.5t-134.5 40.5
q-86 0 -135.5 -39.5t-57.5 -114.5h-46q7 91 72 142zM294 61q22 0 31.5 -18t0 -36t-31.5 -17q-14 0 -24.5 10.5t-10.5 24.5t10.5 25t24.5 11z" />
    <glyph glyph-name="at" unicode="@" horiz-adv-x="973" 
d="M622 -58l-3 -33q-91 -21 -174 -21q-95 0 -171 28t-122 78q-92 98 -92 243q0 124 68 221t177 146q108 49 240 49q167 0 268 -80q100 -79 100 -234q3 -104 -53 -192t-141 -87q-60 0 -82.5 31t-21.5 101q-13 -43 -64 -88q-52 -44 -114 -44q-82 0 -128.5 42t-46.5 129
q0 117 75 190q76 74 189 74q67 0 148 -22l-23 -261q-5 -65 9.5 -92.5t61.5 -27.5q45 0 82 38t54 95q16 52 16 109q0 141 -87 213.5t-245 72.5q-182 4 -313.5 -104.5t-129.5 -276.5q0 -64 20.5 -119.5t61 -100.5t109.5 -71t159 -26q82 0 173 20zM443 93q67 0 119 57
q51 56 59 144l13 153q-58 15 -112 15q-96 0 -158 -65q-61 -64 -61 -160q0 -144 140 -144z" />
    <glyph glyph-name="A" unicode="A" horiz-adv-x="700" 
d="M682 0h-51l-108 246h-350l-106 -246h-49l304 700h52zM347 649l-157 -364h316z" />
    <glyph glyph-name="B" unicode="B" horiz-adv-x="705" 
d="M483 364q167 -33 167 -177q0 -87 -66 -137t-178 -50h-302h-10v700h47h235q116 0 179 -44t63 -131q0 -57 -35.5 -99t-99.5 -62zM370 661h-229v-280h233q94 0 145 37t51 104q0 139 -200 139zM141 39h258q98 0 149.5 39t51.5 111q0 82 -56 117.5t-169 35.5h-234v-303z" />
    <glyph glyph-name="C" unicode="C" horiz-adv-x="774" 
d="M423 29q86 0 151 41.5t94 127.5h46q-34 -107 -113.5 -158.5t-177.5 -49.5q-159 0 -258 105q-100 103 -100 255t100 256q99 104 258 104q98 2 177.5 -49.5t113.5 -158.5h-46q-29 86 -94 127.5t-151 41.5q-139 0 -224 -93q-85 -92 -85 -228t85 -228q85 -93 224 -93z" />
    <glyph glyph-name="D" unicode="D" horiz-adv-x="762" 
d="M146 700h194q154 0 258 -97q104 -98 104 -253t-104 -253q-104 -97 -258 -97h-231h-10v700h47zM146 38h191q133 0 225 86q91 85 91 226t-91 226q-92 86 -225 86h-191v-624z" />
    <glyph glyph-name="E" unicode="E" 
d="M146 350v-311h452v-39h-489h-10v700h47h442v-39h-442v-272h412v-39h-412z" />
    <glyph glyph-name="F" unicode="F" horiz-adv-x="613" 
d="M563 700v-39h-422v-293h412v-39h-412v-329h-47v700h47h422z" />
    <glyph glyph-name="G" unicode="G" horiz-adv-x="813" 
d="M520 310v35h197v-345h-35l-6 126q-32 -65 -101 -100.5t-158 -35.5q-157 0 -252 104t-95 256t100 256q99 104 258 104q98 2 177.5 -49.5t113.5 -158.5h-46q-29 86 -94 127.5t-151 41.5q-138 0 -224 -93q-85 -92 -85 -228t83 -228q82 -93 221 -93q104 0 178 56
q73 55 73 161v64h-154z" />
    <glyph glyph-name="H" unicode="H" horiz-adv-x="785" 
d="M643 389v311h47v-700h-47v350h-502v-350h-47v700h47v-311h502z" />
    <glyph glyph-name="I" unicode="I" horiz-adv-x="245" 
d="M99 0v700h47v-700h-47z" />
    <glyph glyph-name="J" unicode="J" horiz-adv-x="464" 
d="M323 152v548h46v-559q0 -67 -49 -109q-50 -42 -124 -42q-75 0 -121.5 43t-46.5 114h45q0 -54 34 -86t89 -32q57 0 92 33.5t35 89.5z" />
    <glyph glyph-name="K" unicode="K" horiz-adv-x="707" 
d="M352 385l351 -385h-58l-327 353l-177 -168v-185h-47v700h47v-453l485 453h58z" />
    <glyph glyph-name="L" unicode="L" horiz-adv-x="593" 
d="M141 700v-661h429v-39h-466h-10v700h47z" />
    <glyph glyph-name="M" unicode="M" horiz-adv-x="899" 
d="M450 143l326 557h34v-700h-46v588l-305 -515h-18l-305 515v-588h-47v700h35z" />
    <glyph glyph-name="N" unicode="N" horiz-adv-x="802" 
d="M661 90v610h46v-700h-31l-535 611v-611h-47v700h32z" />
    <glyph glyph-name="O" unicode="O" horiz-adv-x="836" 
d="M418 710q160 0 259 -104q99 -105 99 -256q0 -152 -99 -255q-99 -105 -259 -105q-159 0 -258 105q-100 103 -100 255t100 256q99 104 258 104zM194 122q85 -93 224 -93q138 0 224 93q85 92 85 228t-85 228q-86 93 -224 93q-139 0 -224 -93q-85 -92 -85 -228t85 -228z" />
    <glyph glyph-name="P" unicode="P" horiz-adv-x="655" 
d="M146 700h202q267 0 267 -198t-267 -198h-202v-304h-47v700h47zM146 343h188q117 0 175.5 37t58.5 122t-58.5 122t-175.5 37h-188v-318z" />
    <glyph glyph-name="Q" unicode="Q" horiz-adv-x="836" 
d="M477 -6q33 -122 240 -122v-39q-118 0 -191 40t-91 117h-17q-159 0 -258 105q-100 103 -100 255t100 256q99 104 258 104q160 0 259 -104q99 -105 99 -256q0 -135 -82 -235q-83 -102 -217 -121zM194 578q-85 -92 -85 -228t85 -228q85 -93 224 -93q138 0 224 93
q85 92 85 228t-85 228q-86 93 -224 93q-139 0 -224 -93z" />
    <glyph glyph-name="R" unicode="R" horiz-adv-x="671" 
d="M491 252l167 -252h-52l-159 240q-36 51 -72 67q-38 16 -121 16h-108v-323h-47v700h47h207q112 2 181 -44t71 -144q0 -156 -193 -181q41 -20 79 -79zM146 661v-299h193l3 -13l-3 13q219 0 219 150q0 79 -55.5 114t-163.5 35h-193z" />
    <glyph glyph-name="S" unicode="S" 
d="M136 519q0 -44 25.5 -73.5t66 -44.5t89.5 -26t98.5 -23.5t90 -30.5t66 -53.5t25.5 -87.5q0 -89 -70 -139.5t-189 -50.5q-118 0 -190.5 51.5t-82.5 150.5h46q9 -82 68.5 -122.5t156.5 -40.5q99 0 155.5 38.5t56.5 107.5q0 44 -25.5 73.5t-66 44.5t-89.5 26t-97.5 23.5
t-89 30.5t-66 53.5t-25.5 87.5q0 91 71 144q70 52 180 52q107 0 173 -51t77 -141h-46q-11 74 -65 114t-139 40q-88 0 -146 -41q-58 -42 -58 -112z" />
    <glyph glyph-name="T" unicode="T" horiz-adv-x="644" 
d="M346 700h280v-39h-280v-661h-47v661h-281v39h328z" />
    <glyph glyph-name="U" unicode="U" horiz-adv-x="765" 
d="M624 312v388h46v-398q0 -182 -125 -266q-67 -46 -163 -46q-72 0 -129 26t-90.5 70.5t-51 99t-17.5 116.5v398h47v-388q0 -120 59 -202q58 -81 182 -81q64 0 112 23.5t75.5 64t41 89.5t13.5 106z" />
    <glyph glyph-name="V" unicode="V" horiz-adv-x="667" 
d="M340 55l260 645h49l-284 -700h-51l-296 700h51z" />
    <glyph glyph-name="W" unicode="W" horiz-adv-x="932" 
d="M678 58l187 642h49l-209 -700h-51l-188 578l-188 -578h-51l-209 700h51l185 -642l190 585h43h1z" />
    <glyph glyph-name="X" unicode="X" horiz-adv-x="685" 
d="M371 361l296 -361h-57l-270 329l-265 -329h-57l296 360l-279 340h57l253 -308l247 308h56z" />
    <glyph glyph-name="Y" unicode="Y" horiz-adv-x="665" 
d="M596 700h51l-285 -404v-296h-47v296l-297 404h52l270 -363z" />
    <glyph glyph-name="Z" unicode="Z" horiz-adv-x="637" 
d="M599 674l-502 -635h512v-39h-581v26l502 635h-482v39h551v-26z" />
    <glyph glyph-name="bracketleft" unicode="[" horiz-adv-x="314" 
d="M285 700v-35l-146 1v-840h146v-36h-191v910h191z" />
    <glyph glyph-name="backslash" unicode="\" horiz-adv-x="383" 
d="M8 740h44l324 -760h-44z" />
    <glyph glyph-name="bracketright" unicode="]" horiz-adv-x="314" 
d="M175 666l-146 -1v35h191v-910h-191v36h146v840z" />
    <glyph glyph-name="underscore" unicode="_" horiz-adv-x="471" 
d="M471 -84h-471v29h471v-29z" />
    <glyph glyph-name="a" unicode="a" horiz-adv-x="555" 
d="M509 27q18 0 22 1v-36q-24 -2 -29 -2q-46 0 -71 26t-28 67q-24 -41 -74.5 -67t-112.5 -26q-77 0 -122.5 35t-45.5 93q0 78 73.5 122t224.5 44q40 0 52 -1v24q0 83 -30 117.5t-108 34.5q-82 0 -169 -38v42q93 34 173 34q92 0 135 -43t43 -137v-209q0 -81 67 -81zM223 26
q69 0 122 38t53 107v81q-11 1 -48 1q-257 0 -257 -131q0 -45 34.5 -70.5t95.5 -25.5z" />
    <glyph glyph-name="b" unicode="b" horiz-adv-x="634" 
d="M334 497q105 0 176 -68q69 -69 69 -186t-69 -185q-71 -68 -176 -68q-78 0 -133 39q-58 38 -77 87v-116h-45v740h45v-369q19 48 77 88q56 38 133 38zM328 27q89 0 146 58q57 59 57 158q0 101 -57 159t-146 58q-87 0 -145 -58q-59 -59 -59 -159q0 -101 59 -158
q58 -58 145 -58z" />
    <glyph glyph-name="c" unicode="c" horiz-adv-x="581" 
d="M308 27q71 0 119.5 33t64.5 93h44q-18 -77 -78.5 -120t-149.5 -43q-107 0 -183 68q-75 68 -75 185q0 119 75 186q76 68 183 68q89 0 149.5 -43t78.5 -120h-44q-16 60 -64.5 93t-119.5 33q-88 0 -149 -57q-62 -59 -62 -160q0 -102 61 -159q62 -57 150 -57z" />
    <glyph glyph-name="d" unicode="d" horiz-adv-x="634" 
d="M509 371v369h45v-740h-45v116q-19 -49 -76 -87q-56 -39 -134 -39q-104 0 -174 68q-70 67 -70 185q0 117 70 186q70 68 174 68q78 0 134 -38q57 -40 76 -88zM160 85q57 -58 145 -58t146 58q58 57 58 158t-58 159t-146 58t-145 -58q-58 -58 -58 -159q0 -100 58 -158z" />
    <glyph glyph-name="e" unicode="e" horiz-adv-x="601" 
d="M313 27q71 0 119.5 32t64.5 90h44q-18 -75 -78 -117t-150 -42q-107 0 -183 68q-75 68 -75 185q0 119 74 187q73 67 181 67q104 0 170 -57q66 -59 66 -175h-443q-1 -5 -1 -22q0 -102 61 -159t150 -57zM311 462q-80 0 -134.5 -43t-69.5 -122h391q-3 78 -54 121.5t-133 43.5
z" />
    <glyph glyph-name="f" unicode="f" horiz-adv-x="416" 
d="M316 713q-137 0 -137 -151v-75h224v-37h-224v-450h-45v450h-102v37h102v78q0 90 46.5 137.5t131.5 47.5q59 0 101 -19v-38q-38 20 -97 20z" />
    <glyph glyph-name="g" unicode="g" horiz-adv-x="595" 
d="M162 65l232 -17q82 -6 121.5 -35t39.5 -85q0 -72 -81 -115q-82 -43 -202 -43q-232 0 -232 137q0 73 66 132q-39 25 -39 76q0 55 56 100q-55 46 -55 116v1q1 72 58 118q56 46 150 46q99 0 158 -53q46 54 119 54v-40q-56 0 -95 -40q26 -38 26 -85v-1q-1 -72 -58 -118
q-56 -46 -150 -46q-73 0 -127 30q-43 -33 -43 -74q0 -54 56 -58zM111 332q0 -58 45 -94t120 -36t120 36t45 94q0 57 -45 93t-120 36t-120 -36t-45 -93zM274 -196q99 0 169 32q69 33 69 88q0 41 -30.5 60.5t-98.5 24.5l-244 18q-58 -51 -58 -115q0 -55 45.5 -81.5
t147.5 -26.5z" />
    <glyph glyph-name="h" unicode="h" horiz-adv-x="632" 
d="M347 497q201 0 201 -214v-283h-45v276q0 181 -164 181q-81 0 -146 -56q-64 -57 -64 -154v-247h-45v740h45v-374q32 60 88 95.5t130 35.5z" />
    <glyph glyph-name="i" unicode="i" horiz-adv-x="214" 
d="M107 621q-14 0 -24.5 10.5t-10.5 24.5t10.5 25t24.5 11q22 0 31.5 -18t0 -36t-31.5 -17zM129 0h-45v487h45v-487z" />
    <glyph glyph-name="j" unicode="j" horiz-adv-x="214" 
d="M107 692q22 0 31.5 -18t0 -36t-31.5 -17q-14 0 -24.5 10.5t-10.5 24.5t10.5 25t24.5 11zM84 -50v537h45v-549q0 -80 -44.5 -124t-130.5 -44v37q67 0 98.5 35t31.5 108z" />
    <glyph glyph-name="k" unicode="k" horiz-adv-x="580" 
d="M306 292l249 -292h-55l-225 264l-146 -133v-131h-45v740h45v-554l335 301h56z" />
    <glyph glyph-name="l" unicode="l" horiz-adv-x="214" 
d="M129 0h-45v740h45v-740z" />
    <glyph glyph-name="m" unicode="m" horiz-adv-x="1011" 
d="M736 497q88 0 139 -54.5t51 -159.5v-283h-45v275q0 89 -41.5 135.5t-116.5 46.5q-78 0 -137 -56q-58 -57 -58 -154v-247h-45v275q0 90 -41.5 136t-117.5 46q-78 0 -137 -56q-58 -57 -58 -154v-247h-45v487h45v-121q72 131 208 131q71 0 120 -37t64 -108q27 66 84 105.5
t131 39.5z" />
    <glyph glyph-name="n" unicode="n" horiz-adv-x="632" 
d="M347 497q201 0 201 -214v-283h-45v276q0 181 -164 181q-81 0 -146 -56q-64 -57 -64 -154v-247h-45v487h45v-121q32 60 88 95.5t130 35.5z" />
    <glyph glyph-name="o" unicode="o" horiz-adv-x="626" 
d="M130 429q76 68 183 68t183 -68q75 -67 75 -186q0 -117 -75 -185q-76 -68 -183 -68t-183 68q-75 68 -75 185q0 119 75 186zM163 84q61 -57 150 -57t150 57t61 159q0 103 -61 160t-150 57t-150 -57t-61 -160q0 -102 61 -159z" />
    <glyph glyph-name="p" unicode="p" horiz-adv-x="639" 
d="M339 496q105 0 175 -68q69 -68 69 -185t-69 -185q-70 -68 -175 -68q-72 0 -128.5 34.5t-81.5 87.5v-332h-45v707h45v-113q25 53 81.5 87.5t128.5 34.5zM187 85q58 -58 146 -58t146 58q57 57 57 158t-57 159q-59 57 -146 57t-146 -57q-58 -58 -58 -159t58 -158z" />
    <glyph glyph-name="q" unicode="q" horiz-adv-x="639" 
d="M510 374v113h45v-707h-45v332q-25 -53 -81.5 -87.5t-128.5 -34.5q-105 0 -175 68q-69 68 -69 185t69 185q70 68 175 68q72 0 128.5 -34.5t81.5 -87.5zM161 85q57 -58 145 -58t146 58q58 57 58 158t-58 159q-59 57 -146 57q-88 0 -145 -57q-58 -58 -58 -159t58 -158z" />
    <glyph glyph-name="r" unicode="r" horiz-adv-x="346" 
d="M129 487v-123q26 65 76 99t117 34v-43q-31 0 -62.5 -10.5t-62 -32.5t-49.5 -63.5t-19 -96.5v-251h-45v487h45z" />
    <glyph glyph-name="s" unicode="s" horiz-adv-x="526" 
d="M117 367q0 -19 11 -34t25.5 -24.5t41 -18.5t46 -13.5t54 -11.5t51.5 -11q56 -14 90.5 -44.5t34.5 -75.5q0 -72 -59.5 -108t-162.5 -36q-100 0 -184 38v42q78 -42 183 -42q82 0 129 25.5t47 75.5q0 38 -36.5 60t-88 32.5t-103.5 22.5t-88.5 41.5t-36.5 77.5
q0 63 56.5 98.5t151.5 35.5q85 0 175 -34v-40q-93 38 -174 38q-75 0 -119 -25t-44 -69z" />
    <glyph glyph-name="t" unicode="t" horiz-adv-x="444" 
d="M389 485v-37h-210v-289q0 -72 26.5 -101.5t82.5 -29.5t101 19v-39q-49 -18 -105 -18q-150 0 -150 154v304h-102v37h102v119l45 19v-138h210z" />
    <glyph glyph-name="u" unicode="u" horiz-adv-x="622" 
d="M493 241v246h45v-487h-45v120q-70 -130 -209 -130q-91 0 -145.5 54.5t-54.5 159.5v283h45v-276q0 -92 44.5 -136.5t122.5 -44.5q74 0 136 57q61 57 61 154z" />
    <glyph glyph-name="v" unicode="v" horiz-adv-x="535" 
d="M275 58l194 429h51l-227 -487h-39l-239 487h53z" />
    <glyph glyph-name="w" unicode="w" horiz-adv-x="827" 
d="M595 59l164 428h47l-190 -487h-38l-165 400l-164 -400h-39l-190 487h50l162 -428l160 390h41h2z" />
    <glyph glyph-name="x" unicode="x" horiz-adv-x="553" 
d="M469 487h53l-218 -242l217 -245h-54l-193 218l-191 -218h-53l219 245l-214 242h54l191 -216z" />
    <glyph glyph-name="y" unicode="y" horiz-adv-x="535" 
d="M275 58l194 429h51l-226 -487q-5 -9 -14.5 -29t-12.5 -27q-7 -15 -26 -48q-26 -43 -63 -78q-27 -25 -62.5 -35.5t-88.5 -12.5v41q78 -5 139 52q24 22 57 87q1 3 28 58l-236 479h53z" />
    <glyph glyph-name="z" unicode="z" horiz-adv-x="574" 
d="M45 0v25l391 425h-371v37h440v-25l-392 -425h406v-37h-474z" />
    <glyph glyph-name="braceleft" unicode="{" horiz-adv-x="284" 
d="M255 711v-30q-60 -2 -88.5 -29.5t-28.5 -86.5q0 -23 11 -89q10 -60 10 -87q0 -105 -85 -139q85 -36 85 -139q0 -27 -10 -87q-11 -66 -11 -89q0 -59 28.5 -86t88.5 -29v-31q-161 0 -161 143q0 30 10 91q9 63 9 87q0 58 -24.5 89.5t-62.5 35.5v30q39 4 63 35t24 89
q0 25 -9 89q-10 61 -10 91q0 142 161 142z" />
    <glyph glyph-name="bar" unicode="|" horiz-adv-x="227" 
d="M94 -150v980h38v-980h-38z" />
    <glyph glyph-name="braceright" unicode="}" horiz-adv-x="284" 
d="M171 389q0 -58 24 -89t63 -35v-30q-38 -4 -62.5 -35.5t-24.5 -89.5q0 -27 10 -87q9 -64 9 -91q0 -143 -161 -143v31q60 2 88.5 29t28.5 86q0 29 -10 89q-11 66 -11 87q0 103 85 139q-85 34 -85 139q0 21 11 87q10 60 10 89q0 59 -28.5 86.5t-88.5 29.5v30q161 0 161 -142
q0 -27 -9 -91q-10 -61 -10 -89z" />
    <glyph glyph-name="asciitilde" unicode="~" horiz-adv-x="663" 
d="M553 384l25 -14q-12 -39 -48 -66t-75 -27q-54 0 -129 35t-119 35q-30 0 -58.5 -21t-38.5 -49l-26 14q13 39 48.5 66t74.5 27q55 0 130 -35t118 -35q30 0 59 21t39 49z" />
    <glyph glyph-name="exclamdown" unicode="&#xa1;" horiz-adv-x="184" 
d="M92 497q22 1 31.5 -17t0 -36t-31.5 -18q-14 0 -24.5 11t-10.5 25t10.5 24.5t24.5 10.5zM116 -213h-47l5 557h37z" />
    <glyph glyph-name="cent" unicode="&#xa2;" horiz-adv-x="581" 
d="M308 26q74 0 124.5 34t60.5 92h43q-12 -74 -74.5 -118t-153.5 -44q-18 0 -23 1l-12 -138h-27l12 141q-90 15 -149 80t-59 169q0 118 73 185q74 68 179 69l12 138h27l-12 -139q84 -5 140 -48t67 -113h-43q-9 54 -54.5 87t-112.5 37l-38 -432q5 -1 20 -1zM96 243
q0 -87 45 -142.5t120 -70.5l38 430q-85 -3 -144 -59q-59 -57 -59 -158z" />
    <glyph glyph-name="sterling" unicode="&#xa3;" horiz-adv-x="673" 
d="M151 39q41 16 109 14q67 -3 119 -13q53 -10 120 -10q65 0 109 19v-42q-52 -19 -122 -18q-65 1 -128 13q-61 11 -124 14q-69 2 -114 -16l-12 21q73 142 67 225q-3 29 -15 88h-96v35h89q-13 69 -13 149q0 88 67 140t167 52q99 0 161 -51t73 -144h-45q-11 76 -59.5 116.5
t-129.5 40.5q-82 0 -134 -41.5t-52 -110.5q0 -61 15 -151h256v-35h-249q8 -46 10 -83q0 -33 -15 -89q-17 -56 -54 -123z" />
    <glyph glyph-name="currency" unicode="&#xa4;" horiz-adv-x="757" 
d="M55 501l30 30l92 -99q89 65 201 65v-40q-107 0 -184 -62q-78 -61 -78 -155t78 -155q77 -62 184 -62v-40q-112 0 -201 65l-92 -99l-30 30l98 90q-79 73 -79 171t79 171zM702 501l-98 -90q79 -73 79 -171t-79 -171l98 -90l-30 -30l-92 99q-89 -65 -201 -65v40q106 0 185 62
q77 62 77 155t-77 155q-79 62 -185 62v40q112 0 201 -65l92 99z" />
    <glyph glyph-name="yen" unicode="&#xa5;" horiz-adv-x="665" 
d="M596 700h51l-262 -371h204v-36h-227v-101h227v-36h-227v-156h-47v156h-220v36h220v101h-220v36h196l-273 371h52l270 -363z" />
    <glyph glyph-name="brokenbar" unicode="&#xa6;" horiz-adv-x="227" 
d="M94 524v306h38v-306h-38zM94 -150v306h38v-306h-38z" />
    <glyph glyph-name="section" unicode="&#xa7;" horiz-adv-x="616" 
d="M507 52q44 -41 44 -103q0 -88 -63.5 -138t-178.5 -50q-220 0 -244 192h45q24 -154 199 -154q96 0 145.5 38.5t49.5 110.5q0 44 -30 75t-75 46.5t-97.5 33.5t-98.5 36.5t-77.5 54.5t-34.5 88t31 137q-43 40 -43 103q0 88 61.5 138t172.5 50q210 0 234 -192h-45
q-12 79 -56.5 116.5t-132.5 37.5q-91 0 -139 -39t-48 -110q0 -43 29 -74t76 -47q150 -52 197 -71q38 -18 62 -39t39 -53.5t9.5 -79.5t-31.5 -107zM153 396q-17 -47 -18.5 -84.5t9.5 -62.5t33 -45t49.5 -32.5t61.5 -24.5t65.5 -21t65.5 -22.5t58 -28.5q17 47 19 84t-9 62.5
t-33.5 45.5t-50 32.5t-61.5 25t-65.5 21.5t-65.5 22t-58 28z" />
    <glyph glyph-name="copyright" unicode="&#xa9;" horiz-adv-x="840" 
d="M166 605q105 105 254 105q148 0 255 -105q105 -107 105 -255q0 -149 -105 -254q-106 -106 -255 -106t-254 106q-106 105 -106 254t106 255zM185 114q98 -98 235 -98t235 98q97 97 97 236q0 140 -97 237t-235 97t-235 -97t-97 -237q0 -139 97 -236zM423 526
q-61 0 -101.5 -48.5t-40.5 -127.5t40.5 -127t101.5 -48q91 0 114 80h33q-12 -52 -51 -80t-96 -28q-76 0 -126 56t-50 147q0 92 50 148t126 56q57 0 96 -28t51 -80h-33q-23 80 -114 80z" />
    <glyph glyph-name="guillemotleft" unicode="&#xab;" horiz-adv-x="604" 
d="M104 246v37l196 141v-49l-154 -110l154 -106v-49zM303 283l196 141v-49l-154 -110l154 -106v-49l-196 136v37z" />
    <glyph glyph-name="logicalnot" unicode="&#xac;" 
d="M84 444h494v-228h-40v191h-454v37z" />
    <glyph glyph-name="registered" unicode="&#xae;" horiz-adv-x="840" 
d="M675 96q-106 -106 -255 -106t-254 106q-106 105 -106 254t106 255q105 105 254 105q148 0 255 -105q105 -107 105 -255q0 -149 -105 -254zM186 114q98 -98 234 -98q137 0 235 98q97 97 97 236t-97 236q-98 98 -235 98q-136 0 -234 -98t-98 -236t98 -236zM329 153h-33v395
h133q60 0 96.5 -26.5t36.5 -79.5q0 -86 -102 -101q31 -19 56 -55q29 -43 69 -113q2 -3 5.5 -10t5.5 -10h-37q-63 113 -90 143q-37 40 -89 40h-51v-183zM329 520v-157h92q108 0 108 79q0 78 -108 78h-92z" />
    <glyph glyph-name="degree" unicode="&#xb0;" horiz-adv-x="350" 
d="M260 505q-35 -35 -85 -35t-85 35t-35 85t35 85t85 35t85 -35t35 -85t-35 -85zM115 529q24 -25 60 -25t61 25q24 25 24 61t-24 61q-25 25 -61 25t-60 -25q-25 -25 -25 -61t25 -61z" />
    <glyph glyph-name="plusminus" unicode="&#xb1;" 
d="M345 627v-234h233v-37h-233v-223h-37v223h-224v37h224v234h37zM578 0h-494v37h494v-37z" />
    <glyph glyph-name="paragraph" unicode="&#xb6;" horiz-adv-x="714" 
d="M341 729h278v-879h-46v840h-232v-840h-47v464q-98 0 -168 61q-71 62 -71 147q0 84 71 146q70 61 168 61h47z" />
    <glyph glyph-name="middot" unicode="&#xb7;" horiz-adv-x="184" 
d="M92 229q-14 0 -24.5 10.5t-10.5 24.5t10.5 25t24.5 11q22 0 31.5 -18t0 -36t-31.5 -17z" />
    <glyph glyph-name="guillemotright" unicode="&#xbb;" horiz-adv-x="604" 
d="M259 265l-154 110v49l196 -141v-37l-196 -136v49zM304 375v49l196 -141v-37l-196 -136v49l154 106z" />
    <glyph glyph-name="onequarter" unicode="&#xbc;" horiz-adv-x="1046" 
d="M254 -19l504 750l23 -13l-505 -751zM86 584v24q104 9 131 93h19v-435h-28v371q-40 -49 -122 -53zM880 132h82v-24h-82v-108h-29v108h-252v18l262 308h19v-302zM851 386l-217 -254h217v254z" />
    <glyph glyph-name="onehalf" unicode="&#xbd;" horiz-adv-x="1068" 
d="M254 -19l504 750l23 -13l-505 -751zM236 266h-28v371q-40 -49 -122 -53v24q104 9 131 93h19v-435zM984 0h-327q-1 30 12.5 57t28 43.5t48 38.5t48 29.5t53.5 27.5q103 54 103 121q0 43 -33.5 71.5t-91.5 28.5q-60 0 -96 -30.5t-37 -82.5h-29q0 63 44.5 100t117.5 37
q70 0 112 -34.5t42 -89.5q0 -37 -29.5 -71t-55.5 -50t-81 -44q-10 -5 -15 -8q-102 -53 -106 -120h292v-24z" />
    <glyph glyph-name="threequarters" unicode="&#xbe;" horiz-adv-x="1130" 
d="M339 -19l504 750l23 -13l-505 -751zM425 370q0 -54 -46 -85.5t-122 -31.5q-79 0 -126 40t-47 109h29q1 -59 39.5 -92.5t104.5 -33.5q63 0 100 25.5t37 68.5q0 45 -41.5 71.5t-115.5 26.5v21v2q74 0 109.5 25t35.5 67q0 43 -33 68t-92 25q-61 0 -96 -30t-36 -83h-29
q0 64 43.5 100.5t117.5 36.5q72 0 113.5 -31.5t41.5 -84.5q0 -80 -95 -104q51 -13 79.5 -41.5t28.5 -68.5zM964 132h82v-24h-82v-108h-29v108h-252v18l262 308h19v-302zM935 386l-217 -254h217v254z" />
    <glyph glyph-name="questiondown" unicode="&#xbf;" horiz-adv-x="506" 
d="M259 426q-22 0 -31.5 18t0 36t31.5 17q14 0 24.5 -10.5t10.5 -24.5t-10.5 -25t-24.5 -11zM442 -31h46q-8 -91 -71.5 -141.5t-167.5 -50.5t-167 51q-64 51 -64 137q0 36 8 63t27.5 50t32 33.5t41.5 33.5q27 20 41.5 34t33.5 38t28.5 55.5t10.5 71.5h37q0 -107 -56 -161
q-24 -24 -51 -48q-7 -6 -25.5 -21t-26.5 -22.5t-19.5 -21.5t-18.5 -30q-16 -32 -16 -76q0 -68 49.5 -108.5t134.5 -40.5q86 0 135.5 39.5t57.5 114.5z" />
    <glyph glyph-name="Agrave" unicode="&#xc0;" horiz-adv-x="700" 
d="M282 900l121 -132h-39l-139 132h57zM682 0h-51l-108 246h-350l-106 -246h-49l304 700h52zM347 649l-157 -364h316z" />
    <glyph glyph-name="Aacute" unicode="&#xc1;" horiz-adv-x="700" 
d="M456 900h57l-139 -132h-39zM682 0h-51l-108 246h-350l-106 -246h-49l304 700h52zM347 649l-157 -364h316z" />
    <glyph glyph-name="Acircumflex" unicode="&#xc2;" horiz-adv-x="700" 
d="M448 768l-96 113l-97 -113h-49l129 132h33l129 -132h-49zM682 0h-51l-108 246h-350l-106 -246h-49l304 700h52zM347 649l-157 -364h316z" />
    <glyph glyph-name="Atilde" unicode="&#xc3;" horiz-adv-x="700" 
d="M279 854q-59 0 -74 -80h-28q13 115 102 115q31 0 56.5 -20t47.5 -40t44 -20q58 0 73 80h29q-7 -56 -34.5 -85.5t-67.5 -29.5q-31 0 -56.5 20t-47.5 40t-44 20zM682 0h-51l-108 246h-350l-106 -246h-49l304 700h52zM347 649l-157 -364h316z" />
    <glyph glyph-name="Adieresis" unicode="&#xc4;" horiz-adv-x="700" 
d="M280 795q-16 -16 -37.5 -7t-21.5 31q0 13 10.5 23.5t23.5 10.5q23 0 32 -21t-7 -37zM473 795q-17 -16 -38 -7t-21 31t21 31t38 -7q11 -10 11 -24t-11 -24zM682 0h-51l-108 246h-350l-106 -246h-49l304 700h52zM347 649l-157 -364h316z" />
    <glyph glyph-name="Aring" unicode="&#xc5;" horiz-adv-x="700" 
d="M682 0h-51l-108 246h-350l-106 -246h-49l296 682q-33 11 -52.5 38t-19.5 62q0 43 31 73.5t74 30.5t73.5 -30.5t30.5 -73.5q0 -33 -19.5 -60.5t-50.5 -38.5zM274 782q0 -31 21 -53t52 -22q30 0 51 22t21 53q0 30 -21 52t-51 22t-51.5 -22t-21.5 -52zM347 649l-157 -364
h316z" />
    <glyph glyph-name="AE" unicode="&#xc6;" horiz-adv-x="1013" 
d="M497 350v-311h452v-39h-489h-10v246h-277l-106 -246h-49l303 700h139h37h442v-39h-442v-272h412v-39h-412zM352 661l-162 -376h260v376h-98z" />
    <glyph glyph-name="Ccedilla" unicode="&#xc7;" horiz-adv-x="774" 
d="M423 29q86 0 151 41.5t94 127.5h46q-34 -107 -113.5 -158.5t-177.5 -49.5h-6l-17 -56q62 10 102 -10t40 -65q0 -43 -30 -66t-82 -23q-44 0 -79 18v28q35 -18 75 -18q79 0 79 59q0 38 -44 49q-45 12 -103 -6l29 92q-145 12 -233 115q-89 103 -89 243q0 152 100 256
q99 104 258 104q98 2 177.5 -49.5t113.5 -158.5h-46q-29 86 -94 127.5t-151 41.5q-139 0 -224 -93q-85 -92 -85 -228t85 -228q85 -93 224 -93z" />
    <glyph glyph-name="Egrave" unicode="&#xc8;" 
d="M287 900l121 -132h-39l-139 132h57zM146 350v-311h452v-39h-489h-10v700h47h442v-39h-442v-272h412v-39h-412z" />
    <glyph glyph-name="Eacute" unicode="&#xc9;" 
d="M461 900h57l-139 -132h-39zM146 350v-311h452v-39h-489h-10v700h47h442v-39h-442v-272h412v-39h-412z" />
    <glyph glyph-name="Ecircumflex" unicode="&#xca;" 
d="M453 768l-96 113l-97 -113h-49l129 132h33l129 -132h-49zM146 350v-311h452v-39h-489h-10v700h47h442v-39h-442v-272h412v-39h-412z" />
    <glyph glyph-name="Edieresis" unicode="&#xcb;" 
d="M285 795q-17 -16 -38 -7t-21 31t21 31t38 -7q11 -10 11 -24t-11 -24zM478 795q-16 -16 -37.5 -7t-21.5 31q0 13 10.5 23.5t23.5 10.5q23 0 32 -21t-7 -37zM146 350v-311h452v-39h-489h-10v700h47h442v-39h-442v-272h412v-39h-412z" />
    <glyph glyph-name="Igrave" unicode="&#xcc;" horiz-adv-x="245" 
d="M53 900l121 -132h-39l-139 132h57zM99 0v700h47v-700h-47z" />
    <glyph glyph-name="Iacute" unicode="&#xcd;" horiz-adv-x="245" 
d="M145 768h-39l121 132h57zM99 0v700h47v-700h-47z" />
    <glyph glyph-name="Icircumflex" unicode="&#xce;" horiz-adv-x="245" 
d="M106 900h33l129 -132h-49l-96 113l-97 -113h-49zM146 0h-47v700h47v-700z" />
    <glyph glyph-name="Idieresis" unicode="&#xcf;" horiz-adv-x="245" 
d="M51 795q-17 -16 -38 -7t-21 31t21 31t38 -7q11 -10 11 -24t-11 -24zM244 795q-16 -16 -37.5 -7t-21.5 31q0 13 10.5 23.5t23.5 10.5q23 0 32 -21t-7 -37zM99 0v700h47v-700h-47z" />
    <glyph glyph-name="Eth" unicode="&#xd0;" horiz-adv-x="762" 
d="M146 700h194q154 0 258 -97q104 -98 104 -253t-104 -253q-104 -97 -258 -97h-231h-10v334h-98v34h98v332h47zM146 38h191q133 0 225 86q91 85 91 226t-91 226q-92 86 -225 86h-191v-294h165v-34h-165v-296z" />
    <glyph glyph-name="Ntilde" unicode="&#xd1;" horiz-adv-x="802" 
d="M327 854q-59 0 -74 -80h-28q13 115 102 115q31 0 56.5 -20t47.5 -40t44 -20q58 0 73 80h29q-7 -56 -34.5 -85.5t-67.5 -29.5q-31 0 -56.5 20t-47.5 40t-44 20zM661 90v610h46v-700h-31l-535 611v-611h-47v700h32z" />
    <glyph glyph-name="Ograve" unicode="&#xd2;" horiz-adv-x="836" 
d="M348 900l121 -132h-39l-139 132h57zM418 710q160 0 259 -104q99 -105 99 -256q0 -152 -99 -255q-99 -105 -259 -105q-159 0 -258 105q-100 103 -100 255t100 256q99 104 258 104zM194 122q85 -93 224 -93q138 0 224 93q85 92 85 228t-85 228q-86 93 -224 93
q-139 0 -224 -93q-85 -92 -85 -228t85 -228z" />
    <glyph glyph-name="Oacute" unicode="&#xd3;" horiz-adv-x="836" 
d="M440 768h-39l121 132h57zM418 710q160 0 259 -104q99 -105 99 -256q0 -152 -99 -255q-99 -105 -259 -105q-159 0 -258 105q-100 103 -100 255t100 256q99 104 258 104zM194 122q85 -93 224 -93q138 0 224 93q85 92 85 228t-85 228q-86 93 -224 93q-139 0 -224 -93
q-85 -92 -85 -228t85 -228z" />
    <glyph glyph-name="Ocircumflex" unicode="&#xd4;" horiz-adv-x="836" 
d="M514 768l-96 113l-97 -113h-49l129 132h33l129 -132h-49zM418 710q160 0 259 -104q99 -105 99 -256q0 -152 -99 -255q-99 -105 -259 -105q-159 0 -258 105q-100 103 -100 255t100 256q99 104 258 104zM194 122q85 -93 224 -93q138 0 224 93q85 92 85 228t-85 228
q-86 93 -224 93q-139 0 -224 -93q-85 -92 -85 -228t85 -228z" />
    <glyph glyph-name="Otilde" unicode="&#xd5;" horiz-adv-x="836" 
d="M345 854q-59 0 -74 -80h-28q13 115 102 115q31 0 56.5 -20t47.5 -40t44 -20q58 0 73 80h29q-7 -56 -34.5 -85.5t-67.5 -29.5q-31 0 -56.5 20t-47.5 40t-44 20zM418 710q160 0 259 -104q99 -105 99 -256q0 -152 -99 -255q-99 -105 -259 -105q-159 0 -258 105
q-100 103 -100 255t100 256q99 104 258 104zM194 122q85 -93 224 -93q138 0 224 93q85 92 85 228t-85 228q-86 93 -224 93q-139 0 -224 -93q-85 -92 -85 -228t85 -228z" />
    <glyph glyph-name="Odieresis" unicode="&#xd6;" horiz-adv-x="836" 
d="M346 795q-16 -16 -37.5 -7t-21.5 31q0 13 10.5 23.5t23.5 10.5q23 0 32 -21t-7 -37zM539 795q-17 -16 -38 -7t-21 31t21 31t38 -7q11 -10 11 -24t-11 -24zM418 710q160 0 259 -104q99 -105 99 -256q0 -152 -99 -255q-99 -105 -259 -105q-159 0 -258 105
q-100 103 -100 255t100 256q99 104 258 104zM194 122q85 -93 224 -93q138 0 224 93q85 92 85 228t-85 228q-86 93 -224 93q-139 0 -224 -93q-85 -92 -85 -228t85 -228z" />
    <glyph glyph-name="multiply" unicode="&#xd7;" horiz-adv-x="543" 
d="M434 519l25 -25l-163 -162l162 -162l-25 -25l-162 162l-162 -162l-25 26l162 161l-162 162l25 25l162 -162z" />
    <glyph glyph-name="Oslash" unicode="&#xd8;" horiz-adv-x="836" 
d="M677 694l-40 -55q66 -51 103 -126.5t37 -162.5q0 -149 -101 -255q-100 -105 -258 -105q-116 0 -205 62l-39 -54l-25 17l40 55q-61 51 -95 124t-34 156q0 148 101 255q101 105 257 105q108 0 194 -54l40 55zM107 350q0 -73 28 -137t79 -109l374 518q-76 49 -170 49
q-136 0 -223 -93q-88 -94 -88 -228zM418 29q137 0 225 94q87 93 87 227q0 76 -31 143t-87 112l-375 -520q80 -56 181 -56z" />
    <glyph glyph-name="Ugrave" unicode="&#xd9;" horiz-adv-x="765" 
d="M312 900l121 -132h-39l-139 132h57zM624 312v388h46v-398q0 -182 -125 -266q-67 -46 -163 -46q-72 0 -129 26t-90.5 70.5t-51 99t-17.5 116.5v398h47v-388q0 -120 59 -202q58 -81 182 -81q64 0 112 23.5t75.5 64t41 89.5t13.5 106z" />
    <glyph glyph-name="Uacute" unicode="&#xda;" horiz-adv-x="765" 
d="M486 900h57l-139 -132h-39zM624 312v388h46v-398q0 -182 -125 -266q-67 -46 -163 -46q-72 0 -129 26t-90.5 70.5t-51 99t-17.5 116.5v398h47v-388q0 -120 59 -202q58 -81 182 -81q64 0 112 23.5t75.5 64t41 89.5t13.5 106z" />
    <glyph glyph-name="Ucircumflex" unicode="&#xdb;" horiz-adv-x="765" 
d="M478 768l-96 113l-97 -113h-49l129 132h33l129 -132h-49zM624 312v388h46v-398q0 -182 -125 -266q-67 -46 -163 -46q-72 0 -129 26t-90.5 70.5t-51 99t-17.5 116.5v398h47v-388q0 -120 59 -202q58 -81 182 -81q64 0 112 23.5t75.5 64t41 89.5t13.5 106z" />
    <glyph glyph-name="Udieresis" unicode="&#xdc;" horiz-adv-x="765" 
d="M310 795q-16 -16 -37.5 -7t-21.5 31q0 13 10.5 23.5t23.5 10.5q23 0 32 -21t-7 -37zM503 795q-17 -16 -38 -7t-21 31t21 31t38 -7q11 -10 11 -24t-11 -24zM624 312v388h46v-398q0 -182 -125 -266q-67 -46 -163 -46q-72 0 -129 26t-90.5 70.5t-51 99t-17.5 116.5v398h47
v-388q0 -120 59 -202q58 -81 182 -81q64 0 112 23.5t75.5 64t41 89.5t13.5 106z" />
    <glyph glyph-name="Yacute" unicode="&#xdd;" horiz-adv-x="665" 
d="M439 900h57l-139 -132h-39zM596 700h51l-285 -404v-296h-47v296l-297 404h52l270 -363z" />
    <glyph glyph-name="Thorn" unicode="&#xde;" horiz-adv-x="686" 
d="M141 577h202q124 0 204 -53q79 -52 79 -164q-1 -75 -41 -125.5t-101.5 -72t-140.5 -19.5h-202v-143h-47v182v395v123h47v-123zM141 182h189q249 0 249 178t-249 178h-189v-356z" />
    <glyph glyph-name="germandbls" unicode="&#xdf;" horiz-adv-x="694" 
d="M432 381q0 -31 21.5 -54t52 -38t60.5 -32t51.5 -47t21.5 -72q0 -75 -57 -111q-58 -37 -140 -37q-64 0 -106 19v38q44 -21 105 -21q66 0 109.5 28t43.5 80q0 35 -21.5 59.5t-52 39.5t-60.5 31t-51.5 44.5t-21.5 69.5q0 62 42 104q43 43 44 100q0 65 -38 98t-108 33
q-69 0 -108.5 -36.5t-39.5 -106.5v-570h-45v450h-102v37h102v86q0 85 52.5 131t140.5 46q90 0 140.5 -43t50.5 -121q0 -63 -43 -110t-43 -95z" />
    <glyph glyph-name="agrave" unicode="&#xe0;" horiz-adv-x="555" 
d="M198 727l112 -162h-34l-130 162h52zM509 27q18 0 22 1v-36q-24 -2 -29 -2q-46 0 -71 26t-28 67q-24 -41 -74.5 -67t-112.5 -26q-77 0 -122.5 35t-45.5 93q0 78 73.5 122t224.5 44q40 0 52 -1v24q0 83 -30 117.5t-108 34.5q-82 0 -169 -38v42q93 34 173 34q92 0 135 -43
t43 -137v-209q0 -81 67 -81zM223 26q69 0 122 38t53 107v81q-11 1 -48 1q-257 0 -257 -131q0 -45 34.5 -70.5t95.5 -25.5z" />
    <glyph glyph-name="aacute" unicode="&#xe1;" horiz-adv-x="555" 
d="M373 727h52l-130 -162h-34zM509 27q18 0 22 1v-36q-24 -2 -29 -2q-46 0 -71 26t-28 67q-24 -41 -74.5 -67t-112.5 -26q-77 0 -122.5 35t-45.5 93q0 78 73.5 122t224.5 44q40 0 52 -1v24q0 83 -30 117.5t-108 34.5q-82 0 -169 -38v42q93 34 173 34q92 0 135 -43t43 -137
v-209q0 -81 67 -81zM223 26q69 0 122 38t53 107v81q-11 1 -48 1q-257 0 -257 -131q0 -45 34.5 -70.5t95.5 -25.5z" />
    <glyph glyph-name="acircumflex" unicode="&#xe2;" horiz-adv-x="555" 
d="M377 565l-99 137l-99 -137h-47l128 162h36l128 -162h-47zM509 27q18 0 22 1v-36q-24 -2 -29 -2q-46 0 -71 26t-28 67q-24 -41 -74.5 -67t-112.5 -26q-77 0 -122.5 35t-45.5 93q0 78 73.5 122t224.5 44q40 0 52 -1v24q0 83 -30 117.5t-108 34.5q-82 0 -169 -38v42
q93 34 173 34q92 0 135 -43t43 -137v-209q0 -81 67 -81zM223 26q69 0 122 38t53 107v81q-11 1 -48 1q-257 0 -257 -131q0 -45 34.5 -70.5t95.5 -25.5z" />
    <glyph glyph-name="atilde" unicode="&#xe3;" horiz-adv-x="555" 
d="M205 671q-59 0 -74 -80h-28q13 115 102 115q31 0 56.5 -20t47.5 -40t44 -20q58 0 73 80h29q-7 -56 -34.5 -85.5t-67.5 -29.5q-31 0 -56.5 20t-47.5 40t-44 20zM509 27q18 0 22 1v-36q-24 -2 -29 -2q-46 0 -71 26t-28 67q-24 -41 -74.5 -67t-112.5 -26q-77 0 -122.5 35
t-45.5 93q0 78 73.5 122t224.5 44q40 0 52 -1v24q0 83 -30 117.5t-108 34.5q-82 0 -169 -38v42q93 34 173 34q92 0 135 -43t43 -137v-209q0 -81 67 -81zM223 26q69 0 122 38t53 107v81q-11 1 -48 1q-257 0 -257 -131q0 -45 34.5 -70.5t95.5 -25.5z" />
    <glyph glyph-name="adieresis" unicode="&#xe4;" horiz-adv-x="555" 
d="M206 634q-16 -16 -37.5 -7t-21.5 31q0 14 10.5 24t23.5 10q23 0 32 -21t-7 -37zM399 634q-16 -15 -34.5 -8.5t-23 23.5t8.5 33q15 15 34 8.5t23.5 -23.5t-8.5 -33zM509 27q18 0 22 1v-36q-24 -2 -29 -2q-46 0 -71 26t-28 67q-24 -41 -74.5 -67t-112.5 -26
q-77 0 -122.5 35t-45.5 93q0 78 73.5 122t224.5 44q40 0 52 -1v24q0 83 -30 117.5t-108 34.5q-82 0 -169 -38v42q93 34 173 34q92 0 135 -43t43 -137v-209q0 -81 67 -81zM223 26q69 0 122 38t53 107v81q-11 1 -48 1q-257 0 -257 -131q0 -45 34.5 -70.5t95.5 -25.5z" />
    <glyph glyph-name="aring" unicode="&#xe5;" horiz-adv-x="555" 
d="M278 555q-44 0 -74.5 30.5t-30.5 74.5q-2 32 17.5 58t47.5 37.5t60.5 7t53.5 -28.5q24 -21 28.5 -53.5t-7 -60.5t-37.5 -47.5t-58 -17.5zM278 734q-30 0 -51.5 -22t-21.5 -52q0 -31 21 -53t52 -22q30 0 51 22t21 53q0 30 -21 52t-51 22zM509 27q18 0 22 1v-36
q-24 -2 -29 -2q-46 0 -71 26t-28 67q-24 -41 -74.5 -67t-112.5 -26q-77 0 -122.5 35t-45.5 93q0 78 73.5 122t224.5 44q40 0 52 -1v24q0 83 -30 117.5t-108 34.5q-82 0 -169 -38v42q93 34 173 34q92 0 135 -43t43 -137v-209q0 -81 67 -81zM223 26q69 0 122 38t53 107v81
q-11 1 -48 1q-257 0 -257 -131q0 -45 34.5 -70.5t95.5 -25.5z" />
    <glyph glyph-name="ae" unicode="&#xe6;" horiz-adv-x="945" 
d="M657 27q71 0 119.5 32t64.5 90h44q-18 -75 -78 -117t-150 -42q-78 0 -141.5 37t-93.5 103q-18 -63 -74 -101.5t-132 -38.5q-77 0 -122.5 35t-45.5 93q0 84 87.5 129.5t262.5 38.5v21q0 82 -31 117t-108 35q-75 0 -168 -38v42q93 34 173 34q145 0 171 -113
q33 54 90.5 83.5t128.5 29.5q104 0 170 -57q66 -59 66 -175h-443q-1 -5 -1 -22q0 -102 61 -159t150 -57zM655 462q-80 0 -134.5 -43t-69.5 -122h391q-3 78 -54 121.5t-133 43.5zM223 26q76 0 125 43q50 42 50 109v77q-163 6 -234 -32t-71 -101q0 -45 34.5 -70.5t95.5 -25.5z
" />
    <glyph glyph-name="ccedilla" unicode="&#xe7;" horiz-adv-x="581" 
d="M308 27q71 0 119.5 33t64.5 93h44q-17 -74 -74 -117t-142 -46l-17 -56q62 10 102 -10t40 -65q0 -43 -30 -66t-82 -23q-45 0 -79 18v28q34 -18 75 -18q79 0 79 59q0 38 -44 49q-44 12 -103 -6l28 91q-102 6 -170 73q-69 66 -69 179q0 119 75 186q76 68 183 68
q89 0 149.5 -43t78.5 -120h-44q-16 60 -64.5 93t-119.5 33q-88 0 -149 -57q-62 -59 -62 -160q0 -102 61 -159q62 -57 150 -57z" />
    <glyph glyph-name="egrave" unicode="&#xe8;" horiz-adv-x="601" 
d="M220 727l112 -162h-34l-130 162h52zM313 27q71 0 119.5 32t64.5 90h44q-18 -75 -78 -117t-150 -42q-107 0 -183 68q-75 68 -75 185q0 119 74 187q73 67 181 67q104 0 170 -57q66 -59 66 -175h-443q-1 -5 -1 -22q0 -102 61 -159t150 -57zM311 462q-80 0 -134.5 -43
t-69.5 -122h391q-3 78 -54 121.5t-133 43.5z" />
    <glyph glyph-name="eacute" unicode="&#xe9;" horiz-adv-x="601" 
d="M395 727h52l-130 -162h-34zM313 27q71 0 119.5 32t64.5 90h44q-18 -75 -78 -117t-150 -42q-107 0 -183 68q-75 68 -75 185q0 119 74 187q73 67 181 67q104 0 170 -57q66 -59 66 -175h-443q-1 -5 -1 -22q0 -102 61 -159t150 -57zM311 462q-80 0 -134.5 -43t-69.5 -122h391
q-3 78 -54 121.5t-133 43.5z" />
    <glyph glyph-name="ecircumflex" unicode="&#xea;" horiz-adv-x="601" 
d="M399 565l-99 137l-99 -137h-47l128 162h36l128 -162h-47zM313 27q71 0 119.5 32t64.5 90h44q-18 -75 -78 -117t-150 -42q-107 0 -183 68q-75 68 -75 185q0 119 74 187q73 67 181 67q104 0 170 -57q66 -59 66 -175h-443q-1 -5 -1 -22q0 -102 61 -159t150 -57zM311 462
q-80 0 -134.5 -43t-69.5 -122h391q-3 78 -54 121.5t-133 43.5z" />
    <glyph glyph-name="edieresis" unicode="&#xeb;" horiz-adv-x="601" 
d="M228 634q-16 -16 -37.5 -7t-21.5 31q0 14 10.5 24t23.5 10q23 0 32 -21t-7 -37zM421 634q-16 -15 -34.5 -8.5t-23 23.5t8.5 33q15 15 34 8.5t23.5 -23.5t-8.5 -33zM313 27q71 0 119.5 32t64.5 90h44q-18 -75 -78 -117t-150 -42q-107 0 -183 68q-75 68 -75 185
q0 119 74 187q73 67 181 67q104 0 170 -57q66 -59 66 -175h-443q-1 -5 -1 -22q0 -102 61 -159t150 -57zM311 462q-80 0 -134.5 -43t-69.5 -122h391q-3 78 -54 121.5t-133 43.5z" />
    <glyph glyph-name="igrave" unicode="&#xec;" horiz-adv-x="214" 
d="M27 727l112 -162h-34l-130 162h52zM129 0h-45v487h45v-487z" />
    <glyph glyph-name="iacute" unicode="&#xed;" horiz-adv-x="214" 
d="M124 565h-34l112 162h52zM129 0h-45v487h45v-487z" />
    <glyph glyph-name="icircumflex" unicode="&#xee;" horiz-adv-x="214" 
d="M89 727h36l128 -162h-47l-99 137l-99 -137h-47zM129 0h-45v487h45v-487z" />
    <glyph glyph-name="idieresis" unicode="&#xef;" horiz-adv-x="214" 
d="M35 634q-16 -15 -34.5 -8.5t-23 23.5t8.5 33q15 15 34 8.5t23.5 -23.5t-8.5 -33zM228 634q-16 -16 -37.5 -7t-21.5 31q0 14 10.5 24t23.5 10q23 0 32 -21t-7 -37zM129 0h-45v487h45v-487z" />
    <glyph glyph-name="eth" unicode="&#xf0;" horiz-adv-x="609" 
d="M442 749l-101 -70q213 -159 213 -429q0 -120 -67 -186q-67 -67 -174 -67t-183 68q-75 67 -75 185t69 185q70 68 175 68q120 0 189 -88q-42 141 -180 241l-112 -78l-16 25l102 71q-53 34 -93 53l30 26q56 -27 96 -56l112 78zM313 34q89 0 142 57t54 159q0 101 -58 159
q-58 57 -146 57t-145 -57q-58 -58 -58 -159q0 -102 61 -159t150 -57z" />
    <glyph glyph-name="ntilde" unicode="&#xf1;" horiz-adv-x="632" 
d="M243 671q-59 0 -74 -80h-28q13 115 102 115q31 0 56.5 -20t47.5 -40t44 -20q58 0 73 80h29q-7 -56 -34.5 -85.5t-67.5 -29.5q-31 0 -56.5 20t-47.5 40t-44 20zM347 497q201 0 201 -214v-283h-45v276q0 181 -164 181q-81 0 -146 -56q-64 -57 -64 -154v-247h-45v487h45
v-121q32 60 88 95.5t130 35.5z" />
    <glyph glyph-name="ograve" unicode="&#xf2;" horiz-adv-x="626" 
d="M233 727l112 -162h-34l-130 162h52zM130 429q76 68 183 68t183 -68q75 -67 75 -186q0 -117 -75 -185q-76 -68 -183 -68t-183 68q-75 68 -75 185q0 119 75 186zM163 84q61 -57 150 -57t150 57t61 159q0 103 -61 160t-150 57t-150 -57t-61 -160q0 -102 61 -159z" />
    <glyph glyph-name="oacute" unicode="&#xf3;" horiz-adv-x="626" 
d="M330 565h-34l112 162h52zM130 429q76 68 183 68t183 -68q75 -67 75 -186q0 -117 -75 -185q-76 -68 -183 -68t-183 68q-75 68 -75 185q0 119 75 186zM163 84q61 -57 150 -57t150 57t61 159q0 103 -61 160t-150 57t-150 -57t-61 -160q0 -102 61 -159z" />
    <glyph glyph-name="ocircumflex" unicode="&#xf4;" horiz-adv-x="626" 
d="M412 565l-99 137l-99 -137h-47l128 162h36l128 -162h-47zM130 429q76 68 183 68t183 -68q75 -67 75 -186q0 -117 -75 -185q-76 -68 -183 -68t-183 68q-75 68 -75 185q0 119 75 186zM163 84q61 -57 150 -57t150 57t61 159q0 103 -61 160t-150 57t-150 -57t-61 -160
q0 -102 61 -159z" />
    <glyph glyph-name="otilde" unicode="&#xf5;" horiz-adv-x="626" 
d="M240 671q-59 0 -74 -80h-28q13 115 102 115q31 0 56.5 -20t47.5 -40t44 -20q58 0 73 80h29q-7 -56 -34.5 -85.5t-67.5 -29.5q-31 0 -56.5 20t-47.5 40t-44 20zM130 429q76 68 183 68t183 -68q75 -67 75 -186q0 -117 -75 -185q-76 -68 -183 -68t-183 68q-75 68 -75 185
q0 119 75 186zM163 84q61 -57 150 -57t150 57t61 159q0 103 -61 160t-150 57t-150 -57t-61 -160q0 -102 61 -159z" />
    <glyph glyph-name="odieresis" unicode="&#xf6;" horiz-adv-x="626" 
d="M241 634q-16 -15 -34.5 -8.5t-23 23.5t8.5 33q15 15 34 8.5t23.5 -23.5t-8.5 -33zM434 634q-16 -16 -37.5 -7t-21.5 31q0 14 10.5 24t23.5 10q23 0 32 -21t-7 -37zM130 429q76 68 183 68t183 -68q75 -67 75 -186q0 -117 -75 -185q-76 -68 -183 -68t-183 68
q-75 68 -75 185q0 119 75 186zM163 84q61 -57 150 -57t150 57t61 159q0 103 -61 160t-150 57t-150 -57t-61 -160q0 -102 61 -159z" />
    <glyph glyph-name="divide" unicode="&#xf7;" 
d="M329 512q-14 0 -24.5 10.5t-10.5 24.5t10.5 25t24.5 11q22 0 31.5 -18t0 -36t-31.5 -17zM578 314h-494v37h494v-37zM329 80q-14 0 -24.5 10.5t-10.5 24.5t10.5 25t24.5 11q22 0 31.5 -18t0 -36t-31.5 -17z" />
    <glyph glyph-name="oslash" unicode="&#xf8;" horiz-adv-x="626" 
d="M508 492l-33 -45q96 -71 96 -204q0 -117 -75 -185q-76 -68 -183 -68q-79 0 -144 38l-37 -51l-24 17l37 51q-90 71 -90 198q0 119 76 186q76 68 182 68q76 0 137 -34l34 46zM101 243q0 -104 68 -166l258 354q-53 29 -114 29q-89 0 -150 -57q-62 -57 -62 -160zM313 26
q89 0 151 57t62 160q0 112 -75 172l-259 -355q52 -34 121 -34z" />
    <glyph glyph-name="ugrave" unicode="&#xf9;" horiz-adv-x="622" 
d="M231 727l112 -162h-34l-130 162h52zM493 241v246h45v-487h-45v120q-70 -130 -209 -130q-91 0 -145.5 54.5t-54.5 159.5v283h45v-276q0 -92 44.5 -136.5t122.5 -44.5q74 0 136 57q61 57 61 154z" />
    <glyph glyph-name="uacute" unicode="&#xfa;" horiz-adv-x="622" 
d="M406 727h52l-130 -162h-34zM493 241v246h45v-487h-45v120q-70 -130 -209 -130q-91 0 -145.5 54.5t-54.5 159.5v283h45v-276q0 -92 44.5 -136.5t122.5 -44.5q74 0 136 57q61 57 61 154z" />
    <glyph glyph-name="ucircumflex" unicode="&#xfb;" horiz-adv-x="622" 
d="M410 565l-99 137l-99 -137h-47l128 162h36l128 -162h-47zM493 241v246h45v-487h-45v120q-70 -130 -209 -130q-91 0 -145.5 54.5t-54.5 159.5v283h45v-276q0 -92 44.5 -136.5t122.5 -44.5q74 0 136 57q61 57 61 154z" />
    <glyph glyph-name="udieresis" unicode="&#xfc;" horiz-adv-x="622" 
d="M239 634q-16 -15 -34.5 -8.5t-23 23.5t8.5 33q15 15 34 8.5t23.5 -23.5t-8.5 -33zM432 634q-16 -16 -37.5 -7t-21.5 31q0 14 10.5 24t23.5 10q23 0 32 -21t-7 -37zM493 241v246h45v-487h-45v120q-70 -130 -209 -130q-91 0 -145.5 54.5t-54.5 159.5v283h45v-276
q0 -92 44.5 -136.5t122.5 -44.5q74 0 136 57q61 57 61 154z" />
    <glyph glyph-name="yacute" unicode="&#xfd;" horiz-adv-x="535" 
d="M291 565h-34l112 162h52zM275 58l194 429h51l-226 -487q-5 -9 -14.5 -29t-12.5 -27q-7 -15 -26 -48q-26 -43 -63 -78q-27 -25 -62.5 -35.5t-88.5 -12.5v41q78 -5 139 52q24 22 57 87q1 3 28 58l-236 479h53z" />
    <glyph glyph-name="thorn" unicode="&#xfe;" horiz-adv-x="639" 
d="M339 496q105 0 175 -68q69 -68 69 -185t-69 -185q-70 -68 -175 -68q-72 0 -128.5 34.5t-81.5 87.5v-332h-45v960h45v-366q25 53 81.5 87.5t128.5 34.5zM187 85q58 -58 146 -58t146 58q57 57 57 158t-57 159q-59 57 -146 57t-146 -57q-58 -58 -58 -159t58 -158z" />
    <glyph glyph-name="ydieresis" unicode="&#xff;" horiz-adv-x="535" 
d="M202 634q-16 -16 -37.5 -7t-21.5 31q0 14 10.5 24t23.5 10q23 0 32 -21t-7 -37zM395 634q-16 -15 -34.5 -8.5t-23 23.5t8.5 33q15 15 34 8.5t23.5 -23.5t-8.5 -33zM275 58l194 429h51l-226 -487q-5 -9 -14.5 -29t-12.5 -27q-7 -15 -26 -48q-26 -43 -63 -78
q-27 -25 -62.5 -35.5t-88.5 -12.5v41q78 -5 139 52q24 22 57 87q1 3 28 58l-236 479h53z" />
    <glyph glyph-name="Amacron" unicode="&#x100;" horiz-adv-x="700" 
d="M205 831h294v-35h-294v35zM682 0h-51l-108 246h-350l-106 -246h-49l304 700h52zM347 649l-157 -364h316z" />
    <glyph glyph-name="amacron" unicode="&#x101;" horiz-adv-x="555" 
d="M131 664h294v-35h-294v35zM509 27q18 0 22 1v-36q-24 -2 -29 -2q-46 0 -71 26t-28 67q-24 -41 -74.5 -67t-112.5 -26q-77 0 -122.5 35t-45.5 93q0 78 73.5 122t224.5 44q40 0 52 -1v24q0 83 -30 117.5t-108 34.5q-82 0 -169 -38v42q93 34 173 34q92 0 135 -43t43 -137
v-209q0 -81 67 -81zM223 26q69 0 122 38t53 107v81q-11 1 -48 1q-257 0 -257 -131q0 -45 34.5 -70.5t95.5 -25.5z" />
    <glyph glyph-name="Abreve" unicode="&#x102;" horiz-adv-x="700" 
d="M352 766q-129 0 -147 129h30q20 -95 117 -95t118 95h29q-17 -129 -147 -129zM682 0h-51l-108 246h-350l-106 -246h-49l304 700h52zM347 649l-157 -364h316z" />
    <glyph glyph-name="abreve" unicode="&#x103;" horiz-adv-x="555" 
d="M396 719h29q-15 -146 -147 -146t-147 146h30q9 -57 37.5 -84.5t79.5 -27.5t79.5 27.5t38.5 84.5zM509 27q18 0 22 1v-36q-24 -2 -29 -2q-46 0 -71 26t-28 67q-24 -41 -74.5 -67t-112.5 -26q-77 0 -122.5 35t-45.5 93q0 78 73.5 122t224.5 44q40 0 52 -1v24
q0 83 -30 117.5t-108 34.5q-82 0 -169 -38v42q93 34 173 34q92 0 135 -43t43 -137v-209q0 -81 67 -81zM223 26q69 0 122 38t53 107v81q-11 1 -48 1q-257 0 -257 -131q0 -45 34.5 -70.5t95.5 -25.5z" />
    <glyph glyph-name="Aogonek" unicode="&#x104;" horiz-adv-x="700" 
d="M682 0h-13q-119 -65 -119 -135q0 -28 15 -45t42 -17q31 0 62 16v-32q-36 -17 -70 -17q-41 0 -65.5 24.5t-24.5 63.5q0 82 121 143l-107 245h-350l-106 -246h-49l304 700h52zM347 649l-157 -364h316z" />
    <glyph glyph-name="aogonek" unicode="&#x105;" horiz-adv-x="555" 
d="M420 -134q0 -28 15 -45t42 -17q31 0 62 16v-32q-36 -17 -70 -17q-41 0 -65.5 24.5t-24.5 63.5q0 73 102 133q-35 6 -55 31t-23 60q-24 -41 -74.5 -67t-112.5 -26q-77 0 -122.5 35t-45.5 93q0 78 73.5 122t224.5 44q40 0 52 -1v24q0 83 -30 117.5t-108 34.5
q-82 0 -169 -38v42q93 34 173 34q92 0 135 -43t43 -137v-209q0 -81 67 -81q18 0 22 1v-26l8 -1q-1 -1 -4 -2t-4 -2v-5l-10 -1q-101 -60 -101 -125zM223 26q69 0 122 38t53 107v81q-11 1 -48 1q-257 0 -257 -131q0 -45 34.5 -70.5t95.5 -25.5z" />
    <glyph glyph-name="Cacute" unicode="&#x106;" horiz-adv-x="774" 
d="M429 768h-39l121 132h57zM423 29q86 0 151 41.5t94 127.5h46q-34 -107 -113.5 -158.5t-177.5 -49.5q-159 0 -258 105q-100 103 -100 255t100 256q99 104 258 104q98 2 177.5 -49.5t113.5 -158.5h-46q-29 86 -94 127.5t-151 41.5q-139 0 -224 -93q-85 -92 -85 -228
t85 -228q85 -93 224 -93z" />
    <glyph glyph-name="cacute" unicode="&#x107;" horiz-adv-x="581" 
d="M325 565h-34l112 162h52zM308 27q71 0 119.5 33t64.5 93h44q-18 -77 -78.5 -120t-149.5 -43q-107 0 -183 68q-75 68 -75 185q0 119 75 186q76 68 183 68q89 0 149.5 -43t78.5 -120h-44q-16 60 -64.5 93t-119.5 33q-88 0 -149 -57q-62 -59 -62 -160q0 -102 61 -159
q62 -57 150 -57z" />
    <glyph glyph-name="Cdotaccent" unicode="&#x10a;" horiz-adv-x="774" 
d="M407 782q-14 0 -24.5 10.5t-10.5 24.5t10.5 25t24.5 11q22 0 31.5 -18t0 -36t-31.5 -17zM423 29q86 0 151 41.5t94 127.5h46q-34 -107 -113.5 -158.5t-177.5 -49.5q-159 0 -258 105q-100 103 -100 255t100 256q99 104 258 104q98 2 177.5 -49.5t113.5 -158.5h-46
q-29 86 -94 127.5t-151 41.5q-139 0 -224 -93q-85 -92 -85 -228t85 -228q85 -93 224 -93z" />
    <glyph glyph-name="cdotaccent" unicode="&#x10b;" horiz-adv-x="581" 
d="M308 621q-14 0 -24.5 10.5t-10.5 24.5t10.5 25t24.5 11q22 0 31.5 -18t0 -36t-31.5 -17zM308 27q71 0 119.5 33t64.5 93h44q-18 -77 -78.5 -120t-149.5 -43q-107 0 -183 68q-75 68 -75 185q0 119 75 186q76 68 183 68q89 0 149.5 -43t78.5 -120h-44q-16 60 -64.5 93
t-119.5 33q-88 0 -149 -57q-62 -59 -62 -160q0 -102 61 -159q62 -57 150 -57z" />
    <glyph glyph-name="Ccaron" unicode="&#x10c;" horiz-adv-x="774" 
d="M552 900l-129 -132h-33l-129 132h49l97 -113l96 113h49zM423 29q86 0 151 41.5t94 127.5h46q-34 -107 -113.5 -158.5t-177.5 -49.5q-159 0 -258 105q-100 103 -100 255t100 256q99 104 258 104q98 2 177.5 -49.5t113.5 -158.5h-46q-29 86 -94 127.5t-151 41.5
q-139 0 -224 -93q-85 -92 -85 -228t85 -228q85 -93 224 -93z" />
    <glyph glyph-name="ccaron" unicode="&#x10d;" horiz-adv-x="581" 
d="M453 727l-129 -162h-33l-129 162h47l99 -139l98 139h47zM308 27q71 0 119.5 33t64.5 93h44q-18 -77 -78.5 -120t-149.5 -43q-107 0 -183 68q-75 68 -75 185q0 119 75 186q76 68 183 68q89 0 149.5 -43t78.5 -120h-44q-16 60 -64.5 93t-119.5 33q-88 0 -149 -57
q-62 -59 -62 -160q0 -102 61 -159q62 -57 150 -57z" />
    <glyph glyph-name="Dcaron" unicode="&#x10e;" horiz-adv-x="762" 
d="M522 900l-129 -132h-33l-129 132h49l97 -113l96 113h49zM146 700h194q154 0 258 -97q104 -98 104 -253t-104 -253q-104 -97 -258 -97h-231h-10v700h47zM146 38h191q133 0 225 86q91 85 91 226t-91 226q-92 86 -225 86h-191v-624z" />
    <glyph glyph-name="dcaron" unicode="&#x10f;" horiz-adv-x="696" 
d="M509 371v369h45v-740h-45v116q-19 -49 -76 -87q-56 -39 -134 -39q-104 0 -174 68q-70 67 -70 185q0 117 70 186q70 68 174 68q78 0 134 -38q57 -40 76 -88zM675 573h-27v167h43zM160 85q57 -58 145 -58t146 58q58 57 58 158t-58 159t-146 58t-145 -58q-58 -58 -58 -159
q0 -100 58 -158z" />
    <glyph glyph-name="Dcroat" unicode="&#x110;" horiz-adv-x="762" 
d="M146 700h194q154 0 258 -97q104 -98 104 -253t-104 -253q-104 -97 -258 -97h-231h-10v334h-98v34h98v332h47zM146 38h191q133 0 225 86q91 85 91 226t-91 226q-92 86 -225 86h-191v-294h165v-34h-165v-296z" />
    <glyph glyph-name="dslash" unicode="&#x111;" horiz-adv-x="634" 
d="M554 624h121v-34h-121v-590h-45v116q-19 -49 -76 -87q-56 -39 -134 -39q-104 0 -174 68q-70 67 -70 185q0 117 70 186q70 68 174 68q78 0 134 -38q57 -40 76 -88v219h-144v34h144v116h45v-116zM160 85q57 -58 145 -58t146 58q58 57 58 158t-58 159t-146 58t-145 -58
q-58 -58 -58 -159q0 -100 58 -158z" />
    <glyph glyph-name="Emacron" unicode="&#x112;" 
d="M210 831h294v-35h-294v35zM146 350v-311h452v-39h-489h-10v700h47h442v-39h-442v-272h412v-39h-412z" />
    <glyph glyph-name="emacron" unicode="&#x113;" horiz-adv-x="601" 
d="M153 664h294v-35h-294v35zM313 27q71 0 119.5 32t64.5 90h44q-18 -75 -78 -117t-150 -42q-107 0 -183 68q-75 68 -75 185q0 119 74 187q73 67 181 67q104 0 170 -57q66 -59 66 -175h-443q-1 -5 -1 -22q0 -102 61 -159t150 -57zM311 462q-80 0 -134.5 -43t-69.5 -122h391
q-3 78 -54 121.5t-133 43.5z" />
    <glyph glyph-name="Edotaccent" unicode="&#x116;" 
d="M357 782q-14 0 -24.5 10.5t-10.5 24.5t10.5 25t24.5 11q22 0 31.5 -18t0 -36t-31.5 -17zM146 350v-311h452v-39h-489h-10v700h47h442v-39h-442v-272h412v-39h-412z" />
    <glyph glyph-name="edotaccent" unicode="&#x117;" horiz-adv-x="601" 
d="M300 621q-14 0 -24.5 10.5t-10.5 24.5t10.5 25t24.5 11q22 0 31.5 -18t0 -36t-31.5 -17zM313 27q71 0 119.5 32t64.5 90h44q-18 -75 -78 -117t-150 -42q-107 0 -183 68q-75 68 -75 185q0 119 74 187q73 67 181 67q104 0 170 -57q66 -59 66 -175h-443q-1 -5 -1 -22
q0 -102 61 -159t150 -57zM311 462q-80 0 -134.5 -43t-69.5 -122h391q-3 78 -54 121.5t-133 43.5z" />
    <glyph glyph-name="Eogonek" unicode="&#x118;" 
d="M598 39v-39q-119 -65 -119 -135q0 -28 15 -45t42 -17q31 0 62 16v-32q-36 -17 -70 -17q-41 0 -65.5 24.5t-24.5 63.5q0 80 119 142h-448h-10v700h47h442v-39h-442v-272h412v-39h-412v-311h452z" />
    <glyph glyph-name="eogonek" unicode="&#x119;" horiz-adv-x="601" 
d="M313 27q71 0 119.5 32t64.5 90h44q-27 -115 -145 -148q-103 -61 -103 -137q0 -43 34.5 -56.5t84.5 11.5v-32q-36 -17 -68 -17q-41 0 -66 24.5t-25 63.5q0 74 87 133q-6 -1 -27 -1q-107 0 -183 68q-75 68 -75 185q0 119 74 187q73 67 181 67q104 0 170 -57q66 -59 66 -175
h-443q-1 -5 -1 -22q0 -102 61 -159t150 -57zM311 462q-80 0 -134.5 -43t-69.5 -122h391q-3 78 -54 121.5t-133 43.5z" />
    <glyph glyph-name="Ecaron" unicode="&#x11a;" 
d="M502 900l-129 -132h-33l-129 132h49l97 -113l96 113h49zM146 350v-311h452v-39h-489h-10v700h47h442v-39h-442v-272h412v-39h-412z" />
    <glyph glyph-name="ecaron" unicode="&#x11b;" horiz-adv-x="601" 
d="M445 727l-129 -162h-33l-129 162h47l99 -139l98 139h47zM313 27q71 0 119.5 32t64.5 90h44q-18 -75 -78 -117t-150 -42q-107 0 -183 68q-75 68 -75 185q0 119 74 187q73 67 181 67q104 0 170 -57q66 -59 66 -175h-443q-1 -5 -1 -22q0 -102 61 -159t150 -57zM311 462
q-80 0 -134.5 -43t-69.5 -122h391q-3 78 -54 121.5t-133 43.5z" />
    <glyph glyph-name="Gbreve" unicode="&#x11e;" horiz-adv-x="813" 
d="M432 766q-129 0 -147 129h30q20 -95 117 -95t118 95h29q-17 -129 -147 -129zM520 310v35h197v-345h-35l-6 126q-32 -65 -101 -100.5t-158 -35.5q-157 0 -252 104t-95 256t100 256q99 104 258 104q98 2 177.5 -49.5t113.5 -158.5h-46q-29 86 -94 127.5t-151 41.5
q-138 0 -224 -93q-85 -92 -85 -228t83 -228q82 -93 221 -93q104 0 178 56q73 55 73 161v64h-154z" />
    <glyph glyph-name="gbreve" unicode="&#x11f;" horiz-adv-x="595" 
d="M396 719h29q-15 -146 -147 -146t-147 146h30q9 -57 37.5 -84.5t79.5 -27.5t79.5 27.5t38.5 84.5zM162 65l232 -17q82 -6 121.5 -35t39.5 -85q0 -72 -81 -115q-82 -43 -202 -43q-232 0 -232 137q0 73 66 132q-39 25 -39 76q0 55 56 100q-55 46 -55 116v1q1 72 58 118
q56 46 150 46q99 0 158 -53q46 54 119 54v-40q-56 0 -95 -40q26 -38 26 -85v-1q-1 -72 -58 -118q-56 -46 -150 -46q-73 0 -127 30q-43 -33 -43 -74q0 -54 56 -58zM111 332q0 -58 45 -94t120 -36t120 36t45 94q0 57 -45 93t-120 36t-120 -36t-45 -93zM274 -196q99 0 169 32
q69 33 69 88q0 41 -30.5 60.5t-98.5 24.5l-244 18q-58 -51 -58 -115q0 -55 45.5 -81.5t147.5 -26.5z" />
    <glyph glyph-name="Gdotaccent" unicode="&#x120;" horiz-adv-x="813" 
d="M432 782q-14 0 -24.5 10.5t-10.5 24.5t10.5 25t24.5 11q22 0 31.5 -18t0 -36t-31.5 -17zM520 310v35h197v-345h-35l-6 126q-32 -65 -101 -100.5t-158 -35.5q-157 0 -252 104t-95 256t100 256q99 104 258 104q98 2 177.5 -49.5t113.5 -158.5h-46q-29 86 -94 127.5
t-151 41.5q-138 0 -224 -93q-85 -92 -85 -228t83 -228q82 -93 221 -93q104 0 178 56q73 55 73 161v64h-154z" />
    <glyph glyph-name="gdotaccent" unicode="&#x121;" horiz-adv-x="595" 
d="M278 621q-14 0 -24.5 10.5t-10.5 24.5t10.5 25t24.5 11q22 0 31.5 -18t0 -36t-31.5 -17zM162 65l232 -17q82 -6 121.5 -35t39.5 -85q0 -72 -81 -115q-82 -43 -202 -43q-232 0 -232 137q0 73 66 132q-39 25 -39 76q0 55 56 100q-55 46 -55 116v1q1 72 58 118q56 46 150 46
q99 0 158 -53q46 54 119 54v-40q-56 0 -95 -40q26 -38 26 -85v-1q-1 -72 -58 -118q-56 -46 -150 -46q-73 0 -127 30q-43 -33 -43 -74q0 -54 56 -58zM111 332q0 -58 45 -94t120 -36t120 36t45 94q0 57 -45 93t-120 36t-120 -36t-45 -93zM274 -196q99 0 169 32q69 33 69 88
q0 41 -30.5 60.5t-98.5 24.5l-244 18q-58 -51 -58 -115q0 -55 45.5 -81.5t147.5 -26.5z" />
    <glyph glyph-name="Gcommaaccent" unicode="&#x122;" horiz-adv-x="813" 
d="M520 310v35h197v-345h-35l-6 126q-32 -65 -101 -100.5t-158 -35.5q-157 0 -252 104t-95 256t100 256q99 104 258 104q98 2 177.5 -49.5t113.5 -158.5h-46q-29 86 -94 127.5t-151 41.5q-138 0 -224 -93q-85 -92 -85 -228t83 -228q82 -93 221 -93q104 0 178 56
q73 55 73 161v64h-154zM412 -239h-28l22 144h41z" />
    <glyph glyph-name="gcommaaccent" unicode="&#x123;" horiz-adv-x="595" 
d="M375 727h33l-110 -162h-52zM162 65l232 -17q82 -6 121.5 -35t39.5 -85q0 -72 -81 -115q-82 -43 -202 -43q-232 0 -232 137q0 73 66 132q-39 25 -39 76q0 55 56 100q-55 46 -55 116v1q1 72 58 118q56 46 150 46q99 0 158 -53q46 54 119 54v-40q-56 0 -95 -40
q26 -38 26 -85v-1q-1 -72 -58 -118q-56 -46 -150 -46q-73 0 -127 30q-43 -33 -43 -74q0 -54 56 -58zM111 332q0 -58 45 -94t120 -36t120 36t45 94q0 57 -45 93t-120 36t-120 -36t-45 -93zM274 -196q99 0 169 32q69 33 69 88q0 41 -30.5 60.5t-98.5 24.5l-244 18
q-58 -51 -58 -115q0 -55 45.5 -81.5t147.5 -26.5z" />
    <glyph glyph-name="Hbar" unicode="&#x126;" horiz-adv-x="788" 
d="M690 562h96v-32h-96v-530h-47v350h-502v-350h-47v530h-93v32h93v138h47v-138h502v138h47v-138zM141 389h502v141h-502v-141z" />
    <glyph glyph-name="hbar" unicode="&#x127;" horiz-adv-x="632" 
d="M347 497q201 0 201 -214v-283h-45v276q0 181 -164 181q-81 0 -146 -56q-64 -57 -64 -154v-247h-45v590h-107v34h107v116h45v-116h158v-34h-158v-224q32 60 88 95.5t130 35.5z" />
    <glyph glyph-name="Itilde" unicode="&#x128;" horiz-adv-x="245" 
d="M271 889h29q-7 -56 -34.5 -85.5t-67.5 -29.5q-31 0 -56.5 20t-47.5 40t-44 20q-59 0 -74 -80h-28q13 115 102 115q31 0 56.5 -20t47.5 -40t44 -20q58 0 73 80zM146 0h-47v700h47v-700z" />
    <glyph glyph-name="itilde" unicode="&#x129;" horiz-adv-x="214" 
d="M255 706h29q-7 -56 -34.5 -85.5t-67.5 -29.5q-31 0 -56.5 20t-47.5 40t-44 20q-59 0 -74 -80h-28q13 115 102 115q31 0 56.5 -20t47.5 -40t44 -20q58 0 73 80zM129 0h-45v487h45v-487z" />
    <glyph glyph-name="Imacron" unicode="&#x12a;" horiz-adv-x="245" 
d="M270 796h-294v35h294v-35zM99 0v700h47v-700h-47z" />
    <glyph glyph-name="imacron" unicode="&#x12b;" horiz-adv-x="214" 
d="M254 629h-294v35h294v-35zM129 0h-45v487h45v-487z" />
    <glyph glyph-name="Iogonek" unicode="&#x12e;" horiz-adv-x="245" 
d="M99 2v698h47v-700h-10q-119 -65 -119 -135q0 -28 15 -45t42 -17q31 0 62 16v-32q-36 -17 -70 -17q-41 0 -65.5 24.5t-24.5 63.5q0 81 123 144z" />
    <glyph glyph-name="iogonek" unicode="&#x12f;" horiz-adv-x="214" 
d="M107 692q22 0 31.5 -18t0 -36t-31.5 -17q-14 0 -24.5 10.5t-10.5 24.5t10.5 25t24.5 11zM84 1v486h45v-487h-7q-119 -65 -119 -135q0 -28 15 -45t42 -17q31 0 62 16v-32q-36 -17 -70 -17q-41 0 -65.5 24.5t-24.5 63.5q0 81 122 143z" />
    <glyph glyph-name="Idot" unicode="&#x130;" horiz-adv-x="245" 
d="M123 782q-14 0 -24.5 10.5t-10.5 24.5t10.5 25t24.5 11q22 0 31.5 -18t0 -36t-31.5 -17zM99 0v700h47v-700h-47z" />
    <glyph glyph-name="dotlessi" unicode="&#x131;" horiz-adv-x="214" 
d="M129 0h-45v487h45v-487z" />
    <glyph glyph-name="Kcommaaccent" unicode="&#x136;" horiz-adv-x="707" 
d="M684 700l-332 -315l351 -385h-58l-327 353l-177 -168v-185h-47v700h47v-453l485 453h58zM326 -239h-28l22 144h41z" />
    <glyph glyph-name="kcommaaccent" unicode="&#x137;" horiz-adv-x="580" 
d="M520 487l-214 -195l249 -292h-55l-225 264l-146 -133v-131h-45v740h45v-554l335 301h56zM282 -239h-28l22 144h41z" />
    <glyph glyph-name="Lacute" unicode="&#x139;" horiz-adv-x="593" 
d="M226 940h52l-130 -162h-34zM141 700v-661h429v-39h-466h-10v700h47z" />
    <glyph glyph-name="lacute" unicode="&#x13a;" horiz-adv-x="211" 
d="M125 770h-39l121 132h57zM129 0h-45v740h45v-740z" />
    <glyph glyph-name="Lcommaaccent" unicode="&#x13b;" horiz-adv-x="593" 
d="M141 700v-661h429v-39h-466h-10v700h47zM326 -239h-28l22 144h41z" />
    <glyph glyph-name="lcommaaccent" unicode="&#x13c;" horiz-adv-x="214" 
d="M129 0h-45v740h45v-740zM87 -239h-28l22 144h41z" />
    <glyph glyph-name="Lcaron" unicode="&#x13d;" horiz-adv-x="593" 
d="M437 740h43l-15 -167h-28v167zM141 700v-661h429v-39h-466h-10v700h47z" />
    <glyph glyph-name="lcaron" unicode="&#x13e;" horiz-adv-x="271" 
d="M129 0h-45v740h45v-740zM250 573h-28v167h43z" />
    <glyph glyph-name="Lslash" unicode="&#x141;" horiz-adv-x="623" 
d="M171 287v-248h429v-39h-466h-10v263l-107 -57v41l107 57v396h47v-372l311 165v-41z" />
    <glyph glyph-name="lslash" unicode="&#x142;" horiz-adv-x="336" 
d="M196 422l117 66v-43l-117 -66v-379h-45v353l-119 -67v43l119 67v344h45v-318z" />
    <glyph glyph-name="Nacute" unicode="&#x143;" horiz-adv-x="802" 
d="M504 900h57l-139 -132h-39zM661 90v610h46v-700h-31l-535 611v-611h-47v700h32z" />
    <glyph glyph-name="nacute" unicode="&#x144;" horiz-adv-x="632" 
d="M333 565h-34l112 162h52zM347 497q201 0 201 -214v-283h-45v276q0 181 -164 181q-81 0 -146 -56q-64 -57 -64 -154v-247h-45v487h45v-121q32 60 88 95.5t130 35.5z" />
    <glyph glyph-name="Ncommaaccent" unicode="&#x145;" horiz-adv-x="802" 
d="M661 90v610h46v-700h-31l-535 611v-611h-47v700h32zM381 -239h-28l22 144h41z" />
    <glyph glyph-name="ncommaaccent" unicode="&#x146;" horiz-adv-x="632" 
d="M347 497q201 0 201 -214v-283h-45v276q0 181 -164 181q-81 0 -146 -56q-64 -57 -64 -154v-247h-45v487h45v-121q32 60 88 95.5t130 35.5zM312 -239h-28l22 144h41z" />
    <glyph glyph-name="Ncaron" unicode="&#x147;" horiz-adv-x="802" 
d="M545 900l-129 -132h-33l-129 132h49l97 -113l96 113h49zM661 90v610h46v-700h-31l-535 611v-611h-47v700h32z" />
    <glyph glyph-name="ncaron" unicode="&#x148;" horiz-adv-x="632" 
d="M461 727l-129 -162h-33l-129 162h47l99 -139l98 139h47zM347 497q201 0 201 -214v-283h-45v276q0 181 -164 181q-81 0 -146 -56q-64 -57 -64 -154v-247h-45v487h45v-121q32 60 88 95.5t130 35.5z" />
    <glyph glyph-name="Eng" unicode="&#x14a;" horiz-adv-x="802" 
d="M661 90v610h46v-700v-74q0 -73 -52 -115q-53 -41 -129 -41v39q60 0 97.5 33.5t37.5 94.5v80l-520 594v-611h-47v700h32z" />
    <glyph glyph-name="eng" unicode="&#x14b;" horiz-adv-x="632" 
d="M347 497q201 0 201 -214v-283h-1v-62q0 -80 -44.5 -124t-130.5 -44v37q67 0 98.5 35t31.5 108v50h1v276q0 181 -164 181q-81 0 -146 -56q-64 -57 -64 -154v-247h-45v487h45v-121q32 60 88 95.5t130 35.5z" />
    <glyph glyph-name="Omacron" unicode="&#x14c;" horiz-adv-x="836" 
d="M565 796h-294v35h294v-35zM418 710q160 0 259 -104q99 -105 99 -256q0 -152 -99 -255q-99 -105 -259 -105q-159 0 -258 105q-100 103 -100 255t100 256q99 104 258 104zM194 122q85 -93 224 -93q138 0 224 93q85 92 85 228t-85 228q-86 93 -224 93q-139 0 -224 -93
q-85 -92 -85 -228t85 -228z" />
    <glyph glyph-name="omacron" unicode="&#x14d;" horiz-adv-x="626" 
d="M460 629h-294v35h294v-35zM130 429q76 68 183 68t183 -68q75 -67 75 -186q0 -117 -75 -185q-76 -68 -183 -68t-183 68q-75 68 -75 185q0 119 75 186zM163 84q61 -57 150 -57t150 57t61 159q0 103 -61 160t-150 57t-150 -57t-61 -160q0 -102 61 -159z" />
    <glyph glyph-name="Ohungarumlaut" unicode="&#x150;" horiz-adv-x="836" 
d="M351 768h-39l121 132h57zM508 768h-39l121 132h57zM418 710q160 0 259 -104q99 -105 99 -256q0 -152 -99 -255q-99 -105 -259 -105q-159 0 -258 105q-100 103 -100 255t100 256q99 104 258 104zM194 122q85 -93 224 -93q138 0 224 93q85 92 85 228t-85 228
q-86 93 -224 93q-139 0 -224 -93q-85 -92 -85 -228t85 -228z" />
    <glyph glyph-name="ohungarumlaut" unicode="&#x151;" horiz-adv-x="626" 
d="M246 565h-34l112 162h52zM403 565h-34l112 162h52zM130 429q76 68 183 68t183 -68q75 -67 75 -186q0 -117 -75 -185q-76 -68 -183 -68t-183 68q-75 68 -75 185q0 119 75 186zM163 84q61 -57 150 -57t150 57t61 159q0 103 -61 160t-150 57t-150 -57t-61 -160
q0 -102 61 -159z" />
    <glyph glyph-name="OE" unicode="&#x152;" horiz-adv-x="1236" 
d="M720 350v-311h452v-39h-489h-10v164q-68 -174 -255 -174q-159 0 -258 105q-100 103 -100 255t100 256q99 104 258 104q187 0 255 -174v164h47h442v-39h-442v-272h412v-39h-412zM418 29q120 0 187.5 85.5t67.5 235.5t-67.5 235.5t-187.5 85.5q-139 0 -224 -93
q-85 -92 -85 -228t85 -228q85 -93 224 -93z" />
    <glyph glyph-name="oe" unicode="&#x153;" horiz-adv-x="1075" 
d="M787 27q71 0 119.5 32t64.5 90h44q-18 -75 -78 -117t-150 -42q-80 0 -143.5 38t-93.5 106q-30 -68 -93.5 -106t-143.5 -38q-107 0 -183 68q-75 68 -75 185q0 119 75 186q76 68 183 68q80 0 143.5 -38t93.5 -106q29 68 91 106t143 38q104 0 170 -57q66 -59 66 -175h-443
q-1 -5 -1 -22q0 -102 61 -159t150 -57zM785 462q-80 0 -134.5 -43t-69.5 -122h391q-3 78 -54 121.5t-133 43.5zM163 84q61 -57 150 -57t150 57t61 159q0 103 -61 160t-150 57t-150 -57t-61 -160q0 -102 61 -159z" />
    <glyph glyph-name="Racute" unicode="&#x154;" horiz-adv-x="671" 
d="M429 900h57l-139 -132h-39zM491 252l167 -252h-52l-159 240q-36 51 -72 67q-38 16 -121 16h-108v-323h-47v700h47h207q112 2 181 -44t71 -144q0 -156 -193 -181q41 -20 79 -79zM146 661v-299h193l3 -13l-3 13q219 0 219 150q0 79 -55.5 114t-163.5 35h-193z" />
    <glyph glyph-name="racute" unicode="&#x155;" horiz-adv-x="346" 
d="M261 727h52l-130 -162h-34zM129 487v-123q26 65 76 99t117 34v-43q-31 0 -62.5 -10.5t-62 -32.5t-49.5 -63.5t-19 -96.5v-251h-45v487h45z" />
    <glyph glyph-name="Rcommaaccent" unicode="&#x156;" horiz-adv-x="671" 
d="M491 252l167 -252h-52l-159 240q-36 51 -72 67q-38 16 -121 16h-108v-323h-47v700h47h207q112 2 181 -44t71 -144q0 -156 -193 -181q41 -20 79 -79zM146 661v-299h193l3 -13l-3 13q219 0 219 150q0 79 -55.5 114t-163.5 35h-193zM353 -239h-28l22 144h41z" />
    <glyph glyph-name="rcommaaccent" unicode="&#x157;" horiz-adv-x="346" 
d="M129 487v-123q26 65 76 99t117 34v-43q-31 0 -62.5 -10.5t-62 -32.5t-49.5 -63.5t-19 -96.5v-251h-45v487h45zM85 -239h-28l22 144h41z" />
    <glyph glyph-name="Rcaron" unicode="&#x158;" horiz-adv-x="671" 
d="M470 900l-129 -132h-33l-129 132h49l97 -113l96 113h49zM491 252l167 -252h-52l-159 240q-36 51 -72 67q-38 16 -121 16h-108v-323h-47v700h47h207q112 2 181 -44t71 -144q0 -156 -193 -181q41 -20 79 -79zM146 661v-299h193l3 -13l-3 13q219 0 219 150q0 79 -55.5 114
t-163.5 35h-193z" />
    <glyph glyph-name="rcaron" unicode="&#x159;" horiz-adv-x="346" 
d="M311 727l-129 -162h-33l-129 162h47l99 -139l98 139h47zM129 487v-123q26 65 76 99t117 34v-43q-31 0 -62.5 -10.5t-62 -32.5t-49.5 -63.5t-19 -96.5v-251h-45v487h45z" />
    <glyph glyph-name="Sacute" unicode="&#x15a;" 
d="M353 768h-39l121 132h57zM136 519q0 -44 25.5 -73.5t66 -44.5t89.5 -26t98.5 -23.5t90 -30.5t66 -53.5t25.5 -87.5q0 -89 -70 -139.5t-189 -50.5q-118 0 -190.5 51.5t-82.5 150.5h46q9 -82 68.5 -122.5t156.5 -40.5q99 0 155.5 38.5t56.5 107.5q0 44 -25.5 73.5t-66 44.5
t-89.5 26t-97.5 23.5t-89 30.5t-66 53.5t-25.5 87.5q0 91 71 144q70 52 180 52q107 0 173 -51t77 -141h-46q-11 74 -65 114t-139 40q-88 0 -146 -41q-58 -42 -58 -112z" />
    <glyph glyph-name="sacute" unicode="&#x15b;" horiz-adv-x="526" 
d="M284 565h-34l112 162h52zM117 367q0 -19 11 -34t25.5 -24.5t41 -18.5t46 -13.5t54 -11.5t51.5 -11q56 -14 90.5 -44.5t34.5 -75.5q0 -72 -59.5 -108t-162.5 -36q-100 0 -184 38v42q78 -42 183 -42q82 0 129 25.5t47 75.5q0 38 -36.5 60t-88 32.5t-103.5 22.5t-88.5 41.5
t-36.5 77.5q0 63 56.5 98.5t151.5 35.5q85 0 175 -34v-40q-93 38 -174 38q-75 0 -119 -25t-44 -69z" />
    <glyph glyph-name="Scedilla" unicode="&#x15e;" 
d="M597 180q0 -85 -63.5 -135t-175.5 -55l-17 -56q62 10 102 -10t40 -65q0 -43 -30 -66t-82 -23q-45 0 -79 18v28q34 -18 75 -18q79 0 79 59q0 38 -44 49q-44 12 -103 -6l28 90q-113 2 -182.5 53.5t-79.5 148.5h46q9 -82 68.5 -122.5t156.5 -40.5q99 0 155.5 38.5
t56.5 107.5q0 44 -25.5 73.5t-66 44.5t-89.5 26t-97.5 23.5t-89 30.5t-66 53.5t-25.5 87.5q0 91 71 144q70 52 180 52q107 0 173 -51t77 -141h-46q-11 74 -65 114t-139 40q-88 0 -146 -41q-58 -42 -58 -112q0 -44 25.5 -73.5t66 -44.5t89.5 -26t98.5 -23.5t90 -30.5
t66 -53.5t25.5 -87.5z" />
    <glyph glyph-name="scedilla" unicode="&#x15f;" horiz-adv-x="526" 
d="M471 134q0 -64 -49.5 -100.5t-136.5 -42.5l-17 -57q62 10 102 -10t40 -65q0 -43 -30 -66t-82 -23q-45 0 -79 18v28q35 -18 75 -18q79 0 79 59q0 38 -44 49q-45 12 -103 -6l28 90h-5q-100 0 -184 38v42q78 -42 183 -42q82 0 129 25.5t47 75.5q0 38 -36.5 60t-88 32.5
t-103.5 22.5t-88.5 41.5t-36.5 77.5q0 63 56.5 98.5t151.5 35.5q85 0 175 -34v-40q-93 38 -174 38q-75 0 -119 -25t-44 -69q0 -19 11 -34t25.5 -24.5t41 -18.5t46 -13.5t54 -11.5t51.5 -11q56 -14 90.5 -44.5t34.5 -75.5z" />
    <glyph glyph-name="Scaron" unicode="&#x160;" 
d="M476 900l-129 -132h-33l-129 132h49l97 -113l96 113h49zM136 519q0 -44 25.5 -73.5t66 -44.5t89.5 -26t98.5 -23.5t90 -30.5t66 -53.5t25.5 -87.5q0 -89 -70 -139.5t-189 -50.5q-118 0 -190.5 51.5t-82.5 150.5h46q9 -82 68.5 -122.5t156.5 -40.5q99 0 155.5 38.5
t56.5 107.5q0 44 -25.5 73.5t-66 44.5t-89.5 26t-97.5 23.5t-89 30.5t-66 53.5t-25.5 87.5q0 91 71 144q70 52 180 52q107 0 173 -51t77 -141h-46q-11 74 -65 114t-139 40q-88 0 -146 -41q-58 -42 -58 -112z" />
    <glyph glyph-name="scaron" unicode="&#x161;" horiz-adv-x="526" 
d="M412 727l-129 -162h-33l-129 162h47l99 -139l98 139h47zM117 367q0 -19 11 -34t25.5 -24.5t41 -18.5t46 -13.5t54 -11.5t51.5 -11q56 -14 90.5 -44.5t34.5 -75.5q0 -72 -59.5 -108t-162.5 -36q-100 0 -184 38v42q78 -42 183 -42q82 0 129 25.5t47 75.5q0 38 -36.5 60
t-88 32.5t-103.5 22.5t-88.5 41.5t-36.5 77.5q0 63 56.5 98.5t151.5 35.5q85 0 175 -34v-40q-93 38 -174 38q-75 0 -119 -25t-44 -69z" />
    <glyph glyph-name="uni0162" unicode="&#x162;" horiz-adv-x="644" 
d="M346 661v-661h-10l-20 -66q62 10 102 -10t40 -65q0 -43 -30 -66t-82 -23q-44 0 -79 18v28q35 -18 75 -18q79 0 79 59q0 38 -44 49q-45 12 -103 -6l31 100h-6v661h-281v39h328h280v-39h-280z" />
    <glyph glyph-name="uni0163" unicode="&#x163;" horiz-adv-x="444" 
d="M272 -10l-17 -56q62 10 102 -10t40 -65q0 -43 -30 -66t-82 -23q-45 0 -79 18v28q34 -18 75 -18q79 0 79 59q0 38 -44 49q-44 12 -103 -6l29 94q-108 20 -108 150v304h-102v37h102v119l45 19v-138h210v-37h-210v-289q0 -72 26.5 -101.5t82.5 -29.5t101 19v-39
q-49 -18 -105 -18h-12z" />
    <glyph glyph-name="Tcaron" unicode="&#x164;" horiz-adv-x="644" 
d="M467 900l-129 -132h-33l-129 132h49l97 -113l96 113h49zM346 700h280v-39h-280v-661h-47v661h-281v39h328z" />
    <glyph glyph-name="tcaron" unicode="&#x165;" horiz-adv-x="435" 
d="M358 740h43l-16 -165h-27v165zM134 604l45 19v-138h210v-37h-210v-289q0 -72 26.5 -101.5t82.5 -29.5t101 19v-39q-49 -18 -105 -18q-150 0 -150 154v304h-102v37h102v119z" />
    <glyph glyph-name="Tbar" unicode="&#x166;" horiz-adv-x="644" 
d="M626 700v-39h-280v-293h131v-34h-131v-334h-47v334h-132v34h132v293h-281v39h328h280z" />
    <glyph glyph-name="tbar" unicode="&#x167;" horiz-adv-x="444" 
d="M389 485v-37h-210v-135h171v-34h-171v-120q0 -72 26.5 -101.5t82.5 -29.5t101 19v-39q-49 -18 -105 -18q-150 0 -150 154v135h-94v34h94v135h-102v37h102v119l45 19v-138h210z" />
    <glyph glyph-name="Utilde" unicode="&#x168;" horiz-adv-x="765" 
d="M309 854q-59 0 -74 -80h-28q13 115 102 115q31 0 56.5 -20t47.5 -40t44 -20q58 0 73 80h29q-7 -56 -34.5 -85.5t-67.5 -29.5q-31 0 -56.5 20t-47.5 40t-44 20zM624 312v388h46v-398q0 -182 -125 -266q-67 -46 -163 -46q-72 0 -129 26t-90.5 70.5t-51 99t-17.5 116.5v398
h47v-388q0 -120 59 -202q58 -81 182 -81q64 0 112 23.5t75.5 64t41 89.5t13.5 106z" />
    <glyph glyph-name="utilde" unicode="&#x169;" horiz-adv-x="622" 
d="M238 671q-59 0 -74 -80h-28q13 115 102 115q31 0 56.5 -20t47.5 -40t44 -20q58 0 73 80h29q-7 -56 -34.5 -85.5t-67.5 -29.5q-31 0 -56.5 20t-47.5 40t-44 20zM493 241v246h45v-487h-45v120q-70 -130 -209 -130q-91 0 -145.5 54.5t-54.5 159.5v283h45v-276
q0 -92 44.5 -136.5t122.5 -44.5q74 0 136 57q61 57 61 154z" />
    <glyph glyph-name="Umacron" unicode="&#x16a;" horiz-adv-x="765" 
d="M235 831h294v-35h-294v35zM624 312v388h46v-398q0 -182 -125 -266q-67 -46 -163 -46q-72 0 -129 26t-90.5 70.5t-51 99t-17.5 116.5v398h47v-388q0 -120 59 -202q58 -81 182 -81q64 0 112 23.5t75.5 64t41 89.5t13.5 106z" />
    <glyph glyph-name="umacron" unicode="&#x16b;" horiz-adv-x="622" 
d="M164 664h294v-35h-294v35zM493 241v246h45v-487h-45v120q-70 -130 -209 -130q-91 0 -145.5 54.5t-54.5 159.5v283h45v-276q0 -92 44.5 -136.5t122.5 -44.5q74 0 136 57q61 57 61 154z" />
    <glyph glyph-name="Uring" unicode="&#x16e;" horiz-adv-x="765" 
d="M445 762q-21 -24 -53.5 -29.5t-60.5 6.5t-47.5 38t-17.5 59q-2 32 17.5 58t47.5 38t60.5 7t53.5 -29q30 -31 30 -74t-30 -74zM371 910q-30 0 -51.5 -22t-21.5 -52q0 -31 21 -53t52 -22q30 0 51 22t21 53q0 30 -21 52t-51 22zM624 312v388h46v-398q0 -182 -125 -266
q-67 -46 -163 -46q-72 0 -129 26t-90.5 70.5t-51 99t-17.5 116.5v398h47v-388q0 -120 59 -202q58 -81 182 -81q64 0 112 23.5t75.5 64t41 89.5t13.5 106z" />
    <glyph glyph-name="uring" unicode="&#x16f;" horiz-adv-x="622" 
d="M385 586q-21 -24 -53.5 -29.5t-60.5 6.5t-47.5 38t-17.5 59q-2 32 17.5 58t47.5 37.5t60.5 7t53.5 -28.5q30 -31 30 -74t-30 -74zM311 734q-30 0 -51.5 -22t-21.5 -52q0 -31 21 -53t52 -22q30 0 51 22t21 53q0 30 -21 52t-51 22zM493 241v246h45v-487h-45v120
q-70 -130 -209 -130q-91 0 -145.5 54.5t-54.5 159.5v283h45v-276q0 -92 44.5 -136.5t122.5 -44.5q74 0 136 57q61 57 61 154z" />
    <glyph glyph-name="Uhungarumlaut" unicode="&#x170;" horiz-adv-x="765" 
d="M397 900h57l-139 -132h-39zM611 900l-139 -132h-39l121 132h57zM624 312v388h46v-398q0 -182 -125 -266q-67 -46 -163 -46q-72 0 -129 26t-90.5 70.5t-51 99t-17.5 116.5v398h47v-388q0 -120 59 -202q58 -81 182 -81q64 0 112 23.5t75.5 64t41 89.5t13.5 106z" />
    <glyph glyph-name="uhungarumlaut" unicode="&#x171;" horiz-adv-x="622" 
d="M322 727h52l-130 -162h-34zM531 727l-130 -162h-34l112 162h52zM493 241v246h45v-487h-45v120q-70 -130 -209 -130q-91 0 -145.5 54.5t-54.5 159.5v283h45v-276q0 -92 44.5 -136.5t122.5 -44.5q74 0 136 57q61 57 61 154z" />
    <glyph glyph-name="Uogonek" unicode="&#x172;" horiz-adv-x="765" 
d="M624 312v388h46v-398q0 -111 -52 -194t-156 -109q-117 -65 -117 -134q0 -28 15 -45t42 -17q31 0 62 16v-32q-36 -17 -70 -17q-41 0 -65.5 24.5t-24.5 63.5q0 74 102 133q-5 -1 -24 -1q-72 0 -129 26t-90.5 70.5t-51 99t-17.5 116.5v398h47v-388q0 -120 59 -202
q58 -81 182 -81q64 0 112 23.5t75.5 64t41 89.5t13.5 106z" />
    <glyph glyph-name="uogonek" unicode="&#x173;" horiz-adv-x="622" 
d="M493 241v246h45v-487h-7q-119 -65 -119 -135q0 -28 15 -45t42 -17q31 0 62 16v-32q-36 -17 -70 -17q-41 0 -65.5 24.5t-24.5 63.5q0 81 122 143v119q-70 -130 -209 -130q-91 0 -145.5 54.5t-54.5 159.5v283h45v-276q0 -92 44.5 -136.5t122.5 -44.5q74 0 136 57
q61 57 61 154z" />
    <glyph glyph-name="Wcircumflex" unicode="&#x174;" horiz-adv-x="932" 
d="M555 768l-96 113l-97 -113h-49l129 132h33l129 -132h-49zM678 58l187 642h49l-209 -700h-51l-188 578l-188 -578h-51l-209 700h51l185 -642l190 585h43h1z" />
    <glyph glyph-name="wcircumflex" unicode="&#x175;" horiz-adv-x="827" 
d="M512 565l-99 137l-99 -137h-47l128 162h36l128 -162h-47zM595 59l164 428h47l-190 -487h-38l-165 400l-164 -400h-39l-190 487h50l162 -428l160 390h41h2z" />
    <glyph glyph-name="Ycircumflex" unicode="&#x176;" horiz-adv-x="665" 
d="M431 768l-96 113l-97 -113h-49l129 132h33l129 -132h-49zM596 700h51l-285 -404v-296h-47v296l-297 404h52l270 -363z" />
    <glyph glyph-name="ycircumflex" unicode="&#x177;" horiz-adv-x="535" 
d="M373 565l-99 137l-99 -137h-47l128 162h36l128 -162h-47zM275 58l194 429h51l-226 -487q-5 -9 -14.5 -29t-12.5 -27q-7 -15 -26 -48q-26 -43 -63 -78q-27 -25 -62.5 -35.5t-88.5 -12.5v41q78 -5 139 52q24 22 57 87q1 3 28 58l-236 479h53z" />
    <glyph glyph-name="Ydieresis" unicode="&#x178;" horiz-adv-x="665" 
d="M263 795q-17 -16 -38 -7t-21 31t21 31t38 -7q11 -10 11 -24t-11 -24zM456 795q-16 -16 -37.5 -7t-21.5 31q0 13 10.5 23.5t23.5 10.5q23 0 32 -21t-7 -37zM596 700h51l-285 -404v-296h-47v296l-297 404h52l270 -363z" />
    <glyph glyph-name="Zacute" unicode="&#x179;" horiz-adv-x="637" 
d="M426 900h57l-139 -132h-39zM599 674l-502 -635h512v-39h-581v26l502 635h-482v39h551v-26z" />
    <glyph glyph-name="zacute" unicode="&#x17a;" horiz-adv-x="574" 
d="M301 565h-34l112 162h52zM45 0v25l391 425h-371v37h440v-25l-392 -425h406v-37h-474z" />
    <glyph glyph-name="Zdotaccent" unicode="&#x17b;" horiz-adv-x="637" 
d="M322 782q-14 0 -24.5 10.5t-10.5 24.5t10.5 25t24.5 11q22 0 31.5 -18t0 -36t-31.5 -17zM599 674l-502 -635h512v-39h-581v26l502 635h-482v39h551v-26z" />
    <glyph glyph-name="zdotaccent" unicode="&#x17c;" horiz-adv-x="574" 
d="M284 621q-14 0 -24.5 10.5t-10.5 24.5t10.5 25t24.5 11q22 0 31.5 -18t0 -36t-31.5 -17zM45 0v25l391 425h-371v37h440v-25l-392 -425h406v-37h-474z" />
    <glyph glyph-name="Zcaron" unicode="&#x17d;" horiz-adv-x="637" 
d="M467 900l-129 -132h-33l-129 132h49l97 -113l96 113h49zM599 674l-502 -635h512v-39h-581v26l502 635h-482v39h551v-26z" />
    <glyph glyph-name="zcaron" unicode="&#x17e;" horiz-adv-x="574" 
d="M429 727l-129 -162h-33l-129 162h47l99 -139l98 139h47zM505 462l-392 -425h406v-37h-474v25l391 425h-371v37h440v-25z" />
    <glyph glyph-name="Ohorn" unicode="&#x1a0;" horiz-adv-x="836" 
d="M845 661q0 -53 -30 -85.5t-85 -41.5q46 -82 46 -184q0 -152 -99 -255q-99 -105 -259 -105q-159 0 -258 105q-100 103 -100 255t100 256q99 104 258 104q92 0 167.5 -38t124.5 -106q92 8 92 95q0 6 -2 38h43q2 -32 2 -38zM194 122q85 -93 224 -93q138 0 224 93
q85 92 85 228t-85 228q-86 93 -224 93q-139 0 -224 -93q-85 -92 -85 -228t85 -228z" />
    <glyph glyph-name="ohorn" unicode="&#x1a1;" horiz-adv-x="711" 
d="M685 448q0 -54 -33 -87.5t-91 -40.5q10 -33 10 -77q0 -117 -75 -185q-76 -68 -183 -68t-183 68q-75 68 -75 185q0 119 75 186q76 68 183 68q80 0 143.5 -38t93.5 -106q92 8 92 95q0 6 -2 38h43q2 -32 2 -38zM163 84q61 -57 150 -57t150 57t61 159q0 103 -61 160t-150 57
t-150 -57t-61 -160q0 -102 61 -159z" />
    <glyph glyph-name="Uhorn" unicode="&#x1af;" horiz-adv-x="839" 
d="M781 700h43q2 -32 2 -38q0 -62 -42 -96t-114 -34v-230q0 -182 -125 -266q-67 -46 -163 -46q-72 0 -129 26t-90.5 70.5t-51 99t-17.5 116.5v398h47v-388q0 -120 59 -202q58 -81 182 -81q64 0 112 23.5t75.5 64t41 89.5t13.5 106v388h46v-134q113 0 113 96q0 6 -2 38z" />
    <glyph glyph-name="uhorn" unicode="&#x1b0;" horiz-adv-x="718" 
d="M649 486h43q2 -32 2 -38q0 -62 -42 -96t-114 -34v-318h-45v120q-70 -130 -209 -130q-91 0 -145.5 54.5t-54.5 159.5v283h45v-276q0 -92 44.5 -136.5t122.5 -44.5q74 0 136 57q61 57 61 154v246h45v-135q113 0 113 96q0 6 -2 38z" />
    <glyph glyph-name="uni01CD" unicode="&#x1cd;" horiz-adv-x="700" 
d="M497 900l-129 -132h-33l-129 132h49l97 -113l96 113h49zM682 0h-51l-108 246h-350l-106 -246h-49l304 700h52zM347 649l-157 -364h316z" />
    <glyph glyph-name="uni01CE" unicode="&#x1ce;" horiz-adv-x="555" 
d="M423 727l-129 -162h-33l-129 162h47l99 -139l98 139h47zM509 27q18 0 22 1v-36q-24 -2 -29 -2q-46 0 -71 26t-28 67q-24 -41 -74.5 -67t-112.5 -26q-77 0 -122.5 35t-45.5 93q0 78 73.5 122t224.5 44q40 0 52 -1v24q0 83 -30 117.5t-108 34.5q-82 0 -169 -38v42
q93 34 173 34q92 0 135 -43t43 -137v-209q0 -81 67 -81zM223 26q69 0 122 38t53 107v81q-11 1 -48 1q-257 0 -257 -131q0 -45 34.5 -70.5t95.5 -25.5z" />
    <glyph glyph-name="uni01CF" unicode="&#x1cf;" horiz-adv-x="245" 
d="M268 900l-129 -132h-33l-129 132h49l97 -113l96 113h49zM146 0h-47v700h47v-700z" />
    <glyph glyph-name="uni01D0" unicode="&#x1d0;" horiz-adv-x="214" 
d="M252 727l-129 -162h-33l-129 162h47l99 -139l98 139h47zM129 0h-45v487h45v-487z" />
    <glyph glyph-name="uni01D1" unicode="&#x1d1;" horiz-adv-x="836" 
d="M563 900l-129 -132h-33l-129 132h49l97 -113l96 113h49zM418 710q160 0 259 -104q99 -105 99 -256q0 -152 -99 -255q-99 -105 -259 -105q-159 0 -258 105q-100 103 -100 255t100 256q99 104 258 104zM194 122q85 -93 224 -93q138 0 224 93q85 92 85 228t-85 228
q-86 93 -224 93q-139 0 -224 -93q-85 -92 -85 -228t85 -228z" />
    <glyph glyph-name="uni01D2" unicode="&#x1d2;" horiz-adv-x="626" 
d="M458 727l-129 -162h-33l-129 162h47l99 -139l98 139h47zM130 429q76 68 183 68t183 -68q75 -67 75 -186q0 -117 -75 -185q-76 -68 -183 -68t-183 68q-75 68 -75 185q0 119 75 186zM163 84q61 -57 150 -57t150 57t61 159q0 103 -61 160t-150 57t-150 -57t-61 -160
q0 -102 61 -159z" />
    <glyph glyph-name="uni01D3" unicode="&#x1d3;" horiz-adv-x="765" 
d="M527 900l-129 -132h-33l-129 132h49l97 -113l96 113h49zM624 312v388h46v-398q0 -182 -125 -266q-67 -46 -163 -46q-72 0 -129 26t-90.5 70.5t-51 99t-17.5 116.5v398h47v-388q0 -120 59 -202q58 -81 182 -81q64 0 112 23.5t75.5 64t41 89.5t13.5 106z" />
    <glyph glyph-name="uni01D4" unicode="&#x1d4;" horiz-adv-x="622" 
d="M456 727l-129 -162h-33l-129 162h47l99 -139l98 139h47zM493 241v246h45v-487h-45v120q-70 -130 -209 -130q-91 0 -145.5 54.5t-54.5 159.5v283h45v-276q0 -92 44.5 -136.5t122.5 -44.5q74 0 136 57q61 57 61 154z" />
    <glyph glyph-name="uni01D5" unicode="&#x1d5;" horiz-adv-x="765" 
d="M235 956h294v-35h-294v35zM251 819q0 13 10.5 23.5t23.5 10.5q23 0 32 -21t-7 -37t-37.5 -7t-21.5 31zM444 819q0 13 10 23.5t24 10.5t24.5 -10t10.5 -24q0 -21 -17.5 -29.5t-35 0t-16.5 29.5zM624 312v388h46v-398q0 -182 -125 -266q-67 -46 -163 -46q-72 0 -129 26
t-90.5 70.5t-51 99t-17.5 116.5v398h47v-388q0 -120 59 -202q58 -81 182 -81q64 0 112 23.5t75.5 64t41 89.5t13.5 106z" />
    <glyph glyph-name="uni01D6" unicode="&#x1d6;" horiz-adv-x="622" 
d="M164 834h294v-35h-294v35zM190 634q-15 15 -8.5 33.5t23.5 23t34 -8.5q15 -15 8.5 -33.5t-24 -23t-33.5 8.5zM383 634q-16 16 -7 37t31 21q23 0 32 -21t-7 -37q-10 -10 -24.5 -10t-24.5 10zM493 241v246h45v-487h-45v120q-70 -130 -209 -130q-91 0 -145.5 54.5
t-54.5 159.5v283h45v-276q0 -92 44.5 -136.5t122.5 -44.5q74 0 136 57q61 57 61 154z" />
    <glyph glyph-name="uni01D7" unicode="&#x1d7;" horiz-adv-x="765" 
d="M486 1025h57l-139 -132h-39zM310 795q-16 -16 -37.5 -7t-21.5 31q0 13 10.5 23.5t23.5 10.5q23 0 32 -21t-7 -37zM444 819q0 13 10 23.5t24 10.5t24.5 -10t10.5 -24q0 -21 -17.5 -29.5t-35 0t-16.5 29.5zM624 312v388h46v-398q0 -182 -125 -266q-67 -46 -163 -46
q-72 0 -129 26t-90.5 70.5t-51 99t-17.5 116.5v398h47v-388q0 -120 59 -202q58 -81 182 -81q64 0 112 23.5t75.5 64t41 89.5t13.5 106z" />
    <glyph glyph-name="uni01D8" unicode="&#x1d8;" horiz-adv-x="622" 
d="M406 897h52l-130 -162h-34zM239 634q-16 -15 -34.5 -8.5t-23 23.5t8.5 33q15 15 34 8.5t23.5 -23.5t-8.5 -33zM383 634q-16 16 -7 37t31 21q23 0 32 -21t-7 -37q-10 -10 -24.5 -10t-24.5 10zM493 241v246h45v-487h-45v120q-70 -130 -209 -130q-91 0 -145.5 54.5
t-54.5 159.5v283h45v-276q0 -92 44.5 -136.5t122.5 -44.5q74 0 136 57q61 57 61 154z" />
    <glyph glyph-name="uni01D9" unicode="&#x1d9;" horiz-adv-x="765" 
d="M527 1025l-129 -132h-33l-129 132h49l97 -113l96 113h49zM251 819q0 13 10.5 23.5t23.5 10.5q23 0 32 -21t-7 -37t-37.5 -7t-21.5 31zM444 819q0 13 10 23.5t24 10.5t24.5 -10t10.5 -24q0 -21 -17.5 -29.5t-35 0t-16.5 29.5zM624 312v388h46v-398q0 -182 -125 -266
q-67 -46 -163 -46q-72 0 -129 26t-90.5 70.5t-51 99t-17.5 116.5v398h47v-388q0 -120 59 -202q58 -81 182 -81q64 0 112 23.5t75.5 64t41 89.5t13.5 106z" />
    <glyph glyph-name="uni01DA" unicode="&#x1da;" horiz-adv-x="622" 
d="M456 897l-129 -162h-33l-129 162h47l99 -139l98 139h47zM190 634q-15 15 -8.5 33.5t23.5 23t34 -8.5q15 -15 8.5 -33.5t-24 -23t-33.5 8.5zM383 634q-16 16 -7 37t31 21q23 0 32 -21t-7 -37q-10 -10 -24.5 -10t-24.5 10zM493 241v246h45v-487h-45v120q-70 -130 -209 -130
q-91 0 -145.5 54.5t-54.5 159.5v283h45v-276q0 -92 44.5 -136.5t122.5 -44.5q74 0 136 57q61 57 61 154z" />
    <glyph glyph-name="uni01DB" unicode="&#x1db;" horiz-adv-x="765" 
d="M312 1025l121 -132h-39l-139 132h57zM310 795q-16 -16 -37.5 -7t-21.5 31q0 13 10.5 23.5t23.5 10.5q23 0 32 -21t-7 -37zM503 795q-17 -16 -38 -7t-21 31t21 31t38 -7q11 -10 11 -24t-11 -24zM624 312v388h46v-398q0 -182 -125 -266q-67 -46 -163 -46q-72 0 -129 26
t-90.5 70.5t-51 99t-17.5 116.5v398h47v-388q0 -120 59 -202q58 -81 182 -81q64 0 112 23.5t75.5 64t41 89.5t13.5 106z" />
    <glyph glyph-name="uni01DC" unicode="&#x1dc;" horiz-adv-x="622" 
d="M231 897l112 -162h-34l-130 162h52zM190 634q-15 15 -8.5 33.5t23.5 23t34 -8.5q15 -15 8.5 -33.5t-24 -23t-33.5 8.5zM432 634q-16 -16 -37.5 -7t-21.5 31q0 14 10.5 24t23.5 10q23 0 32 -21t-7 -37zM493 241v246h45v-487h-45v120q-70 -130 -209 -130q-91 0 -145.5 54.5
t-54.5 159.5v283h45v-276q0 -92 44.5 -136.5t122.5 -44.5q74 0 136 57q61 57 61 154z" />
    <glyph glyph-name="AEacute" unicode="&#x1fc;" horiz-adv-x="1013" 
d="M635 940h52l-130 -162h-34zM497 350v-311h452v-39h-489h-10v246h-277l-106 -246h-49l303 700h139h37h442v-39h-442v-272h412v-39h-412zM352 661l-162 -376h260v376h-98z" />
    <glyph glyph-name="aeacute" unicode="&#x1fd;" horiz-adv-x="945" 
d="M565 727h52l-130 -162h-34zM657 27q71 0 119.5 32t64.5 90h44q-18 -75 -78 -117t-150 -42q-78 0 -141.5 37t-93.5 103q-18 -63 -74 -101.5t-132 -38.5q-77 0 -122.5 35t-45.5 93q0 84 87.5 129.5t262.5 38.5v21q0 82 -31 117t-108 35q-75 0 -168 -38v42q93 34 173 34
q145 0 171 -113q33 54 90.5 83.5t128.5 29.5q104 0 170 -57q66 -59 66 -175h-443q-1 -5 -1 -22q0 -102 61 -159t150 -57zM655 462q-80 0 -134.5 -43t-69.5 -122h391q-3 78 -54 121.5t-133 43.5zM223 26q76 0 125 43q50 42 50 109v77q-163 6 -234 -32t-71 -101
q0 -45 34.5 -70.5t95.5 -25.5z" />
    <glyph glyph-name="Scommaaccent" unicode="&#x218;" 
d="M136 519q0 -44 25.5 -73.5t66 -44.5t89.5 -26t98.5 -23.5t90 -30.5t66 -53.5t25.5 -87.5q0 -89 -70 -139.5t-189 -50.5q-118 0 -190.5 51.5t-82.5 150.5h46q9 -82 68.5 -122.5t156.5 -40.5q99 0 155.5 38.5t56.5 107.5q0 44 -25.5 73.5t-66 44.5t-89.5 26t-97.5 23.5
t-89 30.5t-66 53.5t-25.5 87.5q0 91 71 144q70 52 180 52q107 0 173 -51t77 -141h-46q-11 74 -65 114t-139 40q-88 0 -146 -41q-58 -42 -58 -112zM327 -239h-28l22 144h41z" />
    <glyph glyph-name="scommaaccent" unicode="&#x219;" horiz-adv-x="526" 
d="M117 367q0 -19 11 -34t25.5 -24.5t41 -18.5t46 -13.5t54 -11.5t51.5 -11q56 -14 90.5 -44.5t34.5 -75.5q0 -72 -59.5 -108t-162.5 -36q-100 0 -184 38v42q78 -42 183 -42q82 0 129 25.5t47 75.5q0 38 -36.5 60t-88 32.5t-103.5 22.5t-88.5 41.5t-36.5 77.5
q0 63 56.5 98.5t151.5 35.5q85 0 175 -34v-40q-93 38 -174 38q-75 0 -119 -25t-44 -69zM254 -239h-28l22 144h41z" />
    <glyph glyph-name="uni021A" unicode="&#x21a;" horiz-adv-x="644" 
d="M346 700h280v-39h-280v-661h-47v661h-281v39h328zM302 -239h-28l22 144h41z" />
    <glyph glyph-name="uni021B" unicode="&#x21b;" horiz-adv-x="444" 
d="M389 485v-37h-210v-289q0 -72 26.5 -101.5t82.5 -29.5t101 19v-39q-49 -18 -105 -18q-150 0 -150 154v304h-102v37h102v119l45 19v-138h210zM241 -239h-28l22 144h41z" />
    <glyph glyph-name="Alphatonos" unicode="&#x386;" horiz-adv-x="700" 
d="M682 0h-51l-108 246h-350l-106 -246h-49l304 700h52zM110 700h51l-73 -161h-32zM347 649l-157 -364h316z" />
    <glyph glyph-name="Epsilontonos" unicode="&#x388;" horiz-adv-x="734" 
d="M50 539h-32l54 161h51zM218 350v-311h452v-39h-489h-10v700h47h442v-39h-442v-272h412v-39h-412z" />
    <glyph glyph-name="Etatonos" unicode="&#x389;" horiz-adv-x="866" 
d="M50 539h-32l54 161h51zM724 389v311h47v-700h-47v350h-502v-350h-47v700h47v-311h502z" />
    <glyph glyph-name="Iotatonos" unicode="&#x38a;" horiz-adv-x="280" 
d="M13 539h-32l54 161h51zM134 0v700h47v-700h-47z" />
    <glyph glyph-name="Omicrontonos" unicode="&#x38c;" horiz-adv-x="852" 
d="M433 710q160 0 259 -104q99 -105 99 -256q0 -152 -99 -255q-99 -105 -259 -105q-159 0 -258 105q-100 103 -100 255t100 256q99 104 258 104zM22 539h-32l54 161h51zM209 122q85 -93 224 -93t224 93q85 92 85 228t-85 228q-86 93 -224 93q-139 0 -224 -93
q-85 -92 -85 -228t85 -228z" />
    <glyph glyph-name="Upsilontonos" unicode="&#x38e;" horiz-adv-x="699" 
d="M-56 539h-32l54 161h51zM630 700h51l-285 -404v-296h-47v296l-297 404h52l270 -363z" />
    <glyph glyph-name="Omegatonos" unicode="&#x38f;" horiz-adv-x="868" 
d="M582 37l226 2v-39h-284v36q105 42 163.5 128t58.5 200q0 143 -86 226q-87 81 -218 81q-132 0 -218 -81q-86 -83 -86 -226q0 -116 58 -201.5t163 -126.5v-36h-283v39l225 -2q-100 45 -156 131t-56 199q0 157 101 250q100 93 252 93t253 -93q100 -93 100 -250
q0 -113 -56.5 -199t-156.5 -131zM-10 539l54 161h51l-73 -161h-32z" />
    <glyph glyph-name="iotadieresistonos" unicode="&#x390;" horiz-adv-x="260" 
d="M135 761h47l-69 -161h-32zM-14 682q16 15 34.5 8.5t23 -23.5t-8.5 -33q-15 -15 -34 -8.5t-23.5 23.5t8.5 33zM219 692q21 1 29.5 -16.5t0 -35t-29.5 -16.5q-14 0 -24 10t-10 24t10.5 24t23.5 10zM129 487v-362q0 -98 86 -98q15 0 20 1v-36q-26 -2 -29 -2q-60 0 -91 36
t-31 98v363h45z" />
    <glyph glyph-name="Alpha" unicode="&#x391;" horiz-adv-x="700" 
d="M682 0h-51l-108 246h-350l-106 -246h-49l304 700h52zM347 649l-157 -364h316z" />
    <glyph glyph-name="Beta" unicode="&#x392;" horiz-adv-x="705" 
d="M483 364q167 -33 167 -177q0 -87 -66 -137t-178 -50h-302h-10v700h47h235q116 0 179 -44t63 -131q0 -57 -35.5 -99t-99.5 -62zM370 661h-229v-280h233q94 0 145 37t51 104q0 139 -200 139zM141 39h258q98 0 149.5 39t51.5 111q0 82 -56 117.5t-169 35.5h-234v-303z" />
    <glyph glyph-name="Gamma" unicode="&#x393;" horiz-adv-x="580" 
d="M141 700h421v-39h-421v-661h-47v700h47z" />
    <glyph glyph-name="uni0394" unicode="&#x394;" horiz-adv-x="700" 
d="M322 700h51l309 -700h-51h-572h-41zM347 649l-263 -610h530z" />
    <glyph glyph-name="Epsilon" unicode="&#x395;" 
d="M146 350v-311h452v-39h-489h-10v700h47h442v-39h-442v-272h412v-39h-412z" />
    <glyph glyph-name="Zeta" unicode="&#x396;" horiz-adv-x="637" 
d="M599 674l-502 -635h512v-39h-581v26l502 635h-482v39h551v-26z" />
    <glyph glyph-name="Eta" unicode="&#x397;" horiz-adv-x="785" 
d="M643 389v311h47v-700h-47v350h-502v-350h-47v700h47v-311h502z" />
    <glyph glyph-name="Theta" unicode="&#x398;" horiz-adv-x="836" 
d="M413 710q157 0 258 -105q101 -106 101 -255t-101 -255q-101 -105 -258 -105t-257 106q-101 106 -101 254t101 255q100 105 257 105zM413 29q137 0 225 94q87 93 87 227t-87 228q-88 93 -225 93q-136 0 -223 -93q-88 -94 -88 -228q0 -135 88 -227q87 -94 223 -94zM556 335
h-273v35h273v-35z" />
    <glyph glyph-name="Iota" unicode="&#x399;" horiz-adv-x="245" 
d="M99 0v700h47v-700h-47z" />
    <glyph glyph-name="Kappa" unicode="&#x39a;" horiz-adv-x="700" 
d="M141 0h-47v700h47v-700zM677 700l-397 -335l417 -365h-62l-417 363l403 337h56z" />
    <glyph glyph-name="Lambda" unicode="&#x39b;" horiz-adv-x="700" 
d="M322 700h51l309 -700h-51l-284 649l-280 -649h-49z" />
    <glyph glyph-name="Mu" unicode="&#x39c;" horiz-adv-x="899" 
d="M450 143l326 557h34v-700h-46v588l-305 -515h-18l-305 515v-588h-47v700h35z" />
    <glyph glyph-name="Nu" unicode="&#x39d;" horiz-adv-x="802" 
d="M661 90v610h46v-700h-31l-535 611v-611h-47v700h32z" />
    <glyph glyph-name="Xi" unicode="&#x39e;" horiz-adv-x="696" 
d="M631 661h-567v39h567v-39zM522 350h-349v39h349v-39zM631 0h-567v39h567v-39z" />
    <glyph glyph-name="Omicron" unicode="&#x39f;" horiz-adv-x="836" 
d="M418 710q160 0 259 -104q99 -105 99 -256q0 -152 -99 -255q-99 -105 -259 -105q-159 0 -258 105q-100 103 -100 255t100 256q99 104 258 104zM194 122q85 -93 224 -93q138 0 224 93q85 92 85 228t-85 228q-86 93 -224 93q-139 0 -224 -93q-85 -92 -85 -228t85 -228z" />
    <glyph glyph-name="Pi" unicode="&#x3a0;" horiz-adv-x="775" 
d="M141 0h-47v700h586v-700h-46v661h-493v-661z" />
    <glyph glyph-name="Rho" unicode="&#x3a1;" horiz-adv-x="655" 
d="M146 700h202q267 0 267 -198t-267 -198h-202v-304h-47v700h47zM146 343h188q117 0 175.5 37t58.5 122t-58.5 122t-175.5 37h-188v-318z" />
    <glyph glyph-name="Sigma" unicode="&#x3a3;" horiz-adv-x="623" 
d="M355 360l-256 -321h496v-39h-567v21l269 339l-269 319v21h557v-39h-485z" />
    <glyph glyph-name="Tau" unicode="&#x3a4;" horiz-adv-x="644" 
d="M346 700h280v-39h-280v-661h-47v661h-281v39h328z" />
    <glyph glyph-name="Upsilon" unicode="&#x3a5;" horiz-adv-x="665" 
d="M596 700h51l-285 -404v-296h-47v296l-297 404h52l270 -363z" />
    <glyph glyph-name="Phi" unicode="&#x3a6;" horiz-adv-x="832" 
d="M430 750v-92q158 -3 250 -80q92 -78 92 -208t-92 -207q-91 -78 -250 -81v-102h-43v102q-147 3 -237 81t-90 207t90 207t237 81v92h43zM387 119v502q-128 -2 -203 -69q-76 -67 -76 -182q0 -114 76 -181q76 -69 203 -70zM430 621v-502q138 2 215.5 69t77.5 182t-77.5 182
t-215.5 69z" />
    <glyph glyph-name="Chi" unicode="&#x3a7;" horiz-adv-x="685" 
d="M371 361l296 -361h-57l-270 329l-265 -329h-57l296 360l-279 340h57l253 -308l247 308h56z" />
    <glyph glyph-name="Psi" unicode="&#x3a8;" horiz-adv-x="795" 
d="M708 486v214h47v-215q0 -130 -94 -197q-94 -69 -242 -72v-216h-43v216q-146 3 -241 72q-95 68 -95 197v215h46v-214q0 -114 81 -172q80 -58 209 -61v447h43v-447q129 3 209 61q80 59 80 172z" />
    <glyph glyph-name="uni03A9" unicode="&#x3a9;" horiz-adv-x="852" 
d="M566 37l226 2v-39h-284v36q105 42 163.5 128t58.5 200q0 143 -86 226q-87 81 -218 81q-132 0 -218 -81q-86 -83 -86 -226q0 -116 58 -201.5t163 -126.5v-36h-283v39l225 -2q-100 45 -156 131t-56 199q0 157 101 250q100 93 252 93t253 -93q100 -93 100 -250
q0 -113 -56.5 -199t-156.5 -131z" />
    <glyph glyph-name="Iotadieresis" unicode="&#x3aa;" horiz-adv-x="245" 
d="M51 795q-17 -16 -38 -7t-21 31t21 31t38 -7q11 -10 11 -24t-11 -24zM244 795q-16 -16 -37.5 -7t-21.5 31q0 13 10.5 23.5t23.5 10.5q23 0 32 -21t-7 -37zM99 0v700h47v-700h-47z" />
    <glyph glyph-name="Upsilondieresis" unicode="&#x3ab;" horiz-adv-x="665" 
d="M263 795q-17 -16 -38 -7t-21 31t21 31t38 -7q11 -10 11 -24t-11 -24zM456 795q-16 -16 -37.5 -7t-21.5 31q0 13 10.5 23.5t23.5 10.5q23 0 32 -21t-7 -37zM596 700h51l-285 -404v-296h-47v296l-297 404h52l270 -363z" />
    <glyph glyph-name="alphatonos" unicode="&#x3ac;" horiz-adv-x="673" 
d="M364 727h51l-73 -162h-32zM628 27q17 0 21 1v-36q-24 -2 -29 -2q-52 0 -81.5 30t-28.5 76v18q-25 -53 -81.5 -88.5t-129.5 -35.5q-105 0 -175 68q-69 68 -69 185t69 185q70 68 175 68q72 0 128.5 -34.5t81.5 -87.5v113h44v-379q0 -81 75 -81zM160 85q57 -58 145 -58
t146 58q58 57 58 158t-58 159q-58 57 -146 57t-145 -57q-58 -58 -58 -159t58 -158z" />
    <glyph glyph-name="epsilontonos" unicode="&#x3ad;" horiz-adv-x="530" 
d="M322 727h51l-73 -162h-32zM285 27q111 0 191 42v-41q-79 -38 -192 -38q-108 0 -168.5 35.5t-60.5 101.5q0 99 126 124q-116 30 -116 113q0 63 57 98t161 35q93 0 183 -34v-41q-91 38 -181 38q-85 0 -129.5 -25.5t-44.5 -73.5t52.5 -71t169.5 -23v-31v-2
q-126 0 -179 -23.5t-53 -81.5q0 -102 184 -102z" />
    <glyph glyph-name="etatonos" unicode="&#x3ae;" horiz-adv-x="632" 
d="M354 727h51l-73 -162h-32zM548 283v-283q0 -145 20 -220h-45q-20 75 -20 220v276q0 181 -164 181q-81 0 -146 -56q-64 -57 -64 -154v-247h-45v487h45v-121q32 60 88 95.5t130 35.5q201 0 201 -214z" />
    <glyph glyph-name="iotatonos" unicode="&#x3af;" horiz-adv-x="260" 
d="M145 727h51l-73 -162h-32zM215 27q15 0 20 1v-36q-26 -2 -29 -2q-60 0 -91 36t-31 98v363h45v-362q0 -98 86 -98z" />
    <glyph glyph-name="upsilondieresistonos" unicode="&#x3b0;" horiz-adv-x="611" 
d="M312 761h47l-69 -161h-32zM212 634q-15 -15 -33.5 -8.5t-23.5 23.5t9 33q15 15 33.5 8.5t23 -23.5t-8.5 -33zM420 634q-14 -16 -33 -9t-24 24t9 33t33 9t24 -24t-9 -33zM435 487h47q64 -131 64 -264q0 -117 -61 -175t-170 -58q-105 0 -168 52.5t-63 151.5v73h1
q0 145 -20 220h45q20 -75 20 -220h-1v-66q0 -83 50 -127t136 -44q186 0 186 197q0 125 -66 260z" />
    <glyph glyph-name="alpha" unicode="&#x3b1;" horiz-adv-x="673" 
d="M628 27q17 0 21 1v-36q-24 -2 -29 -2q-52 0 -81.5 30t-28.5 76v18q-25 -53 -81.5 -88.5t-129.5 -35.5q-105 0 -175 68q-69 68 -69 185t69 185q70 68 175 68q72 0 128.5 -34.5t81.5 -87.5v113h44v-379q0 -81 75 -81zM160 85q57 -58 145 -58t146 58q58 57 58 158t-58 159
q-58 57 -146 57t-145 -57q-58 -58 -58 -159t58 -158z" />
    <glyph glyph-name="beta" unicode="&#x3b2;" horiz-adv-x="649" 
d="M420 396q174 -40 174 -194q0 -101 -70 -156q-71 -56 -182 -56q-75 0 -131.5 35t-81.5 88v-113q0 -145 20 -220h-45q-20 75 -20 220v548q0 91 65 147q64 55 163 55q107 0 175 -51q67 -51 67 -131q0 -133 -134 -172zM336 27q97 0 154 46t57 129q0 86 -63 130t-200 44v34v3
q118 0 171 37.5t53 116.5q0 64 -54 105t-142 41q-82 0 -132.5 -45.5t-50.5 -122.5v-302q0 -101 58 -158q58 -58 149 -58z" />
    <glyph glyph-name="gamma" unicode="&#x3b3;" horiz-adv-x="505" 
d="M445 487h45q0 -219 -213 -487q0 -143 -19 -220h-45q19 79 18 209q-1 239 -216 498h52q185 -223 200 -434q178 223 178 434z" />
    <glyph glyph-name="delta" unicode="&#x3b4;" horiz-adv-x="626" 
d="M202 619q0 -35 20.5 -61.5t53 -44.5t71.5 -35t78.5 -38t72 -48t53 -70t20.5 -99q0 -105 -75 -169q-74 -64 -183 -64q-110 0 -183 64q-75 63 -75 169q0 91 63 151q62 60 157 89q-60 29 -89.5 64t-29.5 87q0 65 46 100.5t123 35.5q63 0 153 -35v-40q-86 39 -152 39
q-58 0 -91 -25t-33 -70zM313 27q88 0 150 53q61 52 61 143q0 48 -22 96q-10 20 -60 63q-13 10 -40 24q-7 3 -16.5 7.5t-15 7.5t-8.5 4q-2 1 -16.5 7t-26.5 11q-100 -25 -158.5 -82.5t-58.5 -137.5q0 -91 61 -143q61 -53 150 -53z" />
    <glyph glyph-name="epsilon" unicode="&#x3b5;" horiz-adv-x="530" 
d="M285 27q111 0 191 42v-41q-79 -38 -192 -38q-108 0 -168.5 35.5t-60.5 101.5q0 99 126 124q-116 30 -116 113q0 63 57 98t161 35q93 0 183 -34v-41q-91 38 -181 38q-85 0 -129.5 -25.5t-44.5 -73.5t52.5 -71t169.5 -23v-31v-2q-126 0 -179 -23.5t-53 -81.5
q0 -102 184 -102z" />
    <glyph glyph-name="zeta" unicode="&#x3b6;" horiz-adv-x="514" 
d="M500 700v-24q-205 -111 -301.5 -218.5t-96.5 -227.5q0 -51 22 -84t57 -47.5t77.5 -23t85 -16t77.5 -19.5t57 -40t22 -73q0 -70 -49 -122h-43q49 59 49 117q0 37 -22 59.5t-57.5 32t-78.5 16t-86 16.5t-78.5 27.5t-57.5 55.5t-22 94q0 247 373 443l-363 -4v38h435z" />
    <glyph glyph-name="eta" unicode="&#x3b7;" horiz-adv-x="632" 
d="M548 283v-283q0 -145 20 -220h-45q-20 75 -20 220v276q0 181 -164 181q-81 0 -146 -56q-64 -57 -64 -154v-247h-45v487h45v-121q32 60 88 95.5t130 35.5q201 0 201 -214z" />
    <glyph glyph-name="theta" unicode="&#x3b8;" horiz-adv-x="636" 
d="M134 657q73 93 184 93q112 0 185 -93q73 -94 73 -287q0 -194 -73 -286q-73 -94 -185 -94q-111 0 -184 94q-74 94 -74 286t74 287zM466 635q-60 78 -148 78t-148 -78q-61 -80 -65 -240h426q-4 160 -65 240zM167 110q60 -83 151 -83q90 0 152 83q59 82 61 252h-426
q2 -171 62 -252z" />
    <glyph glyph-name="iota" unicode="&#x3b9;" horiz-adv-x="260" 
d="M215 27q15 0 20 1v-36q-26 -2 -29 -2q-60 0 -91 36t-31 98v363h45v-362q0 -98 86 -98z" />
    <glyph glyph-name="kappa" unicode="&#x3ba;" horiz-adv-x="568" 
d="M129 0h-45v487h45v-487zM516 487l-242 -227l269 -260h-58l-268 257l243 230h56z" />
    <glyph glyph-name="lambda" unicode="&#x3bb;" horiz-adv-x="586" 
d="M554 27q11 0 14 1v-36q-16 -2 -21 -2q-37 4 -59 18t-39 46q-16 26 -19 34q-1 1 -6.5 14t-10.5 24l-137 306l-208 -432h-50l236 479q-6 15 -14 31.5t-9 18.5q-2 4 -5.5 10t-8 15.5t-8.5 16.5q-16 27 -25 38q-6 7 -26 27q-24 22 -50.5 29.5t-77.5 10.5v41q61 0 100 -13.5
t70 -49.5q31 -37 47 -64q7 -14 45 -91q4 -7 6 -12l165 -361q2 -3 10.5 -22t11.5 -24q2 -4 11 -19q21 -34 58 -34z" />
    <glyph glyph-name="uni03BC" unicode="&#x3bc;" horiz-adv-x="622" 
d="M493 233v254h45v-487h-45v120q-70 -130 -207 -130q-105 0 -157 73v-63q0 -145 20 -220h-45q-20 75 -20 220v487h45v-274q0 -91 45 -137t122 -46q76 0 137 58q60 57 60 145z" />
    <glyph glyph-name="nu" unicode="&#x3bd;" horiz-adv-x="528" 
d="M458 487h45q0 -219 -212 -487h-37l-239 487h52l210 -436q85 107 133 220t48 216z" />
    <glyph glyph-name="xi" unicode="&#x3be;" horiz-adv-x="514" 
d="M65 662v38h435v-30q-122 -2 -204.5 -23.5t-114.5 -53.5q-31 -31 -31 -72q0 -127 314 -115v-33v-3q-362 -5 -362 -172q0 -29 12.5 -50.5t28 -33.5t46.5 -21.5t51.5 -13.5t60.5 -10q37 -6 60 -11t52.5 -15.5t46 -24.5t28.5 -37t12 -54q0 -70 -49 -122h-43q49 59 49 117
q0 21 -7.5 37.5t-24 28t-34 19t-44.5 13.5t-48 9.5t-52.5 8.5t-49.5 8q-64 12 -103 49t-39 97q0 150 225 194q-92 15 -134 46.5t-42 84.5q0 107 192 148z" />
    <glyph glyph-name="omicron" unicode="&#x3bf;" horiz-adv-x="626" 
d="M130 429q76 68 183 68t183 -68q75 -67 75 -186q0 -117 -75 -185q-76 -68 -183 -68t-183 68q-75 68 -75 185q0 119 75 186zM163 84q61 -57 150 -57t150 57t61 159q0 103 -61 160t-150 57t-150 -57t-61 -160q0 -102 61 -159z" />
    <glyph glyph-name="pi" unicode="&#x3c0;" horiz-adv-x="684" 
d="M609 27q15 0 20 1v-36q-26 -2 -29 -2q-60 0 -91 36t-31 98v326h-288q-6 -226 -77 -450h-45q74 234 80 450h-102v37h144h333h96v-37h-96v-325q0 -98 86 -98z" />
    <glyph glyph-name="rho" unicode="&#x3c1;" horiz-adv-x="639" 
d="M337 497q107 0 178 -68q69 -69 69 -186h-1q0 -117 -69 -185q-70 -68 -175 -68q-72 0 -128.5 34.5t-81.5 87.5v-332h-45v463q0 117 71 186q71 68 182 68zM187 85q58 -58 146 -58t146 58q57 57 57 158t-55 159t-146 58q-90 0 -148 -58t-58 -159t58 -158z" />
    <glyph glyph-name="uni03C2" unicode="&#x3c2;" horiz-adv-x="581" 
d="M97 264q0 -57 24 -95t63 -56.5t85.5 -29.5t93.5 -19.5t86 -21.5t63 -41.5t24 -73.5q0 -70 -49 -122h-43q49 59 49 117q0 37 -24.5 60t-63.5 33.5t-86.5 18t-94.5 20.5t-86 34.5t-63.5 65.5t-24.5 109q0 112 75 173q73 61 183 61v-1q90 0 150 -42.5t78 -119.5h-44
q-16 60 -64 92.5t-120 32.5v1q-89 0 -150 -50q-61 -51 -61 -146z" />
    <glyph glyph-name="sigma" unicode="&#x3c3;" horiz-adv-x="646" 
d="M313 487h308v-37h-183q133 -55 133 -213q0 -114 -75 -180q-76 -67 -183 -67t-183 68q-75 68 -75 185q0 118 75 181q74 63 183 63zM524 243q0 100 -57.5 153.5t-153.5 53.5q-91 0 -150 -52q-61 -52 -61 -155q0 -102 61 -159t150 -57t150 57t61 159z" />
    <glyph glyph-name="tau" unicode="&#x3c4;" horiz-adv-x="487" 
d="M462 487v-37h-210v-325q0 -98 86 -98q15 0 20 1v-36q-26 -2 -29 -2q-60 0 -91 36t-31 98v326h-183v37h228h210z" />
    <glyph glyph-name="upsilon" unicode="&#x3c5;" horiz-adv-x="611" 
d="M435 487h47q64 -131 64 -264q0 -117 -61 -175t-170 -58q-105 0 -168 52.5t-63 151.5v73h1q0 145 -20 220h45q20 -75 20 -220h-1v-66q0 -83 50 -127t136 -44q186 0 186 197q0 125 -66 260z" />
    <glyph glyph-name="phi" unicode="&#x3c6;" horiz-adv-x="798" 
d="M545 497q96 0 147 -65q51 -66 51 -168q-1 -135 -92 -204t-238 -70v-210h-42v210q-143 3 -229 70q-87 68 -87 193q0 109 80 177q79 67 179 67v-36q-84 -2 -148 -57q-66 -56 -66 -151q0 -109 71.5 -167t199.5 -61v277q0 94 46.5 144.5t127.5 50.5zM413 302v-277
q284 8 284 239q0 91 -38.5 144t-114.5 53q-62 0 -96.5 -40.5t-34.5 -118.5z" />
    <glyph glyph-name="chi" unicode="&#x3c7;" horiz-adv-x="606" 
d="M557 -193q9 0 18 3v-36q-12 -4 -30 -4q-54 0 -93 65l-154 264l-196 -319h-49l220 361l-159 272q-16 27 -28.5 37.5t-31.5 10.5q-13 0 -24 -4v36q21 4 36 4q53 0 86 -59l155 -266l188 315h50l-213 -357l158 -271q30 -52 67 -52z" />
    <glyph glyph-name="psi" unicode="&#x3c8;" horiz-adv-x="788" 
d="M622 487h47q64 -135 64 -243q0 -123 -88 -187t-238 -67v-210h-42v210q-138 3 -223 67q-87 63 -87 182v248h46v-248q0 -102 70.5 -156.5t193.5 -57.5v675h42v-675q134 3 207.5 58t73.5 161q0 108 -66 243z" />
    <glyph glyph-name="omega" unicode="&#x3c9;" horiz-adv-x="863" 
d="M703 487h48q57 -132 57 -264q0 -116 -55 -174.5t-150 -58.5q-64 0 -108.5 32.5t-63.5 91.5q-19 -59 -63 -91.5t-107 -32.5q-95 0 -150.5 58.5t-55.5 174.5q0 132 57 264h48q-60 -132 -60 -260q0 -100 44 -148.5t124 -48.5q69 0 106 46.5t37 130.5q0 75 -5 150h38h13
q-5 -75 -5 -150q0 -84 37 -130.5t106 -46.5q80 0 124 48.5t44 148.5q0 128 -60 260z" />
    <glyph glyph-name="iotadieresis" unicode="&#x3ca;" horiz-adv-x="260" 
d="M-14 682q15 15 34 8.5t23.5 -23.5t-8.5 -33q-16 -15 -34.5 -8.5t-23 23.5t8.5 33zM228 634q-16 -16 -37.5 -7t-21.5 31q0 14 10.5 24t23.5 10q23 0 32 -21t-7 -37zM129 487v-362q0 -98 86 -98q15 0 20 1v-36q-26 -2 -29 -2q-60 0 -91 36t-31 98v363h45z" />
    <glyph glyph-name="upsilondieresis" unicode="&#x3cb;" horiz-adv-x="611" 
d="M212 634q-16 -16 -37.5 -7t-21.5 31q0 14 10.5 24t23.5 10q23 0 32 -21t-7 -37zM405 634q-16 -15 -34.5 -8.5t-23 23.5t8.5 33q15 15 34 8.5t23.5 -23.5t-8.5 -33zM435 487h47q64 -131 64 -264q0 -117 -61 -175t-170 -58q-105 0 -168 52.5t-63 151.5v73h1q0 145 -20 220
h45q20 -75 20 -220h-1v-66q0 -83 50 -127t136 -44q186 0 186 197q0 125 -66 260z" />
    <glyph glyph-name="omicrontonos" unicode="&#x3cc;" horiz-adv-x="626" 
d="M329 565h-32l54 162h51zM130 429q76 68 183 68t183 -68q75 -67 75 -186q0 -117 -75 -185q-76 -68 -183 -68t-183 68q-75 68 -75 185q0 119 75 186zM163 84q61 -57 150 -57t150 57t61 159q0 103 -61 160t-150 57t-150 -57t-61 -160q0 -102 61 -159z" />
    <glyph glyph-name="upsilontonos" unicode="&#x3cd;" horiz-adv-x="611" 
d="M322 727h51l-73 -162h-32zM435 487h47q64 -131 64 -264q0 -117 -61 -175t-170 -58q-105 0 -168 52.5t-63 151.5v73h1q0 145 -20 220h45q20 -75 20 -220h-1v-66q0 -83 50 -127t136 -44q186 0 186 197q0 125 -66 260z" />
    <glyph glyph-name="omegatonos" unicode="&#x3ce;" horiz-adv-x="863" 
d="M470 727h51l-73 -162h-32zM703 487h48q57 -132 57 -264q0 -116 -55 -174.5t-150 -58.5q-64 0 -108.5 32.5t-63.5 91.5q-19 -59 -63 -91.5t-107 -32.5q-95 0 -150.5 58.5t-55.5 174.5q0 132 57 264h48q-60 -132 -60 -260q0 -100 44 -148.5t124 -48.5q69 0 106 46.5
t37 130.5q0 75 -5 150h38h13q-5 -75 -5 -150q0 -84 37 -130.5t106 -46.5q80 0 124 48.5t44 148.5q0 128 -60 260z" />
    <glyph glyph-name="uni0401" unicode="&#x401;" 
d="M285 795q-17 -16 -38 -7t-21 31t21 31t38 -7q11 -10 11 -24t-11 -24zM478 795q-16 -16 -37.5 -7t-21.5 31q0 13 10.5 23.5t23.5 10.5q23 0 32 -21t-7 -37zM146 350v-311h452v-39h-489h-10v700h47h442v-39h-442v-272h412v-39h-412z" />
    <glyph glyph-name="uni0402" unicode="&#x402;" horiz-adv-x="812" 
d="M346 397h182q110 0 177 -57q67 -58 67 -142q0 -83 -67 -140q-67 -58 -173 -58h-48v39h41q91 0 144.5 44.5t53.5 114.5q0 71 -54.5 115.5t-147.5 44.5h-175v-358h-47v397v264h-281v39h328h280v-39h-280v-264z" />
    <glyph glyph-name="uni0403" unicode="&#x403;" horiz-adv-x="580" 
d="M413 900h57l-139 -132h-39zM141 700h421v-39h-421v-661h-47v700h47z" />
    <glyph glyph-name="uni0404" unicode="&#x404;" horiz-adv-x="774" 
d="M423 29q86 0 151 41.5t94 127.5h46q-34 -107 -113.5 -158.5t-177.5 -49.5q-159 0 -258 105q-100 103 -100 255t100 256q99 104 258 104q98 2 177.5 -49.5t113.5 -158.5h-46q-29 86 -94 127.5t-151 41.5q-130 0 -212 -81q-83 -81 -95 -203h432v-39h-434q2 -137 86 -227
q84 -92 223 -92z" />
    <glyph glyph-name="uni0405" unicode="&#x405;" 
d="M136 519q0 -44 25.5 -73.5t66 -44.5t89.5 -26t98.5 -23.5t90 -30.5t66 -53.5t25.5 -87.5q0 -89 -70 -139.5t-189 -50.5q-118 0 -190.5 51.5t-82.5 150.5h46q9 -82 68.5 -122.5t156.5 -40.5q99 0 155.5 38.5t56.5 107.5q0 44 -25.5 73.5t-66 44.5t-89.5 26t-97.5 23.5
t-89 30.5t-66 53.5t-25.5 87.5q0 91 71 144q70 52 180 52q107 0 173 -51t77 -141h-46q-11 74 -65 114t-139 40q-88 0 -146 -41q-58 -42 -58 -112z" />
    <glyph glyph-name="uni0406" unicode="&#x406;" horiz-adv-x="245" 
d="M99 0v700h47v-700h-47z" />
    <glyph glyph-name="uni0407" unicode="&#x407;" horiz-adv-x="245" 
d="M51 795q-17 -16 -38 -7t-21 31t21 31t38 -7q11 -10 11 -24t-11 -24zM244 795q-16 -16 -37.5 -7t-21.5 31q0 13 10.5 23.5t23.5 10.5q23 0 32 -21t-7 -37zM99 0v700h47v-700h-47z" />
    <glyph glyph-name="uni0408" unicode="&#x408;" horiz-adv-x="464" 
d="M323 152v548h46v-559q0 -67 -49 -109q-50 -42 -124 -42q-75 0 -121.5 43t-46.5 114h45q0 -54 34 -86t89 -32q57 0 92 33.5t35 89.5z" />
    <glyph glyph-name="uni0409" unicode="&#x409;" horiz-adv-x="1112" 
d="M619 397h207q108 0 176 -57q67 -58 67 -142q0 -83 -67 -140q-67 -58 -176 -58h-243h-11v661h-289q-5 -387 -64 -534q-30 -73 -67 -105t-89 -32q-26 0 -45 10v37q14 -7 35 -7q43 0 75 33t57 107q52 151 53 530h371h10v-303zM619 39h200q93 0 147 44.5t54 114.5
q0 71 -54 115.5t-147 44.5h-200v-319z" />
    <glyph glyph-name="uni040A" unicode="&#x40a;" horiz-adv-x="1041" 
d="M548 397h207q109 0 176 -57q67 -58 67 -142q0 -83 -67 -140q-67 -58 -176 -58h-243h-11v358h-360v-358h-47v397v303h47v-303h360v303h47v-303zM548 39h200q93 0 147 44.5t54 114.5q0 71 -54 115.5t-147 44.5h-200v-319z" />
    <glyph glyph-name="uni040B" unicode="&#x40b;" horiz-adv-x="888" 
d="M575 418q248 0 248 -212v-206h-49v205q0 174 -206 174q-54 0 -117 -12q-66 -14 -105 -34v-333h-47v661h-281v39h328h280v-39h-280v-287q99 44 229 44z" />
    <glyph glyph-name="uni040C" unicode="&#x40c;" horiz-adv-x="683" 
d="M423 900h57l-139 -132h-39zM644 30q21 0 35 7v-37q-19 -10 -44 -10q-49 0 -77 32.5t-47 103.5l-26 104q-13 59 -41 90q-29 29 -98 29h-205v-349h-47v700h47v-312h205q66 0 94 21.5t41 74.5l25 106q15 63 42.5 91.5t75.5 28.5q26 0 42 -10v-37q-15 7 -34 7
q-33 0 -52 -20.5t-29 -66.5l-24 -102q-12 -54 -33 -79t-64 -34q43 -9 66 -40.5t36 -93.5l26 -99q12 -54 32 -79.5t54 -25.5z" />
    <glyph glyph-name="uni040E" unicode="&#x40e;" horiz-adv-x="676" 
d="M341 766q-129 0 -147 129h30q20 -95 117 -95t118 95h29q-16 -129 -147 -129zM354 251l252 449h52l-285 -501q-58 -102 -130 -152t-167 -50v41q80 0 140.5 40.5t112.5 128.5l-311 493h53z" />
    <glyph glyph-name="uni040F" unicode="&#x40f;" horiz-adv-x="764" 
d="M623 39v661h47v-700h-47h-219l-4 -161h-34l-4 161h-258h-10v700h47v-661h264h218z" />
    <glyph glyph-name="uni0410" unicode="&#x410;" horiz-adv-x="700" 
d="M682 0h-51l-108 246h-350l-106 -246h-49l304 700h52zM347 649l-157 -364h316z" />
    <glyph glyph-name="uni0411" unicode="&#x411;" horiz-adv-x="705" 
d="M141 397h266q109 0 177 -57q67 -58 67 -142q0 -83 -67 -140q-67 -58 -177 -58h-303h-10v700h47h461v-39h-461v-264zM141 39h259q92 0 146.5 44.5t54.5 114.5t-54.5 115t-146.5 45h-259v-319z" />
    <glyph glyph-name="uni0412" unicode="&#x412;" horiz-adv-x="705" 
d="M483 364q167 -33 167 -177q0 -87 -66 -137t-178 -50h-302h-10v700h47h235q116 0 179 -44t63 -131q0 -57 -35.5 -99t-99.5 -62zM370 661h-229v-280h233q94 0 145 37t51 104q0 139 -200 139zM141 39h258q98 0 149.5 39t51.5 111q0 82 -56 117.5t-169 35.5h-234v-303z" />
    <glyph glyph-name="uni0413" unicode="&#x413;" horiz-adv-x="580" 
d="M141 700h421v-39h-421v-661h-47v700h47z" />
    <glyph glyph-name="uni0414" unicode="&#x414;" horiz-adv-x="777" 
d="M663 39h96v-200h-33l-8 161h-102h-556l-8 -161h-33v161h-1v39h44h45q98 90 102 661h453h1v-661zM162 39h454v622h-362q-6 -501 -92 -622z" />
    <glyph glyph-name="uni0415" unicode="&#x415;" 
d="M146 350v-311h452v-39h-489h-10v700h47h442v-39h-442v-272h412v-39h-412z" />
    <glyph glyph-name="uni0416" unicode="&#x416;" horiz-adv-x="953" 
d="M914 30q21 0 35 7v-37q-17 -10 -44 -10q-50 0 -79 33t-44 103l-23 104q-13 63 -42 91t-93 28h-126v-349h-43v349h-122q-67 0 -96.5 -28t-42.5 -91l-23 -104q-15 -70 -44 -103t-79 -33q-27 0 -44 10v37q14 -7 35 -7q63 0 86 105l22 99q12 60 35.5 92.5t66.5 41.5
q-44 9 -66.5 35.5t-30.5 77.5l-15 87q-17 102 -87 102q-19 0 -34 -7v37q16 10 43 10q101 0 123 -135l16 -91q9 -51 38.5 -73.5t96.5 -22.5h122v312h43v-312h126q64 0 93 22.5t38 73.5l16 91q25 135 123 135q27 0 43 -10v-37q-15 7 -34 7q-71 0 -87 -102l-15 -87
q-8 -51 -30.5 -77.5t-66.5 -35.5q43 -9 66.5 -41.5t35.5 -92.5l22 -99q22 -105 86 -105z" />
    <glyph glyph-name="uni0417" unicode="&#x417;" horiz-adv-x="679" 
d="M418 363q97 -20 149 -67.5t52 -117.5q0 -85 -78 -136q-79 -52 -198 -52q-124 0 -196.5 53t-86.5 154h47q25 -169 236 -169q99 0 164 42q63 41 63 109q0 77 -80 121t-225 44v33v5q142 0 214 37.5t72 105.5q0 70 -55.5 108.5t-152.5 38.5q-93 0 -149.5 -42t-68.5 -119h-45
q13 95 82 147t181 52q117 0 186.5 -47.5t69.5 -135.5q0 -61 -46 -103t-135 -61z" />
    <glyph glyph-name="uni0418" unicode="&#x418;" horiz-adv-x="802" 
d="M141 82l535 618h31v-700h-46v618l-535 -618h-32v700h47v-618z" />
    <glyph glyph-name="uni0419" unicode="&#x419;" horiz-adv-x="802" 
d="M401 766q-129 0 -147 129h30q20 -95 117 -95t118 95h29q-16 -129 -147 -129zM141 82l535 618h31v-700h-46v618l-535 -618h-32v700h47v-618z" />
    <glyph glyph-name="uni041A" unicode="&#x41a;" horiz-adv-x="683" 
d="M644 30q21 0 35 7v-37q-19 -10 -44 -10q-49 0 -77 32.5t-47 103.5l-26 104q-13 59 -41 90q-29 29 -98 29h-205v-349h-47v700h47v-312h205q66 0 94 21.5t41 74.5l25 106q15 63 42.5 91.5t75.5 28.5q26 0 42 -10v-37q-15 7 -34 7q-33 0 -52 -20.5t-29 -66.5l-24 -102
q-12 -54 -33 -79t-64 -34q43 -9 66 -40.5t36 -93.5l26 -99q12 -54 32 -79.5t54 -25.5z" />
    <glyph glyph-name="uni041B" unicode="&#x41b;" horiz-adv-x="746" 
d="M238 700h414v-700h-47v661h-322q-4 -384 -65 -534q-29 -73 -66.5 -105t-88.5 -32q-26 0 -45 10v37q14 -7 35 -7q44 0 75.5 32.5t56.5 106.5q52 150 53 531z" />
    <glyph glyph-name="uni041C" unicode="&#x41c;" horiz-adv-x="899" 
d="M450 143l326 557h34v-700h-46v588l-305 -515h-18l-305 515v-588h-47v700h35z" />
    <glyph glyph-name="uni041D" unicode="&#x41d;" horiz-adv-x="785" 
d="M643 389v311h47v-700h-47v350h-502v-350h-47v700h47v-311h502z" />
    <glyph glyph-name="uni041E" unicode="&#x41e;" horiz-adv-x="836" 
d="M418 710q160 0 259 -104q99 -105 99 -256q0 -152 -99 -255q-99 -105 -259 -105q-159 0 -258 105q-100 103 -100 255t100 256q99 104 258 104zM194 122q85 -93 224 -93q138 0 224 93q85 92 85 228t-85 228q-86 93 -224 93q-139 0 -224 -93q-85 -92 -85 -228t85 -228z" />
    <glyph glyph-name="uni041F" unicode="&#x41f;" horiz-adv-x="775" 
d="M141 0h-47v700h586v-700h-46v661h-493v-661z" />
    <glyph glyph-name="uni0420" unicode="&#x420;" horiz-adv-x="655" 
d="M146 700h202q267 0 267 -198t-267 -198h-202v-304h-47v700h47zM146 343h188q117 0 175.5 37t58.5 122t-58.5 122t-175.5 37h-188v-318z" />
    <glyph glyph-name="uni0421" unicode="&#x421;" horiz-adv-x="774" 
d="M423 29q86 0 151 41.5t94 127.5h46q-34 -107 -113.5 -158.5t-177.5 -49.5q-159 0 -258 105q-100 103 -100 255t100 256q99 104 258 104q98 2 177.5 -49.5t113.5 -158.5h-46q-29 86 -94 127.5t-151 41.5q-139 0 -224 -93q-85 -92 -85 -228t85 -228q85 -93 224 -93z" />
    <glyph glyph-name="uni0422" unicode="&#x422;" horiz-adv-x="644" 
d="M346 700h280v-39h-280v-661h-47v661h-281v39h328z" />
    <glyph glyph-name="uni0423" unicode="&#x423;" horiz-adv-x="676" 
d="M354 251l252 449h52l-285 -501q-58 -102 -130 -152t-167 -50v41q80 0 140.5 40.5t112.5 128.5l-311 493h53z" />
    <glyph glyph-name="uni0424" unicode="&#x424;" horiz-adv-x="818" 
d="M427 720v-91q148 -3 239 -76q92 -74 92 -203q0 -128 -92 -202t-239 -77v-91h-43v91q-141 3 -233 77q-91 73 -91 202t91 202q92 74 233 77v91h43zM384 108v484q-123 -3 -200 -66t-77 -176t77 -176t200 -66zM427 592v-484q128 3 206 66t78 176t-78 176t-206 66z" />
    <glyph glyph-name="uni0425" unicode="&#x425;" horiz-adv-x="685" 
d="M371 361l296 -361h-57l-270 329l-265 -329h-57l296 360l-279 340h57l253 -308l247 308h56z" />
    <glyph glyph-name="uni0426" unicode="&#x426;" horiz-adv-x="780" 
d="M661 39h101v-200h-33l-8 161h-107h-510h-10v700h47v-661h473v661h47v-661z" />
    <glyph glyph-name="uni0427" unicode="&#x427;" horiz-adv-x="675" 
d="M533 376v324h47v-700h-47v335q-97 -44 -239 -44q-139 0 -207.5 51t-68.5 165v193h49v-192q0 -93 58 -135.5t175 -42.5q147 0 233 46z" />
    <glyph glyph-name="uni0428" unicode="&#x428;" horiz-adv-x="1011" 
d="M870 39v661h47v-700h-47h-388h-378h-10v700h47v-661h341v661h47v-661h341z" />
    <glyph glyph-name="uni0429" unicode="&#x429;" horiz-adv-x="1044" 
d="M1018 39h5v-39h-5v-161h-33l-8 161h-107h-388h-386h-2v700h47v-661h341v661h47v-661h341v661h47v-661h101z" />
    <glyph glyph-name="uni042A" unicode="&#x42a;" horiz-adv-x="823" 
d="M270 397h266q110 0 177 -57q67 -58 67 -142q0 -83 -67 -140q-67 -58 -177 -58h-303h-10v661h-205v39h242h10v-303zM270 39h259q92 0 146.5 44.5t54.5 114.5t-54.5 115t-146.5 45h-259v-319z" />
    <glyph glyph-name="uni042B" unicode="&#x42b;" horiz-adv-x="876" 
d="M141 397h207q108 0 176 -57q67 -58 67 -142q0 -83 -67 -140q-67 -58 -176 -58h-243h-11v700h47v-303zM730 0v700h47v-700h-47zM141 39h200q93 0 147 44.5t54 114.5q0 71 -54 115.5t-147 44.5h-200v-319z" />
    <glyph glyph-name="uni042C" unicode="&#x42c;" horiz-adv-x="681" 
d="M128 397h266q110 0 177 -57q67 -58 67 -142q0 -83 -67 -140q-67 -58 -177 -58h-303h-10v700h47v-303zM128 39h259q92 0 146.5 44.5t54.5 114.5t-54.5 115t-146.5 45h-259v-319z" />
    <glyph glyph-name="uni042D" unicode="&#x42d;" horiz-adv-x="774" 
d="M370 710q154 0 247 -104q92 -104 92 -256t-92 -256q-93 -104 -247 -104q-103 0 -190 51t-120 157h46q31 -87 106 -128q74 -41 158 -41q131 0 211 92q77 91 79 227h-434v39h432q-10 122 -88 204q-77 80 -200 80q-85 0 -158 -40q-75 -41 -106 -129h-46q33 106 120 157
t190 51z" />
    <glyph glyph-name="uni042E" unicode="&#x42e;" horiz-adv-x="1090" 
d="M701 710q141 0 236 -105q93 -107 93 -255q0 -149 -93 -254q-94 -106 -236 -106q-139 0 -232 103q-94 101 -97 248h-231v-341h-47v700h47v-320h232q10 139 102 235q92 95 226 95zM501 123q79 -94 200 -94t200 94q80 95 80 227t-80 227q-79 94 -200 94t-200 -94
q-80 -95 -80 -227t80 -227z" />
    <glyph glyph-name="uni042F" unicode="&#x42f;" horiz-adv-x="692" 
d="M344 700h254v-700h-47v323h-186q-67 0 -117 -34q-52 -34 -61 -84l-15 -79q-13 -70 -39 -103t-71 -33q-25 0 -44 10v37q14 -7 35 -7q29 0 46 25.5t27 79.5l14 74q18 93 114 127q-163 33 -163 176q0 98 70 143q71 45 183 45zM358 362h193v299h-193q-109 0 -164.5 -35
t-55.5 -114q0 -150 220 -150z" />
    <glyph glyph-name="uni0430" unicode="&#x430;" horiz-adv-x="555" 
d="M509 27q18 0 22 1v-36q-24 -2 -29 -2q-46 0 -71 26t-28 67q-24 -41 -74.5 -67t-112.5 -26q-77 0 -122.5 35t-45.5 93q0 78 73.5 122t224.5 44q40 0 52 -1v24q0 83 -30 117.5t-108 34.5q-82 0 -169 -38v42q93 34 173 34q92 0 135 -43t43 -137v-209q0 -81 67 -81zM223 26
q69 0 122 38t53 107v81q-11 1 -48 1q-257 0 -257 -131q0 -45 34.5 -70.5t95.5 -25.5z" />
    <glyph glyph-name="uni0431" unicode="&#x431;" horiz-adv-x="600" 
d="M310 456q105 0 175 -64t70 -168q0 -105 -76 -169q-77 -65 -182 -65q-107 0 -174 60q-68 60 -68 166q0 134 23 226t68.5 143t102.5 73.5t137 26.5q48 2 63 12t17 43h35q0 -54 -25.5 -73.5t-85.5 -19.5q-110 -2 -186 -58q-91 -69 -109 -263q25 58 80 94t135 36zM156 77
q55 -50 141 -50q87 0 149 54q62 53 62 142q0 88 -57 142q-58 54 -146 54q-93 0 -149 -53t-56 -150q2 -90 56 -139z" />
    <glyph glyph-name="uni0432" unicode="&#x432;" horiz-adv-x="601" 
d="M440 248q106 -28 106 -118q0 -63 -54 -96.5t-156 -33.5h-252v230v222v35h247q195 0 195 -129q0 -78 -86 -110zM327 452h-199v-188h199q153 0 153 93q0 95 -153 95zM128 35h204q169 0 169 97q0 98 -169 98h-204v-195z" />
    <glyph glyph-name="uni0433" unicode="&#x433;" horiz-adv-x="506" 
d="M129 487h353v-37h-353v-450h-45v487h45z" />
    <glyph glyph-name="uni0434" unicode="&#x434;" horiz-adv-x="681" 
d="M549 37h108v-198h-31l-9 161h-112h-441l-9 -161h-31v198h42h43q30 45 44 149q13 108 14 301h377h5v-450zM155 37h350v413h-296q-3 -168 -15 -264q-12 -97 -39 -149z" />
    <glyph glyph-name="uni0435" unicode="&#x435;" horiz-adv-x="601" 
d="M313 27q71 0 119.5 32t64.5 90h44q-18 -75 -78 -117t-150 -42q-107 0 -183 68q-75 68 -75 185q0 119 74 187q73 67 181 67q104 0 170 -57q66 -59 66 -175h-443q-1 -5 -1 -22q0 -102 61 -159t150 -57zM311 462q-80 0 -134.5 -43t-69.5 -122h391q-3 78 -54 121.5t-133 43.5
z" />
    <glyph glyph-name="uni0436" unicode="&#x436;" horiz-adv-x="900" 
d="M819 27q20 0 36 8v-35q-19 -10 -49 -10q-38 0 -58 23t-36 79l-15 52q-15 56 -39 77.5t-77 21.5h-110v-243h-42v243h-110q-53 0 -77 -21.5t-39 -77.5l-14 -52q-17 -57 -36 -79.5t-59 -22.5q-30 0 -49 10v35q16 -8 36 -8q24 0 38 16t25 56l14 50q28 105 89 112
q-34 4 -54 24t-30 62l-14 58q-13 55 -62 55q-18 0 -37 -8v35q17 10 46 10q42 0 65 -20.5t32 -64.5l13 -57q10 -45 33 -60t80 -15h110v207h42v-207h110q57 0 80 15t33 60l14 57q16 85 97 85q28 0 45 -10v-35q-19 8 -36 8q-50 0 -63 -55l-13 -58q-11 -42 -31 -62t-54 -24
q60 -8 90 -112l13 -50q12 -41 25.5 -56.5t37.5 -15.5z" />
    <glyph glyph-name="uni0437" unicode="&#x437;" horiz-adv-x="530" 
d="M349 251q126 -25 126 -124q0 -66 -60.5 -101.5t-168.5 -35.5q-113 0 -192 38v41q80 -42 191 -42q184 0 184 102q0 58 -53 81.5t-179 23.5v30v3q117 0 169.5 23t52.5 71t-44.5 73.5t-129.5 25.5q-90 0 -181 -38v41q90 34 183 34q104 0 161 -35t57 -98q0 -83 -116 -113z
" />
    <glyph glyph-name="uni0438" unicode="&#x438;" horiz-adv-x="632" 
d="M129 68l384 419h35v-487h-45v419l-384 -419h-35v487h45v-419z" />
    <glyph glyph-name="uni0439" unicode="&#x439;" horiz-adv-x="632" 
d="M439 719h29q-15 -146 -147 -146t-147 146h30q9 -57 37.5 -84.5t79.5 -27.5t79.5 27.5t38.5 84.5zM129 68l384 419h35v-487h-45v419l-384 -419h-35v487h45v-419z" />
    <glyph glyph-name="uni043A" unicode="&#x43a;" horiz-adv-x="630" 
d="M549 27q20 0 36 8v-35q-19 -10 -49 -10q-40 0 -59.5 22.5t-35.5 79.5l-14 52q-17 56 -43 78q-27 21 -98 21h-157v-243h-45v487h45v-207h157q74 0 101 15q27 16 37 60l13 57q9 44 32 64.5t65 20.5q27 0 46 -10v-35q-19 8 -37 8q-50 0 -62 -55l-14 -58q-10 -42 -29.5 -62
t-55.5 -24q60 -8 90 -112l14 -50q11 -40 25 -56t38 -16z" />
    <glyph glyph-name="uni043B" unicode="&#x43b;" horiz-adv-x="659" 
d="M574 487h1v-37h-1v-450h-45v450h-302q-4 -262 -37 -363q-33 -97 -127 -97q-26 0 -45 10v35q16 -8 35 -8q41 0 66 24t39 77q16 58 23 205q1 59 3 154h390z" />
    <glyph glyph-name="uni043C" unicode="&#x43c;" horiz-adv-x="753" 
d="M376 118l258 369h34v-487h-44v402l-239 -343h-17l-239 343v-402h-45v487h35z" />
    <glyph glyph-name="uni043D" unicode="&#x43d;" horiz-adv-x="632" 
d="M502 280v207h45v-487h-45v243h-373v-243h-45v487h45v-207h373z" />
    <glyph glyph-name="uni043E" unicode="&#x43e;" horiz-adv-x="626" 
d="M130 429q76 68 183 68t183 -68q75 -67 75 -186q0 -117 -75 -185q-76 -68 -183 -68t-183 68q-75 68 -75 185q0 119 75 186zM163 84q61 -57 150 -57t150 57t61 159q0 103 -61 160t-150 57t-150 -57t-61 -160q0 -102 61 -159z" />
    <glyph glyph-name="uni043F" unicode="&#x43f;" horiz-adv-x="632" 
d="M129 487h418v-487h-45v450h-373v-450h-45v487h45z" />
    <glyph glyph-name="uni0440" unicode="&#x440;" horiz-adv-x="639" 
d="M339 496q105 0 175 -68q69 -68 69 -185t-69 -185q-70 -68 -175 -68q-72 0 -128.5 34.5t-81.5 87.5v-332h-45v707h45v-113q25 53 81.5 87.5t128.5 34.5zM187 85q58 -58 146 -58t146 58q57 57 57 158t-57 159q-59 57 -146 57t-146 -57q-58 -58 -58 -159t58 -158z" />
    <glyph glyph-name="uni0441" unicode="&#x441;" horiz-adv-x="581" 
d="M308 27q71 0 119.5 33t64.5 93h44q-18 -77 -78.5 -120t-149.5 -43q-107 0 -183 68q-75 68 -75 185q0 119 75 186q76 68 183 68q89 0 149.5 -43t78.5 -120h-44q-16 60 -64.5 93t-119.5 33q-88 0 -149 -57q-62 -59 -62 -160q0 -102 61 -159q62 -57 150 -57z" />
    <glyph glyph-name="uni0442" unicode="&#x442;" horiz-adv-x="546" 
d="M295 487h217v-37h-217v-450h-45v450h-216v37h261z" />
    <glyph glyph-name="uni0443" unicode="&#x443;" horiz-adv-x="535" 
d="M275 58l194 429h51l-226 -487q-5 -9 -14.5 -29t-12.5 -27q-7 -15 -26 -48q-26 -43 -63 -78q-27 -25 -62.5 -35.5t-88.5 -12.5v41q78 -5 139 52q24 22 57 87q1 3 28 58l-236 479h53z" />
    <glyph glyph-name="uni0444" unicode="&#x444;" horiz-adv-x="755" 
d="M398 740v-243q135 -3 219 -69q83 -66 83 -185t-83 -184q-84 -66 -219 -69v-210h-41v210q-136 3 -218 69q-84 65 -84 184t84 185q82 66 218 69v243h41zM357 25v436q-120 -3 -188.5 -59t-68.5 -159t68.5 -159t188.5 -59zM398 461v-436q120 3 188.5 59t68.5 159t-68.5 159
t-188.5 59z" />
    <glyph glyph-name="uni0445" unicode="&#x445;" horiz-adv-x="553" 
d="M469 487h53l-218 -242l217 -245h-54l-193 218l-191 -218h-53l219 245l-214 242h54l191 -216z" />
    <glyph glyph-name="uni0446" unicode="&#x446;" horiz-adv-x="646" 
d="M537 37h96v-198h-31l-9 161h-101h-398h-10v487h45v-450h363v450h45v-450z" />
    <glyph glyph-name="uni0447" unicode="&#x447;" horiz-adv-x="593" 
d="M463 284v203h45v-487h-45v244q-81 -45 -198 -45q-106 0 -158 42.5t-52 133.5v112h45v-103q0 -79 42 -112.5t138 -33.5q107 0 183 46z" />
    <glyph glyph-name="uni0448" unicode="&#x448;" horiz-adv-x="955" 
d="M826 37v450h45v-487h-45h-371h-361h-10v487h45v-450h326v450h45v-450h326z" />
    <glyph glyph-name="uni0449" unicode="&#x449;" horiz-adv-x="980" 
d="M871 37h95v-198h-31l-9 161h-65h-361h-371h-45v487h45v-450h326v450h45v-450h326v450h45v-450z" />
    <glyph glyph-name="uni044A" unicode="&#x44a;" horiz-adv-x="709" 
d="M244 280h207q210 0 210 -139q0 -141 -210 -141h-252v244v206h-165v37h210v-207zM244 36h203q87 0 128 24.5t41 80.5q0 54 -41.5 78.5t-127.5 24.5h-203v-208z" />
    <glyph glyph-name="uni044B" unicode="&#x44b;" horiz-adv-x="758" 
d="M122 280h169q211 0 211 -139q0 -141 -211 -141h-214v244v243h45v-207zM628 0v487h45v-487h-45zM122 36h166q86 0 127 24.5t41 80.5q0 54 -41.5 78.5t-126.5 24.5h-166v-208z" />
    <glyph glyph-name="uni044C" unicode="&#x44c;" horiz-adv-x="594" 
d="M129 280h207q210 0 210 -139q0 -141 -210 -141h-252v244v243h45v-207zM129 36h203q87 0 128 24.5t41 80.5q0 54 -41.5 78.5t-127.5 24.5h-203v-208z" />
    <glyph glyph-name="uni044D" unicode="&#x44d;" horiz-adv-x="571" 
d="M278 497q107 0 177 -67q71 -68 71 -187q0 -118 -71 -186q-70 -67 -177 -67q-87 0 -152 44t-86 118h43q18 -57 72 -91.5t123 -34.5q86 0 144 55q58 54 59 154h-316v33h315q-7 90 -62.5 141t-139.5 51q-69 0 -123 -34t-72 -91h-43q21 74 86 118t152 44z" />
    <glyph glyph-name="uni044E" unicode="&#x44e;" horiz-adv-x="819" 
d="M517 497q106 0 176 -67q71 -68 71 -187t-70 -186t-177 -67q-106 0 -176 67q-71 68 -71 186h-141v-243h-45v487h45v-210h143q11 104 79 162t166 58zM374 83q56 -56 143 -56q86 0 144 56q56 56 56 160q0 103 -56 161q-58 56 -144 56q-87 0 -143 -56q-57 -57 -57 -161
q0 -105 57 -160z" />
    <glyph glyph-name="uni044F" unicode="&#x44f;" horiz-adv-x="632" 
d="M318 487h230v-487h-45v222h-161q-74 0 -100 -15q-25 -15 -40 -67l-14 -48q-18 -58 -37 -80t-57 -22q-29 0 -50 10v35q18 -8 36 -8q24 0 37.5 15.5t26.5 56.5l13 45q13 41 27.5 61.5t36.5 28.5q-114 27 -114 121q0 132 211 132zM321 258h182v192h-182q-168 0 -168 -95
q0 -97 168 -97z" />
    <glyph glyph-name="uni0451" unicode="&#x451;" horiz-adv-x="601" 
d="M228 634q-16 -16 -37.5 -7t-21.5 31q0 14 10.5 24t23.5 10q23 0 32 -21t-7 -37zM421 634q-16 -15 -34.5 -8.5t-23 23.5t8.5 33q15 15 34 8.5t23.5 -23.5t-8.5 -33zM313 27q71 0 119.5 32t64.5 90h44q-18 -75 -78 -117t-150 -42q-107 0 -183 68q-75 68 -75 185
q0 119 74 187q73 67 181 67q104 0 170 -57q66 -59 66 -175h-443q-1 -5 -1 -22q0 -102 61 -159t150 -57zM311 462q-80 0 -134.5 -43t-69.5 -122h391q-3 78 -54 121.5t-133 43.5z" />
    <glyph glyph-name="uni0452" unicode="&#x452;" horiz-adv-x="632" 
d="M347 497q201 0 201 -214v-283h-1v-62q0 -80 -44.5 -124t-130.5 -44v37q67 0 98.5 35t31.5 108v50h1v276q0 181 -164 181q-81 0 -146 -56q-64 -57 -64 -154v-247h-45v590h-107v34h107v116h45v-116h158v-34h-158v-224q32 60 88 95.5t130 35.5z" />
    <glyph glyph-name="uni0453" unicode="&#x453;" horiz-adv-x="506" 
d="M355 727h52l-130 -162h-34zM129 487h353v-37h-353v-450h-45v487h45z" />
    <glyph glyph-name="uni0454" unicode="&#x454;" horiz-adv-x="581" 
d="M308 26q70 0 118 33t67 93h43q-20 -76 -80.5 -119t-147.5 -43q-107 0 -183 68q-75 68 -75 185q0 119 75 186q76 68 183 68q87 0 147.5 -43t80.5 -119h-43q-19 60 -67 92.5t-118 32.5q-82 0 -143 -50q-61 -49 -69 -142h315v-33h-316q3 -98 65 -154q61 -55 148 -55z" />
    <glyph glyph-name="uni0455" unicode="&#x455;" horiz-adv-x="526" 
d="M117 367q0 -19 11 -34t25.5 -24.5t41 -18.5t46 -13.5t54 -11.5t51.5 -11q56 -14 90.5 -44.5t34.5 -75.5q0 -72 -59.5 -108t-162.5 -36q-100 0 -184 38v42q78 -42 183 -42q82 0 129 25.5t47 75.5q0 38 -36.5 60t-88 32.5t-103.5 22.5t-88.5 41.5t-36.5 77.5
q0 63 56.5 98.5t151.5 35.5q85 0 175 -34v-40q-93 38 -174 38q-75 0 -119 -25t-44 -69z" />
    <glyph glyph-name="uni0456" unicode="&#x456;" horiz-adv-x="214" 
d="M107 621q-14 0 -24.5 10.5t-10.5 24.5t10.5 25t24.5 11q22 0 31.5 -18t0 -36t-31.5 -17zM129 0h-45v487h45v-487z" />
    <glyph glyph-name="uni0457" unicode="&#x457;" horiz-adv-x="214" 
d="M35 634q-16 -15 -34.5 -8.5t-23 23.5t8.5 33q15 15 34 8.5t23.5 -23.5t-8.5 -33zM228 634q-16 -16 -37.5 -7t-21.5 31q0 14 10.5 24t23.5 10q23 0 32 -21t-7 -37zM129 0h-45v487h45v-487z" />
    <glyph glyph-name="uni0458" unicode="&#x458;" horiz-adv-x="214" 
d="M107 692q22 0 31.5 -18t0 -36t-31.5 -17q-14 0 -24.5 10.5t-10.5 24.5t10.5 25t24.5 11zM84 -50v537h45v-549q0 -80 -44.5 -124t-130.5 -44v37q67 0 98.5 35t31.5 108z" />
    <glyph glyph-name="uni0459" unicode="&#x459;" horiz-adv-x="977" 
d="M549 280h169q211 0 211 -139q0 -141 -211 -141h-214v244v206h-277q-4 -262 -37 -363q-33 -97 -127 -97q-26 0 -45 10v35q16 -8 35 -8q77 0 103 96q25 93 28 364h355h10v-207zM549 36h166q86 0 127 24.5t41 80.5q0 54 -41.5 78.5t-126.5 24.5h-166v-208z" />
    <glyph glyph-name="uni045A" unicode="&#x45a;" horiz-adv-x="933" 
d="M505 280h169q211 0 211 -139q0 -141 -211 -141h-214v243h-331v-243h-45v280v207h45v-207h331v207h45v-207zM505 36h166q86 0 127 24.5t41 80.5q0 54 -41.5 78.5t-126.5 24.5h-166v-208z" />
    <glyph glyph-name="uni045B" unicode="&#x45b;" horiz-adv-x="632" 
d="M347 497q201 0 201 -214v-283h-45v276q0 181 -164 181q-81 0 -146 -56q-64 -57 -64 -154v-247h-45v590h-107v34h107v116h45v-116h158v-34h-158v-224q32 60 88 95.5t130 35.5z" />
    <glyph glyph-name="uni045C" unicode="&#x45c;" horiz-adv-x="630" 
d="M387 727h52l-130 -162h-34zM549 27q20 0 36 8v-35q-19 -10 -49 -10q-40 0 -59.5 22.5t-35.5 79.5l-14 52q-17 56 -43 78q-27 21 -98 21h-157v-243h-45v487h45v-207h157q74 0 101 15q27 16 37 60l13 57q9 44 32 64.5t65 20.5q27 0 46 -10v-35q-19 8 -37 8q-50 0 -62 -55
l-14 -58q-10 -42 -29.5 -62t-55.5 -24q60 -8 90 -112l14 -50q11 -40 25 -56t38 -16z" />
    <glyph glyph-name="uni045E" unicode="&#x45e;" horiz-adv-x="535" 
d="M274 553q-129 0 -147 129h30q20 -95 117 -95t118 95h29q-17 -129 -147 -129zM275 58l194 429h51l-226 -487q-5 -9 -14.5 -29t-12.5 -27q-7 -15 -26 -48q-26 -43 -63 -78q-27 -25 -62.5 -35.5t-88.5 -12.5v41q78 -5 139 52q24 22 57 87q1 3 28 58l-236 479h53z" />
    <glyph glyph-name="uni045F" unicode="&#x45f;" horiz-adv-x="622" 
d="M492 37v450h45v-487h-45h-161l-4 -161h-31l-4 161h-196h-12v487h45v-450h203h160z" />
    <glyph glyph-name="uni0462" unicode="&#x462;" horiz-adv-x="799" 
d="M246 397h266q110 0 177 -57q67 -58 67 -142q0 -83 -67 -140q-67 -58 -177 -58h-303h-10v526h-181v35h181v139h47v-139h280v-35h-280v-129zM246 39h259q92 0 146.5 44.5t54.5 114.5t-54.5 115t-146.5 45h-259v-319z" />
    <glyph glyph-name="uni0463" unicode="&#x463;" horiz-adv-x="592" 
d="M127 280h207q210 0 210 -139q0 -141 -210 -141h-252v244v345h-106v34h106v117h45v-117h159v-34h-159v-309zM127 36h203q87 0 128 24.5t41 80.5q0 54 -41.5 78.5t-127.5 24.5h-203v-208z" />
    <glyph glyph-name="uni0472" unicode="&#x472;" horiz-adv-x="836" 
d="M418 710q158 0 258 -105q101 -106 101 -255t-101 -255q-100 -105 -258 -105q-157 0 -257 106q-101 106 -101 254t101 255q101 105 257 105zM418 671q-126 0 -211 -82q-86 -83 -98 -204h619q-12 122 -97 204t-213 82zM418 29q137 0 225 94q87 93 87 227v2h-623v-2
q0 -135 88 -227q87 -94 223 -94z" />
    <glyph glyph-name="uni0473" unicode="&#x473;" horiz-adv-x="626" 
d="M313 497q107 0 183 -68q75 -67 75 -186q0 -117 -75 -185q-76 -68 -183 -68q-106 0 -182 68q-76 67 -76 185q0 119 76 186q76 68 182 68zM457 410q-62 50 -144 50t-143 -50q-60 -50 -68 -142h423q-8 92 -68 142zM313 26q88 0 150 56t63 154h-425q1 -98 64 -154
q62 -56 148 -56z" />
    <glyph glyph-name="uni0474" unicode="&#x474;" horiz-adv-x="742" 
d="M679 710q32 0 45 -10v-37q-14 7 -33 7q-33 0 -50 -17.5t-39 -69.5l-240 -583h-52l-292 700h51l267 -648l220 538q28 70 52 94q26 26 71 26z" />
    <glyph glyph-name="uni0475" unicode="&#x475;" horiz-adv-x="597" 
d="M536 497q28 0 45 -10v-35q-19 8 -36 8q-21 0 -33 -11t-27 -44l-191 -405h-39l-240 487h53l207 -432l162 357q21 48 41.5 66.5t57.5 18.5z" />
    <glyph glyph-name="uni0490" unicode="&#x490;" horiz-adv-x="582" 
d="M520 700v140h44v-179h-44h-379v-661h-47v700h47h379z" />
    <glyph glyph-name="uni0491" unicode="&#x491;" horiz-adv-x="507" 
d="M442 487v127h41v-164h-354v-450h-45v487h358z" />
    <glyph glyph-name="uni0492" unicode="&#x492;" horiz-adv-x="672" 
d="M653 700v-39h-421v-292h288v-39h-288v-330h-47v330h-167v39h167v331h47h421z" />
    <glyph glyph-name="uni0493" unicode="&#x493;" horiz-adv-x="560" 
d="M536 487v-37h-353v-205h186v-32h-186v-213h-45v213h-114v32h114v242h45h353z" />
    <glyph glyph-name="uni0494" unicode="&#x494;" horiz-adv-x="705" 
d="M354 418q59 0 110.5 -16t94 -49t67 -90t24.5 -132q0 -145 -86 -216q-85 -70 -218 -70q-72 0 -116 19v39q48 -19 115 -19q111 0 184 61q72 61 72 186t-72 187q-73 61 -180 61q-60 0 -117.5 -18t-90.5 -48v-313h-47v700h47h421v-39h-421v-306q78 63 213 63z" />
    <glyph glyph-name="uni0495" unicode="&#x495;" horiz-adv-x="624" 
d="M325 283q92 0 163 -51q81 -60 81 -206q0 -145 -83 -205q-74 -51 -172 -51q-51 0 -99 19v38q48 -20 97 -20q38 0 72 10t67 32.5t52.5 68t19.5 108.5q0 130 -72 179q-62 41 -141 41q-111 0 -181 -46v-200h-45v487h45h353v-37h-353v-212q80 45 196 45z" />
    <glyph glyph-name="uni0496" unicode="&#x496;" horiz-adv-x="953" 
d="M914 30q21 0 35 7v-216h-31l-9 169h-4q-50 0 -79 33t-44 103l-23 104q-13 63 -42 91t-93 28h-126v-349h-43v349h-122q-67 0 -96.5 -28t-42.5 -91l-23 -104q-15 -70 -44 -103t-79 -33q-27 0 -44 10v37q14 -7 35 -7q63 0 86 105l22 99q12 60 35.5 92.5t66.5 41.5
q-44 9 -66.5 35.5t-30.5 77.5l-15 87q-17 102 -87 102q-19 0 -34 -7v37q16 10 43 10q101 0 123 -135l16 -91q9 -51 38.5 -73.5t96.5 -22.5h122v312h43v-312h126q64 0 93 22.5t38 73.5l16 91q25 135 123 135q27 0 43 -10v-37q-15 7 -34 7q-71 0 -87 -102l-15 -87
q-8 -51 -30.5 -77.5t-66.5 -35.5q43 -9 66.5 -41.5t35.5 -92.5l22 -99q22 -105 86 -105z" />
    <glyph glyph-name="uni0497" unicode="&#x497;" horiz-adv-x="900" 
d="M819 27q20 0 36 8v-196h-32l-9 151h-8q-38 0 -58 23t-36 79l-15 52q-15 56 -39 77.5t-77 21.5h-110v-243h-42v243h-110q-53 0 -77 -21.5t-39 -77.5l-14 -52q-17 -57 -36 -79.5t-59 -22.5q-30 0 -49 10v35q16 -8 36 -8q24 0 38 16t25 56l14 50q28 105 89 112q-34 4 -54 24
t-30 62l-14 58q-13 55 -62 55q-18 0 -37 -8v35q17 10 46 10q42 0 65 -20.5t32 -64.5l13 -57q10 -45 33 -60t80 -15h110v207h42v-207h110q57 0 80 15t33 60l14 57q16 85 97 85q28 0 45 -10v-35q-19 8 -36 8q-50 0 -63 -55l-13 -58q-11 -42 -31 -62t-54 -24q60 -8 90 -112
l13 -50q12 -41 25.5 -56.5t37.5 -15.5z" />
    <glyph glyph-name="uni0498" unicode="&#x498;" horiz-adv-x="679" 
d="M619 178q0 -83 -74 -134q-75 -51 -190 -54l-17 -56q62 10 102 -10t40 -65q0 -43 -30 -66t-82 -23q-44 0 -79 18v28q35 -18 75 -18q79 0 79 59q0 38 -44 49q-45 12 -103 -6l28 90q-117 5 -184 57.5t-80 149.5h47q25 -169 236 -169q99 0 164 42q63 41 63 109q0 77 -80 121
t-225 44v33v5q142 0 214 37.5t72 105.5q0 70 -55.5 108.5t-152.5 38.5q-93 0 -149.5 -42t-68.5 -119h-45q13 95 82 147t181 52q117 0 186.5 -47.5t69.5 -135.5q0 -61 -46 -103t-135 -61q97 -20 149 -67.5t52 -117.5z" />
    <glyph glyph-name="uni0499" unicode="&#x499;" horiz-adv-x="530" 
d="M475 127q0 -65 -57 -100t-161 -37l-17 -56q62 10 102 -10t40 -65q0 -43 -30 -66t-82 -23q-44 0 -79 18v28q35 -18 75 -18q79 0 79 59q0 38 -44 49q-45 12 -103 -6l28 90q-105 4 -172 38v41q80 -42 191 -42q184 0 184 102q0 58 -53 81.5t-179 23.5v30v3q117 0 169.5 23
t52.5 71t-44.5 73.5t-129.5 25.5q-90 0 -181 -38v41q90 34 183 34q104 0 161 -35t57 -98q0 -83 -116 -113q126 -25 126 -124z" />
    <glyph glyph-name="uni049A" unicode="&#x49a;" horiz-adv-x="683" 
d="M644 30q21 0 35 7v-216h-32l-9 169h-3q-49 0 -77 32.5t-47 103.5l-26 104q-13 59 -41 90q-29 29 -98 29h-205v-349h-47v700h47v-312h205q66 0 94 21.5t41 74.5l25 106q15 63 42.5 91.5t75.5 28.5q26 0 42 -10v-37q-15 7 -34 7q-33 0 -52 -20.5t-29 -66.5l-24 -102
q-12 -54 -33 -79t-64 -34q43 -9 66 -40.5t36 -93.5l26 -99q12 -54 32 -79.5t54 -25.5z" />
    <glyph glyph-name="uni049B" unicode="&#x49b;" horiz-adv-x="630" 
d="M549 27q20 0 36 8v-196h-32l-9 151h-8q-40 0 -59.5 22.5t-35.5 79.5l-14 52q-17 56 -43 78q-27 21 -98 21h-157v-243h-45v487h45v-207h157q74 0 101 15q27 16 37 60l13 57q9 44 32 64.5t65 20.5q27 0 46 -10v-35q-19 8 -37 8q-50 0 -62 -55l-14 -58q-10 -42 -29.5 -62
t-55.5 -24q60 -8 90 -112l14 -50q11 -40 25 -56t38 -16z" />
    <glyph glyph-name="uni049C" unicode="&#x49c;" horiz-adv-x="689" 
d="M651 30q20 0 35 7v-37q-19 -10 -45 -10q-49 0 -76.5 32.5t-46.5 103.5l-27 104q-12 54 -35 84q-29 35 -104 35h-30v-151h-34v151h-147v-349h-47v388v312h47v-312h147v152h34v-152h30q71 0 97 23t38 73l26 106q15 63 42.5 91.5t74.5 28.5q27 0 43 -10v-37q-15 7 -34 7
q-33 0 -52.5 -21t-29.5 -66l-23 -102q-12 -54 -33 -79t-65 -34q43 -9 65.5 -40t37.5 -94l25 -99q12 -54 32.5 -79.5t54.5 -25.5z" />
    <glyph glyph-name="uni049D" unicode="&#x49d;" horiz-adv-x="634" 
d="M553 27q18 0 36 8v-35q-21 -10 -50 -10q-40 0 -59.5 23t-34.5 79l-14 52q-17 56 -43 78q-27 21 -99 21h-5v-133h-31v133h-124v-243h-45v487h45v-207h124v134h31v-134h5q74 0 101 15q26 15 37 60l14 57q16 85 97 85q27 0 46 -10v-35q-21 8 -37 8q-50 0 -62 -55l-14 -58
q-10 -42 -29.5 -62t-55.5 -24q60 -8 90 -112l13 -50q12 -41 25.5 -56.5t38.5 -15.5z" />
    <glyph glyph-name="uni049E" unicode="&#x49e;" horiz-adv-x="683" 
d="M644 30q21 0 35 7v-37q-19 -10 -44 -10q-49 0 -77 32.5t-47 103.5l-26 104q-13 59 -41 90q-29 29 -98 29h-205v-349h-47v516h-136v34h136v150h47v-150h127v-34h-127v-128h205q66 0 94 21.5t41 74.5l25 106q15 63 42.5 91.5t75.5 28.5q26 0 42 -10v-37q-15 7 -34 7
q-33 0 -52 -20.5t-29 -66.5l-24 -102q-12 -54 -33 -79t-64 -34q43 -9 66 -40.5t36 -93.5l26 -99q12 -54 32 -79.5t54 -25.5z" />
    <glyph glyph-name="uni049F" unicode="&#x49f;" horiz-adv-x="611" 
d="M530 27q20 0 36 8v-35q-21 -10 -49 -10q-40 0 -59.5 22.5t-35.5 79.5l-14 52q-17 56 -43 78q-27 21 -99 21h-139v-243h-45v589h-106v34h106v117h45v-117h159v-34h-159v-309h139q74 0 101 15q28 15 38 60l13 57q9 44 32 64.5t65 20.5q27 0 46 -10v-35q-19 8 -37 8
q-50 0 -62 -55l-14 -58q-10 -42 -29.5 -62t-55.5 -24q60 -8 90 -112l14 -50q11 -40 25 -56t38 -16z" />
    <glyph glyph-name="uni04A0" unicode="&#x4a0;" horiz-adv-x="801" 
d="M763 30q21 0 35 7v-37q-19 -10 -44 -10q-49 0 -77 32.5t-47 103.5l-26 104q-13 59 -41 90q-29 29 -98 29h-205v-349h-47v661h-195v39h242v-312h205q66 0 94 21.5t41 74.5l25 106q15 63 42.5 91.5t75.5 28.5q26 0 42 -10v-37q-15 7 -34 7q-33 0 -52 -20.5t-29 -66.5
l-24 -102q-12 -54 -33 -79t-64 -34q43 -9 66 -40.5t36 -93.5l26 -99q12 -54 32 -79.5t54 -25.5z" />
    <glyph glyph-name="uni04A1" unicode="&#x4a1;" horiz-adv-x="734" 
d="M653 27q20 0 36 8v-35q-19 -10 -49 -10q-40 0 -59.5 22.5t-35.5 79.5l-14 52q-17 56 -43 78q-27 21 -98 21h-157v-243h-45v450h-154v37h199h1l-1 -4v-203h157q74 0 101 15q27 16 37 60l13 57q9 44 32 64.5t65 20.5q27 0 46 -10v-35q-19 8 -37 8q-50 0 -62 -55l-14 -58
q-10 -42 -29.5 -62t-55.5 -24q60 -8 90 -112l14 -50q11 -40 25 -56t38 -16z" />
    <glyph glyph-name="uni04A2" unicode="&#x4a2;" horiz-adv-x="805" 
d="M690 39h97v-200h-33l-8 161h-102h-1v350h-502v-350h-47v700h47v-311h502v311h47v-661z" />
    <glyph glyph-name="uni04A3" unicode="&#x4a3;" horiz-adv-x="657" 
d="M547 37h97v-198h-31l-9 161h-101h-1v243h-373v-243h-45v487h45v-207h373v207h45v-450z" />
    <glyph glyph-name="uni04A4" unicode="&#x4a4;" horiz-adv-x="893" 
d="M690 700h195v-39h-195v-661h-47v350h-502v-350h-47v700h47v-311h502v311h47z" />
    <glyph glyph-name="uni04A5" unicode="&#x4a5;" horiz-adv-x="737" 
d="M547 487h165v-37h-165v-450h-45v243h-373v-243h-45v487h45v-207h373v207h45z" />
    <glyph glyph-name="uni04A6" unicode="&#x4a6;" horiz-adv-x="1230" 
d="M893 418q59 0 110.5 -16t94 -49t67 -90t24.5 -132q0 -145 -86 -216q-85 -70 -218 -70q-72 0 -116 19v39q48 -19 115 -19q111 0 184 61q72 61 72 186t-72 187q-73 61 -180 61q-60 0 -117.5 -18t-90.5 -48v-313h-46v661h-493v-661h-47v700h586v-345q78 63 213 63z" />
    <glyph glyph-name="uni04A7" unicode="&#x4a7;" horiz-adv-x="1043" 
d="M743 283q92 0 163 -51q81 -60 81 -206q0 -145 -83 -205q-74 -51 -172 -51q-51 0 -99 19v38q48 -20 97 -20q38 0 72 10t67 32.5t52.5 68t19.5 108.5q0 130 -72 179q-62 41 -141 41q-111 0 -181 -46v-200h-45v450h-373v-450h-45v487h45h409h9v-249q79 45 196 45z" />
    <glyph glyph-name="uni04A8" unicode="&#x4a8;" horiz-adv-x="853" 
d="M829 28v-38q-123 0 -216 57q-83 -57 -189 -57q-160 0 -260 98q-99 98 -99 262q0 163 110 262q110 98 278 98q101 0 200 -44v-44q-97 49 -199 49q-150 0 -245 -87t-95 -234q0 -150 85 -235q85 -87 228 -87q84 0 154 41q-57 44 -89.5 104.5t-32.5 119.5q0 89 38.5 138
t109.5 49q68 0 108 -50t40 -137q0 -58 -29.5 -117.5t-80.5 -104.5q80 -43 184 -43zM500 292q0 -55 30 -109t83 -92q48 39 75 93t27 108q0 72 -28 112.5t-80 40.5q-107 0 -107 -153z" />
    <glyph glyph-name="uni04A9" unicode="&#x4a9;" horiz-adv-x="665" 
d="M641 25v-35q-82 0 -146 43q-76 -43 -185 -43q-111 0 -185 67q-75 67 -75 186q0 123 76 189q76 65 184 65q79 0 169 -34v-40q-91 38 -168 38q-92 0 -153 -55t-61 -163q0 -104 62 -160q61 -57 154 -57q89 0 152 31q-38 33 -59 77.5t-21 87.5q0 52 28 92q27 40 86 40t87 -40
q27 -41 27 -92q0 -45 -22.5 -90t-64.5 -78q53 -29 115 -29zM424 220q0 -85 72 -145q78 55 78 145q0 102 -75 102t-75 -102z" />
    <glyph glyph-name="uni04AA" unicode="&#x4aa;" horiz-adv-x="774" 
d="M423 29q86 0 151 41.5t94 127.5h46q-34 -107 -113.5 -158.5t-177.5 -49.5h-6l-17 -56q62 10 102 -10t40 -65q0 -43 -30 -66t-82 -23q-44 0 -79 18v28q35 -18 75 -18q79 0 79 59q0 38 -44 49q-45 12 -103 -6l29 92q-145 12 -233 115q-89 103 -89 243q0 152 100 256
q99 104 258 104q98 2 177.5 -49.5t113.5 -158.5h-46q-29 86 -94 127.5t-151 41.5q-139 0 -224 -93q-85 -92 -85 -228t85 -228q85 -93 224 -93z" />
    <glyph glyph-name="uni04AB" unicode="&#x4ab;" horiz-adv-x="581" 
d="M308 27q71 0 119.5 33t64.5 93h44q-17 -74 -74 -117t-142 -46l-17 -56q62 10 102 -10t40 -65q0 -43 -30 -66t-82 -23q-45 0 -79 18v28q34 -18 75 -18q79 0 79 59q0 38 -44 49q-44 12 -103 -6l28 91q-102 6 -170 73q-69 66 -69 179q0 119 75 186q76 68 183 68
q89 0 149.5 -43t78.5 -120h-44q-16 60 -64.5 93t-119.5 33q-88 0 -149 -57q-62 -59 -62 -160q0 -102 61 -159q62 -57 150 -57z" />
    <glyph glyph-name="uni04AC" unicode="&#x4ac;" horiz-adv-x="644" 
d="M626 700v-39h-280v-622h96v-200h-33l-8 161h-102v661h-281v39h328h280z" />
    <glyph glyph-name="uni04AD" unicode="&#x4ad;" horiz-adv-x="526" 
d="M502 487v-37h-217v-413h85h1v-198h-31l-9 161h-90h-1v450h-216v37h261h217z" />
    <glyph glyph-name="uni04AE" unicode="&#x4ae;" horiz-adv-x="665" 
d="M596 700h51l-285 -404v-296h-47v296l-297 404h52l270 -363z" />
    <glyph glyph-name="uni04AF" unicode="&#x4af;" horiz-adv-x="535" 
d="M469 487h51l-223 -478v-239h-45v234l-237 483h53l207 -429z" />
    <glyph glyph-name="uni04B0" unicode="&#x4b0;" horiz-adv-x="665" 
d="M647 700l-285 -404v-50h165v-36h-165v-210h-47v210h-159v36h159v50l-297 404h52l270 -363l256 363h51z" />
    <glyph glyph-name="uni04B1" unicode="&#x4b1;" horiz-adv-x="535" 
d="M520 487l-223 -478v-32h160v-33h-160v-174h-45v174h-167v33h167v27l-237 483h53l207 -429l194 429h51z" />
    <glyph glyph-name="uni04B2" unicode="&#x4b2;" horiz-adv-x="754" 
d="M729 39h1v-39h-1v-161h-33l-8 161h-78l-270 329l-265 -329h-57l296 360l-279 340h57l253 -308l247 308h56l-277 -339l264 -322h94z" />
    <glyph glyph-name="uni04B3" unicode="&#x4b3;" horiz-adv-x="603" 
d="M488 37h92v-198h-31l-9 161h-73l-193 218l-191 -218h-53l219 245l-214 242h54l191 -216l189 216h53l-218 -242z" />
    <glyph glyph-name="uni04B4" unicode="&#x4b4;" horiz-adv-x="948" 
d="M828 39h101v-200h-33l-8 161h-107h-510h-10v661h-243v39h290h243v-39h-243v-622h473v661h47v-661z" />
    <glyph glyph-name="uni04B5" unicode="&#x4b5;" horiz-adv-x="786" 
d="M677 37h96v-198h-31l-9 161h-101h-398h-10v450h-200v37h245h200v-37h-200v-413h363v450h45v-450z" />
    <glyph glyph-name="uni04B6" unicode="&#x4b6;" horiz-adv-x="695" 
d="M580 39h97v-200h-33l-8 161h-102h-1v335q-97 -44 -239 -44q-139 0 -207.5 51t-68.5 165v193h49v-192q0 -93 58 -135.5t175 -42.5q147 0 233 46v324h47v-661z" />
    <glyph glyph-name="uni04B7" unicode="&#x4b7;" horiz-adv-x="618" 
d="M508 37h96v-198h-31l-9 161h-101v244q-81 -45 -198 -45q-106 0 -158 42.5t-52 133.5v112h45v-103q0 -79 42 -112.5t138 -33.5q107 0 183 46v203h45v-450z" />
    <glyph glyph-name="uni04B8" unicode="&#x4b8;" horiz-adv-x="675" 
d="M533 376v324h47v-700h-47v335q-81 -38 -210 -43v-147h-34v146q-136 1 -203.5 52t-67.5 164v193h49v-192q0 -91 54.5 -133.5t167.5 -44.5v156h34v-156q128 4 210 46z" />
    <glyph glyph-name="uni04B9" unicode="&#x4b9;" horiz-adv-x="597" 
d="M468 284v203h45v-487h-45v244q-56 -37 -161 -44v-130h-32v129h-7q-107 0 -160 42.5t-53 133.5v112h45v-103q0 -77 40.5 -110.5t134.5 -35.5v135h32v-135q103 6 161 46z" />
    <glyph glyph-name="uni04BA" unicode="&#x4ba;" horiz-adv-x="704" 
d="M382 419q127 0 192 -50t65 -163v-206h-49v206q0 91 -54 132.5t-161 41.5q-137 0 -234 -48v-332h-47v700h47v-325q111 44 241 44z" />
    <glyph glyph-name="uni04BB" unicode="&#x4bb;" horiz-adv-x="632" 
d="M347 497q201 0 201 -214v-283h-45v276q0 181 -164 181q-81 0 -146 -56q-64 -57 -64 -154v-247h-45v740h45v-374q32 60 88 95.5t130 35.5z" />
    <glyph glyph-name="uni04BC" unicode="&#x4bc;" horiz-adv-x="903" 
d="M843 364h-639v-14q0 -147 84 -234q82 -87 217 -87q102 0 175.5 48t102.5 135h44q-30 -105 -116 -163.5t-206 -58.5q-153 0 -251 98q-97 97 -97 262v15q-62 4 -97.5 39t-35.5 94q0 2 3 38h42q-2 -32 -2 -38q0 -91 93 -97q17 143 110 226q95 83 235 83q149 0 244 -96
q94 -95 94 -250zM505 672q-122 0 -203 -72q-82 -74 -95 -199h588q-11 124 -90 197q-80 74 -200 74z" />
    <glyph glyph-name="uni04BD" unicode="&#x4bd;" horiz-adv-x="701" 
d="M413 27q71 0 119.5 32t64.5 90h44q-18 -75 -78 -117t-150 -42q-107 0 -183 68q-75 68 -75 185q0 16 1 21q-67 2 -107 37t-40 95q0 20 3 39h42q-3 -19 -3 -39q0 -48 29 -73t80 -26q17 97 86 148q68 52 164 52q104 0 170 -57q66 -59 66 -175h-443q-1 -5 -1 -22
q0 -102 61 -159t150 -57zM411 462q-80 0 -134.5 -43t-69.5 -122h391q-3 78 -54 121.5t-133 43.5z" />
    <glyph glyph-name="uni04BE" unicode="&#x4be;" horiz-adv-x="903" 
d="M843 364h-639v-14q0 -147 84 -234q82 -87 217 -87q102 0 175.5 48t102.5 135h44q-29 -99 -108 -157.5t-190 -63.5v-152h-35v151q-150 4 -243 102q-94 97 -94 258v15q-62 4 -97.5 39t-35.5 94q0 2 3 38h42q-2 -32 -2 -38q0 -91 93 -97q17 143 110 226q95 83 235 83
q149 0 244 -96q94 -95 94 -250zM505 672q-122 0 -203 -72q-82 -74 -95 -199h588q-11 124 -90 197q-80 74 -200 74z" />
    <glyph glyph-name="uni04BF" unicode="&#x4bf;" horiz-adv-x="701" 
d="M413 27q71 0 119.5 32t64.5 90h44q-25 -106 -130 -144q-111 -62 -111 -130q0 -28 15 -45t42 -17q31 0 62 16v-32q-36 -17 -70 -17q-41 0 -65.5 24.5t-24.5 63.5q0 68 87 124q-30 -2 -33 -2q-107 0 -183 68q-75 68 -75 185q0 16 1 21q-67 2 -107 37t-40 95q0 20 3 39h42
q-3 -19 -3 -39q0 -48 29 -73t80 -26q17 97 86 148q68 52 164 52q104 0 170 -57q66 -59 66 -175h-443q-1 -5 -1 -22q0 -102 61 -159t150 -57zM411 462q-80 0 -134.5 -43t-69.5 -122h391q-3 78 -54 121.5t-133 43.5z" />
    <glyph glyph-name="uni04C0" unicode="&#x4c0;" horiz-adv-x="245" 
d="M99 0v700h47v-700h-47z" />
    <glyph glyph-name="uni04C1" unicode="&#x4c1;" horiz-adv-x="953" 
d="M477 766q-129 0 -147 129h30q20 -95 117 -95t118 95h29q-16 -129 -147 -129zM914 30q21 0 35 7v-37q-17 -10 -44 -10q-50 0 -79 33t-44 103l-23 104q-13 63 -42 91t-93 28h-126v-349h-43v349h-122q-67 0 -96.5 -28t-42.5 -91l-23 -104q-15 -70 -44 -103t-79 -33
q-27 0 -44 10v37q14 -7 35 -7q63 0 86 105l22 99q12 60 35.5 92.5t66.5 41.5q-44 9 -66.5 35.5t-30.5 77.5l-15 87q-17 102 -87 102q-19 0 -34 -7v37q16 10 43 10q101 0 123 -135l16 -91q9 -51 38.5 -73.5t96.5 -22.5h122v312h43v-312h126q64 0 93 22.5t38 73.5l16 91
q25 135 123 135q27 0 43 -10v-37q-15 7 -34 7q-71 0 -87 -102l-15 -87q-8 -51 -30.5 -77.5t-66.5 -35.5q43 -9 66.5 -41.5t35.5 -92.5l22 -99q22 -105 86 -105z" />
    <glyph glyph-name="uni04C2" unicode="&#x4c2;" horiz-adv-x="900" 
d="M568 719h29q-15 -146 -147 -146t-147 146h30q9 -57 37.5 -84.5t79.5 -27.5t79.5 27.5t38.5 84.5zM819 27q20 0 36 8v-35q-19 -10 -49 -10q-38 0 -58 23t-36 79l-15 52q-15 56 -39 77.5t-77 21.5h-110v-243h-42v243h-110q-53 0 -77 -21.5t-39 -77.5l-14 -52
q-17 -57 -36 -79.5t-59 -22.5q-30 0 -49 10v35q16 -8 36 -8q24 0 38 16t25 56l14 50q28 105 89 112q-34 4 -54 24t-30 62l-14 58q-13 55 -62 55q-18 0 -37 -8v35q17 10 46 10q42 0 65 -20.5t32 -64.5l13 -57q10 -45 33 -60t80 -15h110v207h42v-207h110q57 0 80 15t33 60
l14 57q16 85 97 85q28 0 45 -10v-35q-19 8 -36 8q-50 0 -63 -55l-13 -58q-11 -42 -31 -62t-54 -24q60 -8 90 -112l13 -50q12 -41 25.5 -56.5t37.5 -15.5z" />
    <glyph glyph-name="uni04C3" unicode="&#x4c3;" horiz-adv-x="727" 
d="M452 373q102 -22 161 -89.5t59 -170.5q0 -268 -297 -268q-72 0 -116 19v39q48 -19 115 -19q249 0 249 232q0 110 -78 172q-79 61 -197 61h-207v-349h-47v388v312h47v-312h208q66 0 94 21.5t41 74.5l25 106q16 63 43 91.5t75 28.5q26 0 42 -10v-37q-15 7 -33 7
q-34 0 -53 -20.5t-29 -66.5l-23 -102q-10 -47 -28 -72t-51 -36z" />
    <glyph glyph-name="uni04C4" unicode="&#x4c4;" horiz-adv-x="666" 
d="M380 263q96 -22 148.5 -85t52.5 -167q0 -129 -71 -185t-184 -56q-51 0 -99 19v38q48 -20 97 -20q211 0 211 204q0 232 -268 232h-138v-243h-45v487h45v-207h140q74 0 101 15q27 16 37 60l13 57q9 44 32 64.5t65 20.5q27 0 46 -10v-35q-19 8 -37 8q-50 0 -62 -55l-14 -58
q-16 -72 -70 -84z" />
    <glyph glyph-name="uni04C5" unicode="&#x4c5;" horiz-adv-x="767" 
d="M652 39h97l-35 -200h-33l20 161h-95h-1v661h-322q-4 -384 -65 -534q-29 -73 -66.5 -105t-88.5 -32q-26 0 -45 10v37q14 -7 35 -7q44 0 75.5 32.5t56.5 106.5q52 150 53 531h413h1v-661z" />
    <glyph glyph-name="uni04C6" unicode="&#x4c6;" horiz-adv-x="684" 
d="M574 37h97l-35 -198h-31l20 161h-95h-1v450h-302q-4 -262 -37 -363q-33 -97 -127 -97q-26 0 -45 10v35q16 -8 35 -8q41 0 66 24t39 77q16 58 23 205q1 59 3 154h390h1v-37h-1v-413z" />
    <glyph glyph-name="uni04C7" unicode="&#x4c7;" horiz-adv-x="785" 
d="M643 389v311h47v-700v-74q0 -73 -52 -115q-53 -41 -129 -41v39q60 0 97.5 33.5t37.5 94.5v63h-1v350h-502v-350h-47v700h47v-311h502z" />
    <glyph glyph-name="uni04C8" unicode="&#x4c8;" horiz-adv-x="632" 
d="M502 280v207h45v-549q0 -80 -44.5 -124t-130.5 -44v37q67 0 98.5 35t31.5 108v293h-373v-243h-45v487h45v-207h373z" />
    <glyph glyph-name="uni04C9" unicode="&#x4c9;" horiz-adv-x="805" 
d="M690 39h97l-35 -200h-33l20 161h-95h-1v350h-502v-350h-47v700h47v-311h502v311h47v-661z" />
    <glyph glyph-name="uni04CA" unicode="&#x4ca;" horiz-adv-x="668" 
d="M547 37h97l-35 -198h-31l20 161h-95h-1v243h-373v-243h-45v487h45v-207h373v207h45v-450z" />
    <glyph glyph-name="uni04CB" unicode="&#x4cb;" horiz-adv-x="675" 
d="M533 376v324h47v-700h-99v-161h-33l-10 199l-1 1h44h52v296q-97 -44 -239 -44q-139 0 -207.5 51t-68.5 165v193h49v-192q0 -93 58 -135.5t175 -42.5q147 0 233 46z" />
    <glyph glyph-name="uni04CC" unicode="&#x4cc;" horiz-adv-x="593" 
d="M463 284v203h45v-487h-101l-9 -161h-31v198h42h54v207q-81 -45 -198 -45q-106 0 -158 42.5t-52 133.5v112h45v-103q0 -79 42 -112.5t138 -33.5q107 0 183 46z" />
    <glyph glyph-name="uni04CD" unicode="&#x4cd;" horiz-adv-x="925" 
d="M810 39h97l-35 -200h-33l20 161h-95v588l-305 -515h-18l-305 515v-588h-47v700h35l326 -557l326 557h34v-661z" />
    <glyph glyph-name="uni04CE" unicode="&#x4ce;" horiz-adv-x="780" 
d="M668 37h99l-35 -198h-31l20 161h-97v402l-239 -343h-17l-239 343v-402h-45v487h35l257 -369l258 369h34v-450z" />
    <glyph glyph-name="uni04CF" unicode="&#x4cf;" horiz-adv-x="214" 
d="M129 0h-45v487h45v-487z" />
    <glyph glyph-name="uni04D0" unicode="&#x4d0;" horiz-adv-x="700" 
d="M352 766q-129 0 -147 129h30q20 -95 117 -95t118 95h29q-17 -129 -147 -129zM682 0h-51l-108 246h-350l-106 -246h-49l304 700h52zM347 649l-157 -364h316z" />
    <glyph glyph-name="uni04D1" unicode="&#x4d1;" horiz-adv-x="555" 
d="M396 719h29q-15 -146 -147 -146t-147 146h30q9 -57 37.5 -84.5t79.5 -27.5t79.5 27.5t38.5 84.5zM509 27q18 0 22 1v-36q-24 -2 -29 -2q-46 0 -71 26t-28 67q-24 -41 -74.5 -67t-112.5 -26q-77 0 -122.5 35t-45.5 93q0 78 73.5 122t224.5 44q40 0 52 -1v24
q0 83 -30 117.5t-108 34.5q-82 0 -169 -38v42q93 34 173 34q92 0 135 -43t43 -137v-209q0 -81 67 -81zM223 26q69 0 122 38t53 107v81q-11 1 -48 1q-257 0 -257 -131q0 -45 34.5 -70.5t95.5 -25.5z" />
    <glyph glyph-name="uni04D2" unicode="&#x4d2;" horiz-adv-x="700" 
d="M280 795q-16 -16 -37.5 -7t-21.5 31q0 13 10.5 23.5t23.5 10.5q23 0 32 -21t-7 -37zM473 795q-17 -16 -38 -7t-21 31t21 31t38 -7q11 -10 11 -24t-11 -24zM682 0h-51l-108 246h-350l-106 -246h-49l304 700h52zM347 649l-157 -364h316z" />
    <glyph glyph-name="uni04D3" unicode="&#x4d3;" horiz-adv-x="555" 
d="M206 634q-16 -16 -37.5 -7t-21.5 31q0 14 10.5 24t23.5 10q23 0 32 -21t-7 -37zM399 634q-16 -15 -34.5 -8.5t-23 23.5t8.5 33q15 15 34 8.5t23.5 -23.5t-8.5 -33zM509 27q18 0 22 1v-36q-24 -2 -29 -2q-46 0 -71 26t-28 67q-24 -41 -74.5 -67t-112.5 -26
q-77 0 -122.5 35t-45.5 93q0 78 73.5 122t224.5 44q40 0 52 -1v24q0 83 -30 117.5t-108 34.5q-82 0 -169 -38v42q93 34 173 34q92 0 135 -43t43 -137v-209q0 -81 67 -81zM223 26q69 0 122 38t53 107v81q-11 1 -48 1q-257 0 -257 -131q0 -45 34.5 -70.5t95.5 -25.5z" />
    <glyph glyph-name="uni04D4" unicode="&#x4d4;" horiz-adv-x="1013" 
d="M497 350v-311h452v-39h-489h-10v246h-277l-106 -246h-49l303 700h139h37h442v-39h-442v-272h412v-39h-412zM352 661l-162 -376h260v376h-98z" />
    <glyph glyph-name="uni04D5" unicode="&#x4d5;" horiz-adv-x="945" 
d="M657 27q71 0 119.5 32t64.5 90h44q-18 -75 -78 -117t-150 -42q-78 0 -141.5 37t-93.5 103q-18 -63 -74 -101.5t-132 -38.5q-77 0 -122.5 35t-45.5 93q0 84 87.5 129.5t262.5 38.5v21q0 82 -31 117t-108 35q-75 0 -168 -38v42q93 34 173 34q145 0 171 -113
q33 54 90.5 83.5t128.5 29.5q104 0 170 -57q66 -59 66 -175h-443q-1 -5 -1 -22q0 -102 61 -159t150 -57zM655 462q-80 0 -134.5 -43t-69.5 -122h391q-3 78 -54 121.5t-133 43.5zM223 26q76 0 125 43q50 42 50 109v77q-163 6 -234 -32t-71 -101q0 -45 34.5 -70.5t95.5 -25.5z
" />
    <glyph glyph-name="uni04D6" unicode="&#x4d6;" 
d="M357 766q-129 0 -147 129h30q20 -95 117 -95t118 95h29q-16 -129 -147 -129zM146 350v-311h452v-39h-489h-10v700h47h442v-39h-442v-272h412v-39h-412z" />
    <glyph glyph-name="uni04D7" unicode="&#x4d7;" horiz-adv-x="601" 
d="M418 719h29q-15 -146 -147 -146t-147 146h30q9 -57 37.5 -84.5t79.5 -27.5t79.5 27.5t38.5 84.5zM313 27q71 0 119.5 32t64.5 90h44q-18 -75 -78 -117t-150 -42q-107 0 -183 68q-75 68 -75 185q0 119 74 187q73 67 181 67q104 0 170 -57q66 -59 66 -175h-443
q-1 -5 -1 -22q0 -102 61 -159t150 -57zM311 462q-80 0 -134.5 -43t-69.5 -122h391q-3 78 -54 121.5t-133 43.5z" />
    <glyph glyph-name="uni04D8" unicode="&#x4d8;" horiz-adv-x="806" 
d="M400 710q151 0 249 -98q96 -97 96 -262q0 -164 -96 -261q-97 -99 -249 -99q-150 0 -245 96q-95 97 -95 250h46h593v14q0 146 -83 234q-82 87 -216 87q-101 0 -176 -49.5t-105 -134.5h-44q30 104 119 164q89 59 206 59zM400 28q121 0 201 73t95 198h-588q10 -123 91 -197
q80 -74 201 -74z" />
    <glyph glyph-name="uni04D9" unicode="&#x4d9;" horiz-adv-x="601" 
d="M302 497q108 0 178 -67q71 -68 71 -187t-72 -186q-73 -67 -181 -67q-104 0 -171 58q-67 57 -67 174h443q1 5 1 21q0 102 -56 159.5t-146 57.5q-73 0 -125 -33.5t-68 -92.5h-44q18 75 82 119t155 44zM298 25q79 0 132.5 43t68.5 122h-391q3 -77 55 -121t135 -44z" />
    <glyph glyph-name="uni04DA" unicode="&#x4da;" horiz-adv-x="806" 
d="M331 795q-17 -16 -38 -7t-21 31t21 31t38 -7q11 -10 11 -24t-11 -24zM524 795q-16 -16 -37.5 -7t-21.5 31q0 13 10.5 23.5t23.5 10.5q23 0 32 -21t-7 -37zM400 710q151 0 249 -98q96 -97 96 -262q0 -164 -96 -261q-97 -99 -249 -99q-150 0 -245 96q-95 97 -95 250h46h593
v14q0 146 -83 234q-82 87 -216 87q-101 0 -176 -49.5t-105 -134.5h-44q30 104 119 164q89 59 206 59zM400 28q121 0 201 73t95 198h-588q10 -123 91 -197q80 -74 201 -74z" />
    <glyph glyph-name="uni04DB" unicode="&#x4db;" horiz-adv-x="601" 
d="M234 634q-16 -16 -37.5 -7t-21.5 31q0 14 10.5 24t23.5 10q23 0 32 -21t-7 -37zM427 634q-16 -15 -34.5 -8.5t-23 23.5t8.5 33q15 15 34 8.5t23.5 -23.5t-8.5 -33zM302 497q108 0 178 -67q71 -68 71 -187t-72 -186q-73 -67 -181 -67q-104 0 -171 58q-67 57 -67 174h443
q1 5 1 21q0 102 -56 159.5t-146 57.5q-73 0 -125 -33.5t-68 -92.5h-44q18 75 82 119t155 44zM298 25q79 0 132.5 43t68.5 122h-391q3 -77 55 -121t135 -44z" />
    <glyph glyph-name="uni04DC" unicode="&#x4dc;" horiz-adv-x="953" 
d="M405 795q-17 -16 -38 -7t-21 31t21 31t38 -7q11 -10 11 -24t-11 -24zM598 795q-16 -16 -37.5 -7t-21.5 31q0 13 10.5 23.5t23.5 10.5q23 0 32 -21t-7 -37zM914 30q21 0 35 7v-37q-17 -10 -44 -10q-50 0 -79 33t-44 103l-23 104q-13 63 -42 91t-93 28h-126v-349h-43v349
h-122q-67 0 -96.5 -28t-42.5 -91l-23 -104q-15 -70 -44 -103t-79 -33q-27 0 -44 10v37q14 -7 35 -7q63 0 86 105l22 99q12 60 35.5 92.5t66.5 41.5q-44 9 -66.5 35.5t-30.5 77.5l-15 87q-17 102 -87 102q-19 0 -34 -7v37q16 10 43 10q101 0 123 -135l16 -91
q9 -51 38.5 -73.5t96.5 -22.5h122v312h43v-312h126q64 0 93 22.5t38 73.5l16 91q25 135 123 135q27 0 43 -10v-37q-15 7 -34 7q-71 0 -87 -102l-15 -87q-8 -51 -30.5 -77.5t-66.5 -35.5q43 -9 66.5 -41.5t35.5 -92.5l22 -99q22 -105 86 -105z" />
    <glyph glyph-name="uni04DD" unicode="&#x4dd;" horiz-adv-x="900" 
d="M378 634q-16 -16 -37.5 -7t-21.5 31q0 14 10.5 24t23.5 10q23 0 32 -21t-7 -37zM571 634q-16 -15 -34.5 -8.5t-23 23.5t8.5 33q15 15 34 8.5t23.5 -23.5t-8.5 -33zM819 27q20 0 36 8v-35q-19 -10 -49 -10q-38 0 -58 23t-36 79l-15 52q-15 56 -39 77.5t-77 21.5h-110v-243
h-42v243h-110q-53 0 -77 -21.5t-39 -77.5l-14 -52q-17 -57 -36 -79.5t-59 -22.5q-30 0 -49 10v35q16 -8 36 -8q24 0 38 16t25 56l14 50q28 105 89 112q-34 4 -54 24t-30 62l-14 58q-13 55 -62 55q-18 0 -37 -8v35q17 10 46 10q42 0 65 -20.5t32 -64.5l13 -57q10 -45 33 -60
t80 -15h110v207h42v-207h110q57 0 80 15t33 60l14 57q16 85 97 85q28 0 45 -10v-35q-19 8 -36 8q-50 0 -63 -55l-13 -58q-11 -42 -31 -62t-54 -24q60 -8 90 -112l13 -50q12 -41 25.5 -56.5t37.5 -15.5z" />
    <glyph glyph-name="uni04DE" unicode="&#x4de;" horiz-adv-x="679" 
d="M286 795q-16 -16 -37.5 -7t-21.5 31q0 13 10.5 23.5t23.5 10.5q23 0 32 -21t-7 -37zM479 795q-17 -16 -38 -7t-21 31t21 31t38 -7q11 -10 11 -24t-11 -24zM418 363q97 -20 149 -67.5t52 -117.5q0 -85 -78 -136q-79 -52 -198 -52q-124 0 -196.5 53t-86.5 154h47
q25 -169 236 -169q99 0 164 42q63 41 63 109q0 77 -80 121t-225 44v33v5q142 0 214 37.5t72 105.5q0 70 -55.5 108.5t-152.5 38.5q-93 0 -149.5 -42t-68.5 -119h-45q13 95 82 147t181 52q117 0 186.5 -47.5t69.5 -135.5q0 -61 -46 -103t-135 -61z" />
    <glyph glyph-name="uni04DF" unicode="&#x4df;" horiz-adv-x="530" 
d="M174 634q-16 -16 -37.5 -7t-21.5 31q0 14 10.5 24t23.5 10q23 0 32 -21t-7 -37zM367 634q-16 -15 -34.5 -8.5t-23 23.5t8.5 33q15 15 34 8.5t23.5 -23.5t-8.5 -33zM349 251q126 -25 126 -124q0 -66 -60.5 -101.5t-168.5 -35.5q-113 0 -192 38v41q80 -42 191 -42
q184 0 184 102q0 58 -53 81.5t-179 23.5v30v3q117 0 169.5 23t52.5 71t-44.5 73.5t-129.5 25.5q-90 0 -181 -38v41q90 34 183 34q104 0 161 -35t57 -98q0 -83 -116 -113z" />
    <glyph glyph-name="uni04E0" unicode="&#x4e0;" horiz-adv-x="663" 
d="M581 674l-234 -255q120 -9 191 -69q70 -61 70 -152q0 -95 -74 -151q-74 -57 -195 -57q-126 0 -202 64q-77 63 -77 177h47q1 -96 62.5 -149.5t169.5 -53.5q102 0 161.5 46t59.5 124q0 81 -67 135q-68 53 -186 53h-27v22l233 253h-434v39h502v-26z" />
    <glyph glyph-name="uni04E1" unicode="&#x4e1;" horiz-adv-x="534" 
d="M463 462l-252 -232q129 -9 203 -73q75 -65 75 -164q0 -102 -79 -163q-80 -60 -195 -60q-107 0 -191 38v42q83 -43 188 -43q96 0 164 50q67 49 67 136q0 93 -73 148t-198 55h-32v21l254 233h-361v37h430v-25z" />
    <glyph glyph-name="uni04E2" unicode="&#x4e2;" horiz-adv-x="802" 
d="M254 831h294v-35h-294v35zM141 82l535 618h31v-700h-46v618l-535 -618h-32v700h47v-618z" />
    <glyph glyph-name="uni04E3" unicode="&#x4e3;" horiz-adv-x="632" 
d="M174 664h294v-35h-294v35zM129 68l384 419h35v-487h-45v419l-384 -419h-35v487h45v-419z" />
    <glyph glyph-name="uni04E4" unicode="&#x4e4;" horiz-adv-x="802" 
d="M329 795q-17 -16 -38 -7t-21 31t21 31t38 -7q11 -10 11 -24t-11 -24zM522 795q-16 -16 -37.5 -7t-21.5 31q0 13 10.5 23.5t23.5 10.5q23 0 32 -21t-7 -37zM141 82l535 618h31v-700h-46v618l-535 -618h-32v700h47v-618z" />
    <glyph glyph-name="uni04E5" unicode="&#x4e5;" horiz-adv-x="632" 
d="M249 634q-16 -15 -34.5 -8.5t-23 23.5t8.5 33q15 15 34 8.5t23.5 -23.5t-8.5 -33zM442 634q-16 -16 -37.5 -7t-21.5 31q0 14 10.5 24t23.5 10q23 0 32 -21t-7 -37zM129 68l384 419h35v-487h-45v419l-384 -419h-35v487h45v-419z" />
    <glyph glyph-name="uni04E6" unicode="&#x4e6;" horiz-adv-x="836" 
d="M346 795q-16 -16 -37.5 -7t-21.5 31q0 13 10.5 23.5t23.5 10.5q23 0 32 -21t-7 -37zM539 795q-17 -16 -38 -7t-21 31t21 31t38 -7q11 -10 11 -24t-11 -24zM418 710q160 0 259 -104q99 -105 99 -256q0 -152 -99 -255q-99 -105 -259 -105q-159 0 -258 105
q-100 103 -100 255t100 256q99 104 258 104zM194 122q85 -93 224 -93q138 0 224 93q85 92 85 228t-85 228q-86 93 -224 93q-139 0 -224 -93q-85 -92 -85 -228t85 -228z" />
    <glyph glyph-name="uni04E7" unicode="&#x4e7;" horiz-adv-x="626" 
d="M241 634q-16 -15 -34.5 -8.5t-23 23.5t8.5 33q15 15 34 8.5t23.5 -23.5t-8.5 -33zM434 634q-16 -16 -37.5 -7t-21.5 31q0 14 10.5 24t23.5 10q23 0 32 -21t-7 -37zM130 429q76 68 183 68t183 -68q75 -67 75 -186q0 -117 -75 -185q-76 -68 -183 -68t-183 68
q-75 68 -75 185q0 119 75 186zM163 84q61 -57 150 -57t150 57t61 159q0 103 -61 160t-150 57t-150 -57t-61 -160q0 -102 61 -159z" />
    <glyph glyph-name="uni04E8" unicode="&#x4e8;" horiz-adv-x="836" 
d="M418 710q158 0 258 -105q101 -106 101 -255t-101 -255q-100 -105 -258 -105q-157 0 -257 106q-101 106 -101 254t101 255q101 105 257 105zM418 671q-126 0 -211 -82q-86 -83 -98 -204h619q-12 122 -97 204t-213 82zM418 29q137 0 225 94q87 93 87 227v2h-623v-2
q0 -135 88 -227q87 -94 223 -94z" />
    <glyph glyph-name="uni04E9" unicode="&#x4e9;" horiz-adv-x="626" 
d="M313 497q107 0 183 -68q75 -67 75 -186q0 -117 -75 -185q-76 -68 -183 -68q-106 0 -182 68q-76 67 -76 185q0 119 76 186q76 68 182 68zM457 410q-62 50 -144 50t-143 -50q-60 -50 -68 -142h423q-8 92 -68 142zM313 26q88 0 150 56t63 154h-425q1 -98 64 -154
q62 -56 148 -56z" />
    <glyph glyph-name="uni04EA" unicode="&#x4ea;" horiz-adv-x="836" 
d="M346 795q-16 -16 -37.5 -7t-21.5 31q0 13 10.5 23.5t23.5 10.5q23 0 32 -21t-7 -37zM539 795q-17 -16 -38 -7t-21 31t21 31t38 -7q11 -10 11 -24t-11 -24zM418 710q158 0 258 -105q101 -106 101 -255t-101 -255q-100 -105 -258 -105q-157 0 -257 106q-101 106 -101 254
t101 255q101 105 257 105zM418 671q-126 0 -211 -82q-86 -83 -98 -204h619q-12 122 -97 204t-213 82zM418 29q137 0 225 94q87 93 87 227v2h-623v-2q0 -135 88 -227q87 -94 223 -94z" />
    <glyph glyph-name="uni04EB" unicode="&#x4eb;" horiz-adv-x="626" 
d="M241 634q-16 -15 -34.5 -8.5t-23 23.5t8.5 33q15 15 34 8.5t23.5 -23.5t-8.5 -33zM434 634q-16 -16 -37.5 -7t-21.5 31q0 14 10.5 24t23.5 10q23 0 32 -21t-7 -37zM313 497q107 0 183 -68q75 -67 75 -186q0 -117 -75 -185q-76 -68 -183 -68q-106 0 -182 68
q-76 67 -76 185q0 119 76 186q76 68 182 68zM457 410q-62 50 -144 50t-143 -50q-60 -50 -68 -142h423q-8 92 -68 142zM313 26q88 0 150 56t63 154h-425q1 -98 64 -154q62 -56 148 -56z" />
    <glyph glyph-name="uni04EC" unicode="&#x4ec;" horiz-adv-x="774" 
d="M287 795q-17 -16 -38 -7t-21 31t21 31t38 -7q11 -10 11 -24t-11 -24zM480 795q-16 -16 -37.5 -7t-21.5 31q0 13 10.5 23.5t23.5 10.5q23 0 32 -21t-7 -37zM370 710q154 0 247 -104q92 -104 92 -256t-92 -256q-93 -104 -247 -104q-103 0 -190 51t-120 157h46
q31 -87 106 -128q74 -41 158 -41q131 0 211 92q77 91 79 227h-434v39h432q-10 122 -88 204q-77 80 -200 80q-85 0 -158 -40q-75 -41 -106 -129h-46q33 106 120 157t190 51z" />
    <glyph glyph-name="uni04ED" unicode="&#x4ed;" horiz-adv-x="571" 
d="M196 634q-16 -16 -37.5 -7t-21.5 31q0 14 10.5 24t23.5 10q23 0 32 -21t-7 -37zM389 634q-16 -15 -34.5 -8.5t-23 23.5t8.5 33q15 15 34 8.5t23.5 -23.5t-8.5 -33zM278 497q107 0 177 -67q71 -68 71 -187q0 -118 -71 -186q-70 -67 -177 -67q-87 0 -152 44t-86 118h43
q18 -57 72 -91.5t123 -34.5q86 0 144 55q58 54 59 154h-316v33h315q-7 90 -62.5 141t-139.5 51q-69 0 -123 -34t-72 -91h-43q21 74 86 118t152 44z" />
    <glyph glyph-name="uni04EE" unicode="&#x4ee;" horiz-adv-x="676" 
d="M194 831h294v-35h-294v35zM354 251l252 449h52l-285 -501q-58 -102 -130 -152t-167 -50v41q80 0 140.5 40.5t112.5 128.5l-311 493h53z" />
    <glyph glyph-name="uni04EF" unicode="&#x4ef;" horiz-adv-x="535" 
d="M421 629h-294v35h294v-35zM275 58l194 429h51l-226 -487q-5 -9 -14.5 -29t-12.5 -27q-7 -15 -26 -48q-26 -43 -63 -78q-27 -25 -62.5 -35.5t-88.5 -12.5v41q78 -5 139 52q24 22 57 87q1 3 28 58l-236 479h53z" />
    <glyph glyph-name="uni04F0" unicode="&#x4f0;" horiz-adv-x="676" 
d="M269 795q-17 -16 -38 -7t-21 31t21 31t38 -7q11 -10 11 -24t-11 -24zM462 795q-16 -16 -37.5 -7t-21.5 31q0 13 10.5 23.5t23.5 10.5q23 0 32 -21t-7 -37zM354 251l252 449h52l-285 -501q-58 -102 -130 -152t-167 -50v41q80 0 140.5 40.5t112.5 128.5l-311 493h53z" />
    <glyph glyph-name="uni04F1" unicode="&#x4f1;" horiz-adv-x="535" 
d="M202 634q-16 -16 -37.5 -7t-21.5 31q0 14 10.5 24t23.5 10q23 0 32 -21t-7 -37zM395 634q-16 -15 -34.5 -8.5t-23 23.5t8.5 33q15 15 34 8.5t23.5 -23.5t-8.5 -33zM275 58l194 429h51l-226 -487q-5 -9 -14.5 -29t-12.5 -27q-7 -15 -26 -48q-26 -43 -63 -78
q-27 -25 -62.5 -35.5t-88.5 -12.5v41q78 -5 139 52q24 22 57 87q1 3 28 58l-236 479h53z" />
    <glyph glyph-name="uni04F2" unicode="&#x4f2;" horiz-adv-x="676" 
d="M356 900h57l-139 -132h-39zM570 900l-139 -132h-39l121 132h57zM354 251l252 449h52l-285 -501q-58 -102 -130 -152t-167 -50v41q80 0 140.5 40.5t112.5 128.5l-311 493h53z" />
    <glyph glyph-name="uni04F3" unicode="&#x4f3;" horiz-adv-x="535" 
d="M207 565h-34l112 162h52zM364 565h-34l112 162h52zM275 58l194 429h51l-226 -487q-5 -9 -14.5 -29t-12.5 -27q-7 -15 -26 -48q-26 -43 -63 -78q-27 -25 -62.5 -35.5t-88.5 -12.5v41q78 -5 139 52q24 22 57 87q1 3 28 58l-236 479h53z" />
    <glyph glyph-name="uni04F4" unicode="&#x4f4;" horiz-adv-x="675" 
d="M238 795q-16 -16 -37.5 -7t-21.5 31q0 13 10.5 23.5t23.5 10.5q23 0 32 -21t-7 -37zM431 795q-17 -16 -38 -7t-21 31t21 31t38 -7q11 -10 11 -24t-11 -24zM533 376v324h47v-700h-47v335q-97 -44 -239 -44q-139 0 -207.5 51t-68.5 165v193h49v-192q0 -93 58 -135.5
t175 -42.5q147 0 233 46z" />
    <glyph glyph-name="uni04F5" unicode="&#x4f5;" horiz-adv-x="593" 
d="M213 634q-16 -15 -34.5 -8.5t-23 23.5t8.5 33q15 15 34 8.5t23.5 -23.5t-8.5 -33zM406 634q-16 -16 -37.5 -7t-21.5 31q0 14 10.5 24t23.5 10q23 0 32 -21t-7 -37zM463 284v203h45v-487h-45v244q-81 -45 -198 -45q-106 0 -158 42.5t-52 133.5v112h45v-103
q0 -79 42 -112.5t138 -33.5q107 0 183 46z" />
    <glyph glyph-name="uni04F6" unicode="&#x4f6;" horiz-adv-x="580" 
d="M562 700v-39h-421v-622h96h1v-39h-1v-161h-33l-8 161h-102v700h47h421z" />
    <glyph glyph-name="uni04F7" unicode="&#x4f7;" horiz-adv-x="506" 
d="M482 487v-37h-353v-413h96v-198h-31l-9 161h-101v487h45h353z" />
    <glyph glyph-name="uni04F8" unicode="&#x4f8;" horiz-adv-x="876" 
d="M358 795q-16 -16 -37.5 -7t-21.5 31q0 13 10.5 23.5t23.5 10.5q23 0 32 -21t-7 -37zM551 795q-17 -16 -38 -7t-21 31t21 31t38 -7q11 -10 11 -24t-11 -24zM141 397h207q108 0 176 -57q67 -58 67 -142q0 -83 -67 -140q-67 -58 -176 -58h-243h-11v700h47v-303zM730 0v700
h47v-700h-47zM141 39h200q93 0 147 44.5t54 114.5q0 71 -54 115.5t-147 44.5h-200v-319z" />
    <glyph glyph-name="uni04F9" unicode="&#x4f9;" horiz-adv-x="758" 
d="M296 634q-16 -16 -37.5 -7t-21.5 31q0 14 10.5 24t23.5 10q23 0 32 -21t-7 -37zM489 634q-16 -15 -34.5 -8.5t-23 23.5t8.5 33q15 15 34 8.5t23.5 -23.5t-8.5 -33zM122 280h169q211 0 211 -139q0 -141 -211 -141h-214v244v243h45v-207zM628 0v487h45v-487h-45zM122 36
h166q86 0 127 24.5t41 80.5q0 54 -41.5 78.5t-126.5 24.5h-166v-208z" />
    <glyph glyph-name="uni04FC" unicode="&#x4fc;" horiz-adv-x="749" 
d="M635 39h95q8 -101 -29 -155.5t-110 -54.5l-39 3v36q34 -2 39 -2q103 0 103 134h-84l-270 329l-265 -329h-57l296 360l-279 340h57l253 -308l247 308h56l-277 -339z" />
    <glyph glyph-name="uni04FD" unicode="&#x4fd;" horiz-adv-x="612" 
d="M488 37h91q10 -101 -28.5 -154.5t-117.5 -53.5v35q113 0 112 136h-78l-193 218l-191 -218h-53l219 245l-214 242h54l191 -216l189 216h53l-218 -242z" />
    <glyph glyph-name="uni0510" unicode="&#x510;" horiz-adv-x="679" 
d="M572 197h47q-14 -101 -86.5 -154t-196.5 -53q-120 0 -197 52q-79 51 -79 136q0 70 52 117.5t149 67.5q-89 19 -135 61t-46 103q0 88 69.5 135.5t186.5 47.5q112 0 181 -52t82 -147h-45q-12 77 -68.5 119t-149.5 42q-97 0 -152.5 -38.5t-55.5 -108.5q0 -68 72 -105.5
t214 -37.5v-34v-4q-145 0 -225 -44t-80 -121q0 -69 64 -109q63 -42 163 -42q211 0 236 169z" />
    <glyph glyph-name="uni0511" unicode="&#x511;" horiz-adv-x="530" 
d="M285 27q111 0 191 42v-41q-79 -38 -192 -38q-108 0 -168.5 35.5t-60.5 101.5q0 99 126 124q-116 30 -116 113q0 63 57 98t161 35q93 0 183 -34v-41q-91 38 -181 38q-85 0 -129.5 -25.5t-44.5 -73.5t52.5 -71t169.5 -23v-31v-2q-126 0 -179 -23.5t-53 -81.5
q0 -102 184 -102z" />
    <glyph glyph-name="uni0512" unicode="&#x512;" horiz-adv-x="746" 
d="M238 700h414v-700v-74q0 -73 -52 -115q-53 -41 -129 -41v39q60 0 97.5 33.5t37.5 94.5v63h-1v661h-322q-4 -384 -65 -534q-29 -73 -66.5 -105t-88.5 -32q-26 0 -45 10v37q14 -7 35 -7q44 0 75.5 32.5t56.5 106.5q52 150 53 531z" />
    <glyph glyph-name="uni0513" unicode="&#x513;" horiz-adv-x="659" 
d="M574 487h1v-37h-1v-512q0 -80 -44.5 -124t-130.5 -44v37q67 0 98.5 35t31.5 108v500h-302q-4 -262 -37 -363q-33 -97 -127 -97q-26 0 -45 10v35q16 -8 35 -8q41 0 66 24t39 77q16 58 23 205q1 59 3 154h390z" />
    <glyph glyph-name="uni051C" unicode="&#x51c;" horiz-adv-x="932" 
d="M678 58l187 642h49l-209 -700h-51l-188 578l-188 -578h-51l-209 700h51l185 -642l190 585h43h1z" />
    <glyph glyph-name="uni051D" unicode="&#x51d;" horiz-adv-x="827" 
d="M595 59l164 428h47l-190 -487h-38l-165 400l-164 -400h-39l-190 487h50l162 -428l160 390h41h2z" />
    <glyph glyph-name="uni0524" unicode="&#x524;" horiz-adv-x="795" 
d="M680 39h97v-200h-33l-8 161h-102v661h-493v-661h-47v700h586v-661z" />
    <glyph glyph-name="uni0525" unicode="&#x525;" horiz-adv-x="657" 
d="M547 37h97v-198h-31l-9 161h-101h-1v450h-373v-450h-45v487h45h409h9v-450z" />
    <glyph glyph-name="uni0526" unicode="&#x526;" horiz-adv-x="752" 
d="M733 39h1v-39h-1v-161h-33l-8 161h-102v206q0 91 -54 132.5t-161 41.5q-137 0 -234 -48v-332h-47v700h47v-325q111 44 241 44q127 0 192 -50t65 -163v-167h94z" />
    <glyph glyph-name="uni0527" unicode="&#x527;" horiz-adv-x="657" 
d="M548 37h96v-198h-31l-9 161h-101v276q0 181 -164 181q-81 0 -146 -56q-64 -57 -64 -154v-247h-45v740h45v-374q32 60 88 95.5t130 35.5q201 0 201 -214v-246z" />
    <glyph glyph-name="Wgrave" unicode="&#x1e80;" horiz-adv-x="932" 
d="M389 900l121 -132h-39l-139 132h57zM678 58l187 642h49l-209 -700h-51l-188 578l-188 -578h-51l-209 700h51l185 -642l190 585h43h1z" />
    <glyph glyph-name="wgrave" unicode="&#x1e81;" horiz-adv-x="827" 
d="M333 727l112 -162h-34l-130 162h52zM595 59l164 428h47l-190 -487h-38l-165 400l-164 -400h-39l-190 487h50l162 -428l160 390h41h2z" />
    <glyph glyph-name="Wacute" unicode="&#x1e82;" horiz-adv-x="932" 
d="M563 900h57l-139 -132h-39zM678 58l187 642h49l-209 -700h-51l-188 578l-188 -578h-51l-209 700h51l185 -642l190 585h43h1z" />
    <glyph glyph-name="wacute" unicode="&#x1e83;" horiz-adv-x="827" 
d="M508 727h52l-130 -162h-34zM595 59l164 428h47l-190 -487h-38l-165 400l-164 -400h-39l-190 487h50l162 -428l160 390h41h2z" />
    <glyph glyph-name="Wdieresis" unicode="&#x1e84;" horiz-adv-x="932" 
d="M387 795q-17 -16 -38 -7t-21 31t21 31t38 -7q11 -10 11 -24t-11 -24zM580 795q-16 -16 -37.5 -7t-21.5 31q0 13 10.5 23.5t23.5 10.5q23 0 32 -21t-7 -37zM678 58l187 642h49l-209 -700h-51l-188 578l-188 -578h-51l-209 700h51l185 -642l190 585h43h1z" />
    <glyph glyph-name="wdieresis" unicode="&#x1e85;" horiz-adv-x="827" 
d="M341 634q-16 -15 -34.5 -8.5t-23 23.5t8.5 33q15 15 34 8.5t23.5 -23.5t-8.5 -33zM534 634q-16 -16 -37.5 -7t-21.5 31q0 14 10.5 24t23.5 10q23 0 32 -21t-7 -37zM595 59l164 428h47l-190 -487h-38l-165 400l-164 -400h-39l-190 487h50l162 -428l160 390h41h2z" />
    <glyph glyph-name="uni1EA0" unicode="&#x1ea0;" horiz-adv-x="700" 
d="M374 700l308 -700h-51l-108 246h-350l-106 -246h-49l304 700h52zM347 649l-157 -364h316zM351 -125q22 0 31.5 -18t0 -36t-31.5 -17q-14 0 -24.5 10.5t-10.5 24.5t10.5 25t24.5 11z" />
    <glyph glyph-name="uni1EA1" unicode="&#x1ea1;" horiz-adv-x="555" 
d="M509 27q18 0 22 1v-36q-24 -2 -29 -2q-46 0 -71 26t-28 67q-24 -41 -74.5 -67t-112.5 -26q-77 0 -122.5 35t-45.5 93q0 78 73.5 122t224.5 44q40 0 52 -1v24q0 83 -30 117.5t-108 34.5q-82 0 -169 -38v42q93 34 173 34q92 0 135 -43t43 -137v-209q0 -81 67 -81zM223 26
q69 0 122 38t53 107v81q-11 1 -48 1q-257 0 -257 -131q0 -45 34.5 -70.5t95.5 -25.5zM278 -125q22 0 31.5 -18t0 -36t-31.5 -17q-14 0 -24.5 10.5t-10.5 24.5t10.5 25t24.5 11z" />
    <glyph glyph-name="uni1EA2" unicode="&#x1ea2;" horiz-adv-x="700" 
d="M349 923q-59 0 -67 -60h-33q7 88 100 88q46 0 73 -23.5t27 -64.5q0 -25 -13.5 -43t-29 -26t-29 -20t-13.5 -26h-30q0 19 12.5 33.5t28 23t28 23.5t12.5 35q0 29 -17.5 44.5t-48.5 15.5zM682 0h-51l-108 246h-350l-106 -246h-49l304 700h52zM347 649l-157 -364h316z" />
    <glyph glyph-name="uni1EA3" unicode="&#x1ea3;" horiz-adv-x="555" 
d="M275 710q-59 0 -67 -60h-33q7 88 100 88q46 0 73 -23.5t27 -64.5q0 -25 -13.5 -43t-29 -26t-29 -20t-13.5 -26h-30q0 19 12.5 33.5t28 23t28 23.5t12.5 35q0 29 -17.5 44.5t-48.5 15.5zM509 27q18 0 22 1v-36q-24 -2 -29 -2q-46 0 -71 26t-28 67q-24 -41 -74.5 -67
t-112.5 -26q-77 0 -122.5 35t-45.5 93q0 78 73.5 122t224.5 44q40 0 52 -1v24q0 83 -30 117.5t-108 34.5q-82 0 -169 -38v42q93 34 173 34q92 0 135 -43t43 -137v-209q0 -81 67 -81zM223 26q69 0 122 38t53 107v81q-11 1 -48 1q-257 0 -257 -131q0 -45 34.5 -70.5
t95.5 -25.5z" />
    <glyph glyph-name="uni1EA4" unicode="&#x1ea4;" horiz-adv-x="700" 
d="M582 1007h57l-139 -132h-39zM448 768l-96 113l-97 -113h-49l129 132h33l129 -132h-49zM682 0h-51l-108 246h-350l-106 -246h-49l304 700h52zM347 649l-157 -364h316z" />
    <glyph glyph-name="uni1EA5" unicode="&#x1ea5;" horiz-adv-x="555" 
d="M517 851h52l-130 -162h-34zM377 565l-99 137l-99 -137h-47l128 162h36l128 -162h-47zM442 317v-209q0 -81 67 -81q18 0 22 1v-36q-24 -2 -29 -2q-46 0 -71 26t-28 67q-24 -41 -74.5 -67t-112.5 -26q-77 0 -122.5 35t-45.5 93q0 78 73.5 122t224.5 44q40 0 52 -1v24
q0 83 -30 117.5t-108 34.5q-82 0 -169 -38v42q93 34 173 34q92 0 135 -43t43 -137zM223 26q69 0 122 38t53 107v81q-11 1 -48 1q-257 0 -257 -131q0 -45 34.5 -70.5t95.5 -25.5z" />
    <glyph glyph-name="uni1EA6" unicode="&#x1ea6;" horiz-adv-x="700" 
d="M408 1007l121 -132h-39l-139 132h57zM448 768l-96 113l-97 -113h-49l129 132h33l129 -132h-49zM682 0h-51l-108 246h-350l-106 -246h-49l304 700h52zM347 649l-157 -364h316z" />
    <glyph glyph-name="uni1EA7" unicode="&#x1ea7;" horiz-adv-x="555" 
d="M342 851l112 -162h-34l-130 162h52zM377 565l-99 137l-99 -137h-47l128 162h36l128 -162h-47zM509 27q18 0 22 1v-36q-24 -2 -29 -2q-46 0 -71 26t-28 67q-24 -41 -74.5 -67t-112.5 -26q-77 0 -122.5 35t-45.5 93q0 78 73.5 122t224.5 44q40 0 52 -1v24q0 83 -30 117.5
t-108 34.5q-82 0 -169 -38v42q93 34 173 34q92 0 135 -43t43 -137v-209q0 -81 67 -81zM223 26q69 0 122 38t53 107v81q-11 1 -48 1q-257 0 -257 -131q0 -45 34.5 -70.5t95.5 -25.5z" />
    <glyph glyph-name="uni1EA8" unicode="&#x1ea8;" horiz-adv-x="700" 
d="M475 1030q-59 0 -67 -60h-33q7 88 100 88q46 0 73 -23.5t27 -64.5q0 -25 -13.5 -43t-29 -26t-29 -20t-13.5 -26h-30q0 19 12.5 33.5t28 23t28 23.5t12.5 35q0 29 -17.5 44.5t-48.5 15.5zM448 768l-96 113l-97 -113h-49l129 132h33l129 -132h-49zM682 0h-51l-108 246h-350
l-106 -246h-49l304 700h52zM347 649l-157 -364h316z" />
    <glyph glyph-name="uni1EA9" unicode="&#x1ea9;" horiz-adv-x="555" 
d="M419 834q-59 0 -67 -60h-33q7 88 100 88q46 0 73 -23.5t27 -64.5q0 -25 -13.5 -43t-29 -26t-29 -20t-13.5 -26h-30q0 19 12.5 33.5t28 23t28 23.5t12.5 35q0 29 -17.5 44.5t-48.5 15.5zM377 565l-99 137l-99 -137h-47l128 162h36l128 -162h-47zM509 27q18 0 22 1v-36
q-24 -2 -29 -2q-46 0 -71 26t-28 67q-24 -41 -74.5 -67t-112.5 -26q-77 0 -122.5 35t-45.5 93q0 78 73.5 122t224.5 44q40 0 52 -1v24q0 83 -30 117.5t-108 34.5q-82 0 -169 -38v42q93 34 173 34q92 0 135 -43t43 -137v-209q0 -81 67 -81zM223 26q69 0 122 38t53 107v81
q-11 1 -48 1q-257 0 -257 -131q0 -45 34.5 -70.5t95.5 -25.5z" />
    <glyph glyph-name="uni1EAA" unicode="&#x1eaa;" horiz-adv-x="700" 
d="M788 977h29q-7 -56 -34.5 -85.5t-67.5 -29.5q-31 0 -56.5 20t-47.5 40t-44 20q-59 0 -74 -80h-28q13 115 102 115q31 0 56.5 -20t47.5 -40t44 -20q58 0 73 80zM448 768l-96 113l-97 -113h-49l129 132h33l129 -132h-49zM322 700h52l308 -700h-51l-108 246h-350l-106 -246
h-49zM347 649l-157 -364h316z" />
    <glyph glyph-name="uni1EAB" unicode="&#x1eab;" horiz-adv-x="555" 
d="M699 793h29q-7 -56 -34.5 -85.5t-67.5 -29.5q-31 0 -56.5 20t-47.5 40t-44 20q-59 0 -74 -80h-28q13 115 102 115q31 0 56.5 -20t47.5 -40t44 -20q58 0 73 80zM377 565l-99 137l-99 -137h-47l128 162h36l128 -162h-47zM442 317v-209q0 -81 67 -81q18 0 22 1v-36
q-24 -2 -29 -2q-46 0 -71 26t-28 67q-24 -41 -74.5 -67t-112.5 -26q-77 0 -122.5 35t-45.5 93q0 78 73.5 122t224.5 44q40 0 52 -1v24q0 83 -30 117.5t-108 34.5q-82 0 -169 -38v42q93 34 173 34q92 0 135 -43t43 -137zM223 26q69 0 122 38t53 107v81q-11 1 -48 1
q-257 0 -257 -131q0 -45 34.5 -70.5t95.5 -25.5z" />
    <glyph glyph-name="uni1EAC" unicode="&#x1eac;" horiz-adv-x="700" 
d="M448 768l-96 113l-97 -113h-49l129 132h33l129 -132h-49zM374 700l308 -700h-51l-108 246h-350l-106 -246h-49l304 700h52zM347 649l-157 -364h316zM351 -125q22 0 31.5 -18t0 -36t-31.5 -17q-14 0 -24.5 10.5t-10.5 24.5t10.5 25t24.5 11z" />
    <glyph glyph-name="uni1EAD" unicode="&#x1ead;" horiz-adv-x="555" 
d="M377 565l-99 137l-99 -137h-47l128 162h36l128 -162h-47zM509 27q18 0 22 1v-36q-24 -2 -29 -2q-46 0 -71 26t-28 67q-24 -41 -74.5 -67t-112.5 -26q-77 0 -122.5 35t-45.5 93q0 78 73.5 122t224.5 44q40 0 52 -1v24q0 83 -30 117.5t-108 34.5q-82 0 -169 -38v42
q93 34 173 34q92 0 135 -43t43 -137v-209q0 -81 67 -81zM223 26q69 0 122 38t53 107v81q-11 1 -48 1q-257 0 -257 -131q0 -45 34.5 -70.5t95.5 -25.5zM278 -125q22 0 31.5 -18t0 -36t-31.5 -17q-14 0 -24.5 10.5t-10.5 24.5t10.5 25t24.5 11z" />
    <glyph glyph-name="uni1EAE" unicode="&#x1eae;" horiz-adv-x="700" 
d="M456 1057h57l-139 -132h-39zM352 766q-129 0 -147 129h30q20 -95 117 -95t118 95h29q-17 -129 -147 -129zM682 0h-51l-108 246h-350l-106 -246h-49l304 700h52zM347 649l-157 -364h316z" />
    <glyph glyph-name="uni1EAF" unicode="&#x1eaf;" horiz-adv-x="555" 
d="M373 921h52l-130 -162h-34zM396 719h29q-15 -146 -147 -146t-147 146h30q9 -57 37.5 -84.5t79.5 -27.5t79.5 27.5t38.5 84.5zM509 27q18 0 22 1v-36q-24 -2 -29 -2q-46 0 -71 26t-28 67q-24 -41 -74.5 -67t-112.5 -26q-77 0 -122.5 35t-45.5 93q0 78 73.5 122t224.5 44
q40 0 52 -1v24q0 83 -30 117.5t-108 34.5q-82 0 -169 -38v42q93 34 173 34q92 0 135 -43t43 -137v-209q0 -81 67 -81zM223 26q69 0 122 38t53 107v81q-11 1 -48 1q-257 0 -257 -131q0 -45 34.5 -70.5t95.5 -25.5z" />
    <glyph glyph-name="uni1EB0" unicode="&#x1eb0;" horiz-adv-x="700" 
d="M282 1057l121 -132h-39l-139 132h57zM352 766q-129 0 -147 129h30q20 -95 117 -95t118 95h29q-17 -129 -147 -129zM682 0h-51l-108 246h-350l-106 -246h-49l304 700h52zM347 649l-157 -364h316z" />
    <glyph glyph-name="uni1EB1" unicode="&#x1eb1;" horiz-adv-x="555" 
d="M198 921l112 -162h-34l-130 162h52zM396 719h29q-15 -146 -147 -146t-147 146h30q9 -57 37.5 -84.5t79.5 -27.5t79.5 27.5t38.5 84.5zM509 27q18 0 22 1v-36q-24 -2 -29 -2q-46 0 -71 26t-28 67q-24 -41 -74.5 -67t-112.5 -26q-77 0 -122.5 35t-45.5 93q0 78 73.5 122
t224.5 44q40 0 52 -1v24q0 83 -30 117.5t-108 34.5q-82 0 -169 -38v42q93 34 173 34q92 0 135 -43t43 -137v-209q0 -81 67 -81zM223 26q69 0 122 38t53 107v81q-11 1 -48 1q-257 0 -257 -131q0 -45 34.5 -70.5t95.5 -25.5z" />
    <glyph glyph-name="uni1EB2" unicode="&#x1eb2;" horiz-adv-x="700" 
d="M349 1080q-59 0 -67 -60h-33q7 88 100 88q46 0 73 -23.5t27 -64.5q0 -25 -13.5 -43t-29 -26t-29 -20t-13.5 -26h-30q0 19 12.5 33.5t28 23t28 23.5t12.5 35q0 29 -17.5 44.5t-48.5 15.5zM352 766q-129 0 -147 129h30q20 -95 117 -95t118 95h29q-17 -129 -147 -129zM682 0
h-51l-108 246h-350l-106 -246h-49l304 700h52zM347 649l-157 -364h316z" />
    <glyph glyph-name="uni1EB3" unicode="&#x1eb3;" horiz-adv-x="555" 
d="M275 904q-59 0 -67 -60h-33q7 88 100 88q46 0 73 -23.5t27 -64.5q0 -25 -13.5 -43t-29 -26t-29 -20t-13.5 -26h-30q0 19 12.5 33.5t28 23t28 23.5t12.5 35q0 29 -17.5 44.5t-48.5 15.5zM396 719h29q-15 -146 -147 -146t-147 146h30q9 -57 37.5 -84.5t79.5 -27.5
t79.5 27.5t38.5 84.5zM509 27q18 0 22 1v-36q-24 -2 -29 -2q-46 0 -71 26t-28 67q-24 -41 -74.5 -67t-112.5 -26q-77 0 -122.5 35t-45.5 93q0 78 73.5 122t224.5 44q40 0 52 -1v24q0 83 -30 117.5t-108 34.5q-82 0 -169 -38v42q93 34 173 34q92 0 135 -43t43 -137v-209
q0 -81 67 -81zM223 26q69 0 122 38t53 107v81q-11 1 -48 1q-257 0 -257 -131q0 -45 34.5 -70.5t95.5 -25.5z" />
    <glyph glyph-name="uni1EB4" unicode="&#x1eb4;" horiz-adv-x="700" 
d="M279 1011q-59 0 -74 -80h-28q13 115 102 115q31 0 56.5 -20t47.5 -40t44 -20q58 0 73 80h29q-7 -56 -34.5 -85.5t-67.5 -29.5q-31 0 -56.5 20t-47.5 40t-44 20zM205 895h30q20 -95 117 -95t118 95h29q-17 -129 -147 -129q-129 0 -147 129zM682 0h-51l-108 246h-350
l-106 -246h-49l304 700h52zM347 649l-157 -364h316z" />
    <glyph glyph-name="uni1EB5" unicode="&#x1eb5;" horiz-adv-x="555" 
d="M205 865q-59 0 -74 -80h-28q13 115 102 115q31 0 56.5 -20t47.5 -40t44 -20q58 0 73 80h29q-7 -56 -34.5 -85.5t-67.5 -29.5q-31 0 -56.5 20t-47.5 40t-44 20zM198 635q28 -28 80 -28t80 28q27 26 38 84h29q-15 -146 -147 -146t-147 146h30q9 -58 37 -84zM509 27
q18 0 22 1v-36q-24 -2 -29 -2q-46 0 -71 26t-28 67q-24 -41 -74.5 -67t-112.5 -26q-77 0 -122.5 35t-45.5 93q0 78 73.5 122t224.5 44q40 0 52 -1v24q0 83 -30 117.5t-108 34.5q-82 0 -169 -38v42q93 34 173 34q92 0 135 -43t43 -137v-209q0 -81 67 -81zM223 26q69 0 122 38
t53 107v81q-11 1 -48 1q-257 0 -257 -131q0 -45 34.5 -70.5t95.5 -25.5z" />
    <glyph glyph-name="uni1EB6" unicode="&#x1eb6;" horiz-adv-x="700" 
d="M352 766q-129 0 -147 129h30q20 -95 117 -95t118 95h29q-17 -129 -147 -129zM374 700l308 -700h-51l-108 246h-350l-106 -246h-49l304 700h52zM347 649l-157 -364h316zM351 -125q22 0 31.5 -18t0 -36t-31.5 -17q-14 0 -24.5 10.5t-10.5 24.5t10.5 25t24.5 11z" />
    <glyph glyph-name="uni1EB7" unicode="&#x1eb7;" horiz-adv-x="555" 
d="M396 719h29q-15 -146 -147 -146t-147 146h30q9 -57 37.5 -84.5t79.5 -27.5t79.5 27.5t38.5 84.5zM509 27q18 0 22 1v-36q-24 -2 -29 -2q-46 0 -71 26t-28 67q-24 -41 -74.5 -67t-112.5 -26q-77 0 -122.5 35t-45.5 93q0 78 73.5 122t224.5 44q40 0 52 -1v24
q0 83 -30 117.5t-108 34.5q-82 0 -169 -38v42q93 34 173 34q92 0 135 -43t43 -137v-209q0 -81 67 -81zM223 26q69 0 122 38t53 107v81q-11 1 -48 1q-257 0 -257 -131q0 -45 34.5 -70.5t95.5 -25.5zM278 -125q22 0 31.5 -18t0 -36t-31.5 -17q-14 0 -24.5 10.5t-10.5 24.5
t10.5 25t24.5 11z" />
    <glyph glyph-name="uni1EB8" unicode="&#x1eb8;" 
d="M146 350v-311h452v-39h-489h-10v700h47h442v-39h-442v-272h412v-39h-412zM357 -125q22 0 31.5 -18t0 -36t-31.5 -17q-14 0 -24.5 10.5t-10.5 24.5t10.5 25t24.5 11z" />
    <glyph glyph-name="uni1EB9" unicode="&#x1eb9;" horiz-adv-x="601" 
d="M313 27q71 0 119.5 32t64.5 90h44q-18 -75 -78 -117t-150 -42q-107 0 -183 68q-75 68 -75 185q0 119 74 187q73 67 181 67q104 0 170 -57q66 -59 66 -175h-443q-1 -5 -1 -22q0 -102 61 -159t150 -57zM311 462q-80 0 -134.5 -43t-69.5 -122h391q-3 78 -54 121.5t-133 43.5
zM300 -125q22 0 31.5 -18t0 -36t-31.5 -17q-14 0 -24.5 10.5t-10.5 24.5t10.5 25t24.5 11z" />
    <glyph glyph-name="uni1EBA" unicode="&#x1eba;" 
d="M354 923q-60 0 -67 -60h-33q7 88 100 88q46 0 73 -23.5t27 -64.5q0 -25 -13.5 -43t-29 -26t-29 -20t-13.5 -26h-30q0 24 20.5 40.5t40.5 33t20 41.5q0 29 -17.5 44.5t-48.5 15.5zM146 350v-311h452v-39h-489h-10v700h47h442v-39h-442v-272h412v-39h-412z" />
    <glyph glyph-name="uni1EBB" unicode="&#x1ebb;" horiz-adv-x="601" 
d="M297 710q-59 0 -67 -60h-33q7 88 100 88q46 0 73 -23.5t27 -64.5q0 -25 -13.5 -43t-29 -26t-29 -20t-13.5 -26h-30q0 19 12.5 33.5t28 23t28 23.5t12.5 35q0 29 -17.5 44.5t-48.5 15.5zM313 27q71 0 119.5 32t64.5 90h44q-18 -75 -78 -117t-150 -42q-107 0 -183 68
q-75 68 -75 185q0 119 74 187q73 67 181 67q104 0 170 -57q66 -59 66 -175h-443q-1 -5 -1 -22q0 -102 61 -159t150 -57zM311 462q-80 0 -134.5 -43t-69.5 -122h391q-3 78 -54 121.5t-133 43.5z" />
    <glyph glyph-name="uni1EBC" unicode="&#x1ebc;" 
d="M284 854q-59 0 -74 -80h-28q13 115 102 115q31 0 56.5 -20t47.5 -40t44 -20q58 0 73 80h29q-7 -56 -34.5 -85.5t-67.5 -29.5q-31 0 -56.5 20t-47.5 40t-44 20zM146 350v-311h452v-39h-489h-10v700h47h442v-39h-442v-272h412v-39h-412z" />
    <glyph glyph-name="uni1EBD" unicode="&#x1ebd;" horiz-adv-x="601" 
d="M227 671q-59 0 -74 -80h-28q13 115 102 115q31 0 56.5 -20t47.5 -40t44 -20q58 0 73 80h29q-7 -56 -34.5 -85.5t-67.5 -29.5q-31 0 -56.5 20t-47.5 40t-44 20zM313 27q71 0 119.5 32t64.5 90h44q-18 -75 -78 -117t-150 -42q-107 0 -183 68q-75 68 -75 185q0 119 74 187
q73 67 181 67q104 0 170 -57q66 -59 66 -175h-443q-1 -5 -1 -22q0 -102 61 -159t150 -57zM311 462q-80 0 -134.5 -43t-69.5 -122h391q-3 78 -54 121.5t-133 43.5z" />
    <glyph glyph-name="uni1EBE" unicode="&#x1ebe;" 
d="M587 1007h57l-139 -132h-39zM453 768l-96 113l-97 -113h-49l129 132h33l129 -132h-49zM558 350h-412v-311h452v-39h-489h-10v700h47h442v-39h-442v-272h412v-39z" />
    <glyph glyph-name="uni1EBF" unicode="&#x1ebf;" horiz-adv-x="601" 
d="M539 851h52l-130 -162h-34zM399 565l-99 137l-99 -137h-47l128 162h36l128 -162h-47zM546 265h-443q-1 -5 -1 -22q0 -102 61 -159t150 -57q71 0 119.5 32t64.5 90h44q-18 -75 -78 -117t-150 -42q-107 0 -183 68q-75 68 -75 185q0 119 74 187q73 67 181 67q104 0 170 -57
q66 -59 66 -175zM311 462q-80 0 -134.5 -43t-69.5 -122h391q-3 78 -54 121.5t-133 43.5z" />
    <glyph glyph-name="uni1EC0" unicode="&#x1ec0;" 
d="M413 1007l121 -132h-39l-139 132h57zM453 768l-96 113l-97 -113h-49l129 132h33l129 -132h-49zM146 350v-311h452v-39h-489h-10v700h47h442v-39h-442v-272h412v-39h-412z" />
    <glyph glyph-name="uni1EC1" unicode="&#x1ec1;" horiz-adv-x="601" 
d="M364 851l112 -162h-34l-130 162h52zM399 565l-99 137l-99 -137h-47l128 162h36l128 -162h-47zM313 27q71 0 119.5 32t64.5 90h44q-18 -75 -78 -117t-150 -42q-107 0 -183 68q-75 68 -75 185q0 119 74 187q73 67 181 67q104 0 170 -57q66 -59 66 -175h-443q-1 -5 -1 -22
q0 -102 61 -159t150 -57zM311 462q-80 0 -134.5 -43t-69.5 -122h391q-3 78 -54 121.5t-133 43.5z" />
    <glyph glyph-name="uni1EC2" unicode="&#x1ec2;" 
d="M480 1030q-60 0 -67 -60h-33q7 88 100 88q46 0 73 -23.5t27 -64.5q0 -25 -13.5 -43t-29 -26t-29 -20t-13.5 -26h-30q0 24 20.5 40.5t40.5 33t20 41.5q0 29 -17.5 44.5t-48.5 15.5zM453 768l-96 113l-97 -113h-49l129 132h33l129 -132h-49zM146 350v-311h452v-39h-489h-10
v700h47h442v-39h-442v-272h412v-39h-412z" />
    <glyph glyph-name="uni1EC3" unicode="&#x1ec3;" horiz-adv-x="601" 
d="M441 834q-59 0 -67 -60h-33q7 88 100 88q46 0 73 -23.5t27 -64.5q0 -25 -13.5 -43t-29 -26t-29 -20t-13.5 -26h-30q0 19 12.5 33.5t28 23t28 23.5t12.5 35q0 29 -17.5 44.5t-48.5 15.5zM399 565l-99 137l-99 -137h-47l128 162h36l128 -162h-47zM313 27q71 0 119.5 32
t64.5 90h44q-18 -75 -78 -117t-150 -42q-107 0 -183 68q-75 68 -75 185q0 119 74 187q73 67 181 67q104 0 170 -57q66 -59 66 -175h-443q-1 -5 -1 -22q0 -102 61 -159t150 -57zM311 462q-80 0 -134.5 -43t-69.5 -122h391q-3 78 -54 121.5t-133 43.5z" />
    <glyph glyph-name="uni1EC4" unicode="&#x1ec4;" 
d="M793 977h29q-7 -56 -34.5 -85.5t-67.5 -29.5q-31 0 -56.5 20t-47.5 40t-44 20q-59 0 -74 -80h-28q13 115 102 115q31 0 56.5 -20t47.5 -40t44 -20q58 0 73 80zM453 768l-96 113l-97 -113h-49l129 132h33l129 -132h-49zM558 350h-412v-311h452v-39h-489h-10v700h47h442
v-39h-442v-272h412v-39z" />
    <glyph glyph-name="uni1EC5" unicode="&#x1ec5;" horiz-adv-x="601" 
d="M721 793h29q-7 -56 -34.5 -85.5t-67.5 -29.5q-31 0 -56.5 20t-47.5 40t-44 20q-59 0 -74 -80h-28q13 115 102 115q31 0 56.5 -20t47.5 -40t44 -20q58 0 73 80zM399 565l-99 137l-99 -137h-47l128 162h36l128 -162h-47zM546 265h-443q-1 -5 -1 -22q0 -102 61 -159t150 -57
q71 0 119.5 32t64.5 90h44q-18 -75 -78 -117t-150 -42q-107 0 -183 68q-75 68 -75 185q0 119 74 187q73 67 181 67q104 0 170 -57q66 -59 66 -175zM311 462q-80 0 -134.5 -43t-69.5 -122h391q-3 78 -54 121.5t-133 43.5z" />
    <glyph glyph-name="uni1EC6" unicode="&#x1ec6;" 
d="M453 768l-96 113l-97 -113h-49l129 132h33l129 -132h-49zM146 350v-311h452v-39h-489h-10v700h47h442v-39h-442v-272h412v-39h-412zM357 -125q22 0 31.5 -18t0 -36t-31.5 -17q-14 0 -24.5 10.5t-10.5 24.5t10.5 25t24.5 11z" />
    <glyph glyph-name="uni1EC7" unicode="&#x1ec7;" horiz-adv-x="601" 
d="M399 565l-99 137l-99 -137h-47l128 162h36l128 -162h-47zM313 27q71 0 119.5 32t64.5 90h44q-18 -75 -78 -117t-150 -42q-107 0 -183 68q-75 68 -75 185q0 119 74 187q73 67 181 67q104 0 170 -57q66 -59 66 -175h-443q-1 -5 -1 -22q0 -102 61 -159t150 -57zM311 462
q-80 0 -134.5 -43t-69.5 -122h391q-3 78 -54 121.5t-133 43.5zM300 -125q22 0 31.5 -18t0 -36t-31.5 -17q-14 0 -24.5 10.5t-10.5 24.5t10.5 25t24.5 11z" />
    <glyph glyph-name="uni1EC8" unicode="&#x1ec8;" horiz-adv-x="245" 
d="M120 951q46 0 73 -23.5t27 -64.5q0 -25 -13.5 -43t-29 -26t-29 -20t-13.5 -26h-30q0 24 20.5 40.5t40.5 33t20 41.5q0 29 -17.5 44.5t-48.5 15.5q-60 0 -67 -60h-33q7 88 100 88zM146 0h-47v700h47v-700z" />
    <glyph glyph-name="uni1EC9" unicode="&#x1ec9;" horiz-adv-x="214" 
d="M104 738q46 0 73 -23.5t27 -64.5q0 -25 -13.5 -43t-29 -26t-29 -20t-13.5 -26h-30q0 24 20.5 40.5t40.5 33t20 41.5q0 29 -17.5 44.5t-48.5 15.5q-60 0 -67 -60h-33q7 88 100 88zM129 0h-45v487h45v-487z" />
    <glyph glyph-name="uni1ECA" unicode="&#x1eca;" horiz-adv-x="245" 
d="M99 0v700h47v-700h-47zM123 -196q-14 0 -24.5 10.5t-10.5 24.5t10.5 25t24.5 11q22 0 31.5 -18t0 -36t-31.5 -17z" />
    <glyph glyph-name="uni1ECB" unicode="&#x1ecb;" horiz-adv-x="214" 
d="M107 621q-14 0 -24.5 10.5t-10.5 24.5t10.5 25t24.5 11q22 0 31.5 -18t0 -36t-31.5 -17zM129 0h-45v487h45v-487zM107 -196q-14 0 -24.5 10.5t-10.5 24.5t10.5 25t24.5 11q22 0 31.5 -18t0 -36t-31.5 -17z" />
    <glyph glyph-name="uni1ECC" unicode="&#x1ecc;" horiz-adv-x="836" 
d="M418 710q160 0 259 -104q99 -105 99 -256q0 -152 -99 -255q-99 -105 -259 -105q-159 0 -258 105q-100 103 -100 255t100 256q99 104 258 104zM194 122q85 -93 224 -93q138 0 224 93q85 92 85 228t-85 228q-86 93 -224 93q-139 0 -224 -93q-85 -92 -85 -228t85 -228z
M418 -196q-14 0 -24.5 10.5t-10.5 24.5t10.5 25t24.5 11q22 0 31.5 -18t0 -36t-31.5 -17z" />
    <glyph glyph-name="uni1ECD" unicode="&#x1ecd;" horiz-adv-x="626" 
d="M130 429q76 68 183 68t183 -68q75 -67 75 -186q0 -117 -75 -185q-76 -68 -183 -68t-183 68q-75 68 -75 185q0 119 75 186zM163 84q61 -57 150 -57t150 57t61 159q0 103 -61 160t-150 57t-150 -57t-61 -160q0 -102 61 -159zM313 -196q-14 0 -24.5 10.5t-10.5 24.5t10.5 25
t24.5 11q22 0 31.5 -18t0 -36t-31.5 -17z" />
    <glyph glyph-name="uni1ECE" unicode="&#x1ece;" horiz-adv-x="836" 
d="M415 923q-59 0 -67 -60h-33q7 88 100 88q46 0 73 -23.5t27 -64.5q0 -25 -13.5 -43t-29 -26t-29 -20t-13.5 -26h-30q0 19 12.5 33.5t28 23t28 23.5t12.5 35q0 29 -17.5 44.5t-48.5 15.5zM418 710q160 0 259 -104q99 -105 99 -256q0 -152 -99 -255q-99 -105 -259 -105
q-159 0 -258 105q-100 103 -100 255t100 256q99 104 258 104zM194 122q85 -93 224 -93q138 0 224 93q85 92 85 228t-85 228q-86 93 -224 93q-139 0 -224 -93q-85 -92 -85 -228t85 -228z" />
    <glyph glyph-name="uni1ECF" unicode="&#x1ecf;" horiz-adv-x="626" 
d="M310 710q-60 0 -67 -60h-33q7 88 100 88q46 0 73 -23.5t27 -64.5q0 -25 -13.5 -43t-29 -26t-29 -20t-13.5 -26h-30q0 24 20.5 40.5t40.5 33t20 41.5q0 29 -17.5 44.5t-48.5 15.5zM130 429q76 68 183 68t183 -68q75 -67 75 -186q0 -117 -75 -185q-76 -68 -183 -68t-183 68
q-75 68 -75 185q0 119 75 186zM163 84q61 -57 150 -57t150 57t61 159q0 103 -61 160t-150 57t-150 -57t-61 -160q0 -102 61 -159z" />
    <glyph glyph-name="uni1ED0" unicode="&#x1ed0;" horiz-adv-x="836" 
d="M657 1064h52l-130 -162h-34zM517 778l-99 137l-99 -137h-47l128 162h36l128 -162h-47zM418 710q160 0 259 -104q99 -105 99 -256q0 -152 -99 -255q-99 -105 -259 -105q-159 0 -258 105q-100 103 -100 255t100 256q99 104 258 104zM194 122q85 -93 224 -93q138 0 224 93
q85 92 85 228t-85 228q-86 93 -224 93q-139 0 -224 -93q-85 -92 -85 -228t85 -228z" />
    <glyph glyph-name="uni1ED1" unicode="&#x1ed1;" horiz-adv-x="626" 
d="M552 851h52l-130 -162h-34zM412 565l-99 137l-99 -137h-47l128 162h36l128 -162h-47zM130 429q76 68 183 68t183 -68q75 -67 75 -186q0 -117 -75 -185q-76 -68 -183 -68t-183 68q-75 68 -75 185q0 119 75 186zM163 84q61 -57 150 -57t150 57t61 159q0 103 -61 160
t-150 57t-150 -57t-61 -160q0 -102 61 -159z" />
    <glyph glyph-name="uni1ED2" unicode="&#x1ed2;" horiz-adv-x="836" 
d="M482 1064l112 -162h-34l-130 162h52zM517 778l-99 137l-99 -137h-47l128 162h36l128 -162h-47zM418 710q160 0 259 -104q99 -105 99 -256q0 -152 -99 -255q-99 -105 -259 -105q-159 0 -258 105q-100 103 -100 255t100 256q99 104 258 104zM194 122q85 -93 224 -93
q138 0 224 93q85 92 85 228t-85 228q-86 93 -224 93q-139 0 -224 -93q-85 -92 -85 -228t85 -228z" />
    <glyph glyph-name="uni1ED3" unicode="&#x1ed3;" horiz-adv-x="626" 
d="M377 851l112 -162h-34l-130 162h52zM412 565l-99 137l-99 -137h-47l128 162h36l128 -162h-47zM130 429q76 68 183 68t183 -68q75 -67 75 -186q0 -117 -75 -185q-76 -68 -183 -68t-183 68q-75 68 -75 185q0 119 75 186zM163 84q61 -57 150 -57t150 57t61 159
q0 103 -61 160t-150 57t-150 -57t-61 -160q0 -102 61 -159z" />
    <glyph glyph-name="uni1ED4" unicode="&#x1ed4;" horiz-adv-x="836" 
d="M559 1047q-59 0 -67 -60h-33q7 88 100 88q46 0 73 -23.5t27 -64.5q0 -25 -13.5 -43t-29 -26t-29 -20t-13.5 -26h-30q0 19 12.5 33.5t28 23t28 23.5t12.5 35q0 29 -17.5 44.5t-48.5 15.5zM517 778l-99 137l-99 -137h-47l128 162h36l128 -162h-47zM418 710q160 0 259 -104
q99 -105 99 -256q0 -152 -99 -255q-99 -105 -259 -105q-159 0 -258 105q-100 103 -100 255t100 256q99 104 258 104zM194 122q85 -93 224 -93q138 0 224 93q85 92 85 228t-85 228q-86 93 -224 93q-139 0 -224 -93q-85 -92 -85 -228t85 -228z" />
    <glyph glyph-name="uni1ED5" unicode="&#x1ed5;" horiz-adv-x="626" 
d="M454 834q-60 0 -67 -60h-33q7 88 100 88q46 0 73 -23.5t27 -64.5q0 -25 -13.5 -43t-29 -26t-29 -20t-13.5 -26h-30q0 24 20.5 40.5t40.5 33t20 41.5q0 29 -17.5 44.5t-48.5 15.5zM412 565l-99 137l-99 -137h-47l128 162h36l128 -162h-47zM130 429q76 68 183 68t183 -68
q75 -67 75 -186q0 -117 -75 -185q-76 -68 -183 -68t-183 68q-75 68 -75 185q0 119 75 186zM163 84q61 -57 150 -57t150 57t61 159q0 103 -61 160t-150 57t-150 -57t-61 -160q0 -102 61 -159z" />
    <glyph glyph-name="uni1ED6" unicode="&#x1ed6;" horiz-adv-x="836" 
d="M839 1006h29q-7 -56 -34.5 -85.5t-67.5 -29.5q-31 0 -56.5 20t-47.5 40t-44 20q-59 0 -74 -80h-28q13 115 102 115q31 0 56.5 -20t47.5 -40t44 -20q58 0 73 80zM517 778l-99 137l-99 -137h-47l128 162h36l128 -162h-47zM418 710q160 0 259 -104q99 -105 99 -256
q0 -152 -99 -255q-99 -105 -259 -105q-159 0 -258 105q-100 103 -100 255t100 256q99 104 258 104zM194 122q85 -93 224 -93q138 0 224 93q85 92 85 228t-85 228q-86 93 -224 93q-139 0 -224 -93q-85 -92 -85 -228t85 -228z" />
    <glyph glyph-name="uni1ED7" unicode="&#x1ed7;" horiz-adv-x="626" 
d="M734 793h29q-7 -56 -34.5 -85.5t-67.5 -29.5q-31 0 -56.5 20t-47.5 40t-44 20q-59 0 -74 -80h-28q13 115 102 115q31 0 56.5 -20t47.5 -40t44 -20q58 0 73 80zM412 565l-99 137l-99 -137h-47l128 162h36l128 -162h-47zM130 429q76 68 183 68t183 -68q75 -67 75 -186
q0 -117 -75 -185q-76 -68 -183 -68t-183 68q-75 68 -75 185q0 119 75 186zM163 84q61 -57 150 -57t150 57t61 159q0 103 -61 160t-150 57t-150 -57t-61 -160q0 -102 61 -159z" />
    <glyph glyph-name="uni1ED8" unicode="&#x1ed8;" horiz-adv-x="836" 
d="M517 778l-99 137l-99 -137h-47l128 162h36l128 -162h-47zM418 710q160 0 259 -104q99 -105 99 -256q0 -152 -99 -255q-99 -105 -259 -105q-159 0 -258 105q-100 103 -100 255t100 256q99 104 258 104zM194 122q85 -93 224 -93q138 0 224 93q85 92 85 228t-85 228
q-86 93 -224 93q-139 0 -224 -93q-85 -92 -85 -228t85 -228zM418 -125q22 0 31.5 -18t0 -36t-31.5 -17q-14 0 -24.5 10.5t-10.5 24.5t10.5 25t24.5 11z" />
    <glyph glyph-name="uni1ED9" unicode="&#x1ed9;" horiz-adv-x="626" 
d="M412 565l-99 137l-99 -137h-47l128 162h36l128 -162h-47zM130 429q76 68 183 68t183 -68q75 -67 75 -186q0 -117 -75 -185q-76 -68 -183 -68t-183 68q-75 68 -75 185q0 119 75 186zM163 84q61 -57 150 -57t150 57t61 159q0 103 -61 160t-150 57t-150 -57t-61 -160
q0 -102 61 -159zM313 -125q22 0 31.5 -18t0 -36t-31.5 -17q-14 0 -24.5 10.5t-10.5 24.5t10.5 25t24.5 11z" />
    <glyph glyph-name="uni1EDA" unicode="&#x1eda;" horiz-adv-x="836" 
d="M522 900h57l-139 -132h-39zM845 661q0 -53 -30 -85.5t-85 -41.5q46 -82 46 -184q0 -152 -99 -255q-99 -105 -259 -105q-159 0 -258 105q-100 103 -100 255t100 256q99 104 258 104q92 0 167.5 -38t124.5 -106q92 8 92 95q0 6 -2 38h43q2 -32 2 -38zM194 122
q85 -93 224 -93q138 0 224 93q85 92 85 228t-85 228q-86 93 -224 93q-139 0 -224 -93q-85 -92 -85 -228t85 -228z" />
    <glyph glyph-name="uni1EDB" unicode="&#x1edb;" horiz-adv-x="711" 
d="M408 727h52l-130 -162h-34zM685 448q0 -54 -33 -87.5t-91 -40.5q10 -33 10 -77q0 -117 -75 -185q-76 -68 -183 -68t-183 68q-75 68 -75 185q0 119 75 186q76 68 183 68q80 0 143.5 -38t93.5 -106q92 8 92 95q0 6 -2 38h43q2 -32 2 -38zM163 84q61 -57 150 -57t150 57
t61 159q0 103 -61 160t-150 57t-150 -57t-61 -160q0 -102 61 -159z" />
    <glyph glyph-name="uni1EDC" unicode="&#x1edc;" horiz-adv-x="836" 
d="M348 900l121 -132h-39l-139 132h57zM845 661q0 -53 -30 -85.5t-85 -41.5q46 -82 46 -184q0 -152 -99 -255q-99 -105 -259 -105q-159 0 -258 105q-100 103 -100 255t100 256q99 104 258 104q92 0 167.5 -38t124.5 -106q92 8 92 95q0 6 -2 38h43q2 -32 2 -38zM194 122
q85 -93 224 -93q138 0 224 93q85 92 85 228t-85 228q-86 93 -224 93q-139 0 -224 -93q-85 -92 -85 -228t85 -228z" />
    <glyph glyph-name="uni1EDD" unicode="&#x1edd;" horiz-adv-x="711" 
d="M233 727l112 -162h-34l-130 162h52zM685 448q0 -54 -33 -87.5t-91 -40.5q10 -33 10 -77q0 -117 -75 -185q-76 -68 -183 -68t-183 68q-75 68 -75 185q0 119 75 186q76 68 183 68q80 0 143.5 -38t93.5 -106q92 8 92 95q0 6 -2 38h43q2 -32 2 -38zM163 84q61 -57 150 -57
t150 57t61 159q0 103 -61 160t-150 57t-150 -57t-61 -160q0 -102 61 -159z" />
    <glyph glyph-name="uni1EDE" unicode="&#x1ede;" horiz-adv-x="836" 
d="M415 923q-59 0 -67 -60h-33q7 88 100 88q46 0 73 -23.5t27 -64.5q0 -25 -13.5 -43t-29 -26t-29 -20t-13.5 -26h-30q0 19 12.5 33.5t28 23t28 23.5t12.5 35q0 29 -17.5 44.5t-48.5 15.5zM845 661q0 -53 -30 -85.5t-85 -41.5q46 -82 46 -184q0 -152 -99 -255
q-99 -105 -259 -105q-159 0 -258 105q-100 103 -100 255t100 256q99 104 258 104q92 0 167.5 -38t124.5 -106q92 8 92 95q0 6 -2 38h43q2 -32 2 -38zM194 122q85 -93 224 -93q138 0 224 93q85 92 85 228t-85 228q-86 93 -224 93q-139 0 -224 -93q-85 -92 -85 -228t85 -228z
" />
    <glyph glyph-name="uni1EDF" unicode="&#x1edf;" horiz-adv-x="711" 
d="M310 710q-60 0 -67 -60h-33q7 88 100 88q46 0 73 -23.5t27 -64.5q0 -25 -13.5 -43t-29 -26t-29 -20t-13.5 -26h-30q0 24 20.5 40.5t40.5 33t20 41.5q0 29 -17.5 44.5t-48.5 15.5zM685 448q0 -54 -33 -87.5t-91 -40.5q10 -33 10 -77q0 -117 -75 -185q-76 -68 -183 -68
t-183 68q-75 68 -75 185q0 119 75 186q76 68 183 68q80 0 143.5 -38t93.5 -106q92 8 92 95q0 6 -2 38h43q2 -32 2 -38zM163 84q61 -57 150 -57t150 57t61 159q0 103 -61 160t-150 57t-150 -57t-61 -160q0 -102 61 -159z" />
    <glyph glyph-name="uni1EE0" unicode="&#x1ee0;" horiz-adv-x="836" 
d="M345 854q-59 0 -74 -80h-28q13 115 102 115q31 0 56.5 -20t47.5 -40t44 -20q58 0 73 80h29q-7 -56 -34.5 -85.5t-67.5 -29.5q-31 0 -56.5 20t-47.5 40t-44 20zM845 661q0 -53 -30 -85.5t-85 -41.5q46 -82 46 -184q0 -152 -99 -255q-99 -105 -259 -105q-159 0 -258 105
q-100 103 -100 255t100 256q99 104 258 104q92 0 167.5 -38t124.5 -106q92 8 92 95q0 6 -2 38h43q2 -32 2 -38zM194 122q85 -93 224 -93q138 0 224 93q85 92 85 228t-85 228q-86 93 -224 93q-139 0 -224 -93q-85 -92 -85 -228t85 -228z" />
    <glyph glyph-name="uni1EE1" unicode="&#x1ee1;" horiz-adv-x="711" 
d="M240 671q-59 0 -74 -80h-28q13 115 102 115q31 0 56.5 -20t47.5 -40t44 -20q58 0 73 80h29q-7 -56 -34.5 -85.5t-67.5 -29.5q-31 0 -56.5 20t-47.5 40t-44 20zM685 448q0 -54 -33 -87.5t-91 -40.5q10 -33 10 -77q0 -117 -75 -185q-76 -68 -183 -68t-183 68
q-75 68 -75 185q0 119 75 186q76 68 183 68q80 0 143.5 -38t93.5 -106q92 8 92 95q0 6 -2 38h43q2 -32 2 -38zM163 84q61 -57 150 -57t150 57t61 159q0 103 -61 160t-150 57t-150 -57t-61 -160q0 -102 61 -159z" />
    <glyph glyph-name="uni1EE2" unicode="&#x1ee2;" horiz-adv-x="836" 
d="M845 661q0 -53 -30 -85.5t-85 -41.5q46 -82 46 -184q0 -152 -99 -255q-99 -105 -259 -105q-159 0 -258 105q-100 103 -100 255t100 256q99 104 258 104q92 0 167.5 -38t124.5 -106q92 8 92 95q0 6 -2 38h43q2 -32 2 -38zM194 122q85 -93 224 -93q138 0 224 93
q85 92 85 228t-85 228q-86 93 -224 93q-139 0 -224 -93q-85 -92 -85 -228t85 -228zM418 -125q22 0 31.5 -18t0 -36t-31.5 -17q-14 0 -24.5 10.5t-10.5 24.5t10.5 25t24.5 11z" />
    <glyph glyph-name="uni1EE3" unicode="&#x1ee3;" horiz-adv-x="711" 
d="M685 448q0 -54 -33 -87.5t-91 -40.5q10 -33 10 -77q0 -117 -75 -185q-76 -68 -183 -68t-183 68q-75 68 -75 185q0 119 75 186q76 68 183 68q80 0 143.5 -38t93.5 -106q92 8 92 95q0 6 -2 38h43q2 -32 2 -38zM163 84q61 -57 150 -57t150 57t61 159q0 103 -61 160t-150 57
t-150 -57t-61 -160q0 -102 61 -159zM313 -125q22 0 31.5 -18t0 -36t-31.5 -17q-14 0 -24.5 10.5t-10.5 24.5t10.5 25t24.5 11z" />
    <glyph glyph-name="uni1EE4" unicode="&#x1ee4;" horiz-adv-x="765" 
d="M624 312v388h46v-398q0 -182 -125 -266q-67 -46 -163 -46q-72 0 -129 26t-90.5 70.5t-51 99t-17.5 116.5v398h47v-388q0 -120 59 -202q58 -81 182 -81q64 0 112 23.5t75.5 64t41 89.5t13.5 106zM382 -125q22 0 31.5 -18t0 -36t-31.5 -17q-14 0 -24.5 10.5t-10.5 24.5
t10.5 25t24.5 11z" />
    <glyph glyph-name="uni1EE5" unicode="&#x1ee5;" horiz-adv-x="622" 
d="M493 241v246h45v-487h-45v120q-70 -130 -209 -130q-91 0 -145.5 54.5t-54.5 159.5v283h45v-276q0 -92 44.5 -136.5t122.5 -44.5q74 0 136 57q61 57 61 154zM311 -125q22 0 31.5 -18t0 -36t-31.5 -17q-14 0 -24.5 10.5t-10.5 24.5t10.5 25t24.5 11z" />
    <glyph glyph-name="uni1EE6" unicode="&#x1ee6;" horiz-adv-x="765" 
d="M379 923q-59 0 -67 -60h-33q7 88 100 88q46 0 73 -23.5t27 -64.5q0 -25 -13.5 -43t-29 -26t-29 -20t-13.5 -26h-30q0 19 12.5 33.5t28 23t28 23.5t12.5 35q0 29 -17.5 44.5t-48.5 15.5zM624 312v388h46v-398q0 -182 -125 -266q-67 -46 -163 -46q-72 0 -129 26t-90.5 70.5
t-51 99t-17.5 116.5v398h47v-388q0 -120 59 -202q58 -81 182 -81q64 0 112 23.5t75.5 64t41 89.5t13.5 106z" />
    </font>
</defs>
</svg>
